<svg width="16" height="16" viewBox="0 0 16 16" fill="none" xmlns="http://www.w3.org/2000/svg">
<path fill-rule="evenodd" clip-rule="evenodd" d="M7.88018 0.0104547C7.77566 0.0367148 7.69231 0.0872122 7.61511 0.171006C7.48546 0.31174 7.48655 0.305621 7.47702 0.944768L7.46853 1.51414L7.35811 1.52694C6.41935 1.63565 5.49065 2.00408 4.73053 2.5693C3.57571 3.42805 2.80517 4.68457 2.56864 6.09479C2.52151 6.37565 2.50375 6.67268 2.48268 7.53102C2.464 8.29253 2.45058 8.5358 2.39702 9.08471C2.27167 10.369 1.97475 11.544 1.63111 12.1157C1.51964 12.3011 1.49071 12.3924 1.50242 12.5215C1.52096 12.7263 1.65761 12.9065 1.84857 12.978L1.94113 13.0127L8.02572 13.0083L14.1103 13.004L14.1888 12.9677C14.3015 12.9155 14.3994 12.8201 14.4538 12.7093C14.4939 12.6275 14.5008 12.5927 14.4999 12.4771C14.4986 12.3182 14.4652 12.2337 14.3499 12.0986C14.1122 11.82 13.8824 11.1215 13.7303 10.2159C13.6019 9.45132 13.5361 8.56589 13.5154 7.32706C13.5043 6.65701 13.4872 6.38644 13.4374 6.0882C13.1573 4.41311 12.1218 2.96995 10.6093 2.14642C10.0222 1.8268 9.31878 1.6045 8.6491 1.52694L8.53869 1.51414L8.53019 0.944768C8.52294 0.458847 8.51749 0.366078 8.49299 0.311995C8.44934 0.21564 8.31891 0.0862264 8.22447 0.0455701C8.12668 0.00348604 7.97109 -0.0123889 7.88018 0.0104547ZM7.56195 2.57869C6.72033 2.66435 5.88319 3.00723 5.21779 3.53883C5.04152 3.67965 4.7008 4.01819 4.56126 4.19115C4.01981 4.86225 3.68821 5.6549 3.58712 6.51971C3.57674 6.60852 3.56122 7.02154 3.55262 7.43754C3.53727 8.18108 3.51016 8.69251 3.45937 9.19671C3.36049 10.1781 3.18912 11.0452 2.95904 11.7284C2.92141 11.8402 2.89062 11.9339 2.89062 11.9366C2.89062 11.9394 5.1791 11.9417 7.97612 11.9417H13.0616L12.9863 11.7081C12.7254 10.8984 12.5707 9.9294 12.4879 8.58482C12.4781 8.4259 12.4629 7.92875 12.4542 7.48003C12.4345 6.47241 12.406 6.2186 12.2572 5.72593C12.0406 5.00889 11.6775 4.40086 11.1467 3.86638C10.4178 3.13236 9.46254 2.68075 8.42107 2.5778C8.20786 2.55673 7.77323 2.55717 7.56195 2.57869ZM6.57897 13.9484C6.40525 13.983 6.2496 14.111 6.18376 14.2733C6.03881 14.6306 6.40693 15.3178 6.93209 15.6704C7.5917 16.1132 8.43335 16.1096 9.09531 15.6611C9.23329 15.5676 9.5081 15.2921 9.59263 15.1626C9.84512 14.7756 9.92095 14.4646 9.81542 14.2488C9.66198 13.935 9.27374 13.8457 8.99337 14.0597C8.92293 14.1134 8.87268 14.193 8.81219 14.3467C8.71904 14.5834 8.56982 14.7527 8.37218 14.8459C8.1235 14.9632 7.87273 14.9605 7.62263 14.838C7.42591 14.7416 7.29151 14.583 7.18983 14.327C7.11998 14.1513 7.04627 14.0647 6.9115 14.0003C6.79208 13.9432 6.68728 13.9269 6.57897 13.9484Z" fill="#333333"/>
</svg>
