<svg width="16" height="16" viewBox="0 0 16 16" fill="none" xmlns="http://www.w3.org/2000/svg">
<path fill-rule="evenodd" clip-rule="evenodd" d="M5.28512 0.00972418C4.4541 0.0774396 3.7713 0.714486 3.63543 1.54883C3.60711 1.72278 3.607 1.76441 3.63359 2.34626C3.65297 2.77039 3.65653 2.98631 3.6451 3.04481C3.58769 3.33875 3.34033 3.58749 3.04458 3.64867C2.96366 3.66541 2.8394 3.66379 2.39005 3.64018C2.08218 3.62401 1.76906 3.61599 1.68632 3.62217C1.35774 3.64668 1.00351 3.78162 0.728542 3.98701C-0.0136119 4.54137 -0.217571 5.5808 0.257432 6.38801C0.359862 6.56207 0.484444 6.70236 0.755846 6.94929C1.41947 7.55305 1.4489 7.58527 1.50689 7.77113C1.54467 7.89219 1.54797 8.11767 1.51364 8.23177C1.46181 8.40411 1.39288 8.48501 0.976856 8.86191C0.403792 9.38106 0.319876 9.47715 0.177256 9.77751C-0.147204 10.4608 -0.0184401 11.2766 0.49966 11.8203C0.7705 12.1045 1.13289 12.3028 1.49809 12.3665C1.67999 12.3982 1.8956 12.3984 2.48238 12.3671C2.99795 12.3396 3.09361 12.3483 3.25736 12.4375C3.37387 12.5009 3.51933 12.6499 3.57732 12.7652C3.66693 12.9433 3.67028 12.9906 3.63754 13.6182C3.62123 13.9308 3.61258 14.2485 3.61834 14.3243C3.65687 14.8321 3.94571 15.3498 4.35496 15.6446C4.68805 15.8846 5.04194 16.0006 5.43957 16C5.90135 15.9994 6.29779 15.8544 6.63992 15.561C6.69232 15.516 6.85642 15.3453 7.00459 15.1816C7.44763 14.692 7.58207 14.5639 7.70069 14.5182C7.8377 14.4654 8.09048 14.452 8.22321 14.4906C8.39177 14.5397 8.495 14.6274 8.85674 15.0293C9.04375 15.237 9.25482 15.4616 9.32576 15.5282C9.55668 15.745 9.85398 15.8948 10.1926 15.9648C10.4372 16.0154 10.7861 16.0048 11.0243 15.9396C11.6649 15.7643 12.165 15.2587 12.3272 14.6223C12.3864 14.3899 12.3923 14.2075 12.36 13.6044C12.3388 13.2086 12.3361 13.0482 12.3495 12.975C12.4042 12.6753 12.6637 12.4135 12.9611 12.358C13.0269 12.3457 13.1923 12.3481 13.5381 12.3664C14.1848 12.4005 14.324 12.3992 14.5324 12.357C14.8836 12.2857 15.1776 12.1271 15.445 11.8647C15.6274 11.6856 15.72 11.5581 15.8191 11.3494C16.0836 10.7925 16.0534 10.1473 15.7382 9.61644C15.6107 9.40192 15.5201 9.30797 14.9253 8.7737C14.6194 8.49899 14.5485 8.41343 14.491 8.25004C14.461 8.16467 14.4562 8.11905 14.4617 7.96948C14.4676 7.8111 14.4745 7.77821 14.5224 7.67899C14.5891 7.54102 14.6293 7.49889 15.096 7.07833C15.3018 6.89299 15.5136 6.69063 15.5669 6.62866C15.8794 6.26486 16.043 5.73715 15.9902 5.26329C15.9544 4.94202 15.8162 4.58685 15.6328 4.34484C15.3854 4.01832 14.9958 3.76075 14.603 3.66408C14.3997 3.61405 14.1493 3.608 13.5715 3.63919C13.1009 3.66461 13.039 3.66481 12.9378 3.64134C12.7918 3.60747 12.7049 3.56185 12.6009 3.46459C12.4913 3.36207 12.4247 3.26393 12.3823 3.1427C12.3416 3.02644 12.3395 2.89972 12.3688 2.33108C12.4059 1.61027 12.376 1.38228 12.197 1.02103C11.9145 0.450921 11.3795 0.079872 10.7381 0.0092649C10.3773 -0.0304527 9.95693 0.0593414 9.6399 0.243794C9.41991 0.371792 9.30153 0.48278 8.81803 1.01437C8.37626 1.50008 8.328 1.53046 7.9982 1.53046C7.83492 1.53046 7.78686 1.52413 7.70669 1.49205C7.57711 1.44022 7.50907 1.37684 7.09272 0.920132C6.73101 0.523382 6.61511 0.411339 6.45809 0.306594C6.12454 0.0841244 5.69773 -0.0239039 5.28512 0.00972418ZM5.36307 1.07393C5.16391 1.10877 5.02991 1.17336 4.91343 1.29065C4.80189 1.403 4.73984 1.51083 4.70466 1.65347C4.67933 1.75619 4.67858 1.81345 4.69705 2.23619C4.72384 2.84981 4.72258 3.07175 4.69133 3.23654C4.58217 3.81229 4.22179 4.28192 3.68849 4.54336C3.32331 4.72239 3.14565 4.74424 2.35862 4.70698C1.89216 4.68488 1.75735 4.68349 1.67891 4.69995C1.28469 4.78269 1.01343 5.17076 1.07748 5.56033C1.10168 5.70747 1.15395 5.82523 1.24219 5.9314C1.27859 5.9752 1.48467 6.17115 1.70016 6.36686C2.19056 6.81226 2.27241 6.90672 2.41819 7.19554C2.71839 7.79034 2.6615 8.51971 2.27227 9.0666C2.15326 9.23381 2.07044 9.31796 1.67265 9.67579C1.48029 9.84884 1.28753 10.0298 1.2443 10.0779C1.11155 10.2256 1.03922 10.4825 1.07546 10.6774C1.12135 10.9243 1.2802 11.1395 1.49411 11.2444C1.66435 11.328 1.75599 11.3356 2.25593 11.308C2.78887 11.2785 3.16311 11.2877 3.33997 11.3346C3.68573 11.4262 3.96329 11.5884 4.20829 11.842C4.40518 12.0457 4.53824 12.2613 4.62663 12.5196C4.7304 12.8229 4.73868 12.9394 4.70516 13.6231C4.67374 14.2634 4.67896 14.3447 4.76214 14.5122C4.82076 14.6301 4.97037 14.7885 5.07253 14.8406C5.32244 14.9682 5.6297 14.9624 5.84071 14.8262C5.95038 14.7554 6.00507 14.7007 6.37076 14.296C6.55306 14.0943 6.73942 13.8963 6.78492 13.856C7.34663 13.359 8.16574 13.2543 8.83656 13.5938C9.08069 13.7173 9.215 13.8372 9.67242 14.3396C10.0278 14.73 10.0911 14.7905 10.2037 14.8476C10.3228 14.9079 10.4211 14.9301 10.5652 14.9289C10.8539 14.9266 11.0979 14.7734 11.2352 14.5083C11.3156 14.353 11.3223 14.2771 11.2994 13.7746C11.2633 12.9815 11.2722 12.8194 11.3671 12.5281C11.5344 12.0145 11.9602 11.5795 12.4823 11.3889C12.7454 11.2928 12.8669 11.2801 13.362 11.2968C13.6051 11.3051 13.9306 11.3118 14.0855 11.3118L14.3669 11.3119L14.4947 11.2486C14.7179 11.1382 14.8744 10.9277 14.9214 10.6747C14.9579 10.4784 14.8915 10.2404 14.7542 10.0759C14.7178 10.0323 14.5269 9.8514 14.33 9.67393C14.1331 9.49649 13.9189 9.29362 13.854 9.22313C13.2322 8.54793 13.2326 7.45863 13.855 6.78282C13.9204 6.71174 14.1308 6.51279 14.3225 6.34072C14.7047 5.99762 14.801 5.89474 14.86 5.76664C14.9202 5.63586 14.9451 5.45976 14.9214 5.33225C14.8741 5.07772 14.7163 4.86631 14.4934 4.75879C14.3331 4.6815 14.222 4.67369 13.6936 4.70247C13.1522 4.73198 12.9298 4.72861 12.7354 4.68799C12.0006 4.53446 11.4338 3.94865 11.3043 3.2088C11.2735 3.03306 11.2733 2.81387 11.3034 2.25423C11.3327 1.70965 11.3211 1.61511 11.2027 1.42927C11.1407 1.33195 11.0047 1.19972 10.9233 1.15759C10.7645 1.07545 10.5576 1.04813 10.3907 1.08727C10.1605 1.14126 10.1276 1.16805 9.6473 1.69322C9.46318 1.89453 9.27119 2.09645 9.22064 2.14194C8.88859 2.44081 8.4444 2.61139 7.9982 2.61139C7.55268 2.61139 7.10775 2.44075 6.77696 2.14302C6.72708 2.09814 6.5407 1.90004 6.36279 1.70282C6.00895 1.31056 5.93336 1.23554 5.82917 1.1732C5.707 1.10013 5.48441 1.05271 5.36307 1.07393ZM7.69218 4.49216C7.66881 4.49614 7.58083 4.50784 7.49668 4.51815C6.95744 4.5842 6.3542 4.83511 5.87645 5.19206C5.71489 5.31278 5.41006 5.60611 5.27519 5.77068C4.88632 6.24518 4.62773 6.81929 4.51852 7.45069C4.47706 7.69042 4.47714 8.31765 4.51866 8.55558C4.65466 9.3348 4.99017 9.98225 5.53464 10.5162C5.82634 10.8022 6.07831 10.9807 6.45201 11.1658C7.42155 11.6463 8.57558 11.6462 9.54439 11.1657C10.1216 10.8795 10.5659 10.4912 10.9263 9.95805C11.2007 9.5522 11.3918 9.06569 11.4777 8.55424C11.5201 8.30137 11.5202 7.69678 11.4778 7.45069C11.3771 6.8663 11.1547 6.34499 10.8082 5.88064C10.6875 5.719 10.3943 5.41402 10.2299 5.27908C9.76001 4.89361 9.17172 4.62778 8.55923 4.52417C8.40625 4.4983 7.78948 4.47553 7.69218 4.49216ZM7.61568 5.57966C7.10219 5.66142 6.66171 5.88512 6.28317 6.25639C5.89445 6.63764 5.66365 7.08452 5.57448 7.62868C5.54302 7.82051 5.54374 8.18552 5.57592 8.38567C5.74532 9.43886 6.56226 10.257 7.61517 10.4278C7.81204 10.4598 8.18436 10.4598 8.38123 10.4278C8.89462 10.3445 9.35636 10.1096 9.72108 9.74617C10.1995 9.26943 10.4457 8.67732 10.4457 8.0035C10.4457 7.32453 10.1982 6.73404 9.71263 6.25494C9.3419 5.88911 8.88003 5.65741 8.36372 5.57819C8.17708 5.54957 7.80009 5.5503 7.61568 5.57966Z" fill="#333333"/>
</svg>
