<svg width="14" height="14" viewBox="0 0 14 14" fill="none" xmlns="http://www.w3.org/2000/svg">
<path d="M6.99316 10.2832C7.37372 10.2833 7.73867 10.4341 8.00781 10.7031C8.27703 10.9723 8.42871 11.338 8.42871 11.7188C8.42862 12.0994 8.27695 12.4643 8.00781 12.7334C7.73865 13.0025 7.37379 13.1542 6.99316 13.1543C6.61243 13.1543 6.24676 13.0026 5.97754 12.7334C5.70853 12.4643 5.55771 12.0993 5.55762 11.7188C5.55762 11.3381 5.70836 10.9723 5.97754 10.7031C6.24676 10.4339 6.61243 10.2832 6.99316 10.2832ZM6.99316 5.56641C7.37372 5.56646 7.73867 5.71729 8.00781 5.98633C8.27703 6.25555 8.42871 6.62122 8.42871 7.00195C8.42862 7.38256 8.27695 7.74747 8.00781 8.0166C7.73865 8.28573 7.37379 8.43744 6.99316 8.4375C6.61243 8.4375 6.24676 8.28582 5.97754 8.0166C5.70853 7.74749 5.55771 7.38246 5.55762 7.00195C5.55762 6.62125 5.70836 6.25554 5.97754 5.98633C6.24676 5.71711 6.61243 5.56641 6.99316 5.56641ZM6.99316 0.849609C7.37372 0.849666 7.73867 1.00049 8.00781 1.26953C8.27703 1.53875 8.42871 1.90443 8.42871 2.28516C8.42862 2.66576 8.27695 3.03067 8.00781 3.2998C7.73865 3.56893 7.37379 3.72065 6.99316 3.7207C6.61243 3.7207 6.24676 3.56902 5.97754 3.2998C5.70853 3.03069 5.55771 2.66566 5.55762 2.28516C5.55762 1.90446 5.70836 1.53874 5.97754 1.26953C6.24676 1.00031 6.61243 0.849609 6.99316 0.849609Z" fill="black"/>
</svg>
