<svg width="16" height="16" viewBox="0 0 16 16" fill="none" xmlns="http://www.w3.org/2000/svg">
<path fill-rule="evenodd" clip-rule="evenodd" d="M7.78493 0.508635C7.76623 0.512408 7.70887 0.524129 7.65746 0.534645C7.52328 0.562104 7.29418 0.662895 7.15609 0.755213C7.06433 0.816561 6.24837 1.6444 3.58948 4.37382C1.6432 6.37172 0.117266 7.95156 0.0853992 8.00173C-0.120061 8.32511 0.0638658 8.75773 0.437837 8.83062C0.551146 8.8527 0.70358 8.82528 0.797633 8.76587C0.836179 8.7415 2.41262 7.13486 4.30083 5.19555C7.0013 2.42199 7.75026 1.66198 7.81042 1.63424C7.91369 1.5866 8.08106 1.5866 8.18432 1.63424C8.24449 1.66198 8.99508 2.42369 11.7024 5.2044C14.1143 7.68163 15.1657 8.75039 15.2165 8.77638C15.5985 8.97178 16.04 8.66932 15.9971 8.24167C15.9761 8.03237 16.1675 8.23837 12.4125 4.3837C9.18768 1.0732 8.91311 0.795791 8.78461 0.718128C8.62791 0.623452 8.41654 0.543256 8.25231 0.516181C8.14683 0.498783 7.85672 0.494101 7.78493 0.508635ZM2.29535 8.82783C2.12441 8.91209 2.02715 9.04742 1.9981 9.24138C1.9699 9.42972 1.98284 15.0356 2.01166 15.1224C2.05876 15.2641 2.22317 15.4291 2.3598 15.4717C2.41617 15.4893 2.87591 15.494 4.53027 15.494H6.62923L6.7094 15.4559C6.82201 15.4025 6.94953 15.2738 6.99705 15.1658L7.03712 15.0748L7.04562 12.8913L7.05412 10.7078L7.09086 10.6379C7.13971 10.545 7.22392 10.4644 7.31755 10.4209C7.38981 10.3873 7.42724 10.3853 7.99737 10.3852C8.59494 10.3849 8.60153 10.3853 8.68634 10.4259C8.78463 10.4729 8.90472 10.6034 8.93573 10.6969C8.95178 10.7452 8.95885 11.2745 8.96568 12.9349L8.97462 15.1097L9.01296 15.1834C9.10458 15.3597 9.23413 15.4561 9.41873 15.4853C9.49747 15.4978 10.1967 15.5023 11.5664 15.4989L13.5974 15.494L13.6858 15.4529C13.7976 15.401 13.9297 15.2589 13.9726 15.1446C14.0044 15.0596 14.0053 14.9785 14.0053 12.1314C14.0053 9.29555 14.0043 9.20285 13.9729 9.11919C13.934 9.01552 13.8317 8.89703 13.7259 8.83307C13.6558 8.79074 13.6322 8.78627 13.4785 8.78627C13.337 8.78627 13.2971 8.79258 13.2405 8.82377C13.149 8.87429 13.0424 8.98796 12.9925 9.08824L12.9516 9.17057L12.9471 11.7864L12.9426 14.4022H11.4818H10.0209L10.0156 12.4764C10.0115 10.9666 10.0057 10.5354 9.98856 10.4807C9.88122 10.1376 9.77676 9.95537 9.56296 9.73828C9.37784 9.55034 9.19651 9.43379 8.9781 9.36242C8.75001 9.28786 8.65485 9.28123 7.91741 9.28841C7.27001 9.29469 7.21619 9.29759 7.1051 9.33223C6.5157 9.516 6.08486 10.0048 5.99288 10.5942C5.98139 10.6678 5.9751 11.358 5.97503 12.555L5.9749 14.4022H4.5135H3.0521L3.04763 11.7777L3.04316 9.1531L3.00422 9.07814C2.86462 8.80943 2.55469 8.7 2.29535 8.82783Z" fill="black" fill-opacity="0.89"/>
</svg>
