<svg width="22" height="22" viewBox="0 0 22 22" fill="none" xmlns="http://www.w3.org/2000/svg">
<path fill-rule="evenodd" clip-rule="evenodd" d="M6.09783 0.0114839C6.17841 0.0152245 6.37115 0.0345136 6.52612 0.0543208C7.80885 0.218458 8.94421 0.7686 9.86003 1.6698C10.642 2.43926 11.1772 3.39272 11.4287 4.46402C11.5446 4.9581 11.5638 5.14752 11.5627 5.78723C11.5616 6.41082 11.5356 6.65454 11.4212 7.11673L11.3794 7.28574L15.8693 11.7812C18.6826 14.598 20.4018 16.3357 20.4731 16.4345C20.7268 16.7863 20.9128 17.2298 20.9881 17.6626C21.043 17.9778 21.0227 18.5172 20.9445 18.8231C20.8728 19.1038 20.8195 19.2431 20.6884 19.4924C20.3083 20.2153 19.6374 20.7374 18.8226 20.9445C18.5163 21.0224 17.9763 21.0426 17.6617 20.9879C17.2288 20.9126 16.7851 20.7266 16.4332 20.473C16.3343 20.4017 14.5965 18.6835 11.7783 15.8707L7.28127 11.3821L7.1122 11.4234C6.6299 11.5414 6.40856 11.5644 5.7597 11.5642C5.18942 11.5641 5.11366 11.5594 4.81295 11.5051C3.60113 11.2861 2.58354 10.7654 1.72713 9.92606C0.176558 8.40637 -0.386171 6.14688 0.269814 4.07466C0.41888 3.60375 0.670559 3.06214 0.81415 2.90326C1.00729 2.68957 1.35154 2.62517 1.6233 2.75192C1.7432 2.80785 1.9172 2.97343 3.15655 4.21099L4.55456 5.60696H5.07822H5.60191V5.08364V4.56029L4.20559 3.16262C2.64692 1.60247 2.68932 1.65303 2.68669 1.3507C2.68396 1.03856 2.80889 0.841114 3.11171 0.678983C3.64629 0.392757 4.26927 0.18344 4.90312 0.0770575C5.12515 0.0397865 5.70351 -0.00629531 5.86114 0.000712726C5.91073 0.00289851 6.01724 0.00776582 6.09783 0.0114839ZM6.24435 1.44061C6.93467 1.51316 7.62225 1.75378 8.17166 2.11505C9.34802 2.88857 10.0446 4.0711 10.1585 5.48798C10.2006 6.0128 10.1381 6.51519 9.95906 7.08924C9.85818 7.41267 9.85077 7.58361 9.92953 7.77022C9.97689 7.88244 10.4252 8.33796 14.6761 12.5925L19.3704 17.2908L19.4605 17.4823C19.5787 17.7337 19.61 17.8743 19.6084 18.1471C19.6058 18.5737 19.4826 18.8641 19.1731 19.1735C18.8553 19.4912 18.5694 19.6092 18.1238 19.6065C17.9345 19.6053 17.8385 19.5933 17.7181 19.5555C17.3445 19.4383 17.6905 19.7674 12.6124 14.6988C10.0398 12.131 7.90432 10.0093 7.86685 9.9839C7.75967 9.91123 7.55001 9.85879 7.43033 9.87472C7.37315 9.88234 7.21434 9.92297 7.07742 9.96504C6.21998 10.2284 5.43084 10.2399 4.58136 10.0015C3.01812 9.56268 1.8049 8.2549 1.50108 6.68113C1.38279 6.0683 1.38608 5.40267 1.50999 4.88588C1.52633 4.81771 1.54646 4.73229 1.55473 4.69605C1.56934 4.6321 1.60324 4.66352 2.71236 5.7686C3.70318 6.75581 3.87141 6.91422 3.97891 6.96118L4.10289 7.01533L5.15385 7.02254C5.76308 7.02671 6.27201 7.02042 6.36472 7.00758C6.63455 6.9702 6.81921 6.84513 6.93559 6.62099L6.98822 6.51959L6.99442 5.30825C7.00058 4.10801 7.00017 4.09584 6.95153 3.97876C6.90906 3.87659 6.74849 3.70621 5.76615 2.72096L4.62989 1.58135L4.7158 1.55627C5.12991 1.43542 5.74922 1.38857 6.24435 1.44061Z" fill="#FF9D0A"/>
</svg>
