<svg width="21" height="22" viewBox="0 0 21 22" fill="none" xmlns="http://www.w3.org/2000/svg">
<path fill-rule="evenodd" clip-rule="evenodd" d="M14.563 0.0406706C14.4231 0.0953613 14.3276 0.173278 14.2444 0.300567C14.0239 0.638296 14.1548 1.08093 14.5275 1.25797L14.6431 1.31289L16.6388 1.31886L18.6346 1.32483L16.4454 3.51532C14.009 5.95324 14.1448 5.80125 14.1423 6.09219C14.1416 6.1687 14.1527 6.27161 14.167 6.32092C14.2059 6.45538 14.3506 6.61943 14.4957 6.69362L14.6191 6.75674L17.4935 6.76223C20.3562 6.76767 20.3684 6.76753 20.4843 6.72416C20.6307 6.66937 20.7769 6.52997 20.8458 6.37948C20.9473 6.15775 20.9055 5.8675 20.7458 5.68613C20.6327 5.55767 20.5152 5.49219 20.3497 5.46546C20.2615 5.45123 19.5346 5.44332 18.3004 5.44324L16.3877 5.44307L18.5859 3.24136C19.795 2.03041 20.7985 1.016 20.816 0.987102C20.9152 0.823051 20.9281 0.566685 20.8462 0.387732C20.779 0.241 20.6256 0.0951932 20.4819 0.0414272C20.3709 -8.47476e-05 20.3227 -0.000757344 17.5166 0.000209517C14.7768 0.00115536 14.6601 0.00275278 14.563 0.0406706ZM7.32857 1.82985C7.2592 1.84015 7.04639 1.8966 6.85564 1.95531C5.7675 2.29024 4.69278 2.84919 3.78058 3.5546C1.91122 5.00019 0.631621 7.07587 0.173896 9.4051C-0.0275899 10.4305 -0.0556709 11.657 0.0984594 12.7003C0.330674 14.272 0.952661 15.7677 1.9228 17.0874C2.50557 17.8802 3.36878 18.7137 4.20148 19.2876C5.48947 20.1752 6.97799 20.7448 8.52663 20.9425C9.33453 21.0456 10.3183 21.0377 11.1224 20.9218C12.7343 20.6894 14.2863 20.0458 15.5993 19.0652C16.0679 18.7153 16.6799 18.1512 17.0435 17.7339C17.6324 17.0582 17.7397 16.8518 17.7174 16.4369C17.6926 15.9758 17.4012 15.5996 16.9486 15.4444C16.8172 15.3993 16.7798 15.3965 16.3771 15.4018C15.1262 15.4183 14.0412 15.2184 12.9301 14.7666C12.6278 14.6437 12.5262 14.6229 12.3683 14.6515C11.9058 14.7355 11.6829 15.2339 11.9273 15.6379C12.0193 15.79 12.107 15.8542 12.3751 15.9663C13.433 16.4082 14.5422 16.6548 15.7122 16.7081C15.9535 16.719 16.1556 16.7328 16.1614 16.7386C16.1848 16.762 15.2787 17.6395 15.0109 17.8528C12.6446 19.7371 9.47063 20.2151 6.65597 19.1111C5.902 18.8154 5.10563 18.3559 4.48824 17.8605C2.79472 16.5016 1.69061 14.5607 1.39321 12.4199C1.18534 10.9236 1.39294 9.36182 1.98394 7.97583C2.42265 6.94698 2.98032 6.12395 3.78653 5.31549C4.57818 4.52159 5.43385 3.94034 6.44578 3.50903C6.6265 3.432 7.09326 3.25712 7.11815 3.25712C7.12273 3.25712 7.09814 3.32569 7.06348 3.40951C6.86113 3.89874 6.62978 4.72844 6.53162 5.31696C6.36805 6.29767 6.34895 7.35885 6.47811 8.28777C6.55377 8.83194 6.71236 9.54336 6.79957 9.73001C6.85819 9.85545 6.97123 9.96458 7.11571 10.0353C7.4246 10.1864 7.82354 10.0424 7.9796 9.72337C8.06561 9.54761 8.06836 9.44184 7.99448 9.152C7.7885 8.34393 7.71628 7.78189 7.71634 6.98795C7.71642 5.78305 7.93687 4.70719 8.40544 3.62495C8.57245 3.23922 8.59963 3.14364 8.59995 2.941C8.60041 2.64991 8.50511 2.39477 8.32017 2.192C8.06361 1.91071 7.69385 1.77566 7.32857 1.82985ZM9.87642 7.90384C9.69942 7.9463 9.53398 8.07811 9.44477 8.24775C9.39618 8.34013 9.38878 8.37912 9.38878 8.54333C9.38878 8.70764 9.39612 8.74631 9.44458 8.8376C9.51624 8.97256 9.63405 9.08558 9.76674 9.14659C9.87089 9.19447 9.88051 9.19498 10.8454 9.20116C11.3808 9.20458 11.8159 9.21459 11.8122 9.22338C11.8086 9.23216 11.2901 9.87531 10.66 10.6526C10.03 11.4299 9.48719 12.1134 9.45379 12.1716C9.37419 12.3102 9.35631 12.5122 9.40885 12.6793C9.45724 12.8331 9.59615 12.99 9.75146 13.0663L9.87183 13.1254H11.6269H13.382L13.5009 13.067C13.9511 12.8459 14.0016 12.2331 13.5937 11.94C13.426 11.8195 13.3576 11.8124 12.3468 11.8121C11.8468 11.8119 11.4377 11.8065 11.4377 11.8001C11.4377 11.7937 11.9369 11.1718 12.5471 10.4181C13.1572 9.66443 13.6918 9.00123 13.7351 8.94431C13.9921 8.60637 13.8748 8.13429 13.4865 7.94321L13.382 7.89175L11.6689 7.88827C10.7019 7.88629 9.92129 7.89306 9.87642 7.90384Z" fill="#6E88E6"/>
</svg>
