<svg xmlns="http://www.w3.org/2000/svg" width="14" height="14" fill="none"><path fill="#000" d="M10.41 13.63v-.08L8.96 8.41a.7.7 0 0 0-.18-.3L8.68 8a.63.63 0 0 0-.18-.08L.87 5.76a.71.71 0 0 0-.19-.02.7.7 0 0 0-.64.93l1.5 4.36a.7.7 0 0 0 .45.44l7.98 2.51c.03.02.07.02.1.02.17 0 .32-.14.34-.32a.34.34 0 0 0 0-.05Z"/><path fill="#000" fill-rule="evenodd" d="M13.48 4.07 8.56 2.84a.69.69 0 0 1-.49-.45L7.6.98a.7.7 0 0 0-.38-.42L6.04.06A.68.68 0 0 0 5.77 0a.7.7 0 0 0-.68.7v.46l.64.27c.33.14.59.42.7.77l.48 1.4c0 .05.04.08.07.09l4.92 1.23c.57.14.96.65.96 1.24v5.06l.25.08.2.03a.7.7 0 0 0 .69-.7V4.75a.7.7 0 0 0-.52-.68Z" clip-rule="evenodd"/><path fill="#000" fill-rule="evenodd" d="M11.77 5.47 6.85 4.24a.69.69 0 0 1-.49-.45l-.47-1.4a.7.7 0 0 0-.38-.43l-1.19-.5a.68.68 0 0 0-.26-.06.7.7 0 0 0-.69.7v.46l.57.24c.29.12.5.36.6.65l.47 1.4c.04.11.11.18.22.21l4.91 1.23c.48.12.82.56.82 1.06v5.21l.44.14.2.03a.7.7 0 0 0 .69-.7V6.15a.7.7 0 0 0-.53-.68Z" clip-rule="evenodd"/><path fill="#000" d="m8.64 7.37.05.02a1.22 1.22 0 0 1 .3.15 1.22 1.22 0 0 1 .53.72l.86 3.08V7.35a.5.5 0 0 0-.38-.5L5.08 5.63a.88.88 0 0 1-.62-.58l-.47-1.4a.5.5 0 0 0-.28-.3l-1.18-.51a.48.48 0 0 0-.39 0l-.02.01a.51.51 0 0 0-.27.46v2.14l6.8 1.93Z"/></svg>