<?xml version="1.0" encoding="UTF-8"?>
<!--
  - Infomaniak kDrive - Desktop
  - Copyright (C) 2023-2024 Infomaniak Network SA
  -
  - This program is free software: you can redistribute it and/or modify
  - it under the terms of the GNU General Public License as published by
  - the Free Software Foundation, either version 3 of the License, or
  - (at your option) any later version.
  -
  - This program is distributed in the hope that it will be useful,
  - but WITHOUT ANY WARRANTY; without even the implied warranty of
  - MERCHANTABILITY or FITNESS FOR A PARTICULAR PURPOSE.  See the
  - GNU General Public License for more details.
  -
  - You should have received a copy of the GNU General Public License
  - along with this program.  If not, see <http://www.gnu.org/licenses/>.
  -->

<svg width="16px" height="16px" viewBox="0 0 16 16" version="1.1" xmlns="http://www.w3.org/2000/svg" xmlns:xlink="http://www.w3.org/1999/xlink">
    <title>icons/theme/white/state-pause</title>
    <defs>
        <path d="M6.10416667,2.50000809 C6.41157966,2.49862658 6.69322243,2.67421801 6.83108333,2.95321569 L6.83108333,2.95321569 L7.34404167,3.99821432 C7.38995944,4.09125795 7.48367163,4.15001063 7.58616667,4.15001413 L7.58616667,4.15001413 L13.6875,4.15001413 C14.1362314,4.15001413 14.5,4.51937872 14.5,4.97501305 L14.5,4.97501305 L14.5,12.675003 C14.5,13.1306373 14.1362314,13.5000081 13.6875,13.5000081 L13.6875,13.5000081 L2.3125,13.5000081 C1.86376864,13.5000081 1.5,13.1306373 1.5,12.675003 L1.5,12.675003 L1.5,3.3250152 C1.5,2.86938088 1.86376864,2.50000809 2.3125,2.50000809 L2.3125,2.50000809 Z M6.62178564,5.64286347 L5.31571436,5.64286347 C5.00327895,5.64286347 4.75,5.89614241 4.75,6.20857783 L4.75,6.20857783 L4.75,11.3628599 C4.75,11.6752953 5.00327895,11.9285742 5.31571436,11.9285742 L5.31571436,11.9285742 L6.62178564,11.9285742 C6.93422105,11.9285742 7.1875,11.6752953 7.1875,11.3628599 L7.1875,11.3628599 L7.1875,6.20857783 C7.1875,5.89614241 6.93422105,5.64286347 6.62178564,5.64286347 L6.62178564,5.64286347 Z M10.6842856,5.64286347 L9.37821436,5.64286347 C9.06577895,5.64286347 8.8125,5.89614241 8.8125,6.20857783 L8.8125,6.20857783 L8.8125,11.3628599 C8.8125,11.6752953 9.06577895,11.9285742 9.37821436,11.9285742 L9.37821436,11.9285742 L10.6842856,11.9285742 C10.9967211,11.9285742 11.25,11.6752953 11.25,11.3628599 L11.25,11.3628599 L11.25,6.20857783 C11.25,5.89614241 10.9967211,5.64286347 10.6842856,5.64286347 L10.6842856,5.64286347 Z" id="path-1"></path>
    </defs>
    <g id="icons/theme/white/state-pause" stroke="none" stroke-width="1" fill="none" fill-rule="evenodd">
        <mask id="mask-2" fill="white">
            <use xlink:href="#path-1"></use>
        </mask>
        <use id="Combined-Shape" fill="#FFFFFF" xlink:href="#path-1"></use>
    </g>
</svg>