<svg width="16" height="16" viewBox="0 0 16 16" fill="none" xmlns="http://www.w3.org/2000/svg">
<path fill-rule="evenodd" clip-rule="evenodd" d="M4.81802 1.31802C5.66193 0.474106 6.80652 0 8 0C9.19347 0 10.3381 0.474106 11.182 1.31802C12.0259 2.16193 12.5 3.30652 12.5 4.5C12.5 5.69347 12.0259 6.83807 11.182 7.68198C10.6648 8.19915 10.0347 8.57745 9.34963 8.79285C10.7006 9.05207 11.9551 9.69712 12.9452 10.6622C14.2593 11.943 15 13.6829 15 15.5C15 15.6326 14.9473 15.7598 14.8535 15.8536C14.7598 15.9473 14.6326 16 14.5 16H1.5C1.36739 16 1.24021 15.9473 1.14645 15.8536C1.05268 15.7598 1 15.6326 1 15.5C1 13.6829 1.7407 11.943 3.05482 10.6622C4.04492 9.69712 5.29938 9.05207 6.65037 8.79285C5.9653 8.57745 5.3352 8.19915 4.81802 7.68198C3.9741 6.83807 3.5 5.69347 3.5 4.5C3.5 3.30652 3.9741 2.16193 4.81802 1.31802ZM8 1C7.07174 1 6.1815 1.36875 5.52513 2.02513C4.86875 2.6815 4.5 3.57174 4.5 4.5C4.5 5.42826 4.86875 6.31849 5.52513 6.97487C6.1815 7.63125 7.07174 8 8 8C8.92826 8 9.81849 7.63125 10.4749 6.97487C11.1312 6.31849 11.5 5.42826 11.5 4.5C11.5 3.57174 11.1312 2.6815 10.4749 2.02513C9.81849 1.36875 8.92826 1 8 1ZM8 9.66462C6.40462 9.66462 4.87709 10.2824 3.7528 11.3783C2.75092 12.3548 2.14236 13.6392 2.02206 15H13.9779C13.8576 13.6392 13.2491 12.3548 12.2472 11.3783C11.1229 10.2824 9.59538 9.66462 8 9.66462Z" fill="black"/>
</svg>
