<svg width="16" height="16" viewBox="0 0 16 16" fill="none" xmlns="http://www.w3.org/2000/svg">
<path fill-rule="evenodd" clip-rule="evenodd" d="M7.39183 2.9903C5.41759 3.15376 3.29741 4.19877 1.33884 5.97373C1.053 6.23277 0.450748 6.84492 0.340739 6.98823C0.094658 7.3088 -0.000659675 7.59433 3.4337e-06 8.00897C0.000445506 8.2928 0.0449418 8.49569 0.155188 8.7165C0.252886 8.91216 0.370647 9.05997 0.703953 9.40522C1.77503 10.5147 2.9952 11.4295 4.26332 12.0738C5.28162 12.5911 6.20228 12.8771 7.23881 12.998C7.53384 13.0324 8.52072 13.0266 8.82857 12.9887C10.0276 12.8409 11.1692 12.4319 12.3822 11.7157C13.4078 11.11 14.3587 10.3569 15.246 9.4474C15.7056 8.97628 15.8159 8.82351 15.9182 8.51644C16.0273 8.18925 16.0272 7.81137 15.9182 7.48446C15.813 7.16914 15.7089 7.02523 15.2386 6.54523C14.3673 5.65569 13.4865 4.95261 12.491 4.35193C11.2433 3.59906 10.0592 3.16451 8.84557 3.01415C8.59087 2.98258 7.66784 2.96744 7.39183 2.9903ZM7.31578 4.07308C6.50101 4.16207 5.67598 4.41943 4.79891 4.85822C3.5576 5.47923 2.38612 6.36447 1.3479 7.466C1.10804 7.72048 1.06679 7.79891 1.06679 8.00045C1.06679 8.22823 1.09588 8.27388 1.51327 8.70091C2.03026 9.22985 2.48423 9.63167 3.02511 10.0391C4.50437 11.1532 6.03095 11.8129 7.41734 11.9371C7.66906 11.9597 8.3218 11.9597 8.57353 11.9371C10.1904 11.7923 11.9676 10.9321 13.6744 9.46837C13.8006 9.3601 14.1112 9.06414 14.3646 8.81069C14.9056 8.26968 14.9241 8.24287 14.9241 8.00045C14.9241 7.79298 14.8859 7.72087 14.6354 7.45503C13.1462 5.87426 11.2798 4.68597 9.59075 4.24303C9.29587 4.1657 8.96055 4.10468 8.65211 4.07221C8.34476 4.03985 7.61574 4.04032 7.31578 4.07308ZM7.7914 4.9764C7.50426 4.99999 7.20059 5.06446 6.96307 5.15225C5.91114 5.54105 5.15969 6.47207 5.00124 7.58286C4.97339 7.778 4.97358 8.21886 5.00156 8.41804C5.14434 9.43397 5.80168 10.321 6.72872 10.7488C7.88219 11.281 9.23259 11.0393 10.1297 10.14C10.8811 9.38672 11.1834 8.29816 10.9273 7.26754C10.6351 6.09137 9.65242 5.19031 8.46301 5.00789C8.3033 4.98339 7.92324 4.96558 7.7914 4.9764ZM7.67105 6.06679C6.3622 6.30439 5.65471 7.71814 6.25695 8.89259C6.69922 9.75512 7.69928 10.1642 8.61421 9.85696C9.09403 9.69581 9.49511 9.35385 9.72593 8.9091C10.2282 7.94141 9.8529 6.75627 8.88663 6.25834C8.5183 6.06853 8.0596 5.99624 7.67105 6.06679Z" fill="black"/>
</svg>
