<svg width="16" height="16" viewBox="0 0 16 16" fill="none" xmlns="http://www.w3.org/2000/svg">
<path d="M11.4934 10.5939H12.4667C12.4667 10.5939 15.3334 10.2199 15.3334 7.40519C15.3337 6.97692 15.2476 6.55299 15.0801 6.1588C14.9127 5.76462 14.6674 5.40829 14.3589 5.11117C14.0505 4.81405 13.6852 4.58226 13.2851 4.42967C12.8849 4.27709 12.458 4.20686 12.0301 4.22319C11.6079 3.32711 10.8992 2.59722 10.0159 2.14881C9.13269 1.7004 8.12521 1.55902 7.15265 1.74702C6.1801 1.93502 5.29789 2.44167 4.64538 3.18695C3.99286 3.93223 3.60724 4.87365 3.54941 5.86253C3.20151 5.78936 2.84166 5.79471 2.49609 5.87819C2.15051 5.96166 1.8279 6.12116 1.55175 6.34507C1.27561 6.56897 1.05287 6.85165 0.899775 7.17251C0.746677 7.49337 0.667069 7.84434 0.666748 8.19986C0.666748 10.6299 3.21741 10.5919 3.21741 10.5919H4.48808" stroke="#696969" stroke-linecap="round" stroke-linejoin="round"/>
<path d="M8 13.9997V7.33301" stroke="#696969" stroke-linecap="round" stroke-linejoin="round"/>
<path d="M6 12.2607L8 14.2607L10 12.2607" stroke="#696969" stroke-linecap="round" stroke-linejoin="round"/>
</svg>
