<svg width="14" height="14" viewBox="0 0 14 14" fill="none" xmlns="http://www.w3.org/2000/svg">
<g clip-path="url(#clip0_7056_18521)">
<path d="M2.62463 2.18737H1.48132C1.35861 2.18209 1.24198 2.22358 1.15662 2.2976C1.07331 2.3699 1.02717 2.46585 1.02075 2.56335L1.02075 9.68554C1.02724 9.78284 1.07344 9.8783 1.15662 9.95043C1.24188 10.0243 1.35793 10.0659 1.48047 10.0607H12.5188C12.6415 10.0659 12.7581 10.0245 12.8435 9.95043C12.928 9.87709 12.974 9.77937 12.9794 9.68041V2.56848C12.9742 2.46932 12.9282 2.3711 12.8435 2.2976C12.7581 2.22351 12.6416 2.18209 12.5188 2.18737H11.6669C11.4252 2.18737 11.2294 1.9915 11.2294 1.74987C11.2294 1.50825 11.4252 1.31237 11.6669 1.31237H12.4812L12.6085 1.31323C12.9049 1.32832 13.191 1.4403 13.4169 1.63622C13.6757 1.86083 13.8355 2.17896 13.8535 2.52233C13.8539 2.52993 13.8544 2.53779 13.8544 2.5454V9.70349C13.8544 9.71111 13.8539 9.71894 13.8535 9.72656C13.8353 10.0698 13.6756 10.3874 13.4169 10.6118C13.1635 10.8315 12.8345 10.9446 12.5 10.9348L1.50012 10.9357C1.16556 10.9456 0.836735 10.8316 0.583252 10.6118C0.324295 10.3872 0.164547 10.0692 0.146607 9.7257L0.145752 9.70349L0.145752 2.5454L0.146606 2.52233C0.164607 2.17897 0.323595 1.86083 0.582397 1.63623C0.835889 1.41624 1.16539 1.30256 1.50012 1.31237L2.62463 1.31237C2.86626 1.31237 3.06213 1.50825 3.06213 1.74987C3.06213 1.9915 2.86626 2.18737 2.62463 2.18737Z" fill="#696969"/>
<path d="M8.74821 10.2083C8.96208 10.2083 9.14457 10.3631 9.17973 10.5741L9.61723 13.1991C9.63831 13.3258 9.60285 13.4556 9.51982 13.5537C9.43669 13.6518 9.31431 13.7083 9.18571 13.7083H4.81071C4.68211 13.7083 4.55973 13.6518 4.4766 13.5537C4.39358 13.4556 4.35811 13.3258 4.37919 13.1991L4.81669 10.5741L4.83634 10.498C4.89765 10.3269 5.06093 10.2083 5.24821 10.2083H8.74821ZM5.32682 12.8333H8.6696L8.37736 11.0833H5.61906L5.32682 12.8333Z" fill="#696969"/>
<path d="M10.4982 12.8333C10.7398 12.8333 10.9357 13.0292 10.9357 13.2708C10.9357 13.5125 10.7398 13.7083 10.4982 13.7083H3.49821C3.25659 13.7083 3.06071 13.5125 3.06071 13.2708C3.06071 13.0292 3.25659 12.8333 3.49821 12.8333H10.4982Z" fill="#696969"/>
<path d="M6.56498 0.715332C6.56511 0.473815 6.76094 0.277836 7.00248 0.277832C7.24403 0.277832 7.43986 0.473813 7.43998 0.715332L7.43998 6.74036C7.43998 6.98198 7.24411 7.17786 7.00248 7.17786C6.76086 7.17786 6.56498 6.98198 6.56498 6.74036V0.715332Z" fill="#696969"/>
<path d="M4.32393 3.56592C4.14415 3.40451 4.12922 3.12792 4.29061 2.94812L6.67721 0.289795C6.76017 0.197534 6.87868 0.144531 7.00277 0.144531C7.12688 0.144597 7.2454 0.197449 7.32833 0.289795L9.71407 2.94812C9.87542 3.12784 9.86118 3.40447 9.6816 3.56592C9.50181 3.72734 9.22437 3.71239 9.06295 3.53259L7.00191 1.23743L4.94173 3.53259C4.78032 3.71238 4.50373 3.72731 4.32393 3.56592Z" fill="#696969"/>
</g>
<defs>
<clipPath id="clip0_7056_18521">
<rect width="14" height="14" fill="white"/>
</clipPath>
</defs>
</svg>
