<svg width="16" height="16" viewBox="0 0 16 16" fill="none" xmlns="http://www.w3.org/2000/svg">
<path fill-rule="evenodd" clip-rule="evenodd" d="M0.515863 1.41721C0.832282 1.14352 1.24722 1 1.66686 1H5.1354C5.55504 1 5.96998 1.14352 6.2864 1.41721C6.60518 1.69295 6.8022 2.08464 6.8022 2.51227V3.00014H14.3848C14.8045 3.00014 15.2194 3.14366 15.5358 3.41736C15.9032 3.73509 16 4.15726 16 4.51241V13.3878C15.9933 13.8066 15.8121 14.1948 15.5136 14.4851C15.2168 14.7737 14.8222 14.9496 14.4072 14.9967C14.3881 14.9989 14.3689 14.9999 14.3497 14.9999L1.65032 15C1.63113 15 1.61195 14.9989 1.59287 14.9967C1.17786 14.9496 0.783271 14.7737 0.48648 14.4851C0.187918 14.1948 0.0068204 13.8066 0.000131115 13.3879L0 13.3797L6.55777e-05 2.51227C6.55777e-05 2.08464 0.197082 1.69295 0.515863 1.41721ZM1.66686 2.02439C1.47323 2.02439 1.30001 2.0916 1.18278 2.193C1.06791 2.29236 1.0213 2.40943 1.0213 2.51227V13.3748C1.02421 13.4998 1.07835 13.634 1.19727 13.7496C1.31403 13.8631 1.48376 13.9479 1.68209 13.9756L14.318 13.9756C14.5163 13.9478 14.686 13.8631 14.8028 13.7495C14.9217 13.6339 14.9759 13.4997 14.9788 13.3747V4.51241C14.9788 4.33708 14.9352 4.2505 14.8689 4.19314C14.7517 4.09174 14.5785 4.02453 14.3848 4.02453H6.29158C6.00957 4.02453 5.78096 3.79521 5.78096 3.51234V2.51227C5.78096 2.40942 5.73436 2.29236 5.61949 2.193C5.50225 2.0916 5.32904 2.02439 5.1354 2.02439H1.66686Z" fill="black"/>
</svg>
