<svg width="24" height="24" fill="none" xmlns="http://www.w3.org/2000/svg"><path d="M3.5 24c-.827 0-1.5-.673-1.5-1.5v-21C2 .673 2.673 0 3.5 0h13.293c.401 0 .777.156 1.061.439l3.707 3.707c.283.284.439.661.439 1.061V22.5c0 .827-.673 1.5-1.5 1.5h-17Zm0-23c-.276 0-.5.224-.5.5v21c0 .276.224.5.5.5h17c.276 0 .5-.224.5-.5V5.207a.501.501 0 0 0-.146-.354l-3.707-3.707A.5054.5054 0 0 0 16.793 1h-5.721l.413 3.049c.07.562-.104 1.128-.477 1.554-.373.425-.91.669-1.475.671H9.47a1.9693 1.9693 0 0 1-1.476-.67 1.991 1.991 0 0 1-.477-1.555L7.818 1H3.5Zm5.01 3.16c-.035.289.051.573.236.785.183.209.447.329.725.329h.061a.9673.9673 0 0 0 .724-.33.9887.9887 0 0 0 .237-.771L10.063 1h-1.24L8.51 4.16Z" fill="#000"/><path d="M9.505 8.75a.75.75 0 1 0 0-1.5.75.75 0 0 0 0 1.5ZM9.505 11.25a.75.75 0 1 0 0-1.5.75.75 0 0 0 0 1.5ZM9.505 13.75a.75.75 0 1 0 0-1.5.75.75 0 0 0 0 1.5ZM9.495 16.25c-.414 0-.75-.336-.75-.75s.336-.75.75-.75c.413 0 .749.335.75.746 0 .418-.336.754-.75.754ZM9.495 18.771c-.414 0-.75-.336-.75-.75s.336-.75.75-.75c.413 0 .749.335.75.746 0 .418-.336.754-.75.754ZM9.495 21.312c-.414 0-.75-.336-.75-.75s.336-.75.75-.75c.213.005.389.078.529.217.142.141.221.328.221.529 0 .418-.336.754-.75.754Z" fill="#000"/></svg>