<svg width="16" height="16" viewBox="0 0 16 16" fill="none" xmlns="http://www.w3.org/2000/svg">
<path fill-rule="evenodd" clip-rule="evenodd" d="M12.8797 0.00285001C12.2499 0.0538972 11.6983 0.267183 11.2303 0.640634C11.0469 0.786906 1.26882 10.5654 1.22978 10.6415C1.21385 10.6726 0.930741 11.75 0.600651 13.0357C0.118457 14.9139 0.000395785 15.3952 4.68403e-06 15.4839C-0.000862541 15.6856 0.118746 15.8664 0.31343 15.9577C0.492809 16.0419 0.391565 16.0631 2.96612 15.4011C4.25208 15.0704 5.331 14.7859 5.36374 14.7689C5.43813 14.7303 15.255 4.90918 15.384 4.74432C15.9081 4.07449 16.113 3.18596 15.9395 2.33458C15.7589 1.44836 15.147 0.671446 14.3263 0.28616C14.0423 0.152846 13.7574 0.0659023 13.4833 0.0289348C13.3286 0.00807036 12.9938 -0.00640038 12.8797 0.00285001ZM12.7473 1.09052C12.5749 1.12201 12.4588 1.15764 12.2965 1.22883C12.1495 1.29331 11.9074 1.44387 11.8516 1.50551L11.8186 1.54199L13.1356 2.85901C13.8599 3.58337 14.458 4.17602 14.4647 4.17602C14.4714 4.17602 14.5149 4.12591 14.5612 4.06467C14.9945 3.49234 15.056 2.68511 14.7145 2.05185C14.4841 1.62456 14.0979 1.30151 13.6478 1.15959C13.3515 1.06617 13.0199 1.04073 12.7473 1.09052ZM6.75381 6.58643L2.45595 10.8843L3.7866 12.2149L5.11722 13.5454L9.41929 9.24333L13.7214 4.94125L12.3951 3.61489C11.6656 2.88539 11.0649 2.28853 11.0602 2.28853C11.0555 2.28853 9.11765 4.22258 6.75381 6.58643ZM1.97969 11.9407C1.97959 11.9489 1.81946 12.5791 1.62384 13.3412C1.42822 14.1033 1.26952 14.7282 1.27117 14.7299C1.27596 14.7346 4.06207 14.0189 4.07057 14.0107C4.08048 14.0012 3.85643 13.7761 2.82583 12.76C2.36054 12.3012 1.97978 11.9325 1.97969 11.9407Z" fill="black"/>
</svg>
