<?xml version="1.0" encoding="UTF-8"?>
<!--
  - Infomaniak kDrive - Desktop
  - Copyright (C) 2023-2024 Infomaniak Network SA
  -
  - This program is free software: you can redistribute it and/or modify
  - it under the terms of the GNU General Public License as published by
  - the Free Software Foundation, either version 3 of the License, or
  - (at your option) any later version.
  -
  - This program is distributed in the hope that it will be useful,
  - but WITHOUT ANY WARRANTY; without even the implied warranty of
  - MERCHANTABILITY or FITNESS FOR A PARTICULAR PURPOSE.  See the
  - GNU General Public License for more details.
  -
  - You should have received a copy of the GNU General Public License
  - along with this program.  If not, see <http://www.gnu.org/licenses/>.
  -->

<svg width="24px" height="25px" viewBox="0 0 24 25" version="1.1" xmlns="http://www.w3.org/2000/svg" xmlns:xlink="http://www.w3.org/1999/xlink">
    <!-- Generator: Sketch 63.1 (92452) - https://sketch.com -->
    <title>icons/document types/file-text</title>
    <desc>Created with Sketch.</desc>
    <g id="icons/document-types/file-text" stroke="none" stroke-width="1" fill="none" fill-rule="evenodd" transform="translate(0.000000, 0.000000)">
        <g id="Icons/Drive/common-file-text-alternate" transform="translate(0.000000, -0.000000)" fill="#2196F3">
            <g id="common-file-text-alternate" transform="translate(2.000000, 0.000000)">
                <path d="M13.586,0 C13.8511948,0 14.1055073,0.105450625 14.293,0.293 L14.293,0.293 L19.707,5.707 C19.8945494,5.89449273 20,6.14880519 20,6.414 L20,6.414 L20,22 C20,23.1045695 19.1045695,24 18,24 L18,24 L2,24 C0.8954305,24 0,23.1045695 0,22 L0,22 L0,2 C0,0.8954305 0.8954305,0 2,0 L2,0 Z M12.965,2 L2.5,2 C2.22385763,2 2,2.22385763 2,2.5 L2,2.5 L2,21.5 C2,21.7761424 2.22385763,22 2.5,22 L2.5,22 L17.5,22 C17.7761424,22 18,21.7761424 18,21.5 L18,21.5 L18,7.035 C18,6.90264755 17.947469,6.77570554 17.854,6.682 L17.854,6.682 L13.318,2.146 C13.2242945,2.05253105 13.0973525,2 12.965,2 L12.965,2 Z M9.5,17 C10.0522847,17 10.5,17.4477153 10.5,18 C10.5,18.5522847 10.0522847,19 9.5,19 L5,19 C4.44771525,19 4,18.5522847 4,18 C4,17.4477153 4.44771525,17 5,17 L9.5,17 Z M14,13 C14.5522847,13 15,13.4477153 15,14 C15,14.5522847 14.5522847,15 14,15 L5,15 C4.44771525,15 4,14.5522847 4,14 C4,13.4477153 4.44771525,13 5,13 L14,13 Z M14,9 C14.5522847,9 15,9.44771525 15,10 C15,10.5522847 14.5522847,11 14,11 L5,11 C4.44771525,11 4,10.5522847 4,10 C4,9.44771525 4.44771525,9 5,9 L14,9 Z" id="icon" fill-rule="nonzero"></path>
            </g>
        </g>
    </g>
</svg>