<?xml version="1.0" encoding="UTF-8"?>
<!--
  - Infomaniak kDrive - Desktop
  - Copyright (C) 2023-2024 Infomaniak Network SA
  -
  - This program is free software: you can redistribute it and/or modify
  - it under the terms of the GNU General Public License as published by
  - the Free Software Foundation, either version 3 of the License, or
  - (at your option) any later version.
  -
  - This program is distributed in the hope that it will be useful,
  - but WITHOUT ANY WARRANTY; without even the implied warranty of
  - MERCHANTABILITY or FITNESS FOR A PARTICULAR PURPOSE.  See the
  - GNU General Public License for more details.
  -
  - You should have received a copy of the GNU General Public License
  - along with this program.  If not, see <http://www.gnu.org/licenses/>.
  -->

<svg width="24px" height="24px" viewBox="0 0 24 24" version="1.1" xmlns="http://www.w3.org/2000/svg" xmlns:xlink="http://www.w3.org/1999/xlink">
    <!-- Generator: Sketch 63.1 (92452) - https://sketch.com -->
    <title>icons/document types/file-application</title>
    <desc>Created with Sketch.</desc>
    <g id="icons/document-types/file-application" stroke="none" stroke-width="1" fill="none" fill-rule="evenodd">
        <path d="M15.586,1.77635684e-15 C15.8511948,1.77635684e-15 16.1055073,0.105450625 16.293,0.293 L16.293,0.293 L21.707,5.707 C21.8945494,5.89449273 22,6.14880519 22,6.414 L22,6.414 L22,22 C22,23.1045695 21.1045695,24 20,24 L20,24 L4,24 C2.8954305,24 2,23.1045695 2,22 L2,22 L2,2 C2,0.8954305 2.8954305,1.77635684e-15 4,1.77635684e-15 L4,1.77635684e-15 Z M14.965,2 L4.5,2 C4.22385763,2 4,2.22385763 4,2.5 L4,2.5 L4,21.5 C4,21.7761424 4.22385763,22 4.5,22 L4.5,22 L19.5,22 C19.7761424,22 20,21.7761424 20,21.5 L20,21.5 L20,7.035 C20,6.90264755 19.947469,6.77570554 19.854,6.682 L19.854,6.682 L15.318,2.146 C15.2242945,2.05253105 15.0973525,2 14.965,2 L14.965,2 Z M12.005,5.8761341 C12.7140832,5.8761341 13.3395756,6.34032495 13.545,7.019 L13.545,7.019 L13.914,8.229 C13.9649994,8.39270946 14.1322775,8.49064945 14.3,8.455 L14.3,8.455 L15.522,8.171 C16.2132235,8.01437047 16.9258412,8.32642134 17.2795279,8.94061062 C17.6332146,9.5547999 17.5454199,10.3277758 17.063,10.847 L17.063,10.847 L16.205,11.771 C16.0870261,11.9001088 16.0870261,12.0978912 16.205,12.227 L16.205,12.227 L17.063,13.152 C17.5454199,13.6712242 17.6332146,14.4442001 17.2795279,15.0583894 C16.9258412,15.6725787 16.2132235,15.9846295 15.522,15.828 L15.522,15.828 L14.295,15.544 C14.1273579,15.5088464 13.9603924,15.6066033 13.909,15.77 L13.909,15.77 L13.54,16.98 C13.3357493,17.6598492 12.7098685,18.1253295 12,18.1253295 C11.2901315,18.1253295 10.6642507,17.6598492 10.46,16.98 L10.46,16.98 L10.091,15.771 C10.0400006,15.6072905 9.87272253,15.5093505 9.705,15.545 L9.705,15.545 L8.478,15.829 C7.78677647,15.9856295 7.07415883,15.6735787 6.7204721,15.0593894 C6.36678538,14.4452001 6.45458006,13.6722242 6.937,13.153 L6.937,13.153 L7.795,12.228 C7.91297395,12.0988912 7.91297395,11.9011088 7.795,11.772 L7.795,11.772 L6.937,10.847 C6.45458006,10.3277758 6.36678538,9.5547999 6.7204721,8.94061062 C7.07415883,8.32642134 7.78677647,8.01437047 8.478,8.171 L8.478,8.171 L9.71,8.455 C9.87780308,8.49115042 10.045398,8.39302489 10.096,8.229 L10.096,8.229 L10.465,7.019 C10.6704244,6.34032495 11.2959168,5.8761341 12.005,5.8761341 Z M12,10.25 C11.0335017,10.25 10.25,11.0335017 10.25,12 C10.25,12.9664983 11.0335017,13.75 12,13.75 C12.9660414,13.7488978 13.7488978,12.9660414 13.75,12 C13.75,11.0335017 12.9664983,10.25 12,10.25 Z" id="Combined-Shape" fill="#992539"></path>
    </g>
</svg>