<?xml version="1.0" encoding="UTF-8"?>
<!--
  - Infomaniak kDrive - Desktop
  - Copyright (C) 2023-2024 Infomaniak Network SA
  -
  - This program is free software: you can redistribute it and/or modify
  - it under the terms of the GNU General Public License as published by
  - the Free Software Foundation, either version 3 of the License, or
  - (at your option) any later version.
  -
  - This program is distributed in the hope that it will be useful,
  - but WITHOUT ANY WARRANTY; without even the implied warranty of
  - MERCHANTABILITY or FITNESS FOR A PARTICULAR PURPOSE.  See the
  - GNU General Public License for more details.
  -
  - You should have received a copy of the GNU General Public License
  - along with this program.  If not, see <http://www.gnu.org/licenses/>.
  -->

<svg width="24px" height="25px" viewBox="0 0 24 25" version="1.1" xmlns="http://www.w3.org/2000/svg" xmlns:xlink="http://www.w3.org/1999/xlink">
    <!-- Generator: Sketch 63.1 (92452) - https://sketch.com -->
    <title>icons/document types/file-pdf</title>
    <desc>Created with Sketch.</desc>
    <g id="icons/document-types/file-pdf" stroke="none" stroke-width="1" fill="none" fill-rule="evenodd" transform="translate(0.000000, 0.000000)">
        <g id="Icons/Drive/office-file-adobe" transform="translate(0.000000, -0.000000)" fill="#F44336" fill-rule="nonzero">
            <path d="M15.586,-1.60417231e-06 C15.8509081,-0.000474162298 16.1051803,0.10418385 16.293,0.291 L16.293,0.291 L21.707,5.705 C21.8945494,5.89249273 22,6.14680519 22,6.412 L22,6.412 L22,21.9999984 C22,23.1045695 21.1045695,23.9999984 20,23.9999984 L20,23.9999984 L4,23.9999984 C2.8954305,23.9999984 2,23.1045695 2,21.9999984 L2,21.9999984 L2,1.9999984 C2,0.8954305 2.8954305,-1.60417231e-06 4,-1.60417231e-06 L4,-1.60417231e-06 Z M14.965,2 L4.5,2 C4.22385763,2 4,2.22385763 4,2.5 L4,2.5 L4,21.5 C4,21.7761424 4.22385763,22 4.5,22 L4.5,22 L19.5,22 C19.7761424,22 20,21.7761424 20,21.5 L20,21.5 L20,7.033 C20,6.90064755 19.947469,6.77370554 19.854,6.68 L19.854,6.68 L15.318,2.147 C15.224458,2.05316431 15.0974959,2.00029338 14.965,2 L14.965,2 Z M8.78742025,5.58828104 L8.94,5.593 C9.49294107,5.65711955 9.95661142,6.04011752 10.124,6.571 C10.5226205,7.68536154 10.7949898,8.84091871 10.936,10.016 C10.9509591,10.138749 11.0090902,10.2521757 11.1,10.336 C11.6995844,10.8738444 12.3545905,11.3464947 13.054,11.746 C13.1687919,11.8103829 13.3046583,11.8258796 13.431,11.789 C14.6138686,11.4551339 15.8418152,11.3090221 17.07,11.356 C17.6974815,11.3606853 18.2713565,11.7106503 18.5628097,12.2663571 C18.8542629,12.822064 18.8158934,13.4931347 18.463,14.012 C18.1369639,14.4720634 17.5776959,14.7067077 17.021,14.617 C15.7285912,14.4564264 14.4687387,14.0971914 13.286,13.552 C13.1620783,13.4949009 13.0208409,13.4880899 12.892,13.533 C12.2307099,13.780938 11.5920142,14.0853975 10.983,14.443 C10.8660075,14.5128059 10.7831165,14.6279123 10.754,14.761 C10.4943296,15.9332126 10.000816,17.0409822 9.303,18.018 C8.98161753,18.4731565 8.46017634,18.7450509 7.903,18.7480026 C7.83246278,18.7480026 7.76198845,18.7437824 7.692,18.735 C7.10077094,18.6708305 6.59084812,18.2910681 6.36,17.743 C6.15026551,17.1886425 6.26585908,16.5636666 6.66,16.121 C7.41053092,15.2288655 8.2780263,14.4420986 9.239,13.782 C9.35698676,13.701161 9.43569488,13.5745751 9.456,13.433 C9.55204577,12.6487903 9.57314112,11.8572122 9.519,11.069 C9.51183413,10.9534977 9.46318126,10.8444726 9.382,10.762 C8.63935198,9.98191812 7.98444162,9.1227884 7.429,8.2 C7.0714995,7.64430675 7.06837961,6.93180271 7.421,6.373 C7.73941491,5.84701674 8.32699863,5.54529501 8.94,5.593 Z" id="icon"></path>
        </g>
    </g>
</svg>