<?xml version="1.0" encoding="UTF-8"?>
<!--
  - Infomaniak kDrive - Desktop
  - Copyright (C) 2023-2024 Infomaniak Network SA
  -
  - This program is free software: you can redistribute it and/or modify
  - it under the terms of the GNU General Public License as published by
  - the Free Software Foundation, either version 3 of the License, or
  - (at your option) any later version.
  -
  - This program is distributed in the hope that it will be useful,
  - but WITHOUT ANY WARRANTY; without even the implied warranty of
  - MERCHANTABILITY or FITNESS FOR A PARTICULAR PURPOSE.  See the
  - GNU General Public License for more details.
  -
  - You should have received a copy of the GNU General Public License
  - along with this program.  If not, see <http://www.gnu.org/licenses/>.
  -->

<svg width="24px" height="25px" viewBox="0 0 24 25" version="1.1" xmlns="http://www.w3.org/2000/svg" xmlns:xlink="http://www.w3.org/1999/xlink">
    <!-- Generator: Sketch 63.1 (92452) - https://sketch.com -->
    <title>icons/document types/file-sheets</title>
    <desc>Created with Sketch.</desc>
    <defs>
        <path d="M15.586,1.59335968e-06 C15.8509081,-0.000470964766 16.1051803,0.104187047 16.293,0.291003198 L16.293,0.291003198 L21.707,5.7050032 C21.8945494,5.89249593 22,6.14680838 22,6.4120032 L22,6.4120032 L22,22.0000016 C22,23.1045727 21.1045695,24.0000016 20,24.0000016 L20,24.0000016 L4,24.0000016 C2.8954305,24.0000016 2,23.1045727 2,22.0000016 L2,22.0000016 L2,2.00000159 C2,0.895433698 2.8954305,1.59335968e-06 4,1.59335968e-06 L4,1.59335968e-06 Z M14.75,2.0000032 L4.5,2.0000032 C4.22385763,2.0000032 4,2.22386082 4,2.5000032 L4,2.5000032 L4,21.5000032 C4,21.7761456 4.22385763,22.0000032 4.5,22.0000032 L4.5,22.0000032 L19.5,22.0000032 C19.7761424,22.0000032 20,21.7761456 20,21.5000032 L20,21.5000032 L20,7.2500032 C20,7.11193201 19.8880712,7.0000032 19.75,7.0000032 L19.75,7.0000032 L17,7.0000032 C15.8954305,7.0000032 15,6.1045727 15,5.0000032 L15,5.0000032 L15,2.2500032 C15,2.11193201 14.8880712,2.0000032 14.75,2.0000032 L14.75,2.0000032 Z M9,17.4980032 C9.27614237,17.4980032 9.5,17.7218608 9.5,17.9980032 L9.5,18.9980032 C9.5,19.2741456 9.27614237,19.4980032 9,19.4980032 L7,19.4980032 C6.72385763,19.4980032 6.5,19.2741456 6.5,18.9980032 L6.5,17.9980032 C6.5,17.7218608 6.72385763,17.4980032 7,17.4980032 L9,17.4980032 Z M17,17.4980032 C17.2761424,17.4980032 17.5,17.7218608 17.5,17.9980032 L17.5,18.9980032 C17.5,19.2741456 17.2761424,19.4980032 17,19.4980032 L11.5,19.4980032 C11.2238576,19.4980032 11,19.2741456 11,18.9980032 L11,17.9980032 C11,17.7218608 11.2238576,17.4980032 11.5,17.4980032 L17,17.4980032 Z M9,13.9980032 C9.27614237,13.9980032 9.5,14.2218608 9.5,14.4980032 L9.5,15.4980032 C9.5,15.7741456 9.27614237,15.9980032 9,15.9980032 L7,15.9980032 C6.72385763,15.9980032 6.5,15.7741456 6.5,15.4980032 L6.5,14.4980032 C6.5,14.2218608 6.72385763,13.9980032 7,13.9980032 L9,13.9980032 Z M17,13.9980032 C17.2761424,13.9980032 17.5,14.2218608 17.5,14.4980032 L17.5,15.4980032 C17.5,15.7741456 17.2761424,15.9980032 17,15.9980032 L11.5,15.9980032 C11.2238576,15.9980032 11,15.7741456 11,15.4980032 L11,14.4980032 C11,14.2218608 11.2238576,13.9980032 11.5,13.9980032 L17,13.9980032 Z M9,10.4980032 C9.27614237,10.4980032 9.5,10.7218608 9.5,10.9980032 L9.5,11.9980032 C9.5,12.2741456 9.27614237,12.4980032 9,12.4980032 L7,12.4980032 C6.72385763,12.4980032 6.5,12.2741456 6.5,11.9980032 L6.5,10.9980032 C6.5,10.7218608 6.72385763,10.4980032 7,10.4980032 L9,10.4980032 Z M17,10.4980032 C17.2761424,10.4980032 17.5,10.7218608 17.5,10.9980032 L17.5,11.9980032 C17.5,12.2741456 17.2761424,12.4980032 17,12.4980032 L11.5,12.4980032 C11.2238576,12.4980032 11,12.2741456 11,11.9980032 L11,10.9980032 C11,10.7218608 11.2238576,10.4980032 11.5,10.4980032 L17,10.4980032 Z" id="path-1"></path>
    </defs>
    <g id="icons/document-types/file-sheets" stroke="none" stroke-width="1" fill="none" fill-rule="evenodd" transform="translate(0.000000, 0.000000)">
        <g id="Icons/Drive/office-file-sheet" transform="translate(0.000000, -0.000000)">
            <mask id="mask-2" fill="white">
                <use xlink:href="#path-1"></use>
            </mask>
            <use id="icon" fill="#4BAF50" fill-rule="evenodd" xlink:href="#path-1"></use>
        </g>
    </g>
</svg>