<?xml version="1.0" encoding="UTF-8"?>
<!--
  - Infomaniak kDrive - Desktop
  - Copyright (C) 2023-2024 Infomaniak Network SA
  -
  - This program is free software: you can redistribute it and/or modify
  - it under the terms of the GNU General Public License as published by
  - the Free Software Foundation, either version 3 of the License, or
  - (at your option) any later version.
  -
  - This program is distributed in the hope that it will be useful,
  - but WITHOUT ANY WARRANTY; without even the implied warranty of
  - MERCHANTABILITY or FITNESS FOR A PARTICULAR PURPOSE.  See the
  - GNU General Public License for more details.
  -
  - You should have received a copy of the GNU General Public License
  - along with this program.  If not, see <http://www.gnu.org/licenses/>.
  -->

<svg width="24px" height="25px" viewBox="0 0 24 25" version="1.1" xmlns="http://www.w3.org/2000/svg" xmlns:xlink="http://www.w3.org/1999/xlink">
    <!-- Generator: Sketch 63.1 (92452) - https://sketch.com -->
    <title>icons/document types/folder-disable</title>
    <desc>Created with Sketch.</desc>
    <defs>
        <path d="M8.50548741,2.00127626 C9.07338548,1.9987628 9.59367702,2.31822646 9.84835378,2.82582311 L9.84835378,2.82582311 L10.7959651,4.72704971 C10.8807911,4.89632938 11.05391,5.00322154 11.2432537,5.00322789 L11.2432537,5.00322789 L22.5145255,5.00322789 C23.3434874,5.00322789 24.0154939,5.67523432 24.0154939,6.50419626 L24.0154939,6.50419626 L24.0154939,20.5132343 C24.0154939,21.3421963 23.3434874,22.0142027 22.5145255,22.0142027 L22.5145255,22.0142027 L1.50096837,22.0142027 C0.672006428,22.0142027 0,21.3421963 0,20.5132343 L0,20.5132343 L0,3.50225952 C0,2.67329758 0.672006428,2.00127626 1.50096837,2.00127626 L1.50096837,2.00127626 Z M7.76456946,9.26654897 C6.29276873,10.7391949 5.6871301,12.8688854 6.16361146,14.8962179 C6.66926269,17.1173523 8.4024888,18.8519327 10.6222436,19.358334 C11.0734947,19.4606005 11.534715,19.512324 11.9973962,19.5125697 C13.8346076,19.5172025 15.5726515,18.6792527 16.7138657,17.2386351 C17.8550799,15.7980174 18.2736185,13.9135941 17.8496394,12.1249408 L17.8505623,12.1258643 C17.3436396,9.90528374 15.6104181,8.17142577 13.3910072,7.66467156 C11.3648383,7.18791656 9.23637019,7.79390301 7.76456946,9.26654897 Z M15.5109571,11.4415869 C15.5834407,11.4515951 15.6466609,11.4959434 15.6807746,11.5607122 C15.8475181,11.8655302 15.9717296,12.1917728 16.0499431,12.5303359 C16.4311219,14.1210462 15.8463389,15.7877293 14.5550377,16.7909485 C13.2637364,17.7941677 11.5050612,17.9481304 10.0592617,17.1845299 L10.0592617,17.1873003 C9.99433655,17.1525767 9.94977177,17.0890428 9.93920762,17.0161448 C9.92864348,16.9432468 9.95333783,16.8696645 10.0057323,16.8179198 L15.3143749,11.507152 C15.3660142,11.4556829 15.4387819,11.431413 15.5109571,11.4415869 Z M13.9567578,9.83662877 C14.021683,9.87135235 14.0662478,9.93488627 14.076812,10.0077843 C14.0873761,10.0806823 14.0626818,10.1542646 14.0102873,10.2060093 L8.70072177,15.5149302 C8.64908245,15.5663993 8.57631475,15.5906691 8.50413956,15.5804952 C8.43176999,15.5701974 8.36866902,15.5259327 8.33432206,15.46137 C7.48216372,13.8466403 7.7811717,11.8647449 9.0717298,10.5736576 C10.3622879,9.28257032 12.3430949,8.98371598 13.9567578,9.83662877 Z" id="path-1"></path>
    </defs>
    <g id="icons/document-types/folder-disable" stroke="none" stroke-width="1" fill="none" fill-rule="evenodd" transform="translate(0.000000, 0.000000)">
        <g id="Icons/icon-24px">
            <g id="Icons/Drive/folder-block" transform="translate(-0.007747, 0.492253)">
                <mask id="mask-2" fill="white">
                    <use xlink:href="#path-1"></use>
                </mask>
                <use id="Combined-Shape" fill="#9F9F9F" fill-rule="evenodd" xlink:href="#path-1"></use>
            </g>
        </g>
    </g>
</svg>