<?xml version="1.0" encoding="UTF-8"?>
<!--
  - Infomaniak kDrive - Desktop
  - Copyright (C) 2023-2025 Infomaniak Network SA
  -
  - This program is free software: you can redistribute it and/or modify
  - it under the terms of the GNU General Public License as published by
  - the Free Software Foundation, either version 3 of the License, or
  - (at your option) any later version.
  -
  - This program is distributed in the hope that it will be useful,
  - but WITHOUT ANY WARRANTY; without even the implied warranty of
  - MERCHANTABILITY or FITNESS FOR A PARTICULAR PURPOSE.  See the
  - GNU General Public License for more details.
  -
  - You should have received a copy of the GNU General Public License
  - along with this program.  If not, see <http://www.gnu.org/licenses/>.
  -->

<svg width="16px" height="16px" viewBox="0 0 16 16" version="1.1" xmlns="http://www.w3.org/2000/svg" xmlns:xlink="http://www.w3.org/1999/xlink">
    <title>icons/theme/black/state-information</title>
    <defs>
        <path d="M6.10416667,2.50000809 C6.41157966,2.49862658 6.69322243,2.67421798 6.83108333,2.95321561 L6.83108333,2.95321561 L7.34404167,3.99821406 C7.38995944,4.09125768 7.48367163,4.15001035 7.58616667,4.15001384 L7.58616667,4.15001384 L13.6875,4.15001384 C14.1362314,4.15001384 14.5,4.51937837 14.5,4.97501262 L14.5,4.97501262 L14.5,12.6750012 C14.5,13.1306355 14.1362314,13.5000081 13.6875,13.5000081 L13.6875,13.5000081 L2.3125,13.5000081 C1.86376864,13.5000081 1.5,13.1306355 1.5,12.6750012 L1.5,12.6750012 L1.5,3.32501506 C1.5,2.86938082 1.86376864,2.50000809 2.3125,2.50000809 L2.3125,2.50000809 Z M8.00634766,7.80357562 L7.59692383,7.80357562 C7.4244564,7.80357562 7.27300098,7.87027065 7.15553693,7.99648345 C7.04197001,8.11850887 6.984375,8.26950754 6.984375,8.43992188 C6.984375,8.61033622 7.04197001,8.76133489 7.15553693,8.88336031 L7.21704148,8.94147367 C7.32406978,9.02995215 7.45320097,9.07626814 7.59692383,9.07626814 L7.8025625,9.07564611 L7.8025625,10.8623591 L7.59692383,10.8625391 C7.4244564,10.8625391 7.27300098,10.9292342 7.15553693,11.055447 C7.04197001,11.1774724 6.984375,11.3284711 6.984375,11.4988854 C6.984375,11.6632149 7.0425209,11.8106597 7.15553693,11.9320932 C7.27300098,12.058306 7.4244564,12.125001 7.59692383,12.125001 L9.22509766,12.125001 C9.39221525,12.125001 9.54008292,12.0576786 9.65696307,11.9320932 C9.7699791,11.8106597 9.828125,11.6632149 9.828125,11.4988854 C9.828125,11.3284711 9.77052999,11.1774724 9.65696307,11.055447 L9.58321038,10.9871598 C9.48016586,10.9056255 9.35879173,10.8625391 9.22509766,10.8625391 L9.0180625,10.8623591 L9.01879883,8.87983971 C9.01879883,8.58665699 8.92153137,8.33164778 8.72861834,8.12436654 C8.5321011,7.91321264 8.28721169,7.80357562 8.00634766,7.80357562 Z M8.24375,5.4464345 C7.96069747,5.4464345 7.7155892,5.54541306 7.52058007,5.73908993 C7.32727803,5.93107138 7.228125,6.16430318 7.228125,6.42857663 C7.228125,6.70120238 7.32747038,6.93748311 7.52248222,7.12606584 C7.71749405,7.31464858 7.96182999,7.41071877 8.24375,7.41071877 C8.51703298,7.41071877 8.75821604,7.31483458 8.95674245,7.12790528 C9.15702209,6.93932516 9.259375,6.70229756 9.259375,6.42857663 C9.259375,6.16319256 9.1572253,5.92923506 8.95867013,5.73722581 C8.76011496,5.54521655 8.51818145,5.4464345 8.24375,5.4464345 Z" id="path-1"></path>
    </defs>
    <g id="icons/theme/black/state-information" stroke="none" stroke-width="1" fill="none" fill-rule="evenodd">
        <mask id="mask-2" fill="white">
            <use xlink:href="#path-1"></use>
        </mask>
        <use id="Combined-Shape" fill="#000000" xlink:href="#path-1"></use>
    </g>
</svg>