<svg preserveAspectRatio="none" width="100%" height="100%" overflow="visible" style="display: block;" viewBox="0 0 11.3905 14" fill="none" xmlns="http://www.w3.org/2000/svg">
<path id="icon" fill-rule="evenodd" clip-rule="evenodd" d="M3.77356 0.0105976C3.52885 0.0470127 3.30389 0.144551 3.11437 0.2964C2.90475 0.464374 2.75052 0.695509 2.66548 0.969084L2.62387 1.10296L2.61938 2.29672L2.61488 3.49048L1.89028 3.49073C1.12213 3.49101 1.06693 3.49507 0.877562 3.56539C0.437456 3.72883 0.12162 4.10195 0.0256138 4.57188C-0.00148934 4.7046 -0.00226284 4.84221 0.00182791 8.79671L0.00605257 12.8843L0.0372762 12.9885C0.0854281 13.149 0.124595 13.2424 0.189185 13.3504C0.378981 13.6681 0.680983 13.8863 1.05094 13.9731C1.15982 13.9986 1.33068 14 4.39366 14H7.62164L7.75552 13.9661C8.02551 13.8976 8.30713 13.72 8.47305 13.5135C8.57528 13.3863 8.67344 13.1992 8.72506 13.0331L8.76667 12.8992L8.77116 11.7055L8.77565 10.5117L9.50025 10.5114C10.2684 10.5112 10.3236 10.5071 10.513 10.4368C10.9277 10.2828 11.2239 9.95292 11.3529 9.50134L11.3851 9.3886L11.3891 6.1459C11.3926 3.26043 11.3905 2.88955 11.3698 2.7794C11.3273 2.5523 11.2454 2.36418 11.1159 2.19631C11.0812 2.15131 10.6389 1.70175 10.1331 1.19729C9.1725 0.239367 9.12574 0.197701 8.90954 0.106768C8.85702 0.0846775 8.7633 0.0521448 8.70129 0.0344727L8.58855 0.00235656L6.22335 0.00018474C4.92249 -0.0010053 3.82008 0.00368049 3.77356 0.0105976ZM3.81181 0.95586C3.72497 0.986786 3.63655 1.06799 3.5917 1.15799L3.5532 1.23525V2.36238V3.4895L4.79158 3.4937L6.02996 3.49791L6.15641 3.54013C6.30962 3.59129 6.47154 3.67597 6.58518 3.76436C6.63162 3.8005 7.08478 4.24733 7.59222 4.75733C8.41361 5.58288 8.52269 5.69795 8.58657 5.80629C8.66731 5.94325 8.73565 6.12814 8.75875 6.27219C8.76882 6.33495 8.77431 6.93428 8.77437 7.97997L8.77449 9.59106L9.46248 9.58652C10.2284 9.58146 10.201 9.58497 10.321 9.47659C10.3552 9.44568 10.3978 9.39316 10.4156 9.35986L10.448 9.29935L10.4518 6.1102L10.4557 2.92103L10.4177 2.83759C10.3848 2.76521 10.264 2.63847 9.50645 1.88166C8.91546 1.29121 8.61153 0.997883 8.56623 0.974261L8.49929 0.939333L6.18616 0.936685C4.18716 0.934409 3.86471 0.937012 3.81181 0.95586ZM1.25192 4.42827C1.21753 4.43511 1.17509 4.44837 1.15762 4.45771C1.09876 4.48922 1.00756 4.58137 0.974952 4.64231L0.942553 4.70283L0.938343 8.71177C0.935338 11.5792 0.938774 12.7377 0.950407 12.7802C0.97809 12.8814 1.05595 12.9722 1.15953 13.0239L1.25225 13.0703H4.37852C7.84352 13.0703 7.57733 13.0781 7.70041 12.9727C7.73337 12.9445 7.77766 12.8867 7.79884 12.8442L7.83734 12.7669L7.83719 9.58279L7.83704 6.39863L7.80152 6.32425C7.77334 6.26527 7.58169 6.066 6.87567 5.36159C6.25206 4.73941 5.96752 4.46534 5.92584 4.44675C5.86964 4.42167 5.74 4.42008 3.59039 4.41801C2.33862 4.4168 1.2863 4.42141 1.25192 4.42827Z" fill="var(--fill-0, black)" fill-opacity="0.5"/>
</svg>
