<svg width="16" height="16" viewBox="0 0 16 16" fill="none" xmlns="http://www.w3.org/2000/svg">
<path d="M11.8997 15.5767C11.8997 15.5478 11.8952 15.5211 11.8886 15.4922C11.8886 15.4922 11.8886 15.4922 11.8886 15.49L10.2481 9.61502C10.2392 9.57945 10.2259 9.54611 10.2126 9.51499C10.1725 9.42163 10.117 9.33716 10.0458 9.26603C10.0081 9.22602 9.96137 9.1949 9.91692 9.16378C9.89913 9.15267 9.88135 9.14156 9.86357 9.13266C9.81689 9.10599 9.76799 9.08376 9.71686 9.0682C9.71242 9.0682 9.70797 9.06376 9.70353 9.06376L0.994517 6.58752C0.921164 6.56751 0.850036 6.5564 0.781128 6.5564C0.265434 6.5564 -0.139119 7.08765 0.0453753 7.62558L1.76361 12.6114C1.84586 12.8515 2.0348 13.036 2.27264 13.1115L11.3929 15.9834C11.4329 15.9968 11.4707 16.0012 11.5085 16.0012C11.7085 16.0012 11.8774 15.839 11.8952 15.6345C11.8997 15.5878 11.8975 15.5411 11.8841 15.4922C11.8908 15.5211 11.8952 15.5478 11.8952 15.5767H11.8997Z" fill="#009688"/>
<path fill-rule="evenodd" clip-rule="evenodd" d="M15.4045 4.6534L9.78294 3.24634C9.52287 3.18188 9.31393 2.98627 9.22724 2.7262L8.68932 1.11909C8.61596 0.901251 8.45592 0.72787 8.2492 0.638956L6.89773 0.0610187C6.7977 0.0187848 6.69545 -0.0012207 6.59542 -0.0012207C6.18198 -0.0012207 5.81299 0.341096 5.81299 0.801223V1.32137L6.54874 1.63701C6.92884 1.79928 7.22226 2.11937 7.3534 2.51503L7.89133 4.12214C7.90689 4.1666 7.94023 4.19994 7.98024 4.21105L13.6018 5.61811C14.2486 5.78038 14.6998 6.36276 14.6998 7.03628V12.8223L14.9866 12.9135C15.0644 12.9379 15.1422 12.949 15.2177 12.949C15.6356 12.949 16.0002 12.6023 16.0002 12.1466V5.43139C16.0002 5.0624 15.7534 4.74009 15.4022 4.65118L15.4045 4.6534Z" fill="#009688"/>
<path fill-rule="evenodd" clip-rule="evenodd" d="M13.4489 6.25618L7.82738 4.84913C7.56731 4.78466 7.35836 4.58905 7.27167 4.32898L6.73375 2.72187C6.66039 2.50403 6.50035 2.33065 6.29363 2.24174L4.94216 1.6638C4.84213 1.62157 4.73988 1.60156 4.63985 1.60156C4.22641 1.60156 3.85742 1.94388 3.85742 2.40401V2.92193L4.50871 3.19978C4.83102 3.3376 5.07997 3.60878 5.19111 3.94443L5.72904 5.55154C5.76905 5.66935 5.85796 5.75382 5.97354 5.78494L11.5951 7.192C12.1419 7.32981 12.5264 7.8255 12.5264 8.39677V14.3562L13.031 14.514C13.1088 14.5385 13.1866 14.5496 13.2622 14.5496C13.6801 14.5496 14.0446 14.2028 14.0446 13.7471V7.03195C14.0446 6.66296 13.7979 6.34065 13.4467 6.25174L13.4489 6.25618Z" fill="#009688"/>
<path d="M9.91622 8.42795C9.93622 8.43239 9.95401 8.43906 9.97179 8.44573C10.0518 8.4724 10.1318 8.50797 10.2185 8.55687C10.2519 8.57465 10.283 8.59466 10.3119 8.61466C10.3786 8.6569 10.463 8.71914 10.5497 8.80583C10.6786 8.93698 10.7809 9.08813 10.852 9.25706C10.8765 9.31486 10.8987 9.3771 10.9165 9.43934L11.899 12.9625V8.40349C11.899 8.13453 11.7211 7.90113 11.4677 7.83667L5.84623 6.42962C5.51281 6.34515 5.24607 6.09841 5.13493 5.76721L4.59701 4.1601C4.54366 4.00228 4.42808 3.87558 4.27915 3.81112L2.92767 3.23318C2.85654 3.20428 2.78541 3.18872 2.71206 3.18872C2.63426 3.18872 2.55646 3.2065 2.48311 3.23985L2.47422 3.24429L2.45866 3.25096C2.2675 3.35099 2.14746 3.55104 2.14746 3.7711V6.22067L9.91399 8.42795H9.91622Z" fill="#009688"/>
</svg>
