<svg width="16" height="16" viewBox="0 0 16 16" fill="none" xmlns="http://www.w3.org/2000/svg">
<g clip-path="url(#clip0_4336_91845)">
<path d="M5.65617 12.2188H2.0293" stroke="#5C89F7" stroke-linecap="round" stroke-linejoin="round"/>
<path d="M13.1563 5.65625V3.78125C13.1563 3.53261 13.0575 3.29415 12.8817 3.11834C12.7058 2.94252 12.4674 2.84375 12.2188 2.84375H5.65625V1.90625C5.65625 1.65761 5.55748 1.41915 5.38166 1.24334C5.20585 1.06752 4.96739 0.96875 4.71875 0.96875H1.90625C1.65761 0.96875 1.41915 1.06752 1.24334 1.24334C1.06752 1.41915 0.96875 1.65761 0.96875 1.90625V11.1562C0.972278 11.4115 1.06761 11.657 1.2373 11.8478C1.40699 12.0385 1.6397 12.1618 1.89283 12.195C2.14597 12.2283 2.40261 12.1692 2.61579 12.0288C2.82897 11.8883 2.98444 11.6757 3.05375 11.43L4.52313 6.33375C4.57953 6.13835 4.69795 5.96658 4.86052 5.84437C5.02309 5.72216 5.22099 5.65614 5.42438 5.65625H14.0938C14.2375 5.6562 14.3793 5.68919 14.5082 5.75267C14.6371 5.81614 14.7497 5.90841 14.8373 6.02234C14.9249 6.13626 14.9851 6.2688 15.0133 6.40971C15.0415 6.55062 15.037 6.69613 15 6.835" stroke="#5C89F7" stroke-linecap="round" stroke-linejoin="round"/>
<path d="M11.7166 7.79978L12.6797 9.87478H14.5547C14.6493 9.87107 14.7427 9.89665 14.8222 9.94803C14.9016 9.99941 14.9633 10.0741 14.9987 10.1618C15.0342 10.2496 15.0416 10.3461 15.0201 10.4383C14.9986 10.5304 14.9491 10.6137 14.8785 10.6767L13.2535 12.2785L14.1547 14.3492C14.1941 14.444 14.2028 14.5488 14.1795 14.6488C14.1562 14.7488 14.1022 14.839 14.0251 14.9067C13.9479 14.9744 13.8514 15.0163 13.7492 15.0264C13.6471 15.0364 13.5443 15.0142 13.4554 14.9629L11.2747 13.7392L9.09537 14.9648C9.00645 15.0161 8.90368 15.0383 8.8015 15.0282C8.69932 15.0182 8.60286 14.9763 8.52568 14.9086C8.44851 14.8409 8.39449 14.7507 8.37123 14.6507C8.34797 14.5506 8.35663 14.4459 8.396 14.351L9.29787 12.2804L7.67287 10.6785C7.60149 10.6161 7.5512 10.5331 7.52894 10.4409C7.50667 10.3487 7.51352 10.2519 7.54854 10.1638C7.58355 10.0757 7.64502 10.0006 7.72448 9.9488C7.80394 9.89705 7.89749 9.87118 7.99225 9.87478H9.86725L10.8322 7.7979C10.8749 7.71752 10.9387 7.65031 11.0167 7.60349C11.0947 7.55667 11.184 7.53203 11.275 7.53223C11.366 7.53242 11.4552 7.55744 11.533 7.60458C11.6108 7.65173 11.6743 7.71922 11.7166 7.79978Z" fill="#5C89F7" stroke="#5C89F7" stroke-linecap="round" stroke-linejoin="round"/>
</g>
<defs>
<clipPath id="clip0_4336_91845">
<rect width="16" height="16" fill="white"/>
</clipPath>
</defs>
</svg>
