<svg width="16" height="16" viewBox="0 0 16 16" fill="none" xmlns="http://www.w3.org/2000/svg">
<g clip-path="url(#clip0_4435_63946)">
<path d="M4.70361 0.96875H11.2661" stroke="#333333" stroke-linecap="round" stroke-linejoin="round"/>
<path d="M10.3287 5.65625V0.96875H5.64124V5.65625L1.43062 12.1344C1.24679 12.4172 1.14265 12.7443 1.12918 13.0814C1.11571 13.4184 1.1934 13.7528 1.35407 14.0494C1.51474 14.3459 1.75243 14.5937 2.0421 14.7665C2.33178 14.9393 2.66269 15.0307 2.99999 15.0312H12.9675C13.305 15.0312 13.6362 14.9401 13.9263 14.7674C14.2163 14.5948 14.4544 14.3471 14.6154 14.0505C14.7763 13.7538 14.8542 13.4192 14.8409 13.082C14.8275 12.7447 14.7233 12.4174 14.5394 12.1344L10.3287 5.65625Z" stroke="#333333" stroke-linecap="round" stroke-linejoin="round"/>
<path d="M3.81323 8.46875H12.157" stroke="#333333" stroke-linecap="round" stroke-linejoin="round"/>
<path d="M9.39111 11.2812H11.2661" stroke="#333333" stroke-linecap="round" stroke-linejoin="round"/>
<path d="M10.3286 10.3438V12.2188" stroke="#333333" stroke-linecap="round" stroke-linejoin="round"/>
<path d="M10.3286 2.84375H8.45361" stroke="#333333" stroke-linecap="round" stroke-linejoin="round"/>
<path d="M10.3286 4.71875H8.45361" stroke="#333333" stroke-linecap="round" stroke-linejoin="round"/>
<path d="M4.70361 12.9219C4.57418 12.9219 4.46924 12.8169 4.46924 12.6875C4.46924 12.5581 4.57418 12.4531 4.70361 12.4531" stroke="#333333"/>
<path d="M4.70361 12.9219C4.83306 12.9219 4.93799 12.8169 4.93799 12.6875C4.93799 12.5581 4.83306 12.4531 4.70361 12.4531" stroke="#333333"/>
<path d="M6.57861 11.0469C6.44918 11.0469 6.34424 10.9419 6.34424 10.8125C6.34424 10.6831 6.44918 10.5781 6.57861 10.5781" stroke="#333333"/>
<path d="M6.57861 11.0469C6.70806 11.0469 6.81298 10.9419 6.81298 10.8125C6.81298 10.6831 6.70806 10.5781 6.57861 10.5781" stroke="#333333"/>
</g>
<defs>
<clipPath id="clip0_4435_63946">
<rect width="16" height="16" fill="white"/>
</clipPath>
</defs>
</svg>
