<svg width="34" height="24" viewBox="0 0 34 24" fill="none" xmlns="http://www.w3.org/2000/svg">
<path d="M1.56882 17.5502L0.312925 17.2096C0.100061 17.1457 -0.0489436 16.9116 0.0149156 16.6987L2.10098 8.84405C2.16484 8.63119 2.39899 8.48218 2.61186 8.54604L3.74003 8.84405C3.9529 8.90791 4.1019 9.14206 4.03804 9.35493L3.0163 13.1652L6.50727 9.09949C6.67756 8.90791 6.95428 8.90791 7.12457 9.0782L8.21018 10.1212C8.31661 10.2277 8.35918 10.3767 8.31661 10.5257L7.67802 13.0375L10.8923 9.12078C11.0626 8.9292 11.3393 8.90791 11.5309 9.0782L12.5313 10.0787C12.659 10.1851 12.7016 10.3341 12.659 10.4831C12.4675 11.2068 12.1694 12.3137 11.8076 13.6122C11.616 14.3147 11.6799 14.9107 11.9566 15.2725C12.063 15.4215 12.2759 15.5493 12.51 15.6131C12.7442 15.6557 13.2565 15.7709 13.7298 15.6131L14.7646 17.2309C13.3996 17.8294 12.2333 17.5928 11.9992 17.5502C11.3606 17.3799 10.8071 17.0393 10.3814 16.4859C9.80665 15.7408 9.59379 14.7191 9.78537 13.6122L6.67756 17.4012C6.57112 17.5289 6.40083 17.5928 6.25183 17.5502L4.99593 17.2309C4.78307 17.167 4.63406 16.9329 4.69792 16.72L5.57066 13.229L1.99455 17.4012C1.88812 17.5289 1.71783 17.5928 1.56882 17.5502Z" fill="url(#paint0_linear_3613_95358)"/>
<path d="M18.6619 21.2966C18.4703 22.0416 17.9595 24 15.8947 24C14.6388 24 13.5957 22.9356 13.5957 21.701C13.5957 19.6788 15.0858 18.5932 16.81 17.8908C16.6823 17.9121 16.5758 17.9121 16.4481 17.9121C15.4689 17.9121 14.5749 17.4863 14.0215 16.7413C13.3616 15.8473 13.1913 14.5914 13.5532 13.2078C13.9576 11.6751 14.4259 9.8658 14.6175 9.0782C14.6814 8.86534 14.8729 8.75891 15.0858 8.82277L16.2991 9.12078C16.512 9.18464 16.6397 9.3975 16.5758 9.61036C16.3843 10.3767 15.8947 12.2073 15.5115 13.7186C15.3199 14.4849 15.2987 15.1448 15.5967 15.528C15.8521 15.8686 16.2353 15.9324 16.4481 15.9324C17.4699 15.9324 18.2788 14.8468 18.598 13.8038L19.8539 9.14206C19.9178 8.90791 20.1307 8.80148 20.3435 8.86534L21.5143 9.16335C21.7271 9.22721 21.8762 9.29107 21.8762 9.31235C21.7271 9.90837 19.5559 18.0185 18.6619 21.2966ZM16.959 19.9981C16.1075 20.4451 15.5754 21.1263 15.5754 21.6159C15.5754 21.7862 15.7031 21.999 15.9585 21.999C16.363 21.999 16.7036 20.8709 16.959 19.9981Z" fill="url(#paint1_linear_3613_95358)"/>
<path d="M33.2506 5.43917L32.5671 8.07049H29.5659L28.7042 11.5261H26.0298L26.8916 8.07049H23.7715L24.4252 5.43917H27.5453L28.407 2.047H31.1111L30.2493 5.43917H33.2506Z" fill="url(#paint2_linear_3613_95358)"/>
<defs>
<linearGradient id="paint0_linear_3613_95358" x1="0" y1="16.2655" x2="21.8762" y2="16.2655" gradientUnits="userSpaceOnUse">
<stop stop-color="#1DDDFD"/>
<stop offset="0.25" stop-color="#337CFF"/>
<stop offset="0.5" stop-color="#A055FC"/>
<stop offset="0.755" stop-color="#F34BBB"/>
<stop offset="1" stop-color="#FD8C3D"/>
</linearGradient>
<linearGradient id="paint1_linear_3613_95358" x1="0" y1="16.2655" x2="21.8762" y2="16.2655" gradientUnits="userSpaceOnUse">
<stop stop-color="#1DDDFD"/>
<stop offset="0.25" stop-color="#337CFF"/>
<stop offset="0.5" stop-color="#A055FC"/>
<stop offset="0.755" stop-color="#F34BBB"/>
<stop offset="1" stop-color="#FD8C3D"/>
</linearGradient>
<linearGradient id="paint2_linear_3613_95358" x1="23.7715" y1="6.78653" x2="31.5957" y2="4.6644" gradientUnits="userSpaceOnUse">
<stop stop-color="#1DDDFD"/>
<stop offset="0.25" stop-color="#337CFF"/>
<stop offset="0.5" stop-color="#A055FC"/>
<stop offset="0.755" stop-color="#F34BBB"/>
<stop offset="1" stop-color="#FD8C3D"/>
</linearGradient>
</defs>
</svg>
