<svg width="105" height="18" viewBox="0 0 105 18" fill="none" xmlns="http://www.w3.org/2000/svg">
<circle cx="9" cy="9" r="9" fill="white"/>
<path d="M14.7285 9.30901L14.6978 9.25875C14.6921 9.25228 14.6872 9.24512 14.6832 9.23742L12.5481 5.85596L9.78955 7.98841L11.8164 11.2267L11.8412 11.2678L11.8529 11.2846C12.1098 11.671 12.5019 11.9373 12.9452 12.0265C13.3884 12.1157 13.8476 12.0207 14.2244 11.7618C14.6011 11.5029 14.8655 11.1007 14.9608 10.6414C15.0562 10.182 14.9749 9.70214 14.7344 9.30444" fill="#95C748"/>
<path d="M6.45362 10.2505C6.45362 9.895 6.35234 9.5475 6.1626 9.25192C5.97286 8.95635 5.70316 8.72598 5.38763 8.58994C5.0721 8.4539 4.72489 8.41831 4.38993 8.48766C4.05496 8.55701 3.74727 8.72819 3.50577 8.97956C3.26427 9.23092 3.09981 9.55118 3.03318 9.89983C2.96655 10.2485 3.00075 10.6099 3.13145 10.9383C3.26214 11.2667 3.48347 11.5474 3.76745 11.7449C4.05142 11.9424 4.38528 12.0478 4.72681 12.0478C5.18479 12.0478 5.62401 11.8585 5.94785 11.5214C6.27169 11.1843 6.45362 10.7272 6.45362 10.2505Z" fill="#35BFC0"/>
<path d="M12.8066 6.79735C12.8066 6.44167 12.7053 6.09399 12.5153 5.79832C12.3254 5.50265 12.0554 5.27228 11.7396 5.13638C11.4239 5.00048 11.0764 4.96515 10.7413 5.03487C10.4062 5.10459 10.0986 5.27623 9.85725 5.52805C9.61592 5.77987 9.45181 6.10056 9.38567 6.44951C9.31954 6.79847 9.35437 7.16 9.48574 7.48834C9.61711 7.81668 9.83912 8.09708 10.1237 8.29402C10.4082 8.49097 10.7425 8.59561 11.0842 8.59471C11.5422 8.59471 11.9814 8.40534 12.3053 8.06827C12.6291 7.7312 12.811 7.27404 12.811 6.79735" fill="#F38334"/>
<path d="M11.085 8.59509C10.7988 8.59532 10.517 8.52137 10.2651 8.37989C10.0132 8.23842 9.79909 8.03389 9.64212 7.78475L8.32507 5.8564C8.17107 5.5949 7.9552 5.37889 7.69809 5.22903C7.44097 5.07918 7.15122 5.00049 6.85655 5.00049C6.56187 5.00049 6.27212 5.07918 6.01501 5.22903C5.75789 5.37889 5.54202 5.5949 5.38803 5.8564L3.29537 9.24396C3.45753 8.99389 3.67761 8.79038 3.93529 8.65221C4.19297 8.51404 4.47994 8.44567 4.76971 8.45341C5.05947 8.46115 5.34269 8.54476 5.59322 8.6965C5.84375 8.84825 6.05351 9.06325 6.20314 9.32164L7.57288 11.3155C7.7328 11.5431 7.94204 11.7282 8.1836 11.8558C8.42515 11.9834 8.69222 12.0499 8.96311 12.0499C9.23399 12.0499 9.50106 11.9834 9.74262 11.8558C9.98418 11.7282 10.1934 11.5431 10.3533 11.3155L10.3665 11.2926L10.466 11.1403L12.5148 7.81369C12.3559 8.05554 12.1425 8.25321 11.8932 8.38942C11.644 8.52563 11.3665 8.59624 11.085 8.59509Z" fill="#3152A0"/>
<path d="M104.499 10.1511C104.499 11.2735 104.179 12.3707 103.58 13.304C102.981 14.2373 102.129 14.9647 101.133 15.3942C100.137 15.8237 99.0403 15.9361 97.9826 15.7172C96.9249 15.4982 95.9534 14.9577 95.1909 14.164C94.4284 13.3703 93.9091 12.3591 93.6987 11.2582C93.4883 10.1574 93.5963 9.01628 94.009 7.97928C94.4216 6.94229 95.1205 6.05595 96.0171 5.43236C96.9138 4.80877 97.9679 4.47592 99.0463 4.47592C100.492 4.47592 101.879 5.07384 102.902 6.13813C103.924 7.20243 104.499 8.64592 104.499 10.1511ZM99.0463 7.30831C98.5061 7.30831 97.9781 7.47503 97.5289 7.7874C97.0798 8.09976 96.7297 8.54374 96.523 9.06319C96.3163 9.58264 96.2622 10.1542 96.3676 10.7057C96.473 11.2571 96.7331 11.7636 97.1151 12.1612C97.497 12.5588 97.9837 12.8295 98.5135 12.9392C99.0433 13.0489 99.5924 12.9926 100.091 12.7774C100.591 12.5623 101.017 12.1979 101.317 11.7304C101.617 11.2629 101.777 10.7133 101.777 10.1511C101.777 9.77775 101.707 9.40809 101.57 9.06319C101.432 8.71829 101.231 8.40491 100.978 8.14093C100.724 7.87696 100.423 7.66756 100.091 7.5247C99.7601 7.38184 99.405 7.30831 99.0463 7.30831ZM75.6386 10.1545C75.6386 11.277 75.3188 12.3742 74.7197 13.3075C74.1206 14.2407 73.269 14.9681 72.2727 15.3977C71.2764 15.8272 70.1801 15.9396 69.1225 15.7206C68.0648 15.5016 67.0933 14.9611 66.3308 14.1675C65.5682 13.3738 65.0489 12.3626 64.8386 11.2617C64.6282 10.1608 64.7361 9.01974 65.1488 7.98274C65.5615 6.94574 66.2604 6.05941 67.157 5.43582C68.0536 4.81222 69.1078 4.47938 70.1862 4.47938C71.6322 4.47938 73.0191 5.0773 74.0416 6.14159C75.0641 7.20589 75.6386 8.64938 75.6386 10.1545ZM70.1862 7.31177C69.646 7.31177 69.118 7.47849 68.6688 7.79086C68.2197 8.10322 67.8696 8.5472 67.6629 9.06665C67.4562 9.58609 67.4021 10.1577 67.5075 10.7091C67.6129 11.2606 67.873 11.7671 68.2549 12.1647C68.6369 12.5622 69.1236 12.833 69.6534 12.9427C70.1832 13.0523 70.7323 12.9961 71.2314 12.7809C71.7304 12.5657 72.157 12.2014 72.4571 11.7339C72.7572 11.2664 72.9174 10.7168 72.9174 10.1545C72.9174 9.40058 72.6296 8.67751 72.1174 8.14439C71.6052 7.61127 70.9105 7.31177 70.1862 7.31177ZM49.6226 4.47592C49.3569 4.46424 49.0941 4.5384 48.8705 4.68823C48.6468 4.83807 48.4731 5.05624 48.3733 5.31284C47.5464 4.78538 46.5994 4.49687 45.6298 4.47702C44.6602 4.45717 43.703 4.7067 42.8568 5.19991C42.0107 5.69312 41.3061 6.41218 40.8157 7.28305C40.3253 8.15391 40.0668 9.1451 40.0668 10.1545C40.0668 11.164 40.3253 12.1551 40.8157 13.026C41.3061 13.8969 42.0107 14.6159 42.8568 15.1091C43.703 15.6023 44.6602 15.8519 45.6298 15.832C46.5994 15.8122 47.5464 15.5237 48.3733 14.9962C48.4751 15.2518 48.6497 15.4688 48.8737 15.6179C49.0977 15.7669 49.3603 15.8408 49.6259 15.8297C49.8122 15.836 49.9977 15.8015 50.1703 15.7284C50.3429 15.6553 50.4988 15.5452 50.6279 15.4053C50.757 15.2654 50.8564 15.0987 50.9196 14.9163C50.9828 14.7338 51.0084 14.5395 50.9948 14.346V5.95264C51.0084 5.75917 50.9828 5.56489 50.9196 5.38241C50.8564 5.19992 50.757 5.03332 50.6279 4.89341C50.4988 4.7535 50.3429 4.64341 50.1703 4.5703C49.9977 4.49718 49.8122 4.46267 49.6259 4.46901M45.5391 12.9938C45.0091 12.9941 44.4905 12.834 44.0463 12.5332C43.6021 12.2323 43.2515 11.8035 43.0371 11.299C42.8227 10.7945 42.7537 10.2361 42.8387 9.69158C42.9236 9.14707 43.1587 8.63998 43.5154 8.23199C43.8721 7.824 44.335 7.53269 44.8478 7.39349C45.3607 7.2543 45.9013 7.27322 46.404 7.44795C46.9067 7.62268 47.3498 7.9457 47.6793 8.37771C48.0089 8.80972 48.2107 9.3321 48.2603 9.88131V10.4001C48.1982 11.1067 47.8847 11.7638 47.3813 12.2423C46.8779 12.7209 46.2209 12.9864 45.5391 12.9869M63.7968 10.9396C63.7796 10.577 63.6291 10.2352 63.3764 9.98489C63.1238 9.73461 62.7883 9.59502 62.4395 9.59502C62.0908 9.59502 61.7553 9.73461 61.5027 9.98489C61.25 10.2352 61.0995 10.577 61.0822 10.9396C61.0329 11.4514 60.8026 11.926 60.4361 12.2711C60.0695 12.6162 59.5929 12.8073 59.0987 12.8073C58.6044 12.8073 58.1278 12.6162 57.7612 12.2711C57.3947 11.926 57.1644 11.4514 57.1151 10.9396V7.31177H60.3181C60.6794 7.31177 61.0258 7.16238 61.2813 6.89647C61.5368 6.63055 61.6803 6.2699 61.6803 5.89385C61.6803 5.51779 61.5368 5.15714 61.2813 4.89122C61.0258 4.62531 60.6794 4.47592 60.3181 4.47592H57.1084V3.51105C57.0912 3.14846 56.9407 2.80665 56.688 2.55637C56.4354 2.30609 56.0999 2.1665 55.7511 2.1665C55.4024 2.1665 55.0669 2.30609 54.8143 2.55637C54.5616 2.80665 54.4111 3.14846 54.3939 3.51105V4.4863H53.2941C52.9345 4.4863 52.5897 4.63496 52.3355 4.89957C52.0813 5.16419 51.9385 5.52308 51.9385 5.8973C51.9385 6.27152 52.0813 6.63042 52.3355 6.89503C52.5897 7.15965 52.9345 7.30831 53.2941 7.30831H54.3939V10.9396C54.4102 12.2324 54.9114 13.4674 55.7904 14.381C56.6694 15.2946 57.8566 15.8144 59.0987 15.8297C60.3444 15.8287 61.5389 15.3132 62.4198 14.3964C63.3007 13.4795 63.7959 12.2362 63.7968 10.9396ZM92.6536 14.4083V9.30723C92.6414 8.34295 92.3551 7.40403 91.8309 6.60887C91.3067 5.8137 90.568 5.1979 89.708 4.83911C88.848 4.48031 87.9052 4.3946 86.9984 4.59276C86.0917 4.79093 85.2616 5.26411 84.6129 5.95264C83.9637 5.26402 83.1329 4.79118 82.2255 4.59389C81.3181 4.3966 80.3749 4.4837 79.5151 4.84419C78.6553 5.20469 77.9175 5.82239 77.3948 6.61923C76.8722 7.41607 76.5883 8.35629 76.5789 9.32106V14.4083C76.5961 14.7709 76.7466 15.1127 76.9993 15.363C77.2519 15.6132 77.5874 15.7528 77.9362 15.7528C78.2849 15.7528 78.6204 15.6132 78.873 15.363C79.1257 15.1127 79.2762 14.7709 79.2934 14.4083V9.36602C79.3388 8.85061 79.5676 8.37144 79.9348 8.02255C80.3021 7.67366 80.7814 7.48024 81.2787 7.48024C81.7759 7.48024 82.2553 7.67366 82.6225 8.02255C82.9898 8.37144 83.2186 8.85061 83.2639 9.36602V14.3599C83.2655 14.7412 83.409 15.107 83.6642 15.3804C83.9195 15.6539 84.2667 15.8137 84.6329 15.8262C84.9942 15.81 85.3353 15.6478 85.5835 15.3739C85.8316 15.1001 85.9674 14.7363 85.9619 14.3599V9.36602C86.0072 8.85061 86.236 8.37144 86.6033 8.02255C86.9706 7.67366 87.4499 7.48024 87.9472 7.48024C88.4444 7.48024 88.9237 7.67366 89.291 8.02255C89.6583 8.37144 89.8871 8.85061 89.9324 9.36602V14.4083C89.9324 14.7825 90.0752 15.1414 90.3295 15.406C90.5837 15.6706 90.9285 15.8193 91.288 15.8193C91.6476 15.8193 91.9924 15.6706 92.2466 15.406C92.5008 15.1414 92.6437 14.7825 92.6437 14.4083M39.1431 14.4048V9.30031C39.1302 8.3359 38.8433 7.39706 38.3184 6.60219C37.7935 5.80733 37.0542 5.19206 36.1938 4.83398C35.3334 4.4759 34.3904 4.39105 33.4837 4.59013C32.577 4.78922 31.7472 5.26332 31.0991 5.95264C30.4505 5.26372 29.6202 4.79049 28.7131 4.59281C27.8061 4.39514 26.8631 4.48188 26.0035 4.84209C25.1438 5.20229 24.4061 5.81977 23.8837 6.61642C23.3612 7.41307 23.0775 8.3531 23.0684 9.3176V14.4048C23.0684 14.779 23.2112 15.1379 23.4654 15.4026C23.7196 15.6672 24.0644 15.8158 24.424 15.8158C24.7835 15.8158 25.1283 15.6672 25.3826 15.4026C25.6368 15.1379 25.7796 14.779 25.7796 14.4048V9.36256C25.7796 8.81224 25.9896 8.28445 26.3635 7.89531C26.7374 7.50617 27.2444 7.28756 27.7732 7.28756C28.3019 7.28756 28.809 7.50617 29.1828 7.89531C29.5567 8.28445 29.7667 8.81224 29.7667 9.36256V14.353C29.7682 14.7352 29.9121 15.1019 30.168 15.376C30.4239 15.6501 30.772 15.8102 31.139 15.8227C31.5006 15.8057 31.8417 15.6427 32.0898 15.3683C32.3379 15.0939 32.4736 14.7297 32.468 14.353V9.36256C32.5174 8.85069 32.7477 8.37615 33.1142 8.03103C33.4807 7.6859 33.9573 7.4948 34.4516 7.4948C34.9458 7.4948 35.4225 7.6859 35.789 8.03103C36.1555 8.37615 36.3858 8.85069 36.4352 9.36256V14.4048C36.4352 14.779 36.578 15.1379 36.8322 15.4026C37.0865 15.6672 37.4313 15.8158 37.7908 15.8158C38.1503 15.8158 38.4952 15.6672 38.7494 15.4026C39.0036 15.1379 39.1464 14.779 39.1464 14.4048" fill="white"/>
</svg>
