<svg width="73" height="16" viewBox="0 0 73 16" fill="none" xmlns="http://www.w3.org/2000/svg">
<path d="M10.5172 0.821011C10.2102 0.311514 9.6588 0 9.06396 0C8.46912 0 7.91773 0.311514 7.61074 0.821011L5.22018 4.91547C8.93635 6.77079 11.3906 10.457 11.6689 14.6012H9.99039C9.71263 11.049 7.57599 7.90903 4.37368 6.34689L2.16115 10.1725C3.95912 10.9789 5.22285 12.6451 5.51446 14.5939H1.65979C1.56692 14.5874 1.48361 14.5344 1.43821 14.4532C1.39281 14.3719 1.39143 14.2732 1.43454 14.1907L2.50266 12.3741C2.14078 12.0722 1.7272 11.8383 1.28195 11.6839L0.224729 13.5004C0.0024106 13.8817 -0.0577861 14.3362 0.0576045 14.7623C0.172995 15.1884 0.454344 15.5504 0.838716 15.7674C1.08943 15.9087 1.37202 15.9837 1.65979 15.9854H6.93862C7.13803 13.5248 6.0355 11.1392 4.03217 9.69657L4.87141 8.24335C7.40048 9.98038 8.82348 12.9245 8.61346 15.9854H13.0858C13.2977 11.3474 11.0268 6.94681 7.12391 4.43227L8.82055 1.52582C8.89923 1.39398 9.06949 1.3502 9.20202 1.42773C9.39457 1.53309 16.5735 14.0599 16.7079 14.2052C16.7561 14.2916 16.7544 14.3973 16.7033 14.4821C16.6523 14.5668 16.5598 14.6178 16.4609 14.6157H14.7315C14.7533 15.0783 14.7533 15.5397 14.7315 16H16.4681C16.9135 16.0028 17.3416 15.8274 17.6569 15.5128C17.9722 15.1982 18.1486 14.7705 18.1466 14.3251C18.1468 14.0338 18.069 13.7478 17.9214 13.4968L10.5172 0.821011ZM45.1475 10.2742L39.7851 3.34962H38.4481V12.6321H39.8033V5.51856L45.3182 12.6321H46.5026V3.34962H45.1475V10.2742ZM31.6434 8.55216H36.45V7.34598H31.6398V4.55216H37.0639V3.34599H30.2592V12.6321H37.133V11.4259H31.6398L31.6434 8.55216ZM25.9904 7.37505C24.1194 6.92455 23.5962 6.56851 23.5962 5.70384C23.5962 4.92637 24.2828 4.39957 25.3074 4.39957C26.2404 4.4269 27.1403 4.75148 27.8759 5.326L28.6025 4.29785C27.6712 3.56778 26.5159 3.18266 25.3328 3.20793C23.4945 3.20793 22.212 4.29785 22.212 5.84916C22.212 7.52037 23.3019 8.09803 25.2856 8.58122C27.0512 8.98813 27.5926 9.36596 27.5926 10.2125C27.5926 11.059 26.8659 11.5821 25.7433 11.5821C24.6257 11.577 23.5503 11.1546 22.7279 10.3978L21.9105 11.375C22.9638 12.2801 24.3073 12.7765 25.6961 12.7738C27.687 12.7738 28.9659 11.702 28.9659 10.0453C28.955 8.64299 28.1266 7.89094 25.9904 7.37505ZM71.0803 3.34962L68.2864 7.70929L65.5108 3.34962H63.8904L67.5562 8.9627V12.6357H68.9513V8.9191L72.6425 3.34962H71.0803ZM47.5998 4.60666H50.6407V12.6357H52.0358V4.60666H55.0766V3.34962H47.6034L47.5998 4.60666ZM61.5289 9.00992C62.9313 8.62119 63.7088 7.64026 63.7088 6.2379C63.7088 4.45407 62.4045 3.33145 60.301 3.33145H56.1738V12.6285H57.5544V9.2933H59.8977L62.2519 12.6357H63.865L61.3219 9.06805L61.5289 9.00992ZM57.5508 8.10166V4.57759H60.1557C61.5144 4.57759 62.2919 5.22064 62.2919 6.33599C62.2919 7.45134 61.4599 8.10166 60.1702 8.10166H57.5508Z" fill="black"/>
</svg>
