<svg width="125" height="20" viewBox="0 0 125 20" fill="none" xmlns="http://www.w3.org/2000/svg">
<g clip-path="url(#clip0_5773_82713)">
<path d="M118.748 10.9924C118.748 12.1148 118.429 13.212 117.83 14.1453C117.23 15.0786 116.379 15.806 115.383 16.2355C114.386 16.6651 113.29 16.7774 112.232 16.5585C111.175 16.3395 110.203 15.799 109.441 15.0053C108.678 14.2116 108.159 13.2004 107.948 12.0995C107.738 10.9987 107.846 9.85759 108.259 8.82059C108.671 7.7836 109.37 6.89726 110.267 6.27367C111.164 5.65007 112.218 5.31723 113.296 5.31723C114.742 5.31723 116.129 5.91515 117.151 6.97944C118.174 8.04374 118.748 9.48723 118.748 10.9924ZM113.296 8.14962C112.756 8.14962 112.228 8.31634 111.779 8.62871C111.33 8.94107 110.979 9.38505 110.773 9.9045C110.566 10.4239 110.512 10.9955 110.617 11.547C110.723 12.0984 110.983 12.6049 111.365 13.0025C111.747 13.4001 112.233 13.6708 112.763 13.7805C113.293 13.8902 113.842 13.8339 114.341 13.6187C114.84 13.4036 115.267 13.0392 115.567 12.5717C115.867 12.1042 116.027 11.5546 116.027 10.9924C116.027 10.6191 115.957 10.2494 115.819 9.9045C115.682 9.5596 115.481 9.24621 115.227 8.98224C114.974 8.71827 114.673 8.50887 114.341 8.36601C114.01 8.22315 113.655 8.14962 113.296 8.14962ZM89.8883 10.9958C89.8883 12.1183 89.5685 13.2155 88.9694 14.1488C88.3703 15.082 87.5188 15.8094 86.5225 16.239C85.5262 16.6685 84.4299 16.7809 83.3722 16.5619C82.3146 16.343 81.343 15.8024 80.5805 15.0088C79.818 14.2151 79.2987 13.2039 79.0883 12.103C78.8779 11.0021 78.9859 9.86105 79.3986 8.82405C79.8113 7.78705 80.5101 6.90072 81.4067 6.27712C82.3034 5.65353 83.3576 5.32069 84.4359 5.32069C85.882 5.32069 87.2688 5.91861 88.2914 6.9829C89.3139 8.0472 89.8883 9.49069 89.8883 10.9958ZM84.4359 8.15307C83.8958 8.15307 83.3677 8.3198 82.9186 8.63216C82.4694 8.94453 82.1194 9.38851 81.9127 9.90796C81.7059 10.4274 81.6519 10.999 81.7572 11.5504C81.8626 12.1019 82.1227 12.6084 82.5047 13.006C82.8867 13.4035 83.3733 13.6743 83.9031 13.784C84.4329 13.8937 84.9821 13.8374 85.4811 13.6222C85.9802 13.407 86.4067 13.0427 86.7068 12.5752C87.0069 12.1077 87.1671 11.5581 87.1671 10.9958C87.1671 10.2419 86.8794 9.51882 86.3672 8.9857C85.855 8.45258 85.1603 8.15307 84.4359 8.15307ZM63.8724 5.31723C63.6066 5.30555 63.3439 5.37971 63.1202 5.52954C62.8966 5.67937 62.7229 5.89755 62.6231 6.15415C61.7962 5.62669 60.8492 5.33818 59.8795 5.31833C58.9099 5.29848 57.9527 5.54801 57.1066 6.04122C56.2604 6.53443 55.5559 7.25349 55.0655 8.12436C54.5751 8.99522 54.3165 9.9864 54.3165 10.9958C54.3165 12.0053 54.5751 12.9964 55.0655 13.8673C55.5559 14.7382 56.2604 15.4572 57.1066 15.9504C57.9527 16.4437 58.9099 16.6932 59.8795 16.6733C60.8492 16.6535 61.7962 16.365 62.6231 15.8375C62.7248 16.0932 62.8995 16.3101 63.1235 16.4592C63.3475 16.6082 63.61 16.6821 63.8757 16.671C64.0619 16.6773 64.2474 16.6428 64.42 16.5697C64.5927 16.4966 64.7486 16.3865 64.8777 16.2466C65.0068 16.1067 65.1061 15.9401 65.1694 15.7576C65.2326 15.5751 65.2582 15.3808 65.2446 15.1873V6.79395C65.2582 6.60048 65.2326 6.4062 65.1694 6.22372C65.1061 6.04123 65.0068 5.87463 64.8777 5.73472C64.7486 5.59481 64.5927 5.48472 64.42 5.4116C64.2474 5.33849 64.0619 5.30398 63.8757 5.31032M59.7889 13.8351C59.2589 13.8354 58.7403 13.6753 58.2961 13.3745C57.8519 13.0736 57.5012 12.6448 57.2868 12.1403C57.0724 11.6359 57.0035 11.0774 57.0884 10.5329C57.1733 9.98838 57.4084 9.48129 57.7651 9.0733C58.1218 8.6653 58.5847 8.37399 59.0976 8.2348C59.6104 8.09561 60.1511 8.11453 60.6538 8.28926C61.1564 8.46399 61.5995 8.78701 61.9291 9.21902C62.2586 9.65103 62.4605 10.1734 62.5101 10.7226V11.2414C62.448 11.948 62.1345 12.6051 61.631 13.0836C61.1276 13.5622 60.4706 13.8277 59.7889 13.8282M78.0466 11.7809C78.0293 11.4183 77.8788 11.0765 77.6262 10.8262C77.3735 10.5759 77.0381 10.4363 76.6893 10.4363C76.3405 10.4363 76.0051 10.5759 75.7524 10.8262C75.4998 11.0765 75.3492 11.4183 75.332 11.7809C75.2826 12.2928 75.0524 12.7673 74.6858 13.1124C74.3193 13.4575 73.8427 13.6486 73.3484 13.6486C72.8542 13.6486 72.3775 13.4575 72.011 13.1124C71.6445 12.7673 71.4142 12.2928 71.3648 11.7809V8.15307H74.5678C74.9291 8.15307 75.2756 8.00369 75.5311 7.73777C75.7865 7.47186 75.9301 7.11121 75.9301 6.73515C75.9301 6.3591 75.7865 5.99844 75.5311 5.73253C75.2756 5.46662 74.9291 5.31723 74.5678 5.31723H71.3582V4.35236C71.3409 3.98976 71.1904 3.64796 70.9378 3.39768C70.6851 3.1474 70.3497 3.00781 70.0009 3.00781C69.6521 3.00781 69.3167 3.1474 69.064 3.39768C68.8114 3.64796 68.6609 3.98976 68.6436 4.35236V5.32761H67.5438C67.1843 5.32761 66.8395 5.47627 66.5853 5.74088C66.331 6.0055 66.1882 6.36439 66.1882 6.73861C66.1882 7.11283 66.331 7.47173 66.5853 7.73634C66.8395 8.00096 67.1843 8.14962 67.5438 8.14962H68.6436V11.7809C68.66 13.0737 69.1611 14.3087 70.0401 15.2223C70.9191 16.1359 72.1063 16.6557 73.3484 16.671C74.5942 16.6701 75.7887 16.1546 76.6695 15.2377C77.5504 14.3208 78.0457 13.0775 78.0466 11.7809ZM106.903 15.2496V10.1485C106.891 9.18426 106.605 8.24534 106.081 7.45018C105.556 6.65501 104.818 6.03921 103.958 5.68042C103.098 5.32162 102.155 5.2359 101.248 5.43407C100.341 5.63224 99.5114 6.10542 98.8627 6.79395C98.2134 6.10533 97.3826 5.63249 96.4753 5.4352C95.5679 5.2379 94.6247 5.32501 93.7649 5.6855C92.9051 6.04599 92.1672 6.6637 91.6446 7.46054C91.122 8.25738 90.838 9.1976 90.8286 10.1624V15.2496C90.8459 15.6122 90.9964 15.954 91.249 16.2043C91.5017 16.4546 91.8371 16.5941 92.1859 16.5941C92.5347 16.5941 92.8701 16.4546 93.1228 16.2043C93.3754 15.954 93.5259 15.6122 93.5432 15.2496V10.2073C93.5885 9.69192 93.8173 9.21275 94.1846 8.86386C94.5519 8.51497 95.0312 8.32155 95.5284 8.32155C96.0257 8.32155 96.505 8.51497 96.8723 8.86386C97.2396 9.21275 97.4684 9.69192 97.5137 10.2073V15.2012C97.5152 15.5825 97.6587 15.9483 97.914 16.2217C98.1693 16.4952 98.5165 16.655 98.8826 16.6675C99.244 16.6513 99.585 16.4891 99.8332 16.2153C100.081 15.9414 100.217 15.5776 100.212 15.2012V10.2073C100.257 9.69192 100.486 9.21275 100.853 8.86386C101.22 8.51497 101.7 8.32155 102.197 8.32155C102.694 8.32155 103.173 8.51497 103.541 8.86386C103.908 9.21275 104.137 9.69192 104.182 10.2073V15.2496C104.182 15.6238 104.325 15.9827 104.579 16.2473C104.833 16.5119 105.178 16.6606 105.538 16.6606C105.897 16.6606 106.242 16.5119 106.496 16.2473C106.751 15.9827 106.893 15.6238 106.893 15.2496M53.3929 15.2461V10.1416C53.38 9.17721 53.093 8.23836 52.5681 7.4435C52.0433 6.64864 51.304 6.03337 50.4436 5.67529C49.5831 5.31721 48.6401 5.23236 47.7334 5.43144C46.8267 5.63053 45.997 6.10463 45.3488 6.79395C44.7002 6.10503 43.8699 5.6318 42.9629 5.43412C42.0559 5.23644 41.1129 5.32319 40.2532 5.6834C39.3936 6.0436 38.6559 6.66108 38.1334 7.45773C37.611 8.25438 37.3272 9.1944 37.3181 10.1589V15.2461C37.3181 15.6204 37.4609 15.9793 37.7152 16.2439C37.9694 16.5085 38.3142 16.6571 38.6737 16.6571C39.0333 16.6571 39.3781 16.5085 39.6323 16.2439C39.8865 15.9793 40.0294 15.6204 40.0294 15.2461V10.2039C40.0294 9.65355 40.2394 9.12576 40.6133 8.73662C40.9871 8.34748 41.4942 8.12887 42.0229 8.12887C42.5516 8.12887 43.0587 8.34748 43.4326 8.73662C43.8064 9.12576 44.0165 9.65355 44.0165 10.2039V15.1943C44.018 15.5765 44.1618 15.9432 44.4178 16.2173C44.6737 16.4914 45.0217 16.6515 45.3887 16.6641C45.7504 16.647 46.0914 16.484 46.3395 16.2096C46.5876 15.9352 46.7233 15.571 46.7178 15.1943V10.2039C46.7671 9.692 46.9974 9.21746 47.3639 8.87233C47.7305 8.52721 48.2071 8.33611 48.7014 8.33611C49.1956 8.33611 49.6722 8.52721 50.0388 8.87233C50.4053 9.21746 50.6356 9.692 50.6849 10.2039V15.2461C50.6849 15.6204 50.8278 15.9793 51.082 16.2439C51.3362 16.5085 51.681 16.6571 52.0406 16.6571C52.4001 16.6571 52.7449 16.5085 52.9991 16.2439C53.2534 15.9793 53.3962 15.6204 53.3962 15.2461" fill="#3F4445"/>
<path d="M32.8788 11.677L32.809 11.5629C32.7961 11.5482 32.785 11.5319 32.7758 11.5144L27.9281 3.83691L21.665 8.67859L26.2668 16.031L26.3233 16.1244L26.3499 16.1624C26.9332 17.0398 27.8234 17.6445 28.8298 17.847C29.8362 18.0496 30.8788 17.8338 31.7342 17.2459C32.5896 16.6581 33.1898 15.7449 33.4063 14.702C33.6227 13.6592 33.4381 12.5696 32.8921 11.6666" fill="#95C748"/>
<path d="M14.0901 13.8152C14.0901 13.0081 13.8602 12.2191 13.4294 11.548C12.9986 10.8769 12.3862 10.3539 11.6698 10.045C10.9534 9.73614 10.1651 9.65533 9.40457 9.81279C8.64403 9.97025 7.94543 10.3589 7.39712 10.9296C6.8488 11.5003 6.4754 12.2275 6.32412 13.0191C6.17284 13.8107 6.25048 14.6312 6.54722 15.3769C6.84397 16.1226 7.34649 16.7599 7.99124 17.2083C8.63599 17.6567 9.39402 17.8961 10.1695 17.8961C11.2093 17.8961 12.2065 17.4661 12.9418 16.7008C13.6771 15.9355 14.0901 14.8975 14.0901 13.8152Z" fill="#35BFC0"/>
<path d="M28.5345 5.97355C28.5363 5.33607 28.3948 4.70699 28.1212 4.13665C27.8476 3.56631 27.4495 3.07055 26.9588 2.68906C26.4681 2.30755 25.8984 2.0509 25.2954 1.93964C24.6923 1.82838 24.0726 1.86559 23.4858 2.04831C22.8991 2.23102 22.3615 2.55417 21.9162 2.99187C21.471 3.42958 21.1303 3.9697 20.9215 4.56901C20.7128 5.16831 20.6417 5.81016 20.7139 6.4432C20.7862 7.07623 20.9998 7.68287 21.3377 8.21456L18.3474 3.8363C17.9973 3.2426 17.5069 2.75225 16.9228 2.41208C16.3388 2.07192 15.6807 1.89331 15.0115 1.89331C14.3422 1.89331 13.6842 2.07192 13.1002 2.41208C12.5161 2.75225 12.0257 3.2426 11.6756 3.8363L6.93757 11.5277C7.30576 10.9599 7.80545 10.4978 8.3905 10.1841C8.97555 9.87039 9.62711 9.71516 10.285 9.73273C10.9429 9.75031 11.586 9.94013 12.1548 10.2847C12.7236 10.6292 13.1999 11.1173 13.5396 11.704L16.6329 16.231C16.996 16.7477 17.4711 17.168 18.0195 17.4577C18.568 17.7474 19.1744 17.8984 19.7894 17.8984C20.4044 17.8984 21.0108 17.7474 21.5593 17.4577C22.1077 17.168 22.5828 16.7477 22.9459 16.231L22.9791 16.1791C23.0602 16.0616 23.1346 15.9392 23.2017 15.8125L27.8534 8.26298C28.2901 7.58631 28.5216 6.78874 28.5179 5.97355M22.2581 9.24515L22.3345 9.30394L22.2813 9.24515M26.8499 9.32123L26.933 9.24861L26.8366 9.32469M6.84121 11.6902C6.87112 11.6383 6.8977 11.5899 6.93092 11.5415L6.83789 11.6902H6.84121Z" fill="#3253A0"/>
<path d="M28.5152 5.97439C28.5152 5.16683 28.285 4.37743 27.8537 3.70612C27.4225 3.0348 26.8096 2.51176 26.0926 2.2032C25.3756 1.89463 24.5867 1.81443 23.8259 1.97273C23.0651 2.13103 22.3666 2.52073 21.8186 3.09248C21.2707 3.66424 20.8981 4.39234 20.748 5.18463C20.5978 5.97692 20.6769 6.79777 20.9751 7.54326C21.2734 8.28875 21.7775 8.92538 22.4236 9.37253C23.0696 9.81969 23.8286 10.0573 24.6045 10.0552C25.6443 10.0552 26.6415 9.62529 27.3768 8.85998C28.1121 8.09467 28.5251 7.05669 28.5251 5.97439" fill="#F38334"/>
<path d="M24.606 10.056C23.9561 10.0565 23.3163 9.88858 22.7443 9.56738C22.1724 9.24617 21.6863 8.78178 21.3299 8.21612L18.3395 3.83786C17.9899 3.24412 17.4998 2.75368 16.916 2.41344C16.3322 2.0732 15.6744 1.89453 15.0053 1.89453C14.3362 1.89453 13.6784 2.0732 13.0946 2.41344C12.5108 2.75368 12.0207 3.24412 11.6711 3.83786L6.91975 11.5292C7.28794 10.9614 7.78763 10.4994 8.37268 10.1857C8.95773 9.87195 9.60928 9.71672 10.2672 9.7343C10.9251 9.75187 11.5681 9.94169 12.137 10.2862C12.7058 10.6308 13.182 11.1189 13.5218 11.7056L16.6317 16.2326C16.9948 16.7493 17.4699 17.1695 18.0183 17.4593C18.5668 17.749 19.1731 17.9 19.7882 17.9C20.4032 17.9 21.0096 17.749 21.558 17.4593C22.1065 17.1695 22.5816 16.7493 22.9447 16.2326L22.9746 16.1807L23.2005 15.8349L27.8521 8.28183C27.4913 8.83094 27.0068 9.27974 26.441 9.589C25.8751 9.89826 25.2451 10.0586 24.606 10.056Z" fill="#3152A0"/>
</g>
<defs>
<clipPath id="clip0_5773_82713">
<rect width="112.5" height="20" fill="white" transform="translate(6.25)"/>
</clipPath>
</defs>
</svg>
