<svg width="85" height="24" viewBox="0 0 85 24" fill="none" xmlns="http://www.w3.org/2000/svg">
<path d="M1.56882 17.5502L0.312925 17.2096C0.100061 17.1457 -0.0489436 16.9116 0.0149156 16.6987L2.10098 8.84405C2.16484 8.63119 2.39899 8.48218 2.61186 8.54604L3.74003 8.84405C3.9529 8.90791 4.1019 9.14206 4.03804 9.35493L3.0163 13.1652L6.50727 9.09949C6.67756 8.90791 6.95428 8.90791 7.12457 9.0782L8.21018 10.1212C8.31661 10.2277 8.35918 10.3767 8.31661 10.5257L7.67802 13.0375L10.8923 9.12078C11.0626 8.9292 11.3393 8.90791 11.5309 9.0782L12.5313 10.0787C12.659 10.1851 12.7016 10.3341 12.659 10.4831C12.4675 11.2068 12.1694 12.3137 11.8076 13.6122C11.616 14.3147 11.6799 14.9107 11.9566 15.2725C12.063 15.4215 12.2759 15.5493 12.51 15.6131C12.7442 15.6557 13.2565 15.7709 13.7298 15.6131L14.7646 17.2309C13.3996 17.8294 12.2333 17.5928 11.9992 17.5502C11.3606 17.3799 10.8071 17.0393 10.3814 16.4859C9.80666 15.7408 9.59379 14.7191 9.78537 13.6122L6.67756 17.4012C6.57112 17.5289 6.40083 17.5928 6.25183 17.5502L4.99593 17.2309C4.78307 17.167 4.63406 16.9329 4.69792 16.72L5.57066 13.229L1.99455 17.4012C1.88812 17.5289 1.71783 17.5928 1.56882 17.5502Z" fill="url(#paint0_linear_5766_77244)"/>
<path d="M18.6619 21.2966C18.4703 22.0416 17.9595 24 15.8947 24C14.6388 24 13.5957 22.9356 13.5957 21.701C13.5957 19.6788 15.0858 18.5932 16.81 17.8908C16.6823 17.9121 16.5758 17.9121 16.4481 17.9121C15.4689 17.9121 14.5749 17.4863 14.0215 16.7413C13.3616 15.8473 13.1913 14.5914 13.5532 13.2078C13.9576 11.6751 14.4259 9.8658 14.6175 9.0782C14.6814 8.86534 14.8729 8.75891 15.0858 8.82277L16.2991 9.12078C16.512 9.18464 16.6397 9.3975 16.5758 9.61036C16.3843 10.3767 15.8947 12.2073 15.5115 13.7186C15.3199 14.4849 15.2987 15.1448 15.5967 15.528C15.8521 15.8686 16.2353 15.9324 16.4481 15.9324C17.4699 15.9324 18.2788 14.8468 18.598 13.8038L19.8539 9.14206C19.9178 8.90791 20.1307 8.80148 20.3435 8.86534L21.5143 9.16335C21.7271 9.22721 21.8762 9.29107 21.8762 9.31235C21.7271 9.90837 19.5559 18.0185 18.6619 21.2966ZM16.959 19.9981C16.1075 20.4451 15.5754 21.1263 15.5754 21.6159C15.5754 21.7862 15.7031 21.999 15.9585 21.999C16.363 21.999 16.7036 20.8709 16.959 19.9981Z" fill="url(#paint1_linear_5766_77244)"/>
<path d="M26.8441 5.62981V12.9496L30.5467 8.82047H32.4577L28.9599 12.6254L32.9354 18H31.0415L27.9191 13.7685L26.8441 14.9288V18H25.2915V5.62981H26.8441ZM38.1033 5.408C40.3214 5.408 42.3177 6.39762 42.7954 8.78634H41.1063C40.6797 7.35311 39.2806 6.87536 38.035 6.87536C37.0795 6.87536 35.4074 7.30192 35.4074 8.68397C35.4074 9.77596 36.2776 10.322 37.4208 10.5779L38.854 10.9021C40.7479 11.3116 43.0172 12.0282 43.0172 14.5193C43.0172 16.9421 40.765 18.2218 38.308 18.2218C35.3904 18.2218 33.5476 16.635 33.2235 14.161H34.9297C35.2539 15.8672 36.4482 16.7544 38.3422 16.7544C40.1678 16.7544 41.2257 15.8843 41.2257 14.6728C41.2257 13.3761 40.1166 12.8301 38.564 12.4889L37.0284 12.1647C35.3392 11.7893 33.633 10.8509 33.633 8.78634C33.633 6.43174 36.107 5.408 38.1033 5.408ZM50.6016 16.6862C50.0726 17.5564 49.2366 18.2218 47.718 18.2218C45.5852 18.2218 44.7833 16.7886 44.7833 14.6899V8.82047H46.336V14.2292C46.336 15.6454 46.5749 16.8739 48.264 16.8739C49.7314 16.8739 50.6016 15.8331 50.6016 13.8709V8.82047H52.1542V18H50.6016V16.6862ZM56.17 5.62981V7.50667H54.6174V5.62981H56.17ZM56.17 8.82047V18H54.6174V8.82047H56.17ZM59.0766 6.51705H60.6293V8.82047H62.3696V10.066H60.6293V15.5089C60.6293 16.4644 60.6975 16.7033 61.5848 16.7033H62.3696V18H61.2435C59.4861 18 59.0766 17.6076 59.0766 15.6966V10.066H57.6263V8.82047H59.0766V6.51705ZM65.1391 13.9221C65.2073 15.9013 66.6064 16.8568 67.9714 16.8568C69.3364 16.8568 70.0872 16.2426 70.4796 15.3383H72.0834C71.6569 16.9251 70.2066 18.2218 67.9714 18.2218C65.0708 18.2218 63.467 16.1402 63.467 13.4273C63.467 10.5267 65.4121 8.66691 67.9202 8.66691C70.7185 8.66691 72.4076 11.0215 72.2029 13.9221H65.1391ZM65.1561 12.5912H70.5649C70.5308 11.2945 69.5582 9.99777 67.9202 9.99777C66.5382 9.99777 65.2926 10.7485 65.1561 12.5912Z" fill="#333333"/>
<path d="M84.4376 5.43905L83.7541 8.07036H80.7529L79.8912 11.5259H77.2168L78.0786 8.07036H74.9585L75.6122 5.43905H78.7323L79.594 2.04688H82.2981L81.4364 5.43905H84.4376Z" fill="url(#paint2_linear_5766_77244)"/>
<defs>
<linearGradient id="paint0_linear_5766_77244" x1="0" y1="16.2655" x2="21.8762" y2="16.2655" gradientUnits="userSpaceOnUse">
<stop stop-color="#1DDDFD"/>
<stop offset="0.25" stop-color="#337CFF"/>
<stop offset="0.5" stop-color="#A055FC"/>
<stop offset="0.755" stop-color="#F34BBB"/>
<stop offset="1" stop-color="#FD8C3D"/>
</linearGradient>
<linearGradient id="paint1_linear_5766_77244" x1="0" y1="16.2655" x2="21.8762" y2="16.2655" gradientUnits="userSpaceOnUse">
<stop stop-color="#1DDDFD"/>
<stop offset="0.25" stop-color="#337CFF"/>
<stop offset="0.5" stop-color="#A055FC"/>
<stop offset="0.755" stop-color="#F34BBB"/>
<stop offset="1" stop-color="#FD8C3D"/>
</linearGradient>
<linearGradient id="paint2_linear_5766_77244" x1="74.9585" y1="6.78641" x2="82.7827" y2="4.66427" gradientUnits="userSpaceOnUse">
<stop stop-color="#1DDDFD"/>
<stop offset="0.25" stop-color="#337CFF"/>
<stop offset="0.5" stop-color="#A055FC"/>
<stop offset="0.755" stop-color="#F34BBB"/>
<stop offset="1" stop-color="#FD8C3D"/>
</linearGradient>
</defs>
</svg>
