<svg width="24" height="24" fill="none" xmlns="http://www.w3.org/2000/svg"><path d="M3.5 24c-.827 0-1.5-.673-1.5-1.5v-21C2 .673 2.673 0 3.5 0h13.293c.421.012.785.163 1.06.437l3.708 3.71c.283.283.439.66.439 1.06V22.5c0 .827-.673 1.5-1.5 1.5h-17Zm0-23a.5.5 0 0 0-.5.5v21a.5.5 0 0 0 .5.5h17a.5.5 0 0 0 .5-.5V5.207a.501.501 0 0 0-.146-.354l-3.707-3.709A.501.501 0 0 0 16.792 1H3.5Z" fill="#000"/><path d="M6.148 20.351a1.77 1.77 0 0 1-.217-.014c-.598-.074-1.12-.459-1.33-.981-.211-.524-.098-1.095.318-1.607a16.721 16.721 0 0 1 3.6-3.184c.143-.888.201-1.847.175-2.852-.009-.352-.03-.715-.061-1.081A16.006 16.006 0 0 1 5.928 7.14c-.363-.601-.367-1.273-.009-1.839.306-.481.841-.793 1.363-.793.046 0 .093.002.139.007.512.054.923.4 1.126.948.485 1.314.875 3.065 1.047 4.703a15.211 15.211 0 0 0 3.339 2.359 16.791 16.791 0 0 1 4.73-.676h.111c.704.026 1.265.37 1.547.942.272.552.228 1.243-.111 1.72-.273.385-.696.597-1.192.597-.072 0-.145-.005-.219-.014a15.979 15.979 0 0 1-4.958-1.497 15.616 15.616 0 0 0-3.413 1.572c-.329 1.689-.96 3.181-1.875 4.437-.349.481-.848.745-1.405.745Zm2.048-4.336a15.723 15.723 0 0 0-2.507 2.373c-.12.148-.248.375-.16.596.075.187.286.332.526.362a.782.782 0 0 0 .09.006c.238 0 .44-.111.6-.331a9.698 9.698 0 0 0 1.451-3.006Zm6.19-2.826c1.141.45 2.329.757 3.539.916a.746.746 0 0 0 .095.006c.167 0 .29-.058.374-.176.13-.183.142-.471.03-.7-.149-.302-.448-.376-.673-.385h-.092c-1.107 0-2.204.114-3.273.339Zm-4.692-1.502c.02.767-.007 1.511-.08 2.22a16.662 16.662 0 0 1 2.042-.949 16.257 16.257 0 0 1-1.966-1.38l.004.109ZM7.281 5.508c-.182 0-.395.135-.517.328-.107.169-.189.443.024.794a14.97 14.97 0 0 0 1.627 2.308c-.194-1.132-.478-2.239-.806-3.128-.069-.186-.167-.287-.293-.3a.388.388 0 0 0-.035-.002Z" fill="#000"/></svg>