<svg width="16" height="16" viewBox="0 0 16 16" fill="none" xmlns="http://www.w3.org/2000/svg">
<path fill-rule="evenodd" clip-rule="evenodd" d="M5.97224 2.35304C7.13464 1.93563 8.39753 1.88712 9.58853 2.21411C10.7795 2.5411 11.8406 3.22767 12.6269 4.18009C12.8027 4.39304 12.7726 4.70819 12.5597 4.88399C12.3467 5.0598 12.0316 5.02969 11.8558 4.81674C11.2005 4.02305 10.3163 3.45091 9.32377 3.17842C8.33128 2.90593 7.27887 2.94636 6.3102 3.2942C5.34153 3.64203 4.50381 4.28033 3.91138 5.12195C3.31894 5.96357 3.00067 6.96752 3 7.99674V8.28931L4.14645 7.14286C4.34171 6.9476 4.65829 6.9476 4.85355 7.14286C5.04882 7.33813 5.04882 7.65471 4.85355 7.84997L2.87921 9.82431C2.78752 9.93091 2.65164 9.99842 2.5 9.99842C2.34836 9.99842 2.21248 9.93091 2.12079 9.82431L0.146447 7.84997C-0.0488155 7.65471 -0.0488155 7.33813 0.146447 7.14286C0.341709 6.9476 0.658291 6.9476 0.853553 7.14286L2 8.28931V7.99642C2.0008 6.76135 2.38273 5.55629 3.09365 4.54634C3.80457 3.53639 4.80984 2.77044 5.97224 2.35304ZM13.1464 6.64286C13.3417 6.4476 13.6583 6.4476 13.8536 6.64286L15.8536 8.64286C16.0488 8.83813 16.0488 9.15471 15.8536 9.34997C15.6583 9.54523 15.3417 9.54523 15.1464 9.34997L13.9965 8.20004C13.958 9.33007 13.6008 10.4278 12.9641 11.3656C12.2894 12.3595 11.3317 13.1281 10.2152 13.5716C9.09866 14.0152 7.8747 14.1133 6.70176 13.8534C5.52883 13.5934 4.46094 12.9873 3.63636 12.1136C3.44683 11.9128 3.45599 11.5963 3.65683 11.4068C3.85766 11.2173 4.17411 11.2264 4.36364 11.4272C5.05078 12.1554 5.94069 12.6604 6.91814 12.8771C7.89558 13.0937 8.91555 13.0119 9.84598 12.6423C10.7764 12.2726 11.5745 11.6322 12.1368 10.8039C12.6594 10.034 12.9561 9.13489 12.9955 8.20804L11.8536 9.34997C11.6583 9.54523 11.3417 9.54523 11.1464 9.34997C10.9512 9.15471 10.9512 8.83813 11.1464 8.64286L13.1464 6.64286Z" fill="#5C89F7"/>
</svg>
