<svg width="16" height="16" viewBox="0 0 16 16" fill="none" xmlns="http://www.w3.org/2000/svg">
<path fill-rule="evenodd" clip-rule="evenodd" d="M2.34288 13.6569C0.842764 12.1566 0 10.1217 0 8C0 5.87827 0.842764 3.84343 2.34288 2.34315C3.843 0.842858 5.87761 0 7.9991 0C10.1206 0 12.1552 0.842858 13.6553 2.34315C15.1554 3.84343 15.9982 5.87827 15.9982 8C15.9982 10.1217 15.1554 12.1566 13.6553 13.6569C12.1552 15.1571 10.1206 16 7.9991 16C5.87761 16 3.843 15.1571 2.34288 13.6569ZM12.6837 4.65359C12.8663 4.42249 12.827 4.0871 12.596 3.90446C12.3649 3.7218 12.0296 3.76108 11.847 3.99216L6.27026 11.0484L6.26408 11.0566C6.2436 11.0835 6.21698 11.1053 6.18642 11.1198C6.15588 11.1344 6.12228 11.1416 6.08844 11.1405C6.0546 11.1395 6.02149 11.1305 5.99186 11.114C5.96224 11.0976 5.93709 11.0744 5.91825 11.0462L4.16889 8.56323C3.99924 8.32244 3.66654 8.26478 3.42579 8.43445C3.18504 8.60411 3.12739 8.93684 3.29704 9.17763L5.03587 11.6457C5.14877 11.8123 5.29939 11.9499 5.47552 12.0474C5.65377 12.146 5.85298 12.2006 6.05659 12.2067C6.26021 12.2128 6.46233 12.1701 6.64614 12.0824C6.82821 11.9953 6.98709 11.8666 7.10984 11.7065L12.6837 4.65359Z" fill="#3EBF4D"/>
</svg>
