<svg width="17" height="16" viewBox="0 0 17 16" fill="none" xmlns="http://www.w3.org/2000/svg">
<path fill-rule="evenodd" clip-rule="evenodd" d="M8.00808 0.0135527C5.91167 0.131719 3.91303 1.10916 2.50242 2.70615C0.893509 4.52763 0.207487 6.94824 0.615048 9.36566C0.893424 11.0168 1.7021 12.5463 2.92749 13.7393C4.18097 14.9597 5.75524 15.7179 7.497 15.9403C8.51185 16.0698 9.69938 15.9855 10.6343 15.7176C12.0441 15.3136 13.2251 14.6127 14.2296 13.5838C15.1657 12.6249 15.8265 11.4871 16.2005 10.1901C16.5573 8.95271 16.5972 7.51198 16.31 6.24212C15.9391 4.60257 15.0588 3.1181 13.7959 2.00233C12.1981 0.590715 10.1647 -0.107996 8.00808 0.0135527ZM8.05058 1.07628C6.89264 1.16846 5.92073 1.47241 4.93162 2.05174C4.2362 2.45902 3.4786 3.14187 2.96033 3.82844C1.50273 5.75943 1.16062 8.33125 2.0626 10.5771C2.43118 11.4949 2.93478 12.2472 3.6509 12.9498C4.20958 13.4979 4.69302 13.8452 5.3734 14.187C6.15216 14.5783 6.86337 14.7913 7.74461 14.8973C8.10285 14.9404 8.8992 14.9404 9.25743 14.8973C10.1387 14.7913 10.8499 14.5783 11.6287 14.187C12.309 13.8452 12.7925 13.4979 13.3511 12.9498C13.9364 12.3756 14.3285 11.8407 14.6858 11.1296C15.0221 10.4599 15.2307 9.82717 15.3419 9.13851C15.4029 8.76092 15.4191 8.58334 15.4307 8.16311C15.4658 6.89143 15.1539 5.6662 14.5046 4.52513C14.0789 3.77697 13.3922 3.00274 12.6719 2.45888C11.6905 1.71793 10.5424 1.2602 9.28293 1.10772C9.06366 1.08118 8.24991 1.06042 8.05058 1.07628ZM12.2942 4.06943C12.2507 4.0848 12.1795 4.13498 12.1212 4.19134C12.0667 4.24402 10.8659 5.7521 9.45289 7.54261C8.03987 9.33312 6.86125 10.8191 6.83373 10.8448C6.76011 10.9136 6.66806 10.9102 6.60327 10.8363C6.57658 10.8058 6.19142 10.2649 5.74735 9.63414C5.30328 9.00343 4.91489 8.46227 4.88424 8.4316C4.7254 8.27253 4.45175 8.23617 4.26132 8.34883C4.08187 8.45499 3.99083 8.61364 3.99051 8.8208C3.99032 8.93322 3.99727 8.96446 4.04018 9.04416C4.06761 9.09512 4.46096 9.6636 4.91431 10.3075C5.7951 11.5584 5.8824 11.6676 6.10472 11.7973C6.16526 11.8326 6.27599 11.8819 6.35078 11.9068C6.47187 11.9472 6.51282 11.9522 6.72474 11.9525C6.94126 11.9529 6.97479 11.9487 7.09682 11.9061C7.29418 11.8371 7.49094 11.7147 7.61103 11.5862C7.7524 11.4349 12.9474 4.83818 12.9776 4.77163C13.0319 4.65183 13.027 4.46747 12.9662 4.3431C12.9084 4.22495 12.7794 4.10467 12.6709 4.0677C12.5721 4.03404 12.3919 4.03487 12.2942 4.06943Z" fill="#3EBF4D"/>
</svg>
