<svg width="20" height="16" viewBox="0 0 20 16" fill="none" xmlns="http://www.w3.org/2000/svg">
<path fill-rule="evenodd" clip-rule="evenodd" d="M16.1029 0.445463C16.3263 0.221955 16.6887 0.221955 16.9123 0.445463C17.1358 0.668972 17.1358 1.03135 16.9123 1.25485L2.61298 15.5541C2.38947 15.7777 2.0271 15.7777 1.80358 15.5541C1.58008 15.3306 1.58008 14.9683 1.80358 14.7448L16.1029 0.445463ZM11.8149 2.41184C11.337 2.1349 10.5584 1.96637 9.74615 1.96707C8.91946 1.96777 7.96591 2.14308 7.14293 2.6469L7.13201 2.65359L7.1214 2.66075C6.02415 3.40189 5.5667 4.35066 5.30538 5.1523C4.49772 5.0579 3.70651 5.22887 3.24681 5.42584L3.22936 5.43331L3.21246 5.44192C1.6916 6.21659 1.1041 7.35107 0.924857 8.31346C0.837412 8.78296 0.848571 9.19994 0.881161 9.49974C0.897532 9.65034 0.919548 9.77355 0.938244 9.8618C0.947607 9.90599 0.956181 9.94162 0.962874 9.96776L0.969641 9.99344L0.970393 9.9968C0.97352 10.0105 0.977894 10.0289 0.983646 10.0517C0.995138 10.0972 1.01219 10.1601 1.03585 10.237C1.08304 10.3902 1.15728 10.6009 1.26757 10.8394C1.48588 11.3114 1.85868 11.9204 2.46973 12.3944C2.71946 12.5882 3.07899 12.5429 3.27276 12.2931C3.46651 12.0434 3.42114 11.6838 3.1714 11.4902C2.75366 11.166 2.47871 10.7312 2.30647 10.3588C2.22148 10.1751 2.16475 10.0136 2.12978 9.90003C2.11237 9.84349 2.10055 9.79948 2.09343 9.77132C2.08988 9.75727 2.08752 9.74722 2.08624 9.74162L2.08512 9.73661L2.08067 9.71506L2.07459 9.69456L2.07176 9.68383C2.0688 9.67225 2.0639 9.6522 2.05805 9.62456C2.0463 9.56913 2.03085 9.48401 2.01911 9.37603C1.99548 9.15869 1.98787 8.85753 2.05016 8.52305C2.16979 7.88076 2.55257 7.06892 3.71419 6.471C4.10086 6.31081 4.88244 6.17143 5.5484 6.36349C5.69563 6.40595 5.85374 6.38759 5.98733 6.31253C6.12092 6.23748 6.21884 6.11199 6.25915 5.96415C6.48158 5.14851 6.77397 4.28162 7.75138 3.61656C8.34366 3.25759 9.06895 3.1123 9.74712 3.11172C10.4438 3.11113 10.9997 3.26241 11.241 3.4022C11.5144 3.56069 11.8646 3.46748 12.0231 3.19399C12.1816 2.92051 12.0884 2.57034 11.8149 2.41184ZM13.9569 5.5265C15.9091 4.76388 17.4816 5.9383 18.0675 6.52866C19.2858 7.71866 19.4437 9.48471 18.669 10.9526C18.0368 12.1504 16.7584 13.0159 15.2301 13.1182L15.211 13.1195H7.28399C6.96791 13.1195 6.71167 12.8633 6.71167 12.5471C6.71167 12.2311 6.9679 11.9748 7.28399 11.9748H15.1719C16.304 11.8928 17.2162 11.253 17.6566 10.4183C18.2251 9.34128 18.0795 8.13821 17.2651 7.34497L17.2575 7.33753C16.7732 6.84799 15.6719 6.08542 14.3733 6.59269C14.0789 6.7077 13.747 6.56226 13.632 6.26784C13.517 5.97342 13.6624 5.6415 13.9569 5.5265Z" fill="#9F9F9F"/>
</svg>
