<svg width="14" height="14" viewBox="0 0 14 14" fill="none" xmlns="http://www.w3.org/2000/svg">
<path fill-rule="evenodd" clip-rule="evenodd" d="M1.07997 0.889435C0.52056 0.98332 0.12534 1.39632 0.0225956 1.99437C0.0026919 2.11022 -7.28944e-05 2.56421 1.42865e-06 5.70308C9.06163e-05 9.53717 -0.00182692 9.43267 0.0727488 9.64775C0.198756 10.0112 0.486773 10.2942 0.865106 10.4264C1.09812 10.5079 1.05181 10.5061 2.94441 10.5061C4.69696 10.5061 4.69713 10.5061 4.69713 10.5364C4.69713 10.553 4.63692 10.9273 4.56334 11.3683C4.48976 11.8092 4.42956 12.1729 4.42956 12.1766C4.42956 12.1802 4.20046 12.1854 3.92045 12.1882L3.41134 12.1933L3.32958 12.2321C3.22559 12.2815 3.14282 12.3643 3.09343 12.4682C3.0619 12.5346 3.05475 12.5709 3.05542 12.6615C3.05685 12.8542 3.14688 12.9953 3.32215 13.0794L3.41134 13.1223L6.98627 13.1222C9.37359 13.1221 10.5794 13.1171 10.6159 13.1069C10.7673 13.0649 10.9105 12.9064 10.938 12.7504C10.9678 12.581 10.9207 12.4334 10.802 12.3239C10.6642 12.1969 10.6025 12.1861 10.0161 12.1859L9.57508 12.1858L9.56664 12.1449C9.562 12.1225 9.50126 11.7596 9.43165 11.3385C9.36205 10.9175 9.30167 10.5581 9.2975 10.5399L9.28989 10.5068L11.1222 10.5026L12.9544 10.4983L13.0632 10.4647C13.5881 10.3026 13.9212 9.88139 13.9885 9.29465C13.9988 9.20502 14.0022 7.9763 13.9987 5.57107C13.9939 2.29723 13.9913 1.97268 13.969 1.88359C13.902 1.61643 13.8143 1.45876 13.6307 1.2752C13.427 1.07148 13.2225 0.962138 12.9372 0.904419C12.7863 0.873872 12.7832 0.873857 6.96908 0.875611C3.76963 0.876562 1.11954 0.882791 1.07997 0.889435ZM1.16005 1.82968C1.07589 1.85659 1.0018 1.94356 0.966973 2.05629C0.936456 2.15511 0.936382 2.16385 0.936382 5.71116C0.936382 9.64998 0.929321 9.37256 1.03195 9.46267C1.0598 9.48714 1.12159 9.52268 1.16928 9.54166L1.25597 9.57616L7.02384 9.57662L12.7917 9.57708L12.8655 9.5391C12.9511 9.49503 13.0111 9.41 13.0442 9.28575C13.0748 9.17064 13.0768 2.18596 13.0463 2.06811C13.0205 1.96895 12.9728 1.9117 12.8727 1.85999L12.7909 1.81776L7.00114 1.81551C2.81292 1.81388 1.19718 1.8178 1.16005 1.82968ZM5.64846 10.5289C5.64846 10.5333 5.58826 10.8976 5.51468 11.3385C5.4411 11.7795 5.3809 12.1505 5.3809 12.163C5.3809 12.1834 5.5551 12.1858 7.003 12.1858H8.6251L8.61726 12.1449C8.61295 12.1225 8.55031 11.7479 8.47807 11.3125L8.34673 10.521H6.9976C6.25558 10.521 5.64846 10.5246 5.64846 10.5289Z" fill="#9F9F9F"/>
</svg>
