<svg width="16" height="16" viewBox="0 0 16 16" fill="none" xmlns="http://www.w3.org/2000/svg">
<path d="M14.6084 8.90466C15.3759 8.90657 15.9979 9.52784 16 10.2953V13.0785C15.9976 13.8458 15.3758 14.4668 14.6084 14.4691H1.3916C0.6244 14.4664 0.00280806 13.8457 0 13.0785V10.2953C0.0024743 9.528 0.62427 8.90695 1.3916 8.90466H14.6084ZM2.08691 11.8597C1.79878 11.8598 1.56543 12.0941 1.56543 12.3822C1.5656 12.6702 1.79889 12.9037 2.08691 12.9037H13.9131C14.2011 12.9037 14.4344 12.6702 14.4346 12.3822C14.4346 12.0941 14.2012 11.8598 13.9131 11.8597H2.08691ZM13.5654 9.59998C13.1813 9.59998 12.8693 9.91125 12.8691 10.2953C12.8691 10.6795 13.1812 10.9916 13.5654 10.9916C13.9495 10.9915 14.2607 10.6794 14.2607 10.2953C14.2606 9.91132 13.9494 9.60009 13.5654 9.59998ZM12.5215 1.59998C13.4902 1.62848 14.3302 2.27803 14.6016 3.20837L15.7773 7.84998C15.794 7.91404 15.7729 7.98271 15.7227 8.02576C15.6724 8.06875 15.6017 8.0793 15.541 8.0531C15.2465 7.9266 14.9289 7.86089 14.6084 7.86072H1.3916C1.07108 7.86089 0.75349 7.9266 0.458984 8.0531C0.398283 8.0793 0.327583 8.06876 0.277344 8.02576C0.227078 7.98271 0.206039 7.91404 0.222656 7.84998L1.39941 3.20837C1.6707 2.27831 2.51011 1.62877 3.47852 1.59998H12.5215Z"/>
</svg>
