<svg width="16" height="16" viewBox="0 0 16 16" fill="none" xmlns="http://www.w3.org/2000/svg">
<path fill-rule="evenodd" clip-rule="evenodd" d="M2.0022 1.02787C1.86508 1.02787 1.73599 1.08226 1.6427 1.17521C1.54984 1.26774 1.5 1.39052 1.5 1.51581V14.4974C1.5 14.6227 1.54984 14.7454 1.6427 14.838C1.73599 14.9309 1.86508 14.9853 2.0022 14.9853H13.9978C14.1349 14.9853 14.264 14.9309 14.3573 14.838C14.4502 14.7454 14.5 14.6227 14.5 14.4974V3.43509C14.5 3.37179 14.4874 3.30852 14.4624 3.24944C14.4375 3.19032 14.4005 3.13592 14.3531 3.08981L12.3791 1.17081C12.2861 1.0805 12.1589 1.02789 12.0241 1.02787H2.0022ZM0.94437 0.444207C1.22698 0.162616 1.60771 0.0065918 2.0022 0.0065918H12.0241C12.4121 0.00663055 12.787 0.157559 13.0683 0.430845L15.0427 2.35023C15.1867 2.49027 15.3019 2.65845 15.3806 2.84492C15.4594 3.03143 15.5001 3.23222 15.5 3.43537V14.4974C15.5 14.9018 15.3387 15.287 15.0556 15.569C14.773 15.8506 14.3923 16.0066 13.9978 16.0066H2.0022C1.60771 16.0066 1.22698 15.8506 0.94437 15.569C0.66134 15.287 0.5 14.9018 0.5 14.4974V1.51581C0.5 1.11142 0.66134 0.726215 0.94437 0.444207ZM3.33334 4.03693C2.83334 4.03693 2.83334 4.03667 2.83334 4.03641V4.03481L2.83335 4.03253L2.83341 4.02752L2.83371 4.01565C2.834 4.00697 2.8345 3.99664 2.83534 3.98489C2.83701 3.96157 2.84009 3.93168 2.84585 3.89719C2.85696 3.83058 2.88012 3.73421 2.93137 3.63185C2.98375 3.52724 3.06958 3.4088 3.20613 3.3179C3.34526 3.22527 3.50737 3.1811 3.67901 3.1811H12.321V3.69174C12.321 3.1811 12.3207 3.1811 12.321 3.1811L12.323 3.18111L12.3251 3.18112L12.3299 3.18118L12.3412 3.18146C12.3495 3.18173 12.3594 3.18221 12.3707 3.18302C12.3931 3.18462 12.422 3.18759 12.4554 3.19314C12.5198 3.20386 12.6135 3.22625 12.7134 3.27614C12.8151 3.32688 12.9335 3.41157 13.0258 3.5497C13.1205 3.69161 13.1667 3.85889 13.1667 4.03693V11.9763H12.6667C13.1667 11.9763 13.1667 11.976 13.1667 11.9763V11.9784V11.9807L13.1666 11.9857L13.1663 11.9975C13.166 12.0062 13.1655 12.0165 13.1647 12.0283C13.163 12.0516 13.1599 12.0815 13.1542 12.116C13.143 12.1826 13.1199 12.279 13.0686 12.3813C13.0163 12.4859 12.9304 12.6044 12.7939 12.6953C12.6547 12.7879 12.4926 12.8321 12.321 12.8321H3.67901V12.3214C3.67901 12.8321 3.67926 12.8321 3.67901 12.8321H3.67703H3.67488L3.67014 12.832L3.65884 12.8317C3.65055 12.8315 3.64064 12.831 3.62933 12.8302C3.60687 12.8286 3.57798 12.8256 3.54458 12.82C3.4802 12.8093 3.38649 12.7869 3.28657 12.737C3.18494 12.6863 3.06646 12.6016 2.97423 12.4635C2.8795 12.3216 2.83334 12.1543 2.83334 11.9763V4.03641L3.33334 4.03693ZM3.83334 6.96389V8.87671H5.94445V6.96389H3.83334ZM3.83334 5.94261V4.20238H12.1667V5.94261H3.83334ZM6.94445 6.96389V8.87671H12.1667V6.96389H6.94445ZM12.1667 9.89799H6.94445V11.8108H12.1667V9.89799ZM5.94445 11.8108V9.89799H3.83334V11.8108H5.94445Z" fill="#4BAF50"/>
</svg>
