<svg width="16" height="16" viewBox="0 0 16 16" fill="none" xmlns="http://www.w3.org/2000/svg">
<g clip-path="url(#clip0_3629_15374)">
<path d="M11.3542 13.4167C11.4059 13.4167 11.4479 13.4586 11.4479 13.5104C11.4479 13.5622 11.4059 13.6042 11.3542 13.6042V14.0833C11.0378 14.0833 10.7812 13.8268 10.7812 13.5104C10.7812 13.194 11.0378 12.9375 11.3542 12.9375V13.4167Z" fill="#B35D00"/>
<path d="M11.3535 12.9375C11.6699 12.9375 11.9264 13.194 11.9264 13.5104C11.9264 13.8268 11.6699 14.0833 11.3535 14.0833V13.6042C11.3017 13.6042 11.2598 13.5622 11.2598 13.5104C11.2598 13.4586 11.3017 13.4167 11.3535 13.4167V12.9375Z" fill="#B35D00"/>
<path d="M10.8535 11.8332V9.9165C10.8535 9.64036 11.0774 9.4165 11.3535 9.4165C11.6297 9.4165 11.8535 9.64036 11.8535 9.9165V11.8332C11.8535 12.1093 11.6297 12.3332 11.3535 12.3332C11.0774 12.3332 10.8535 12.1093 10.8535 11.8332Z" fill="#B35D00"/>
<path d="M11.3552 7.02051C11.6586 7.02056 11.9559 7.10513 12.2139 7.26465C12.4718 7.42411 12.6799 7.65238 12.8155 7.9235H12.8161L15.516 13.3226L15.5596 13.4176C15.6542 13.6413 15.6982 13.8838 15.6872 14.1273C15.6747 14.4054 15.5913 14.6757 15.445 14.9124C15.2986 15.1493 15.0939 15.3452 14.8506 15.4808C14.6074 15.6164 14.3334 15.6872 14.055 15.6872H8.65466V15.6865C8.37636 15.6865 8.10231 15.6164 7.85908 15.4808V15.4801C7.61598 15.3445 7.41165 15.1492 7.26533 14.9124C7.119 14.6756 7.03563 14.4055 7.02315 14.1273C7.01062 13.8489 7.06905 13.5716 7.19372 13.3226L9.89359 7.9235C10.0292 7.65227 10.2378 7.42417 10.4958 7.26465C10.7539 7.10509 11.0517 7.02051 11.3552 7.02051ZM11.3552 8.02051C11.2375 8.02051 11.1219 8.05308 11.0218 8.11491C10.9218 8.17676 10.8407 8.26548 10.7881 8.37077L8.08825 13.7705C8.03991 13.8671 8.01699 13.9746 8.02184 14.0824C8.02667 14.1902 8.05882 14.2952 8.11559 14.387C8.17231 14.4788 8.25175 14.5545 8.34606 14.6071C8.44025 14.6596 8.54664 14.6872 8.65466 14.6872H14.055C14.1631 14.6872 14.2694 14.6596 14.3636 14.6071C14.458 14.5545 14.5374 14.4788 14.5941 14.387C14.6509 14.2952 14.683 14.1902 14.6879 14.0824C14.6927 13.9746 14.6698 13.8671 14.6215 13.7705L11.9216 8.37077C11.869 8.2655 11.7879 8.17676 11.6879 8.11491C11.5879 8.05316 11.4727 8.02056 11.3552 8.02051Z" fill="#B35D00"/>
<path d="M0.3125 12.3125V1.77083C0.3125 1.38407 0.466089 1.01307 0.739583 0.739583C1.01307 0.466089 1.38407 0.3125 1.77083 0.3125H8.56185L8.70573 0.319661C9.03932 0.352837 9.35323 0.500522 9.59245 0.739583L11.4271 2.57422C11.7002 2.84757 11.854 3.21837 11.8542 3.60482V5.60417C11.8542 5.88031 11.6303 6.10417 11.3542 6.10417C11.078 6.10417 10.8542 5.88031 10.8542 5.60417V3.60547L10.8451 3.51562C10.8333 3.45686 10.8106 3.40077 10.7773 3.35091L10.7201 3.28125L8.88542 1.44661C8.82094 1.38218 8.73913 1.3392 8.65104 1.32161L8.5612 1.3125H1.77083C1.64928 1.3125 1.53256 1.36067 1.44661 1.44661C1.36067 1.53256 1.3125 1.64928 1.3125 1.77083V12.3125C1.3125 12.4341 1.36068 12.5508 1.44661 12.6367C1.53254 12.7226 1.64925 12.7708 1.77083 12.7708H5.60417C5.88031 12.7708 6.10417 12.9947 6.10417 13.2708C6.10417 13.547 5.88031 13.7708 5.60417 13.7708H1.77083C1.3841 13.7708 1.01309 13.6173 0.739583 13.3437C0.466085 13.0702 0.3125 12.6992 0.3125 12.3125Z" fill="#B35D00"/>
</g>
<defs>
<clipPath id="clip0_3629_15374">
<rect width="16" height="16" fill="white"/>
</clipPath>
</defs>
</svg>
