<svg width="16" height="16" viewBox="0 0 16 16" fill="none" xmlns="http://www.w3.org/2000/svg">
<g clip-path="url(#clip0_4336_91857)">
<path d="M7.53125 11.75C7.53125 12.123 7.67941 12.4806 7.94313 12.7444C8.20685 13.0081 8.56454 13.1562 8.9375 13.1562C9.31046 13.1562 9.66815 13.0081 9.93187 12.7444C10.1956 12.4806 10.3438 12.123 10.3438 11.75C10.3438 11.377 10.1956 11.0194 9.93187 10.7556C9.66815 10.4919 9.31046 10.3438 8.9375 10.3438C8.56454 10.3438 8.20685 10.4919 7.94313 10.7556C7.67941 11.0194 7.53125 11.377 7.53125 11.75Z" fill="#5C89F7" stroke="#5C89F7" stroke-linecap="round" stroke-linejoin="round"/>
<path d="M12.2188 13.625C12.2188 13.998 12.3669 14.3556 12.6306 14.6194C12.8944 14.8831 13.252 15.0312 13.625 15.0312C13.998 15.0312 14.3556 14.8831 14.6194 14.6194C14.8831 14.3556 15.0312 13.998 15.0312 13.625C15.0312 13.252 14.8831 12.8944 14.6194 12.6306C14.3556 12.3669 13.998 12.2188 13.625 12.2188C13.252 12.2188 12.8944 12.3669 12.6306 12.6306C12.3669 12.8944 12.2188 13.252 12.2188 13.625Z" fill="#5C89F7" stroke="#5C89F7" stroke-linecap="round" stroke-linejoin="round"/>
<path d="M12.2188 8.9375C12.2188 9.31046 12.3669 9.66815 12.6306 9.93187C12.8944 10.1956 13.252 10.3438 13.625 10.3438C13.998 10.3438 14.3556 10.1956 14.6194 9.93187C14.8831 9.66815 15.0312 9.31046 15.0312 8.9375C15.0312 8.56454 14.8831 8.20685 14.6194 7.94313C14.3556 7.67941 13.998 7.53125 13.625 7.53125C13.252 7.53125 12.8944 7.67941 12.6306 7.94313C12.3669 8.20685 12.2188 8.56454 12.2188 8.9375Z" fill="#5C89F7" stroke="#5C89F7" stroke-linecap="round" stroke-linejoin="round"/>
<path d="M10.1406 11.0279L12.4219 9.65918" stroke="#5C89F7" stroke-linecap="round" stroke-linejoin="round"/>
<path d="M10.2427 12.272L12.3202 13.1032" stroke="#5C89F7" stroke-linecap="round" stroke-linejoin="round"/>
<path d="M5.65625 13.1562H1.90625C1.65761 13.1562 1.41915 13.0575 1.24334 12.8817C1.06752 12.7058 0.96875 12.4674 0.96875 12.2188V1.90625C0.96875 1.65761 1.06752 1.41915 1.24334 1.24334C1.41915 1.06752 1.65761 0.96875 1.90625 0.96875H8.54937C8.79784 0.968803 9.03613 1.06749 9.21187 1.24313L11.0069 3.03813C11.1825 3.21387 11.2812 3.45216 11.2812 3.70062V5.65625" stroke="#5C89F7" stroke-linecap="round" stroke-linejoin="round"/>
</g>
<defs>
<clipPath id="clip0_4336_91857">
<rect width="16" height="16" fill="white"/>
</clipPath>
</defs>
</svg>
