<svg width="14" height="14" viewBox="0 0 14 14" fill="none" xmlns="http://www.w3.org/2000/svg">
<path fill-rule="evenodd" clip-rule="evenodd" d="M0.45138 1.24006C0.728247 1.00058 1.09132 0.875 1.4585 0.875H4.49347C4.86066 0.875 5.22373 1.00058 5.5006 1.24006C5.77953 1.48133 5.95192 1.82406 5.95192 2.19823V2.62512H12.5867C12.9539 2.62512 13.317 2.7507 13.5939 2.99019C13.9153 3.26821 14 3.6376 14 3.94836V11.7144C13.9941 12.0807 13.8356 12.4204 13.5744 12.6744C13.3147 12.927 12.9694 13.0809 12.6063 13.1221C12.5896 13.124 12.5728 13.125 12.556 13.125L1.44403 13.125C1.42724 13.125 1.41045 13.1241 1.39376 13.1222C1.03063 13.0809 0.685362 12.927 0.42567 12.6745C0.164429 12.4205 0.00596785 12.0808 0.000114725 11.7144L0 11.7072L5.73805e-05 2.19823C5.73805e-05 1.82406 0.172447 1.48133 0.45138 1.24006ZM1.4585 1.77134C1.28907 1.77134 1.13751 1.83015 1.03493 1.91888C0.934419 2.00582 0.893638 2.10825 0.893638 2.19823V11.703C0.896182 11.8123 0.943554 11.9297 1.04762 12.0309C1.14977 12.1302 1.29829 12.2044 1.47183 12.2287L12.5282 12.2286C12.7018 12.2043 12.8503 12.1302 12.9524 12.0308C13.0565 11.9297 13.1039 11.8123 13.1064 11.7029V3.94836C13.1064 3.79495 13.0683 3.71919 13.0103 3.669C12.9077 3.58027 12.7562 3.52146 12.5867 3.52146H5.50513C5.25838 3.52146 5.05834 3.32081 5.05834 3.07329V2.19823C5.05834 2.10825 5.01756 2.00582 4.91705 1.91888C4.81447 1.83015 4.66291 1.77134 4.49347 1.77134H1.4585Z" fill="#666666"/>
</svg>
