<svg width="16" height="16" viewBox="0 0 16 16" fill="none" xmlns="http://www.w3.org/2000/svg">
<path fill-rule="evenodd" clip-rule="evenodd" d="M6.52334 1.00575C5.73511 1.07623 5.08259 1.22518 4.43295 1.48292C3.50621 1.8506 2.65906 2.41674 1.97288 3.12701C0.493038 4.6588 -0.212667 6.77948 0.0561518 8.88685C0.351574 11.2028 1.7731 13.2133 3.85453 14.259C4.81695 14.7425 5.82619 14.9952 6.81232 14.9996C7.14466 15.0011 7.16418 14.9994 7.2338 14.9622C7.34588 14.9023 7.4356 14.8121 7.48639 14.7082C7.54779 14.5827 7.55115 14.3978 7.49436 14.2699C7.43447 14.135 7.29775 14.0104 7.16564 13.9702C7.13492 13.9609 6.95681 13.9465 6.76982 13.9383C5.63854 13.8883 4.59184 13.5436 3.66754 12.9166C3.01799 12.476 2.41732 11.8574 2.00058 11.1999C1.20716 9.94826 0.909678 8.48454 1.15198 7.02448C1.32132 6.00407 1.73159 5.08807 2.38944 4.26153C2.56323 4.04317 3.05435 3.55396 3.28507 3.36938C4.13459 2.68972 5.13493 2.26326 6.24286 2.10846C6.51613 2.07027 7.20256 2.05638 7.515 2.08271C8.70228 2.18275 9.82976 2.64142 10.773 3.40809C11.0103 3.60092 11.4435 4.03687 11.6288 4.26918C12.237 5.0318 12.6362 5.88775 12.8306 6.84589C12.8581 6.98153 12.8807 7.10383 12.8807 7.11766C12.8808 7.13151 12.638 6.90078 12.3412 6.60496C11.9951 6.26009 11.774 6.05273 11.725 6.02708C11.6603 5.99327 11.6235 5.98709 11.487 5.98709C11.302 5.98709 11.2294 6.01514 11.113 6.13156C11.0125 6.23212 10.9726 6.32324 10.964 6.47172C10.9581 6.57426 10.9641 6.61928 10.9945 6.70132C11.0306 6.79886 11.0785 6.84977 12.0798 7.85436C12.656 8.43239 13.1618 8.92724 13.2039 8.95401C13.3534 9.04917 13.5655 9.0572 13.7259 8.97379C13.7627 8.95464 14.2507 8.47825 14.8635 7.86331C16.0587 6.66386 16.0014 6.73277 15.9989 6.49723C15.9959 6.21246 15.7882 5.9957 15.5042 5.98116C15.2611 5.96869 15.2812 5.95411 14.5884 6.64423L13.9757 7.25468L13.9459 7.03754C13.672 5.03817 12.5261 3.23367 10.8288 2.12883C9.9121 1.53218 8.92794 1.1771 7.80037 1.03622C7.59545 1.01061 6.70616 0.989384 6.52334 1.00575Z" fill="#5C89F7"/>
</svg>
