<svg width="16" height="16" viewBox="0 0 16 16" fill="none" xmlns="http://www.w3.org/2000/svg">
<path fill-rule="evenodd" clip-rule="evenodd" d="M7.53284 0.00559737C6.65353 0.0911592 5.98878 0.281699 5.24802 0.660448C4.87726 0.850018 4.56624 1.05237 4.22027 1.32908C4.00176 1.50386 3.50936 1.9971 3.33467 2.21618C2.88162 2.78438 2.54888 3.38357 2.31749 4.04793C2.1865 4.42403 2.05296 5.03608 2.02643 5.38195L2.01549 5.52437L1.96272 5.53565C1.75648 5.57977 1.41676 5.71817 1.22197 5.83746C0.62927 6.20042 0.193488 6.81358 0.0585221 7.47445C0.00837489 7.72001 0 7.93803 0 8.99748C0 10.2846 0.0116874 10.4374 0.138466 10.8098C0.424876 11.651 1.1305 12.2757 2.01384 12.4703C2.15754 12.5019 2.2517 12.5084 2.66667 12.5153C3.21462 12.5244 3.31453 12.5132 3.63309 12.4067C4.16898 12.2275 4.4687 11.9673 4.53408 11.6244C4.56253 11.4753 4.55068 6.37471 4.52168 6.29076C4.47868 6.16627 4.36927 6.01083 4.25851 5.91692C4.03832 5.73017 3.62263 5.55391 3.26751 5.49668C3.13121 5.47473 3.0906 5.46212 3.0906 5.44178C3.09061 5.37916 3.16312 4.97807 3.20282 4.82097C3.5127 3.59499 4.23165 2.57766 5.2869 1.87196C5.86072 1.48823 6.57846 1.21301 7.27083 1.11123C8.51117 0.928892 9.77551 1.2225 10.8029 1.9315C11.9049 2.69196 12.66 3.8845 12.8749 5.20385C12.8939 5.3202 12.9094 5.42727 12.9094 5.44178C12.9094 5.46212 12.8688 5.47473 12.7325 5.49668C12.3774 5.55391 11.9617 5.73017 11.7415 5.91692C11.6307 6.01083 11.5213 6.16627 11.4783 6.29076C11.4498 6.37345 11.4374 11.475 11.4654 11.622C11.5183 11.8991 11.6946 12.0976 12.0444 12.2739C12.2948 12.4 12.7061 12.52 12.888 12.52H12.9478L12.9358 12.6264C12.9144 12.8164 12.8753 12.9507 12.791 13.1241C12.6442 13.426 12.4215 13.6492 12.1195 13.7971C11.8398 13.9341 11.8203 13.9369 11.0812 13.9449L10.4336 13.9519L10.3813 13.84C10.1841 13.4179 9.80838 13.1091 9.35051 12.9928C9.19847 12.9542 9.19101 12.9539 8 12.9539C6.81481 12.9539 6.80083 12.9543 6.65287 12.9921C6.06576 13.142 5.63017 13.5909 5.5102 14.1695C5.47157 14.3558 5.47511 14.6413 5.51829 14.8234C5.64875 15.3737 6.03169 15.7792 6.58514 15.9531L6.73443 16H8H9.26557L9.41804 15.9515C9.86141 15.8104 10.2132 15.5066 10.3857 15.1158L10.4274 15.0215L10.9507 15.0212C11.5063 15.021 11.7917 15.0046 12.0022 14.9611C12.3162 14.8961 12.6917 14.7291 12.9636 14.5333C13.1396 14.4067 13.3998 14.146 13.5263 13.9697C13.8031 13.5837 13.9913 13.0555 13.9983 12.6444C14.0009 12.495 14.0138 12.4646 14.0821 12.4482C14.8906 12.2548 15.5882 11.6125 15.8615 10.8098C15.9883 10.4374 16 10.2846 16 8.99748C16 7.93803 15.9916 7.72001 15.9415 7.47445C15.8098 6.82956 15.3809 6.2155 14.812 5.85747C14.6191 5.73606 14.2848 5.5947 14.0712 5.54426L13.9845 5.52377L13.9737 5.38449C13.9575 5.17569 13.9011 4.84971 13.8333 4.57304C13.4632 3.06302 12.531 1.76649 11.2022 0.913849C10.9851 0.774581 10.5481 0.549939 10.2804 0.440009C9.79866 0.242203 9.3218 0.114694 8.77293 0.0369258C8.59523 0.0117406 7.70165 -0.0108411 7.53284 0.00559737ZM2.28369 6.5589C2.01761 6.59425 1.71676 6.75259 1.49655 6.97316C1.35975 7.11022 1.27631 7.22976 1.19643 7.40312C1.07263 7.67185 1.07757 7.60552 1.07757 8.99748C1.07757 10.4173 1.06972 10.3281 1.22214 10.6396C1.39371 10.9903 1.69315 11.2524 2.07134 11.3827L2.23273 11.4383L2.65784 11.4446C3.1086 11.4512 3.1656 11.4447 3.38985 11.3607L3.48131 11.3264V8.99799V6.6696L3.35815 6.62598C3.2904 6.60201 3.20441 6.57445 3.16704 6.56479C3.10347 6.54835 2.39852 6.54364 2.28369 6.5589ZM12.8245 6.56521C12.7918 6.57444 12.7096 6.6017 12.6418 6.6258L12.5187 6.6696V8.99799V11.3264L12.6102 11.3607C12.8344 11.4447 12.8914 11.4512 13.3422 11.4446L13.7673 11.4383L13.9287 11.3827C14.3069 11.2524 14.6063 10.9903 14.7779 10.6396C14.9303 10.3281 14.9224 10.4173 14.9224 8.99748C14.9224 7.57707 14.9302 7.66511 14.7776 7.35533C14.6264 7.04853 14.3536 6.7863 14.0552 6.66102C13.8203 6.56242 13.7974 6.55904 13.3256 6.55356C13.0698 6.5506 12.8589 6.5555 12.8245 6.56521ZM6.86029 14.044C6.75965 14.075 6.63729 14.1835 6.58811 14.2852C6.50268 14.462 6.55805 14.7146 6.70835 14.8339C6.85572 14.9508 6.78785 14.9449 8 14.9449C9.21215 14.9449 9.14428 14.9508 9.29165 14.8339C9.44196 14.7146 9.49732 14.462 9.41189 14.2852C9.36081 14.1795 9.2403 14.075 9.1326 14.043C9.00938 14.0063 6.97942 14.0072 6.86029 14.044Z" fill="#9F9F9F"/>
</svg>
