<svg width="14" height="12" viewBox="0 0 14 12" fill="none" xmlns="http://www.w3.org/2000/svg">
<path d="M4.43262 0.890137C5.17363 0.890137 5.88419 1.18668 6.40723 1.71338C6.93002 2.23993 7.22263 2.95349 7.22266 3.69678C7.22266 4.44005 6.92999 5.15361 6.40723 5.68018C6.04853 6.04138 5.60049 6.2903 5.11621 6.41357C6.00082 6.55727 6.82471 6.977 7.46582 7.62256C8.26952 8.43188 8.72068 9.52912 8.7207 10.6724C8.7207 10.7883 8.67472 10.8999 8.59277 10.9819C8.51078 11.0639 8.39915 11.1098 8.2832 11.1099H0.583008C0.466976 11.1099 0.355485 11.064 0.273438 10.9819C0.191409 10.8999 0.145508 10.7884 0.145508 10.6724C0.145532 9.52912 0.59669 8.43188 1.40039 7.62256C2.04127 6.97728 2.8648 6.55837 3.74902 6.41455C3.26481 6.29126 2.81765 6.04134 2.45898 5.68018C1.93605 5.15358 1.64258 4.44019 1.64258 3.69678C1.6426 2.9534 1.93607 2.23995 2.45898 1.71338C2.98197 1.18678 3.69172 0.890192 4.43262 0.890137ZM10.5293 3.04248C11.1143 3.04248 11.6752 3.27634 12.0879 3.69189C12.5005 4.10741 12.7314 4.671 12.7314 5.25732C12.7314 5.8435 12.5004 6.40634 12.0879 6.82178C11.8213 7.09019 11.4923 7.28048 11.1357 7.3833C11.793 7.50589 12.4031 7.82608 12.8818 8.30811C13.505 8.93561 13.8544 9.78624 13.8545 10.6724C13.8545 10.914 13.6586 11.1099 13.417 11.1099H10.0312C9.78963 11.1099 9.59375 10.914 9.59375 10.6724C9.5939 10.4309 9.78972 10.2349 10.0312 10.2349H12.9404C12.8523 9.74171 12.6169 9.28394 12.2607 8.92529C11.801 8.46238 11.1781 8.20264 10.5293 8.20264C10.1872 8.20268 9.85239 8.27459 9.54492 8.41064C9.32404 8.50841 9.06563 8.4088 8.96777 8.18799C8.87001 7.96711 8.96963 7.70871 9.19043 7.61084C9.42489 7.50706 9.67155 7.43142 9.9248 7.38428C9.56766 7.28159 9.2386 7.09051 8.97168 6.82178C8.55912 6.40633 8.32723 5.84354 8.32715 5.25732C8.32715 4.671 8.55905 4.10741 8.97168 3.69189C9.38432 3.27655 9.94453 3.04254 10.5293 3.04248ZM4.43262 7.23291C3.52869 7.23301 2.6616 7.59515 2.02148 8.23975C1.48432 8.78066 1.14348 9.48326 1.04785 10.2349H7.81738C7.72175 9.48335 7.3818 8.78063 6.84473 8.23975C6.20452 7.59506 5.33668 7.23291 4.43262 7.23291ZM10.5293 3.91748C10.1784 3.91754 9.84085 4.05828 9.5918 4.30908C9.34279 4.56001 9.20215 4.90127 9.20215 5.25732C9.20223 5.61341 9.34267 5.95468 9.5918 6.20557C9.84085 6.45637 10.1784 6.59613 10.5293 6.59619C10.8802 6.59619 11.2177 6.4563 11.4668 6.20557C11.7159 5.95468 11.8564 5.61343 11.8564 5.25732C11.8564 4.90115 11.716 4.56003 11.4668 4.30908C11.2177 4.05823 10.8803 3.91748 10.5293 3.91748ZM4.43262 1.76514C3.92589 1.76519 3.43942 1.96794 3.08008 2.32959C2.72057 2.69161 2.5176 3.1835 2.51758 3.69678C2.51758 4.21008 2.72055 4.70193 3.08008 5.06396C3.43942 5.42568 3.92585 5.62836 4.43262 5.62842C4.93959 5.62842 5.42671 5.4259 5.78613 5.06396C6.14566 4.70193 6.34766 4.21008 6.34766 3.69678C6.34763 3.1835 6.14564 2.69161 5.78613 2.32959C5.42672 1.96771 4.93955 1.76514 4.43262 1.76514Z" fill="black" fill-opacity="0.89"/>
</svg>
