<svg width="14" height="14" viewBox="0 0 14 14" fill="none" xmlns="http://www.w3.org/2000/svg">
<path fill-rule="evenodd" clip-rule="evenodd" d="M6.58387 0.0114544C4.74198 0.112456 2.98577 0.968748 1.75184 2.36748C0.341415 3.96628 -0.25533 6.07341 0.100712 8.19766C0.359114 9.73934 1.17434 11.1964 2.3674 12.2489C3.254 13.031 4.31307 13.5733 5.46096 13.8331C6.45578 14.0581 7.56972 14.0555 8.56882 13.8258C9.8764 13.5251 11.0523 12.8644 11.9985 11.8987C12.7659 11.1155 13.2703 10.2917 13.6456 9.20902C14.0422 8.06501 14.1087 6.67982 13.8267 5.43774C13.5768 4.33701 13.0394 3.27675 12.2969 2.41954C12.1464 2.24587 11.8135 1.91101 11.6332 1.75193C11.1406 1.31731 10.6219 0.972318 10.0418 0.693317C8.9565 0.171353 7.80582 -0.055548 6.58387 0.0114544ZM6.46488 0.955868C6.34627 0.966934 6.20907 0.981212 6.15999 0.987592L6.07075 0.999178L6.0018 1.10329C5.74669 1.48845 5.45814 2.16428 5.26724 2.8237C5.18605 3.1042 5.09658 3.44546 5.09658 3.47465C5.09658 3.48564 5.67094 3.49039 7.00031 3.49039C8.46703 3.49039 8.90404 3.48631 8.90404 3.47262C8.90404 3.42474 8.67619 2.60497 8.62788 2.47903C8.61689 2.4504 8.57679 2.34019 8.53877 2.23413C8.39476 1.83242 8.16924 1.36001 7.99893 1.10329C7.93019 0.999669 7.92948 0.999134 7.84806 0.988619C7.40803 0.931834 6.86101 0.91888 6.46488 0.955868ZM4.74706 1.36379C4.7307 1.37099 4.66712 1.398 4.60577 1.42381C4.089 1.64127 3.52374 1.99117 3.07923 2.3687C2.89029 2.52918 2.54354 2.87583 2.38122 3.06651C2.23127 3.24267 2.06269 3.46106 2.06258 3.47934C2.06254 3.48552 2.52908 3.48887 3.09934 3.48677L4.13616 3.48295L4.149 3.42346C4.29295 2.75616 4.55196 1.92961 4.76768 1.44908C4.81276 1.34866 4.80975 1.33621 4.74706 1.36379ZM9.22614 1.43421C9.45367 1.94782 9.70542 2.74859 9.85158 3.42346L9.86446 3.48295L10.9013 3.48677C11.4715 3.48887 11.9381 3.48552 11.938 3.47934C11.9379 3.46109 11.7691 3.24277 11.6188 3.06651C11.2585 2.64412 10.7948 2.23366 10.3357 1.93079C10.0823 1.76362 9.69156 1.55013 9.4469 1.4452C9.33422 1.39688 9.2107 1.34869 9.19949 1.34869C9.19332 1.34869 9.2053 1.38718 9.22614 1.43421ZM1.4584 4.52687C1.32187 4.82647 1.18823 5.21779 1.10384 5.56516C1.031 5.86497 0.999332 6.05567 0.953792 6.46876L0.945998 6.53948L2.36316 6.53569L3.78033 6.5319L3.79056 6.27162C3.8028 5.96023 3.82575 5.61885 3.85555 5.30488C3.87877 5.06034 3.94745 4.50218 3.96125 4.44597L3.96946 4.41251H2.74H1.51051L1.4584 4.52687ZM4.91324 4.42362C4.90382 4.43941 4.86437 4.70472 4.82976 4.98511C4.7773 5.40993 4.73066 6.0034 4.72163 6.36086L4.71732 6.5319H7.00031H9.2833L9.27897 6.36829C9.26546 5.85777 9.18485 4.98888 9.10856 4.53149L9.08995 4.41994L7.00493 4.41618C5.85817 4.4141 4.91691 4.41745 4.91324 4.42362ZM10.0394 4.44597C10.0531 4.50198 10.1218 5.05987 10.1451 5.30488C10.1735 5.60298 10.1974 5.96182 10.2102 6.27906L10.2203 6.5319L11.6375 6.53569L13.0546 6.53948L13.0468 6.46876C13.0013 6.05567 12.9696 5.86497 12.8968 5.56516C12.8124 5.21779 12.6787 4.82647 12.5422 4.52687L12.4901 4.41251H11.2606H10.0312L10.0394 4.44597ZM0.953807 7.5321C0.999303 7.94495 1.03101 8.13583 1.10384 8.43563C1.18823 8.783 1.32187 9.17432 1.4584 9.47392L1.51051 9.58828H2.73094C3.76023 9.58828 3.95136 9.58505 3.95136 9.56769C3.95136 9.55637 3.93804 9.44728 3.92177 9.32528C3.85659 8.83681 3.80939 8.2793 3.79483 7.82584C3.79008 7.6786 3.78291 7.53638 3.77888 7.50979L3.77154 7.46145H2.35877H0.946013L0.953807 7.5321ZM4.71712 7.63621C4.75535 8.42612 4.82556 9.16886 4.89779 9.54737L4.90559 9.58828H6.99997H9.09434L9.11146 9.48991C9.18352 9.07611 9.24681 8.39413 9.28349 7.63621L9.29195 7.46145H7.00031H4.70866L4.71712 7.63621ZM10.2215 7.49492C10.2178 7.51331 10.2107 7.65822 10.2059 7.81693C10.1921 8.26594 10.1441 8.83592 10.079 9.32401C10.0627 9.44672 10.0493 9.55637 10.0493 9.56769C10.0493 9.58505 10.2404 9.58828 11.2697 9.58828H12.4901L12.5422 9.47392C12.6787 9.17432 12.8124 8.783 12.8968 8.43563C12.9696 8.13583 13.0013 7.94495 13.0468 7.5321L13.0546 7.46145H11.6414H10.2283L10.2215 7.49492ZM2.06258 10.5215C2.06261 10.5277 2.10308 10.5862 2.15249 10.6517C2.5556 11.1855 3.10455 11.7003 3.66488 12.07C3.9183 12.2372 4.30906 12.4507 4.55372 12.5556C4.67859 12.6091 4.78956 12.6517 4.79363 12.6477C4.79595 12.6453 4.75866 12.5495 4.71076 12.4348C4.50516 11.9423 4.29888 11.2773 4.15883 10.6554L4.12617 10.5104H3.09434C2.52684 10.5104 2.06254 10.5154 2.06258 10.5215ZM5.10147 10.5736C5.13159 10.7865 5.36771 11.5583 5.52352 11.9531C5.66521 12.3121 5.88414 12.7535 6.03097 12.9764C6.05676 13.0155 6.61379 13.0684 7.00031 13.0684C7.38682 13.0684 7.94386 13.0155 7.96965 12.9764C7.97667 12.9657 8.02956 12.8752 8.08716 12.7752C8.37345 12.2784 8.62352 11.6353 8.82323 10.8825C8.86767 10.715 8.90404 10.5627 8.90404 10.5442V10.5104H6.99829H5.09253L5.10147 10.5736ZM9.84179 10.6554C9.70053 11.2827 9.48248 11.9816 9.27614 12.4684C9.23548 12.5644 9.20425 12.6449 9.20672 12.6474C9.2092 12.6499 9.25086 12.636 9.29932 12.6165C9.63348 12.4822 10.0191 12.2789 10.3357 12.07C10.7948 11.7671 11.2585 11.3567 11.6188 10.9343C11.7687 10.7584 11.9379 10.5397 11.938 10.5215C11.9381 10.5154 11.4738 10.5104 10.9063 10.5104H9.87445L9.84179 10.6554Z" fill="#9F9F9F"/>
</svg>
