<svg width="16" height="16" viewBox="0 0 16 16" fill="none" xmlns="http://www.w3.org/2000/svg">
<path fill-rule="evenodd" clip-rule="evenodd" d="M3.35201 0.790991C2.86482 0.882671 2.49106 1.14058 2.24932 1.55189C2.12532 1.76286 2.05178 1.97312 2.00869 2.23989C1.98695 2.37443 1.98413 3.03664 1.98407 8.0083C1.98402 11.8031 1.98941 13.6687 2.00066 13.7603C2.05789 14.2261 2.27029 14.6111 2.60937 14.8636C2.84245 15.0371 3.12273 15.1563 3.41937 15.208C3.62247 15.2434 5.10564 15.2428 5.29825 15.2072C5.63682 15.1446 5.88101 15.0236 6.11594 14.802C6.38788 14.5454 6.55708 14.22 6.63653 13.8008C6.66217 13.6656 6.66401 13.2771 6.66401 7.98389C6.66401 3.32598 6.66018 2.28765 6.6426 2.17627C6.53484 1.49349 6.08996 1.01704 5.37601 0.819807L5.22401 0.777807L4.34401 0.773855C3.66945 0.770831 3.43786 0.774831 3.35201 0.790991ZM10.664 0.800063C10.3382 0.866751 10.1136 0.981311 9.88407 1.19782C9.61271 1.45381 9.44255 1.77963 9.36458 2.19251C9.33748 2.33606 9.33601 2.63722 9.33601 8.01589C9.33601 12.6738 9.33983 13.7121 9.35741 13.8235C9.4657 14.5096 9.91554 14.9887 10.632 15.181L10.792 15.2239L11.712 15.2238L12.632 15.2236L12.7899 15.1793C13.0689 15.101 13.3482 14.9401 13.5225 14.7572C13.6866 14.5851 13.851 14.2962 13.9264 14.0476C14.0213 13.7346 14.0158 14.1031 14.0159 7.98389C14.0159 3.99378 14.0108 2.33435 13.9983 2.23189C13.9543 1.87344 13.8096 1.5527 13.5765 1.29723C13.424 1.13018 13.1061 0.937503 12.8507 0.857407C12.5809 0.772767 12.5115 0.767775 11.6259 0.769231C10.8975 0.770431 10.7922 0.773807 10.664 0.800063ZM3.55226 1.77819C3.26916 1.81984 3.10415 1.9825 3.02297 2.29998C2.99265 2.41853 2.99201 2.53621 2.99225 8.03045C2.9925 14.1505 2.98647 13.7508 3.08106 13.9122C3.16977 14.0636 3.34039 14.1675 3.58017 14.2161C3.69129 14.2386 3.80804 14.2414 4.41074 14.2363C5.07823 14.2306 5.11701 14.2286 5.21609 14.1956C5.39799 14.1351 5.5106 14.0261 5.58426 13.8392C5.66868 13.6251 5.66402 13.9675 5.66388 7.98685C5.6638 4.2927 5.65831 2.40629 5.64745 2.3393C5.59933 2.04282 5.45852 1.89157 5.14401 1.7985C5.05945 1.77347 4.96513 1.76966 4.35201 1.76651C3.96921 1.76454 3.60932 1.76979 3.55226 1.77819ZM10.9112 1.77686C10.6248 1.81902 10.4674 1.96674 10.3721 2.28264C10.3456 2.3707 10.3438 2.68589 10.3397 7.95989C10.3367 11.7251 10.3406 13.5789 10.3517 13.6515C10.398 13.9544 10.5383 14.1074 10.856 14.2012C10.9394 14.2259 11.0392 14.2304 11.6159 14.2357C12.3341 14.2424 12.4955 14.2317 12.6339 14.1688C12.8047 14.0912 12.9156 13.9401 12.9764 13.7024C13.0076 13.5804 13.008 13.5032 13.008 7.96824C13.008 2.58917 13.0068 2.35315 12.9788 2.2468C12.9282 2.05453 12.8287 1.93667 12.6478 1.85461C12.4565 1.76787 12.3688 1.7597 11.6527 1.76184C11.2937 1.76291 10.9601 1.76968 10.9112 1.77686Z" fill="#FD8C3D"/>
</svg>
