<svg width="16" height="16" viewBox="0 0 16 16" fill="none" xmlns="http://www.w3.org/2000/svg">
<path fill-rule="evenodd" clip-rule="evenodd" d="M3.35231 0.791113C2.86513 0.882793 2.49137 1.1407 2.24962 1.55201C2.12562 1.76299 2.05209 1.97324 2.009 2.24001C1.98726 2.37455 1.98444 3.03676 1.98438 8.00843C1.98433 11.8033 1.98972 13.6688 2.00097 13.7604C2.0582 14.2263 2.2706 14.6112 2.60967 14.8637C2.84276 15.0372 3.12303 15.1564 3.41967 15.2082C3.62278 15.2436 5.10594 15.2429 5.29855 15.2073C5.63713 15.1447 5.88132 15.0237 6.11625 14.8021C6.38818 14.5455 6.55738 14.2202 6.63684 13.8009C6.66247 13.6657 6.66431 13.2773 6.66431 7.98401C6.66431 3.32611 6.66049 2.28777 6.6429 2.17639C6.53514 1.49361 6.09026 1.01716 5.37631 0.819929L5.22431 0.777929L4.34431 0.773977C3.66975 0.770953 3.43817 0.774953 3.35231 0.791113ZM10.6643 0.800185C10.3385 0.866873 10.1139 0.981433 9.88438 1.19795C9.61302 1.45393 9.44286 1.77975 9.36489 2.19263C9.33778 2.33619 9.33631 2.63734 9.33631 8.01601C9.33631 12.6739 9.34014 13.7122 9.35772 13.8236C9.46601 14.5097 9.91585 14.9888 10.6323 15.1811L10.7923 15.224L11.7123 15.2239L12.6323 15.2238L12.7902 15.1794C13.0692 15.1011 13.3485 14.9402 13.5228 14.7574C13.6869 14.5852 13.8513 14.2963 13.9267 14.0477C14.0216 13.7347 14.0161 14.1033 14.0162 7.98401C14.0162 3.9939 14.0111 2.33447 13.9986 2.23201C13.9546 1.87356 13.8099 1.55283 13.5768 1.29735C13.4243 1.1303 13.1064 0.937625 12.851 0.857529C12.5812 0.772889 12.5118 0.767897 11.6262 0.769353C10.8978 0.770553 10.7926 0.773929 10.6643 0.800185ZM3.55257 1.77831C3.26946 1.81996 3.10446 1.98262 3.02327 2.30011C2.99295 2.41865 2.99231 2.53633 2.99255 8.03057C2.99281 14.1506 2.98678 13.751 3.08137 13.9124C3.17007 14.0637 3.3407 14.1676 3.58047 14.2162C3.69159 14.2387 3.80834 14.2415 4.41105 14.2364C5.07854 14.2307 5.11732 14.2287 5.21639 14.1958C5.3983 14.1353 5.5109 14.0262 5.58457 13.8394C5.66898 13.6252 5.66433 13.9676 5.66418 7.98697C5.6641 4.29283 5.65862 2.40641 5.64775 2.33942C5.59964 2.04294 5.45882 1.89169 5.14431 1.79862C5.05975 1.77359 4.96543 1.76979 4.35231 1.76663C3.96951 1.76467 3.60962 1.76991 3.55257 1.77831ZM10.9115 1.77699C10.6251 1.81915 10.4677 1.96686 10.3724 2.28276C10.3459 2.37083 10.3441 2.68601 10.34 7.96001C10.337 11.7252 10.341 13.5791 10.352 13.6516C10.3983 13.9546 10.5386 14.1075 10.8563 14.2014C10.9397 14.226 11.0395 14.2305 11.6162 14.2358C12.3344 14.2425 12.4958 14.2319 12.6342 14.1689C12.805 14.0913 12.9159 13.9402 12.9767 13.7025C13.0079 13.5806 13.0083 13.5033 13.0083 7.96836C13.0083 2.58929 13.0071 2.35327 12.9791 2.24692C12.9285 2.05465 12.829 1.93679 12.6481 1.85473C12.4568 1.76799 12.3691 1.75982 11.653 1.76196C11.294 1.76303 10.9604 1.7698 10.9115 1.77699Z" fill="#666666"/>
</svg>
