<svg width="16" height="16" viewBox="0 0 16 16" fill="none" xmlns="http://www.w3.org/2000/svg">
<path fill-rule="evenodd" clip-rule="evenodd" d="M1.91187 0.00801889C1.42985 0.0589933 0.95986 0.345697 0.703634 0.745052C0.549319 0.985549 0.472931 1.1965 0.437335 1.48029C0.411513 1.6863 0.411513 14.3185 0.437335 14.5245C0.484803 14.9029 0.628582 15.2129 0.882675 15.4846C1.19685 15.8204 1.62281 16.0012 2.09736 16C2.37665 15.9993 2.59954 15.9461 2.84972 15.8205C3.24969 15.6197 14.7399 9.45558 14.8531 9.38105C15.248 9.12122 15.5238 8.65984 15.5741 8.17499C15.6371 7.56676 15.3512 6.95143 14.8531 6.62372C14.7389 6.54854 3.23093 0.375024 2.8579 0.188804C2.76608 0.142968 2.64921 0.0922899 2.5982 0.0762259C2.39392 0.0118029 2.12689 -0.014723 1.91187 0.00801889ZM1.9242 1.19295C1.79426 1.23782 1.67285 1.35676 1.62416 1.48691C1.58756 1.58474 1.58725 1.6413 1.58725 8.00238C1.58725 14.4072 1.58732 14.4194 1.62494 14.5199C1.70706 14.7394 1.94143 14.8741 2.16785 14.832C2.25765 14.8153 3.30778 14.2594 8.21996 11.6279C11.4888 9.8767 14.1948 8.42114 14.2332 8.3933C14.2716 8.36547 14.3281 8.29742 14.3587 8.2421C14.4066 8.15544 14.4143 8.12223 14.4143 8.00238C14.4143 7.88125 14.4069 7.85007 14.357 7.76124C14.3172 7.69043 14.2689 7.6384 14.1993 7.59123C14.0174 7.46793 2.30458 1.20659 2.20925 1.18166C2.0885 1.15008 2.04312 1.15188 1.9242 1.19295Z" fill="#666666"/>
</svg>
