<svg width="16" height="16" viewBox="0 0 16 16" fill="none" xmlns="http://www.w3.org/2000/svg">
<path fill-rule="evenodd" clip-rule="evenodd" d="M12.2976 0.533061C11.3539 0.678825 10.5468 1.21666 10.032 2.04293C9.65679 2.64502 9.49077 3.42875 9.58607 4.14787C9.6006 4.25746 9.60902 4.3506 9.60479 4.35486C9.60055 4.3591 8.78257 4.68104 7.78704 5.07028C6.12736 5.71919 5.9751 5.77535 5.9541 5.74654C5.94151 5.72926 5.87138 5.63317 5.79827 5.53301C5.06935 4.53444 3.78686 4.04528 2.55828 4.29726C1.48712 4.51696 0.563211 5.32007 0.189726 6.3561C0.0553346 6.72888 -0.000126738 7.05554 2.17426e-07 7.47342C0.000272265 8.33568 0.312782 9.10502 0.915675 9.7276C1.52595 10.3578 2.33407 10.6982 3.21895 10.6978C4.03254 10.6975 4.7342 10.4296 5.36756 9.87742C5.47753 9.78156 5.70822 9.53315 5.77137 9.44264L5.80054 9.40081L7.74428 10.3767C9.34317 11.1795 9.68639 11.3582 9.67886 11.384C9.60724 11.6288 9.55896 11.9861 9.55896 12.2712C9.55896 12.8595 9.73213 13.4772 10.032 13.9584C10.4621 14.6487 11.0909 15.1348 11.8541 15.3671C12.1409 15.4544 12.3444 15.4863 12.6875 15.498C13.5869 15.5285 14.4119 15.2007 15.0554 14.5572C15.6753 13.9372 15.9987 13.1498 15.9984 12.2612C15.9982 11.3835 15.6773 10.6084 15.0557 9.98431C14.4302 9.35625 13.6647 9.03871 12.7759 9.03871C11.9583 9.03871 11.2518 9.31025 10.6222 9.86646C10.5058 9.96926 10.2896 10.2024 10.2259 10.2937C10.1979 10.3338 10.1953 10.3325 8.25417 9.35794C6.65527 8.55515 6.31206 8.37645 6.31958 8.35069C6.40669 8.05287 6.44596 7.71208 6.43334 7.36326C6.42773 7.20801 6.41362 7.02935 6.402 6.96623C6.39039 6.90313 6.38386 6.84888 6.38751 6.84567C6.40122 6.83369 9.96859 5.44447 10.0033 5.4376C10.0293 5.43247 10.0495 5.4476 10.0745 5.49082C10.2063 5.71853 10.559 6.10172 10.8198 6.30062C11.3995 6.74262 12.0495 6.96261 12.7759 6.96261C13.6638 6.96261 14.4309 6.64442 15.0557 6.01702C15.4136 5.65767 15.6568 5.27326 15.8229 4.80455C16.025 4.23432 16.0563 3.52611 15.9056 2.93346C15.614 1.78659 14.699 0.873269 13.5581 0.5903C13.1763 0.495618 12.6846 0.473291 12.2976 0.533061ZM12.3617 1.68071C11.5142 1.86574 10.8737 2.53035 10.7273 3.37652C10.6844 3.62476 10.6994 4.01538 10.7609 4.25009C10.8601 4.62889 11.0426 4.94262 11.3269 5.22342C11.6828 5.57484 12.0851 5.7634 12.5878 5.81436C13.0844 5.8647 13.5892 5.72605 14.0104 5.42365C14.1647 5.31289 14.4171 5.04771 14.5189 4.88938C14.8434 4.3846 14.9454 3.77927 14.8011 3.21437C14.6126 2.47666 14.0588 1.91646 13.3107 1.70699C13.0727 1.64032 12.6059 1.6274 12.3617 1.68071ZM2.8422 5.4073C1.78425 5.59923 1.03869 6.58875 1.14314 7.66233C1.1778 8.0186 1.30626 8.37299 1.50573 8.66276C1.60816 8.81154 1.84189 9.05212 1.99605 9.16745C2.13291 9.26983 2.46264 9.42877 2.64969 9.48253C3.16268 9.62993 3.74981 9.5624 4.22431 9.30141C4.71933 9.02913 5.10223 8.52657 5.24362 7.96353C5.29817 7.74625 5.3112 7.34174 5.2711 7.10987C5.12165 6.2457 4.43736 5.55565 3.58123 5.40573C3.38779 5.37186 3.0334 5.37261 2.8422 5.4073ZM12.5605 10.1871C12.0859 10.2389 11.6721 10.437 11.3269 10.7779C11.0426 11.0587 10.8601 11.3724 10.7609 11.7512C10.6994 11.9859 10.6844 12.3766 10.7273 12.6248C10.8772 13.4911 11.5458 14.1665 12.4155 14.33C12.6548 14.375 13.0798 14.3586 13.3041 14.2958C14.3134 14.013 14.9563 13.0913 14.8549 12.0726C14.773 11.2501 14.2266 10.5527 13.4583 10.2899C13.1811 10.1951 12.8427 10.1564 12.5605 10.1871Z" fill="#1F63FF"/>
</svg>
