<svg width="12" height="12" viewBox="0 0 12 12" fill="none" xmlns="http://www.w3.org/2000/svg">
<path fill-rule="evenodd" clip-rule="evenodd" d="M10.5779 1.02962L8.36917 1.02963C8.13915 1.02963 7.95263 0.841118 7.95263 0.608568C7.95263 0.376022 8.13915 0.187506 8.36917 0.187505L11.5835 0.1875C11.6939 0.1875 11.7999 0.231862 11.878 0.310826C11.9561 0.38979 12 0.496889 12 0.608562V3.85769C12 4.09023 11.8135 4.27874 11.5835 4.27874C11.3534 4.27874 11.1669 4.09023 11.1669 3.85769V1.62509L7.37804 5.45506C7.21537 5.61949 6.95162 5.61949 6.78895 5.45506C6.62628 5.29062 6.62628 5.02402 6.78895 4.85959L10.5779 1.02962ZM1.32568 2.62261C1.19503 2.62261 1.06974 2.67508 0.977363 2.76845C0.884985 2.86184 0.833093 2.98849 0.833093 3.12054V10.4724C0.833093 10.6045 0.884985 10.7312 0.977363 10.8245C1.06974 10.9179 1.19503 10.9703 1.32568 10.9703H9.50782C9.63848 10.9703 9.7638 10.9179 9.85612 10.8245C9.94853 10.7312 10.0004 10.6045 10.0004 10.4724V5.51993C10.0004 5.28739 10.187 5.09888 10.417 5.09888C10.647 5.09888 10.8335 5.28739 10.8335 5.51993V10.4724C10.8335 10.8278 10.6939 11.1687 10.4452 11.42C10.1966 11.6713 9.85943 11.8125 9.50782 11.8125H1.32568C0.974085 11.8125 0.636893 11.6713 0.388281 11.42C0.139669 11.1687 0 10.8278 0 10.4724V3.12054C0 2.76514 0.139669 2.42429 0.388281 2.17298C0.636893 1.92167 0.974085 1.78049 1.32568 1.78049H6.5281C6.75815 1.78049 6.94465 1.969 6.94465 2.20156C6.94465 2.4341 6.75815 2.62261 6.5281 2.62261H1.32568Z" fill="#9F9F9F"/>
</svg>
