<svg width="16" height="17" viewBox="0 0 16 17" fill="none" xmlns="http://www.w3.org/2000/svg">
<path fill-rule="evenodd" clip-rule="evenodd" d="M7.84779 0.34349C7.61357 0.374238 7.38043 0.500082 7.20719 0.68924C7.0925 0.814506 7.14677 0.710333 5.55937 3.85196L4.94983 5.05829L2.93571 5.25736C1.82794 5.36683 0.868042 5.46927 0.802605 5.48499C0.37386 5.58806 0.0498156 5.96883 0.00417914 6.42319C-0.0183416 6.64736 0.0514133 6.91402 0.183122 7.10729C0.218169 7.15871 0.670183 7.62143 1.1876 8.13556C1.70502 8.64972 2.46262 9.4031 2.87115 9.80975L3.61395 10.5491L3.02776 12.6737C2.35227 15.122 2.35786 15.1005 2.35783 15.2539C2.35775 15.7654 2.72894 16.2144 3.23315 16.3127C3.40429 16.3461 3.59449 16.3334 3.75905 16.2775C3.82503 16.2552 4.80643 15.7774 5.93989 15.2159L8.00078 14.195L10.0616 15.2159C11.1951 15.7774 12.1799 16.2563 12.25 16.2802C12.6523 16.4171 13.1232 16.2827 13.3949 15.9532C13.5641 15.7481 13.6437 15.5291 13.6437 15.2686C13.6437 15.0765 13.6695 15.1769 12.9574 12.5973L12.3921 10.5491L13.6765 9.27595C15.5996 7.3697 15.7855 7.18097 15.8531 7.06582C16.143 6.57206 15.9954 5.93876 15.5178 5.62697C15.375 5.53379 15.235 5.48307 15.0544 5.45919C14.9843 5.44993 14.0627 5.35755 13.0063 5.25394C11.95 5.15031 11.077 5.06278 11.0664 5.05941C11.0558 5.05603 10.7433 4.45036 10.3718 3.71347C10.0004 2.97659 9.51597 2.01802 9.2953 1.58332L8.89411 0.792971L8.75667 0.654821C8.64718 0.544784 8.59004 0.502598 8.47572 0.447443C8.26808 0.347281 8.06948 0.314392 7.84779 0.34349ZM6.87897 3.60858C6.26666 4.82475 5.74438 5.8489 5.71836 5.88444C5.66295 5.96014 5.53814 6.04716 5.45224 6.07001C5.41898 6.07886 4.42077 6.18227 3.234 6.29982C2.04725 6.41735 1.0751 6.51519 1.07369 6.51721C1.07228 6.51923 1.87629 7.31841 2.86039 8.29314C4.23312 9.6528 4.65889 10.0841 4.68927 10.1458C4.72185 10.2119 4.72887 10.2533 4.72887 10.3792C4.72887 10.5281 4.71169 10.5944 4.07725 12.8918C3.71885 14.1896 3.42821 15.254 3.43137 15.2572C3.43453 15.2603 4.36259 14.8041 5.49373 14.2433C6.62487 13.6825 7.62496 13.1898 7.71616 13.1484C7.8613 13.0826 7.89672 13.0732 8.00006 13.0732C8.06501 13.0732 8.13954 13.082 8.16568 13.0927C8.19182 13.1034 9.19487 13.5973 10.3947 14.1902C11.5945 14.7831 12.5779 15.2657 12.5801 15.2627C12.5823 15.2597 12.2875 14.1826 11.9251 12.8692C11.4796 11.2549 11.2657 10.4536 11.2652 10.3962C11.2641 10.2841 11.2903 10.1922 11.3502 10.0987C11.3771 10.0567 12.1954 9.23444 13.1685 8.27157C14.1417 7.3087 14.9278 6.51894 14.9154 6.51655C14.9031 6.51415 13.9274 6.41661 12.7472 6.29979C11.5256 6.17886 10.5717 6.07713 10.5324 6.0636C10.4371 6.03075 10.3371 5.9583 10.2821 5.88223C10.2567 5.84701 9.73486 4.82353 9.12255 3.6078C8.51024 2.39207 8.00543 1.39736 8.00076 1.39736C7.99608 1.39734 7.49128 2.39239 6.87897 3.60858Z" fill="#1F63FF"/>
</svg>
