<svg width="16" height="17" viewBox="0 0 16 17" fill="none" xmlns="http://www.w3.org/2000/svg">
<path fill-rule="evenodd" clip-rule="evenodd" d="M6.22353 0.678604C5.61904 0.782069 5.11327 1.24735 4.95979 1.84117C4.92433 1.97831 4.92116 2.03739 4.9147 2.67841L4.90777 3.3681L2.65683 3.37281L0.405894 3.37753L0.323705 3.4155C0.278506 3.43638 0.203468 3.49152 0.156967 3.53804C-0.104737 3.79978 -0.0286401 4.24045 0.306712 4.40514L0.405894 4.45385L1.15662 4.45889C1.56951 4.46166 1.90734 4.46998 1.90734 4.47738C1.90734 4.56437 2.81377 15.3147 2.8275 15.3907C2.8737 15.6461 2.95947 15.8402 3.11985 16.0524C3.35186 16.3595 3.70134 16.5761 4.06771 16.64C4.20188 16.6634 4.68021 16.6666 7.99992 16.6666C11.3196 16.6666 11.798 16.6634 11.9321 16.64C12.2985 16.5761 12.648 16.3595 12.88 16.0524C13.0379 15.8436 13.1266 15.6426 13.1722 15.3907C13.1859 15.3154 14.0925 4.56275 14.0925 4.47626C14.0925 4.46948 14.4303 4.46166 14.8432 4.45889L15.5939 4.45385L15.6931 4.40514C15.9453 4.28131 16.0635 3.9864 15.9658 3.72518C15.9217 3.60724 15.7929 3.46944 15.6767 3.41576L15.5939 3.37753L13.343 3.37281L11.0921 3.3681L11.0851 2.67841C11.0787 2.03739 11.0755 1.97831 11.04 1.84117C10.903 1.31075 10.4926 0.887254 9.95182 0.718132L9.79645 0.669542L8.052 0.666868C7.09254 0.66541 6.26973 0.670687 6.22353 0.678604ZM6.31422 1.77814C6.18404 1.82504 6.07137 1.94314 6.02389 2.08246C6.01013 2.1228 6.00378 2.33555 6.00378 2.75516V3.36885H7.99992H9.99607L9.99475 2.74823C9.99383 2.3192 9.98713 2.11054 9.97305 2.07234C9.93703 1.97465 9.84512 1.8631 9.75889 1.81239L9.67495 1.76305L8.02596 1.7593C6.70777 1.7563 6.36439 1.76006 6.31422 1.77814ZM3.00088 4.47814C3.00088 4.56496 3.88986 15.1197 3.90304 15.1895C3.93525 15.3599 4.04578 15.4951 4.19701 15.5491C4.29003 15.5824 11.7112 15.5819 11.8043 15.5486C11.9587 15.4935 12.0813 15.3334 12.1047 15.1563C12.1135 15.0897 12.999 4.5147 12.999 4.47623C12.999 4.4687 10.7494 4.46253 7.99992 4.46253C5.055 4.46253 3.00088 4.46894 3.00088 4.47814ZM6.34064 6.95133C6.18425 6.9906 6.0666 7.08699 5.98218 7.24496L5.94303 7.31826V10.0177V12.7172L5.98354 12.7953C6.04066 12.9055 6.15014 13.0122 6.25375 13.0587C6.38035 13.1156 6.587 13.1147 6.70179 13.0568C6.80109 13.0067 6.91418 12.8979 6.96458 12.804L7.00185 12.7346L7.0064 10.0533C7.01152 7.04067 7.02197 7.27982 6.8783 7.12C6.7418 6.96817 6.53368 6.90288 6.34064 6.95133ZM9.40845 6.94545C9.30422 6.96715 9.19672 7.03381 9.11348 7.12841C8.97913 7.28105 8.98834 7.05633 8.99345 10.0533L8.99799 12.7346L9.03526 12.804C9.08567 12.8979 9.19875 13.0067 9.29806 13.0568C9.41285 13.1147 9.61949 13.1156 9.7461 13.0587C9.84971 13.0122 9.95918 12.9055 10.0163 12.7953L10.0568 12.7172L10.0613 10.0549C10.0643 8.28054 10.0599 7.37063 10.0481 7.32667C10.0074 7.17552 9.84084 7.00003 9.70281 6.96286C9.5985 6.93477 9.49045 6.92838 9.40845 6.94545Z" fill="#1F63FF"/>
</svg>
