<svg width="14" height="14" viewBox="0 0 14 14" fill="none" xmlns="http://www.w3.org/2000/svg">
<path fill-rule="evenodd" clip-rule="evenodd" d="M6.73238 0.45668C6.36486 0.538226 6.05494 0.755482 5.86328 1.06588C5.80179 1.16549 0.226853 11.4507 0.130734 11.6418C-0.0390992 11.9797 -0.0438597 12.4315 0.118773 12.775C0.314091 13.1875 0.653103 13.4497 1.10896 13.541C1.25191 13.5697 12.7484 13.5697 12.8914 13.541C13.3455 13.4501 13.6867 13.1864 13.8808 12.7766C14.0437 12.4325 14.0393 11.9796 13.8697 11.6418C13.776 11.4555 8.19889 1.16662 8.13687 1.06588C7.9441 0.75282 7.63234 0.535549 7.26326 0.457037C7.14154 0.431144 6.84833 0.430951 6.73238 0.45668ZM6.86812 1.38615C6.81641 1.40399 6.76548 1.43667 6.72401 1.47861C6.67283 1.53035 6.08463 2.60524 3.81561 6.79344C2.25127 9.68092 0.962138 12.0693 0.950891 12.101C0.900444 12.2432 0.946949 12.411 1.0666 12.5185C1.20408 12.6421 0.610005 12.6309 7.00016 12.6309C13.3903 12.6309 12.7962 12.6421 12.9337 12.5185C13.0534 12.411 13.0999 12.2432 13.0494 12.101C13.0382 12.0693 11.7492 9.68092 10.1851 6.79344C7.0625 1.02899 7.29096 1.43225 7.11895 1.38118C7.01726 1.35099 6.96708 1.35199 6.86812 1.38615ZM6.89207 4.36224C6.79776 4.38592 6.72472 4.4312 6.65397 4.50986C6.52988 4.64785 6.53894 4.46786 6.53931 6.78493C6.53964 8.8233 6.53996 8.84656 6.56981 8.91234C6.61179 9.00486 6.66307 9.06823 6.73655 9.11841C6.8227 9.17725 6.89677 9.19875 7.01105 9.1981C7.18965 9.19707 7.34794 9.09081 7.42652 8.9192L7.46166 8.84249L7.45777 6.76202L7.45391 4.68155L7.41918 4.61462C7.37052 4.52081 7.27613 4.42847 7.19188 4.39224C7.10777 4.35605 6.97114 4.34239 6.89207 4.36224ZM6.8232 10.0359C6.50538 10.1251 6.29514 10.4233 6.32012 10.7495C6.3401 11.0105 6.51207 11.2416 6.75856 11.3389C6.88107 11.3872 7.11925 11.3872 7.24176 11.3389C7.4163 11.27 7.57289 11.1136 7.64165 10.9393C7.69013 10.8165 7.69019 10.5786 7.64178 10.4559C7.57258 10.2806 7.4143 10.1228 7.24212 10.0574C7.13001 10.0149 6.93402 10.0048 6.8232 10.0359Z" fill="#FF8500"/>
</svg>
