<svg width="14" height="14" viewBox="0 0 14 14" fill="none" xmlns="http://www.w3.org/2000/svg">
<path fill-rule="evenodd" clip-rule="evenodd" d="M4.21577 1.15327C4.95419 0.414843 5.95571 0 7 0C8.04429 0 9.04581 0.414843 9.78423 1.15327C10.5227 1.89169 10.9375 2.89321 10.9375 3.9375C10.9375 4.98179 10.5227 5.98331 9.78423 6.72173C9.3317 7.17426 8.78036 7.50527 8.18092 7.69374C9.36304 7.92056 10.4607 8.48498 11.327 9.32938C12.4769 10.4501 13.125 11.9726 13.125 13.5625C13.125 13.6785 13.0789 13.7898 12.9969 13.8719C12.9148 13.9539 12.8035 14 12.6875 14H1.3125C1.19647 14 1.08519 13.9539 1.00314 13.8719C0.921094 13.7898 0.875 13.6785 0.875 13.5625C0.875 11.9726 1.52311 10.4501 2.67296 9.32938C3.5393 8.48498 4.63696 7.92056 5.81907 7.69374C5.21963 7.50527 4.6683 7.17426 4.21577 6.72173C3.47734 5.98331 3.0625 4.98179 3.0625 3.9375C3.0625 2.89321 3.47734 1.89169 4.21577 1.15327ZM7 0.875C6.18777 0.875 5.40881 1.19765 4.83448 1.77199C4.26015 2.34632 3.9375 3.12527 3.9375 3.9375C3.9375 4.74972 4.26015 5.52868 4.83448 6.10301C5.40881 6.67734 6.18777 7 7 7C7.81222 7 8.59118 6.67734 9.16551 6.10301C9.73984 5.52868 10.0625 4.74972 10.0625 3.9375C10.0625 3.12527 9.73984 2.34631 9.16551 1.77199C8.59118 1.19765 7.81222 0.875 7 0.875ZM7 8.45654C5.60404 8.45654 4.26745 8.99714 3.2837 9.95598C2.40705 10.8104 1.87456 11.9343 1.7693 13.125H12.2307C12.1254 11.9343 11.5929 10.8104 10.7163 9.95598C9.73255 8.99714 8.39595 8.45654 7 8.45654Z" fill="black" fill-opacity="0.89"/>
</svg>
