<?xml version="1.0" encoding="UTF-8"?>
<!--
  - Infomaniak kDrive - Desktop
  - Copyright (C) 2023-2024 Infomaniak Network SA
  -
  - This program is free software: you can redistribute it and/or modify
  - it under the terms of the GNU General Public License as published by
  - the Free Software Foundation, either version 3 of the License, or
  - (at your option) any later version.
  -
  - This program is distributed in the hope that it will be useful,
  - but WITHOUT ANY WARRANTY; without even the implied warranty of
  - MERCHANTABILITY or FITNESS FOR A PARTICULAR PURPOSE.  See the
  - GNU General Public License for more details.
  -
  - You should have received a copy of the GNU General Public License
  - along with this program.  If not, see <http://www.gnu.org/licenses/>.
  -->

<svg width="16px" height="16px" viewBox="0 0 16 16" version="1.1" xmlns="http://www.w3.org/2000/svg" xmlns:xlink="http://www.w3.org/1999/xlink">
    <title>icons/theme/colored/state-information</title>
    <g id="icons/theme/colored/state-information" stroke="none" stroke-width="1" fill="none" fill-rule="evenodd">
        <g id="Group" transform="translate(1.500000, 2.500000)">
            <path d="M12.1875,1.65000696 L6.08616667,1.65000696 C5.98367163,1.65000347 5.88995944,1.59125076 5.84404167,1.49820707 L5.33108333,0.453207851 C5.19322243,0.174210015 4.91157966,-0.00138150897 4.60416667,0 L0.8125,0 C0.363768641,0 0,0.369372995 0,0.825007574 L0,10.1750006 C0,10.6306352 0.363768641,11 0.8125,11 L12.1875,11 C12.6362314,11 13,10.6306352 13,10.1750006 L13,2.47500635 C13,2.01937177 12.6362314,1.65000696 12.1875,1.65000696 Z" id="icon" fill="#0098FF"></path>
            <path d="M6.50634766,5.484375 C6.78721169,5.484375 7.0321011,5.59774973 7.22861834,5.81610222 C7.42153137,6.03045002 7.51879883,6.29415292 7.51879883,6.59733073 L7.51879883,6.59733073 L7.5180625,8.6474375 L7.72509766,8.6476237 C7.85879173,8.6476237 7.98016586,8.69217893 8.08321038,8.77649284 L8.08321038,8.77649284 L8.15696307,8.84710808 C8.27052999,8.97329355 8.328125,9.12944001 8.328125,9.30566406 C8.328125,9.47559579 8.2699791,9.62806725 8.15696307,9.75364062 C8.04008292,9.88350745 7.89221525,9.953125 7.72509766,9.953125 L7.72509766,9.953125 L6.09692383,9.953125 C5.9244564,9.953125 5.77300098,9.88415623 5.65553693,9.75364062 C5.5425209,9.62806725 5.484375,9.47559579 5.484375,9.30566406 C5.484375,9.12944001 5.54197001,8.97329355 5.65553693,8.84710808 C5.77300098,8.71659247 5.9244564,8.6476237 6.09692383,8.6476237 L6.09692383,8.6476237 L6.3025625,8.6474375 L6.3025625,6.7998125 L6.09692383,6.80045573 C5.95320097,6.80045573 5.82406978,6.75256075 5.71704148,6.66106589 L5.71704148,6.66106589 L5.65553693,6.60097135 C5.54197001,6.47478588 5.484375,6.31863942 5.484375,6.14241536 C5.484375,5.96619131 5.54197001,5.81004485 5.65553693,5.68385938 C5.77300098,5.55334377 5.9244564,5.484375 6.09692383,5.484375 L6.09692383,5.484375 Z M6.74375,3.046875 C7.01818145,3.046875 7.26011496,3.1490247 7.45867013,3.34757987 C7.6572253,3.54613504 7.759375,3.78806855 7.759375,4.0625 C7.759375,4.34555253 7.65702209,4.5906608 7.45674245,4.78566993 C7.25821604,4.97897197 7.01703298,5.078125 6.74375,5.078125 C6.46182999,5.078125 6.21749405,4.97877962 6.02248222,4.78376778 C5.82747038,4.58875595 5.728125,4.34442001 5.728125,4.0625 C5.728125,3.78921702 5.82727803,3.54803396 6.02058007,3.34950755 C6.2155892,3.14922791 6.46069747,3.046875 6.74375,3.046875 Z" id="Combined-Shape" fill="#FFFFFF" fill-rule="nonzero"></path>
        </g>
    </g>
</svg>