<?xml version="1.0" encoding="UTF-8"?>
<!--
  - Infomaniak kDrive - Desktop
  - Copyright (C) 2023-2025 Infomaniak Network SA
  -
  - This program is free software: you can redistribute it and/or modify
  - it under the terms of the GNU General Public License as published by
  - the Free Software Foundation, either version 3 of the License, or
  - (at your option) any later version.
  -
  - This program is distributed in the hope that it will be useful,
  - but WITHOUT ANY WARRANTY; without even the implied warranty of
  - MERCHANTABILITY or FITNESS FOR A PARTICULAR PURPOSE.  See the
  - GNU General Public License for more details.
  -
  - You should have received a copy of the GNU General Public License
  - along with this program.  If not, see <http://www.gnu.org/licenses/>.
  -->

<svg width="16px" height="16px" viewBox="0 0 16 16" version="1.1" xmlns="http://www.w3.org/2000/svg" xmlns:xlink="http://www.w3.org/1999/xlink">
    <title>icons/theme/colored/state-sync</title>
    <g id="icons/theme/colored/state-sync" stroke="none" stroke-width="1" fill="none" fill-rule="evenodd">
        <g id="Group" transform="translate(1.500000, 2.500000)">
            <path d="M12.1875,1.65000696 L6.08616667,1.65000696 C5.98367163,1.65000347 5.88995944,1.59125076 5.84404167,1.49820707 L5.33108333,0.453207851 C5.19322243,0.174210015 4.91157966,-0.00138150897 4.60416667,0 L0.8125,0 C0.363768641,0 0,0.369372995 0,0.825007574 L0,10.1750006 C0,10.6306352 0.363768641,11 0.8125,11 L12.1875,11 C12.6362314,11 13,10.6306352 13,10.1750006 L13,2.47500635 C13,2.01937177 12.6362314,1.65000696 12.1875,1.65000696 Z" id="icon" fill="#0098FF"></path>
            <path d="M9.48151658,5.29556937 L9.5316191,5.29664228 C9.57224896,5.30158072 9.61069198,5.31641216 9.64583403,5.34158024 L9.69593213,5.38714026 L9.725779,5.43018275 L10.6098912,7.05172014 C10.6576114,7.13885615 10.6547137,7.24648202 10.6020205,7.33117489 C10.5638029,7.39169087 10.5040194,7.43312456 10.438508,7.44701963 L10.3718164,7.45254527 L10.354019,7.45155412 L9.98012786,7.40401619 C9.60806097,8.75704447 8.59335302,9.79549172 7.3081636,10.1364296 C6.04035429,10.4549694 4.71019808,10.0079161 3.84997182,8.97605972 C3.72234198,8.83012139 3.67954547,8.62346269 3.73751253,8.43523724 C3.79583081,8.24587136 3.94733052,8.10392044 4.13418877,8.06523795 C4.29505078,8.03193707 4.45946403,8.07987128 4.57950967,8.19002041 L4.63561335,8.2501915 C5.24166496,8.97703749 6.17512271,9.29077718 7.06330026,9.06772116 C7.91983036,8.8386174 8.61191782,8.16960279 8.9060462,7.28507859 L8.90689291,7.2774701 L8.90447458,7.26870424 L8.24620315,7.1836755 C8.14851643,7.17091899 8.06697077,7.10170001 8.03477295,7.00598295 C8.0171103,6.95347578 8.01572178,6.89718066 8.03219958,6.84069145 L8.05469178,6.78427066 L8.09031452,6.73324295 L9.31198624,5.38011682 C9.33036208,5.35928442 9.35173646,5.34175352 9.37810022,5.32719976 L9.42163675,5.30756145 L9.46129471,5.2978812 L9.48151658,5.29556937 Z M5.68127558,2.86355786 C6.94905684,2.54499604 8.27918336,2.99223376 9.14037558,4.02577808 C9.32967631,4.25229849 9.30984309,4.59710733 9.09550623,4.79805616 C8.87851374,5.00149474 8.54521635,4.9799872 8.35346462,4.75053367 C7.74751965,4.02355333 6.81393165,3.70990915 5.92586877,3.93336775 C5.06941915,4.16340716 4.37752352,4.83264581 4.08276235,5.71798193 L4.0819045,5.72511261 L4.08424055,5.73360741 L4.75107651,5.82264177 C4.8492044,5.83508982 4.93121504,5.9045096 4.96347468,6.00063821 C4.98116949,6.05336593 4.98245699,6.10989092 4.9657443,6.16654155 L4.94297255,6.22309807 L4.90693773,6.27421738 L3.67716872,7.62022649 C3.65578704,7.64359086 3.63062737,7.66265209 3.59963712,7.67733715 L3.54852223,7.6960735 L3.49026045,7.70356375 L3.4578412,7.70288354 C3.41726181,7.69759946 3.378947,7.68244638 3.34401318,7.65699249 L3.29428774,7.61103208 L3.26487158,7.56792749 L2.38917252,5.94138278 C2.34205999,5.85386162 2.34573076,5.74622457 2.39822643,5.66326458 C2.42764393,5.61543146 2.4707356,5.57914806 2.52586306,5.55851491 L2.58494177,5.54325037 L2.6458122,5.54325189 L3.01138185,5.59198094 C3.01325952,5.59223656 3.0163392,5.59009403 3.01788066,5.58443009 C3.38418723,4.2413114 4.39782064,3.20485817 5.68127558,2.86355786 Z" id="Combined-Shape" fill="#FFFFFF" fill-rule="nonzero"></path>
        </g>
    </g>
</svg>