<svg width="16" height="16" viewBox="0 0 16 16" fill="none" xmlns="http://www.w3.org/2000/svg">
<path fill-rule="evenodd" clip-rule="evenodd" d="M6.22353 0.0119761C5.61904 0.115428 5.11327 0.580652 4.95979 1.17439C4.92433 1.31152 4.92116 1.37059 4.9147 2.01152L4.90777 2.70113L2.65683 2.70583L0.405894 2.71056L0.323705 2.74852C0.278506 2.7694 0.203468 2.82453 0.156967 2.87105C-0.104737 3.13275 -0.0286401 3.57336 0.306712 3.73803L0.405894 3.78674L1.15662 3.79177C1.56951 3.79455 1.90734 3.80286 1.90734 3.81026C1.90734 3.89724 2.81377 14.6462 2.8275 14.7221C2.8737 14.9775 2.95947 15.1716 3.11985 15.3838C3.35186 15.6908 3.70134 15.9074 4.06771 15.9713C4.20188 15.9947 4.68021 15.9979 7.99992 15.9979C11.3196 15.9979 11.798 15.9947 11.9321 15.9713C12.2985 15.9074 12.648 15.6908 12.88 15.3838C13.0379 15.175 13.1266 14.9741 13.1722 14.7221C13.1859 14.6468 14.0925 3.89562 14.0925 3.80915C14.0925 3.80236 14.4303 3.79455 14.8432 3.79177L15.5939 3.78674L15.6931 3.73803C15.9453 3.61422 16.0635 3.31934 15.9658 3.05816C15.9217 2.94023 15.7929 2.80245 15.6767 2.74878L15.5939 2.71056L13.343 2.70583L11.0921 2.70113L11.0851 2.01152C11.0787 1.37059 11.0755 1.31152 11.04 1.17439C10.903 0.644042 10.4926 0.220599 9.95182 0.0514997L9.79645 0.00291531L8.052 0.000242217C7.09254 -0.00121584 6.26973 0.0040609 6.22353 0.0119761ZM6.31422 1.11137C6.18404 1.15827 6.07137 1.27635 6.02389 1.41565C6.01013 1.45599 6.00378 1.66871 6.00378 2.08826V2.70188H7.99992H9.99607L9.99475 2.08134C9.99383 1.65236 9.98713 1.44373 9.97305 1.40553C9.93703 1.30786 9.84512 1.19631 9.75889 1.14561L9.67495 1.09628L8.02596 1.09253C6.70777 1.08953 6.36439 1.0933 6.31422 1.11137ZM3.00088 3.81102C3.00088 3.89783 3.88986 14.4512 3.90304 14.521C3.93525 14.6913 4.04578 14.8265 4.19701 14.8806C4.29003 14.9139 11.7112 14.9134 11.8043 14.8801C11.9587 14.8249 12.0813 14.6648 12.1047 14.4878C12.1135 14.4212 12.999 3.84758 12.999 3.80911C12.999 3.80158 10.7494 3.79542 7.99992 3.79542C5.055 3.79542 3.00088 3.80182 3.00088 3.81102ZM6.34064 6.2839C6.18425 6.32316 6.0666 6.41953 5.98218 6.57749L5.94303 6.65077V9.34991V12.049L5.98354 12.1271C6.04066 12.2373 6.15014 12.344 6.25375 12.3905C6.38035 12.4474 6.587 12.4465 6.70179 12.3886C6.80109 12.3385 6.91418 12.2297 6.96458 12.1358L7.00185 12.0664L7.0064 9.38542C7.01152 6.37322 7.02197 6.61234 6.8783 6.45255C6.7418 6.30073 6.53368 6.23545 6.34064 6.2839ZM9.40845 6.27801C9.30422 6.29971 9.19672 6.36636 9.11348 6.46095C8.97913 6.61357 8.98834 6.38888 8.99345 9.38542L8.99799 12.0664L9.03526 12.1358C9.08567 12.2297 9.19875 12.3385 9.29806 12.3886C9.41285 12.4465 9.61949 12.4474 9.7461 12.3905C9.84971 12.344 9.95918 12.2373 10.0163 12.1271L10.0568 12.049L10.0613 9.38709C10.0643 7.61293 10.0599 6.70314 10.0481 6.65919C10.0074 6.50806 9.84084 6.33259 9.70281 6.29542C9.5985 6.26734 9.49045 6.26095 9.40845 6.27801Z" fill="black"/>
</svg>
