<?xml version="1.0" encoding="UTF-8"?>
<!--
  - Infomaniak kDrive - Desktop
  - Copyright (C) 2023-2025 Infomaniak Network SA
  -
  - This program is free software: you can redistribute it and/or modify
  - it under the terms of the GNU General Public License as published by
  - the Free Software Foundation, either version 3 of the License, or
  - (at your option) any later version.
  -
  - This program is distributed in the hope that it will be useful,
  - but WITHOUT ANY WARRANTY; without even the implied warranty of
  - MERCHANTABILITY or FITNESS FOR A PARTICULAR PURPOSE.  See the
  - GNU General Public License for more details.
  -
  - You should have received a copy of the GNU General Public License
  - along with this program.  If not, see <http://www.gnu.org/licenses/>.
  -->

<svg width="124px" height="124px" viewBox="0 0 124 124" version="1.1" xmlns="http://www.w3.org/2000/svg" xmlns:xlink="http://www.w3.org/1999/xlink">
    <!-- Generator: Sketch 56.3 (81716) - https://sketch.com -->
    <title>SVG/sync</title>
    <desc>Created with Sketch.</desc>
    <g id="SVG/sync" stroke="none" stroke-width="1" fill="none" fill-rule="evenodd">
        <g id="Sync">
            <circle style="fill:#0098FF" id="circle9" r="61" cy="62" cx="62" />
            <path d="M36.7986478,51.578186 L43.1593107,52.3768452 C44.6525561,52.5586178 45.909166,53.5793267 46.407158,55.0033068 C46.9020155,56.4183241 46.5655642,57.9955078 45.5330779,59.08088 L31.5697009,73.7465975 C30.8268008,74.5255864 29.8004293,74.9672728 28.8679409,74.962111 C28.6905488,74.9751432 28.5124503,74.9751432 28.2367842,74.9523676 C26.9966594,74.7974083 25.9053137,74.0599023 25.2894678,72.965642 L15.3467518,55.2439751 C14.6150721,53.9396495 14.672241,52.3310326 15.4815983,51.1037803 C16.298141,49.8297192 17.7698065,49.1386282 19.2620562,49.3335605 L22.6144822,49.7623739 C27.0553278,35.1411554 38.6953898,23.9024595 53.3734145,20.1570252 C68.1259569,16.5998548 83.6052242,21.5942658 93.6297354,33.138915 C96.1613435,36.0458825 95.8956888,40.4777935 93.0328039,43.0534083 C90.1517376,45.64538 85.7379312,45.3720669 83.1886667,42.4448228 C76.5605128,34.8140157 66.3444902,31.517844 56.6097699,33.8627931 C47.5821844,36.1945839 40.2261029,42.7918465 36.7986478,51.578186 Z M82.6034816,69.295425 C81.1168862,69.1091401 79.8673519,68.0913437 79.3703104,66.6734493 C78.8763972,65.264479 79.2069001,63.6935009 80.2285915,62.6087404 L94.0912354,47.874925 C94.9507307,46.9398978 96.2079268,46.481589 97.4326894,46.6453693 C98.6741997,46.790174 99.7716004,47.5188936 100.398651,48.6126221 L110.435854,66.2779137 C111.17691,67.5763912 111.13178,69.1848604 110.318597,70.4391187 L110.311332,70.4502401 C109.577796,71.5648334 108.335993,72.2351651 107.154336,72.2236172 C106.980926,72.2361788 106.806844,72.2361788 106.538771,72.2144195 L103.082286,71.7927004 C98.6574803,86.44165 87.0035253,97.7047589 72.3037596,101.446708 C57.5509992,105.003606 42.0715021,100.011292 32.0725529,88.5015423 C30.367027,86.630154 29.7938343,83.9741153 30.5701107,81.5553047 C31.3489166,79.1286124 33.3662324,77.3148153 35.8466416,76.8220797 C38.3323642,76.3282887 40.8843349,77.2406226 42.484304,79.1668022 C49.1170422,86.8001326 59.3386728,90.0968626 69.050944,87.7563974 C78.0890684,85.4365666 85.4549844,78.8355199 88.8727626,70.0574598 L82.6034816,69.295425 Z" id="Combined-Shape" fill="#FFFFFF"></path>
        </g>
    </g>
</svg>