<svg width="16" height="16" viewBox="0 0 16 16" fill="none" xmlns="http://www.w3.org/2000/svg">
<g clip-path="url(#clip0_59015_3162)">
<path d="M5.47649 0C5.60636 2.85636e-05 5.73647 0.0207393 5.86321 0.0615234L5.98821 0.108398L5.99114 0.109375L7.38372 0.728516C7.72856 0.882565 7.98858 1.17787 8.10735 1.53613L8.64251 3.08691L8.64641 3.09668C8.68676 3.22173 8.77599 3.29756 8.86614 3.32129L14.5897 4.74805C14.6137 4.75072 14.6382 4.75546 14.662 4.76172C15.0196 4.8559 15.2688 5.13151 15.4169 5.37891C15.5697 5.63441 15.6698 5.94928 15.6698 6.25V13.5C15.6698 13.7761 15.4459 14 15.1698 14C14.8937 14 14.6698 13.7761 14.6698 13.5V6.25C14.6698 6.15592 14.6327 6.01665 14.5585 5.89258C14.5233 5.83369 14.4867 5.78982 14.455 5.76172C14.4379 5.74657 14.424 5.73973 14.4159 5.73535L8.61809 4.29102C8.17274 4.17638 7.83154 3.83304 7.69329 3.40234L7.16204 1.8623L7.15911 1.85352C7.12542 1.74961 7.05575 1.67672 6.97747 1.6416L5.58684 1.02441C5.54635 1.0067 5.50935 1.00004 5.47649 1C5.34143 1 5.16985 1.12785 5.16985 1.35938V2.28418C5.37223 2.41721 5.52786 2.61316 5.60931 2.8457L5.61028 2.84766L6.18938 4.52051C6.25191 4.70011 6.4029 4.8389 6.60149 4.8877L12.6532 6.35254H12.6552C13.1497 6.47423 13.4999 6.91685 13.4999 7.42871V15C13.4999 15.0062 13.4982 15.0124 13.4979 15.0186C13.4984 15.0288 13.4999 15.0391 13.4999 15.0498C13.4999 15.0704 13.4965 15.0904 13.494 15.1104C13.4933 15.1265 13.4945 15.1427 13.4931 15.1582L13.4921 15.1572C13.4509 15.6129 13.0737 16 12.5858 16C12.5062 16 12.4138 15.9895 12.3134 15.957V15.958L2.66204 12.9102L2.66106 12.9092C2.25724 12.7804 1.93847 12.4673 1.80071 12.0645L0.0780525 7.30469L0.0751228 7.29688C-0.229776 6.40503 0.434528 5.50055 1.3261 5.5C1.45255 5.5 1.57376 5.52052 1.6845 5.55078L1.68352 5.55176L1.99993 5.63672V2.60645C1.99993 2.18637 2.23772 1.80628 2.60931 1.61816L2.64348 1.60254L2.66009 1.5957C2.79802 1.53509 2.95087 1.50006 3.10833 1.5C3.25765 1.50006 3.39606 1.53152 3.52239 1.58105L3.53118 1.58398L4.16985 1.84766V1.35938C4.16985 0.605911 4.75928 0 5.47649 0ZM1.3261 6.5C1.12705 6.5006 0.936381 6.72345 1.02141 6.97266L2.74407 11.7324L2.747 11.7402L2.27337 11.9023L2.747 11.7412C2.78319 11.8467 2.86457 11.9241 2.96282 11.9561L12.4667 14.957L10.8026 9.23535C10.8009 9.22924 10.7993 9.22297 10.7978 9.2168C10.7974 9.21597 10.7965 9.2147 10.7958 9.21289C10.7937 9.20728 10.7905 9.19935 10.7851 9.18652C10.7657 9.14134 10.7417 9.10518 10.7147 9.07812C10.7116 9.07493 10.7081 9.07164 10.705 9.06836C10.7103 9.07395 10.7107 9.07354 10.7001 9.06543C10.695 9.06154 10.6879 9.05636 10.6786 9.0498C10.67 9.04373 10.6637 9.0389 10.6542 9.03223L10.6513 9.03125L10.6269 9.01758C10.6045 9.00484 10.5872 8.99788 10.5751 8.99414V8.99219L1.42181 6.51562C1.3776 6.50356 1.3453 6.5 1.3261 6.5ZM3.06243 2.51074C3.06065 2.51149 3.05833 2.5119 3.05657 2.5127C3.01944 2.53332 2.99993 2.56987 2.99993 2.60645V5.67383C2.99993 5.75319 2.97913 5.8269 2.94622 5.89355L10.8368 8.02832C10.8436 8.03011 10.8493 8.03232 10.8554 8.03418C10.8588 8.03515 10.8627 8.03608 10.8661 8.03711C10.8698 8.03823 10.8742 8.03984 10.8778 8.04102C10.8805 8.04195 10.8833 8.04305 10.8856 8.04395C10.8951 8.04749 10.9041 8.05072 10.911 8.05371C10.9787 8.07744 11.0416 8.10565 11.0985 8.13672C11.1023 8.13862 11.1075 8.14157 11.1112 8.14355C11.1154 8.14591 11.1207 8.14803 11.1249 8.15039H11.1239L11.1981 8.19336L11.2196 8.20801C11.2483 8.22811 11.3401 8.2905 11.4208 8.37305L11.4228 8.37207C11.5462 8.49587 11.6396 8.64019 11.705 8.79297C11.7201 8.82827 11.7428 8.88674 11.7616 8.95605H11.7626L12.4999 11.4883V7.42871C12.4999 7.38068 12.467 7.33679 12.4159 7.32422L6.36516 5.85938H6.36321C5.90935 5.74799 5.52869 5.44685 5.3222 5.03223L5.24407 4.84766L4.66497 3.1748C4.6541 3.14582 4.63139 3.12157 4.60247 3.10938L3.1552 2.51074C3.13068 2.50137 3.11636 2.50005 3.10833 2.5C3.09837 2.50005 3.08206 2.50212 3.06243 2.51074ZM10.9052 8.05176C10.9016 8.05029 10.8975 8.04841 10.8935 8.04688C10.8906 8.04587 10.8868 8.04506 10.8837 8.04395C10.8909 8.04626 10.8981 8.04931 10.9052 8.05176Z" fill="black"/>
</g>
<defs>
<clipPath id="clip0_59015_3162">
<rect width="16" height="16" fill="white"/>
</clipPath>
</defs>
</svg>
