<svg width="16" height="16" viewBox="0 0 16 16" fill="none" xmlns="http://www.w3.org/2000/svg">
<g clip-path="url(#clip0_59223_3523)">
<path d="M0.780728 6.55664C0.84962 6.55664 0.921258 6.56789 0.994595 6.58789L9.70163 9.06348C9.70587 9.06369 9.71009 9.06819 9.71433 9.06836C9.76536 9.08389 9.81421 9.1062 9.86081 9.13281C9.87859 9.1417 9.89674 9.15295 9.91452 9.16406C9.95886 9.1951 10.0057 9.22574 10.0435 9.26562C10.1146 9.33674 10.1704 9.42131 10.2104 9.51465C10.2238 9.54576 10.2367 9.57967 10.2456 9.61523L11.8862 15.4893V15.4912C11.8928 15.5199 11.8969 15.5465 11.897 15.5752H11.894C11.8948 15.5945 11.8939 15.6136 11.8921 15.6328C11.8743 15.8373 11.7054 16 11.5054 16C11.4677 16 11.43 15.9957 11.3901 15.9824L2.27194 13.1104C2.03424 13.0348 1.84536 12.8503 1.76315 12.6104L0.0453762 7.62598C-0.139066 7.08817 0.265192 6.55671 0.780728 6.55664ZM4.6362 1.60352C4.73604 1.60352 4.83811 1.62294 4.93796 1.66504L6.28952 2.24316C6.4962 2.33206 6.65661 2.50583 6.72995 2.72363L7.26706 4.33008C7.35369 4.59 7.56287 4.78507 7.82272 4.84961L13.4429 6.25684L13.4409 6.25293C13.7919 6.3418 14.0384 6.66343 14.0386 7.03223V13.7471C14.0384 14.2025 13.674 14.5488 13.2563 14.5488C13.181 14.5488 13.1034 14.538 13.0259 14.5137L12.521 14.3555V8.39746C12.521 7.82642 12.1368 7.33032 11.5903 7.19238L5.96921 5.78613C5.85385 5.755 5.7651 5.6703 5.72507 5.55273L5.18698 3.94531C5.07586 3.60996 4.82733 3.33897 4.50534 3.20117L3.85397 2.92285V2.40527C3.85401 1.94525 4.22287 1.60352 4.6362 1.60352ZM2.67722 3.1875C2.75053 3.18751 2.82195 3.20256 2.89304 3.23145L4.24362 3.80957C4.39252 3.87402 4.50865 4.00041 4.56198 4.1582L5.09909 5.76465C5.21021 6.0958 5.47766 6.34328 5.81101 6.42773L11.4312 7.83398C11.6844 7.89849 11.8618 8.1325 11.8618 8.40137V12.959L10.8794 9.43652C10.8617 9.37446 10.8393 9.31253 10.8149 9.25488C10.7439 9.08609 10.642 8.93477 10.5132 8.80371C10.4265 8.71703 10.3416 8.65453 10.2749 8.6123C10.2461 8.5924 10.2153 8.57239 10.1821 8.55469C10.0955 8.50579 10.0151 8.47003 9.93503 8.44336C9.9173 8.43671 9.8993 8.43021 9.87936 8.42578H9.87741L2.11276 6.21875V3.76953C2.11276 3.54962 2.23236 3.34909 2.42331 3.24902L2.43893 3.24219L2.4487 3.23828C2.52194 3.20504 2.59955 3.1875 2.67722 3.1875ZM6.59714 0C6.69704 8.54206e-06 6.79899 0.0203557 6.8989 0.0625L8.25046 0.639648C8.45714 0.728548 8.61755 0.902314 8.69089 1.12012L9.228 2.72656C9.31464 2.98652 9.52375 3.18256 9.78366 3.24707L15.4038 4.6543L15.4019 4.65137C15.7529 4.74026 15.9995 5.06276 15.9995 5.43164V12.1455C15.9995 12.6011 15.6351 12.9482 15.2173 12.9482C15.142 12.9482 15.0643 12.9374 14.9868 12.9131L14.6997 12.8213V7.03613C14.6996 6.36285 14.2486 5.78041 13.6021 5.61816L7.9819 4.21191C7.94202 4.20084 7.90865 4.16729 7.89304 4.12305L7.35495 2.51562C7.2238 2.12011 6.93022 1.79991 6.55026 1.6377L5.81491 1.32227V0.802734C5.81491 0.34268 6.18378 0 6.59714 0Z" fill="black"/>
</g>
<defs>
<clipPath id="clip0_59223_3523">
<rect width="16" height="16" fill="white"/>
</clipPath>
</defs>
</svg>
