<svg xmlns="http://www.w3.org/2000/svg" width="16" height="16" fill="none"><path fill="#000" fill-rule="evenodd" d="M5.07 2.16a3.18 3.18 0 0 0-3.2 3.2 3.22 3.22 0 0 0 2.4 3.12 4.89 4.89 0 0 0-4.1 4.86.5.5 0 0 0 .5.5h8.8a.5.5 0 0 0 .5-.5 4.95 4.95 0 0 0-4.11-4.86 3.18 3.18 0 0 0 2.4-3.11 3.22 3.22 0 0 0-3.2-3.2ZM3.52 3.81a2.18 2.18 0 0 1 3.73 1.56 2.22 2.22 0 0 1-2.18 2.2c-.58 0-1.14-.22-1.55-.64a2.22 2.22 0 0 1 0-3.12Zm8.51.81a2.51 2.51 0 0 0-2.51 2.53 2.54 2.54 0 0 0 1.81 2.43 4.2 4.2 0 0 0-.83.26.5.5 0 1 0 .4.92 2.78 2.78 0 0 1 3.89 2.08h-3.33a.5.5 0 0 0 0 1h3.87a.5.5 0 0 0 .5-.5 3.83 3.83 0 0 0-3.1-3.76 2.51 2.51 0 0 0 1.82-2.43 2.54 2.54 0 0 0-2.52-2.53Zm-1.07 1.45a1.51 1.51 0 0 1 2.59 1.08c0 .41-.16.8-.45 1.09a1.51 1.51 0 0 1-2.58-1.09c0-.4.16-.8.44-1.08ZM5.06 9.4a3.88 3.88 0 0 0-3.86 3.43h7.73A3.94 3.94 0 0 0 5.07 9.4Z" clip-rule="evenodd"/></svg>