<?xml version="1.0" encoding="UTF-8"?>
<!--
  - Infomaniak kDrive - Desktop
  - Copyright (C) 2023-2025 Infomaniak Network SA
  -
  - This program is free software: you can redistribute it and/or modify
  - it under the terms of the GNU General Public License as published by
  - the Free Software Foundation, either version 3 of the License, or
  - (at your option) any later version.
  -
  - This program is distributed in the hope that it will be useful,
  - but WITHOUT ANY WARRANTY; without even the implied warranty of
  - MERCHANTABILITY or FITNESS FOR A PARTICULAR PURPOSE.  See the
  - GNU General Public License for more details.
  -
  - You should have received a copy of the GNU General Public License
  - along with this program.  If not, see <http://www.gnu.org/licenses/>.
  -->

<svg width="131px" height="131px" viewBox="0 0 131 131" version="1.1" xmlns="http://www.w3.org/2000/svg" xmlns:xlink="http://www.w3.org/1999/xlink">
    <!-- Generator: Sketch 56.3 (81716) - https://sketch.com -->
    <title>SVG/Sync_Shared</title>
    <desc>Created with Sketch.</desc>
    <g id="SVG/Sync_Shared" stroke="none" stroke-width="1" fill="none" fill-rule="evenodd">
        <rect id="Rectangle" x="0" y="0" width="131" height="131"></rect>
        <g id="Group" transform="translate(60.000000, 93.000000)" fill-rule="nonzero">
            <path d="M49.892,34.317 L49.892,34.317 C49.891,34.317 49.891,34.317 49.892,34.317 L49.892,34.317 C49.723,34.283 49.556,34.245 49.39,34.205 C49.263,34.175 49.136,34.142 49.009,34.108 C48.976,34.099 48.942,34.09 48.907,34.082 C48.75,34.04 48.595,33.995 48.439,33.947 C48.438,33.947 48.437,33.947 48.436,33.947 C48.277,33.899 48.119,33.848 47.96,33.796 C47.774,33.734 47.59,33.669 47.406,33.601 C47.404,33.601 47.402,33.6 47.399,33.599 C47.315,33.568 47.23,33.536 47.146,33.502 C47.042,33.461 46.938,33.42 46.834,33.377 C46.778,33.354 46.723,33.33 46.667,33.307 C46.54,33.252 46.413,33.197 46.287,33.14 C46.261,33.128 46.235,33.116 46.209,33.104 C46.062,33.036 45.914,32.966 45.768,32.893 L44.487,32.893 L16.936,32.893 C14.852,32.893 12.832,32.485 10.93,31.681 C9.093,30.904 7.443,29.791 6.025,28.373 C4.608,26.956 3.495,25.305 2.718,23.468 C1.913,21.567 1.506,19.546 1.506,17.462 C1.506,15.379 1.913,13.358 2.718,11.457 C3.494,9.619 4.608,7.969 6.025,6.552 C7.443,5.134 9.093,4.022 10.93,3.244 C12.831,2.439 14.852,2.032 16.936,2.032 L44.488,2.032 L45.769,2.032 C45.857,1.988 45.945,1.946 46.034,1.903 C46.034,1.903 46.035,1.903 46.036,1.902 C46.66,1.605 47.302,1.347 47.957,1.129 C48.59,0.918 49.235,0.743 49.892,0.608 C49.65,0.63 49.409,0.66 49.169,0.693 C49.163,0.693 49.158,0.694 49.152,0.695 C49.073,0.707 48.993,0.718 48.913,0.731 C48.992,0.718 49.072,0.707 49.151,0.695 C49.157,0.694 49.163,0.693 49.169,0.693 C49.408,0.66 49.649,0.631 49.892,0.608 C49.892,0.608 49.893,0.608 49.893,0.607 C50.029,0.579 50.166,0.552 50.303,0.527 L16.936,0.527 C7.582,0.527 0,8.11 0,17.463 C0,26.817 7.582,34.399 16.936,34.399 L50.303,34.399 C50.166,34.373 50.029,34.347 49.892,34.317 Z M48.07,0.882 C48.065,0.883 48.061,0.884 48.056,0.885 C48.017,0.893 47.978,0.902 47.94,0.909 C47.978,0.901 48.017,0.892 48.055,0.885 C48.06,0.884 48.065,0.883 48.07,0.882 Z M47.771,0.946 C47.74,0.952 47.709,0.96 47.678,0.967 C47.652,0.973 47.624,0.98 47.598,0.986 C47.624,0.98 47.652,0.973 47.678,0.967 C47.71,0.96 47.74,0.952 47.771,0.946 Z M47.347,1.046 C47.362,1.042 47.377,1.039 47.393,1.035 C47.378,1.039 47.362,1.042 47.347,1.046 C47.241,1.072 47.134,1.101 47.028,1.129 C47.134,1.101 47.241,1.073 47.347,1.046 Z M47.347,33.878 C47.241,33.852 47.135,33.824 47.029,33.796 C47.135,33.824 47.241,33.852 47.347,33.878 L47.347,33.878 Z M48.093,34.049 C48.08,34.046 48.068,34.043 48.055,34.04 C47.959,34.02 47.866,34 47.771,33.979 C47.741,33.971 47.709,33.964 47.679,33.958 C47.598,33.939 47.519,33.921 47.44,33.901 C47.41,33.893 47.379,33.886 47.35,33.879 C47.379,33.887 47.409,33.894 47.439,33.901 C47.519,33.921 47.599,33.939 47.68,33.958 C47.71,33.966 47.74,33.972 47.77,33.979 C47.866,34 47.961,34.021 48.057,34.041 C48.069,34.043 48.081,34.046 48.093,34.049 C48.151,34.06 48.208,34.07 48.266,34.082 C48.209,34.07 48.151,34.06 48.093,34.049 Z M48.451,34.117 C48.448,34.117 48.446,34.117 48.444,34.116 C48.445,34.116 48.447,34.117 48.449,34.117 C48.521,34.13 48.595,34.142 48.668,34.154 C48.595,34.143 48.523,34.131 48.451,34.117 Z M49.163,34.232 C49.159,34.231 49.155,34.23 49.15,34.23 C49.086,34.22 49.021,34.21 48.957,34.201 C49.021,34.211 49.086,34.221 49.151,34.23 C49.157,34.231 49.162,34.231 49.169,34.232 C49.167,34.232 49.165,34.232 49.163,34.232 Z" id="Shape" fill="#FFFFFF"></path>
            <path d="M45.473,32.742 C45.457,32.733 45.442,32.725 45.427,32.718 C45.344,32.674 45.262,32.63 45.18,32.585 C45.159,32.573 45.136,32.562 45.115,32.549 C45.04,32.508 44.964,32.465 44.888,32.422 C44.864,32.408 44.84,32.394 44.816,32.38 C44.743,32.338 44.67,32.295 44.597,32.251 C44.573,32.237 44.549,32.223 44.525,32.208 C44.451,32.163 44.378,32.117 44.304,32.072 C44.283,32.057 44.26,32.045 44.239,32.03 C44.161,31.981 44.083,31.93 44.005,31.879 C43.989,31.869 43.974,31.859 43.958,31.849 C43.769,31.724 43.58,31.594 43.395,31.461 C43.394,31.46 43.393,31.459 43.393,31.459 C43.304,31.395 43.215,31.329 43.127,31.265 C43.105,31.247 43.082,31.23 43.06,31.212 C42.994,31.162 42.928,31.113 42.864,31.062 C42.834,31.04 42.804,31.016 42.775,30.993 C42.717,30.947 42.66,30.901 42.602,30.855 C42.57,30.829 42.539,30.802 42.506,30.776 C42.451,30.731 42.398,30.686 42.344,30.64 C42.311,30.613 42.278,30.584 42.244,30.556 C42.192,30.511 42.14,30.465 42.087,30.419 C42.055,30.391 42.022,30.361 41.988,30.333 C41.936,30.286 41.884,30.238 41.831,30.19 C41.801,30.162 41.769,30.134 41.738,30.105 C41.681,30.052 41.626,30.001 41.57,29.947 C41.545,29.923 41.518,29.898 41.493,29.873 C41.411,29.796 41.331,29.717 41.251,29.637 C37.999,26.385 36.208,22.062 36.208,17.462 C36.208,12.863 37.999,8.539 41.251,5.288 C42.593,3.946 44.118,2.853 45.77,2.032 L44.489,2.032 L16.936,2.032 C14.852,2.032 12.832,2.439 10.93,3.244 C9.093,4.021 7.443,5.134 6.025,6.552 C4.608,7.969 3.495,9.619 2.718,11.457 C1.913,13.358 1.506,15.379 1.506,17.462 C1.506,19.546 1.913,21.566 2.718,23.468 C3.494,25.305 4.608,26.956 6.025,28.373 C7.443,29.791 9.093,30.903 10.93,31.681 C12.831,32.485 14.852,32.893 16.936,32.893 L44.488,32.893 L45.769,32.893 C45.671,32.844 45.572,32.793 45.473,32.742 Z" id="Path" fill="#C7D0D6"></path>
            <path d="M25.357,6.017 C23.138,6.017 21.337,7.812 21.337,10.03 C21.337,10.153 21.35,10.276 21.359,10.395 L13.619,14.342 C12.918,13.742 12.006,13.384 11.014,13.384 C8.794,13.384 7,15.178 7,17.397 C7,19.614 8.794,21.408 11.014,21.408 C11.905,21.408 12.735,21.123 13.401,20.629 L21.353,24.675 C21.348,24.745 21.337,24.821 21.337,24.894 C21.337,27.112 23.138,28.906 25.357,28.906 C27.573,28.906 29.368,27.112 29.368,24.894 C29.368,22.676 27.573,20.874 25.357,20.874 C24.316,20.874 23.365,21.271 22.653,21.921 L14.976,17.997 C15.005,17.797 15.033,17.59 15.033,17.381 C15.033,17.263 15.018,17.146 15.009,17.031 L22.757,13.083 C23.458,13.677 24.368,14.034 25.357,14.034 C27.574,14.034 29.369,12.23 29.369,10.013 C29.369,7.795 27.574,6 25.357,6 L25.357,6.017 Z" id="Path" fill="#484D52" opacity="0.8"></path>
        </g>
        <g id="Sync" transform="translate(93.000000, 93.000000)">
            <use id="Combined-Shape" fill="#0098FF" xlink:href="#path-1"></use>
            <path d="M17.5,35 C27.1649831,35 35,27.1649831 35,17.5 C35,7.83501688 27.1649831,-6.39488462e-14 17.5,-6.39488462e-14 C7.83501688,-6.39488462e-14 3.90798505e-13,7.83501688 3.90798505e-13,17.5 C0.0109020486,27.1604637 7.83953626,34.989098 17.5,35 Z" id="icon" fill="#0098FF"></path>
            <path d="M10.3867151,14.5583589 L12.1820635,14.7837869 C12.6035441,14.8350937 12.9582323,15.123197 13.0987946,15.5251269 C13.2384721,15.924527 13.143506,16.3696998 12.8520784,16.6760548 L8.91080268,20.8155719 C8.70111313,21.0354478 8.4114115,21.1601173 8.14820914,21.1586604 C8.09813878,21.1623388 8.04786904,21.1623388 7.97006006,21.1559102 C7.62002482,21.1121717 7.3119837,20.9040047 7.13815625,20.5951409 L4.33174446,15.5930575 C4.12522195,15.2249011 4.14135835,14.770856 4.36980596,14.4244541 C4.60028174,14.0648401 5.01567119,13.8697741 5.4368707,13.9247953 L6.38311998,14.0458313 C7.63658445,9.9188745 10.9220858,6.74666196 15.0650767,5.68948291 C19.2291007,4.68544288 23.5982488,6.09515567 26.4277479,9.35372601 C27.1423147,10.174241 27.0673315,11.4251836 26.2592592,12.1521717 C25.446055,12.8837766 24.2002225,12.8066318 23.4806721,11.9803935 C21.6098221,9.82653668 18.7262674,8.89616565 15.9785641,9.55804643 C13.4304553,10.2162132 11.354142,12.0783438 10.3867151,14.5583589 Z M23.3154988,19.5591925 C22.8958953,19.5066121 22.5432042,19.2193309 22.4029102,18.8191187 C22.2634992,18.4214255 22.3567863,17.9780043 22.645167,17.6718219 L26.55801,13.5130837 C26.8006095,13.2491647 27.1554632,13.1198033 27.5011623,13.1660317 C27.8515886,13.206904 28.1613388,13.4125909 28.3383289,13.7213046 L31.1714104,18.7074757 C31.3805793,19.0739814 31.3678412,19.5279848 31.1383136,19.8820093 L31.1362631,19.8851484 C30.9292166,20.1997514 30.5787077,20.3889579 30.2451755,20.3856984 C30.196229,20.389244 30.147093,20.389244 30.0714274,20.3831023 L29.0958066,20.2640687 C27.8468694,24.3988528 24.5574467,27.5779561 20.4083192,28.6341513 C16.2442337,29.6381147 11.8750208,28.2289937 9.05273672,24.980274 C8.57133827,24.4520596 8.40955001,23.7023713 8.62866029,23.0196425 C8.84848453,22.334689 9.41788817,21.8227301 10.1180037,21.6836515 C10.8196189,21.544275 11.5399332,21.8017886 11.9915374,22.3454684 C13.8636813,24.5000374 16.7488189,25.4305661 19.4901858,24.7699509 C22.0412693,24.1151599 24.1203585,22.2519613 25.085054,19.774283 L23.3154988,19.5591925 Z" id="Combined-Shape" fill="#FFFFFF" fill-rule="nonzero"></path>
        </g>
    </g>
</svg>