<?xml version="1.0" encoding="UTF-8"?>
<!--
  - Infomaniak kDrive - Desktop
  - Copyright (C) 2023-2024 Infomaniak Network SA
  -
  - This program is free software: you can redistribute it and/or modify
  - it under the terms of the GNU General Public License as published by
  - the Free Software Foundation, either version 3 of the License, or
  - (at your option) any later version.
  -
  - This program is distributed in the hope that it will be useful,
  - but WITHOUT ANY WARRANTY; without even the implied warranty of
  - MERCHANTABILITY or FITNESS FOR A PARTICULAR PURPOSE.  See the
  - GNU General Public License for more details.
  -
  - You should have received a copy of the GNU General Public License
  - along with this program.  If not, see <http://www.gnu.org/licenses/>.
  -->

<svg width="131px" height="131px" viewBox="0 0 131 131" version="1.1" xmlns="http://www.w3.org/2000/svg" xmlns:xlink="http://www.w3.org/1999/xlink">
    <!-- Generator: Sketch 56.3 (81716) - https://sketch.com -->
    <title>SVG/Sync</title>
    <desc>Created with Sketch.</desc>
    <defs>
    </defs>
    <g id="SVG/Sync" stroke="none" stroke-width="1" fill="none" fill-rule="evenodd">
        <rect id="Rectangle" x="0" y="0" width="131" height="131"></rect>
        <g id="Sync" transform="translate(93.000000, 93.000000)">
            <path d="M17.5,35 C27.1649831,35 35,27.1649831 35,17.5 C35,7.83501688 27.1649831,-6.39488462e-14 17.5,-6.39488462e-14 C7.83501688,-6.39488462e-14 3.90798505e-13,7.83501688 3.90798505e-13,17.5 C0.0109020486,27.1604637 7.83953626,34.989098 17.5,35 Z" id="icon" fill="#0098FF"></path>
            <path d="M10.3867151,14.5583589 L12.1820635,14.7837869 C12.6035441,14.8350937 12.9582323,15.123197 13.0987946,15.5251269 C13.2384721,15.924527 13.143506,16.3696998 12.8520784,16.6760548 L8.91080268,20.8155719 C8.70111313,21.0354478 8.4114115,21.1601173 8.14820914,21.1586604 C8.09813878,21.1623388 8.04786904,21.1623388 7.97006006,21.1559102 C7.62002482,21.1121717 7.3119837,20.9040047 7.13815625,20.5951409 L4.33174446,15.5930575 C4.12522195,15.2249011 4.14135835,14.770856 4.36980596,14.4244541 C4.60028174,14.0648401 5.01567119,13.8697741 5.4368707,13.9247953 L6.38311998,14.0458313 C7.63658445,9.9188745 10.9220858,6.74666196 15.0650767,5.68948291 C19.2291007,4.68544288 23.5982488,6.09515567 26.4277479,9.35372601 C27.1423147,10.174241 27.0673315,11.4251836 26.2592592,12.1521717 C25.446055,12.8837766 24.2002225,12.8066318 23.4806721,11.9803935 C21.6098221,9.82653668 18.7262674,8.89616565 15.9785641,9.55804643 C13.4304553,10.2162132 11.354142,12.0783438 10.3867151,14.5583589 Z M23.3154988,19.5591925 C22.8958953,19.5066121 22.5432042,19.2193309 22.4029102,18.8191187 C22.2634992,18.4214255 22.3567863,17.9780043 22.645167,17.6718219 L26.55801,13.5130837 C26.8006095,13.2491647 27.1554632,13.1198033 27.5011623,13.1660317 C27.8515886,13.206904 28.1613388,13.4125909 28.3383289,13.7213046 L31.1714104,18.7074757 C31.3805793,19.0739814 31.3678412,19.5279848 31.1383136,19.8820093 L31.1362631,19.8851484 C30.9292166,20.1997514 30.5787077,20.3889579 30.2451755,20.3856984 C30.196229,20.389244 30.147093,20.389244 30.0714274,20.3831023 L29.0958066,20.2640687 C27.8468694,24.3988528 24.5574467,27.5779561 20.4083192,28.6341513 C16.2442337,29.6381147 11.8750208,28.2289937 9.05273672,24.980274 C8.57133827,24.4520596 8.40955001,23.7023713 8.62866029,23.0196425 C8.84848453,22.334689 9.41788817,21.8227301 10.1180037,21.6836515 C10.8196189,21.544275 11.5399332,21.8017886 11.9915374,22.3454684 C13.8636813,24.5000374 16.7488189,25.4305661 19.4901858,24.7699509 C22.0412693,24.1151599 24.1203585,22.2519613 25.085054,19.774283 L23.3154988,19.5591925 Z" id="Combined-Shape" fill="#FFFFFF" fill-rule="nonzero"></path>
        </g>
    </g>
</svg>