<svg width="77" height="101" viewBox="0 0 77 101" fill="none" xmlns="http://www.w3.org/2000/svg">
<path d="M8.60842 1.37213C4.80528 -0.282537 0.609375 2.62499 0.609375 6.91501V20.901V71.5036C0.609375 74.1213 2.30641 76.4369 4.80259 77.2251L68.8026 97.4355C72.6697 98.6567 76.6094 95.7693 76.6094 91.714V40.2983C76.6094 37.6806 74.9123 35.3651 72.4162 34.5768L25.204 19.6677L21.7961 9.30041C21.2617 7.67468 20.084 6.3649 18.5608 5.70218L8.60842 1.37213Z" fill="#0B47E1"/>
<path d="M0.583984 19.3141C0.583984 15.2505 4.53848 12.3622 8.40942 13.5985L72.4094 34.0388C74.8961 34.833 76.584 37.1439 76.584 39.7543V91.8844C76.584 95.948 72.6295 98.8363 68.7586 97.6L4.75856 77.1599C2.27184 76.3657 0.583984 74.0548 0.583984 71.4443V19.3141Z" fill="#5C89F7"/>
</svg>
