<svg width="101" height="73" viewBox="0 0 101 73" fill="none" xmlns="http://www.w3.org/2000/svg">
<path d="M23.3633 9.47121C23.8883 8.94504 24.7416 8.94409 25.2678 9.4691L52.9026 37.0425C53.4287 37.5675 53.429 38.4201 52.904 38.9463L31.2805 60.6179C30.7555 61.1441 29.9029 61.1457 29.3767 60.6207L10.9321 42.2171L10.911 21.9513L23.3633 9.47121Z" fill="white" stroke="#9F9F9F" stroke-width="0.409161"/>
<path d="M14.9458 35.9509L31.4761 19.3839" stroke="#F1F1F1" stroke-width="0.409161"/>
<path d="M19.5293 40.5242L36.0596 23.9571" stroke="#F1F1F1" stroke-width="0.409161"/>
<path d="M21.8218 42.8098L38.352 26.2428" stroke="#F1F1F1" stroke-width="0.409161"/>
<path d="M24.1118 45.0967L40.6421 28.5296" stroke="#F1F1F1" stroke-width="0.409161"/>
<path d="M28.6953 49.6697L45.2256 33.1026" stroke="#F1F1F1" stroke-width="0.409161"/>
<path d="M31.1953 52.1638L40.7569 42.581" stroke="#F1F1F1" stroke-width="0.409161"/>
<path d="M26.4038 47.3831L42.9341 30.816" stroke="#F1F1F1" stroke-width="0.409161"/>
<path d="M17.2378 38.2375L33.7681 21.6705" stroke="#F1F1F1" stroke-width="0.409161"/>
<path d="M19.6916 31.1222C20.2177 31.6471 20.2186 32.4991 19.6937 33.0253L10.9316 41.8069L10.9107 22.3608L19.6916 31.1222Z" fill="#FAFAFA" stroke="#9F9F9F" stroke-width="0.409161"/>
<path d="M49.1863 0.769281C49.8975 0.553313 50.6502 0.955349 50.8662 1.66658L62.2089 39.0205C62.4248 39.7317 62.0225 40.4835 61.3113 40.6994L32.0178 49.5945C31.3065 49.8105 30.5541 49.4094 30.3382 48.6982L22.7676 23.7666L32.317 5.89172L49.1863 0.769281Z" fill="white" stroke="#9F9F9F" stroke-width="0.409161"/>
<path d="M29.2646 20.1375L51.6583 13.3375" stroke="#F1F1F1" stroke-width="0.409161"/>
<path d="M31.1455 26.333L53.5392 19.5331" stroke="#F1F1F1" stroke-width="0.409161"/>
<path d="M32.0874 29.4302L54.4811 22.6302" stroke="#F1F1F1" stroke-width="0.409161"/>
<path d="M33.0264 32.5273L55.4201 25.7274" stroke="#F1F1F1" stroke-width="0.409161"/>
<path d="M34.9077 38.7224L57.3014 31.9225" stroke="#F1F1F1" stroke-width="0.409161"/>
<path d="M35.9336 42.1016L48.8867 38.1683" stroke="#F1F1F1" stroke-width="0.409161"/>
<path d="M33.9673 35.625L56.361 28.8251" stroke="#F1F1F1" stroke-width="0.409161"/>
<path d="M30.2051 23.2351L52.5988 16.4352" stroke="#F1F1F1" stroke-width="0.409161"/>
<path d="M35.7276 18.1217C35.9435 18.8329 35.5421 19.5844 34.8309 19.8004L22.9608 23.4048L32.1235 6.25258L35.7276 18.1217Z" fill="#FAFAFA" stroke="#9F9F9F" stroke-width="0.409161"/>
<path d="M94.0949 18.0752L98.6274 16.4366L97.7874 14.1133L93.255 15.7519L93.3368 10.8559L90.9284 10.8652L90.9609 15.7199L86.2644 14.4032L85.6992 16.89L90.4824 18.0893L87.6545 22.2985L89.621 23.5686L92.3654 19.6049L95.4724 23.4342L97.2887 21.7871L94.0949 18.0752Z" fill="#1F63FF"/>
<path d="M75.4865 10.5527L77.064 9.98247L76.7716 9.17388L75.1942 9.74416L75.2227 8.04021L74.3845 8.04346L74.3958 9.73303L72.7613 9.27478L72.5646 10.1403L74.2293 10.5576L73.2451 12.0226L73.9295 12.4646L74.8846 11.0851L75.966 12.4178L76.5981 11.8446L75.4865 10.5527Z" fill="#B8CDFF"/>
<path d="M94.7462 37.8792L97.1015 37.0277L96.6651 35.8204L94.3097 36.6719L94.3523 34.1277L93.1008 34.1325L93.1176 36.6553L90.6771 35.971L90.3834 37.2633L92.869 37.8865L91.3995 40.0739L92.4213 40.7339L93.8475 38.6741L95.4621 40.664L96.4059 39.8081L94.7462 37.8792Z" fill="#5C89F7"/>
<circle cx="60.2375" cy="44.2355" r="28.6413" fill="#5C89F7"/>
<path d="M67.5293 29.6543C68.2411 29.6544 68.9253 29.9316 69.4355 30.4277C69.4364 30.4285 69.4367 30.4299 69.4375 30.4307L73.083 33.9336C73.3443 34.1883 73.5516 34.4929 73.6934 34.8291C73.8352 35.1653 73.9082 35.5267 73.9082 35.8916V56.082C73.9082 56.8071 73.6201 57.5029 73.1074 58.0156C72.5948 58.5281 71.8997 58.8164 71.1748 58.8164H49.3037C48.5787 58.8164 47.8828 58.5283 47.3701 58.0156C46.8574 57.5029 46.5693 56.8071 46.5693 56.082V32.3887C46.5693 31.6636 46.8574 30.9678 47.3701 30.4551C47.8828 29.9424 48.5786 29.6543 49.3037 29.6543H67.5293ZM49.3037 31.4766C49.062 31.4766 48.8301 31.5732 48.6592 31.7441C48.4883 31.915 48.3916 32.147 48.3916 32.3887V56.082C48.3916 56.3237 48.4883 56.5557 48.6592 56.7266C48.8301 56.8974 49.0621 56.9932 49.3037 56.9932H71.1748C71.4165 56.9931 71.6485 56.8974 71.8193 56.7266C71.9901 56.5557 72.0859 56.3236 72.0859 56.082V35.8916C72.0859 35.77 72.0619 35.6491 72.0146 35.5371C71.9677 35.4259 71.8987 35.3247 71.8125 35.2402L71.8105 35.2393L68.165 31.7354C67.9949 31.5697 67.7667 31.4766 67.5293 31.4766H49.3037ZM57.8193 45.6885C58.1137 45.2807 58.6828 45.1885 59.0908 45.4824C59.499 45.7769 59.5913 46.3467 59.2969 46.7549L57.0303 49.8975C56.8863 50.0967 56.7004 50.2643 56.4844 50.3867C56.268 50.5092 56.0268 50.5831 55.7773 50.6016C55.5278 50.6199 55.2775 50.5825 55.0449 50.4922C54.8126 50.402 54.6047 50.2618 54.4336 50.084L53.2031 48.8047C52.8543 48.4419 52.8658 47.8655 53.2285 47.5166C53.5913 47.1678 54.1677 47.1792 54.5166 47.542L55.6396 48.709L57.8193 45.6885ZM66.6182 47.9551C67.1214 47.9551 67.5292 48.363 67.5293 48.8662C67.5293 49.3695 67.1215 49.7773 66.6182 49.7773H61.834C61.3307 49.7773 60.9229 49.3695 60.9229 48.8662C60.923 48.363 61.3307 47.9551 61.834 47.9551H66.6182ZM66.6182 41.3213C67.1215 41.3213 67.5293 41.7301 67.5293 42.2334C67.5291 42.7365 67.1214 43.1445 66.6182 43.1445H61.834C61.3308 43.1445 60.923 42.7365 60.9229 42.2334C60.9229 41.7301 61.3307 41.3213 61.834 41.3213H66.6182ZM57.8193 38.2266C58.1137 37.8185 58.6827 37.7263 59.0908 38.0205C59.499 38.315 59.5913 38.8848 59.2969 39.293L57.0303 42.4346C56.8862 42.634 56.7006 42.8023 56.4844 42.9248C56.268 43.0473 56.0268 43.1212 55.7773 43.1396C55.5278 43.158 55.2775 43.1206 55.0449 43.0303C54.8127 42.9401 54.6047 42.7998 54.4336 42.6221L53.2031 41.3438C52.8543 40.9813 52.8653 40.4047 53.2275 40.0557C53.5902 39.7066 54.1676 39.7175 54.5166 40.0801L55.6396 41.2471L57.8193 38.2266Z" fill="white"/>
</svg>
