<svg width="184" height="122" viewBox="0 0 184 122" fill="none" xmlns="http://www.w3.org/2000/svg">
<ellipse cx="43.1631" cy="33.4919" rx="31.9619" ry="32.5505" fill="#F5F5F5"/>
<path d="M78.0621 20.2285L79.4615 21.0732L105.306 55.2246C105.309 55.2434 105.312 55.2665 105.316 55.2939C105.327 55.3774 105.344 55.5003 105.365 55.6562C105.407 55.9685 105.468 56.4157 105.543 56.9531C105.692 58.0278 105.895 59.4661 106.114 60.9199C106.333 62.3735 106.568 63.8446 106.779 64.9844C106.884 65.5537 106.984 66.0436 107.073 66.4082C107.117 66.5899 107.16 66.7448 107.201 66.8643C107.221 66.9239 107.242 66.979 107.264 67.0254C107.284 67.0674 107.314 67.1207 107.355 67.1631C107.429 67.2386 107.626 67.3968 107.893 67.6025C108.167 67.814 108.532 68.088 108.954 68.4023C109.798 69.0312 110.879 69.8228 111.943 70.5986C113.007 71.3745 114.056 72.1348 114.839 72.7012C115.231 72.9844 115.556 73.2199 115.783 73.3838C115.896 73.4657 115.986 73.5295 116.047 73.5732C116.077 73.5951 116.1 73.6118 116.116 73.623C116.124 73.6287 116.129 73.6338 116.133 73.6367C116.135 73.6381 116.137 73.6389 116.138 73.6396L116.139 73.6406L116.152 73.6494L116.165 73.6562L130.466 81.2686C130.47 81.2709 130.475 81.2736 130.48 81.2773C130.494 81.287 130.515 81.3017 130.542 81.3203C130.596 81.3577 130.677 81.4121 130.781 81.4824C130.989 81.6232 131.294 81.8263 131.676 82.0742C132.442 82.5702 133.524 83.2481 134.787 83.9746C137.307 85.4252 140.566 87.0799 143.48 87.8672C146.342 88.6403 151.844 91.1618 156.65 93.502C159.049 94.6699 161.267 95.7898 162.886 96.6172C163.696 97.0308 164.355 97.3712 164.812 97.6084C165.041 97.727 165.219 97.8197 165.339 97.8828C165.4 97.9143 165.446 97.9389 165.477 97.9551C165.482 97.9576 165.487 97.9597 165.491 97.9619C165.492 97.9632 165.493 97.9644 165.495 97.9658C165.513 97.9854 165.542 98.0147 165.578 98.0527C165.65 98.1287 165.756 98.2408 165.891 98.3828C166.162 98.6671 166.55 99.073 167.015 99.5625C167.946 100.542 169.191 101.853 170.445 103.179C171.699 104.505 172.963 105.846 173.932 106.887C174.417 107.407 174.828 107.852 175.128 108.182C175.277 108.346 175.398 108.482 175.486 108.583C175.53 108.634 175.565 108.675 175.59 108.707C175.603 108.723 175.614 108.735 175.622 108.745C175.629 108.755 175.632 108.76 175.632 108.76C175.644 108.778 175.676 108.841 175.733 108.959C175.788 109.072 175.859 109.224 175.945 109.41C176.117 109.782 176.346 110.288 176.612 110.881C177.144 112.068 177.824 113.604 178.495 115.125C179.165 116.646 179.826 118.152 180.319 119.277C180.565 119.84 180.77 120.308 180.913 120.635C180.946 120.71 180.975 120.778 181.002 120.838L1.02893 120.741C1.3057 120.5 1.76813 120.125 2.52112 119.58C4.11413 118.428 7.00069 116.519 12.1656 113.499C22.5638 107.42 27.0371 98.0595 28.9791 94.4336C30.9539 90.7466 30.6522 89.1419 34.5592 85.8721C36.5273 84.225 38.806 82.4242 40.6803 80.6504C41.6186 79.7624 42.462 78.8751 43.1188 78.0098C43.774 77.1465 44.2539 76.2926 44.4498 75.4707C44.5366 75.1065 44.8022 74.4607 45.2135 73.5879C45.6216 72.7219 46.1647 71.65 46.7946 70.4404C48.0551 68.0199 49.6583 65.0607 51.2223 62.1133C52.7848 59.1687 54.3068 56.2372 55.4 53.8818C55.9464 52.7047 56.3886 51.6665 56.6744 50.8398C56.8173 50.4267 56.9231 50.0612 56.983 49.7549C57.0417 49.4552 57.0619 49.1857 57.0114 48.9785C56.8524 48.3265 56.6369 47.7705 56.4362 47.2842C56.2327 46.7912 56.0523 46.3865 55.944 46.0107C55.8375 45.6414 55.8095 45.3262 55.8981 45.0205C55.9869 44.7141 56.201 44.3875 56.6334 44.0137C57.0606 43.6444 57.4267 43.4795 57.7565 43.3945C58.1031 43.3052 58.3936 43.3033 58.7448 43.2578C59.0855 43.2136 59.4374 43.129 59.8033 42.8643C60.1642 42.6032 60.5225 42.18 60.9069 41.4902C61.6299 40.1928 62.6459 39.5316 63.4645 38.9756C63.8653 38.7033 64.2432 38.4403 64.486 38.1318C64.744 37.8038 64.8508 37.4228 64.7213 36.9434C64.6202 36.5692 64.5832 35.8244 64.5924 34.8867C64.6015 33.9598 64.655 32.8738 64.7223 31.8359C64.7895 30.7986 64.87 29.8116 64.9342 29.084C64.9663 28.7204 64.9944 28.4217 65.0143 28.2139C65.0242 28.1101 65.0323 28.0288 65.0377 27.9736C65.0387 27.9634 65.0388 27.9537 65.0397 27.9453L71.3014 18.9756L78.0621 20.2285Z" fill="white" stroke="#9F9F9F" stroke-width="0.441405"/>
<path d="M95.723 90.6201L95.5892 82.0498L95.723 72.791L95.724 72.7168L95.6801 72.6572C90.3783 65.4485 88.4903 59.8563 87.9222 56.0801C87.6382 54.1917 87.6843 52.7551 87.7992 51.7949C87.8566 51.3147 87.9319 50.9532 87.9916 50.7139C88.0214 50.5942 88.0475 50.5046 88.0658 50.4463C88.0748 50.4177 88.0816 50.3964 88.0863 50.3828C88.0887 50.376 88.0901 50.3701 88.0912 50.3672C88.0917 50.3659 88.092 50.3647 88.0922 50.3643V50.3633L88.139 50.2422L88.0531 50.1436L86.351 48.1602L88.4047 42.8955L88.4418 42.8008L88.3939 42.7109L86.2924 38.7783L86.2631 38.7236L86.2084 38.6914L81.7201 36.0859C81.4602 32.9834 79.9505 30.6622 78.5043 29.1172C77.7718 28.3348 77.0534 27.749 76.5179 27.3584C76.2503 27.1632 76.0277 27.0163 75.8715 26.918C75.7934 26.8688 75.7313 26.8317 75.6888 26.8066C75.6859 26.8049 75.6828 26.8034 75.6801 26.8018L71.6273 19.002L78.0834 20.1982L79.4808 21.042L105.327 55.1924L105.385 55.626C105.428 55.9382 105.489 56.3855 105.564 56.9229C105.713 57.9975 105.918 59.4357 106.137 60.8896C106.356 62.3431 106.591 63.8144 106.801 64.9541C106.906 65.5235 107.006 66.0134 107.095 66.3779C107.139 66.5597 107.182 66.7146 107.222 66.834C107.242 66.8935 107.264 66.9478 107.286 66.9941C107.305 67.036 107.333 67.0895 107.374 67.1318C107.448 67.2078 107.646 67.3664 107.912 67.5723C108.186 67.7837 108.55 68.0578 108.972 68.3721C109.816 69.0009 110.897 69.7925 111.961 70.5684C113.026 71.3443 114.076 72.1055 114.86 72.6719C115.251 72.9549 115.577 73.1897 115.804 73.3535C115.917 73.4351 116.006 73.4992 116.067 73.543C116.097 73.5646 116.12 73.5815 116.136 73.5928C116.144 73.5984 116.151 73.6036 116.155 73.6064C116.156 73.6077 116.158 73.6087 116.159 73.6094L116.16 73.6104H116.161L116.172 73.6191L116.186 73.626L130.491 81.2402C130.493 81.2422 130.497 81.2445 130.5 81.2471C130.514 81.2568 130.536 81.2713 130.563 81.29C130.617 81.3275 130.698 81.3819 130.802 81.4521C131.011 81.593 131.315 81.796 131.698 82.0439C132.463 82.5399 133.545 83.2178 134.807 83.9443C137.328 85.395 140.586 87.0496 143.5 87.8369C146.362 88.6099 151.864 91.1315 156.67 93.4717C159.069 94.6396 161.288 95.7595 162.907 96.5869C163.716 97.0006 164.376 97.3409 164.833 97.5781C165.062 97.6965 165.239 97.7895 165.36 97.8525C165.42 97.8841 165.466 97.9086 165.497 97.9248C165.503 97.9278 165.508 97.9302 165.513 97.9326C165.514 97.9335 165.515 97.9346 165.516 97.9355C165.535 97.9552 165.562 97.9846 165.598 98.0225C165.67 98.0985 165.777 98.2103 165.912 98.3525C166.183 98.6369 166.57 99.0436 167.036 99.5332C167.966 100.513 169.211 101.824 170.465 103.15C171.72 104.477 172.984 105.819 173.953 106.859C174.438 107.379 174.849 107.824 175.148 108.153C175.297 108.318 175.419 108.453 175.507 108.554C175.551 108.604 175.586 108.646 175.612 108.678C175.619 108.687 175.626 108.694 175.631 108.701L175.654 108.736C175.665 108.754 175.697 108.816 175.754 108.934C175.809 109.046 175.88 109.198 175.966 109.384C176.138 109.756 176.366 110.261 176.632 110.854C177.164 112.041 177.845 113.577 178.515 115.099C179.185 116.62 179.846 118.126 180.339 119.252C180.586 119.815 180.791 120.282 180.934 120.609C180.967 120.685 180.996 120.753 181.022 120.812L97.5052 120.769C97.0985 117.866 97.0859 115.068 97.0804 112.8V112.799C97.0664 109.421 96.8557 107.863 96.5765 106.826C96.4374 106.309 96.2811 105.923 96.1342 105.523C95.9873 105.124 95.8446 104.697 95.7191 104.078C95.4743 102.87 95.7965 101.458 96.1967 100.327C96.3953 99.7658 96.6099 99.2817 96.7748 98.9385C96.8572 98.767 96.9269 98.6309 96.976 98.5381C97.0004 98.4919 97.0196 98.4564 97.0326 98.4326C97.0391 98.4207 97.044 98.4111 97.0472 98.4053C97.0488 98.4025 97.0504 98.4007 97.0511 98.3994L97.0521 98.3975L97.098 98.3164L97.0726 98.2275C96.3971 95.8863 96.0594 93.981 95.891 92.6631C95.8068 92.0042 95.7645 91.4918 95.7435 91.1455C95.7331 90.9725 95.7285 90.8408 95.726 90.7529C95.7247 90.709 95.7233 90.676 95.723 90.6543V90.6201Z" fill="#F1F1F1" stroke="#9F9F9F" stroke-width="0.441405"/>
<path d="M160.636 81.0562L157.094 81.355L156.698 81.3882L156.935 81.7065L165.569 93.2876L161.808 93.5903L161.445 93.6196L161.639 93.9272L168.1 104.198L164.305 104.497L163.966 104.524L164.13 104.823L172.82 120.69L165.906 120.598L165.578 120.593L165.593 120.631L131.88 120.811L140.573 104.941L140.737 104.642L140.397 104.615L136.6 104.309L143.063 94.0386L143.258 93.73L142.893 93.7017L139.133 93.4058L147.767 81.8247L148.004 81.5073L147.609 81.4731L144.071 81.1685L152.321 66.5698L152.435 66.5552L160.636 81.0562Z" fill="#F5F5F5" stroke="#9F9F9F" stroke-width="0.441405"/>
<path d="M173.392 90.125L170.633 90.3496L170.228 90.3818L170.477 90.7041L177.324 99.5693L174.405 99.7949L174.033 99.8242L174.238 100.136L179.358 107.991L176.403 108.216L176.056 108.242L176.228 108.545L183.135 120.717L177.686 120.646L177.355 120.643L177.366 120.673L150.546 120.811L157.456 108.636L157.628 108.334L157.281 108.307L154.325 108.077L159.448 100.222L159.651 99.9092L159.279 99.8809L156.359 99.6592L163.207 90.7949L163.456 90.4736L163.051 90.4404L160.297 90.2109L166.866 78.9912L173.392 90.125Z" fill="white" stroke="#9F9F9F" stroke-width="0.441405"/>
<path fill-rule="evenodd" clip-rule="evenodd" d="M147.81 46.651H145.785C144.808 44.165 142.443 42.4106 139.678 42.4106C136.781 42.4106 134.322 44.338 133.44 47.015C132.923 46.7822 132.352 46.651 131.752 46.651C129.703 46.651 127.996 48.1551 127.613 50.1493H125.627C124.064 50.1493 122.796 51.4545 122.796 53.0644C122.796 54.6744 124.064 55.9796 125.627 55.9796H147.81C150.312 55.9796 152.34 53.8914 152.34 51.3154C152.34 48.7392 150.312 46.651 147.81 46.651Z" fill="#F5F5F5"/>
</svg>
