<?xml version="1.0" encoding="UTF-8"?>
<!--
  - Infomaniak kDrive - Desktop
  - Copyright (C) 2023-2024 Infomaniak Network SA
  -
  - This program is free software: you can redistribute it and/or modify
  - it under the terms of the GNU General Public License as published by
  - the Free Software Foundation, either version 3 of the License, or
  - (at your option) any later version.
  -
  - This program is distributed in the hope that it will be useful,
  - but WITHOUT ANY WARRANTY; without even the implied warranty of
  - MERCHANTABILITY or FITNESS FOR A PARTICULAR PURPOSE.  See the
  - GNU General Public License for more details.
  -
  - You should have received a copy of the GNU General Public License
  - along with this program.  If not, see <http://www.gnu.org/licenses/>.
  -->

<svg width="232px" height="132px" viewBox="0 0 232 132" version="1.1" xmlns="http://www.w3.org/2000/svg" xmlns:xlink="http://www.w3.org/1999/xlink">
    <title>accueil-fonctionnalite-6</title>
    <defs>
        <rect id="path-1" x="0" y="0.695355908" width="39.7323606" height="24.2566313"></rect>
        <path d="M7.47104216,14.9420843 C11.5971848,14.9420843 14.9420843,11.5971848 14.9420843,7.47104216 C14.9420843,3.34489951 11.5971848,-7.10542736e-15 7.47104216,-7.10542736e-15 C3.34489951,-7.10542736e-15 4.61852778e-14,3.34489951 4.61852778e-14,7.47104216 C0.00465426654,11.5952554 3.34682891,14.93743 7.47104216,14.9420843 Z" id="path-3"></path>
        <path d="M7.74774742,15.4954948 C12.0267102,15.4954948 15.4954948,12.0267102 15.4954948,7.74774742 C15.4954948,3.46878467 12.0267102,-2.34479103e-13 7.74774742,-2.34479103e-13 C3.46878467,-2.34479103e-13 4.79616347e-14,3.46878467 4.79616347e-14,7.74774742 C0.00482664678,12.0247093 3.47078553,15.4906682 7.74774742,15.4954948 Z" id="path-5"></path>
        <path d="M7.74774742,15.4954948 C12.0267102,15.4954948 15.4954948,12.0267102 15.4954948,7.74774742 C15.4954948,3.46878467 12.0267102,-2.34479103e-13 7.74774742,-2.34479103e-13 C3.46878467,-2.34479103e-13 4.79616347e-14,3.46878467 4.79616347e-14,7.74774742 C0.00482664678,12.0247093 3.47078553,15.4906682 7.74774742,15.4954948 Z" id="path-7"></path>
        <path d="M7.74774742,15.4954948 C12.0267102,15.4954948 15.4954948,12.0267102 15.4954948,7.74774742 C15.4954948,3.46878467 12.0267102,-2.34479103e-13 7.74774742,-2.34479103e-13 C3.46878467,-2.34479103e-13 4.79616347e-14,3.46878467 4.79616347e-14,7.74774742 C0.00482664678,12.0247093 3.47078553,15.4906682 7.74774742,15.4954948 Z" id="path-9"></path>
    </defs>
    <g id="Assistant" stroke="none" stroke-width="1" fill="none" fill-rule="evenodd">
        <g id="Drive---App-Desktop---Smart-sync" transform="translate(-845.000000, -451.000000)">
            <g id="app" transform="translate(668.000000, 290.000000)">
                <g id="accueil-fonctionnalite-6" transform="translate(177.000000, 161.000000)">
                    <path d="M49.4947503,13.0525455 L49.4947503,130.22223 L228.44174,130.22223 C229.870424,130.22223 231.040111,129.052545 231.040111,127.623859 L231.040111,13.0525455 L49.4947503,13.0525455 Z" id="Fill-20" fill="#FFFFFF" fill-rule="nonzero"></path>
                    <path d="M0.417252867,13.0525455 L0.417252867,127.623859 C0.417252867,129.052545 1.43786868,130.22223 2.68610386,130.22223 L43.2706348,130.22223 L43.2706348,13.0525455 L0.417252867,13.0525455 Z" id="Fill-22" fill="#FBFBFB" fill-rule="nonzero"></path>
                    <g id="Group-26" transform="translate(0.000000, 0.287652)" fill="#619FF3" fill-rule="nonzero">
                        <g id="Fill-24-Clipped">
                            <path d="M228.441908,129.517325 L3.01520275,129.517325 C1.81272069,129.517325 0.834758002,128.539362 0.834758002,127.336039 L0.834758002,12.7647255 L230.623194,12.7647255 L230.623194,127.336039 C230.623194,128.539362 229.644391,129.517325 228.441908,129.517325 M3.01520275,0.0907327377 C1.35275028,0.0907327377 -0.000252268964,1.44289438 -0.000252268964,3.10618776 L-0.000252268964,127.336039 C-0.000252268964,128.999333 1.35275028,130.351494 3.01520275,130.351494 L228.441908,130.351494 C230.104361,130.351494 231.457364,128.999333 231.457364,127.336039 L231.457364,3.10618776 C231.457364,1.44289438 230.104361,0.0907327377 228.441908,0.0907327377 L3.01520275,0.0907327377 Z" id="Fill-24"></path>
                        </g>
                    </g>
                    <path d="M222.031754,4.45639637 L158.431384,4.45639637 C157.074177,4.45639637 155.964194,5.56637981 155.964194,6.92442773 C155.964194,8.28079385 157.074177,9.39077729 158.431384,9.39077729 L222.031754,9.39077729 C223.388961,9.39077729 224.498944,8.28079385 224.498944,6.92442773 C224.498944,5.56637981 223.388961,4.45639637 222.031754,4.45639637" id="Fill-27" fill="#FFFFFF" fill-rule="nonzero"></path>
                    <g id="Group-12" transform="translate(7.836567, 22.085372)" fill="#E9E9E9" fill-rule="nonzero">
                        <path d="M1.00529183,2.00974277 L20.3862754,2.00974277 C20.9395853,2.00974277 21.3911468,1.55734045 21.3911468,1.00487138 C21.3911468,0.451561486 20.9395853,4.73972734e-15 20.3862754,4.73972734e-15 L1.00529183,4.73972734e-15 C0.452822766,4.73972734e-15 0.000420448249,0.451561486 0.000420448249,1.00487138 C0.000420448249,1.55734045 0.452822766,2.00974277 1.00529183,2.00974277" id="Fill-29"></path>
                        <path d="M1.00529183,11.251364 L12.0613996,11.251364 C12.613868,11.251364 13.066271,10.7989616 13.066271,10.2464926 C13.066271,9.69318267 12.613868,9.24078035 12.0613996,9.24078035 L1.00529183,9.24078035 C0.452822766,9.24078035 0.000420448249,9.69318267 0.000420448249,10.2464926 C0.000420448249,10.7989616 0.452822766,11.251364 1.00529183,11.251364" id="Fill-31"></path>
                        <path d="M23.2886298,18.482738 L1.00487138,18.482738 C0.452402318,18.482738 4.45821626e-13,18.9351403 4.45821626e-13,19.4876093 C4.45821626e-13,20.0409192 0.452402318,20.4933215 1.00487138,20.4933215 L23.2886298,20.4933215 C23.8410989,20.4933215 24.2935012,20.0409192 24.2935012,19.4876093 C24.2935012,18.9351403 23.8410989,18.482738 23.2886298,18.482738" id="Fill-33"></path>
                        <path d="M17.8659403,27.7243593 L1.00512365,27.7243593 C0.452654587,27.7243593 0.000252268949,28.1767617 0.000252268949,28.7292307 C0.000252268949,29.2825406 0.452654587,29.7349429 1.00512365,29.7349429 L17.8659403,29.7349429 C18.4184093,29.7349429 18.8708117,29.2825406 18.8708117,28.7292307 C18.8708117,28.1767617 18.4184093,27.7243593 17.8659403,27.7243593" id="Fill-35"></path>
                        <path d="M12.0613996,36.9660648 L1.00529183,36.9660648 C0.452822766,36.9660648 0.000420448249,37.4184671 0.000420448249,37.9709361 C0.000420448249,38.524246 0.452822766,38.9758074 1.00529183,38.9758074 L12.0613996,38.9758074 C12.613868,38.9758074 13.066271,38.524246 13.066271,37.9709361 C13.066271,37.4184671 12.613868,36.9660648 12.0613996,36.9660648" id="Fill-37"></path>
                    </g>
                    <g id="Group-9" transform="translate(54.981698, 23.448077)" fill-rule="nonzero">
                        <path d="M36.7062277,29.6171338 L0.886136753,29.6171338 C0.39866904,29.6171338 -1.97172661e-13,29.2184648 -1.97172661e-13,28.731922 L-1.97172661e-13,0.885211837 C-1.97172661e-13,0.398669111 0.39866904,0 0.886136753,0 L13.9950415,0 C16.8180993,0 18.4839994,4.15781313 21.6594769,4.15781313 L36.7062277,4.15781313 C37.1936954,4.15781313 37.5923651,4.55555718 37.5923651,5.04302489 L37.5923651,28.731922 C37.5923651,29.2184648 37.1936954,29.6171338 36.7062277,29.6171338" id="Fill-39" fill="#9F9F9F"></path>
                        <path d="M29.0163549,35.807512 L8.57600938,35.807512 C7.96829343,35.807512 7.47065084,36.3051546 7.47065084,36.9128705 C7.47065084,37.5215115 7.96829343,38.0182291 8.57600938,38.0182291 L29.0163549,38.0182291 C29.6240708,38.0182291 30.1217135,37.5215115 30.1217135,36.9128705 C30.1217135,36.3051546 29.6240708,35.807512 29.0163549,35.807512" id="Fill-54" fill="#E9E9E9"></path>
                    </g>
                    <g id="Group-10" transform="translate(113.197613, 23.448077)" fill-rule="nonzero">
                        <path d="M36.7062284,29.6171338 L0.885211766,29.6171338 C0.39866904,29.6171338 1.12236746e-12,29.2184648 1.12236746e-12,28.731922 L1.12236746e-12,0.885211837 C1.12236746e-12,0.398669111 0.39866904,0 0.885211766,0 L13.9950415,0 C16.8171743,0 18.4830751,4.15781313 21.6594776,4.15781313 L36.7062284,4.15781313 C37.1927711,4.15781313 37.5914402,4.55555718 37.5914402,5.04302489 L37.5914402,28.731922 C37.5914402,29.2184648 37.1927711,29.6171338 36.7062284,29.6171338" id="Fill-41" fill="#9F9F9F"></path>
                        <path d="M29.0159851,35.807512 L8.57563972,35.807512 C7.96792381,35.807512 7.47028118,36.3051546 7.47028118,36.9128705 C7.47028118,37.5215115 7.96792381,38.0182291 8.57563972,38.0182291 L29.0159851,38.0182291 C29.6237011,38.0182291 30.1213436,37.5215115 30.1213436,36.9128705 C30.1213436,36.3051546 29.6237011,35.807512 29.0159851,35.807512" id="Fill-55" fill="#E9E9E9"></path>
                    </g>
                    <g id="Group-11" transform="translate(171.413528, 23.448077)" fill-rule="nonzero">
                        <path d="M36.7062277,29.6171338 L0.886136753,29.6171338 C0.399594026,29.6171338 -2.02228371e-13,29.2184648 -2.02228371e-13,28.731922 L-2.02228371e-13,0.885211837 C-2.02228371e-13,0.398669111 0.399594026,0 0.886136753,0 L13.9950415,0 C16.8180993,0 18.4839994,4.15781313 21.6594769,4.15781313 L36.7062277,4.15781313 C37.1936954,4.15781313 37.5923651,4.55555718 37.5923651,5.04302489 L37.5923651,28.731922 C37.5923651,29.2184648 37.1936954,29.6171338 36.7062277,29.6171338" id="Fill-43" fill="#9F9F9F"></path>
                        <path d="M29.0163551,35.807512 L8.57600929,35.807512 C7.96829338,35.807512 7.47065082,36.3051546 7.47065082,36.9128705 C7.47065082,37.5215115 7.96829338,38.0182291 8.57600929,38.0182291 L29.0163551,38.0182291 C29.6240711,38.0182291 30.1217136,37.5215115 30.1217136,36.9128705 C30.1217136,36.3051546 29.6240711,35.807512 29.0163551,35.807512" id="Fill-56" fill="#E9E9E9"></path>
                    </g>
                    <g id="Group-8" transform="translate(54.981698, 83.281101)" fill-rule="nonzero">
                        <path d="M36.7062277,29.6171344 L0.886136753,29.6171344 C0.39866904,29.6171344 -1.97172661e-13,29.2184653 -1.97172661e-13,28.7319226 L-1.97172661e-13,0.885212478 C-1.97172661e-13,0.39866904 0.39866904,0 0.886136753,0 L13.9950415,0 C16.8180993,0 18.4839994,4.15781355 21.6594769,4.15781355 L36.7062277,4.15781355 C37.1936954,4.15781355 37.5923651,4.55555761 37.5923651,5.04302532 L37.5923651,28.7319226 C37.5923651,29.2184653 37.1936954,29.6171344 36.7062277,29.6171344" id="Fill-45" fill="#9F9F9F"></path>
                        <path d="M29.0163549,35.8075122 L8.57600938,35.8075122 C7.96829343,35.8075122 7.47065084,36.3051549 7.47065084,36.9128708 C7.47065084,37.5215118 7.96829343,38.0191543 8.57600938,38.0191543 L29.0163549,38.0191543 C29.6240708,38.0191543 30.1217135,37.5215118 30.1217135,36.9128708 C30.1217135,36.3051549 29.6240708,35.8075122 29.0163549,35.8075122" id="Fill-57" fill="#E9E9E9"></path>
                    </g>
                    <g id="Group-7" transform="translate(113.197613, 88.940981)" fill-rule="nonzero">
                        <polygon id="Fill-47" fill="#EDEBEA" points="1.12995102e-12 23.8331951 37.5914402 23.8331951 37.5914402 1.01114185e-14 1.12995102e-12 1.01114185e-14"></polygon>
                        <path d="M18.1540568,4.54010963 C18.1540568,6.0672618 16.9155003,7.30581828 15.3883482,7.30581828 C13.860271,7.30581828 12.6226395,6.0672618 12.6226395,4.54010963 C12.6226395,3.01295746 13.860271,1.77440097 15.3883482,1.77440097 C16.9155003,1.77440097 18.1540568,3.01295746 18.1540568,4.54010963" id="Fill-49" fill="#FFFFFF"></path>
                        <polygon id="Fill-50" fill="#FFFFFF" points="37.5914402 13.1386893 35.0671529 14.8591636 25.450071 2.70391958 16.2714325 11.5375382 7.77543447 5.59265139 1.12995102e-12 10.7013507 1.12995102e-12 21.8085854 37.5914402 21.8085854"></polygon>
                        <polygon id="Fill-51" fill="#FD6222" points="37.5914402 23.8329176 1.12995102e-12 23.8329176 1.12995102e-12 8.69366824 37.5914402 18.1831014"></polygon>
                        <polygon id="Fill-52" fill="#B73816" points="35.932015 21.7064669 31.0850867 3.69698473 27.5063152 16.9945866 25.449146 11.6148671 21.5919536 21.7064669 24.3641372 21.7064669 24.3641372 23.8330101 26.5350797 23.8330101 26.5350797 21.7064669 29.3072633 21.7064669 29.9991529 21.7064669 29.9991529 23.8330101 32.1710212 23.8330101 32.1710212 21.7064669"></polygon>
                        <polygon id="Fill-53" fill="#D14311" points="7.77506448 3.69726223 2.92813623 21.7067444 6.68913071 21.7067444 6.68913071 23.8332876 8.86099824 23.8332876 8.86099824 21.7067444 12.621992 21.7067444"></polygon>
                        <path d="M29.0158926,30.1018268 L8.57554722,30.1018268 C7.96783131,30.1018268 7.47018868,30.5994695 7.47018868,31.2071854 C7.47018868,31.8158264 7.96783131,32.3134689 8.57554722,32.3134689 L29.0158926,32.3134689 C29.6236086,32.3134689 30.1212511,31.8158264 30.1212511,31.2071854 C30.1212511,30.5994695 29.6236086,30.1018268 29.0158926,30.1018268" id="Fill-58" fill="#E9E9E9"></path>
                    </g>
                    <g id="Group-6" transform="translate(169.796419, 88.132427)">
                        <path d="M30.2836348,30.910381 L9.84328899,30.910381 C9.23557307,30.910381 8.73793051,31.4080236 8.73793051,32.0157395 C8.73793051,32.6243805 9.23557307,33.1220231 9.84328899,33.1220231 L30.2836348,33.1220231 C30.8913507,33.1220231 31.3889933,32.6243805 31.3889933,32.0157395 C31.3889933,31.4080236 30.8913507,30.910381 30.2836348,30.910381" id="Fill-59" fill="#E9E9E9" fill-rule="nonzero"></path>
                        <polygon id="Fill-60" fill="#E9E9E9" fill-rule="nonzero" points="1.61710875 24.6417494 39.2085489 24.6417494 39.2085489 0.808554377 1.61710875 0.808554377"></polygon>
                        <g id="Rectangle-Copy-8">
                            <mask id="mask-2" fill="white">
                                <use xlink:href="#path-1"></use>
                            </mask>
                            <use id="Rectangle-Copy-3" fill="#D3E3FF" xlink:href="#path-1"></use>
                            <polygon id="Fill-51-Copy" fill="#5C89F7" fill-rule="nonzero" mask="url(#mask-2)" points="12.2613545 20.8303382 10.3818156 18.7539306 11.8800872 19.3238685 8.10052537 4.38985623 5.83950864 13.3237037 7.51294586 12.703945 5.50524212 14.6443388 1.63616844 29.9320881 14.5649524 29.9320881"></polygon>
                            <g id="Group-10" mask="url(#mask-2)" fill-rule="nonzero">
                                <g transform="translate(15.766810, 8.239169)">
                                    <path d="M5.46030657,2.32926297 C3.36398577,5.47687993 0,15.675835 0,15.675835 L0.609479715,20.8954372 L10.5309674,20.8954372 L9.67773965,0.041624377 L6.80124971,0.772913281 L5.46030657,2.32926297 Z" id="Fill-53" fill="#2B5969"></path>
                                    <path d="M5.43872643,2.28934073 C5.43872643,2.28934073 4.99848625,1.82697665 4.82714715,1.63345421 C4.65580805,1.44014946 4.39043065,1.19438248 4.63752894,0.954710709 C4.945631,0.656046153 5.41450111,0.206525521 5.56139465,0.0854923625 C5.70806797,-0.0355407957 5.89019835,-0.031187085 6.04325834,0.118580564 L6.78477344,0.746603336 L5.43872643,2.28934073 Z" id="Fill-55" fill="#1E3C46"></path>
                                    <path d="M12.5289375,0.746603336 L13.2702323,0.118580564 C13.4235127,-0.031187085 13.605643,-0.0355407957 13.7525366,0.0854923625 C13.8994301,0.206525521 14.3683002,0.656046153 14.676182,0.954710709 C14.9232802,1.19438248 14.6579029,1.44014946 14.4865638,1.63345421 C14.3152247,1.82697665 13.8747643,2.28934073 13.8747643,2.28934073 L12.5289375,0.746603336 Z" id="Fill-57" fill="#1E3C46"></path>
                                    <path d="M13.9305293,2.32926297 L12.5883557,0.772913281 L9.70853597,0.041624377 L9.70853597,1.86281924 L6.95127095,1.86281924 L9.15088937,2.64483719 L9.29387005,2.39953698 L9.70853597,2.39953698 L9.70853597,20.8954372 L18.7868209,20.8954372 L19.3969597,15.675835 C19.3969597,15.675835 16.0293363,5.47687993 13.9305293,2.32926297" id="Fill-59" fill="#275161"></path>
                                    <polygon id="Fill-61" fill="#1F414D" points="7.61726098 5.20304712 9.04990495 8.28325101 10.2638061 8.28325101 11.6964499 5.20304712"></polygon>
                                    <polygon id="Fill-63" fill="#A9CFDD" points="10.0697568 2.37258949 9.24417284 2.37258949 7.61726098 5.17138777 8.6371128 6.82639782 10.6765981 6.82639782 11.6964499 5.17138777"></polygon>
                                    <polygon id="Fill-65" fill="#1E3C46" points="8.90761667 4.15123705 9.71929202 3.53807204 10.5309674 4.15123705 10.0389155 4.91167648 9.448586 4.91167648"></polygon>
                                    <path d="M6.74920341,20.8538129 C6.74920341,20.8538129 5.15367881,14.0802424 7.03919824,11.8912655 L9.69847983,10.6142161 L9.69847983,20.8538129 L6.74920341,20.8538129 Z" id="Fill-67" fill="#224450"></path>
                                    <path d="M12.6061707,20.8538129 C12.6061707,20.8538129 14.201597,14.0802424 12.3161938,11.8912655 L9.65685545,10.6142161 L9.65685545,20.8538129 L12.6061707,20.8538129 Z" id="Fill-69" fill="#1F414D"></path>
                                </g>
                            </g>
                        </g>
                    </g>
                    <g id="Sync" transform="translate(143.922679, 43.661936)">
                        <mask id="mask-4" fill="white">
                            <use xlink:href="#path-3"></use>
                        </mask>
                        <use id="Combined-Shape" fill="#0098FF" xlink:href="#path-3"></use>
                        <path d="M4.43426208,6.21520648 L5.20072628,6.31144546 C5.38066338,6.33334919 5.53208572,6.4563453 5.59209409,6.62793586 C5.65172476,6.79844641 5.61118214,6.98849813 5.48676685,7.11928621 L3.80417043,8.88651514 C3.71465046,8.98038384 3.590972,9.03360735 3.47860651,9.03298534 C3.45723064,9.03455574 3.43576965,9.03455574 3.4025517,9.03181126 C3.25311581,9.01313855 3.12160791,8.92426858 3.04739807,8.79240947 L1.84929403,6.65693656 C1.76112612,6.49976444 1.76801502,6.305925 1.86554312,6.15804027 C1.96393707,6.00451504 2.14127377,5.92123811 2.32109087,5.94472758 L2.72506048,5.99639989 C3.26018539,4.23453312 4.66282078,2.88026263 6.43153274,2.42893524 C8.20922413,2.00029379 10.0744864,2.60212371 11.2824468,3.99326179 C11.5875073,4.34355335 11.5554957,4.87760164 11.2105161,5.18796497 C10.8633457,5.50029933 10.331479,5.46736492 10.0242909,5.11463 C9.22559384,4.19511256 7.99455618,3.79792163 6.82151577,4.08048959 C5.73368557,4.36147197 4.84727275,5.15644659 4.43426208,6.21520648 Z M9.95377569,8.35014583 C9.77463995,8.32769838 9.62407021,8.20505321 9.56417636,8.03419597 C9.50465949,7.8644141 9.54448531,7.67511016 9.66759983,7.54439578 L11.3380578,5.76896102 C11.4416276,5.6562896 11.5931206,5.60106307 11.7407053,5.62079872 C11.8903082,5.63824779 12.0225457,5.72605899 12.0981057,5.85785401 L13.3075955,7.98653367 C13.3968932,8.14300109 13.3914551,8.33682272 13.2934659,8.4879617 L13.2925905,8.48930183 C13.2041989,8.62361108 13.0545608,8.70438651 12.9121703,8.70299498 C12.8912743,8.70450866 12.8702973,8.70450866 12.8379944,8.70188665 L12.4214856,8.65106922 C11.8882935,10.4162776 10.483984,11.7734899 8.7126522,12.2243972 C6.93493454,12.653006 5.06964461,12.0514287 3.86476444,10.664496 C3.6592474,10.4389925 3.59017729,10.118938 3.68371913,9.82746967 C3.77756577,9.5350516 4.02065369,9.31648781 4.31954469,9.25711284 C4.61907594,9.19761068 4.92659016,9.30754755 5.11938752,9.53965349 C5.91863698,10.459475 7.15035042,10.8567332 8.32068571,10.5747056 C9.40978583,10.2951644 10.2973837,9.49973376 10.7092283,8.44197155 L9.95377569,8.35014583 Z" id="Combined-Shape" fill="#FFFFFF" fill-rule="nonzero" mask="url(#mask-4)"></path>
                    </g>
                    <g id="Group-2" transform="translate(84.990099, 102.217822)">
                        <path d="M7.81545408,0.710570575 C9.77692352,0.712854961 11.552416,1.50875489 12.8381122,2.79445108 C14.1238084,4.08014728 14.9197083,5.85563973 14.9219922,7.81628163 C14.9219922,9.77846942 14.1266585,11.5548971 12.8407778,12.8407778 C11.5548971,14.1266585 9.77846942,14.9219922 7.81628163,14.9219922 C5.85409384,14.9219922 4.07766619,14.1266585 2.7917855,12.8407778 C1.5059048,11.5548971 0.710571057,9.77846942 0.710571057,7.81628163 C0.710571057,5.85409384 1.5059048,4.07766619 2.7917855,2.7917855 C4.07766619,1.5059048 5.85409384,0.710571057 7.81545408,0.710570575 Z" id="icon" stroke="#3EBF4D" stroke-width="1.42114211" fill="#FFFFFF"></path>
                        <path d="M8.08068331,12.1571527 C7.8954706,12.4028865 7.61929016,12.563898 7.31419994,12.6040077 C7.00910972,12.6441175 6.70069748,12.5599616 6.45406509,12.3671306 L3.27005924,9.82148916 C2.77845392,9.42807902 2.698851,8.71063223 3.09226115,8.21902691 C3.4856713,7.72742159 4.20311808,7.64781868 4.69467526,8.0411903 L6.95270646,9.84772606 L10.6938974,4.77120144 C10.9266506,4.42193254 11.3325133,4.22882942 11.7503462,4.26855959 C12.1681791,4.30828977 12.5303745,4.57442466 12.6931304,4.96130104 C12.8542859,5.34437313 12.7940854,5.78445006 12.5368183,6.11000755 L8.08068331,12.1571527 Z" id="Path" fill="#3EBF4D" fill-rule="nonzero"></path>
                    </g>
                    <g id="En-ligne" transform="translate(143.564356, 102.217822)">
                        <mask id="mask-6" fill="white">
                            <use xlink:href="#path-5"></use>
                        </mask>
                        <use id="Combined-Shape" fill="#FFFFFF" xlink:href="#path-5"></use>
                        <path d="M10.5044575,11.5474906 C12.0518385,11.5474906 13.3059921,10.304613 13.3059921,8.77114459 C13.3059921,7.23813887 12.0518385,5.99479858 10.5044575,5.99479858 C10.3900615,4.43819392 9.07847637,3.21012353 7.47786625,3.21012353 C5.8016147,3.21012353 4.4428704,4.55665135 4.4428704,6.21783171 C4.4428704,6.45983654 4.47181959,6.6949005 4.52598259,6.92024725 C3.23494205,6.92024725 2.18950271,7.95628704 2.18950271,9.23386893 C2.18950271,10.5119135 3.23494205,11.5474906 4.5241149,11.5474906 L10.5044575,11.5474906 Z" id="Stroke-1" stroke="#0061A4" stroke-width="1.38956118" fill="#FFFFFF" mask="url(#mask-6)"></path>
                    </g>
                    <g id="En-ligne-Copy" transform="translate(202.138614, 102.217822)">
                        <mask id="mask-8" fill="white">
                            <use xlink:href="#path-7"></use>
                        </mask>
                        <use id="Combined-Shape" fill="#FFFFFF" xlink:href="#path-7"></use>
                        <path d="M10.5044575,11.5474906 C12.0518385,11.5474906 13.3059921,10.304613 13.3059921,8.77114459 C13.3059921,7.23813887 12.0518385,5.99479858 10.5044575,5.99479858 C10.3900615,4.43819392 9.07847637,3.21012353 7.47786625,3.21012353 C5.8016147,3.21012353 4.4428704,4.55665135 4.4428704,6.21783171 C4.4428704,6.45983654 4.47181959,6.6949005 4.52598259,6.92024725 C3.23494205,6.92024725 2.18950271,7.95628704 2.18950271,9.23386893 C2.18950271,10.5119135 3.23494205,11.5474906 4.5241149,11.5474906 L10.5044575,11.5474906 Z" id="Stroke-1" stroke="#0061A4" stroke-width="1.38956118" fill="#FFFFFF" mask="url(#mask-8)"></path>
                    </g>
                    <g id="En-ligne-Copy-2" transform="translate(202.138614, 43.643564)">
                        <mask id="mask-10" fill="white">
                            <use xlink:href="#path-9"></use>
                        </mask>
                        <use id="Combined-Shape" fill="#FFFFFF" xlink:href="#path-9"></use>
                        <path d="M10.5044575,11.5474906 C12.0518385,11.5474906 13.3059921,10.304613 13.3059921,8.77114459 C13.3059921,7.23813887 12.0518385,5.99479858 10.5044575,5.99479858 C10.3900615,4.43819392 9.07847637,3.21012353 7.47786625,3.21012353 C5.8016147,3.21012353 4.4428704,4.55665135 4.4428704,6.21783171 C4.4428704,6.45983654 4.47181959,6.6949005 4.52598259,6.92024725 C3.23494205,6.92024725 2.18950271,7.95628704 2.18950271,9.23386893 C2.18950271,10.5119135 3.23494205,11.5474906 4.5241149,11.5474906 L10.5044575,11.5474906 Z" id="Stroke-1" stroke="#0061A4" stroke-width="1.38956118" fill="#FFFFFF" mask="url(#mask-10)"></path>
                    </g>
                    <g id="Icons/1---interface-essential/navigation-menu-vertical" transform="translate(83.281101, 43.661936)">
                        <path d="M7.47104203,0 C3.34489945,0 0,3.34489945 0,7.47104203 C0,11.5971846 3.34489945,14.9420841 7.47104203,14.9420841 C11.5971846,14.9420841 14.9420841,11.5971846 14.9420841,7.47104203 C14.9372809,3.3468906 11.5951935,0.00480310945 7.47104203,0 Z" id="icon" fill="#3EBF4D"></path>
                        <path d="M7.89498064,11.1694705 C7.71794864,11.4043504 7.4539669,11.5582501 7.1623523,11.5965883 C6.8707377,11.6349264 6.57594781,11.5544876 6.34020899,11.3701738 L3.29683841,8.93697158 C2.82694695,8.56093808 2.75086004,7.8751804 3.12689354,7.40528894 C3.50292704,6.93539748 4.18868471,6.85931057 4.65853016,7.23530725 L6.81682573,8.96204961 L10.392771,4.10975146 C10.6152436,3.77590953 11.0031796,3.59133564 11.4025571,3.62931095 C11.8019346,3.66728627 12.1481322,3.92166618 12.3036992,4.29145451 C12.4577366,4.65760657 12.4001951,5.07824561 12.1542913,5.38942347 L7.89498064,11.1694705 Z" id="Path" fill="#FFFFFF" fill-rule="nonzero"></path>
                    </g>
                </g>
            </g>
        </g>
    </g>
</svg>