<svg width="24" height="24" fill="none" xmlns="http://www.w3.org/2000/svg"><path d="M8.5 12C7.121 12 6 10.879 6 9.5S7.121 7 8.5 7 11 8.121 11 9.5 9.879 12 8.5 12Zm0-4C7.673 8 7 8.673 7 9.5S7.673 11 8.5 11s1.5-.673 1.5-1.5S9.327 8 8.5 8ZM5.5 20a.5004.5004 0 0 1-.424-.765l3.014-4.822c.08-.127.189-.237.318-.318a.9978.9978 0 0 1 .755-.126c.261.06.482.218.624.444l.651 1.043 2.215-3.543a.9958.9958 0 0 1 .846-.469c.348 0 .665.176.849.47l4.576 7.322c.096.154.102.348.014.507A.5033.5033 0 0 1 18.5 20h-13Zm12.098-1L13.5 12.443l-2.639 4.222a.4982.4982 0 0 1-.424.235.497.497 0 0 1-.424-.235l-1.075-1.721L6.402 19h11.196Z" fill="#000"/><path d="M3.5 24c-.827 0-1.5-.673-1.5-1.5v-21C2 .673 2.673 0 3.5 0h13.293c.401 0 .777.156 1.061.439l3.707 3.707c.283.284.439.661.439 1.061V22.5c0 .827-.673 1.5-1.5 1.5h-17Zm0-23c-.276 0-.5.224-.5.5v21c0 .276.224.5.5.5h17c.276 0 .5-.224.5-.5V5.207a.501.501 0 0 0-.146-.354l-3.707-3.707A.5054.5054 0 0 0 16.793 1H3.5Z" fill="#000"/></svg>