<svg width="16" height="16" viewBox="0 0 16 16" fill="none" xmlns="http://www.w3.org/2000/svg">
<path fill-rule="evenodd" clip-rule="evenodd" d="M6.13908 0.00385144C5.2543 0.0932867 4.81372 0.193313 4.14221 0.457199C2.53189 1.09005 1.24691 2.33245 0.534563 3.94531C0.0986931 4.93216 -0.0849053 6.15981 0.0368363 7.2734C0.204643 8.80839 0.964398 10.3157 2.09058 11.348C3.0882 12.2624 4.26803 12.8292 5.57814 13.0234C7.01542 13.2365 8.39526 12.9918 9.69172 12.294C10.0165 12.1192 10.402 11.8587 10.7418 11.5844L10.7891 11.5462L12.9686 13.7234C14.1674 14.9209 15.1749 15.9163 15.2077 15.9356C15.3038 15.992 15.4564 16.0147 15.5749 15.9902C15.9338 15.916 16.1153 15.4966 15.9205 15.1915C15.8937 15.1494 14.9 14.1435 13.7124 12.9561C12.5247 11.7687 11.553 10.7911 11.553 10.7838C11.553 10.7764 11.6015 10.7114 11.6607 10.6393C11.887 10.3637 12.1711 9.92918 12.3635 9.56462C13.015 8.32992 13.2494 6.79134 12.9983 5.39661C12.7484 4.00787 12.0256 2.68208 11.0129 1.75487C9.91817 0.752449 8.64668 0.180138 7.17597 0.02777C6.997 0.00922335 6.25518 -0.00787834 6.13908 0.00385144ZM6.13908 1.07561C6.11103 1.07877 6.00777 1.08986 5.9096 1.10023C5.13117 1.18252 4.26225 1.49564 3.56627 1.94467C2.48564 2.64184 1.65879 3.74545 1.29609 4.97471C0.894586 6.33545 1.01753 7.73615 1.64973 9.00363C2.05516 9.81647 2.61337 10.4689 3.3696 11.0137C4.33504 11.7093 5.48502 12.0567 6.71534 12.0245C7.54755 12.0028 8.26883 11.818 9.03728 11.4296C9.5825 11.1541 9.99857 10.8511 10.4331 10.4132C11.2364 9.6038 11.7714 8.56835 11.9522 7.4732C12.1461 6.2989 11.9814 5.18132 11.4569 4.11266C11.1846 3.55777 10.8658 3.11358 10.4226 2.67125C9.37417 1.62501 7.98696 1.05724 6.50454 1.06767C6.33158 1.06888 6.16713 1.07247 6.13908 1.07561Z" fill="black"/>
</svg>
