<svg width="16" height="16" viewBox="0 0 16 16" fill="none" xmlns="http://www.w3.org/2000/svg">
<path d="M14.8048 1.75096C14.5848 1.58447 14.2713 1.62789 14.1046 1.84764L5.60559 13.0801L5.59973 13.0879C5.53658 13.1747 5.45518 13.2422 5.36535 13.2871C5.27554 13.3319 5.17756 13.3535 5.0802 13.3506C4.98291 13.3475 4.88647 13.32 4.79895 13.2695C4.71125 13.2188 4.63381 13.1448 4.57531 13.0537L4.56848 13.0439L1.91321 9.10838C1.75886 8.88002 1.44857 8.81991 1.21985 8.97361C0.990933 9.12804 0.930681 9.43903 1.08508 9.66795L3.73938 13.6025C3.88167 13.8215 4.07211 14.0052 4.29797 14.1357C4.52693 14.268 4.78476 14.3413 5.04895 14.3496C5.31302 14.3578 5.57514 14.3005 5.81164 14.1826C6.0452 14.066 6.2466 13.893 6.40149 13.6826L6.40246 13.6836L14.9025 2.45115C15.0685 2.23103 15.0247 1.91745 14.8048 1.75096Z" fill="black"/>
</svg>
