<svg width="16" height="16" viewBox="0 0 16 16" fill="none" xmlns="http://www.w3.org/2000/svg">
<path fill-rule="evenodd" clip-rule="evenodd" d="M0.515863 1.41721C0.832282 1.14352 1.24722 1 1.66686 1H5.1354C5.55504 1 5.96998 1.14352 6.2864 1.41721C6.60518 1.69295 6.8022 2.08464 6.8022 2.51227V3.00014H14.3848C14.8045 3.00014 15.2194 3.14366 15.5358 3.41736C15.9032 3.73509 16 4.15726 16 4.51241V13.3878C15.9933 13.8066 15.8121 14.1948 15.5136 14.4851C15.2168 14.7737 14.8222 14.9496 14.4072 14.9967C14.3881 14.9989 14.3689 14.9999 14.3497 14.9999L1.65032 15C1.63113 15 1.61195 14.9989 1.59287 14.9967C1.17786 14.9496 0.783271 14.7737 0.48648 14.4851C0.187918 14.1948 0.0068204 13.8066 0.000131115 13.3879L0 13.3797L6.55777e-05 2.51227C6.55777e-05 2.08464 0.197082 1.69295 0.515863 1.41721Z" fill="black"/>
</svg>
