<svg width="16" height="16" viewBox="0 0 16 16" fill="none" xmlns="http://www.w3.org/2000/svg">
<path fill-rule="evenodd" clip-rule="evenodd" d="M7.50892 0.0135527C5.41227 0.131719 3.41341 1.10916 2.00264 2.70615C0.393553 4.52763 -0.292545 6.94824 0.115061 9.36566C0.393468 11.0168 1.20224 12.5463 2.42776 13.7393C3.68138 14.9597 5.25582 15.7179 6.99778 15.9403C8.01274 16.0698 9.20041 15.9855 10.1354 15.7176C11.5454 15.3136 12.7266 14.6127 13.7311 13.5838C14.6673 12.6249 15.3282 11.4871 15.7022 10.1901C16.0591 8.95271 16.099 7.51198 15.8117 6.24212C15.4408 4.60257 14.5604 3.1181 13.2974 2.00233C11.6994 0.590715 9.66578 -0.107996 7.50892 0.0135527ZM7.55142 1.07628C6.39335 1.16846 5.42133 1.47241 4.43211 2.05174C3.73661 2.45902 2.97893 3.14187 2.4606 3.82844C1.00285 5.75943 0.660689 8.33125 1.56277 10.5771C1.9314 11.4949 2.43505 12.2472 3.15126 12.9498C3.70999 13.4979 4.19348 13.8452 4.87394 14.187C5.65279 14.5783 6.36408 14.7913 7.24542 14.8973C7.60369 14.9404 8.40014 14.9404 8.75841 14.8973C9.63975 14.7913 10.351 14.5783 11.1299 14.187C11.8103 13.8452 12.2938 13.4979 12.8526 12.9498C13.4378 12.3756 13.8301 11.8407 14.1873 11.1296C14.5237 10.4599 14.7323 9.82717 14.8436 9.13851C14.9046 8.76092 14.9208 8.58334 14.9324 8.16311C14.9674 6.89143 14.6555 5.6662 14.0062 4.52513C13.5805 3.77697 12.8936 3.00274 12.1732 2.45888C11.1917 1.71793 10.0435 1.2602 8.78391 1.10772C8.56461 1.08118 7.75078 1.06042 7.55142 1.07628ZM11.7955 4.06943C11.752 4.0848 11.6808 4.13498 11.6225 4.19134C11.5679 4.24402 10.3671 5.7521 8.95389 7.54261C7.54071 9.33312 6.36195 10.8191 6.33443 10.8448C6.2608 10.9136 6.16875 10.9102 6.10395 10.8363C6.07726 10.8058 5.69206 10.2649 5.24794 9.63414C4.80381 9.00343 4.41538 8.46227 4.38473 8.4316C4.22587 8.27253 3.95219 8.23617 3.76174 8.34883C3.58227 8.45499 3.49122 8.61364 3.4909 8.8208C3.49071 8.93322 3.49766 8.96446 3.54057 9.04416C3.56801 9.09512 3.9614 9.6636 4.4148 10.3075C5.29569 11.5584 5.383 11.6676 5.60534 11.7973C5.66589 11.8326 5.77663 11.8819 5.85143 11.9068C5.97254 11.9472 6.01349 11.9522 6.22543 11.9525C6.44197 11.9529 6.47551 11.9487 6.59756 11.9061C6.79494 11.8371 6.99171 11.7147 7.11182 11.5862C7.25321 11.4349 12.4488 4.83818 12.479 4.77163C12.5333 4.65183 12.5284 4.46747 12.4675 4.3431C12.4097 4.22495 12.2808 4.10467 12.1723 4.0677C12.0735 4.03404 11.8933 4.03487 11.7955 4.06943Z" fill="black"/>
</svg>
