<svg width="16" height="16" viewBox="0 0 16 16" fill="none" xmlns="http://www.w3.org/2000/svg">
<path fill-rule="evenodd" clip-rule="evenodd" d="M7.52529 0.0130907C5.42024 0.128521 3.41311 1.10714 2.00288 2.7057C0.618792 4.27461 -0.0965306 6.31136 0.0104882 8.37864C0.0549547 9.23724 0.197125 9.95357 0.475228 10.7201C0.936585 11.9916 1.69568 13.1071 2.70639 13.9987C3.71967 14.8926 4.93005 15.5124 6.24195 15.8092C7.37891 16.0664 8.652 16.0635 9.79385 15.8009C11.2883 15.4573 12.6322 14.7021 13.7136 13.5985C14.5906 12.7034 15.1671 11.762 15.596 10.5246C16.0493 9.21715 16.1253 7.63408 15.803 6.21456C15.5174 4.95659 14.9032 3.74486 14.0545 2.76519C13.8826 2.56671 13.5022 2.18401 13.2961 2.0022C12.733 1.5055 12.1403 1.11122 11.4773 0.792363C10.2369 0.195832 8.92184 -0.0634834 7.52529 0.0130907ZM7.4743 1.08382C6.40083 1.17496 5.45068 1.46922 4.52516 1.99715C3.63726 2.50365 2.79107 3.30366 2.2073 4.18853C1.15096 5.78974 0.807741 7.76988 1.2623 9.64072C1.52152 10.7076 2.02911 11.6936 2.74599 12.5229C3.50646 13.4027 4.43649 14.0576 5.51954 14.476C7.10565 15.0889 8.89682 15.0889 10.4829 14.476C11.2516 14.179 11.9176 13.7806 12.5238 13.2551C13.4086 12.4881 14.0581 11.5659 14.4769 10.4821C15.0896 8.89651 15.0896 7.10439 14.4769 5.5188C14.0581 4.43496 13.4086 3.51281 12.5238 2.74578C11.2624 1.65227 9.64573 1.057 7.96724 1.06794C7.78494 1.06913 7.56311 1.07627 7.4743 1.08382ZM7.78026 3.49104C7.22263 3.53491 6.62794 3.81491 6.21646 4.22736C5.75104 4.69385 5.49005 5.30494 5.48272 5.94537C5.48089 6.10534 5.48555 6.13617 5.52442 6.22107C5.6824 6.56612 6.12368 6.6472 6.38387 6.37898C6.49056 6.26899 6.52538 6.18483 6.54163 5.99752C6.57044 5.66578 6.6208 5.48744 6.74526 5.27648C7.00915 4.82924 7.49208 4.55034 8.00326 4.55C8.49281 4.54966 8.99718 4.83701 9.24548 5.2577C9.39408 5.50948 9.4533 5.7322 9.45047 6.02873C9.44828 6.26093 9.40978 6.42909 9.31201 6.63362C9.23134 6.80241 9.17081 6.88801 9.02867 7.03432C8.88698 7.18021 8.77134 7.25589 8.51967 7.36746C8.22724 7.4971 8.18432 7.52108 8.03691 7.63714C7.80771 7.81762 7.60802 8.12059 7.52159 8.41898C7.48474 8.54616 7.4828 8.58059 7.4828 9.10529C7.4828 9.65108 7.48327 9.6586 7.52237 9.73187C7.69073 10.0474 8.11072 10.1213 8.36283 9.87975C8.51532 9.73364 8.5179 9.72288 8.5279 9.19028L8.53667 8.72285L8.5845 8.62545C8.64746 8.49722 8.71951 8.44103 8.92886 8.35691C9.27327 8.21848 9.54775 8.03312 9.80949 7.76223C10.2351 7.32168 10.4663 6.80839 10.5159 6.19366C10.5534 5.73018 10.4578 5.26849 10.2361 4.84226C10.1106 4.60093 9.9763 4.41768 9.78527 4.22724C9.25308 3.69669 8.53198 3.43192 7.78026 3.49104ZM7.74581 10.9967C7.28464 11.154 7.0774 11.713 7.32628 12.1284C7.39689 12.2462 7.55038 12.3881 7.66689 12.4432C7.87011 12.5394 8.13236 12.5394 8.33558 12.4432C8.45209 12.3881 8.60558 12.2462 8.67619 12.1284C8.88077 11.7869 8.78536 11.3432 8.45506 11.1001C8.26248 10.9583 7.97948 10.9171 7.74581 10.9967Z" fill="#333333"/>
</svg>
