<svg width="16" height="16" viewBox="0 0 16 16" fill="none" xmlns="http://www.w3.org/2000/svg">
<g clip-path="url(#clip0_56904_13648)">
<path d="M2.02051 2.56302C2.20073 2.35424 2.51652 2.33047 2.72559 2.51028C2.93466 2.69057 2.9585 3.00721 2.77832 3.21634C1.63145 4.54638 1.00008 6.24429 1 8.00052C1.00005 9.75688 1.63131 11.4556 2.77832 12.7857C2.9583 12.9948 2.93458 13.3105 2.72559 13.4908C2.51648 13.6707 2.20074 13.6469 2.02051 13.438C0.71712 11.9264 5.19194e-05 9.99646 0 8.00052C7.95145e-05 6.00461 0.717141 4.0746 2.02051 2.56302Z" fill="black"/>
<path d="M13.2734 2.51028C13.4826 2.33033 13.7983 2.35407 13.9785 2.56302C15.282 4.07464 15.9999 6.00448 16 8.00052C15.9999 9.99655 15.282 11.9264 13.9785 13.438C13.7983 13.647 13.4826 13.6707 13.2734 13.4908C13.0646 13.3105 13.0409 12.9948 13.2207 12.7857C14.3677 11.4556 14.9999 9.75688 15 8.00052C14.9999 6.24423 14.3677 4.5464 13.2207 3.21634C13.0405 3.00723 13.0644 2.69058 13.2734 2.51028Z" fill="black"/>
<path d="M10.9404 5.08548C11.1116 4.86904 11.427 4.83247 11.6436 5.00345C11.8598 5.17467 11.8965 5.48906 11.7256 5.70559L7.16309 11.4781C7.04843 11.6265 6.90072 11.7458 6.73145 11.8267C6.55927 11.9089 6.36942 11.9485 6.17871 11.9429C5.98801 11.9372 5.80076 11.8868 5.63379 11.7945C5.47015 11.7039 5.33011 11.5757 5.22461 11.4214L3.59082 9.10306C3.43233 8.87741 3.4865 8.5657 3.71191 8.40677C3.93763 8.24788 4.25017 8.30219 4.40918 8.52786L6.04199 10.8452L6.04883 10.855C6.06648 10.8814 6.09039 10.9041 6.11816 10.9195C6.14571 10.9346 6.17657 10.9429 6.20801 10.9439C6.2396 10.9448 6.27126 10.9379 6.2998 10.9243C6.32842 10.9107 6.35385 10.89 6.37305 10.8648C6.3749 10.8623 6.377 10.8594 6.37891 10.857L10.9404 5.08548Z" fill="black"/>
</g>
<defs>
<clipPath id="clip0_56904_13648">
<rect width="16" height="16" fill="white"/>
</clipPath>
</defs>
</svg>
