<svg width="17" height="16" viewBox="0 0 17 16" fill="none" xmlns="http://www.w3.org/2000/svg">
<path d="M8 0C10.1217 0 12.1569 0.842483 13.6572 2.34277C15.1575 3.84306 16 5.87827 16 8C16 10.1217 15.1575 12.1569 13.6572 13.6572C12.1569 15.1575 10.1217 16 8 16C5.87827 16 3.84306 15.1575 2.34277 13.6572C0.842482 12.1569 0 10.1217 0 8C0 5.87827 0.842482 3.84306 2.34277 2.34277C3.84306 0.842482 5.87827 0 8 0ZM8 1C6.14348 1 4.36256 1.73705 3.0498 3.0498C1.73705 4.36256 1 6.14348 1 8C1 9.85652 1.73705 11.6374 3.0498 12.9502C4.36256 14.2629 6.14349 15 8 15C9.85652 15 11.6374 14.2629 12.9502 12.9502C14.263 11.6374 15 9.85652 15 8C15 6.14348 14.263 4.36256 12.9502 3.0498C11.6374 1.73705 9.85652 1 8 1ZM11.5 7.50098C11.7761 7.50098 12 7.72483 12 8.00098C11.9998 8.27695 11.776 8.50098 11.5 8.50098H4.5C4.22398 8.50098 4.0002 8.27695 4 8.00098C4 7.72483 4.22386 7.50098 4.5 7.50098H11.5Z" fill="black"/>
</svg>
