<svg width="16" height="16" viewBox="0 0 16 16" fill="none" xmlns="http://www.w3.org/2000/svg">
<path fill-rule="evenodd" clip-rule="evenodd" d="M7.47213 0.0167944C6.4299 0.0878027 5.47231 0.33995 4.53056 0.791332C2.21569 1.90086 0.5527 4.09803 0.118206 6.62105C-0.250864 8.76417 0.252 10.9428 1.51908 12.6902C2.74305 14.3782 4.58208 15.5285 6.62091 15.8815C8.08463 16.1349 9.59054 15.9799 10.9536 15.4356C13.0048 14.6164 14.6163 13.0049 15.4354 10.9537C16.1885 9.06804 16.1885 6.932 15.4354 5.0463C14.5059 2.71865 12.56 0.969457 10.1449 0.290613C9.31344 0.0568696 8.34302 -0.0425353 7.47213 0.0167944ZM7.5232 1.0818C6.40773 1.18115 5.52095 1.44704 4.60353 1.95721C3.51983 2.55985 2.5633 3.51612 1.95635 4.60367C1.50216 5.41753 1.22889 6.26187 1.11062 7.2169C1.06729 7.5668 1.06729 8.43323 1.11062 8.78313C1.22925 9.74097 1.49717 10.5683 1.9569 11.3964C2.55653 12.4764 3.52438 13.4442 4.60353 14.0429C5.43154 14.5023 6.26098 14.7709 7.21676 14.8893C7.56666 14.9326 8.43309 14.9326 8.783 14.8893C9.73797 14.771 10.5689 14.5019 11.3962 14.0429C12.4673 13.4487 13.4399 12.4788 14.0329 11.4134C14.5007 10.5731 14.7699 9.74627 14.8891 8.78313C14.9325 8.43323 14.9325 7.5668 14.8891 7.2169C14.7708 6.26112 14.5021 5.43168 14.0428 4.60367C13.4441 3.52452 12.4754 2.5558 11.3962 1.95712C10.5736 1.50077 9.73605 1.22848 8.80002 1.11313C8.58092 1.08612 7.71358 1.06484 7.5232 1.0818ZM7.55725 4.05176C7.35968 4.08073 7.21073 4.16022 7.06473 4.3146C6.69027 4.71053 6.81465 5.36574 7.31039 5.6088C7.54451 5.7236 7.79228 5.72261 8.03151 5.60592C8.31798 5.46622 8.49358 5.18561 8.49358 4.86755C8.49358 4.37136 8.04472 3.98029 7.55725 4.05176ZM6.65496 6.36386C6.35155 6.46163 6.19023 6.78171 6.29849 7.07105C6.34324 7.1907 6.45598 7.30765 6.58312 7.36635C6.6762 7.40934 6.69662 7.41172 7.04652 7.42051L7.41254 7.4297L7.41688 9.21094L7.4212 10.9922L7.05086 10.9993C6.69543 11.0061 6.67661 11.0082 6.58422 11.0507C6.47096 11.1029 6.36624 11.2048 6.31127 11.3165C6.2794 11.3811 6.27196 11.4239 6.27215 11.5411C6.27235 11.6646 6.27901 11.6983 6.3175 11.7709C6.37184 11.8735 6.46611 11.9667 6.56984 12.0206L6.64645 12.0603H7.99988H9.35331L9.43509 12.0185C9.48009 11.9956 9.54982 11.9415 9.59008 11.8985C9.84026 11.631 9.7529 11.2066 9.41553 11.0505C9.3217 11.0071 9.30884 11.0058 8.90685 10.9992L8.49445 10.9924L8.48975 9.11744L8.48507 7.24243L8.43733 7.10624C8.32414 6.78331 8.05645 6.51574 7.736 6.40525C7.60224 6.35913 7.59175 6.35821 7.14866 6.35421C6.90053 6.35198 6.67837 6.35632 6.65496 6.36386Z" fill="black"/>
</svg>
