<svg width="17" height="16" viewBox="0 0 17 16" fill="none" xmlns="http://www.w3.org/2000/svg">
<path fill-rule="evenodd" clip-rule="evenodd" d="M2.84386 13.6569C1.34374 12.1566 0.500977 10.1217 0.500977 7.99999C0.500977 5.87827 1.34374 3.84343 2.84386 2.34315C4.34398 0.842858 6.37859 0 8.50008 0C10.6216 0 12.6562 0.842858 14.1563 2.34315C15.6564 3.84343 16.4992 5.87827 16.4992 7.99999C16.4992 10.1217 15.6564 12.1566 14.1563 13.6569C12.6562 15.1571 10.6216 16 8.50008 16C6.37859 16 4.34398 15.1571 2.84386 13.6569ZM13.1847 4.65359C13.3673 4.42249 13.328 4.0871 13.097 3.90446C12.8659 3.7218 12.5306 3.76107 12.348 3.99216L6.77124 11.0484L6.76505 11.0566C6.74458 11.0835 6.71795 11.1053 6.6874 11.1198C6.65685 11.1344 6.62326 11.1415 6.58941 11.1405C6.55557 11.1395 6.52247 11.1305 6.49284 11.114C6.46322 11.0976 6.43806 11.0743 6.41923 11.0462L4.66986 8.56323C4.50022 8.32244 4.16752 8.26478 3.92677 8.43445C3.68602 8.60411 3.62837 8.93684 3.79802 9.17763L5.53685 11.6457C5.64974 11.8123 5.80036 11.9499 5.97649 12.0474C6.15474 12.146 6.35395 12.2006 6.55757 12.2067C6.76118 12.2128 6.9633 12.1701 7.14711 12.0823C7.32918 11.9953 7.48807 11.8666 7.61081 11.7065L13.1847 4.65359Z" fill="#3EBF4D"/>
</svg>
