<svg width="24" height="24" viewBox="0 0 24 24" fill="none" xmlns="http://www.w3.org/2000/svg">
<g clip-path="url(#clip0_38584_67079)">
<path d="M11.9412 17.3205V11.1927C11.9412 10.9605 11.849 10.7378 11.6848 10.5737C11.5206 10.4095 11.298 10.3173 11.0658 10.3173H10.1904" stroke="#9F9F9F" stroke-width="1.5" stroke-linecap="round" stroke-linejoin="round"/>
<path d="M11.5036 7.72892C11.2618 7.72892 11.0659 7.53295 11.0659 7.29122C11.0659 7.04948 11.2618 6.85352 11.5036 6.85352" stroke="#9F9F9F" stroke-width="1.5" stroke-linecap="round" stroke-linejoin="round"/>
<path d="M11.5034 7.72892C11.7452 7.72892 11.9411 7.53295 11.9411 7.29122C11.9411 7.04948 11.7452 6.85352 11.5034 6.85352" stroke="#9F9F9F" stroke-width="1.5" stroke-linecap="round" stroke-linejoin="round"/>
<path d="M11.9999 23.2284C18.2012 23.2284 23.2283 18.2013 23.2283 12C23.2283 5.79873 18.2012 0.771606 11.9999 0.771606C5.79861 0.771606 0.771484 5.79873 0.771484 12C0.771484 18.2013 5.79861 23.2284 11.9999 23.2284Z" stroke="#9F9F9F" stroke-width="1.5" stroke-linecap="round" stroke-linejoin="round"/>
<path d="M10.1904 17.3204H13.8094" stroke="#9F9F9F" stroke-width="1.5" stroke-miterlimit="10" stroke-linecap="round" stroke-linejoin="round"/>
</g>
<defs>
<clipPath id="clip0_38584_67079">
<rect width="24" height="24" fill="white"/>
</clipPath>
</defs>
</svg>
