<svg width="16" height="16" viewBox="0 0 16 16" fill="none" xmlns="http://www.w3.org/2000/svg">
<path fill-rule="evenodd" clip-rule="evenodd" d="M7.08281 0.0123224C5.10134 0.120978 3.21204 1.04216 1.8846 2.5469C0.367288 4.26685 -0.27468 6.53367 0.108344 8.8189C0.386184 10.4765 1.26826 12.0532 2.54681 13.1776C3.50666 14.0217 4.64023 14.602 5.87481 14.8814C6.94502 15.1235 8.14337 15.1207 9.21818 14.8736C10.6249 14.5501 11.8899 13.8393 12.9078 12.8004C13.7333 11.9578 14.276 11.0717 14.6797 9.9069C14.962 9.09272 15.0995 8.0844 15.0524 7.1749C14.9976 6.11627 14.7636 5.18999 14.3158 4.2589C13.5818 2.73259 12.3291 1.47992 10.8028 0.745858C9.63524 0.184338 8.39737 -0.0597576 7.08281 0.0123224ZM7.03481 1.02021C6.02436 1.106 5.12999 1.38299 4.25881 1.87994C3.42303 2.35671 2.62652 3.10976 2.07702 3.94271C1.0827 5.44994 0.759624 7.31386 1.1875 9.0749C1.35631 9.76973 1.6446 10.4444 2.03191 11.0509C2.18327 11.2879 2.26095 11.3929 2.55121 11.7528C2.56887 11.7747 3.18538 11.1643 7.17121 7.1785C9.70098 4.64874 11.7704 2.57531 11.77 2.57091C11.7687 2.55923 11.6003 2.42216 11.4304 2.29461C10.7481 1.78234 9.91889 1.39266 9.07481 1.18759C8.5458 1.05906 8.04975 1.00167 7.49881 1.00527C7.32721 1.00639 7.11841 1.01311 7.03481 1.02021ZM7.88321 7.8905C3.8974 11.8763 3.28698 12.4928 3.3089 12.5105C3.66878 12.8008 3.77378 12.8784 4.01081 13.0298C5.06561 13.7033 6.28105 14.0586 7.53081 14.0586C8.68124 14.0586 9.78297 13.7634 10.8028 13.1818C11.6352 12.7072 12.437 11.9492 12.9846 11.1191C13.8363 9.828 14.1967 8.28253 14.0096 6.7229C13.8786 5.63048 13.4299 4.51423 12.7671 3.63133C12.6395 3.46143 12.5025 3.29296 12.4908 3.29173C12.4864 3.29128 10.413 5.36072 7.88321 7.8905Z" fill="black"/>
</svg>
