<svg width="14" height="14" viewBox="0 0 14 14" fill="none" xmlns="http://www.w3.org/2000/svg">
<path fill-rule="evenodd" clip-rule="evenodd" d="M5.07825 0.0105976C4.83353 0.0470127 4.60857 0.144551 4.41906 0.2964C4.20943 0.464374 4.05521 0.695509 3.97016 0.969084L3.92856 1.10296L3.92406 2.29672L3.91957 3.49048L3.19497 3.49073C2.42682 3.49101 2.37161 3.49507 2.18225 3.56539C1.74214 3.72883 1.42631 4.10195 1.3303 4.57188C1.3032 4.7046 1.30242 4.84221 1.30652 8.79671L1.31074 12.8843L1.34196 12.9885C1.39012 13.149 1.42928 13.2424 1.49387 13.3504C1.68367 13.6681 1.98567 13.8863 2.35562 13.9731C2.46451 13.9986 2.63537 14 5.69835 14H8.92633L9.06021 13.9661C9.3302 13.8976 9.61182 13.72 9.77774 13.5135C9.87997 13.3863 9.97813 13.1992 10.0297 13.0331L10.0714 12.8992L10.0758 11.7055L10.0803 10.5117L10.8049 10.5114C11.5731 10.5112 11.6283 10.5071 11.8177 10.4368C12.2324 10.2828 12.5286 9.95292 12.6576 9.50134L12.6898 9.3886L12.6938 6.1459C12.6973 3.26043 12.6952 2.88955 12.6745 2.7794C12.632 2.5523 12.55 2.36418 12.4206 2.19631C12.3859 2.15131 11.9436 1.70175 11.4377 1.19729C10.4772 0.239367 10.4304 0.197701 10.2142 0.106768C10.1617 0.0846775 10.068 0.0521448 10.006 0.0344727L9.89323 0.00235656L7.52803 0.00018474C6.22717 -0.0010053 5.12477 0.00368049 5.07825 0.0105976ZM5.1165 0.95586C5.02965 0.986786 4.94123 1.06799 4.89638 1.15799L4.85789 1.23525V2.36238V3.4895L6.09627 3.4937L7.33465 3.49791L7.46109 3.54013C7.61431 3.59129 7.77623 3.67597 7.88986 3.76436C7.93631 3.8005 8.38947 4.24733 8.8969 4.75733C9.7183 5.58288 9.82738 5.69795 9.89126 5.80629C9.972 5.94325 10.0403 6.12814 10.0634 6.27219C10.0735 6.33495 10.079 6.93428 10.0791 7.97997L10.0792 9.59106L10.7672 9.58652C11.5331 9.58146 11.5057 9.58497 11.6257 9.47659C11.6599 9.44568 11.7025 9.39316 11.7203 9.35986L11.7527 9.29935L11.7565 6.1102L11.7604 2.92103L11.7224 2.83759C11.6895 2.76521 11.5686 2.63847 10.8111 1.88166C10.2202 1.29121 9.91622 0.997883 9.87092 0.974261L9.80398 0.939333L7.49085 0.936685C5.49185 0.934409 5.16939 0.937012 5.1165 0.95586ZM2.55661 4.42827C2.52221 4.43511 2.47977 4.44837 2.46231 4.45771C2.40345 4.48922 2.31225 4.58137 2.27964 4.64231L2.24724 4.70283L2.24303 8.71177C2.24003 11.5792 2.24346 12.7377 2.25509 12.7802C2.28278 12.8814 2.36064 12.9722 2.46421 13.0239L2.55693 13.0703H5.68321C9.14821 13.0703 8.88201 13.0781 9.00509 12.9727C9.03806 12.9445 9.08234 12.8867 9.10353 12.8442L9.14202 12.7669L9.14187 9.58279L9.14173 6.39863L9.1062 6.32425C9.07803 6.26527 8.88637 6.066 8.18035 5.36159C7.55674 4.73941 7.27221 4.46534 7.23052 4.44675C7.17432 4.42167 7.04469 4.42008 4.89508 4.41801C3.6433 4.4168 2.59098 4.42141 2.55661 4.42827Z" fill="black" fill-opacity="0.5"/>
</svg>
