<svg width="16" height="16" viewBox="0 0 16 16" fill="none" xmlns="http://www.w3.org/2000/svg">
<path fill-rule="evenodd" clip-rule="evenodd" d="M7.39183 2.99048C5.41759 3.15394 3.29741 4.19895 1.33884 5.97391C1.053 6.23295 0.450748 6.8451 0.340739 6.98841C0.094658 7.30898 -0.000659675 7.59451 3.4337e-06 8.00915C0.000445506 8.29298 0.0449418 8.49588 0.155188 8.71669C0.252886 8.91234 0.370647 9.06015 0.703953 9.4054C1.77503 10.5149 2.9952 11.4297 4.26332 12.0739C5.28162 12.5913 6.20228 12.8772 7.23881 12.9981C7.53384 13.0326 8.52072 13.0268 8.82857 12.9888C10.0276 12.8411 11.1692 12.4321 12.3822 11.7159C13.4078 11.1102 14.3587 10.3571 15.246 9.44759C15.7056 8.97646 15.8159 8.82369 15.9182 8.51662C16.0273 8.18943 16.0272 7.81156 15.9182 7.48464C15.813 7.16932 15.7089 7.02542 15.2386 6.54541C14.3673 5.65588 13.4865 4.95279 12.491 4.35211C11.2433 3.59924 10.0592 3.16469 8.84557 3.01433C8.59087 2.98276 7.66784 2.96763 7.39183 2.99048ZM7.31578 4.07327C6.50101 4.16226 5.67598 4.41961 4.79891 4.8584C3.5576 5.47942 2.38612 6.36465 1.3479 7.46619C1.10804 7.72066 1.06679 7.7991 1.06679 8.00063C1.06679 8.22841 1.09588 8.27406 1.51327 8.70109C2.03026 9.23003 2.48423 9.63185 3.02511 10.0392C4.50437 11.1534 6.03095 11.8131 7.41734 11.9373C7.66906 11.9599 8.3218 11.9599 8.57353 11.9373C10.1904 11.7924 11.9676 10.9323 13.6744 9.46855C13.8006 9.36028 14.1112 9.06433 14.3646 8.81087C14.9056 8.26987 14.9241 8.24305 14.9241 8.00063C14.9241 7.79317 14.8859 7.72105 14.6354 7.45521C13.1462 5.87444 11.2798 4.68615 9.59075 4.24322C9.29587 4.16589 8.96055 4.10487 8.65211 4.0724C8.34476 4.04003 7.61574 4.04051 7.31578 4.07327ZM7.7914 4.97659C7.50426 5.00018 7.20059 5.06464 6.96307 5.15244C5.91114 5.54124 5.15969 6.47226 5.00124 7.58304C4.97339 7.77818 4.97358 8.21904 5.00156 8.41822C5.14434 9.43416 5.80168 10.3212 6.72872 10.749C7.88219 11.2812 9.23259 11.0395 10.1297 10.1401C10.8811 9.38691 11.1834 8.29835 10.9273 7.26772C10.6351 6.09155 9.65242 5.1905 8.46301 5.00807C8.3033 4.98358 7.92324 4.96576 7.7914 4.97659ZM7.67105 6.06697C6.3622 6.30457 5.65471 7.71832 6.25695 8.89277C6.69922 9.75531 7.69928 10.1644 8.61421 9.85715C9.09403 9.69599 9.49511 9.35403 9.72593 8.90929C10.2282 7.94159 9.8529 6.75646 8.88663 6.25852C8.5183 6.06871 8.0596 5.99643 7.67105 6.06697Z" fill="#446FDD"/>
</svg>
