<svg width="16" height="16" viewBox="0 0 16 16" fill="none" xmlns="http://www.w3.org/2000/svg">
<path fill-rule="evenodd" clip-rule="evenodd" d="M7.91024 0.954121C7.75266 0.979593 7.62059 1.08556 7.54552 1.24676L7.50779 1.3278L7.50763 4.48095C7.50746 8.06691 7.49298 7.72161 7.6501 7.8811C7.85893 8.09308 8.14802 8.09308 8.35685 7.8811C8.51397 7.72161 8.49949 8.06691 8.49931 4.48095L8.49915 1.3278L8.46142 1.24676C8.41358 1.14403 8.34091 1.06107 8.25432 1.01031C8.19442 0.975209 8.15806 0.964777 8.02747 0.945145C8.00987 0.942505 7.95712 0.946537 7.91024 0.954121ZM5.89874 3.18905C5.45378 3.34876 4.97366 3.59636 4.54771 3.8858C2.83888 5.04694 1.82018 7.03679 1.88046 9.0958C1.90893 10.0684 2.16131 11.0242 2.60504 11.8398C3.12595 12.7973 3.85763 13.5752 4.77947 14.1518C5.49832 14.6014 6.35984 14.9052 7.25997 15.0266C7.55688 15.0666 8.45006 15.0666 8.74698 15.0266C10.068 14.8484 11.2377 14.3018 12.1809 13.4219C12.547 13.0804 12.8156 12.7628 13.0993 12.3358C13.6444 11.5155 13.9514 10.688 14.0849 9.6798C14.1145 9.45625 14.1211 9.32801 14.1221 8.9598C14.1237 8.37914 14.084 8.03049 13.9563 7.5038C13.4974 5.6111 12.1853 4.06542 10.3875 3.29972C10.0816 3.16943 9.97843 3.13993 9.85219 3.14657C9.662 3.15657 9.49763 3.26468 9.42218 3.42942C9.37136 3.54031 9.37334 3.7471 9.42624 3.85457C9.50418 4.01292 9.57682 4.06316 9.91547 4.19294C10.2695 4.32862 10.7294 4.58644 11.0635 4.83655C12.1742 5.66804 12.8924 6.8922 13.0834 8.2798C13.119 8.53806 13.1321 9.08713 13.109 9.3518C12.9765 10.8727 12.2242 12.2041 10.9875 13.1066C10.4181 13.5221 9.67936 13.8384 8.95942 13.9749C8.35426 14.0896 7.65269 14.0896 7.04752 13.9749C5.20984 13.6264 3.70587 12.2976 3.13066 10.5142C2.94648 9.94319 2.87168 9.41153 2.88832 8.7918C2.90843 8.04313 3.07102 7.38095 3.40101 6.7038C3.76811 5.95051 4.27486 5.33705 4.94344 4.83655C5.28046 4.58427 5.73323 4.33046 6.09147 4.19302C6.35338 4.09254 6.41304 4.06223 6.47907 3.9962C6.5832 3.89207 6.6196 3.79913 6.61869 3.6398C6.61774 3.47878 6.58336 3.38769 6.48723 3.29156C6.33754 3.14187 6.13061 3.10582 5.89874 3.18905Z" fill="#333333"/>
</svg>
