<svg width="16" height="16" viewBox="0 0 16 16" fill="none" xmlns="http://www.w3.org/2000/svg">
<path fill-rule="evenodd" clip-rule="evenodd" d="M12.2976 0.533122C11.3539 0.678886 10.5468 1.21672 10.032 2.043C9.65679 2.64508 9.49077 3.42881 9.58607 4.14793C9.6006 4.25753 9.60902 4.35066 9.60479 4.35492C9.60055 4.35916 8.78257 4.68111 7.78704 5.07034C6.12736 5.71925 5.9751 5.77541 5.9541 5.7466C5.94151 5.72932 5.87138 5.63324 5.79827 5.53307C5.06935 4.5345 3.78686 4.04534 2.55828 4.29732C1.48712 4.51702 0.563211 5.32013 0.189726 6.35616C0.0553346 6.72895 -0.000126738 7.0556 2.17426e-07 7.47348C0.000272265 8.33574 0.312782 9.10508 0.915675 9.72766C1.52595 10.3579 2.33407 10.6983 3.21895 10.6979C4.03254 10.6976 4.7342 10.4297 5.36756 9.87748C5.47753 9.78162 5.70822 9.53322 5.77137 9.4427L5.80054 9.40087L7.74428 10.3768C9.34317 11.1796 9.68639 11.3583 9.67886 11.384C9.60724 11.6289 9.55896 11.9862 9.55896 12.2713C9.55896 12.8596 9.73213 13.4773 10.032 13.9584C10.4621 14.6487 11.0909 15.1348 11.8541 15.3671C12.1409 15.4544 12.3444 15.4864 12.6875 15.498C13.5869 15.5286 14.4119 15.2008 15.0554 14.5572C15.6753 13.9373 15.9987 13.1498 15.9984 12.2613C15.9982 11.3835 15.6773 10.6085 15.0557 9.98437C14.4302 9.35631 13.6647 9.03877 12.7759 9.03877C11.9583 9.03877 11.2518 9.31031 10.6222 9.86652C10.5058 9.96932 10.2896 10.2025 10.2259 10.2938C10.1979 10.3339 10.1953 10.3326 8.25417 9.358C6.65527 8.55521 6.31206 8.37652 6.31958 8.35075C6.40669 8.05293 6.44596 7.71214 6.43334 7.36332C6.42773 7.20807 6.41362 7.02942 6.402 6.96629C6.39039 6.90319 6.38386 6.84894 6.38751 6.84573C6.40122 6.83375 9.96859 5.44453 10.0033 5.43766C10.0293 5.43253 10.0495 5.44766 10.0745 5.49088C10.2063 5.71859 10.559 6.10178 10.8198 6.30068C11.3995 6.74268 12.0495 6.96267 12.7759 6.96267C13.6638 6.96267 14.4309 6.64448 15.0557 6.01708C15.4136 5.65773 15.6568 5.27332 15.8229 4.80462C16.025 4.23438 16.0563 3.52617 15.9056 2.93352C15.614 1.78665 14.699 0.87333 13.5581 0.590361C13.1763 0.495679 12.6846 0.473352 12.2976 0.533122ZM12.3617 1.68077C11.5142 1.8658 10.8737 2.53041 10.7273 3.37658C10.6844 3.62482 10.6994 4.01544 10.7609 4.25015C10.8601 4.62895 11.0426 4.94268 11.3269 5.22348C11.6828 5.5749 12.0851 5.76347 12.5878 5.81442C13.0844 5.86476 13.5892 5.72611 14.0104 5.42371C14.1647 5.31295 14.4171 5.04777 14.5189 4.88944C14.8434 4.38466 14.9454 3.77933 14.8011 3.21443C14.6126 2.47672 14.0588 1.91652 13.3107 1.70705C13.0727 1.64038 12.6059 1.62747 12.3617 1.68077ZM2.8422 5.40736C1.78425 5.59929 1.03869 6.58881 1.14314 7.66239C1.1778 8.01866 1.30626 8.37305 1.50573 8.66282C1.60816 8.8116 1.84189 9.05218 1.99605 9.16751C2.13291 9.2699 2.46264 9.42883 2.64969 9.48259C3.16268 9.62999 3.74981 9.56246 4.22431 9.30148C4.71933 9.0292 5.10223 8.52663 5.24362 7.96359C5.29817 7.74631 5.3112 7.3418 5.2711 7.10993C5.12165 6.24576 4.43736 5.55571 3.58123 5.40579C3.38779 5.37192 3.0334 5.37267 2.8422 5.40736ZM12.5605 10.1872C12.0859 10.2389 11.6721 10.4371 11.3269 10.778C11.0426 11.0588 10.8601 11.3725 10.7609 11.7513C10.6994 11.986 10.6844 12.3766 10.7273 12.6249C10.8772 13.4912 11.5458 14.1666 12.4155 14.3301C12.6548 14.3751 13.0798 14.3587 13.3041 14.2958C14.3134 14.013 14.9563 13.0913 14.8549 12.0726C14.773 11.2502 14.2266 10.5528 13.4583 10.29C13.1811 10.1952 12.8427 10.1564 12.5605 10.1872Z" fill="black"/>
</svg>
