<svg width="13" height="13" viewBox="0 0 13 13" fill="none" xmlns="http://www.w3.org/2000/svg">
<path fill-rule="evenodd" clip-rule="evenodd" d="M6.37633 0.00826913C6.18603 0.0332513 5.9966 0.1355 5.85584 0.28919C5.76266 0.39097 5.80675 0.306329 4.51699 2.8589L4.02174 3.83904L2.38526 4.00078C1.4852 4.08973 0.705285 4.17297 0.652116 4.18574C0.303761 4.26948 0.0404752 4.57885 0.00339555 4.94802C-0.0149026 5.13016 0.0417733 5.34682 0.148786 5.50386C0.177262 5.54563 0.544523 5.92159 0.964925 6.33933C1.38533 6.75708 2.00088 7.3692 2.33281 7.69961L2.93633 8.30036L2.46006 10.0266C1.91122 12.0158 1.91577 11.9983 1.91574 12.123C1.91567 12.5386 2.21726 12.9034 2.62693 12.9833C2.76599 13.0104 2.92052 13 3.05423 12.9547C3.10784 12.9365 3.90522 12.5484 4.82616 12.0921L6.50063 11.2626L8.17507 12.0921C9.09602 12.5483 9.89613 12.9374 9.9531 12.9568C10.28 13.0681 10.6626 12.9588 10.8834 12.6912C11.0209 12.5245 11.0855 12.3466 11.0855 12.1349C11.0855 11.9788 11.1065 12.0604 10.5279 9.96446L10.0685 8.30036L11.1122 7.26589C12.6747 5.71707 12.8257 5.56372 12.8806 5.47016C13.1161 5.06898 12.9962 4.55442 12.6082 4.3011C12.4922 4.22539 12.3784 4.18418 12.2317 4.16478C12.1748 4.15725 11.4259 4.08219 10.5676 3.99801C9.70935 3.91381 9.00007 3.84269 8.99147 3.83995C8.98287 3.83721 8.72892 3.3451 8.42713 2.74638C8.12534 2.14766 7.73173 1.36882 7.55243 1.01563L7.22646 0.373472L7.1148 0.261225C7.02584 0.17182 6.97941 0.137544 6.88652 0.0927306C6.71782 0.0113488 6.55645 -0.0153734 6.37633 0.00826913ZM5.58916 2.66115C5.09166 3.6493 4.66731 4.48141 4.64617 4.51029C4.60115 4.5718 4.49974 4.6425 4.42994 4.66106C4.40292 4.66826 3.59187 4.75228 2.62762 4.84779C1.66339 4.94328 0.873517 5.02277 0.872371 5.02442C0.871225 5.02606 1.52449 5.67539 2.32407 6.46736C3.43941 7.57208 3.78535 7.92253 3.81003 7.97264C3.8365 8.02639 3.84221 8.06002 3.84221 8.16227C3.84221 8.28328 3.82825 8.3371 3.31276 10.2038C3.02157 11.2582 2.78542 12.1231 2.78799 12.1256C2.79055 12.1282 3.5446 11.7575 4.46365 11.3018C5.3827 10.8462 6.19528 10.4459 6.26938 10.4123C6.38731 10.3588 6.41609 10.3511 6.50005 10.3511C6.55282 10.3511 6.61337 10.3583 6.63461 10.367C6.65585 10.3757 7.47083 10.777 8.44567 11.2587C9.4205 11.7405 10.2196 12.1326 10.2213 12.1302C10.2231 12.1277 9.98363 11.2526 9.68912 10.1854C9.32715 8.87382 9.15342 8.22275 9.15296 8.17608C9.15205 8.08499 9.17337 8.01037 9.22201 7.9344C9.2439 7.90022 9.90872 7.23217 10.6994 6.44984C11.4901 5.6675 12.1288 5.02583 12.1188 5.02388C12.1087 5.02193 11.316 4.94268 10.3571 4.84776C9.36454 4.7495 8.58952 4.66685 8.5576 4.65586C8.48014 4.62916 8.3989 4.57031 8.35421 4.50849C8.33354 4.47988 7.90957 3.6483 7.41207 2.66052C6.91457 1.67274 6.50441 0.864539 6.50062 0.864539C6.49682 0.864525 6.08666 1.673 5.58916 2.66115Z" fill="#446FDD"/>
</svg>
