<svg width="13" height="12" viewBox="0 0 13 12" fill="none" xmlns="http://www.w3.org/2000/svg">
<path fill-rule="evenodd" clip-rule="evenodd" d="M5.16764 0.0089832C4.71428 0.0865825 4.33495 0.435545 4.21985 0.880908C4.19325 0.983766 4.19087 1.02807 4.18602 1.50884L4.18083 2.02611L2.49262 2.02964L0.804421 2.03318L0.742779 2.06165C0.708879 2.07732 0.652601 2.11867 0.617725 2.15356C0.421448 2.34986 0.47852 2.68036 0.730034 2.80389L0.804421 2.84042L1.36746 2.8442C1.67713 2.84628 1.93051 2.85251 1.93051 2.85806C1.93051 2.9233 2.61032 10.9861 2.62062 11.043C2.65528 11.2346 2.7196 11.3802 2.83989 11.5394C3.01389 11.7696 3.276 11.9321 3.55078 11.98C3.65141 11.9976 4.01016 12 6.49994 12C8.98972 12 9.34847 11.9976 9.4491 11.98C9.72388 11.9321 9.98599 11.7696 10.16 11.5394C10.2784 11.3827 10.3449 11.232 10.3792 11.043C10.3894 10.9865 11.0694 2.92209 11.0694 2.85723C11.0694 2.85214 11.3227 2.84628 11.6324 2.8442L12.1955 2.84042L12.2698 2.80389C12.459 2.71101 12.5477 2.48983 12.4744 2.29392C12.4413 2.20546 12.3447 2.10211 12.2575 2.06185L12.1955 2.03318L10.5073 2.02964L8.81905 2.02611L8.81386 1.50884C8.80902 1.02807 8.80663 0.983766 8.78004 0.880908C8.67722 0.483094 8.36944 0.165471 7.96387 0.0386298L7.84734 0.00218677L6.539 0.000181686C5.81941 -0.000911995 5.2023 0.00304607 5.16764 0.0089832ZM5.23567 0.833632C5.13803 0.868812 5.05353 0.957387 5.01792 1.06187C5.0076 1.09213 5.00283 1.25169 5.00283 1.5664V2.02667H6.49994H7.99705L7.99606 1.5612C7.99537 1.23943 7.99035 1.08294 7.97979 1.05428C7.95277 0.981018 7.88384 0.897352 7.81917 0.85932L7.75621 0.822317L6.51947 0.819505C5.53083 0.817253 5.27329 0.820078 5.23567 0.833632ZM2.75066 2.85863C2.75066 2.92375 3.4174 10.8398 3.42728 10.8921C3.45144 11.0199 3.53434 11.1213 3.64775 11.1619C3.71752 11.1868 9.28337 11.1865 9.35323 11.1615C9.46903 11.1201 9.56099 11 9.57854 10.8673C9.58514 10.8173 10.2492 2.88605 10.2492 2.8572C10.2492 2.85155 8.56205 2.84693 6.49994 2.84693C4.29125 2.84693 2.75066 2.85173 2.75066 2.85863ZM5.25548 4.71353C5.13818 4.74298 5.04995 4.81527 4.98664 4.93375L4.95727 4.98872V7.01333V9.03795L4.98765 9.09654C5.0305 9.17916 5.1126 9.2592 5.19031 9.29409C5.28527 9.33673 5.44025 9.33605 5.52634 9.29262C5.60082 9.25504 5.68563 9.17346 5.72344 9.10305L5.75139 9.05097L5.7548 7.03997C5.75864 4.78053 5.76648 4.9599 5.65872 4.84003C5.55635 4.72616 5.40026 4.67719 5.25548 4.71353ZM7.55634 4.70912C7.47817 4.72539 7.39754 4.77539 7.33511 4.84633C7.23434 4.96082 7.24126 4.79228 7.24508 7.03997L7.2485 9.05097L7.27645 9.10305C7.31425 9.17346 7.39907 9.25504 7.47354 9.29262C7.55963 9.33605 7.71462 9.33673 7.80957 9.29409C7.88728 9.2592 7.96939 9.17916 8.01223 9.09654L8.04261 9.03795L8.04599 7.04122C8.04824 5.71043 8.04493 5.028 8.03605 4.99504C8.00552 4.88167 7.88063 4.75005 7.77711 4.72218C7.69888 4.70111 7.61784 4.69632 7.55634 4.70912Z" fill="#1F63FF"/>
</svg>
