<svg width="17" height="16" viewBox="0 0 17 16" fill="none" xmlns="http://www.w3.org/2000/svg">
<path fill-rule="evenodd" clip-rule="evenodd" d="M9.04203 0.648659C9.20623 0.745982 9.34148 0.885734 9.43371 1.05338L16.3671 13.9107C16.4567 14.0738 16.5025 14.2576 16.4999 14.4439C16.4972 14.6302 16.4462 14.8126 16.352 14.9731C16.2577 15.1336 16.1234 15.2666 15.9623 15.359C15.8012 15.4514 15.6189 15.5 15.4334 15.5H1.56657C1.38107 15.5 1.19878 15.4514 1.0377 15.359C0.876608 15.2666 0.742306 15.1336 0.648027 14.9731C0.553751 14.8126 0.502768 14.6302 0.50011 14.4439C0.497451 14.2576 0.543211 14.0738 0.63287 13.9107L7.56631 1.05338C7.65847 0.885734 7.79373 0.745982 7.95793 0.648659C8.12212 0.551329 8.30929 0.5 8.50001 0.5C8.69066 0.5 8.87783 0.551329 9.04203 0.648659ZM8.5 5C8.77615 5 9 5.22386 9 5.5V9.99999C9 10.2762 8.77615 10.5 8.5 10.5C8.22386 10.5 8 10.2762 8 9.99999V5.5C8 5.22386 8.22386 5 8.5 5ZM8.5 11.5C8.91421 11.5 9.25 11.8358 9.25 12.25C9.25 12.6642 8.91421 13 8.5 13C8.08579 13 7.75 12.6642 7.75 12.25C7.75 11.8358 8.08579 11.5 8.5 11.5Z" fill="#FF8500"/>
</svg>
