<svg width="14" height="14" viewBox="0 0 14 14" fill="none" xmlns="http://www.w3.org/2000/svg">
<g clip-path="url(#clip0_8539_20526)">
<mask id="mask0_8539_20526" style="mask-type:luminance" maskUnits="userSpaceOnUse" x="0" y="0" width="14" height="14">
<path d="M14 0H0V14H14V0Z" fill="white"/>
</mask>
<g mask="url(#mask0_8539_20526)">
<path d="M1.2299 4.81C1.3399 4.81 1.4399 4.83 1.5399 4.85L9.5499 7.02C9.5499 7.02 9.5599 7.02 9.5699 7.02C9.5699 7.02 9.5699 7.02 9.5799 7.02C9.6499 7.04 9.7099 7.07 9.7599 7.1C9.7599 7.1 9.7699 7.1 9.7799 7.1L9.8399 7.14H9.8599C9.8599 7.14 9.9699 7.22 10.0399 7.3C10.1399 7.41 10.2199 7.53 10.2799 7.66C10.2899 7.69 10.3099 7.74 10.3299 7.8L11.8199 12.93C11.8199 12.93 11.8199 12.93 11.8199 12.94C11.8199 12.94 11.8199 12.94 11.8199 12.95C11.8199 12.95 11.8199 12.96 11.8199 12.97C11.8199 12.97 11.8199 12.98 11.8199 12.99C11.8199 13.03 11.8299 13.08 11.8299 13.13C11.8299 13.15 11.8299 13.17 11.8299 13.18C11.8299 13.19 11.8299 13.2 11.8299 13.22C11.7999 13.62 11.4599 13.96 11.0399 13.96C10.9699 13.96 10.8899 13.96 10.7999 13.92L2.3599 11.25C2.0099 11.14 1.7299 10.87 1.6099 10.52L0.139903 6.39C-0.130097 5.61 0.449903 4.82 1.2399 4.82L1.2299 4.81ZM1.2299 5.69C1.0599 5.69 0.889903 5.88 0.959903 6.1L2.4699 10.27C2.4999 10.37 2.5699 10.44 2.6599 10.47L10.9799 13.1L9.5199 8.09C9.5199 8.09 9.5199 8.08 9.5199 8.07C9.5199 8.07 9.5199 8.06 9.5199 8.05C9.4999 8.01 9.4799 7.98 9.4599 7.96C9.4599 7.96 9.4499 7.96 9.4399 7.95C9.4399 7.95 9.4199 7.94 9.4099 7.93C9.4099 7.93 9.3999 7.93 9.3899 7.92C9.3699 7.91 9.3499 7.9 9.3399 7.9L1.3099 5.7C1.3099 5.7 1.2399 5.69 1.2299 5.69Z" fill="black"/>
<path d="M3.71994 2.13V1.19C3.71994 0.53 4.23994 0 4.85994 0C4.96994 0 5.08994 0.02 5.19994 0.05L5.30994 0.09L6.52994 0.63C6.82994 0.77 7.05994 1.02 7.15994 1.34L7.62994 2.7C7.66994 2.82 7.73994 2.88 7.81994 2.91L12.8299 4.16C12.8299 4.16 12.8699 4.16 12.8899 4.17C13.1999 4.25 13.4199 4.49 13.5499 4.71C13.6799 4.93 13.7699 5.21 13.7699 5.47V11.81C13.7699 12.05 13.5699 12.25 13.3299 12.25C13.0899 12.25 12.8899 12.05 12.8899 11.81V5.47C12.8899 5.39 12.8599 5.27 12.7899 5.16C12.7599 5.11 12.7299 5.07 12.6999 5.05C12.6899 5.04 12.6799 5.03 12.6699 5.03L7.59994 3.77C7.20994 3.67 6.91994 3.37 6.78994 3L6.31994 1.64C6.28994 1.55 6.22994 1.49 6.15994 1.46L4.93994 0.92L4.88994 0.9C4.88994 0.9 4.85994 0.9 4.83994 0.9C4.71994 0.9 4.56994 1.01 4.56994 1.21V2.15C4.56994 2.39 4.36994 2.59 4.12994 2.59C3.88994 2.59 3.68994 2.39 3.68994 2.15L3.71994 2.13Z" fill="black"/>
<path d="M1.82004 4.96002V2.28002C1.82004 1.91002 2.03004 1.58002 2.35004 1.42002C2.35004 1.42002 2.37004 1.42002 2.38004 1.41002C2.38004 1.41002 2.38004 1.41002 2.39004 1.41002C2.51004 1.36002 2.64004 1.33002 2.78004 1.33002C2.88004 1.33002 2.97004 1.35002 3.06004 1.37002L3.15004 1.40002L4.42004 1.93002C4.64004 2.02002 4.82004 2.20002 4.92004 2.41002L4.96004 2.51002L5.47004 3.98002C5.52004 4.14002 5.66004 4.26002 5.83004 4.30002L11.13 5.58002C11.56 5.69002 11.87 6.07002 11.87 6.52002V13.15C11.87 13.39 11.67 13.59 11.43 13.59C11.19 13.59 10.99 13.39 10.99 13.15V6.52002C10.99 6.52002 10.96 6.44002 10.92 6.43002L5.62004 5.15002C5.17004 5.04002 4.80004 4.71002 4.64004 4.27002L4.13004 2.81002V2.79002C4.13004 2.79002 4.10004 2.76002 4.08004 2.75002L2.81004 2.23002H2.78004C2.78004 2.23002 2.77004 2.22002 2.76004 2.22002C2.76004 2.22002 2.74004 2.22002 2.72004 2.22002C2.69004 2.24002 2.67004 2.27002 2.67004 2.30002V4.98002C2.67004 5.22002 2.47004 5.42002 2.23004 5.42002C1.99004 5.42002 1.79004 5.22002 1.79004 4.98002L1.82004 4.96002Z" fill="black"/>
</g>
</g>
<defs>
<clipPath id="clip0_8539_20526">
<rect width="14" height="14" fill="white"/>
</clipPath>
</defs>
</svg>
