<svg xmlns="http://www.w3.org/2000/svg" width="32" height="32" fill="none" viewBox="0 0 32 32"><path fill="#000" d="M6.8 2.95q.25.03.48.1l.22.07.84.34v-.47A2.97 2.97 0 0 1 12.16.14l.28.1 2.8 1.22c.77.34 1.35.99 1.62 1.77l1.07 3.04v.02q.1.21.22.23l11.45 2.8q.08 0 .13.02c.84.22 1.4.83 1.72 1.36s.55 1.21.55 1.87v14.2c0 .73-.6 1.31-1.33 1.31s-1.34-.58-1.34-1.3v-14.2a1.2 1.2 0 0 0-.3-.71L17.48 9.05c-1-.25-1.77-1-2.08-1.93l-1.07-3.04v-.02a.4.4 0 0 0-.19-.22l-2.78-1.2-.09-.03c-.07 0-.28.1-.28.38v1.64q.5.38.76.92l.1.24 1.17 3.29c.08.24.3.44.58.5l12.1 2.87a2.5 2.5 0 0 1 1.95 2.43v15.09l-.01.07a2.16 2.16 0 0 1-2.8 1.86l-19.3-5.97a3 3 0 0 1-1.92-1.84L.18 14.75l-.01-.02a2.98 2.98 0 0 1 3.61-3.84l.22.05v-5.5c0-.96.55-1.81 1.4-2.23l.08-.04.04-.02a3 3 0 0 1 1.03-.21zM3 13.4a.3.3 0 0 0-.25.14q-.12.14-.05.35l3.44 9.32.01.02q.07.17.22.22l18.41 5.7-3.15-10.63-.01-.03-.02-.03-.03-.06-.04-.05-.02-.02q-.02 0-.03-.02h-.01l-.04-.02-.04-.02h-.02L3.09 13.4zm3.68-1.95-.02.2 15.44 4.1.05.01.08.03q.25.1.46.2l.03.01.04.02.21.13c.05.03.26.17.45.36l.02.02a3 3 0 0 1 .74 1.26l.83 2.76v-5.57l-12.02-2.85a3.5 3.5 0 0 1-2.47-2.19L9.36 6.7l-2.7-1.1zM21.2 18.2l-.02-.01z"/></svg>