<svg xmlns="http://www.w3.org/2000/svg" width="16" height="16" fill="none"><path fill="#000" fill-rule="evenodd" d="M5.97224 13.6487c1.1624.4174 2.42529.4659 3.61629.1389 1.19097-.327 2.25207-1.0136 3.03837-1.966.1758-.2129.1457-.5281-.0672-.7039-.213-.1758-.5281-.1457-.7039.0673-.6553.7937-1.5395 1.3658-2.53203 1.6383-.99249.2725-2.0449.232-3.01357-.1158-.96867-.3478-1.80639-.9861-2.39882-1.8277C3.31894 10.0381 3.00067 9.03419 3 8.00497V7.7124l1.14645 1.14644c.19526.19527.51184.19527.7071 0 .19527-.19526.19527-.51184 0-.7071L2.87921 6.1774c-.09169-.1066-.22757-.17411-.37921-.17411s-.28752.06751-.37921.17411L.146447 8.15174c-.195263.19526-.195263.51184 0 .7071.195262.19527.511844.19527.707106 0L2 7.7124v.29289c.0008 1.23507.38273 2.44011 1.09365 3.45011.71092 1.0099 1.71619 1.7759 2.87859 2.1933Zm7.17416-4.28986c.1953.19527.5119.19527.7072 0l2-2c.1952-.19526.1952-.51184 0-.7071-.1953-.19526-.5119-.19526-.7072 0l-1.1499 1.14993c-.0385-1.13003-.3957-2.22774-1.0324-3.16551-.6747-.99399-1.6324-1.76251-2.7489-2.20606-1.11654-.44355-2.3405-.54171-3.51344-.28176-1.17293.25995-2.24082.86603-3.0654 1.73978-.18953.20083-.18037.51728.02047.70681.20083.18953.51728.18037.70681-.02047.68714-.72811 1.57705-1.23318 2.5545-1.44981.97744-.21662 1.99741-.13482 2.92785.2348.93041.36963 1.72851 1.01006 2.29081 1.83838.5226.76983.8193 1.66899.8587 2.59584l-1.1419-1.14193c-.1953-.19526-.5119-.19526-.7072 0-.1952.19526-.1952.51184 0 .7071l2 2Z" clip-rule="evenodd"/></svg>