<svg width="14" height="16" viewBox="0 0 14 16" fill="none" xmlns="http://www.w3.org/2000/svg">
<path fill-rule="evenodd" clip-rule="evenodd" d="M6.6432 0.00950026C5.64009 0.11335 4.78358 0.526759 4.09991 1.2371C3.80494 1.54356 3.58168 1.86288 3.39503 2.24519C3.25462 2.5328 3.17594 2.74298 3.10798 3.01201C2.9976 3.44887 2.99922 3.42535 2.98878 4.75302L2.97922 5.96868L2.59667 5.97887C2.28546 5.98716 2.19005 5.99561 2.08502 6.02425C1.4759 6.19027 1.0772 6.68184 0.99926 7.36287C0.974777 7.5767 0.974896 14.4278 0.999379 14.6664C1.04061 15.0681 1.21852 15.4104 1.5088 15.6464C1.65582 15.766 1.92034 15.897 2.12911 15.9538L2.29913 16H7.01725H11.7354L11.8884 15.9612C12.509 15.8038 12.9232 15.3029 13.0022 14.6143C13.0249 14.4163 13.0243 7.53744 13.0015 7.32036C12.9627 6.94959 12.8443 6.68942 12.6025 6.44332C12.3884 6.22548 12.1921 6.11422 11.8629 6.02416C11.7616 5.99646 11.6619 5.98716 11.3783 5.97898L11.0213 5.96868L11.0117 4.75302C11.0035 3.70356 10.9982 3.51538 10.9728 3.37657C10.8176 2.526 10.4662 1.82473 9.90059 1.2371C9.26417 0.575845 8.46625 0.16672 7.55359 0.0336944C7.34213 0.00286938 6.83689 -0.0105624 6.6432 0.00950026ZM6.75372 1.0735C6.72566 1.0775 6.6415 1.08887 6.56669 1.0988C5.73734 1.20877 4.93955 1.7345 4.48674 2.46942C4.31643 2.74582 4.17691 3.09809 4.11091 3.41835C4.05415 3.69371 4.04026 4.03643 4.04548 5.03356L4.05036 5.96868H7.00025H9.95014L9.95502 5.03356C9.96156 3.78114 9.93963 3.50096 9.80326 3.0953C9.65442 2.6526 9.44005 2.29963 9.11807 1.96707C8.66887 1.50311 8.11546 1.212 7.47631 1.10344C7.33392 1.07926 6.85316 1.05934 6.75372 1.0735ZM2.42665 7.048C2.25926 7.06947 2.16352 7.14355 2.09992 7.30086L2.0611 7.39687V11.0183V14.6398L2.0992 14.7111C2.14876 14.8038 2.23075 14.8649 2.35963 14.905C2.46086 14.9365 2.58744 14.9374 7.01973 14.9374C10.4366 14.9374 11.5955 14.9324 11.6546 14.9175C11.7539 14.8925 11.8584 14.7909 11.9054 14.6737C11.939 14.5899 11.9395 14.5438 11.9439 11.0183C11.947 8.53947 11.9429 7.42108 11.9303 7.36025C11.8958 7.19345 11.7698 7.09049 11.5507 7.05014C11.4377 7.02932 2.58844 7.02724 2.42665 7.048ZM6.80304 9.49777C6.70399 9.53587 6.5745 9.65475 6.5189 9.75863L6.48168 9.82819V10.9843V12.1405L6.52352 12.2224C6.6169 12.4052 6.79262 12.5119 7.00025 12.5119C7.20788 12.5119 7.3836 12.4052 7.47698 12.2224L7.51882 12.1405V10.9843V9.82819L7.4816 9.75863C7.42412 9.65121 7.29679 9.5359 7.19261 9.49692C7.07494 9.4529 6.91879 9.45324 6.80304 9.49777Z" fill="#333333"/>
</svg>
