<svg width="24" height="24" fill="none" xmlns="http://www.w3.org/2000/svg"><path d="M3.5 24c-.827 0-1.5-.673-1.5-1.5v-21C2 .673 2.673 0 3.5 0h13.293c.421.012.785.163 1.06.437l3.708 3.71c.283.283.439.66.439 1.06V22.5c0 .827-.673 1.5-1.5 1.5h-17Zm0-23c-.276 0-.5.224-.5.5v21c0 .276.224.5.5.5h17c.276 0 .5-.224.5-.5V5.207a.501.501 0 0 0-.146-.354l-3.707-3.709c-.095-.093-.217-.143-.355-.144H3.5Z" fill="#000"/><path d="M6.5 19.999c-.827 0-1.5-.561-1.5-1.25v-10.5c0-.689.673-1.25 1.5-1.25h11c.827 0 1.5.561 1.5 1.25v10.5c0 .689-.673 1.25-1.5 1.25h-11Zm11-1c.29 0 .5-.149.5-.25v-1.75h-8v2h7.5ZM6 18.749c0 .101.21.25.5.25H9v-2H6v1.75Zm12-2.75v-2h-8v2h8Zm-9 0v-2H6v2h3Zm9-3v-2h-8v2h8Zm-9 0v-2H6v2h3Zm9-3v-1.75c0-.101-.21-.25-.5-.25H10v2h8Zm-9 0v-2H6.5c-.29 0-.5.149-.5.25v1.75h3Z" fill="#000"/></svg>