<svg width="14" height="14" viewBox="0 0 14 14" fill="none" xmlns="http://www.w3.org/2000/svg">
<path fill-rule="evenodd" clip-rule="evenodd" d="M6.56957 0.0118586C4.73521 0.115254 2.9864 0.970516 1.75212 2.36788C0.34432 3.96168 -0.255949 6.07971 0.100667 8.19495C0.344246 9.63968 1.05184 10.978 2.12405 12.0219C3.22085 13.0897 4.59833 13.7532 6.12238 13.9477C7.01037 14.0611 8.04946 13.9874 8.86749 13.7529C10.1011 13.3994 11.1345 12.7861 12.0134 11.8858C12.8325 11.0468 13.4107 10.0512 13.7379 8.91632C14.0501 7.83363 14.0851 6.57298 13.8337 5.46185C13.5092 4.02725 12.739 2.72834 11.6339 1.75204C10.2359 0.516876 8.45661 -0.0944969 6.56957 0.0118586ZM6.60676 0.941747C5.59356 1.0224 4.74314 1.28836 3.87767 1.79527C3.26917 2.15164 2.60627 2.74914 2.15279 3.34989C0.877392 5.0395 0.578038 7.28984 1.36727 9.25495C1.68978 10.058 2.13043 10.7163 2.75704 11.3311C3.24588 11.8107 3.66889 12.1145 4.26422 12.4136C4.94564 12.756 5.56795 12.9424 6.33904 13.0352C6.65249 13.0729 7.3493 13.0729 7.66276 13.0352C8.43384 12.9424 9.05616 12.756 9.73757 12.4136C10.3329 12.1145 10.7559 11.8107 11.2448 11.3311C11.7568 10.8287 12.1 10.3606 12.4125 9.73839C12.7069 9.15243 12.8893 8.59878 12.9867 7.99619C13.0401 7.66581 13.0542 7.51043 13.0644 7.14272C13.0951 6.03 12.8222 4.95792 12.2541 3.95949C11.8816 3.30485 11.2807 2.6274 10.6504 2.15152C9.79167 1.50319 8.78711 1.10268 7.68507 0.969251C7.4932 0.946031 6.78117 0.927869 6.60676 0.941747ZM10.3199 3.56075C10.2819 3.5742 10.2196 3.61811 10.1685 3.66742C10.1208 3.71352 9.07018 5.03309 7.83378 6.59978C6.59739 8.16648 5.56609 9.46672 5.54201 9.48923C5.47759 9.54941 5.39706 9.54641 5.34036 9.48172C5.31701 9.45509 4.98 8.98176 4.59143 8.42987C4.20287 7.878 3.86303 7.40449 3.83621 7.37765C3.69722 7.23847 3.45778 7.20665 3.29115 7.30523C3.13414 7.39812 3.05448 7.53693 3.05419 7.7182C3.05403 7.81656 3.06011 7.8439 3.09765 7.91364C3.12166 7.95823 3.46584 8.45565 3.86252 9.01902C4.63321 10.1136 4.7096 10.2092 4.90413 10.3226C4.95711 10.3535 5.05399 10.3966 5.11943 10.4185C5.22539 10.4538 5.26122 10.4582 5.44664 10.4585C5.6361 10.4588 5.66544 10.4551 5.77222 10.4178C5.94491 10.3575 6.11707 10.2504 6.22215 10.1379C6.34585 10.0056 10.8915 4.23341 10.9179 4.17518C10.9654 4.07035 10.9611 3.90904 10.9079 3.80021C10.8573 3.69683 10.7445 3.59159 10.6495 3.55924C10.5631 3.52979 10.4055 3.53051 10.3199 3.56075Z" fill="#3EBF4D"/>
</svg>
