<svg width="16" height="16" viewBox="0 0 16 16" fill="none" xmlns="http://www.w3.org/2000/svg">
<path d="M7.99219 11.752C8.42722 11.752 8.84472 11.9248 9.15234 12.2324C9.45991 12.5401 9.63281 12.9575 9.63281 13.3926C9.63278 13.8276 9.45995 14.2451 9.15234 14.5527C8.84472 14.8604 8.42722 15.0331 7.99219 15.0332C7.55715 15.0332 7.13969 14.8603 6.83203 14.5527C6.52438 14.2451 6.35159 13.8277 6.35156 13.3926C6.35156 12.9575 6.52435 12.5401 6.83203 12.2324C7.1397 11.9248 7.5571 11.752 7.99219 11.752ZM7.99219 6.36133C8.42722 6.36139 8.84472 6.53418 9.15234 6.8418C9.45991 7.14946 9.63281 7.56692 9.63281 8.00195C9.63278 8.437 9.45995 8.85447 9.15234 9.16211C8.84472 9.46973 8.42722 9.64251 7.99219 9.64258C7.55715 9.64258 7.13969 9.46967 6.83203 9.16211C6.52438 8.85446 6.35159 8.43703 6.35156 8.00195C6.35156 7.56683 6.52435 7.14947 6.83203 6.8418C7.1397 6.53416 7.5571 6.36133 7.99219 6.36133ZM7.99219 0.970703C8.42722 0.970768 8.84472 1.14355 9.15234 1.45117C9.45991 1.75883 9.63281 2.17629 9.63281 2.61133C9.63278 3.04638 9.45995 3.46384 9.15234 3.77148C8.84472 4.0791 8.42722 4.25189 7.99219 4.25195C7.55715 4.25195 7.13969 4.07905 6.83203 3.77148C6.52438 3.46384 6.35159 3.0464 6.35156 2.61133C6.35156 2.17621 6.52435 1.75885 6.83203 1.45117C7.1397 1.14353 7.5571 0.970703 7.99219 0.970703Z" fill="black"/>
</svg>
