<svg width="100" height="18" viewBox="0 0 100 18" fill="none" xmlns="http://www.w3.org/2000/svg">
<g clip-path="url(#clip0_4528_13911)">
<path d="M99.9987 9.77073C99.9987 10.7684 99.7145 11.7438 99.1819 12.5733C98.6494 13.4029 97.8925 14.0495 97.0069 14.4313C96.1213 14.8131 95.1468 14.913 94.2066 14.7184C93.2665 14.5237 92.4029 14.0433 91.7251 13.3378C91.0473 12.6323 90.5857 11.7334 90.3987 10.7549C90.2117 9.77632 90.3077 8.76203 90.6745 7.84025C91.0414 6.91848 91.6625 6.13063 92.4596 5.57632C93.2566 5.02202 94.1936 4.72616 95.1522 4.72616C96.4376 4.72616 97.6703 5.25764 98.5792 6.20368C99.4881 7.14972 99.9987 8.43283 99.9987 9.77073ZM95.1522 7.24383C94.672 7.24383 94.2026 7.39203 93.8034 7.66969C93.4042 7.94735 93.093 8.342 92.9093 8.80373C92.7255 9.26546 92.6774 9.77353 92.7711 10.2637C92.8648 10.7539 93.096 11.2041 93.4355 11.5575C93.775 11.9109 94.2076 12.1516 94.6786 12.2491C95.1495 12.3466 95.6376 12.2965 96.0812 12.1053C96.5248 11.914 96.904 11.5901 97.1707 11.1746C97.4375 10.7591 97.5799 10.2705 97.5799 9.77073C97.5799 9.43889 97.5171 9.1103 97.3951 8.80373C97.2731 8.49715 97.0943 8.21859 96.8688 7.98394C96.6434 7.7493 96.3758 7.56317 96.0812 7.43618C95.7867 7.30919 95.471 7.24383 95.1522 7.24383ZM74.3453 9.7738C74.3453 10.7715 74.061 11.7468 73.5285 12.5764C72.9959 13.406 72.239 14.0526 71.3534 14.4344C70.4678 14.8162 69.4934 14.9161 68.5532 14.7214C67.6131 14.5268 66.7495 14.0463 66.0717 13.3409C65.3939 12.6354 64.9323 11.7365 64.7453 10.7579C64.5583 9.7794 64.6543 8.7651 65.0211 7.84333C65.3879 6.92155 66.0091 6.1337 66.8061 5.5794C67.6031 5.02509 68.5402 4.72923 69.4987 4.72923C70.7841 4.72923 72.0169 5.26071 72.9258 6.20675C73.8347 7.15279 74.3453 8.4359 74.3453 9.7738ZM69.4987 7.24691C69.0186 7.24691 68.5492 7.39511 68.15 7.67276C67.7507 7.95042 67.4396 8.34507 67.2558 8.8068C67.0721 9.26853 67.024 9.77661 67.1177 10.2668C67.2113 10.7569 67.4426 11.2072 67.7821 11.5606C68.1216 11.914 68.5542 12.1546 69.0251 12.2521C69.496 12.3496 69.9842 12.2996 70.4278 12.1083C70.8714 11.9171 71.2505 11.5932 71.5173 11.1777C71.7841 10.7621 71.9264 10.2736 71.9264 9.7738C71.9264 9.10363 71.6707 8.4609 71.2154 7.98702C70.7601 7.51313 70.1426 7.24691 69.4987 7.24691ZM51.22 4.72616C50.9838 4.71577 50.7502 4.78169 50.5514 4.91488C50.3526 5.04806 50.1982 5.24199 50.1095 5.47009C49.3745 5.00123 48.5327 4.74478 47.6708 4.72713C46.8089 4.70949 45.9581 4.93129 45.206 5.3697C44.4538 5.80811 43.8275 6.44728 43.3916 7.22138C42.9557 7.99548 42.7259 8.87653 42.7259 9.7738C42.7259 10.6711 42.9557 11.5521 43.3916 12.3262C43.8275 13.1003 44.4538 13.7395 45.206 14.1779C45.9581 14.6163 46.8089 14.8381 47.6708 14.8205C48.5327 14.8028 49.3745 14.5464 50.1095 14.0775C50.2 14.3048 50.3552 14.4976 50.5543 14.6301C50.7534 14.7626 50.9868 14.8283 51.2229 14.8184C51.3885 14.824 51.5534 14.7933 51.7068 14.7283C51.8603 14.6633 51.9988 14.5655 52.1136 14.4411C52.2283 14.3168 52.3167 14.1687 52.3729 14.0065C52.4291 13.8443 52.4518 13.6716 52.4397 13.4996V6.03879C52.4518 5.86682 52.4291 5.69413 52.3729 5.53192C52.3167 5.36971 52.2283 5.22162 52.1136 5.09725C51.9988 4.97289 51.8603 4.87503 51.7068 4.81004C51.5534 4.74505 51.3885 4.71438 51.2229 4.72001M47.5902 12.2976C47.1191 12.2979 46.6581 12.1556 46.2633 11.8881C45.8684 11.6207 45.5568 11.2396 45.3662 10.7911C45.1756 10.3427 45.1143 9.8463 45.1898 9.36229C45.2653 8.87829 45.4743 8.42754 45.7913 8.06488C46.1084 7.70222 46.5199 7.44328 46.9757 7.31955C47.4316 7.19582 47.9122 7.21264 48.359 7.36796C48.8058 7.52328 49.1997 7.8104 49.4926 8.19441C49.7856 8.57842 49.965 9.04276 50.0091 9.53095V9.99206C49.9538 10.6202 49.6752 11.2042 49.2277 11.6296C48.7802 12.055 48.1962 12.291 47.5902 12.2915M63.8193 10.4716C63.804 10.1493 63.6702 9.84549 63.4456 9.62302C63.221 9.40055 62.9228 9.27647 62.6128 9.27647C62.3028 9.27647 62.0046 9.40055 61.78 9.62302C61.5555 9.84549 61.4217 10.1493 61.4063 10.4716C61.3625 10.9266 61.1578 11.3484 60.832 11.6552C60.5062 11.962 60.0825 12.1319 59.6431 12.1319C59.2038 12.1319 58.7801 11.962 58.4543 11.6552C58.1285 11.3484 57.9238 10.9266 57.88 10.4716V7.24691H60.7271C61.0482 7.24691 61.3562 7.11412 61.5833 6.87775C61.8104 6.64139 61.938 6.3208 61.938 5.98653C61.938 5.65226 61.8104 5.33168 61.5833 5.09531C61.3562 4.85895 61.0482 4.72616 60.7271 4.72616H57.874V3.86849C57.8587 3.54619 57.7249 3.24236 57.5003 3.01989C57.2758 2.79742 56.9776 2.67334 56.6676 2.67334C56.3575 2.67334 56.0594 2.79742 55.8348 3.01989C55.6102 3.24236 55.4764 3.54619 55.4611 3.86849V4.73538H54.4835C54.1639 4.73538 53.8574 4.86752 53.6315 5.10273C53.4055 5.33795 53.2785 5.65697 53.2785 5.98961C53.2785 6.32225 53.4055 6.64126 53.6315 6.87648C53.8574 7.11169 54.1639 7.24383 54.4835 7.24383H55.4611V10.4716C55.4757 11.6208 55.9211 12.7185 56.7024 13.5306C57.4838 14.3427 58.5391 14.8048 59.6431 14.8184C60.7505 14.8176 61.8123 14.3593 62.5953 13.5443C63.3783 12.7293 63.8185 11.6242 63.8193 10.4716ZM89.4698 13.5549V9.02065C89.4589 8.16351 89.2044 7.32892 88.7385 6.62211C88.2725 5.9153 87.6159 5.36791 86.8515 5.04899C86.087 4.73006 85.249 4.65387 84.443 4.83002C83.637 5.00617 82.8991 5.42677 82.3225 6.03879C81.7454 5.42669 81.0069 5.00639 80.2003 4.83102C79.3938 4.65564 78.5554 4.73307 77.7911 5.05351C77.0268 5.37395 76.371 5.92301 75.9064 6.63132C75.4419 7.33963 75.1895 8.17538 75.1811 9.03295V13.5549C75.1964 13.8772 75.3302 14.1811 75.5548 14.4035C75.7794 14.626 76.0776 14.7501 76.3876 14.7501C76.6976 14.7501 76.9958 14.626 77.2204 14.4035C77.4449 14.1811 77.5787 13.8772 77.5941 13.5549V9.07291C77.6344 8.61477 77.8377 8.18884 78.1642 7.87872C78.4907 7.56859 78.9167 7.39666 79.3587 7.39666C79.8007 7.39666 80.2268 7.56859 80.5533 7.87872C80.8798 8.18884 81.0831 8.61477 81.1234 9.07291V13.5119C81.1248 13.8508 81.2523 14.176 81.4792 14.4191C81.7061 14.6621 82.0148 14.8042 82.3402 14.8153C82.6614 14.8009 82.9646 14.6567 83.1852 14.4133C83.4058 14.1699 83.5265 13.8465 83.5216 13.5119V9.07291C83.5619 8.61477 83.7652 8.18884 84.0917 7.87872C84.4182 7.56859 84.8443 7.39666 85.2863 7.39666C85.7283 7.39666 86.1543 7.56859 86.4808 7.87872C86.8073 8.18884 87.0106 8.61477 87.0509 9.07291V13.5549C87.0509 13.8876 87.1779 14.2066 87.4039 14.4418C87.6298 14.677 87.9363 14.8091 88.2559 14.8091C88.5755 14.8091 88.882 14.677 89.108 14.4418C89.334 14.2066 89.4609 13.8876 89.4609 13.5549M41.9049 13.5519V9.0145C41.8934 8.15725 41.6383 7.32272 41.1718 6.61618C40.7052 5.90963 40.0481 5.36272 39.2833 5.04443C38.5185 4.72613 37.6802 4.65071 36.8743 4.82768C36.0683 5.00464 35.3308 5.42606 34.7546 6.03879C34.1781 5.42642 33.44 5.00578 32.6338 4.83006C31.8275 4.65435 30.9893 4.73146 30.2252 5.05164C29.4611 5.37182 28.8053 5.92069 28.3409 6.62882C27.8765 7.33695 27.6243 8.17253 27.6162 9.02987V13.5519C27.6162 13.8845 27.7432 14.2035 27.9691 14.4387C28.1951 14.6739 28.5016 14.8061 28.8212 14.8061C29.1408 14.8061 29.4473 14.6739 29.6733 14.4387C29.8993 14.2035 30.0262 13.8845 30.0262 13.5519V9.06984C30.0262 8.58066 30.2129 8.11152 30.5452 7.76561C30.8776 7.41971 31.3283 7.22539 31.7983 7.22539C32.2682 7.22539 32.719 7.41971 33.0513 7.76561C33.3836 8.11152 33.5703 8.58066 33.5703 9.06984V13.5057C33.5717 13.8455 33.6995 14.1714 33.927 14.4151C34.1545 14.6587 34.4638 14.8011 34.7901 14.8122C35.1115 14.7971 35.4147 14.6522 35.6352 14.4083C35.8558 14.1644 35.9764 13.8406 35.9714 13.5057V9.06984C36.0153 8.61484 36.22 8.19303 36.5458 7.88625C36.8716 7.57947 37.2953 7.4096 37.7346 7.4096C38.174 7.4096 38.5977 7.57947 38.9235 7.88625C39.2493 8.19303 39.454 8.61484 39.4978 9.06984V13.5519C39.4978 13.8845 39.6248 14.2035 39.8508 14.4387C40.0768 14.6739 40.3833 14.8061 40.7028 14.8061C41.0224 14.8061 41.3289 14.6739 41.5549 14.4387C41.7809 14.2035 41.9078 13.8845 41.9078 13.5519" fill="#3F4445"/>
<path d="M23.67 10.3796L23.6079 10.2781C23.5964 10.2651 23.5865 10.2506 23.5784 10.2351L19.2694 3.41064L13.7021 7.71436L17.7926 14.2499L17.8428 14.3329L17.8665 14.3667C18.3849 15.1466 19.1762 15.6841 20.0708 15.8641C20.9654 16.0441 21.8921 15.8523 22.6525 15.3298C23.4129 14.8072 23.9464 13.9955 24.1388 13.0685C24.3312 12.1415 24.1671 11.173 23.6818 10.3704" fill="#95C748"/>
<path d="M6.96911 12.2793C6.96911 11.5618 6.76471 10.8605 6.38177 10.264C5.99883 9.66746 5.45454 9.20253 4.81773 8.92798C4.18092 8.65343 3.4802 8.58159 2.80417 8.72156C2.12814 8.86152 1.50716 9.207 1.01977 9.7143C0.532378 10.2216 0.20046 10.8679 0.0659891 11.5716C-0.068482 12.2752 0.000533437 13.0046 0.264308 13.6674C0.528082 14.3303 0.974769 14.8968 1.54788 15.2954C2.12099 15.6939 2.79479 15.9067 3.48407 15.9067C4.40836 15.9067 5.29479 15.5245 5.94836 14.8442C6.60193 14.164 6.96911 13.2413 6.96911 12.2793Z" fill="#35BFC0"/>
<path d="M19.8083 5.31037C19.81 4.74372 19.6841 4.18453 19.4409 3.67756C19.1977 3.1706 18.8439 2.72992 18.4077 2.39081C17.9715 2.0517 17.4652 1.82357 16.9291 1.72467C16.3931 1.62577 15.8422 1.65885 15.3206 1.82126C14.7991 1.98368 14.3212 2.27091 13.9254 2.65998C13.5296 3.04906 13.2268 3.52916 13.0413 4.06188C12.8557 4.5946 12.7925 5.16513 12.8567 5.72783C12.921 6.29053 13.1109 6.82976 13.4112 7.30237L10.7531 3.41059C10.442 2.88286 10.006 2.44699 9.48685 2.14462C8.96772 1.84225 8.38277 1.68348 7.78789 1.68348C7.193 1.68348 6.60805 1.84225 6.08892 2.14462C5.56979 2.44699 5.13381 2.88286 4.82265 3.41059L0.611064 10.2473C0.938345 9.74266 1.38251 9.33193 1.90256 9.05307C2.4226 8.77422 3.00176 8.63624 3.58657 8.65186C4.17137 8.66749 4.74297 8.83621 5.24859 9.14246C5.7542 9.44872 6.17754 9.88262 6.47952 10.4041L9.22916 14.4281C9.55191 14.8874 9.97419 15.261 10.4617 15.5185C10.9492 15.776 11.4882 15.9102 12.0349 15.9102C12.5816 15.9102 13.1206 15.776 13.6081 15.5185C14.0956 15.261 14.5179 14.8874 14.8407 14.4281L14.8702 14.382C14.9423 14.2776 15.0084 14.1687 15.0681 14.0561L19.2029 7.34541C19.5911 6.74393 19.7969 6.03498 19.7936 5.31037M14.2293 8.21845L14.2972 8.27071L14.25 8.21845M18.3109 8.28608L18.3848 8.22153L18.2991 8.28915M0.525414 10.3918C0.551995 10.3457 0.575623 10.3027 0.605157 10.2596L0.522461 10.3918H0.525414Z" fill="#3253A0"/>
<path d="M19.7914 5.31002C19.7914 4.5922 19.5867 3.89051 19.2034 3.29378C18.8201 2.69706 18.2753 2.23213 17.6379 1.95785C17.0006 1.68358 16.2994 1.61228 15.6232 1.753C14.9469 1.89371 14.3259 2.2401 13.8389 2.74833C13.3519 3.25656 13.0206 3.90376 12.8872 4.60802C12.7537 5.31228 12.824 6.04192 13.0891 6.70458C13.3543 7.36724 13.8023 7.93313 14.3766 8.3306C14.9509 8.72807 15.6255 8.93927 16.3152 8.93744C17.2395 8.93744 18.1259 8.55527 18.7795 7.875C19.4331 7.19472 19.8002 6.27207 19.8002 5.31002" fill="#F38334"/>
<path d="M16.3165 8.93771C15.7388 8.93818 15.1701 8.78893 14.6617 8.50341C14.1533 8.2179 13.7212 7.80511 13.4044 7.3023L10.7464 3.41051C10.4356 2.88274 9.99989 2.4468 9.48099 2.14436C8.96209 1.84192 8.37731 1.68311 7.7826 1.68311C7.18788 1.68311 6.60311 1.84192 6.0842 2.14436C5.5653 2.4468 5.12962 2.88274 4.81884 3.41051L0.595439 10.2473C0.92272 9.74258 1.36689 9.33185 1.88693 9.053C2.40698 8.77415 2.98614 8.63616 3.57094 8.65179C4.15575 8.66741 4.72734 8.83614 5.23296 9.14239C5.73858 9.44864 6.16192 9.88255 6.46389 10.404L9.2283 14.428C9.55105 14.8873 9.97333 15.2609 10.4608 15.5184C10.9484 15.7759 11.4873 15.9102 12.0341 15.9102C12.5808 15.9102 13.1197 15.7759 13.6073 15.5184C14.0948 15.2609 14.5171 14.8873 14.8398 14.428L14.8664 14.3819L15.0672 14.0745L19.202 7.36071C18.8813 7.8488 18.4506 8.24773 17.9476 8.52263C17.4447 8.79753 16.8846 8.94004 16.3165 8.93771Z" fill="#3152A0"/>
</g>
<defs>
<clipPath id="clip0_4528_13911">
<rect width="100" height="17.7778" fill="white"/>
</clipPath>
</defs>
</svg>
