<svg width="16" height="16" viewBox="0 0 16 16" fill="none" xmlns="http://www.w3.org/2000/svg">
<path fill-rule="evenodd" clip-rule="evenodd" d="M1.30925 0.0125519C1.18164 0.0308816 0.942606 0.104167 0.841658 0.155942C0.615073 0.272127 0.397467 0.46884 0.246784 0.693712C0.142028 0.850059 0.0956769 0.956347 0.0366249 1.17568L0 1.3117V6.49777C0 11.4836 0.00120725 11.689 0.0314559 11.818C0.13963 12.2795 0.432527 12.6517 0.850159 12.8582C1.15169 13.0074 1.15749 13.0081 2.12924 13.0146L2.98324 13.0203L2.9879 14.3172L2.99256 15.6141L3.04362 15.7139C3.10337 15.8307 3.23562 15.9477 3.34512 15.9805C3.44456 16.0103 3.64089 16.0051 3.71987 15.9705C3.75517 15.9551 4.65804 15.2865 5.72625 14.4847L7.66844 13.0271L11.1966 13.0186L14.7248 13.0101L14.8608 12.972C15.4192 12.8157 15.8366 12.3808 15.9685 11.818C15.9988 11.689 16 11.4836 16 6.49777C16 1.63383 15.9982 1.3046 15.9705 1.19715C15.8652 0.787503 15.6482 0.476696 15.3087 0.249223C15.157 0.147543 15.0553 0.102398 14.8353 0.0391113L14.7078 0.00243478L8.05951 0.000173316C4.40298 -0.00106794 1.36536 0.0044922 1.30925 0.0125519ZM1.38096 1.08955C1.23596 1.14138 1.11713 1.2662 1.0794 1.40634C1.06838 1.44729 1.06403 3.22664 1.06687 6.5424C1.07115 11.5486 1.07164 11.6167 1.10465 11.6833C1.14425 11.7632 1.24261 11.8654 1.3211 11.9082C1.37314 11.9366 1.45998 11.9395 2.50797 11.9474L3.63868 11.9559L3.7322 12.0003C3.85115 12.0568 3.94583 12.1515 4.00233 12.2705L4.04676 12.364L4.05526 13.3809L4.06376 14.3979L5.64436 13.2126C6.51368 12.5607 7.2597 12.0113 7.30217 11.9916L7.37938 11.9559L11.0011 11.9474C14.4498 11.9393 14.6254 11.9374 14.6789 11.9082C14.7574 11.8654 14.8558 11.7632 14.8954 11.6833C14.9284 11.6167 14.9288 11.5529 14.9288 6.50627V1.39672L14.8912 1.32643C14.8433 1.23692 14.7655 1.15911 14.676 1.11125L14.6057 1.07365L8.02551 1.0701C2.53269 1.06714 1.43464 1.07036 1.38096 1.08955ZM3.37513 4.49868C3.21427 4.54805 3.07792 4.67584 3.01868 4.8328C2.92147 5.09034 3.04495 5.37882 3.30448 5.5005L3.40064 5.54557H8H12.5994L12.6955 5.5005C13.1068 5.30764 13.1205 4.7485 12.7191 4.5366L12.6334 4.49136L8.02551 4.4885C5.49118 4.48693 3.39851 4.49153 3.37513 4.49868ZM3.31447 7.51039C3.21195 7.54984 3.0915 7.66444 3.03371 7.77752C2.99972 7.84404 2.99256 7.88319 2.99256 8.00257C2.99256 8.12196 2.99972 8.16112 3.03371 8.22763C3.09339 8.34441 3.21168 8.45533 3.31962 8.49571C3.4103 8.52963 3.44032 8.52989 7.02752 8.52555L10.644 8.52118L10.7205 8.48149C10.9134 8.38145 11.016 8.21514 11.016 8.00257C11.016 7.83339 10.9688 7.72479 10.8464 7.61296C10.6814 7.46217 11.0527 7.47535 6.99804 7.47635C3.47345 7.47722 3.39889 7.47792 3.31447 7.51039Z" fill="#333333"/>
</svg>
