<svg width="16" height="16" viewBox="0 0 16 16" fill="none" xmlns="http://www.w3.org/2000/svg">
<path fill-rule="evenodd" clip-rule="evenodd" d="M1.29343 0.0124333C0.615568 0.101679 0.141707 0.581555 0.0235229 1.29846C-0.00104866 1.44759 -0.00327469 1.78289 0.00161922 4.61652L0.00703991 7.76868L0.0454605 7.91312C0.209746 8.53097 0.70721 8.93936 1.39113 9.0178C1.59634 9.04133 7.46644 9.0403 7.69789 9.01669C8.36576 8.94855 8.82157 8.5274 8.99918 7.81434C9.02494 7.71088 9.02802 7.4252 9.03358 4.62502C9.03776 2.50755 9.03395 1.48931 9.02131 1.3567C8.98143 0.938182 8.80771 0.597766 8.51083 0.356367C8.36389 0.236891 8.09952 0.105893 7.89086 0.0491716L7.72094 0.00298529L4.56028 0.000725244C2.82192 -0.00053222 1.35183 0.00473553 1.29343 0.0124333ZM12.9207 0.0241923C12.8176 0.0615253 10.3241 1.55544 10.2289 1.63692C10.0919 1.75419 10.0244 1.99505 10.0792 2.17123C10.113 2.27976 11.6417 4.82307 11.7173 4.89649C11.8237 4.99984 11.9137 5.03288 12.0881 5.03255C12.2586 5.03223 12.3314 5.00508 12.4505 4.89751C12.606 4.75707 12.6573 4.49959 12.5694 4.30093C12.5573 4.27357 12.3927 3.99311 12.2037 3.67767C11.9696 3.28684 11.8687 3.10416 11.8871 3.10416C11.9019 3.10416 12.0029 3.12399 12.1115 3.14821C12.7208 3.28413 13.3033 3.5688 13.7789 3.96299C13.9653 4.11753 14.2702 4.43862 14.4139 4.63171C14.6259 4.91656 14.7612 5.1616 14.9518 5.60608C15.0547 5.84591 15.1739 5.95186 15.3856 5.99144C15.5469 6.02162 15.7411 5.9564 15.8573 5.833C15.9281 5.75789 15.9862 5.6236 15.9983 5.50718C16.0106 5.38979 15.9727 5.26386 15.8271 4.93773C15.2369 3.61643 14.0507 2.58413 12.667 2.18771C12.362 2.10035 11.9255 2.01663 11.7749 2.01663C11.738 2.01663 11.7036 2.00998 11.6986 2.00186C11.6936 1.99375 12.0698 1.75929 12.5345 1.48085C13.1116 1.13508 13.4043 0.949856 13.4578 0.896601C13.7085 0.646875 13.6338 0.210858 13.3135 0.0541505C13.193 -0.00479741 13.0343 -0.0169132 12.9207 0.0241923ZM1.33796 1.09163C1.22913 1.12514 1.14768 1.21936 1.10328 1.36312C1.06848 1.47576 1.06827 1.49486 1.06827 4.53876C1.06827 7.96921 1.05921 7.72314 1.18957 7.83471C1.22783 7.86747 1.29458 7.90807 1.3379 7.92494C1.4126 7.95403 1.5746 7.95582 4.49993 7.96007C7.29534 7.96413 7.59205 7.96199 7.67757 7.93713C7.7946 7.90311 7.87744 7.82081 7.92485 7.69146C7.95838 7.60001 7.95883 7.55652 7.95883 4.48058V1.36241L7.92075 1.29117C7.87122 1.19848 7.78928 1.13749 7.66048 1.0974C7.55976 1.06605 7.45933 1.06507 4.48655 1.06622C1.87971 1.06722 1.40476 1.07105 1.33796 1.09163ZM4.39863 2.00531C4.24197 2.03969 4.11755 2.13773 4.03923 2.28851C4.0026 2.35907 3.99911 2.38892 3.99424 2.67447L3.98894 2.98396L3.18708 2.98883C2.40783 2.99357 2.38298 2.99475 2.30621 3.03023C2.05264 3.14744 1.92649 3.47258 2.03591 3.72691C2.08163 3.83322 2.20521 3.95678 2.31724 4.00823L2.4022 4.04726L3.55158 4.05217L4.70095 4.0571L4.59867 4.24759C4.47131 4.48481 4.27414 4.79647 4.16631 4.93104C4.12131 4.9872 4.06173 5.06367 4.03392 5.10097C3.94362 5.22206 3.69697 5.46794 3.55771 5.57571C3.22494 5.83325 2.9587 5.93868 2.55368 5.97329C2.29685 5.99526 2.18298 6.05538 2.07394 6.22663C1.90892 6.48577 2.00965 6.83475 2.29175 6.98128C2.36224 7.01789 2.38817 7.02093 2.62311 7.02014C2.90186 7.01921 3.04414 6.99624 3.31493 6.90847C3.67668 6.79122 4.06785 6.55584 4.42434 6.24091L4.50931 6.16585L4.62825 6.26781C4.79305 6.40909 5.08747 6.60226 5.29689 6.70651C5.65237 6.88349 6.14567 7.0132 6.48108 7.01789C6.61692 7.01979 6.64577 7.01459 6.73094 6.97292C6.85244 6.91348 6.96987 6.78514 7.00811 6.67004C7.02901 6.60712 7.03475 6.54708 7.02913 6.45014C7.0224 6.33389 7.0136 6.30417 6.96049 6.21858C6.92243 6.15722 6.86521 6.09606 6.80797 6.05555C6.72943 5.99995 6.69352 5.98719 6.55593 5.96597C6.17774 5.90763 5.95892 5.84758 5.75812 5.74701C5.62087 5.67826 5.40713 5.53185 5.29194 5.42765L5.19095 5.33632L5.30158 5.15908C5.50634 4.83105 5.73078 4.40503 5.8483 4.12135L5.87393 4.0595L6.25366 4.05333C6.62924 4.04721 6.63447 4.04662 6.73031 3.99961C6.85247 3.9397 6.96982 3.81157 7.00811 3.69631C7.04641 3.58098 7.03557 3.37817 6.98595 3.28172C6.93806 3.18865 6.82707 3.08073 6.73017 3.03302C6.65068 2.99385 6.64749 2.99369 5.84749 2.98883L5.04458 2.98396L5.04448 2.70845C5.04437 2.40484 5.03476 2.35025 4.96072 2.23351C4.84345 2.04862 4.61814 1.95714 4.39863 2.00531ZM10.3858 6.97895C10.1848 7.0196 10.0208 7.1802 9.97283 7.38342C9.91312 7.63632 10.059 7.90501 10.3062 7.99752C10.3972 8.03155 10.4289 8.03206 12.4595 8.03206C14.7731 8.03206 14.6339 8.02464 14.776 8.15563C14.8179 8.19431 14.8688 8.25688 14.8891 8.29469L14.9259 8.36342V11.4816V14.5998L14.8883 14.67C14.8405 14.7595 14.7627 14.8372 14.6733 14.8851L14.603 14.9226H11.4848H8.36666L8.29792 14.8858C8.26012 14.8656 8.19755 14.8147 8.15887 14.7727C8.02788 14.6306 8.0353 14.7699 8.0353 12.4562C8.0353 10.4257 8.03479 10.394 8.00076 10.303C7.82899 9.84394 7.20952 9.84246 7.00377 10.3006C6.97492 10.3648 6.97326 10.4866 6.97332 12.5266L6.97339 14.6847L7.0183 14.8474C7.1743 15.4123 7.58831 15.8152 8.16508 15.9632C8.27441 15.9913 8.48077 15.9932 11.4678 15.9932C14.9345 15.9932 14.7318 15.9987 15.0169 15.8956C15.397 15.758 15.7616 15.3929 15.8996 15.0114C16.0018 14.7289 15.9964 14.9284 15.9964 11.4646C15.9964 8.47753 15.9945 8.27117 15.9665 8.16184C15.8184 7.58498 15.4148 7.17036 14.8506 7.01527L14.688 6.97058L12.5724 6.96759C11.4088 6.96596 10.4249 6.97107 10.3858 6.97895ZM11.2916 9.13761C10.567 9.22174 9.98048 9.75972 9.82427 10.4835C9.7966 10.6116 9.79405 10.7492 9.79405 12.1103V13.5972L9.84112 13.6931C9.93698 13.8882 10.1123 14.0003 10.3219 14.0003C10.4771 14.0003 10.6014 13.9476 10.7101 13.8358C10.8484 13.6935 10.8561 13.6518 10.8561 13.0443V12.5182H11.4838H12.1114L12.1167 13.0662C12.122 13.6118 12.1222 13.6146 12.1644 13.6971C12.2642 13.8925 12.4364 14.0003 12.6488 14.0003C12.8636 14.0003 13.037 13.889 13.1312 13.6907L13.1756 13.5972L13.1753 12.0848L13.175 10.5725L13.1288 10.4038C12.937 9.70368 12.3743 9.21739 11.6633 9.13714C11.4936 9.11799 11.4603 9.11804 11.2916 9.13761ZM0.422547 10.0101C0.303343 10.0362 0.235949 10.0723 0.157562 10.1519C0.0758776 10.235 0.0173715 10.3636 0.00428709 10.489C-0.00801567 10.6068 0.0298782 10.7322 0.17797 11.0638C0.76575 12.3798 1.95404 13.4126 3.33565 13.8084C3.64064 13.8958 4.07715 13.9795 4.22774 13.9795C4.26468 13.9795 4.299 13.9862 4.30402 13.9943C4.30903 14.0024 3.93288 14.2369 3.46812 14.5153C2.5453 15.0682 2.4931 15.1066 2.42847 15.2795C2.30798 15.6018 2.52056 15.9508 2.86393 15.9945C3.03771 16.0166 3.04942 16.0106 4.41309 15.1927C5.11991 14.7688 5.73018 14.3952 5.7693 14.3625C5.90975 14.2451 5.97897 14.0036 5.92341 13.8249C5.88964 13.7164 4.36098 11.1731 4.28536 11.0997C4.18964 11.0067 4.08681 10.9648 3.9369 10.9576C3.82558 10.9523 3.79267 10.9576 3.71396 10.9936C3.43633 11.1207 3.31417 11.4261 3.43326 11.6952C3.44537 11.7226 3.60991 12.0031 3.79891 12.3185C4.03308 12.7093 4.13394 12.892 4.11555 12.892C4.10071 12.892 3.99973 12.8722 3.89111 12.8479C3.28187 12.712 2.69936 12.4274 2.22378 12.0332C2.03735 11.8786 1.73242 11.5575 1.58873 11.3644C1.37893 11.0826 1.23382 10.8232 1.07796 10.4515C0.988304 10.2377 0.946977 10.1745 0.850594 10.1036C0.724831 10.0111 0.571098 9.97753 0.422547 10.0101ZM11.3446 10.2086C11.1643 10.2511 11.0018 10.3862 10.9172 10.564L10.8646 10.6744L10.8587 11.061L10.8529 11.4476H11.4832H12.1136L12.1134 11.095C12.1131 10.6874 12.0979 10.6043 11.9976 10.4624C11.8516 10.256 11.5843 10.1521 11.3446 10.2086Z" fill="#333333"/>
</svg>
