<svg xmlns="http://www.w3.org/2000/svg" width="32" height="32" fill="none" viewBox="0 0 32 32"><path fill="#000" fill-rule="evenodd" d="M11.28 0q.46 0 .88.14l.28.1 2.8 1.23c.77.34 1.35 1 1.62 1.79l1.07 3.06v.03q.1.2.22.22L29.6 9.4q.08 0 .14.03c.83.21 1.39.84 1.7 1.36.34.55.56 1.23.56 1.9v6a10 10 0 0 0-2.67-2.36v-3.65a1.2 1.2 0 0 0-.3-.7L17.48 9.12c-1-.26-1.77-1.01-2.08-1.95L14.34 4.1V4.1a.4.4 0 0 0-.19-.22l-2.78-1.22-.09-.02c-.07 0-.28.1-.28.38v1.66q.5.38.76.92l.1.25 1.17 3.31q.14.39.58.51l12.1 2.9A2.5 2.5 0 0 1 27.67 15v.54a10 10 0 0 0-3.04-.54l-11.64-2.78a3.5 3.5 0 0 1-2.47-2.2L9.37 6.74l-2.7-1.1v5.89l-.02.2 14.5 3.87a10 10 0 0 0-3.09 1.9l-14.97-4-.1-.01q-.12-.01-.25.14-.12.14-.05.35l3.44 9.4.01.02q.07.17.22.22l8.83 2.75q.35 1.72 1.26 3.16l-10.9-3.4a3 3 0 0 1-1.92-1.86L.18 14.87l-.01-.02a3 3 0 0 1 3.62-3.88l.21.06V5.48c0-.96.55-1.82 1.4-2.25l.08-.03.04-.02q.47-.22 1.03-.22l.25.02q.25.01.48.09l.22.08.84.34V3A3 3 0 0 1 11.28 0" clip-rule="evenodd"/><path fill="#000" d="M29.81 19.19A7.5 7.5 0 1 0 32 24.48a7.6 7.6 0 0 0-2.19-5.31zm-1.1 7.01a4.5 4.5 0 0 1-1.25 1.89c-.58.5-1.28.84-2.02 1a4.4 4.4 0 0 1-4.12-1.45l-.82.82s-.11.1-.18.1q-.1 0-.21-.03a.3.3 0 0 1-.17-.14.3.3 0 0 1-.07-.21v-3.2s.05-.18.12-.25a.4.4 0 0 1 .26-.11h3.18s.14 0 .21.07q.1.06.14.16t0 .2q0 .12-.09.2l-1.35 1.35a2.9 2.9 0 0 0 2.8 1.04 2.85 2.85 0 0 0 2.26-1.93.7.7 0 0 1 .36-.42c.17-.1.38-.1.54-.02q.14.03.23.14.1.1.16.23.07.15.07.28.01.15-.04.28m.45-2.3s-.05.18-.12.25a.4.4 0 0 1-.25.1h-3.2s-.13 0-.18-.08l-.14-.16a.3.3 0 0 1 0-.2q.03-.12.1-.2l1.3-1.3q-.51-.61-1.26-.9a2.9 2.9 0 0 0-2.93.53q-.61.53-.86 1.28a1 1 0 0 1-.14.26q-.1.1-.23.18a1 1 0 0 1-.28.07q-.15.01-.28-.05-.15-.05-.26-.13-.12-.1-.16-.24a1 1 0 0 1-.07-.28q-.01-.14.05-.28a4.22 4.22 0 0 1 3.28-2.84 4.4 4.4 0 0 1 4.12 1.42l.86-.88h.05s.11-.07.16-.07h.18q.1.03.17.14c.04.07.07.11.07.2v3.17z"/></svg>