<svg width="14" height="14" viewBox="0 0 14 14" fill="none" xmlns="http://www.w3.org/2000/svg">
<g clip-path="url(#clip0_8539_20538)">
<path d="M6.64012 11.76C6.64012 11.76 6.64012 11.73 6.64012 11.72L2.67012 10.47C2.58012 10.44 2.51012 10.37 2.48012 10.28L0.960116 6.1C0.890116 5.88 1.05012 5.69 1.23012 5.69C1.25012 5.69 1.27012 5.69 1.31012 5.7L8.23012 7.57C8.30012 7.52 8.36012 7.46 8.42012 7.42C8.71012 7.23 9.02012 7.08 9.34012 6.97L2.63012 5.16C2.66012 5.1 2.68012 5.04 2.68012 4.97V2.29C2.68012 2.29 2.70012 2.23 2.73012 2.21C2.75012 2.21 2.76012 2.21 2.77012 2.21C2.77012 2.21 2.77012 2.21 2.79012 2.21H2.82012L4.09012 2.74C4.11012 2.74 4.12012 2.76 4.13012 2.78V2.8L4.65012 4.26C4.80012 4.71 5.18012 5.03 5.63012 5.15L10.9301 6.43C10.9301 6.43 11.0001 6.48 11.0001 6.52V6.76C11.3001 6.78 11.5901 6.83 11.8801 6.9V6.52C11.8801 6.07 11.5701 5.69 11.1401 5.58L5.84012 4.3C5.67012 4.26 5.53012 4.14 5.48012 3.98L4.97012 2.52L4.93012 2.42C4.85012 2.26 4.73012 2.14 4.58012 2.04V1.21C4.58012 1.01 4.73012 0.9 4.85012 0.9C4.86012 0.9 4.88012 0.9 4.90012 0.9L4.95012 0.92L6.17012 1.46C6.24012 1.49 6.30012 1.55 6.33012 1.64L6.80012 3C6.92012 3.37 7.22012 3.67 7.61012 3.77L12.6801 5.03C12.6801 5.03 12.7001 5.04 12.7101 5.05C12.7401 5.07 12.7701 5.11 12.8001 5.16C12.8701 5.27 12.9001 5.39 12.9001 5.47V7.31C13.2101 7.49 13.5001 7.7 13.7601 7.95C13.7601 7.95 13.7701 7.97 13.7801 7.97V5.47C13.7801 5.21 13.6901 4.93 13.5601 4.71C13.4301 4.49 13.2101 4.25 12.9001 4.17C12.8801 4.17 12.8601 4.17 12.8401 4.16L7.83012 2.91C7.75012 2.89 7.67012 2.82 7.64012 2.71L7.17012 1.34C7.07012 1.03 6.84012 0.77 6.54012 0.63L5.31012 0.1L5.20012 0.06C5.09012 0.02 4.98012 0 4.86012 0C4.23012 0 3.72012 0.53 3.72012 1.19V1.62L3.16012 1.39L3.07012 1.36C2.98012 1.33 2.89012 1.32 2.79012 1.32C2.65012 1.32 2.52012 1.35 2.40012 1.4C2.40012 1.4 2.40012 1.4 2.39012 1.4C2.38012 1.4 2.37012 1.4 2.36012 1.41C2.03012 1.57 1.83012 1.91 1.83012 2.27V4.92L1.55012 4.84C1.45012 4.81 1.35012 4.8 1.24012 4.8C0.460117 4.8 -0.119884 5.59 0.140116 6.37L1.65012 10.54C1.77012 10.89 2.05012 11.16 2.40012 11.27L6.97012 12.71C6.82012 12.4 6.70012 12.07 6.63012 11.73L6.64012 11.76Z" fill="black"/>
<path d="M13.0601 8.5C12.4601 7.9 11.6401 7.56 10.7801 7.56C10.1401 7.56 9.52011 7.75 8.99011 8.1C8.46011 8.45 8.05011 8.96 7.80011 9.55C7.56011 10.14 7.49011 10.79 7.62011 11.41C7.74011 12.03 8.05011 12.61 8.50011 13.06C8.95011 13.51 9.52011 13.82 10.1501 13.94C10.3601 13.98 10.5701 14 10.7801 14C11.2001 14 11.6201 13.92 12.0101 13.75C12.6001 13.51 13.1001 13.09 13.4601 12.56C13.8101 12.03 14.0001 11.41 14.0001 10.77C14.0001 9.92 13.6601 9.1 13.0601 8.49V8.5ZM12.5901 11.51C12.4801 11.82 12.3001 12.1 12.0501 12.32C11.8001 12.54 11.5001 12.68 11.1801 12.75C10.8601 12.81 10.5201 12.79 10.2101 12.68C9.90011 12.57 9.62011 12.38 9.41011 12.13L9.06011 12.48C9.06011 12.48 9.01011 12.52 8.98011 12.52C8.95011 12.52 8.92011 12.52 8.89011 12.51C8.86011 12.5 8.84011 12.48 8.82011 12.45C8.80011 12.42 8.79011 12.4 8.79011 12.36V10.99C8.79011 10.99 8.81011 10.91 8.84011 10.88C8.87011 10.85 8.91011 10.83 8.95011 10.83H10.3201C10.3201 10.83 10.3801 10.83 10.4101 10.86C10.4401 10.88 10.4501 10.9 10.4701 10.93C10.4801 10.96 10.4801 10.99 10.4701 11.02C10.4701 11.05 10.4501 11.08 10.4301 11.1L9.85011 11.68C9.99011 11.86 10.1801 11.99 10.3901 12.07C10.6001 12.15 10.8301 12.17 11.0501 12.13C11.2701 12.09 11.4801 11.99 11.6501 11.85C11.8201 11.71 11.9501 11.51 12.0201 11.3C12.0501 11.22 12.1001 11.16 12.1801 11.12C12.2501 11.08 12.3401 11.08 12.4101 11.11C12.4501 11.12 12.4801 11.14 12.5101 11.17C12.5401 11.2 12.5601 11.23 12.5801 11.27C12.6001 11.31 12.6101 11.35 12.6101 11.39C12.6101 11.43 12.6101 11.47 12.5901 11.51ZM12.7801 10.52C12.7801 10.52 12.7601 10.6 12.7301 10.63C12.7001 10.66 12.6601 10.67 12.6201 10.67H11.2501C11.2501 10.67 11.1901 10.67 11.1701 10.64C11.1501 10.62 11.1301 10.6 11.1101 10.57C11.1001 10.54 11.1001 10.51 11.1101 10.48C11.1201 10.45 11.1301 10.42 11.1501 10.4L11.7101 9.84C11.5701 9.67 11.3801 9.53 11.1701 9.45C10.9601 9.37 10.7301 9.35 10.5101 9.39C10.2901 9.43 10.0801 9.53 9.91011 9.68C9.74011 9.83 9.61011 10.02 9.54011 10.23C9.53011 10.27 9.51011 10.31 9.48011 10.34C9.45011 10.37 9.42011 10.4 9.38011 10.42C9.34011 10.44 9.30011 10.45 9.26011 10.45C9.22011 10.45 9.18011 10.45 9.14011 10.43C9.10011 10.41 9.06011 10.4 9.03011 10.37C9.00011 10.34 8.97011 10.31 8.96011 10.27C8.94011 10.23 8.93011 10.19 8.93011 10.15C8.93011 10.11 8.93011 10.07 8.95011 10.03C9.06011 9.72 9.25011 9.44 9.49011 9.23C9.74011 9.01 10.0401 8.87 10.3601 8.81C10.6801 8.75 11.0201 8.77 11.3301 8.88C11.6401 8.99 11.9201 9.17 12.1301 9.42L12.5001 9.04H12.5201C12.5201 9.04 12.5701 9.01 12.5901 9.01C12.6201 9.01 12.6401 9.01 12.6701 9.01C12.7001 9.02 12.7201 9.04 12.7401 9.07C12.7601 9.1 12.7701 9.12 12.7701 9.16V10.52H12.7801Z" fill="black"/>
</g>
<defs>
<clipPath id="clip0_8539_20538">
<rect width="14" height="14" fill="white"/>
</clipPath>
</defs>
</svg>
