<svg width="32" height="32" viewBox="0 0 32 32" fill="none" xmlns="http://www.w3.org/2000/svg">
<path fill-rule="evenodd" clip-rule="evenodd" d="M11.284 0C11.5785 6.70048e-05 11.8733 0.0459993 12.159 0.136719L12.4422 0.243164L12.4471 0.244141L15.2333 1.4668L15.2362 1.46875C16.013 1.81175 16.5919 2.46627 16.8582 3.25586L17.9295 6.31836L17.9383 6.3457C17.9866 6.49416 18.084 6.55609 18.1473 6.57227L29.6043 9.3916C29.6477 9.39841 29.6921 9.40484 29.7352 9.41602C30.5683 9.63244 31.128 10.2565 31.4471 10.7832C31.779 11.331 31.9998 12.0109 31.9999 12.6729V18.6719C31.2678 17.7313 30.3641 16.9315 29.3338 16.3213V12.6729C29.3337 12.5549 29.2811 12.3373 29.159 12.1357C29.107 12.0499 29.0579 11.9931 29.0243 11.9619L17.492 9.12598L17.4832 9.12305C16.4838 8.86896 15.7235 8.11551 15.409 7.17676L14.3387 4.11426C14.3361 4.10681 14.3334 4.09929 14.3309 4.0918C14.2917 3.97239 14.2169 3.90317 14.1502 3.87305L11.3709 2.65234C11.3318 2.63542 11.3032 2.63385 11.284 2.63379C11.208 2.63379 11.0039 2.72751 11.0038 3.0127V4.67188C11.3254 4.91514 11.5874 5.22933 11.7625 5.59473L11.8661 5.8418L11.867 5.8457L13.0252 9.15039C13.1123 9.39676 13.3234 9.59274 13.6141 9.66309L25.7147 12.5547L25.7186 12.5566C26.8554 12.8328 27.662 13.8372 27.662 15.001V15.54C26.7087 15.2037 25.6861 15.0162 24.6209 15.0029L12.9842 12.2217L12.9803 12.2207C11.8359 11.9439 10.8985 11.1265 10.5067 10.0117L9.36509 6.75488L6.66587 5.65234V11.5352C6.66587 11.6042 6.65868 11.6721 6.64829 11.7383L21.1405 15.6123C19.9905 16.0473 18.9466 16.698 18.0594 17.5166L3.0897 13.5156L3.08579 13.5146C3.02279 13.4977 2.99232 13.4962 2.98716 13.4961C2.91386 13.4961 2.81614 13.5349 2.74009 13.6406C2.67146 13.7361 2.64483 13.8548 2.69028 13.9902L6.13462 23.3887L6.14243 23.4111C6.18111 23.5229 6.26508 23.5991 6.36118 23.6299L15.1874 26.3828C15.4163 27.5215 15.8505 28.5853 16.4471 29.5371L5.55649 26.1416L5.55259 26.1396C4.6506 25.8555 3.94094 25.1674 3.62778 24.2842L0.17661 14.8691C0.17399 14.862 0.17129 14.8539 0.168797 14.8467C-0.51426 12.8732 0.972707 10.8633 2.98716 10.8633C3.27394 10.8633 3.54263 10.9085 3.78501 10.9736L3.99985 11.0303V5.47656C3.99993 4.52124 4.5468 3.65923 5.40024 3.23242L5.4813 3.19629C5.49388 3.19035 5.50662 3.18425 5.51938 3.17871C5.83471 3.04188 6.18446 2.96292 6.54868 2.96289L6.80259 2.97559C6.9688 2.99241 7.12795 3.02469 7.27915 3.06934L7.50083 3.14551L8.33774 3.48633V3.0127C8.33794 1.35292 9.65596 0 11.284 0Z" fill="white"/>
<path d="M24.5052 17C23.0155 17 21.5724 17.4425 20.3388 18.2578C19.1052 19.073 18.1509 20.2609 17.569 21.6351C17.0103 23.0093 16.8474 24.5233 17.15 25.9674C17.4293 27.4115 18.1509 28.7624 19.1983 29.8106C20.2457 30.8587 21.5724 31.5807 23.0388 31.8602C24.4819 32.1398 25.9948 32 27.3681 31.441C28.7414 30.882 29.9052 29.9037 30.7431 28.6693C31.5578 27.4348 32 25.9907 32 24.5C32 22.5202 31.2086 20.6102 29.8121 19.1894C28.4155 17.7919 26.5069 17 24.5052 17ZM24.5052 19.4922C24.7612 19.4922 24.994 19.5854 25.1569 19.7717C25.3431 19.9581 25.4362 20.191 25.4362 20.4239V24.1739C25.4362 24.4301 25.3431 24.663 25.1569 24.8261C24.9707 25.0124 24.7379 25.1056 24.5052 25.1056C24.2724 25.1056 24.0164 25.0124 23.8534 24.8261C23.6672 24.6398 23.5741 24.4068 23.5741 24.1739V20.4239C23.5741 20.1677 23.6672 19.9348 23.8534 19.7717C24.0397 19.5854 24.2724 19.4922 24.5052 19.4922ZM24.5052 29.1817C24.2259 29.1817 23.9466 29.0885 23.7138 28.9488C23.481 28.7857 23.2948 28.5761 23.2017 28.3199C23.0853 28.0637 23.0621 27.7842 23.1319 27.5047C23.1784 27.2252 23.3181 26.9689 23.5276 26.7826C23.7138 26.5963 23.9698 26.4565 24.2491 26.3866C24.5284 26.3401 24.8078 26.3634 25.0638 26.4565C25.3198 26.573 25.5526 26.736 25.6922 26.9689C25.8552 27.2019 25.925 27.4814 25.925 27.7609C25.925 28.1335 25.7853 28.5062 25.506 28.7624C25.2267 29.0186 24.8776 29.1817 24.5052 29.1817Z" fill="#FC8878"/>
</svg>
