<svg width="32" height="32" viewBox="0 0 32 32" fill="none" xmlns="http://www.w3.org/2000/svg">
<path d="M6.80256 2.95153C6.96879 2.96822 7.12783 3.00034 7.27904 3.04464L7.50036 3.1199L8.33745 3.45791V2.98852C8.33763 1.34207 9.65546 0 11.2836 0C11.5781 3.41153e-05 11.8726 0.0451813 12.1584 0.135204L12.4422 0.241071L12.4474 0.242347L15.2334 1.45536L15.236 1.45663C16.0129 1.79686 16.5918 2.4463 16.8581 3.22959L17.9295 6.26786L17.9386 6.29464C17.9869 6.4419 18.0836 6.50309 18.1469 6.51913L29.6046 9.31633C29.648 9.32308 29.6917 9.32948 29.7348 9.34056C30.568 9.55519 31.1275 10.1739 31.4467 10.6964C31.7787 11.24 32 11.9146 32 12.5714V26.7755C32 27.4969 31.4031 28.0816 30.6669 28.0816C29.9307 28.0816 29.3338 27.4968 29.3338 26.7755V12.5714C29.3338 12.4545 29.2815 12.2385 29.1593 12.0383C29.1072 11.9529 29.0576 11.897 29.024 11.8661L17.4921 9.0523L17.483 9.04974C16.4834 8.79767 15.7236 8.04999 15.4091 7.11862L14.339 4.08163C14.3363 4.07404 14.3337 4.06631 14.3312 4.05867C14.292 3.94022 14.2169 3.87172 14.1502 3.84184L11.3708 2.63138C11.3313 2.61445 11.3028 2.61228 11.2836 2.61224C11.2075 2.61224 11.0038 2.7056 11.0037 2.98852V4.63393C11.3254 4.87527 11.5875 5.1872 11.7626 5.54974L11.8655 5.79464L11.8668 5.79847L13.0254 9.07653C13.1125 9.32101 13.3231 9.51566 13.6139 9.58546L25.7146 12.4541L25.7185 12.4554C26.8554 12.7293 27.6622 13.7257 27.6622 14.8801V29.7143C27.6622 29.7336 27.6591 29.7526 27.6583 29.7717C27.6586 29.7847 27.6622 29.7979 27.6622 29.8112C27.6622 29.8648 27.6569 29.9175 27.6505 29.9694C27.649 29.9944 27.6488 30.0191 27.6466 30.0434C27.5535 31.0958 26.664 32 25.5011 32C25.315 32 25.0956 31.9764 24.8554 31.9005L5.55668 25.9311L5.55278 25.9298C4.6506 25.6481 3.94054 24.9655 3.62733 24.0893L0.176109 14.75C0.173413 14.7427 0.17086 14.7344 0.168298 14.727C-0.514761 12.7694 0.972363 10.7755 2.98682 10.7755C3.27366 10.7756 3.54244 10.8206 3.78486 10.8852L3.99966 10.9413V5.4324C3.99974 4.48467 4.54688 3.62997 5.40046 3.20663L5.48117 3.17092C5.49378 3.16502 5.50614 3.15857 5.51893 3.15306C5.83436 3.01726 6.18434 2.93878 6.5487 2.93878L6.80256 2.95153ZM2.98682 13.3878C2.91352 13.3878 2.81552 13.4257 2.73946 13.5306C2.67081 13.6253 2.64453 13.7431 2.68999 13.8776L6.13471 23.2003L6.14252 23.2232C6.18123 23.3342 6.26504 23.4095 6.36123 23.4401L24.7708 29.1365L21.6151 18.5115C21.6123 18.5022 21.6098 18.4928 21.6073 18.4834C21.6073 18.4834 21.6055 18.4804 21.6047 18.4783C21.6022 18.4722 21.5991 18.4638 21.5943 18.4528C21.5826 18.4261 21.5699 18.4043 21.5578 18.3865L21.524 18.3431C21.5179 18.3387 21.5085 18.3331 21.4953 18.324C21.4868 18.3181 21.4779 18.3113 21.4667 18.3036C21.4667 18.3036 21.4632 18.3009 21.4615 18.2997L21.4589 18.2985L21.455 18.2959C21.443 18.2897 21.4303 18.2834 21.4185 18.2768C21.3912 18.2615 21.3794 18.2581 21.3821 18.2589L21.3768 18.2577C21.371 18.2559 21.3655 18.253 21.3599 18.2513L3.08966 13.4069L3.08576 13.4056C3.02209 13.3886 2.99151 13.3878 2.98682 13.3878ZM6.66586 11.4426C6.66586 11.5112 6.65804 11.5784 6.64764 11.6441L22.0916 15.7398C22.1084 15.7442 22.1236 15.7481 22.1384 15.7526C22.169 15.7617 22.1961 15.7708 22.2191 15.7793C22.2212 15.7801 22.2236 15.7811 22.2257 15.7819C22.3922 15.8364 22.5425 15.906 22.6787 15.9783L22.68 15.977C22.6903 15.9821 22.6999 15.9885 22.7099 15.9936C22.7213 15.9998 22.7339 16.0052 22.7451 16.0115L22.7438 16.0128C22.8194 16.0534 22.8818 16.0893 22.9026 16.102C22.9223 16.1141 22.9422 16.1273 22.9612 16.1403C23.0083 16.1726 23.222 16.3106 23.4103 16.4987C23.4155 16.5038 23.4209 16.5102 23.426 16.5153C23.4296 16.519 23.4341 16.5218 23.4377 16.5255C23.7041 16.7939 23.9042 17.1016 24.0457 17.426C24.0769 17.4976 24.1294 17.6257 24.1732 17.7819H24.1758L24.996 20.5434V14.9719L12.9838 12.1237L12.9799 12.1224C11.8353 11.8478 10.8981 11.037 10.5063 9.93112L9.36461 6.70025L6.66586 5.60714V11.4426ZM21.2076 18.1952C21.2025 18.1929 21.1974 18.1907 21.1933 18.1888L21.1868 18.1862C21.1925 18.1889 21.1996 18.1917 21.2076 18.1952Z" fill="white"/>
</svg>
