<svg width="32" height="32" viewBox="0 0 32 32" fill="none" xmlns="http://www.w3.org/2000/svg">
<path d="M24.5052 17.0233C23.0155 17.0233 21.5724 17.4651 20.3388 18.2791C19.1052 19.093 18.1509 20.2791 17.569 21.6512C17.0103 23.0233 16.8474 24.5349 17.15 25.9767C17.4293 27.4186 18.1509 28.7674 19.1983 29.814C20.2457 30.8605 21.5724 31.5814 23.0388 31.8605C23.5276 31.9535 24.0164 32 24.5052 32C25.4828 32 26.4603 31.814 27.3681 31.4186C28.7414 30.8605 29.9052 29.8837 30.7431 28.6512C31.5578 27.4186 32 25.9767 32 24.4884C32 22.5116 31.2086 20.6047 29.8121 19.186C28.4155 17.7674 26.5069 17 24.5052 17V17.0233Z" fill="white"/>
<path fill-rule="evenodd" clip-rule="evenodd" d="M11.284 0C11.5785 6.21068e-05 11.8733 0.0459944 12.159 0.136719L12.4422 0.243164L12.4481 0.244141L15.2333 1.4668L15.2362 1.46875C16.013 1.81174 16.5919 2.46626 16.8582 3.25586L17.9295 6.31836L17.9393 6.3457C17.9876 6.49401 18.084 6.5561 18.1473 6.57227L29.6043 9.3916C29.6477 9.39841 29.6921 9.40484 29.7352 9.41602C30.5683 9.63243 31.128 10.2565 31.4471 10.7832C31.779 11.331 31.9998 12.0109 31.9999 12.6729V18.6719C31.2678 17.7313 30.3641 16.9315 29.3338 16.3213V12.6729C29.3337 12.5549 29.2811 12.3373 29.159 12.1357C29.107 12.0499 29.0579 11.9931 29.0243 11.9619L17.492 9.12598L17.4832 9.12305C16.4838 8.86896 15.7235 8.11552 15.409 7.17676L14.3397 4.11426C14.3371 4.1068 14.3343 4.0993 14.3319 4.0918C14.2927 3.97239 14.2169 3.90317 14.1502 3.87305L11.3709 2.65234C11.3317 2.63543 11.3032 2.63385 11.284 2.63379C11.208 2.63379 11.0039 2.72751 11.0038 3.0127V4.67188C11.3254 4.91514 11.5874 5.22933 11.7625 5.59473L11.8661 5.8418L11.867 5.8457L13.0252 9.15039C13.1123 9.39677 13.3234 9.59273 13.6141 9.66309L25.7147 12.5547L25.7186 12.5566C26.8554 12.8328 27.662 13.8372 27.662 15.001V15.54C26.7087 15.2037 25.6861 15.0162 24.6209 15.0029L12.9842 12.2217L12.9803 12.2207C11.8359 11.9439 10.8985 11.1265 10.5067 10.0117L9.36509 6.75488L6.66587 5.65234V11.5352C6.66587 11.6042 6.65868 11.6721 6.64829 11.7383L21.1405 15.6123C19.9907 16.0472 18.9474 16.6982 18.0604 17.5166L3.0897 13.5156L3.08579 13.5146C3.02263 13.4976 2.99218 13.4962 2.98716 13.4961C2.91386 13.4961 2.81614 13.5349 2.74009 13.6406C2.67148 13.7361 2.64483 13.8548 2.69028 13.9902L6.13462 23.3887L6.14243 23.4111C6.18111 23.5229 6.2651 23.599 6.36118 23.6299L15.1874 26.3828C15.4163 27.5215 15.8505 28.5853 16.4471 29.5371L5.55649 26.1416L5.55259 26.1396C4.65062 25.8555 3.94094 25.1674 3.62778 24.2842L0.17661 14.8691C0.17399 14.862 0.171289 14.8539 0.168797 14.8467C-0.51426 12.8732 0.972707 10.8633 2.98716 10.8633C3.27395 10.8633 3.54262 10.9085 3.78501 10.9736L3.99985 11.0303V5.47656C3.99993 4.52126 4.54682 3.65924 5.40024 3.23242L5.4813 3.19629C5.49389 3.19035 5.5066 3.18426 5.51938 3.17871C5.8347 3.04188 6.18446 2.96293 6.54868 2.96289L6.80259 2.97559C6.96879 2.99241 7.12797 3.02469 7.27915 3.06934L7.50083 3.14551L8.33774 3.48633V3.0127C8.33794 1.35292 9.65596 0 11.284 0Z" fill="white"/>
</svg>
