<svg width="32" height="32" viewBox="0 0 32 32" fill="none" xmlns="http://www.w3.org/2000/svg">
<path fill-rule="evenodd" clip-rule="evenodd" d="M11.2835 0C11.578 3.43878e-05 11.8727 0.0459871 12.1585 0.136719L12.4426 0.243164L12.4475 0.244141L15.2337 1.4668L15.2366 1.46875C16.0133 1.81178 16.5924 2.46635 16.8587 3.25586L17.93 6.31836L17.9387 6.3457C17.9869 6.49386 18.0835 6.55594 18.1468 6.57227L29.6048 9.3916C29.648 9.39838 29.6917 9.40491 29.7346 9.41602C30.5678 9.63237 31.1274 10.2565 31.4466 10.7832C31.7785 11.3311 32.0002 12.0108 32.0003 12.6729V18.6729C31.2682 17.732 30.3647 16.9316 29.3343 16.3213V12.6729C29.3341 12.5549 29.2815 12.3373 29.1594 12.1357C29.1074 12.0499 29.0583 11.9931 29.0247 11.9619L17.4925 9.12598L17.4837 9.12305C16.4843 8.86897 15.724 8.11547 15.4094 7.17676L14.3391 4.11426C14.3365 4.1068 14.3338 4.09929 14.3313 4.0918C14.2921 3.97246 14.2173 3.9032 14.1507 3.87305L11.3714 2.65234C11.3319 2.63528 11.3027 2.63383 11.2835 2.63379C11.2071 2.63411 11.0043 2.728 11.0042 3.0127V4.67188C11.3258 4.91514 11.5879 5.22936 11.763 5.59473L11.8655 5.8418L11.8675 5.8457L13.0257 9.15039C13.1128 9.39672 13.3238 9.59274 13.6145 9.66309L25.7151 12.5547L25.719 12.5566C26.8557 12.8329 27.6624 13.8373 27.6624 15.001V15.54C26.7089 15.2035 25.6859 15.0161 24.6204 15.0029L12.9837 12.2217L12.9798 12.2207C11.8355 11.9438 10.8989 11.1263 10.5071 10.0117L9.36452 6.75488L6.66628 5.65234V11.5352C6.66628 11.6043 6.65812 11.672 6.64773 11.7383L21.1399 15.6123C19.9902 16.0472 18.9468 16.6982 18.0598 17.5166L3.09011 13.5156L3.0862 13.5146C3.02419 13.4979 2.99346 13.4962 2.98757 13.4961C2.91427 13.4961 2.81557 13.5349 2.73952 13.6406C2.67108 13.7361 2.6453 13.8549 2.6907 13.9902L6.13503 23.3887L6.14284 23.4111C6.18156 23.523 6.2654 23.5991 6.36159 23.6299L15.1878 26.3828C15.4167 27.5214 15.8501 28.5854 16.4466 29.5371L5.55691 26.1416L5.553 26.1396C4.6509 25.8556 3.94041 25.1675 3.62722 24.2842L0.176048 14.8691C0.173432 14.862 0.170727 14.8539 0.168235 14.8467C-0.514821 12.8732 0.973122 10.8633 2.98757 10.8633C3.27426 10.8634 3.54312 10.9085 3.78542 10.9736L4.00027 11.0303V5.47656C4.00034 4.52116 4.54709 3.65919 5.40066 3.23242L5.48171 3.19629C5.49409 3.19044 5.50627 3.18418 5.51882 3.17871C5.83425 3.04181 6.18473 2.96289 6.54909 2.96289L6.803 2.97559C6.96919 2.99242 7.12839 3.02469 7.27956 3.06934L7.50027 3.14551L8.33816 3.48633V3.0127C8.33835 1.35306 9.65557 0.000217663 11.2835 0Z" fill="white"/>
<path d="M24.5052 17C23.0155 17 21.5724 17.4425 20.3388 18.2578C19.1052 19.073 18.1509 20.2609 17.569 21.6351C17.0103 23.0093 16.8474 24.5233 17.15 25.9674C17.4293 27.4115 18.1509 28.7624 19.1983 29.8106C20.2457 30.8587 21.5724 31.5807 23.0388 31.8602C24.4819 32.1398 25.9948 32 27.3681 31.441C28.7414 30.882 29.9052 29.9037 30.7431 28.6693C31.5578 27.4348 32 25.9907 32 24.5C32 22.5202 31.2086 20.6102 29.8121 19.1894C28.4155 17.7919 26.5069 17 24.5052 17ZM27.6474 27.8773C27.6474 28.1801 27.531 28.4596 27.3216 28.6693C27.1121 28.8789 26.8328 28.9953 26.5302 28.9953C26.2276 28.9953 25.9483 28.8789 25.7388 28.6693C25.5293 28.4596 25.4129 28.1801 25.4129 27.8773V21.0994C25.4129 20.7966 25.5293 20.5171 25.7388 20.3075C25.9483 20.0978 26.2276 19.9814 26.5302 19.9814C26.8328 19.9814 27.1121 20.0978 27.3216 20.3075C27.531 20.5171 27.6474 20.7966 27.6474 21.0994V27.8773ZM23.6207 21.0994V27.8773C23.6207 28.1801 23.5043 28.4596 23.2948 28.6693C23.0853 28.8789 22.806 28.9953 22.5034 28.9953C22.2009 28.9953 21.9216 28.8789 21.7121 28.6693C21.5026 28.4596 21.3862 28.1801 21.3862 27.8773V21.0994C21.3862 20.7966 21.5026 20.5171 21.7121 20.3075C21.9216 20.0978 22.2009 19.9814 22.5034 19.9814C22.806 19.9814 23.0853 20.0978 23.2948 20.3075C23.5043 20.5171 23.6207 20.7966 23.6207 21.0994Z" fill="white"/>
</svg>
