<svg width="32" height="32" viewBox="0 0 32 32" fill="none" xmlns="http://www.w3.org/2000/svg">
<path fill-rule="evenodd" clip-rule="evenodd" d="M11.2835 0C11.5781 3.43917e-05 11.8727 0.0459668 12.1585 0.136719L12.4427 0.243164L12.4476 0.244141L15.2337 1.4668L15.2357 1.46875C16.0126 1.81173 16.5914 2.46623 16.8577 3.25586L17.93 6.31836L17.9388 6.3457C17.987 6.49403 18.0835 6.55606 18.1468 6.57227L29.6048 9.3916C29.6481 9.39839 29.6917 9.40488 29.7347 9.41602C30.5679 9.63238 31.1274 10.2565 31.4466 10.7832C31.7785 11.331 32.0002 12.0109 32.0003 12.6729V18.6729C31.2681 17.7318 30.364 16.9317 29.3333 16.3213V12.6729C29.3332 12.5549 29.2815 12.3373 29.1595 12.1357C29.1074 12.0497 29.0574 11.9931 29.0238 11.9619L17.4925 9.12598L17.4827 9.12305C16.4835 8.86891 15.724 8.11535 15.4095 7.17676L14.3392 4.11426C14.3366 4.1068 14.3338 4.09929 14.3314 4.0918C14.2923 3.97262 14.2173 3.90327 14.1507 3.87305L11.3704 2.65234C11.3312 2.63546 11.3027 2.63383 11.2835 2.63379C11.2074 2.63385 11.0034 2.7276 11.0033 3.0127V4.67188C11.325 4.91517 11.5879 5.22924 11.763 5.59473L11.8656 5.8418L11.8665 5.8457L13.0257 9.15039C13.1128 9.39659 13.3231 9.59269 13.6136 9.66309L25.7142 12.5547L25.7181 12.5566C26.8549 12.8328 27.6624 13.8372 27.6624 15.001V15.54C26.7092 15.2036 25.6866 15.0163 24.6214 15.0029L12.9837 12.2217L12.9798 12.2207C11.8354 11.9438 10.898 11.1265 10.5062 10.0117L9.36458 6.75488L6.66634 5.65234V11.5352C6.66634 11.6043 6.65817 11.6721 6.64778 11.7383L21.14 15.6123C19.9902 16.0472 18.9469 16.6982 18.0599 17.5166L3.09017 13.5156L3.08626 13.5146C3.02259 13.4975 2.99134 13.4962 2.98665 13.4961C2.91338 13.4962 2.81555 13.535 2.73958 13.6406C2.67106 13.7361 2.64435 13.8548 2.68978 13.9902L6.13509 23.3887L6.1429 23.4111C6.18161 23.523 6.26546 23.5991 6.36165 23.6299L15.1868 26.3818C15.4157 27.5209 15.8499 28.5851 16.4466 29.5371L5.55696 26.1416L5.55306 26.1396C4.65088 25.8556 3.94048 25.1675 3.62728 24.2842L0.176104 14.8691C0.173486 14.862 0.170783 14.8539 0.168291 14.8467C-0.514739 12.8733 0.97232 10.8634 2.98665 10.8633C3.27336 10.8633 3.54217 10.9085 3.7845 10.9736L3.99935 11.0303V5.47656C3.99942 4.52115 4.54713 3.65919 5.40071 3.23242L5.48079 3.19629C5.49336 3.19036 5.50613 3.18425 5.51888 3.17871C5.83431 3.04181 6.18479 2.96289 6.54915 2.96289L6.80306 2.97559C6.96898 2.99241 7.12769 3.02478 7.27864 3.06934L7.50032 3.14551L8.33724 3.48633V3.0127C8.33743 1.35295 9.65548 3.9081e-05 11.2835 0Z" fill="white"/>
<path d="M29.8121 19.1894C28.4155 17.7919 26.5069 17 24.5052 17C23.0155 17 21.5724 17.4425 20.3388 18.2578C19.1052 19.073 18.1509 20.2609 17.569 21.6351C17.0103 23.0093 16.8474 24.5233 17.15 25.9674C17.4293 27.4115 18.1509 28.7624 19.1983 29.8106C20.2457 30.8587 21.5724 31.5807 23.0388 31.8602C23.5276 31.9534 24.0164 32 24.5052 32C25.4828 32 26.4603 31.8137 27.3681 31.4177C28.7414 30.8587 29.9052 29.8804 30.7431 28.646C31.5578 27.4115 32 25.9674 32 24.4767C32 22.4969 31.2086 20.587 29.8121 19.1661V19.1894ZM28.7181 26.2003C28.4621 26.9224 28.0431 27.5745 27.4612 28.087C26.8793 28.5994 26.181 28.9255 25.4362 29.0885C24.6914 29.2283 23.9 29.1817 23.1784 28.9255C22.4569 28.6693 21.8052 28.2267 21.3164 27.6444L20.5017 28.4596C20.5017 28.4596 20.3853 28.5528 20.3155 28.5528C20.2457 28.5528 20.1759 28.5528 20.106 28.5295C20.0362 28.5062 19.9897 28.4596 19.9431 28.3898C19.8966 28.3199 19.8733 28.2733 19.8733 28.1801V24.9891C19.8733 24.9891 19.9198 24.8028 19.9897 24.7329C20.0595 24.663 20.1526 24.6165 20.2457 24.6165H23.4345C23.4345 24.6165 23.5741 24.6165 23.644 24.6863C23.7138 24.7329 23.7371 24.7795 23.7836 24.8494C23.8069 24.9193 23.8069 24.9891 23.7836 25.059C23.7836 25.1289 23.7371 25.1988 23.6905 25.2453L22.3405 26.5963C22.6664 27.0155 23.1086 27.3183 23.5974 27.5047C24.0862 27.691 24.6216 27.7376 25.1336 27.6444C25.6457 27.5512 26.1345 27.3183 26.5302 26.9922C26.9259 26.6661 27.2284 26.2003 27.3914 25.7112C27.4612 25.5248 27.5776 25.3851 27.7638 25.2919C27.9267 25.1988 28.1362 25.1988 28.2991 25.2686C28.3922 25.2919 28.4621 25.3385 28.5319 25.4084C28.6017 25.4783 28.6483 25.5481 28.6948 25.6413C28.7414 25.7345 28.7647 25.8276 28.7647 25.9208C28.7647 26.014 28.7647 26.1071 28.7181 26.2003ZM29.1603 23.8944C29.1603 23.8944 29.1138 24.0807 29.044 24.1506C28.9741 24.2205 28.881 24.2438 28.7879 24.2438H25.5991C25.5991 24.2438 25.4595 24.2438 25.4129 24.1739C25.3664 24.1273 25.3198 24.0807 25.2733 24.0109C25.25 23.941 25.25 23.8711 25.2733 23.8012C25.2966 23.7314 25.3198 23.6615 25.3664 23.6149L26.6698 22.3106C26.344 21.9146 25.9017 21.5885 25.4129 21.4022C24.9241 21.2158 24.3888 21.1693 23.8767 21.2624C23.3647 21.3556 22.8759 21.5885 22.4802 21.9379C22.0845 22.2873 21.7819 22.7298 21.619 23.2189C21.5957 23.3121 21.5491 23.4053 21.4793 23.4752C21.4095 23.545 21.3397 23.6149 21.2466 23.6615C21.1534 23.7081 21.0603 23.7314 20.9672 23.7314C20.8741 23.7314 20.781 23.7314 20.6879 23.6848C20.5948 23.6382 20.5017 23.6149 20.4319 23.545C20.3621 23.4752 20.2922 23.4053 20.269 23.3121C20.2224 23.2189 20.1991 23.1258 20.1991 23.0326C20.1991 22.9394 20.1991 22.8463 20.2457 22.7531C20.5017 22.0311 20.944 21.3789 21.5026 20.8898C22.0845 20.3773 22.7828 20.0512 23.5276 19.9115C24.2724 19.7717 25.0638 19.8183 25.7853 20.0745C26.5069 20.3307 27.1586 20.75 27.6474 21.3323L28.5086 20.4472H28.5552C28.5552 20.4472 28.6716 20.3773 28.7181 20.3773C28.7879 20.3773 28.8345 20.3773 28.9043 20.3773C28.9741 20.4006 29.0207 20.4472 29.0672 20.5171C29.1138 20.587 29.1371 20.6335 29.1371 20.7267V23.8944H29.1603Z" fill="white"/>
</svg>
