<svg width="16" height="16" viewBox="0 0 16 16" fill="none" xmlns="http://www.w3.org/2000/svg">
<path fill-rule="evenodd" clip-rule="evenodd" d="M1.31061 0.509276C1.13554 0.532298 0.999962 0.573414 0.838808 0.652335C0.450477 0.842507 0.181249 1.16388 0.0511028 1.59261L0.00631628 1.74014L0.00130413 7.90763C-0.00234879 12.3896 0.00147401 14.1117 0.0152871 14.2091C0.103705 14.8323 0.532422 15.3073 1.14802 15.4642L1.29755 15.5023H5.51115H9.72475L9.87766 15.4635C10.4159 15.3271 10.8252 14.9267 10.9756 14.3894L11.016 14.245V12.5545V10.8639L10.9716 10.7705C10.8774 10.5721 10.7041 10.4609 10.4893 10.4609C10.3922 10.4609 10.3447 10.4702 10.2741 10.5031C10.1439 10.5637 10.0241 10.6929 9.97877 10.8215C9.97055 10.8448 9.95973 11.6018 9.95471 12.5035L9.94562 14.1431L9.89776 14.2245C9.83746 14.3271 9.73894 14.3992 9.6258 14.4234C9.56237 14.437 8.40095 14.4408 5.45972 14.4371L1.38158 14.4319L1.29724 14.3885C1.20232 14.3397 1.11222 14.233 1.08595 14.1384C1.06138 14.05 1.06138 1.95216 1.08595 1.86374C1.11222 1.76914 1.20232 1.66249 1.29724 1.61365L1.38158 1.57024L5.45972 1.56506C8.40095 1.56133 9.56237 1.56514 9.6258 1.57875C9.73894 1.60299 9.83746 1.67507 9.89776 1.77765L9.94562 1.85907L9.95412 3.49864L9.96261 5.13821L10.007 5.23165C10.1012 5.43002 10.2745 5.54125 10.4893 5.54125C10.7041 5.54125 10.8774 5.43002 10.9716 5.23165L11.016 5.13821V3.44767V1.75713L10.9756 1.61271C10.8884 1.30131 10.6897 0.997952 10.4553 0.818347C10.3043 0.702643 10.0716 0.5884 9.88616 0.538975L9.74174 0.500475L5.57911 0.49791C3.28966 0.496516 1.36884 0.50163 1.31061 0.509276ZM12.8717 4.99445C12.7228 5.01949 12.5785 5.13134 12.4999 5.28262C12.4664 5.34719 12.4602 5.38419 12.4604 5.52049C12.4606 5.6567 12.4669 5.69384 12.5006 5.75835C12.5272 5.80921 12.8143 6.10941 13.3578 6.65459L14.1751 7.47438H9.54457C4.33295 7.47438 4.82868 7.46058 4.665 7.61018C4.54572 7.71919 4.49438 7.82426 4.48646 7.97559C4.47467 8.20036 4.59238 8.39233 4.80231 8.49072L4.8995 8.53627L9.53738 8.54076L14.1753 8.54524L13.3501 9.37328C12.7994 9.92581 12.5143 10.2239 12.4931 10.2693C12.4443 10.3738 12.4402 10.5694 12.4843 10.6867C12.5261 10.7981 12.6355 10.9155 12.7535 10.9756C12.8186 11.0088 12.8599 11.0167 12.9699 11.0168C13.228 11.017 13.1401 11.0919 14.6104 9.61866C15.6334 8.5937 15.9196 8.29763 15.9509 8.23218C16.0094 8.10964 16.0161 7.95201 15.9685 7.82268C15.9324 7.72463 15.881 7.6707 14.6203 6.40711C13.8995 5.68461 13.2791 5.07546 13.2417 5.05344C13.1861 5.02067 13.0002 4.97097 12.9625 4.9788C12.9572 4.97989 12.9164 4.98694 12.8717 4.99445Z" fill="black"/>
</svg>
