<svg xmlns="http://www.w3.org/2000/svg" width="16" height="16" fill="none"><path fill="#000" fill-rule="evenodd" d="M3.244.01C2.76.054 2.1.264 1.91.434a.487.487 0 0 0-.175.385c-.002.227.014.248.631.87.477.48.544.554.568.628a.47.47 0 0 1-.668.573c-.023-.015-.281-.26-.573-.546-.584-.571-.635-.61-.822-.624a.518.518 0 0 0-.511.295c-.48.923-.481 2.13-.005 3.107A3.573 3.573 0 0 0 2.307 6.9c.73.27 1.63.293 2.325.056l.116-.04.24.23c.133.127.272.249.31.27.2.117.494.073.647-.096.107-.119.134-.192.135-.362 0-.23-.015-.252-.462-.685-.426-.41-.47-.447-.596-.489-.136-.044-.263-.027-.488.065a2.375 2.375 0 0 1-1.172.197 2.496 2.496 0 0 1-1.89-1.106c-.278-.408-.445-1.05-.403-1.549l.012-.149.241.235c.328.32.526.435.865.505.166.035.452.035.62 0a1.545 1.545 0 0 0 1.177-1.129 1.71 1.71 0 0 0 .002-.736c-.078-.311-.2-.513-.5-.821l-.203-.208.064-.012c.103-.02.529.006.706.042a2.482 2.482 0 0 1 1.205.618c.193.17.276.209.448.207a.477.477 0 0 0 .381-.17.481.481 0 0 0 .137-.356c0-.18-.035-.251-.219-.434A3.422 3.422 0 0 0 4.466.119 4.062 4.062 0 0 0 3.244.01Zm6.833.014a1.54 1.54 0 0 0-.609.26c-.121.084-1.606 1.552-1.724 1.704a1.479 1.479 0 0 0-.318.933c0 .222.027.371.104.57.107.277.158.337 1.14 1.325l.913.918-1.969 1.904a466.045 466.045 0 0 1-2.06 1.986l-.094.084-.183-.177c-.27-.263-.405-.337-.681-.374a.994.994 0 0 0-.681.156C3.77 9.406.592 12.576.44 12.777a1.982 1.982 0 0 0-.399 1.208 2.014 2.014 0 0 0 3.232 1.608c.07-.051.846-.812 1.79-1.754 1.558-1.556 1.67-1.672 1.727-1.784.116-.23.143-.493.079-.746-.052-.203-.115-.296-.398-.583l-.255-.26.067-.065a917.733 917.733 0 0 1 4.055-3.908c.009-.004.407.383.885.86.477.476.906.893.953.926.125.09.306.175.477.227.137.042.177.047.415.047.236 0 .278-.005.411-.046.195-.059.342-.13.48-.23.148-.109 1.652-1.607 1.75-1.743a1.53 1.53 0 0 0 .278-1.04 1.483 1.483 0 0 0-.26-.716c-.054-.081-.704-.742-2.23-2.266C12.314 1.33 11.307.334 11.26.301a1.492 1.492 0 0 0-.858-.295 1.438 1.438 0 0 0-.325.018Zm.13 1.066c-.104.037-.203.128-.928.857-.733.736-.742.746-.771.845a.458.458 0 0 0 .03.345c.058.117 4.227 4.264 4.34 4.318a.474.474 0 0 0 .386-.004c.065-.031.265-.22.836-.786.827-.819.827-.819.828-1.016 0-.208.138-.058-2.177-2.374-2.324-2.324-2.197-2.207-2.4-2.205a.567.567 0 0 0-.144.02Zm.134 7.508a.61.61 0 0 0-.28.268.574.574 0 0 0-.015.42c.035.094.067.131.414.474.409.405.468.448.653.465.082.007.123 0 .25-.047.592-.215.746-.246 1.153-.233.395.014.688.083 1.02.242a2.528 2.528 0 0 1 1.231 1.337c.127.33.201.85.159 1.107l-.01.066-.18-.178a4.844 4.844 0 0 0-.274-.253 1.734 1.734 0 0 0-.52-.263c-.139-.043-.174-.047-.423-.046-.246 0-.286.004-.421.045-.55.168-.935.577-1.077 1.146-.043.171-.038.53.01.71.081.303.202.497.502.805l.222.227-.332-.01a2.34 2.34 0 0 1-.798-.13 2.49 2.49 0 0 1-1.521-1.534 2.441 2.441 0 0 1 .065-1.76c.08-.195.089-.228.089-.343 0-.21-.03-.254-.47-.69-.344-.34-.389-.379-.481-.414a.535.535 0 0 0-.687.686c.032.086.071.136.259.328l.221.226-.02.064a4.156 4.156 0 0 0-.123.48 4.416 4.416 0 0 0-.033.999 3.51 3.51 0 0 0 1.015 2.122 3.52 3.52 0 0 0 2.637 1.038c.5-.015.951-.122 1.375-.324.214-.103.327-.274.327-.496 0-.225-.014-.245-.624-.858-.586-.59-.602-.61-.602-.805a.49.49 0 0 1 .303-.429.587.587 0 0 1 .359.012c.055.025.223.18.611.566.619.614.619.614.858.613.124 0 .166-.007.223-.037.156-.083.215-.156.316-.396a3.56 3.56 0 0 0 .002-2.753 3.663 3.663 0 0 0-1.352-1.611c-.85-.553-2.012-.715-2.952-.413l-.148.048-.2-.2c-.248-.25-.321-.293-.508-.3a.472.472 0 0 0-.223.029ZM2.86 11.84c-1.493 1.495-1.61 1.618-1.66 1.72a.881.881 0 0 0-.09.418.864.864 0 0 0 .275.67.82.82 0 0 0 .434.255.927.927 0 0 0 .647-.06c.107-.049.166-.098.484-.404.454-.437 2.878-2.864 2.867-2.87-.005-.003-.31-.306-.68-.673l-.67-.666-1.607 1.61Z" clip-rule="evenodd"/></svg>