<?xml version="1.0" encoding="UTF-8"?>
<!--
  - Infomaniak kDrive - Desktop
  - Copyright (C) 2023-2025 Infomaniak Network SA
  -
  - This program is free software: you can redistribute it and/or modify
  - it under the terms of the GNU General Public License as published by
  - the Free Software Foundation, either version 3 of the License, or
  - (at your option) any later version.
  -
  - This program is distributed in the hope that it will be useful,
  - but WITHOUT ANY WARRANTY; without even the implied warranty of
  - MERCHANTABILITY or FITNESS FOR A PARTICULAR PURPOSE.  See the
  - GNU General Public License for more details.
  -
  - You should have received a copy of the GNU General Public License
  - along with this program.  If not, see <http://www.gnu.org/licenses/>.
  -->

<svg width="39px" height="39px" viewBox="0 0 39 39" version="1.1" xmlns="http://www.w3.org/2000/svg" xmlns:xlink="http://www.w3.org/1999/xlink">
    <!-- Generator: Sketch 63.1 (92452) - https://sketch.com -->
    <title>logos/kdrive-without-text</title>
    <desc>Created with Sketch.</desc>
    <g id="logos/kdrive-without-text" stroke="none" stroke-width="1" fill="none" fill-rule="evenodd">
        <g id="logo" transform="translate(0.000000, 1.000000)">
            <path d="M16.5188333,1.01954844 L19.553207,2.28806113 C20.0176238,2.48220947 20.3766857,2.86591782 20.5396204,3.34218332 L21.7460741,6.86870127 C21.9402932,7.43641239 22.4103519,7.86606572 22.993187,8.00861468 L35.6181338,11.0964057 C36.4058759,11.2890706 36.96,11.9950543 36.96,12.8060151 L36.96,27.5370317 C36.96,28.5090529 36.1720212,29.2970317 35.2,29.2970317 C35.0245548,29.2970317 34.8500957,29.2707987 34.6824089,29.2192028 L15.3224089,23.26228 C14.5839277,23.035055 14.08,22.3527575 14.08,21.5801089 L14.08,2.64336658 C14.08,1.67134542 14.8679788,0.883366581 15.84,0.883366581 C16.0730625,0.883366581 16.3038042,0.929656044 16.5188333,1.01954844 Z" id="Rectangle-Copy-32" fill="#A2BFFF" opacity="0.504231771"></path>
            <path d="M12.1188333,4.53954844 L15.153207,5.80806113 C15.6176238,6.00220947 15.9766857,6.38591782 16.1396204,6.86218332 L17.3460741,10.3887013 C17.5402932,10.9564124 18.0103519,11.3860657 18.593187,11.5286147 L31.2181338,14.6164057 C32.0058759,14.8090706 32.56,15.5150543 32.56,16.3260151 L32.56,31.0570317 C32.56,32.0290529 31.7720212,32.8170317 30.8,32.8170317 C30.6245548,32.8170317 30.4500957,32.7907987 30.2824089,32.7392028 L10.9224089,26.78228 C10.1839277,26.555055 9.68,25.8727575 9.68,25.1001089 L9.68,6.16336658 C9.68,5.19134542 10.4679788,4.40336658 11.44,4.40336658 C11.6730625,4.40336658 11.9038042,4.44965604 12.1188333,4.53954844 Z" id="Rectangle-Copy-12" fill="#A0BDFF" opacity="0.8"></path>
            <path d="M7.7188333,7.53154855 L10.753207,8.80006124 C11.2176238,8.99420958 11.5766857,9.37791793 11.7396204,9.85418343 L12.9460741,13.3807014 C13.1402932,13.9484125 13.6103519,14.3780658 14.193187,14.5206148 L26.8181338,17.6084058 C27.6058759,17.8010707 28.16,18.5070544 28.16,19.3180152 L28.16,34.0490318 C28.16,35.021053 27.3720212,35.8090318 26.4,35.8090318 C26.2245548,35.8090318 26.0500957,35.7827988 25.8824089,35.7312029 L6.52240893,29.7742801 C5.78392766,29.5470551 5.28,28.8647576 5.28,28.092109 L5.28,9.15536669 C5.28,8.18334553 6.06797884,7.39536669 7.04,7.39536669 C7.27306255,7.39536669 7.50380421,7.44165615 7.7188333,7.53154855 Z" id="Rectangle" fill="#1A47FF"></path>
            <path d="M3.2550981,15.336194 L22.8097186,20.768033 C23.4000543,20.9320151 23.8626292,21.3912012 24.0309475,21.9803153 L27.7142972,34.8720402 C27.8478146,35.339351 27.5772215,35.8264185 27.1099107,35.9599359 C26.9460893,36.006742 26.7722032,36.0049857 26.6093606,35.9548803 L6.12709694,29.6526457 C5.59424026,29.4886898 5.17057567,29.0819648 4.98502502,28.556238 L1.12438191,17.6177489 C0.800873721,16.7011424 1.28167495,15.6958307 2.19828151,15.3723225 C2.53852254,15.2522375 2.9074505,15.2396252 3.2550981,15.336194 Z" id="Rectangle-Copy-37" fill="#5287FF"></path>
        </g>
    </g>
</svg>