<svg width="16" height="16" viewBox="0 0 16 16" fill="none" xmlns="http://www.w3.org/2000/svg">
<path d="M13.3691 8.00488C13.6898 8.04022 13.9574 8.22572 14.0986 8.51074C14.188 8.69123 14.2031 8.80576 14.1846 9.16602C14.17 9.44994 14.1711 9.51319 14.1914 9.57129C14.2126 9.63189 14.246 9.68117 14.3008 9.73242C14.3526 9.78085 14.396 9.80341 14.4688 9.82031C14.5193 9.83205 14.5509 9.83204 14.7861 9.81934C15.0748 9.80376 15.2002 9.80703 15.3018 9.83203C15.4981 9.88041 15.6927 10.0097 15.8164 10.1729C15.908 10.2939 15.9772 10.4713 15.9951 10.6318C16.0215 10.8687 15.9394 11.1326 15.7832 11.3145C15.7563 11.3456 15.6505 11.4466 15.5479 11.5391C15.3145 11.7493 15.2941 11.7709 15.2607 11.8398C15.237 11.889 15.2334 11.9057 15.2305 11.9844C15.2277 12.0591 15.2301 12.0824 15.2451 12.125C15.2738 12.2067 15.31 12.2494 15.4629 12.3867C15.7602 12.6538 15.8054 12.7013 15.8691 12.8086C16.0266 13.074 16.0414 13.3965 15.9092 13.6748C15.8597 13.779 15.8138 13.8432 15.7227 13.9326C15.5891 14.0637 15.442 14.143 15.2666 14.1787C15.1625 14.1998 15.0924 14.2007 14.7695 14.1836C14.5966 14.1745 14.5133 14.1726 14.4805 14.1787C14.3319 14.2065 14.2023 14.3375 14.1748 14.4873C14.1681 14.5239 14.1691 14.6042 14.1797 14.8018C14.1959 15.1033 14.1937 15.1954 14.1641 15.3115C14.0829 15.6296 13.8319 15.8821 13.5117 15.9697C13.3927 16.0022 13.2188 16.0076 13.0967 15.9824C12.9274 15.9474 12.7785 15.8721 12.6631 15.7637C12.6275 15.7303 12.5221 15.6184 12.4287 15.5146C12.2478 15.3137 12.1956 15.2696 12.1113 15.2451C12.045 15.226 11.9191 15.2325 11.8506 15.2588C11.7913 15.2816 11.7235 15.346 11.502 15.5908C11.4282 15.6723 11.3468 15.7574 11.3203 15.7803C11.1493 15.927 10.9506 15.9997 10.7197 16C10.521 16.0003 10.3442 15.9422 10.1777 15.8223C9.97311 15.6749 9.82883 15.416 9.80957 15.1621C9.80669 15.1243 9.81022 14.9657 9.81836 14.8096C9.83471 14.4962 9.8337 14.4716 9.78906 14.3828C9.7601 14.3252 9.68713 14.2505 9.62891 14.2188C9.54703 14.1742 9.49898 14.1699 9.24121 14.1836C8.94786 14.1992 8.83997 14.1995 8.74902 14.1836C8.56646 14.1517 8.38541 14.0522 8.25 13.9102C7.99095 13.6383 7.92664 13.2303 8.08887 12.8887C8.16013 12.7386 8.20185 12.6901 8.48828 12.4307C8.696 12.2425 8.73093 12.2022 8.75684 12.1162C8.77397 12.0593 8.77271 11.9463 8.75391 11.8857C8.72491 11.7928 8.70974 11.7765 8.37793 11.4746C8.24241 11.3513 8.18008 11.2812 8.12891 11.1943C7.8914 10.7907 7.99318 10.2703 8.36426 9.99316C8.50161 9.89062 8.67866 9.82386 8.84277 9.81152C8.88414 9.80844 9.04138 9.81222 9.19531 9.82031C9.41974 9.8321 9.48202 9.83258 9.52246 9.82422C9.67022 9.79357 9.79353 9.66932 9.82227 9.52246C9.82798 9.49321 9.8261 9.38492 9.81641 9.17285C9.80313 8.88227 9.80323 8.86132 9.81738 8.77441C9.88532 8.35724 10.2271 8.03874 10.6426 8.00488C10.8489 7.98807 11.0627 8.04209 11.2295 8.15332C11.3078 8.20561 11.3655 8.26209 11.5459 8.45996C11.7541 8.68832 11.7887 8.72018 11.8535 8.74609C11.8935 8.76207 11.9176 8.76562 11.999 8.76562C12.1639 8.76562 12.1883 8.74969 12.4092 8.50684C12.6507 8.24128 12.7104 8.18605 12.8203 8.12207C12.9788 8.02992 13.1889 7.98503 13.3691 8.00488ZM5.98926 0C7.01747 9.80982e-05 8.00335 0.408747 8.73047 1.13574C9.45769 1.86297 9.86621 2.84948 9.86621 3.87793C9.86617 4.90632 9.45766 5.89293 8.73047 6.62012C8.35146 6.99902 7.90209 7.29127 7.41309 7.48438C7.81962 7.5816 8.2146 7.72025 8.59082 7.89746C8.84024 8.01516 8.94733 8.31289 8.83008 8.5625C8.71241 8.81232 8.41388 8.91943 8.16406 8.80176C7.49271 8.48559 6.75008 8.31646 5.98926 8.31641C4.66204 8.31641 3.3917 8.83119 2.45703 9.74219C1.64502 10.5336 1.14353 11.568 1.02637 12.667H6.65527C6.93142 12.667 7.15527 12.8909 7.15527 13.167C7.1551 13.443 6.93131 13.667 6.65527 13.667H0.5C0.367468 13.667 0.240237 13.6142 0.146484 13.5205C0.0527928 13.4268 8.60488e-05 13.2995 0 13.167C0 11.6113 0.634292 10.1214 1.75879 9.02539C2.53956 8.26447 3.51226 7.73605 4.56445 7.48438C4.07548 7.29125 3.62605 6.99902 3.24707 6.62012C2.51988 5.89293 2.11137 4.90632 2.11133 3.87793C2.11133 2.84948 2.51985 1.86297 3.24707 1.13574C3.97428 0.408586 4.96086 0 5.98926 0ZM11.8076 10.79C11.551 10.8309 11.3308 10.9424 11.1416 11.1279C10.9472 11.3186 10.8317 11.5424 10.7871 11.8145C10.7714 11.9103 10.7721 12.0923 10.7881 12.1924C10.8728 12.719 11.2812 13.1284 11.8076 13.2139C11.906 13.2298 12.092 13.2298 12.1904 13.2139C12.4471 13.1722 12.678 13.0547 12.8604 12.873C13.0995 12.6347 13.2226 12.3388 13.2227 12.002C13.2227 11.6626 13.099 11.3674 12.8564 11.1279C12.6711 10.945 12.4398 10.8287 12.1816 10.7891C12.0882 10.7748 11.8997 10.7754 11.8076 10.79ZM5.98926 1C5.22608 1 4.49378 1.30315 3.9541 1.84277C3.41441 2.38246 3.11133 3.1147 3.11133 3.87793C3.11137 4.64111 3.41445 5.37343 3.9541 5.91309C4.49376 6.45261 5.22615 6.75586 5.98926 6.75586C6.75218 6.75576 7.48387 6.45245 8.02344 5.91309C8.56309 5.37343 8.86617 4.64111 8.86621 3.87793C8.86621 3.1147 8.56313 2.38246 8.02344 1.84277C7.48386 1.30331 6.75225 1.0001 5.98926 1Z" fill="#333333"/>
</svg>
