<svg width="14" height="14" viewBox="0 0 14 14" fill="none" xmlns="http://www.w3.org/2000/svg">
<path d="M4.43262 1.89014C5.17363 1.89014 5.88419 2.18668 6.40723 2.71338C6.93002 3.23993 7.22263 3.95349 7.22266 4.69678C7.22266 5.44005 6.92999 6.15361 6.40723 6.68018C6.04853 7.04138 5.60049 7.2903 5.11621 7.41357C6.00082 7.55727 6.82471 7.977 7.46582 8.62256C8.26952 9.43188 8.72068 10.5291 8.7207 11.6724C8.7207 11.7883 8.67472 11.8999 8.59277 11.9819C8.51078 12.0639 8.39915 12.1098 8.2832 12.1099H0.583008C0.466976 12.1099 0.355485 12.064 0.273438 11.9819C0.191409 11.8999 0.145508 11.7884 0.145508 11.6724C0.145532 10.5291 0.59669 9.43188 1.40039 8.62256C2.04127 7.97728 2.8648 7.55837 3.74902 7.41455C3.26481 7.29126 2.81765 7.04134 2.45898 6.68018C1.93605 6.15358 1.64258 5.44019 1.64258 4.69678C1.6426 3.9534 1.93607 3.23995 2.45898 2.71338C2.98197 2.18678 3.69172 1.89019 4.43262 1.89014ZM10.5293 4.04248C11.1143 4.04248 11.6752 4.27634 12.0879 4.69189C12.5005 5.10741 12.7314 5.671 12.7314 6.25732C12.7314 6.8435 12.5004 7.40634 12.0879 7.82178C11.8213 8.09019 11.4923 8.28048 11.1357 8.3833C11.793 8.50589 12.4031 8.82608 12.8818 9.30811C13.505 9.93561 13.8544 10.7862 13.8545 11.6724C13.8545 11.914 13.6586 12.1099 13.417 12.1099H10.0312C9.78963 12.1099 9.59375 11.914 9.59375 11.6724C9.5939 11.4309 9.78972 11.2349 10.0312 11.2349H12.9404C12.8523 10.7417 12.6169 10.2839 12.2607 9.92529C11.801 9.46238 11.1781 9.20264 10.5293 9.20264C10.1872 9.20268 9.85239 9.27459 9.54492 9.41064C9.32404 9.50841 9.06563 9.4088 8.96777 9.18799C8.87001 8.96711 8.96964 8.70871 9.19043 8.61084C9.42489 8.50706 9.67155 8.43142 9.9248 8.38428C9.56766 8.28159 9.2386 8.09051 8.97168 7.82178C8.55912 7.40633 8.32723 6.84354 8.32715 6.25732C8.32715 5.671 8.55905 5.10741 8.97168 4.69189C9.38432 4.27655 9.94453 4.04254 10.5293 4.04248ZM4.43262 8.23291C3.52869 8.23301 2.6616 8.59515 2.02148 9.23975C1.48432 9.78066 1.14348 10.4833 1.04785 11.2349H7.81738C7.72175 10.4833 7.3818 9.78063 6.84473 9.23975C6.20452 8.59506 5.33668 8.23291 4.43262 8.23291ZM10.5293 4.91748C10.1784 4.91754 9.84085 5.05828 9.5918 5.30908C9.34279 5.56001 9.20215 5.90127 9.20215 6.25732C9.20223 6.61341 9.34267 6.95468 9.5918 7.20557C9.84085 7.45637 10.1784 7.59613 10.5293 7.59619C10.8802 7.59619 11.2177 7.4563 11.4668 7.20557C11.7159 6.95468 11.8564 6.61343 11.8564 6.25732C11.8564 5.90115 11.716 5.56003 11.4668 5.30908C11.2177 5.05823 10.8803 4.91748 10.5293 4.91748ZM4.43262 2.76514C3.92589 2.76519 3.43942 2.96794 3.08008 3.32959C2.72057 3.69161 2.5176 4.1835 2.51758 4.69678C2.51758 5.21008 2.72055 5.70193 3.08008 6.06396C3.43942 6.42568 3.92585 6.62836 4.43262 6.62842C4.93959 6.62842 5.42671 6.4259 5.78613 6.06396C6.14566 5.70193 6.34766 5.21008 6.34766 4.69678C6.34763 4.1835 6.14564 3.69161 5.78613 3.32959C5.42672 2.96771 4.93955 2.76514 4.43262 2.76514Z" fill="black" fill-opacity="0.89"/>
</svg>
