<svg width="16" height="16" viewBox="0 0 16 16" fill="none" xmlns="http://www.w3.org/2000/svg">
<path d="M12 8C14.2091 8 16 9.79086 16 12C16 14.2091 14.2091 16 12 16C9.79088 16 8 14.2091 8 12C8 9.79088 9.79088 8.00002 12 8ZM12 13.667C11.8674 13.667 11.7402 13.7197 11.6465 13.8135C11.5528 13.9072 11.5 14.0345 11.5 14.167C11.5001 14.2995 11.5528 14.4268 11.6465 14.5205C11.7402 14.6142 11.8675 14.667 12 14.667C12.1325 14.667 12.2598 14.6142 12.3535 14.5205C12.4472 14.4268 12.4999 14.2995 12.5 14.167C12.5 14.0345 12.4472 13.9072 12.3535 13.8135C12.2597 13.7197 12.1326 13.667 12 13.667ZM12.1035 9.50391C11.8292 9.48495 11.5547 9.5416 11.3105 9.66797C11.0665 9.79429 10.8617 9.98505 10.7188 10.2197C10.5758 10.4546 10.5001 10.725 10.5 11C10.5001 11.276 10.724 11.4999 11 11.5C11.2761 11.5 11.4999 11.2761 11.5 11C11.5 10.9083 11.5256 10.8185 11.5732 10.7402C11.6209 10.662 11.6891 10.5978 11.7705 10.5557C11.8517 10.5137 11.943 10.4947 12.0342 10.501C12.1256 10.5073 12.2142 10.5389 12.2891 10.5918C12.3637 10.6446 12.4226 10.7169 12.459 10.8008C12.4954 10.8848 12.5076 10.9777 12.4951 11.0684C12.4825 11.1592 12.4456 11.2454 12.3877 11.3164C12.3298 11.3873 12.2533 11.4411 12.167 11.4717C11.9722 11.5406 11.803 11.6681 11.6836 11.8369C11.5643 12.0057 11.4999 12.2082 11.5 12.415V12.75C11.5001 13.026 11.7239 13.25 12 13.25C12.2761 13.25 12.4999 13.026 12.5 12.75V12.4141C12.7592 12.3224 12.9883 12.1613 13.1621 11.9482C13.336 11.7351 13.4476 11.4784 13.4854 11.2061C13.5231 10.9338 13.4852 10.6566 13.376 10.4043C13.2667 10.152 13.0906 9.93414 12.8662 9.77539C12.6417 9.61663 12.3778 9.52289 12.1035 9.50391ZM4.09961 0C4.81546 0 5.50243 0.284264 6.00879 0.790039C6.51503 1.29581 6.7998 1.98182 6.7998 2.69727C6.7998 3.41271 6.51503 4.09872 6.00879 4.60449C5.74969 4.86329 5.44264 5.06293 5.10938 5.19727C5.81817 5.37721 6.47206 5.7452 6.99805 6.27051C7.76696 7.03853 8.19922 8.0806 8.19922 9.16699C8.19913 9.29948 8.14643 9.42682 8.05273 9.52051C7.95899 9.6141 7.83169 9.66699 7.69922 9.66699H0.5C0.367468 9.66699 0.240237 9.61417 0.146484 9.52051C0.0527929 9.42682 8.60647e-05 9.29948 0 9.16699C0 8.0806 0.432259 7.03853 1.20117 6.27051C1.7269 5.74542 2.38046 5.37733 3.08887 5.19727C2.756 5.06293 2.44926 4.86302 2.19043 4.60449C1.68426 4.09873 1.39941 3.41265 1.39941 2.69727C1.39942 1.98187 1.68426 1.2958 2.19043 0.790039C2.69676 0.284292 3.3838 3.03827e-05 4.09961 0ZM4.09961 6.07129C3.27737 6.07132 2.48847 6.39697 1.90723 6.97754C1.44545 7.43878 1.14912 8.03165 1.04492 8.66699H7.15527C7.05109 8.0316 6.7538 7.43881 6.29199 6.97754C5.71074 6.39702 4.92184 6.07129 4.09961 6.07129ZM9.7998 1.99609C10.3698 1.99609 10.9171 2.22224 11.3203 2.625C11.7235 3.02777 11.9502 3.57469 11.9502 4.14453C11.9501 4.71418 11.7233 5.2604 11.3203 5.66309C11.136 5.84718 10.9203 5.99209 10.6875 6.09766C11.0725 6.20876 11.4353 6.38943 11.7549 6.63574C11.9735 6.80432 12.0142 7.11824 11.8457 7.33691C11.6771 7.5556 11.3632 7.59635 11.1445 7.42773C10.7616 7.13253 10.2889 6.96973 9.7998 6.96973C9.49213 6.96978 9.19136 7.03494 8.91504 7.15625C8.6623 7.26721 8.36698 7.15203 8.25586 6.89941C8.14488 6.64662 8.25996 6.35129 8.5127 6.24023C8.64167 6.18361 8.77464 6.13589 8.91016 6.09668C8.67829 5.99119 8.46395 5.84655 8.28027 5.66309C7.8771 5.26038 7.65047 4.71429 7.65039 4.14453C7.65039 3.57467 7.87703 3.02778 8.28027 2.625C8.68342 2.22243 9.22999 1.99616 9.7998 1.99609ZM9.7998 2.99609C9.49474 2.99616 9.20187 3.11772 8.98633 3.33301C8.77098 3.5483 8.65039 3.84043 8.65039 4.14453C8.65047 4.44866 8.77086 4.7408 8.98633 4.95605C9.20187 5.17134 9.49474 5.29193 9.7998 5.29199C10.1049 5.29199 10.3977 5.17129 10.6133 4.95605C10.8288 4.74079 10.9501 4.4487 10.9502 4.14453C10.9502 3.84031 10.8288 3.54833 10.6133 3.33301C10.3977 3.11766 10.105 2.99609 9.7998 2.99609ZM4.09961 1C3.64868 1.00003 3.21616 1.17878 2.89746 1.49707C2.57875 1.81541 2.39942 2.24731 2.39941 2.69727C2.39941 3.14723 2.57874 3.57911 2.89746 3.89746C3.21616 4.21576 3.64867 4.3945 4.09961 4.39453C4.55054 4.39453 4.98304 4.21572 5.30176 3.89746C5.62047 3.57911 5.7998 3.14723 5.7998 2.69727C5.7998 2.24731 5.62047 1.81541 5.30176 1.49707C4.98304 1.17883 4.55053 1 4.09961 1Z" fill="#333333"/>
</svg>
