<svg xmlns="http://www.w3.org/2000/svg" width="17" height="16" fill="none"><path fill="#000" fill-rule="evenodd" d="M11.8 2.8H4.6c-.3 0-.57.1-.8.28h-.01a2.1 2.1 0 0 0-.56.68L.71 8.5a.5.5 0 0 0-.05.16c-.2.33-.3.71-.3 1.1v1.47c0 .5.18 1 .5 1.38.32.37.78.6 1.28.6h12.11c.5 0 .96-.23 1.28-.6.33-.38.5-.87.5-1.38V9.76c0-.39-.1-.77-.3-1.1a.5.5 0 0 0-.05-.16l-2.52-4.74a2.1 2.1 0 0 0-.56-.68c-.23-.18-.5-.29-.8-.29Zm2.36 4.98-1.88-3.55c-.1-.17-.2-.29-.29-.36a.35.35 0 0 0-.19-.08H4.6a.35.35 0 0 0-.2.08c-.09.07-.19.19-.28.36l-1.9 3.55h11.94Zm-12.02 1a.7.7 0 0 0-.52.26 1.1 1.1 0 0 0-.26.72v1.47c0 .28.1.54.26.72a.7.7 0 0 0 .52.26h12.11a.7.7 0 0 0 .53-.26c.15-.18.25-.44.25-.72V9.76c0-.28-.1-.54-.25-.72a.7.7 0 0 0-.53-.26H2.14Zm8.32 1.72c0-.27.22-.5.5-.5h2a.5.5 0 1 1 0 1h-2a.5.5 0 0 1-.5-.5Zm-6.89-.66a.66.66 0 1 0 .66.66.66.66 0 0 0-.66-.66Zm1.87.1a.66.66 0 0 1 1.02.56.66.66 0 1 1-1.02-.55Z" clip-rule="evenodd"/></svg>