<?xml version="1.0" encoding="UTF-8"?>
<!--
  - Infomaniak kDrive - Desktop
  - Copyright (C) 2023-2025 Infomaniak Network SA
  -
  - This program is free software: you can redistribute it and/or modify
  - it under the terms of the GNU General Public License as published by
  - the Free Software Foundation, either version 3 of the License, or
  - (at your option) any later version.
  -
  - This program is distributed in the hope that it will be useful,
  - but WITHOUT ANY WARRANTY; without even the implied warranty of
  - MERCHANTABILITY or FITNESS FOR A PARTICULAR PURPOSE.  See the
  - GNU General Public License for more details.
  -
  - You should have received a copy of the GNU General Public License
  - along with this program.  If not, see <http://www.gnu.org/licenses/>.
  -->

<svg width="16px" height="16px" viewBox="0 0 16 16" version="1.1" xmlns="http://www.w3.org/2000/svg" xmlns:xlink="http://www.w3.org/1999/xlink">
    <title>icons/theme/white/state-warning</title>
    <defs>
        <path d="M13.6875,4.15001413 L7.58616667,4.15001413 C7.48367163,4.15001063 7.38995944,4.09125795 7.34404167,3.99821432 L6.83108333,2.95321569 C6.69322243,2.67421801 6.41157966,2.49862658 6.10416667,2.50000809 L2.3125,2.50000809 C1.86376864,2.50000809 1.5,2.86938088 1.5,3.3250152 L1.5,12.675003 C1.5,13.1306373 1.86376864,13.5000081 2.3125,13.5000081 L13.6875,13.5000081 C14.1362314,13.5000081 14.5,13.1306373 14.5,12.675003 L14.5,4.97501305 C14.5,4.51937872 14.1362314,4.15001413 13.6875,4.15001413 Z M10.9815166,7.62099538 L11.0316191,7.62203291 C11.072249,7.62680854 11.110692,7.64115103 11.145834,7.66548937 L11.1959321,7.70954739 L11.225779,7.75117088 L12.1098912,9.31925011 C12.1576114,9.40351346 12.1547137,9.50759116 12.1020205,9.58949191 C12.0638029,9.64801283 12.0040194,9.68808055 11.938508,9.70151753 L11.8718164,9.70686101 L11.854019,9.70590253 L11.4801279,9.65993181 C11.108061,10.968354 10.093353,11.9725662 8.8081636,12.3022642 C7.54035429,12.6103025 6.21019808,12.1779875 5.34997182,11.1801489 C5.22234198,11.0390218 5.17954547,10.8391761 5.23751253,10.657156 C5.29583081,10.4740331 5.44733052,10.3367619 5.63418877,10.2993547 C5.79505078,10.2671517 5.95946403,10.3135056 6.07950967,10.4200234 L6.13561335,10.4782108 C6.74166496,11.1810944 7.67512271,11.4844909 8.56330026,11.2687885 C9.41983036,11.0472377 10.1119178,10.4002789 10.4060462,9.5449153 L10.4068929,9.53755764 L10.4044746,9.52908077 L9.74620315,9.44685522 C9.64851643,9.43451926 9.56697077,9.36758226 9.53477295,9.27502076 C9.5171103,9.22424463 9.51572178,9.16980542 9.53219958,9.11517853 L9.55469178,9.06061779 L9.59031452,9.01127234 L10.8119862,7.7027555 C10.8303621,7.68260989 10.8517365,7.66565694 10.8781002,7.65158299 L10.9216367,7.6325921 L10.9612947,7.62323099 L10.9815166,7.62099538 Z M7.18127558,5.26916139 C8.44905684,4.96110178 9.77918336,5.39359516 10.6403756,6.39306603 C10.8296763,6.61211861 10.8098431,6.94555994 10.5955062,7.13988397 C10.3785137,7.33661567 10.0452163,7.31581719 9.85346462,7.09392818 C9.24751965,6.39091462 8.31393165,6.08761052 7.42586877,6.30370224 C6.56941915,6.5261578 5.87752352,7.17333329 5.58276235,8.02948202 L5.5819045,8.03637761 L5.58424055,8.04459236 L6.25107651,8.13069147 C6.3492044,8.14272914 6.43121504,8.20986031 6.46347468,8.3028198 C6.48116949,8.35380921 6.48245699,8.40847071 6.4657443,8.46325371 L6.44297255,8.51794569 L6.40693773,8.56737973 L5.17716872,9.86901418 C5.15578704,9.89160829 5.13062737,9.91004111 5.09963712,9.92424204 L5.04852223,9.9423607 L4.99026045,9.94960401 L4.9578412,9.94894623 C4.91726181,9.94383635 4.878947,9.92918283 4.84401318,9.90456809 L4.79428774,9.86012289 L4.76487158,9.81843935 L3.88917252,8.24551788 C3.84205999,8.16088209 3.84573076,8.05679356 3.89822643,7.97656856 C3.92764393,7.93031238 3.9707356,7.89522516 4.02586306,7.87527223 L4.08494177,7.86051093 L4.1458122,7.86051241 L4.51138185,7.90763498 C4.51325952,7.90788216 4.5163392,7.90581027 4.51788066,7.90033306 C4.88418723,6.60149374 5.89782064,5.59920986 7.18127558,5.26916139 Z" id="path-1"></path>
    </defs>
    <g id="icons/theme/white/state-warning" stroke="none" stroke-width="1" fill="none" fill-rule="evenodd">
        <mask id="mask-2" fill="white">
            <use xlink:href="#path-1"></use>
        </mask>
        <use id="Combined-Shape" fill="#FFFFFF" xlink:href="#path-1"></use>
    </g>
</svg>