<svg width="16" height="16" viewBox="0 0 16 16" fill="none" xmlns="http://www.w3.org/2000/svg">
<path d="M5.06543 2.16006C5.9123 2.16006 6.72451 2.49856 7.32227 3.10049C7.91991 3.70232 8.25488 4.51846 8.25488 5.36807C8.2548 6.21749 7.91973 7.03294 7.32227 7.63467C6.91443 8.04536 6.40661 8.33284 5.85645 8.47452C6.86381 8.64023 7.80185 9.11892 8.53223 9.8544C9.45073 10.7793 9.96578 12.0332 9.96582 13.3398C9.96582 13.4724 9.9131 13.5995 9.81934 13.6933C9.72557 13.787 9.59842 13.8398 9.46582 13.8398H0.666016C0.533407 13.8398 0.406268 13.787 0.3125 13.6933C0.218784 13.5995 0.166016 13.4723 0.166016 13.3398C0.166059 12.0333 0.681166 10.7793 1.59961 9.8544C2.32971 9.11919 3.26748 8.64041 4.27441 8.47452C3.72454 8.33277 3.21721 8.04517 2.80957 7.63467C2.21206 7.03294 1.87704 6.21753 1.87695 5.36807C1.87695 4.51846 2.21193 3.70232 2.80957 3.10049C3.40723 2.4987 4.21874 2.16017 5.06543 2.16006ZM12.0332 4.62003C12.7018 4.62003 13.3428 4.88727 13.8145 5.36221C14.286 5.83709 14.5498 6.48119 14.5498 7.15128C14.5497 7.82119 14.2859 8.46459 13.8145 8.93936C13.5101 9.24582 13.1346 9.46338 12.7275 9.58096C13.4781 9.72123 14.1749 10.0871 14.7217 10.6376C15.4339 11.3548 15.8339 12.327 15.834 13.3398C15.834 13.6158 15.6099 13.8395 15.334 13.8398H11.4639C11.1877 13.8398 10.9639 13.6159 10.9639 13.3398C10.964 13.0637 11.1878 12.8398 11.4639 12.8398H14.7891C14.6884 12.2762 14.4196 11.7526 14.0127 11.3427C13.4873 10.8136 12.7747 10.5165 12.0332 10.5165C11.6422 10.5166 11.2596 10.5993 10.9082 10.7548C10.6557 10.8666 10.3598 10.7524 10.248 10.4999C10.1366 10.2476 10.2508 9.95258 10.5029 9.84073C10.7701 9.72247 11.0513 9.63586 11.3398 9.58194C10.9326 9.46442 10.5574 9.24587 10.2529 8.93936C9.78146 8.46459 9.51672 7.8212 9.5166 7.15128C9.5166 6.48119 9.78135 5.83709 10.2529 5.36221C10.7245 4.88746 11.3648 4.62011 12.0332 4.62003ZM5.06641 9.40909C4.03319 9.40909 3.04123 9.8227 2.30957 10.5595C1.69575 11.1776 1.30656 11.9808 1.19727 12.8398H8.93457C8.82527 11.9808 8.43614 11.1776 7.82227 10.5595C7.09069 9.82279 6.09948 9.40919 5.06641 9.40909ZM12.0332 5.62003C11.6322 5.62011 11.2465 5.78067 10.9619 6.06729C10.6772 6.35408 10.5166 6.74429 10.5166 7.15128C10.5167 7.55808 10.6774 7.94761 10.9619 8.23428C11.2465 8.5209 11.6322 8.68147 12.0332 8.68155C12.4343 8.68155 12.8198 8.52096 13.1045 8.23428C13.3892 7.94758 13.5497 7.55822 13.5498 7.15128C13.5498 6.74417 13.3893 6.3541 13.1045 6.06729C12.8198 5.78063 12.4343 5.62003 12.0332 5.62003ZM5.06543 3.16006C4.4862 3.16017 3.9302 3.39206 3.51953 3.80557C3.10865 4.21933 2.87695 4.78144 2.87695 5.36807C2.87704 5.95454 3.10879 6.51592 3.51953 6.9296C3.9302 7.34314 4.48618 7.57499 5.06543 7.5751C5.64483 7.5751 6.20154 7.34324 6.6123 6.9296C7.023 6.51593 7.2548 5.9545 7.25488 5.36807C7.25488 4.78144 7.02318 4.21933 6.6123 3.80557C6.20154 3.39193 5.64483 3.16006 5.06543 3.16006Z" fill="black"/>
</svg>
