<?xml version="1.0" encoding="UTF-8"?>
<!--
  - Infomaniak kDrive - Desktop
  - Copyright (C) 2023-2025 Infomaniak Network SA
  -
  - This program is free software: you can redistribute it and/or modify
  - it under the terms of the GNU General Public License as published by
  - the Free Software Foundation, either version 3 of the License, or
  - (at your option) any later version.
  -
  - This program is distributed in the hope that it will be useful,
  - but WITHOUT ANY WARRANTY; without even the implied warranty of
  - MERCHANTABILITY or FITNESS FOR A PARTICULAR PURPOSE.  See the
  - GNU General Public License for more details.
  -
  - You should have received a copy of the GNU General Public License
  - along with this program.  If not, see <http://www.gnu.org/licenses/>.
  -->

<svg width="16px" height="16px" viewBox="0 0 16 16" version="1.1" xmlns="http://www.w3.org/2000/svg" xmlns:xlink="http://www.w3.org/1999/xlink">
    <title>icons/theme/colored/state-information</title>
    <defs>
        <path d="M15,3.10000886 L7.49066667,3.10000886 C7.36451894,3.10000441 7.24918085,3.02522823 7.19266667,2.906809 L6.56133333,1.57680999 C6.39165837,1.22172184 6.04502112,0.998241716 5.66666667,1 L1,1 C0.44771525,1 0,1.47011108 0,2.05000964 L0,13.9500008 C0,14.5298993 0.44771525,15 1,15 L15,15 C15.5522847,15 16,14.5298993 16,13.9500008 L16,4.15000808 C16,3.57010952 15.5522847,3.10000886 15,3.10000886 Z" id="path-1"></path>
    </defs>
    <g id="icons/theme/colored/state-information" stroke="none" stroke-width="1" fill="none" fill-rule="evenodd">
        <mask id="mask-2" fill="white">
            <use xlink:href="#path-1"></use>
        </mask>
        <use id="icon" fill="#0098FF" xlink:href="#path-1"></use>
        <path d="M8.0078125,7.75 C8.35349131,7.75 8.65489366,7.88953812 8.89676104,8.15827965 C9.13419245,8.42209233 9.25390625,8.74664975 9.25390625,9.11979167 L9.25390625,9.11979167 L9.253,11.643 L9.5078125,11.6432292 C9.67235906,11.6432292 9.82174259,11.6980664 9.94856662,11.8018373 L9.94856662,11.8018373 L10.0393392,11.8887484 C10.1791138,12.0440536 10.25,12.2362339 10.25,12.453125 C10.25,12.6622717 10.1784358,12.8499289 10.0393392,13.0044808 C9.89548667,13.1643169 9.7134957,13.25 9.5078125,13.25 L9.5078125,13.25 L7.50390625,13.25 C7.29163864,13.25 7.10523197,13.1651154 6.96066084,13.0044808 C6.82156418,12.8499289 6.75,12.6622717 6.75,12.453125 C6.75,12.2362339 6.82088616,12.0440536 6.96066084,11.8887484 C7.10523197,11.7281138 7.29163864,11.6432292 7.50390625,11.6432292 L7.50390625,11.6432292 L7.757,11.643 L7.757,9.369 L7.50390625,9.36979167 C7.32701658,9.36979167 7.16808589,9.310844 7.03635874,9.19823494 L7.03635874,9.19823494 L6.96066084,9.12427243 C6.82088616,8.96896724 6.75,8.77678697 6.75,8.55989583 C6.75,8.34300469 6.82088616,8.15082443 6.96066084,7.99551923 C7.10523197,7.83488464 7.29163864,7.75 7.50390625,7.75 L7.50390625,7.75 Z M8.3,4.75 C8.63776179,4.75 8.9355261,4.87572271 9.1799017,5.1200983 C9.42427729,5.3644739 9.55,5.66223821 9.55,6 C9.55,6.34837234 9.42402719,6.65004407 9.17752917,6.8900553 C8.93318897,7.1279655 8.63634828,7.25 8.3,7.25 C7.95302152,7.25 7.65230037,7.12772876 7.4122858,6.8877142 C7.17227124,6.64769963 7.05,6.34697848 7.05,6 C7.05,5.66365172 7.1720345,5.36681103 7.4099447,5.12247083 C7.64995593,4.87597281 7.95162766,4.75 8.3,4.75 Z" id="Combined-Shape" fill="#FFFFFF" fill-rule="nonzero" mask="url(#mask-2)"></path>
    </g>
</svg>