<svg width="24" height="24" fill="none" xmlns="http://www.w3.org/2000/svg"><path d="M5 24c-1.379 0-2.5-1.122-2.5-2.5V2c0-1.103.897-2 2-2H20c.276 0 .5.224.5.5s-.224.5-.5.5H4.5c-.551 0-1 .449-1 1 0 .551.449 1 1 1h16c.552 0 1 .449 1 1v19c0 .552-.448 1-1 1H5Zm-1.5-2.5c0 .827.673 1.5 1.5 1.5h15.5V4h-16c-.357 0-.699-.093-1-.267V21.5Z" fill="#000"/><path d="M7.5 20c-.276 0-.5-.224-.5-.5 0-3.033 2.467-5.5 5.5-5.5s5.5 2.467 5.5 5.5c0 .276-.224.5-.5.5h-10Zm9.472-1c-.25-2.263-2.166-4-4.472-4-2.307 0-4.223 1.737-4.473 4h8.945ZM12.5 13.5C10.57 13.5 9 11.93 9 10s1.57-3.5 3.5-3.5S16 8.07 16 10s-1.57 3.5-3.5 3.5Zm0-6C11.121 7.5 10 8.621 10 10s1.121 2.5 2.5 2.5c1.378 0 2.5-1.121 2.5-2.5s-1.122-2.5-2.5-2.5Z" fill="#000"/></svg>