<?xml version="1.0" encoding="UTF-8"?>
<!--
  - Infomaniak kDrive - Desktop
  - Copyright (C) 2023-2024 Infomaniak Network SA
  -
  - This program is free software: you can redistribute it and/or modify
  - it under the terms of the GNU General Public License as published by
  - the Free Software Foundation, either version 3 of the License, or
  - (at your option) any later version.
  -
  - This program is distributed in the hope that it will be useful,
  - but WITHOUT ANY WARRANTY; without even the implied warranty of
  - MERCHANTABILITY or FITNESS FOR A PARTICULAR PURPOSE.  See the
  - GNU General Public License for more details.
  -
  - You should have received a copy of the GNU General Public License
  - along with this program.  If not, see <http://www.gnu.org/licenses/>.
  -->

<svg width="12px" height="12px" viewBox="0 0 12 12" version="1.1" xmlns="http://www.w3.org/2000/svg" xmlns:xlink="http://www.w3.org/1999/xlink">
    <title>icons/mac/white/close-hover</title>
    <g id="icons/mac/white/close-hover" stroke="none" stroke-width="1" fill="none" fill-rule="evenodd">
        <circle id="Close" stroke="#E24640" stroke-width="0.5" fill="#FF6157" cx="6" cy="6" r="5.75"></circle>
        <path d="M3.10924106,8.34441004 C2.96598377,8.48771124 2.96120843,8.74087038 3.10924106,8.88894445 C3.26204611,9.03701852 3.51034819,9.03701852 3.65838083,8.88894445 L5.99820992,6.5436364 L8.34281141,8.88894445 C8.48606186,9.03701852 8.73914613,9.03701852 8.88717877,8.88894445 C9.03521141,8.73609361 9.03521141,8.48771124 8.88717877,8.34441004 L6.54257728,5.9991059 L8.88717877,3.65857559 C9.03521141,3.51050838 9.03998382,3.25734826 8.88717877,3.10927126 C8.73437373,2.96597787 8.48606186,2.96597787 8.34281141,3.10927126 L5.99820992,5.45457539 L3.65838083,3.10927126 C3.51034819,2.96597787 3.25726392,2.96119425 3.10924106,3.10927126 C2.96598377,3.26212209 2.96598377,3.51050838 3.10924106,3.65857559 L5.45384256,5.9991059 L3.10924106,8.34441004 Z" id="Path" fill="#4D0000" fill-rule="nonzero"></path>
    </g>
</svg>