<svg width="16" height="16" viewBox="0 0 16 16" fill="none" xmlns="http://www.w3.org/2000/svg">
<path fill-rule="evenodd" clip-rule="evenodd" d="M3.78044 0.0257293C3.15195 0.125797 2.65385 0.602475 2.52515 1.22708C2.50226 1.3382 2.49818 1.51271 2.4982 2.38197C2.49822 3.57686 2.51331 3.80331 2.6269 4.31095C2.90496 5.55369 3.62207 6.67888 4.63596 7.46334C4.81193 7.59948 5.18074 7.8407 5.33967 7.92358C5.41133 7.96094 5.46994 7.99533 5.46994 8C5.46994 8.00467 5.41133 8.03907 5.33967 8.07643C5.18032 8.15953 4.81184 8.4006 4.63462 8.53769C3.62185 9.32112 2.90494 10.4464 2.6269 11.6891C2.51331 12.1967 2.49822 12.4231 2.4982 13.618C2.49818 14.4873 2.50226 14.6618 2.52515 14.7729C2.65745 15.415 3.17224 15.8923 3.82837 15.9813C4.01387 16.0064 11.9879 16.0064 12.1734 15.9813C12.4472 15.9441 12.708 15.8359 12.9238 15.6699C13.2002 15.4572 13.4057 15.1218 13.4779 14.7656C13.5025 14.6441 13.505 14.4959 13.4993 13.5006C13.4924 12.2844 13.4889 12.2287 13.3908 11.763C13.1229 10.4911 12.3983 9.33515 11.3707 8.54042C11.1902 8.40087 10.8226 8.16016 10.6621 8.07643C10.5904 8.03907 10.5318 8.00467 10.5318 8C10.5318 7.99533 10.5904 7.96094 10.6621 7.92358C10.8226 7.83985 11.1902 7.59914 11.3707 7.45959C12.3983 6.66486 13.1229 5.50892 13.3908 4.23698C13.4889 3.77126 13.4924 3.71562 13.4993 2.49937C13.505 1.50415 13.5025 1.35588 13.4779 1.23437C13.3487 0.597227 12.8494 0.122791 12.2043 0.0243027C11.9873 -0.00883232 3.989 -0.00749062 3.78044 0.0257293ZM3.8496 1.10497C3.74332 1.14646 3.64911 1.23821 3.59892 1.34911L3.55966 1.43584L3.56085 2.42938C3.56212 3.5063 3.57042 3.63834 3.66331 4.05981C3.7122 4.2816 3.84417 4.6916 3.92161 4.86228L3.97363 4.97692H8.00087H12.0281L12.0801 4.86228C12.1576 4.6916 12.2895 4.2816 12.3384 4.05981C12.4313 3.63834 12.4396 3.5063 12.4409 2.42938L12.4421 1.43584L12.403 1.35093C12.3494 1.23437 12.2574 1.14505 12.1492 1.10456C12.0597 1.07107 12.0137 1.07071 7.99598 1.07149C4.02798 1.07226 3.93134 1.07304 3.8496 1.10497ZM4.7043 6.0776C4.7293 6.1243 5.05326 6.43118 5.2158 6.5621C5.69202 6.94573 6.31705 7.25826 6.90288 7.4057L7.10877 7.45751L7.33827 7.42793C7.65654 7.3869 8.34526 7.38691 8.66362 7.42794L8.89329 7.45756L9.08957 7.40799C9.68435 7.25777 10.309 6.94629 10.7859 6.5621C10.9485 6.43118 11.2724 6.1243 11.2974 6.0776C11.3133 6.04803 11.1915 6.04689 8.00087 6.04689C4.81021 6.04689 4.68847 6.04803 4.7043 6.0776ZM6.89768 8.59489C6.49368 8.69842 5.9903 8.91362 5.64864 9.12885C5.12892 9.45626 4.62181 9.95021 4.29522 10.4472C3.92491 11.0106 3.68231 11.6665 3.59223 12.3478C3.57009 12.5154 3.56248 12.7602 3.55609 13.5112L3.54799 14.4623L3.73394 14.182C4.65347 12.7963 5.82736 11.8751 7.06677 11.5666C7.42108 11.4784 7.60191 11.4573 8.00087 11.4573C8.39983 11.4573 8.58065 11.4784 8.93497 11.5666C10.1737 11.8749 11.3488 12.797 12.2678 14.182L12.4537 14.4623L12.4456 13.5112C12.4393 12.7602 12.4317 12.5154 12.4095 12.3478C12.3011 11.5281 11.9819 10.77 11.4768 10.133C11.3134 9.92688 10.9846 9.59563 10.7862 9.43712C10.3021 9.05046 9.68345 8.74144 9.09886 8.59431L8.89297 8.54249L8.66347 8.57216C8.35117 8.61255 7.64075 8.61245 7.33574 8.57201C7.21745 8.55632 7.11427 8.54382 7.10646 8.54424C7.09865 8.54468 7.00469 8.56746 6.89768 8.59489ZM7.60175 12.5449C6.80792 12.6668 6.03536 13.1182 5.32762 13.874C5.08667 14.1312 4.86648 14.4067 4.67422 14.6915L4.51943 14.9208L6.26015 14.9252C7.21755 14.9275 8.78408 14.9275 9.74135 14.9252L11.4818 14.9208L11.3421 14.7138C10.5993 13.614 9.65251 12.8551 8.72012 12.6124C8.36027 12.5187 7.93864 12.4933 7.60175 12.5449Z" fill="#5C89F7"/>
</svg>
