<svg width="16" height="16" viewBox="0 0 16 16" fill="none" xmlns="http://www.w3.org/2000/svg">
<path fill-rule="evenodd" clip-rule="evenodd" d="M8.29637 0.530311C8.24954 0.548805 8.18152 0.592802 8.14521 0.628088C7.97425 0.794156 7.92407 0.995153 8.00088 1.20624C8.03537 1.30106 8.15106 1.41925 11.1156 4.38832L14.1944 7.47192L7.28499 7.47626L0.375566 7.4806L0.303802 7.51898C0.140402 7.60638 0.0449602 7.73089 0.0104718 7.90168C-0.0365609 8.13451 0.0772218 8.35885 0.303802 8.48004L0.375566 8.51842L7.28499 8.52276L14.1944 8.5271L11.1156 11.6107C8.15106 14.5798 8.03537 14.698 8.00088 14.7928C7.92409 15.0038 7.97425 15.2049 8.14516 15.3709C8.24144 15.4644 8.3678 15.507 8.52598 15.4991C8.60228 15.4953 8.68076 15.48 8.72145 15.4611C8.7691 15.4389 9.85603 14.3626 12.3542 11.8639C16.3011 7.9162 15.9945 8.2417 15.9945 7.99951C15.9945 7.75732 16.3011 8.08283 12.3542 4.13512C9.86181 1.64221 8.76899 0.560051 8.72145 0.537865C8.6205 0.490721 8.40619 0.48691 8.29637 0.530311Z" fill="black"/>
</svg>
