<svg width="16" height="16" viewBox="0 0 16 16" fill="none" xmlns="http://www.w3.org/2000/svg">
<path fill-rule="evenodd" clip-rule="evenodd" d="M0 7.99998C0 3.58172 3.58172 0 7.99998 0C10.0915 0 11.9959 0.803074 13.4208 2.11658V1.02732C13.4208 0.751174 13.6447 0.527317 13.9208 0.527317C14.197 0.527317 14.4208 0.751174 14.4208 1.02732V3.37724C14.4208 3.65338 14.197 3.87724 13.9208 3.87724H11.5709C11.2948 3.87724 11.0709 3.65338 11.0709 3.37724C11.0709 3.10109 11.2948 2.87724 11.5709 2.87724H12.7705C11.52 1.71205 9.84331 1 7.99998 1C4.134 1 1 4.134 1 7.99998C1 8.81286 1.13834 9.59232 1.39235 10.3168C1.48371 10.5774 1.34652 10.8627 1.08593 10.9541C0.825343 11.0454 0.540029 10.9083 0.448665 10.6477C0.157891 9.81831 0 8.92707 0 7.99998ZM14.8683 4.94119C15.1275 4.84586 15.4149 4.97868 15.5102 5.23784C15.8271 6.09938 16 7.03006 16 7.99998C16 12.4182 12.4182 16 7.99998 16C5.90843 16 4.00408 15.1969 2.57908 13.8833V14.9726C2.57908 15.2488 2.35523 15.4726 2.07908 15.4726C1.80294 15.4726 1.57908 15.2488 1.57908 14.9726V12.6227C1.57908 12.3466 1.80294 12.1227 2.07908 12.1227H4.42901C4.70515 12.1227 4.92901 12.3466 4.92901 12.6227C4.92901 12.8988 4.70515 13.1227 4.42901 13.1227H3.22943C4.47999 14.2879 6.15663 15 7.99998 15C11.866 15 15 11.866 15 7.99998C15 7.14964 14.8485 6.33574 14.5717 5.58306C14.4764 5.3239 14.6092 5.03652 14.8683 4.94119ZM8 6.1C7.97633 6.1 7.95535 6.11515 7.94788 6.13754L7.94787 6.13759L7.22704 8.30003H8.77296L8.05214 6.13759L8.05212 6.13754C8.04466 6.11515 8.02368 6.1 8 6.1ZM9.94501 8.65391C9.94254 8.64579 9.93985 8.63775 9.93698 8.62981L9.00083 5.8214C8.85726 5.39056 8.45409 5.1 8 5.1C7.54593 5.1 7.14277 5.39054 6.99919 5.82136C6.99918 5.82137 6.99918 5.82139 6.99917 5.8214L6.06254 8.63126C6.06003 8.63825 6.05768 8.64531 6.05548 8.65243L5.52566 10.2419C5.43833 10.5038 5.57991 10.787 5.84188 10.8743C6.10385 10.9617 6.38702 10.8201 6.47434 10.5581L6.8937 9.30003H9.1063L9.52566 10.5581C9.61298 10.8201 9.89614 10.9617 10.1581 10.8743C10.4201 10.787 10.5617 10.5038 10.4743 10.2419L9.94501 8.65391Z" fill="#333333"/>
</svg>
