<svg width="12" height="12" viewBox="0 0 12 12" fill="none" xmlns="http://www.w3.org/2000/svg">
<path fill-rule="evenodd" clip-rule="evenodd" d="M6.22228 0.397733C6.18716 0.411604 6.13614 0.444601 6.10891 0.471066C5.98069 0.595617 5.94305 0.746365 6.00066 0.904679C6.02653 0.975791 6.11329 1.06444 8.33667 3.29124L10.6458 5.60394L5.46374 5.6072L0.281675 5.61045L0.227851 5.63924C0.105302 5.70479 0.0337202 5.79816 0.00785387 5.92626C-0.0274207 6.10088 0.0579164 6.26914 0.227851 6.36003L0.281675 6.38882L5.46374 6.39207L10.6458 6.39532L8.33667 8.70803C6.11329 10.9348 6.02653 11.0235 6.00066 11.0946C5.94307 11.2529 5.98069 11.4036 6.10887 11.5282C6.18108 11.5983 6.27585 11.6302 6.39448 11.6243C6.45171 11.6215 6.51057 11.61 6.54109 11.5958C6.57682 11.5792 7.39202 10.7719 9.26565 8.89792C12.2258 5.93715 11.9958 6.18127 11.9958 5.99963C11.9958 5.81799 12.2258 6.06212 9.26565 3.10134C7.39636 1.23166 6.57675 0.420038 6.54109 0.403399C6.46538 0.368041 6.30465 0.365182 6.22228 0.397733Z" fill="#666666"/>
</svg>
