<svg width="90" height="20" viewBox="0 0 90 20" fill="none" xmlns="http://www.w3.org/2000/svg">
<path d="M12.9683 1.01238C12.5898 0.384125 11.9098 0 11.1764 0C10.4429 0 9.76296 0.384125 9.38441 1.01238L6.43665 6.0612C11.019 8.34898 14.0453 12.8944 14.3884 18.0046H12.3187C11.9762 13.6244 9.34156 9.75253 5.39283 7.82628L2.66459 12.5436C4.88164 13.5379 6.43993 15.5926 6.79952 17.9956H2.04636C1.93185 17.9875 1.82912 17.9222 1.77314 17.822C1.71716 17.7218 1.71545 17.6001 1.76861 17.4983L3.0857 15.2584C2.63947 14.8861 2.12949 14.5977 1.58046 14.4072L0.27681 16.6472C0.00267143 17.1174 -0.0715564 17.6779 0.0707303 18.2032C0.213017 18.7286 0.559945 19.175 1.03391 19.4426C1.34307 19.6168 1.69152 19.7093 2.04636 19.7114H8.55563C8.80152 16.6772 7.442 13.7356 4.97173 11.9567L6.00658 10.1648C9.12514 12.3067 10.8798 15.937 10.6209 19.7114H16.1356C16.3969 13.9924 13.5967 8.56603 8.7841 5.46538L10.8762 1.88148C10.9732 1.7189 11.1832 1.66492 11.3466 1.76052C11.584 1.89044 20.4363 17.3371 20.602 17.5163C20.6615 17.6228 20.6593 17.7531 20.5964 17.8576C20.5335 17.9622 20.4194 18.0251 20.2974 18.0225H18.165C18.1919 18.5929 18.1919 19.1619 18.165 19.7294H20.3064C20.8556 19.7329 21.3834 19.5166 21.7722 19.1287C22.161 18.7407 22.3785 18.2133 22.3761 17.6641C22.3763 17.3049 22.2804 16.9523 22.0983 16.6427L12.9683 1.01238ZM55.6705 12.669L49.0582 4.13038H47.4096V15.5765H49.0806V6.80486L55.8811 15.5765H57.3415V4.13038H55.6705V12.669ZM39.0188 10.5456H44.9457V9.05825H39.0143V5.61322H45.7028V4.1259H37.312V15.5765H45.7879V14.0892H39.0143L39.0188 10.5456ZM32.0481 9.09408C29.741 8.53858 29.0959 8.09955 29.0959 7.03334C29.0959 6.07464 29.9426 5.42506 31.2059 5.42506C32.3564 5.45876 33.4661 5.85899 34.3732 6.56743L35.2692 5.29962C34.1208 4.39939 32.6961 3.9245 31.2373 3.95566C28.9704 3.95566 27.3891 5.29962 27.3891 7.21253C27.3891 9.27328 28.733 9.98558 31.179 10.5814C33.3563 11.0832 34.0238 11.5491 34.0238 12.5929C34.0238 13.6367 33.1278 14.2818 31.7435 14.2818C30.3653 14.2755 29.0393 13.7546 28.0252 12.8213L27.0172 14.0264C28.3161 15.1425 29.9728 15.7546 31.6853 15.7512C34.1402 15.7512 35.7172 14.4296 35.7172 12.3868C35.7037 10.6576 34.6823 9.73023 32.0481 9.09408ZM87.6479 4.13038L84.2029 9.50623L80.7803 4.13038H78.7822L83.3025 11.0518V15.581H85.0227V10.998L89.5743 4.13038H87.6479ZM58.6945 5.68042H62.4441V15.581H64.1644V5.68042H67.9141V4.13038H58.6989L58.6945 5.68042ZM75.8703 11.11C77.5996 10.6307 78.5583 9.42112 78.5583 7.69188C78.5583 5.49226 76.95 4.10798 74.3561 4.10798H69.267V15.572H70.9693V11.4595H73.8589L76.7618 15.581H78.7509L75.615 11.1817L75.8703 11.11ZM70.9649 9.99006V5.64458H74.1769C75.8524 5.64458 76.8111 6.43751 76.8111 7.81284C76.8111 9.18816 75.7852 9.99006 74.1948 9.99006H70.9649Z" fill="black"/>
</svg>
