<svg width="16" height="16" viewBox="0 0 16 16" fill="none" xmlns="http://www.w3.org/2000/svg">
<path d="M14.333 7.5C14.775 7.5 15.1992 7.67572 15.5117 7.98828C15.8243 8.30084 16 8.72498 16 9.16699C15.9999 9.6088 15.8241 10.0323 15.5117 10.3447C15.1992 10.6573 14.775 10.833 14.333 10.833C13.8911 10.8329 13.4678 10.6572 13.1553 10.3447C13.1352 10.3246 13.1166 10.3032 13.0977 10.2822L11.3018 11.1797C11.3223 11.2845 11.333 11.3917 11.333 11.5C11.333 11.6081 11.3212 11.7148 11.3008 11.8193L13.0977 12.7168C13.1165 12.696 13.1354 12.6752 13.1553 12.6553C13.4678 12.3428 13.8911 12.1671 14.333 12.167C14.775 12.167 15.1992 12.3427 15.5117 12.6553C15.8241 12.9677 15.9999 13.3912 16 13.833C16 14.275 15.8243 14.6992 15.5117 15.0117C15.1992 15.3243 14.775 15.5 14.333 15.5C13.8912 15.4999 13.4677 15.3241 13.1553 15.0117C12.8427 14.6992 12.667 14.275 12.667 13.833C12.667 13.7637 12.6722 13.695 12.6807 13.627L10.8223 12.6982C10.512 12.9975 10.0988 13.1669 9.66699 13.167C9.22506 13.167 8.80081 12.9911 8.48828 12.6787C8.17574 12.3662 8.00001 11.942 8 11.5C8 11.058 8.17575 10.6338 8.48828 10.3213C8.80082 10.0088 9.22505 9.83302 9.66699 9.83301C10.0986 9.83309 10.512 10.0018 10.8223 10.3008L12.6807 9.37207C12.6722 9.30435 12.667 9.23595 12.667 9.16699C12.667 8.72498 12.8427 8.30084 13.1553 7.98828C13.4677 7.67591 13.8912 7.50009 14.333 7.5ZM5.13086 0.5C5.54902 0.5 5.96275 0.642837 6.27734 0.915039C6.59422 1.18926 6.78906 1.57836 6.78906 2.00195V2.50391H14.3936C14.8118 2.50391 15.2254 2.64669 15.54 2.91895C15.9042 3.23409 16 3.65289 16 4.00586V5.78418C15.9998 6.06017 15.776 6.28417 15.5 6.28418C15.224 6.28418 15.0002 6.06017 15 5.78418V4.00586C15 3.82768 14.9556 3.73644 14.8857 3.67578C14.7661 3.57223 14.5895 3.50391 14.3936 3.50391H6.28906C6.01297 3.50386 5.78907 3.28001 5.78906 3.00391V2.00195C5.78906 1.89417 5.74023 1.77341 5.62305 1.67188C5.50339 1.56833 5.3268 1.5 5.13086 1.5H1.6582C1.46226 1.5 1.28567 1.56833 1.16602 1.67188C1.04889 1.77339 1 1.89419 1 2.00195V12.8848C1.00296 13.0143 1.05941 13.1526 1.18066 13.2705C1.29966 13.3862 1.47225 13.4721 1.67285 13.5H6.81738C7.09352 13.5 7.31738 13.7239 7.31738 14C7.31735 14.2761 7.0935 14.5 6.81738 14.5H1.6416C1.62279 14.5 1.60366 14.4992 1.58496 14.4971C1.17133 14.4501 0.778541 14.2743 0.483398 13.9873C0.186538 13.6985 0.00662935 13.3126 0 12.8975V2.00195C0 1.57836 0.194839 1.18926 0.511719 0.915039C0.826327 0.64279 1.24 0.5 1.6582 0.5H5.13086Z" fill="black"/>
</svg>
