<svg width="24" height="24" fill="none" xmlns="http://www.w3.org/2000/svg"><path d="M3.5 24c-.827 0-1.5-.673-1.5-1.5v-21C2 .673 2.673 0 3.5 0h13.293c.401 0 .777.156 1.061.439l3.707 3.707c.283.284.439.661.439 1.061V22.5c0 .827-.673 1.5-1.5 1.5h-17Zm0-23c-.276 0-.5.224-.5.5v21c0 .276.224.5.5.5h17c.276 0 .5-.224.5-.5V5.207a.501.501 0 0 0-.146-.354l-3.707-3.707A.5054.5054 0 0 0 16.793 1H3.5Z" fill="#000"/><path d="M8 18c-1.103 0-2-.897-2-2s.897-2 2-2c.357 0 .699.093 1 .268v-4.014c0-.666.448-1.259 1.088-1.442l5-1.429a1.4942 1.4942 0 0 1 1.14.131c.35.194.604.514.714.899.038.134.058.273.058.413V15c0 1.103-.897 2-2 2s-2-.897-2-2 .897-2 2-2c.357 0 .699.093 1 .268V8.826c0-.047-.007-.094-.019-.139a.5025.5025 0 0 0-.481-.362c-.046 0-.092.006-.137.019l-5 1.429c-.214.062-.363.259-.363.481V16c0 1.103-.897 2-2 2Zm0-3c-.551 0-1 .448-1 1s.449 1 1 1c.551 0 1-.448 1-1s-.449-1-1-1Zm7-1c-.552 0-1 .448-1 1s.448 1 1 1 1-.448 1-1-.448-1-1-1Z" fill="#000"/></svg>