<svg width="14" height="14" viewBox="0 0 14 14" fill="none" xmlns="http://www.w3.org/2000/svg">
<path fill-rule="evenodd" clip-rule="evenodd" d="M6.87075 2.73832C7.52074 2.74082 8.12516 2.8617 8.46967 3.00936L8.47062 3.00976C9.66213 3.52378 10.2505 4.44358 10.5088 5.30667C11.7784 5.05497 12.7771 5.81225 13.1766 6.21481C14.1094 7.12591 14.2303 8.47804 13.6372 9.60186C13.1532 10.519 12.1744 11.1816 11.0043 11.2599L10.9897 11.2609H2.70303L2.68516 11.2594C1.60447 11.1708 0.944605 10.5487 0.569457 9.97641C0.383201 9.69227 0.263066 9.41574 0.189278 9.21089C0.15218 9.10789 0.126233 9.02144 0.109208 8.95909C0.100684 8.92787 0.0943602 8.90256 0.0899677 8.88409L0.086293 8.86813C0.0847665 8.86253 0.0829688 8.85576 0.0809504 8.84788C0.0758254 8.82786 0.0692608 8.80058 0.0620927 8.76675C0.0477787 8.69918 0.0309224 8.60485 0.0183884 8.48955C-0.00656293 8.26002 -0.0151071 7.94077 0.0518435 7.58131C0.18908 6.84447 0.638883 5.97589 1.80329 5.38279L1.81623 5.37619L1.82959 5.37047C2.18155 5.21966 2.78732 5.08877 3.40568 5.16105C3.60576 4.54729 3.95599 3.82089 4.79607 3.25345L4.80419 3.24797L4.81255 3.24285C5.45072 2.85217 6.21776 2.73581 6.87075 2.73832ZM5.27836 3.98528C4.53006 4.49446 4.3062 5.15816 4.13591 5.78262C4.10504 5.8958 4.03008 5.99188 3.9278 6.04935C3.82552 6.10681 3.70446 6.12087 3.59174 6.08836C3.08187 5.94132 2.48347 6.04803 2.18743 6.17067C1.29806 6.62845 1.00499 7.25002 0.913404 7.74177C0.865708 7.99786 0.871543 8.22843 0.889632 8.39484C0.898619 8.47751 0.910448 8.54267 0.91944 8.58511C0.923925 8.60628 0.927668 8.62163 0.929937 8.63049L0.932107 8.6387L0.936758 8.6544L0.940144 8.67079C0.940098 8.67059 0.940131 8.67074 0.940144 8.67079C0.940181 8.67096 0.940286 8.67144 0.940361 8.67178L0.942567 8.68133C0.944855 8.69095 0.948803 8.70688 0.954638 8.72825C0.966333 8.77109 0.985465 8.83524 1.0138 8.91389C1.07087 9.07234 1.16301 9.28331 1.3024 9.49596C1.5764 9.91396 2.01657 10.3195 2.73971 10.3845H10.9598C11.8265 10.3218 12.5248 9.8319 12.8621 9.19281C13.2973 8.36823 13.1858 7.44714 12.5623 6.8398L12.5565 6.83416C12.1856 6.45936 11.3426 5.87546 10.3483 6.26384C10.2259 6.31165 10.0886 6.30202 9.97405 6.2376C9.85954 6.17318 9.77998 6.06078 9.75729 5.93137C9.62049 5.15125 9.19062 4.27508 8.12407 3.81471C7.91631 3.72577 7.43563 3.61687 6.86738 3.61469C6.30526 3.61253 5.72418 3.71543 5.27836 3.98528Z" fill="#424752"/>
</svg>
