<svg width="16" height="17" viewBox="0 0 16 17" fill="none" xmlns="http://www.w3.org/2000/svg">
<path fill-rule="evenodd" clip-rule="evenodd" d="M13.34 1.53022C13.5355 1.33465 13.8526 1.33465 14.0482 1.53022C14.2438 1.72579 14.2438 2.04287 14.0482 2.23844L1.53635 14.7503C1.34079 14.9459 1.02371 14.9459 0.828136 14.7503C0.632567 14.5547 0.632567 14.2377 0.828136 14.0421L13.34 1.53022ZM9.58804 3.2508C9.1699 3.00848 8.48864 2.86102 7.77788 2.86163C7.05452 2.86224 6.22017 3.01564 5.50006 3.45648L5.49051 3.46233L5.48122 3.4686C4.52113 4.1171 4.12086 4.94727 3.89221 5.64871C3.18551 5.56611 2.4932 5.7157 2.09096 5.88805L2.07569 5.89459L2.0609 5.90212C0.730153 6.57996 0.216091 7.57263 0.0592498 8.41472C-0.0172652 8.82554 -0.00750049 9.19039 0.0210153 9.45271C0.0353399 9.58449 0.0546043 9.6923 0.0709631 9.76952C0.0791553 9.80818 0.0866576 9.83936 0.0925142 9.86224L0.0984355 9.8847L0.0990936 9.88764C0.10183 9.89961 0.105657 9.91575 0.11069 9.93567C0.120746 9.97547 0.135662 10.0306 0.156366 10.0978C0.197657 10.2319 0.262623 10.4163 0.359124 10.6249C0.55014 11.0379 0.876347 11.5708 1.41102 11.9856C1.62953 12.1551 1.94412 12.1155 2.11366 11.8969C2.2832 11.6784 2.2435 11.3638 2.02497 11.1943C1.65945 10.9107 1.41887 10.5302 1.26816 10.2044C1.1938 10.0436 1.14416 9.90231 1.11356 9.80297C1.09833 9.75349 1.08798 9.71498 1.08175 9.69034C1.07865 9.67805 1.07658 9.66926 1.07546 9.66436L1.07448 9.65998L1.07058 9.64112L1.06526 9.62318L1.06279 9.61379C1.0602 9.60366 1.05591 9.58612 1.05079 9.56193C1.04052 9.51343 1.02699 9.43895 1.01672 9.34447C0.996046 9.15429 0.989385 8.89078 1.04389 8.59811C1.14857 8.03611 1.4835 7.32575 2.49992 6.80257C2.83825 6.6624 3.52213 6.54045 4.10485 6.7085C4.23367 6.74565 4.37202 6.72958 4.48891 6.66391C4.60581 6.59824 4.69148 6.48843 4.72676 6.35907C4.92138 5.64539 5.17722 4.88686 6.03246 4.30493C6.5507 3.99083 7.18533 3.8637 7.77873 3.8632C8.38835 3.86268 8.87477 3.99505 9.08584 4.11737C9.32514 4.25605 9.63155 4.17449 9.77023 3.93518C9.90891 3.69589 9.82734 3.38949 9.58804 3.2508ZM11.4623 5.97613C13.1705 5.30884 14.5464 6.33646 15.059 6.85302C16.1251 7.89427 16.2632 9.43956 15.5854 10.7239C15.0322 11.772 13.9136 12.5293 12.5763 12.6189L12.5596 12.62H5.6235C5.34692 12.62 5.12271 12.3958 5.12271 12.1192C5.12271 11.8426 5.34691 11.6184 5.6235 11.6184H12.5254C13.516 11.5467 14.3142 10.9868 14.6996 10.2564C15.1969 9.31406 15.0695 8.26138 14.3569 7.56729L14.3503 7.56078C13.9265 7.13244 12.9629 6.46519 11.8267 6.90904C11.569 7.00968 11.2786 6.88242 11.178 6.6248C11.0774 6.36718 11.2046 6.07676 11.4623 5.97613Z" fill="black"/>
</svg>
