<svg width="16" height="16" viewBox="0 0 16 16" fill="none" xmlns="http://www.w3.org/2000/svg">
<path fill-rule="evenodd" clip-rule="evenodd" d="M7.52442 0.0130907C5.4194 0.128521 3.41231 1.10714 2.0021 2.7057C0.390189 4.53289 -0.291806 6.94104 0.1151 9.36875C0.410416 11.1307 1.34211 12.7958 2.7056 13.9987C3.71886 14.8926 4.92923 15.5124 6.2411 15.8092C7.37804 16.0664 8.6511 16.0635 9.79294 15.8009C11.2873 15.4573 12.6312 14.7021 13.7126 13.5985C14.5896 12.7034 15.1661 11.762 15.595 10.5246C16.0482 9.21715 16.1243 7.63408 15.802 6.21456C15.5164 4.95659 14.9022 3.74486 14.0536 2.76519C13.8816 2.56671 13.5012 2.18401 13.2951 2.0022C12.7321 1.5055 12.1393 1.11122 11.4764 0.792362C10.236 0.195832 8.92094 -0.0634834 7.52442 0.0130907ZM7.38844 1.09242C7.25288 1.10507 7.09608 1.12138 7.03999 1.12868L6.938 1.14192L6.8592 1.2609C6.56764 1.70109 6.23787 2.47346 6.01971 3.22708C5.92692 3.54766 5.82466 3.93766 5.82466 3.97103C5.82466 3.98359 6.48107 3.98902 8.00035 3.98902C9.6766 3.98902 10.176 3.98436 10.176 3.9687C10.176 3.91399 9.91564 2.97711 9.86043 2.83318C9.84787 2.80046 9.80205 2.67451 9.7586 2.5533C9.59401 2.09419 9.33628 1.5543 9.14164 1.2609C9.06308 1.14248 9.06226 1.14187 8.96921 1.12985C8.46632 1.06495 7.84115 1.05015 7.38844 1.09242ZM5.42522 1.55861C5.40652 1.56684 5.33385 1.59771 5.26374 1.62722C4.67314 1.87574 4.02713 2.27562 3.51912 2.70709C3.30319 2.89049 2.9069 3.28666 2.72139 3.50458C2.55002 3.7059 2.35735 3.9555 2.35724 3.97639C2.35718 3.98346 2.89038 3.98728 3.5421 3.98488L4.72704 3.98052L4.74171 3.91253C4.90623 3.14989 5.20224 2.20527 5.44877 1.6561C5.50029 1.54133 5.49686 1.5271 5.42522 1.55861ZM10.5442 1.6391C10.8042 2.22608 11.0919 3.14124 11.2589 3.91253L11.2737 3.98052L12.4586 3.98488C13.1103 3.98728 13.6435 3.98346 13.6435 3.97639C13.6433 3.95553 13.4504 3.70602 13.2786 3.50458C12.8669 3.02185 12.3369 2.55275 11.8123 2.20661C11.5226 2.01556 11.0761 1.77158 10.7965 1.65166C10.6677 1.59643 10.5265 1.54136 10.5137 1.54136C10.5066 1.54136 10.5203 1.58535 10.5442 1.6391ZM1.66674 5.17356C1.5107 5.51596 1.35798 5.96318 1.26154 6.36018C1.17828 6.70282 1.14209 6.92076 1.09005 7.39287L1.08114 7.47369L2.70076 7.46936L4.32037 7.46502L4.33207 7.16757C4.34606 6.81169 4.37228 6.42154 4.40635 6.06272C4.43288 5.78325 4.51137 5.14534 4.52715 5.08111L4.53653 5.04287H3.13142H1.7263L1.66674 5.17356ZM5.61513 5.05556C5.60437 5.07361 5.55928 5.37682 5.51972 5.69727C5.45977 6.18278 5.40647 6.86103 5.39615 7.26955L5.39122 7.46502H8.00035H10.6095L10.6045 7.27805C10.5891 6.69459 10.497 5.70157 10.4098 5.17885L10.3885 5.05136L8.00564 5.04706C6.69506 5.04468 5.61933 5.04851 5.61513 5.05556ZM11.4736 5.08111C11.4893 5.14512 11.5678 5.7827 11.5944 6.06272C11.6268 6.4034 11.6542 6.81351 11.6688 7.17606L11.6803 7.46502L13.2999 7.46936L14.9196 7.47369L14.9107 7.39287C14.8586 6.92076 14.8224 6.70282 14.7392 6.36018C14.6427 5.96318 14.49 5.51596 14.334 5.17356L14.2744 5.04287H12.8693H11.4642L11.4736 5.08111ZM1.09006 8.60811C1.14206 9.07995 1.1783 9.29809 1.26154 9.64071C1.35798 10.0377 1.5107 10.4849 1.66674 10.8273L1.7263 10.958H3.12107C4.29741 10.958 4.51584 10.9543 4.51584 10.9345C4.51584 10.9216 4.50062 10.7969 4.48202 10.6575C4.40754 10.0992 4.35359 9.46205 4.33695 8.94381C4.33152 8.77554 4.32333 8.61301 4.31872 8.58261L4.31033 8.52737H2.69574H1.08116L1.09006 8.60811ZM5.391 8.72709C5.43468 9.62985 5.51493 10.4787 5.59747 10.9113L5.60639 10.958H7.99996H10.3935L10.4131 10.8456C10.4954 10.3727 10.5678 9.59329 10.6097 8.72709L10.6194 8.52737H8.00035H5.38133L5.391 8.72709ZM11.6817 8.56562C11.6775 8.58664 11.6694 8.75225 11.6639 8.93363C11.6481 9.44679 11.5933 10.0982 11.5189 10.656C11.5002 10.7962 11.4849 10.9216 11.4849 10.9345C11.4849 10.9543 11.7033 10.958 12.8796 10.958H14.2744L14.334 10.8273C14.49 10.4849 14.6427 10.0377 14.7392 9.64071C14.8224 9.29809 14.8586 9.07995 14.9106 8.60811L14.9195 8.52737H13.3045H11.6895L11.6817 8.56562ZM2.35724 12.0246C2.35727 12.0316 2.40352 12.0986 2.45999 12.1734C2.92069 12.7835 3.54805 13.3718 4.18844 13.7943C4.47806 13.9853 4.92464 14.2293 5.20425 14.3492C5.34696 14.4104 5.47378 14.4591 5.47844 14.4545C5.48109 14.4518 5.43847 14.3423 5.38373 14.2112C5.14875 13.6484 4.91301 12.8884 4.75294 12.1776L4.71562 12.0119H3.53639C2.88782 12.0119 2.35718 12.0176 2.35724 12.0246ZM5.83025 12.0841C5.86467 12.3275 6.13453 13.2095 6.31259 13.6606C6.47453 14.071 6.72473 14.5755 6.89253 14.8301C6.92201 14.8749 7.55862 14.9353 8.00035 14.9353C8.44209 14.9353 9.0787 14.8749 9.10817 14.8301C9.11619 14.8179 9.17664 14.7145 9.24247 14.6002C9.56966 14.0324 9.85545 13.2975 10.0837 12.4372C10.1345 12.2457 10.176 12.0717 10.176 12.0505V12.0119H7.99804H5.82004L5.83025 12.0841ZM11.2478 12.1776C11.0863 12.8945 10.8371 13.6932 10.6013 14.2496C10.5548 14.3593 10.5191 14.4513 10.522 14.4542C10.5248 14.457 10.5724 14.4411 10.6278 14.4189C11.0097 14.2654 11.4504 14.033 11.8123 13.7943C12.3369 13.4481 12.8669 12.979 13.2786 12.4963C13.45 12.2953 13.6433 12.0454 13.6435 12.0246C13.6435 12.0176 13.1129 12.0119 12.4643 12.0119H11.2851L11.2478 12.1776Z" fill="#333333"/>
</svg>
