<svg width="16" height="16" viewBox="0 0 16 16" fill="none" xmlns="http://www.w3.org/2000/svg">
<path fill-rule="evenodd" clip-rule="evenodd" d="M11.603 2.79138H4.39782C4.10145 2.79138 3.8292 2.89982 3.59989 3.07452L3.59122 3.07759L3.59338 3.07951C3.36639 3.2543 3.18182 3.49309 3.0383 3.7625L0.514995 8.50022C0.487344 8.55214 0.469774 8.60674 0.461599 8.66177C0.268067 8.98745 0.166748 9.3685 0.166748 9.75452V11.2316C0.166748 11.7341 0.338479 12.2283 0.661847 12.6028C0.987197 12.9796 1.44558 13.2087 1.94211 13.2087H14.058C14.5545 13.2087 15.0129 12.9796 15.3383 12.6028C15.6616 12.2283 15.8334 11.7341 15.8334 11.2316V9.75452C15.8334 9.36917 15.7324 8.98877 15.5396 8.66346C15.5315 8.60785 15.5139 8.55267 15.4859 8.50022L12.9625 3.76246C12.8189 3.49273 12.634 3.25373 12.4067 3.07888C12.1762 2.90162 11.9018 2.79137 11.603 2.79138ZM13.9679 7.77747L12.08 4.23262C11.9857 4.05568 11.8853 3.9394 11.7971 3.87159C11.712 3.80619 11.647 3.79138 11.603 3.79138H4.39851V3.79374L4.39586 3.79139C4.3519 3.79183 4.28756 3.80717 4.2038 3.87159C4.11562 3.9394 4.01517 4.05566 3.92092 4.23258L2.03292 7.77747H13.9679ZM1.94211 8.77747C1.76214 8.77747 1.57174 8.85966 1.41874 9.03686C1.26375 9.21636 1.16675 9.47361 1.16675 9.75452V11.2316C1.16675 11.5125 1.26375 11.7697 1.41874 11.9492C1.57174 12.1265 1.76214 12.2087 1.94211 12.2087H14.058C14.238 12.2087 14.4284 12.1265 14.5814 11.9492C14.7364 11.7697 14.8334 11.5125 14.8334 11.2316V9.75452C14.8334 9.47361 14.7364 9.21636 14.5814 9.03686C14.4284 8.85966 14.238 8.77747 14.058 8.77747H1.94211ZM10.2588 10.5016C10.2588 10.2255 10.4827 10.0016 10.7588 10.0016H12.7588C13.035 10.0016 13.2588 10.2255 13.2588 10.5016C13.2588 10.7778 13.035 11.0016 12.7588 11.0016H10.7588C10.4827 11.0016 10.2588 10.7778 10.2588 10.5016ZM3.37685 9.83362C3.24654 9.83362 3.11916 9.87223 3.01077 9.94457C2.90239 10.0169 2.81787 10.1197 2.76788 10.2401C2.7179 10.3604 2.70469 10.4929 2.72992 10.6207C2.75515 10.7486 2.81769 10.8661 2.90965 10.9584C3.00161 11.0507 3.11886 11.1137 3.2466 11.1395C3.37434 11.1652 3.50684 11.1525 3.62738 11.103C3.74792 11.0535 3.85109 10.9694 3.92386 10.8613C3.99664 10.7532 4.03576 10.626 4.03628 10.4957V10.4937C4.03628 10.3188 3.9668 10.1511 3.84314 10.0274C3.73196 9.91622 3.58518 9.84884 3.4296 9.83636C3.41227 9.83455 3.39467 9.83362 3.37685 9.83362ZM5.24271 9.94457C5.35109 9.87223 5.47848 9.83362 5.60879 9.83362C5.6266 9.83362 5.6442 9.83455 5.66153 9.83636C5.81712 9.84884 5.9639 9.91622 6.07507 10.0274C6.19874 10.1511 6.26821 10.3188 6.26821 10.4937V10.4957C6.26769 10.626 6.22857 10.7532 6.15579 10.8613C6.08302 10.9694 5.97985 11.0535 5.85931 11.103C5.73877 11.1525 5.60627 11.1652 5.47853 11.1395C5.35079 11.1137 5.23354 11.0507 5.14158 10.9584C5.04963 10.8661 4.98708 10.7486 4.96185 10.6207C4.93662 10.4929 4.94983 10.3604 4.99982 10.2401C5.04981 10.1197 5.13433 10.0169 5.24271 9.94457Z" fill="black" fill-opacity="0.89"/>
</svg>
