<svg width="16" height="16" viewBox="0 0 16 16" fill="none" xmlns="http://www.w3.org/2000/svg">
<path fill-rule="evenodd" clip-rule="evenodd" d="M13.9042 7.18491L2.05513 7.23992C1.8155 7.24005 1.57839 7.28889 1.35821 7.38347C1.3128 7.40314 1.26013 7.39521 1.22253 7.36302C1.18493 7.33084 1.16896 7.28003 1.18138 7.23212L2.99538 3.85611C3.36971 3.07003 3.86382 2.79307 4.50766 2.79304L11.483 2.7893C12.0686 2.77747 12.6542 3.08215 13.0461 3.92748L14.778 7.17711C14.7904 7.22502 14.7744 7.27583 14.7368 7.30801C14.6992 7.3402 14.6466 7.34813 14.6012 7.32846C14.381 7.23388 14.1439 7.18505 13.9042 7.18491ZM0.166641 10.6558C0.166641 9.95272 0.166641 9.60118 0.263509 9.31797C0.443665 8.79125 0.857386 8.37752 1.38411 8.19736C1.66732 8.1005 2.01886 8.1005 2.72194 8.1005H13.2781C13.9811 8.1005 14.3327 8.1005 14.6159 8.19736C15.1426 8.37752 15.5563 8.79125 15.7365 9.31797C15.8334 9.60118 15.8334 9.95272 15.8334 10.6558C15.8334 11.3589 15.8334 11.7104 15.7365 11.9936C15.5563 12.5203 15.1426 12.934 14.6159 13.1142C14.3327 13.211 13.9811 13.211 13.2781 13.211H2.72194C2.01886 13.211 1.66732 13.211 1.38411 13.1142C0.857386 12.934 0.443665 12.5203 0.263509 11.9936C0.166641 11.7104 0.166641 11.3589 0.166641 10.6558ZM10.2707 10.5053C10.2707 10.2291 10.4946 10.0053 10.7707 10.0053H12.7707C13.0469 10.0053 13.2707 10.2291 13.2707 10.5053C13.2707 10.7814 13.0469 11.0053 12.7707 11.0053H10.7707C10.4946 11.0053 10.2707 10.7814 10.2707 10.5053ZM3.38865 9.83707C3.25834 9.83707 3.13095 9.87568 3.02257 9.94802C2.91419 10.0204 2.82967 10.1232 2.77968 10.2435C2.72969 10.3639 2.71648 10.4963 2.74171 10.6242C2.76694 10.752 2.82948 10.8695 2.92144 10.9618C3.0134 11.0542 3.13065 11.1172 3.25839 11.1429C3.38613 11.1687 3.51863 11.156 3.63917 11.1065C3.75971 11.057 3.86288 10.9729 3.93566 10.8648C4.00843 10.7567 4.04755 10.6294 4.04807 10.4991V10.4971C4.04807 10.3222 3.9786 10.1545 3.85493 10.0309C3.74376 9.91967 3.59698 9.85229 3.44139 9.83982C3.42406 9.838 3.40646 9.83707 3.38865 9.83707ZM5.2545 9.94802C5.36289 9.87568 5.49027 9.83707 5.62058 9.83707C5.6384 9.83707 5.65599 9.838 5.67333 9.83982C5.82891 9.85229 5.97569 9.91967 6.08687 10.0309C6.21053 10.1545 6.28001 10.3222 6.28001 10.4971V10.4991C6.27949 10.6294 6.24036 10.7567 6.16759 10.8648C6.09482 10.9729 5.99165 11.057 5.87111 11.1065C5.75057 11.156 5.61806 11.1687 5.49033 11.1429C5.36259 11.1172 5.24534 11.0542 5.15338 10.9618C5.06142 10.8695 4.99888 10.752 4.97365 10.6242C4.94842 10.4963 4.96163 10.3639 5.01161 10.2435C5.0616 10.1232 5.14612 10.0204 5.2545 9.94802Z" fill="#5C89F7"/>
</svg>
