<svg xmlns="http://www.w3.org/2000/svg" width="16" height="16" fill="none"><path fill="#000" fill-rule="evenodd" d="m7.78.5-.12.03a1.5 1.5 0 0 0-.5.23c-.1.06-.91.88-3.57 3.61C1.64 6.37.12 7.95.09 8a.54.54 0 0 0 .35.83c.11.02.26 0 .36-.06L4.3 5.2C7 2.42 7.75 1.66 7.81 1.63a.5.5 0 0 1 .37 0c.06.03.82.8 3.52 3.57 2.41 2.48 3.47 3.55 3.52 3.58.38.2.82-.11.78-.54-.02-.2.17 0-3.59-3.86C9.2 1.08 8.91.8 8.78.72c-.15-.1-.36-.18-.53-.2-.1-.02-.4-.03-.47-.01ZM2.3 8.84a.52.52 0 0 0-.3.41c-.03.19-.02 5.8.01 5.88.05.14.21.3.35.35.06.02.52.02 2.17.02h2.1l.08-.03a.67.67 0 0 0 .29-.3l.04-.09V12.9l.01-2.18.04-.07a.5.5 0 0 1 .23-.22c.07-.03.1-.03.68-.03.6 0 .6 0 .69.04.1.04.21.17.25.27.01.05.02.57.03 2.23v2.18l.04.07c.1.18.22.28.4.3.09.02.79.02 2.16.02h2.03l.09-.05c.1-.05.24-.2.28-.3.03-.09.04-.17.04-3.02 0-2.83 0-2.93-.04-3.01a.64.64 0 0 0-.24-.29c-.07-.04-.1-.04-.25-.04-.14 0-.18 0-.24.03a.7.7 0 0 0-.25.27l-.04.08v5.23h-2.94v-1.92c0-1.51-.01-1.94-.03-2a1.6 1.6 0 0 0-.43-.74 1.4 1.4 0 0 0-.58-.38c-.23-.07-.33-.08-1.06-.07-.65 0-.7 0-.81.04a1.6 1.6 0 0 0-1.12 1.26l-.01 1.96v1.85H3.04V9.15L3 9.08a.53.53 0 0 0-.7-.25Z" clip-rule="evenodd"/></svg>