<svg width="16" height="17" viewBox="0 0 16 17" fill="none" xmlns="http://www.w3.org/2000/svg">
<path fill-rule="evenodd" clip-rule="evenodd" d="M7.65167 0.00886677C6.38568 0.0566021 5.14889 0.412396 4.01668 1.05457C3.37172 1.42038 2.63247 2.00983 2.1242 2.56362C1.32179 3.43785 0.728602 4.45099 0.374603 5.55191C0.220792 6.03024 0.0956972 6.6163 0.037066 7.13339C-0.0123553 7.56919 -0.0123553 8.43474 0.037066 8.87054C0.143052 9.80512 0.39964 10.6872 0.805708 11.5129C1.00209 11.9122 1.08719 12.0603 1.33518 12.4347C1.92017 13.3176 2.6754 14.0727 3.56344 14.6624C3.93698 14.9105 4.08463 14.9954 4.48653 15.1931C5.68666 15.7834 6.93914 16.0438 8.3384 15.994C9.43583 15.9549 10.5081 15.6838 11.5057 15.1931C11.9076 14.9954 12.0553 14.9105 12.4288 14.6624C13.3176 14.0722 14.0674 13.3225 14.6567 12.4347C14.9048 12.0609 14.9897 11.9132 15.1872 11.5116C15.7776 10.3114 16.038 9.05896 15.9882 7.65969C15.9491 6.56227 15.6779 5.48996 15.1872 4.49236C14.9897 4.0907 14.9048 3.94301 14.6567 3.56927C14.0674 2.68144 13.3176 1.93173 12.4288 1.3415C12.0553 1.09344 11.9076 1.00855 11.5057 0.810867C10.5268 0.329344 9.42497 0.0465945 8.40405 0.014922C8.23454 0.00966445 8.07137 0.00330096 8.04146 0.000799076C8.01154 -0.00172094 7.83614 0.00192313 7.65167 0.00886677ZM7.68793 1.14316C6.74051 1.18619 5.83615 1.41817 4.97755 1.83844C4.26159 2.18886 3.7172 2.5788 3.14508 3.15091C2.33599 3.95998 1.79102 4.86006 1.43709 5.97181C1.2327 6.61385 1.13659 7.26746 1.13726 8.01103C1.13822 9.10136 1.3567 10.0467 1.83279 11.0205C2.01793 11.3992 2.17565 11.6666 2.39308 11.9705C3.42662 13.4149 4.93299 14.3923 6.65454 14.7355C7.51987 14.9081 8.4724 14.9081 9.33773 14.7355C10.8315 14.4377 12.1758 13.6558 13.1846 12.4981C14.7879 10.6582 15.2847 8.07718 14.4826 5.75514C14.0292 4.44265 13.1945 3.30831 12.0662 2.47165C10.8227 1.54949 9.24991 1.07226 7.68793 1.14316ZM7.8644 4.79356C7.74935 4.82244 7.66043 4.87767 7.57386 4.97395C7.42786 5.13634 7.43468 5.0532 7.43354 6.68352L7.43252 8.12983L7.47962 8.2348C7.5219 8.329 7.70358 8.5165 9.25259 10.0645C11.1799 11.9905 11.0561 11.8813 11.3139 11.8813C11.5434 11.8813 11.7187 11.7734 11.8206 11.5695C11.8677 11.4752 11.8759 11.4386 11.8757 11.3213C11.8754 11.0623 11.9736 11.1748 10.1711 9.37075L8.55879 7.75721L8.55395 6.47001L8.54909 5.18281L8.50677 5.10122C8.44747 4.98686 8.33244 4.8743 8.22977 4.83013C8.12727 4.78602 7.96076 4.76936 7.8644 4.79356Z" fill="black"/>
</svg>
