<svg width="14" height="14" viewBox="0 0 14 14" fill="none" xmlns="http://www.w3.org/2000/svg">
<g clip-path="url(#clip0_8539_20541)">
<path d="M10.7801 7.56C10.1401 7.56 9.52011 7.75 8.99011 8.1C8.46011 8.45 8.05011 8.96 7.80011 9.55C7.56011 10.14 7.49011 10.79 7.62011 11.41C7.74011 12.03 8.05011 12.61 8.50011 13.06C8.95011 13.51 9.52011 13.82 10.1501 13.94C10.7701 14.06 11.4201 14 12.0101 13.76C12.6001 13.52 13.1001 13.1 13.4601 12.57C13.8101 12.04 14.0001 11.42 14.0001 10.78C14.0001 9.93 13.6601 9.11 13.0601 8.5C12.4601 7.9 11.6401 7.56 10.7801 7.56ZM12.1301 12.23C12.1301 12.36 12.0801 12.48 11.9901 12.57C11.9001 12.66 11.7801 12.71 11.6501 12.71C11.5201 12.71 11.4001 12.66 11.3101 12.57C11.2201 12.48 11.1701 12.36 11.1701 12.23V9.32C11.1701 9.19 11.2201 9.07 11.3101 8.98C11.4001 8.89 11.5201 8.84 11.6501 8.84C11.7801 8.84 11.9001 8.89 11.9901 8.98C12.0801 9.07 12.1301 9.19 12.1301 9.32V12.23ZM10.4001 9.32V12.23C10.4001 12.36 10.3501 12.48 10.2601 12.57C10.1701 12.66 10.0501 12.71 9.92011 12.71C9.79011 12.71 9.67011 12.66 9.58011 12.57C9.49011 12.48 9.44011 12.36 9.44011 12.23V9.32C9.44011 9.19 9.49011 9.07 9.58011 8.98C9.67011 8.89 9.79011 8.84 9.92011 8.84C10.0501 8.84 10.1701 8.89 10.2601 8.98C10.3501 9.07 10.4001 9.19 10.4001 9.32Z" fill="black"/>
<path d="M6.64012 11.76C6.64012 11.76 6.64012 11.73 6.64012 11.72L2.67012 10.47C2.58012 10.44 2.51012 10.37 2.48012 10.28L0.960116 6.1C0.890116 5.88 1.05012 5.69 1.23012 5.69C1.25012 5.69 1.27012 5.69 1.31012 5.7L8.23012 7.57C8.30012 7.52 8.36012 7.46 8.42012 7.42C8.71012 7.23 9.02012 7.08 9.34012 6.97L2.63012 5.16C2.66012 5.1 2.68012 5.04 2.68012 4.97V2.29C2.68012 2.29 2.70012 2.23 2.73012 2.21C2.75012 2.21 2.76012 2.21 2.77012 2.21C2.77012 2.21 2.77012 2.21 2.79012 2.21H2.82012L4.09012 2.74C4.11012 2.74 4.12012 2.76 4.13012 2.78V2.8L4.65012 4.26C4.80012 4.71 5.18012 5.03 5.63012 5.15L10.9301 6.43C10.9301 6.43 11.0001 6.48 11.0001 6.52V6.76C11.3001 6.78 11.5901 6.83 11.8801 6.9V6.52C11.8801 6.07 11.5701 5.69 11.1401 5.58L5.84012 4.3C5.67012 4.26 5.53012 4.14 5.48012 3.98L4.97012 2.52L4.93012 2.42C4.85012 2.26 4.73012 2.14 4.58012 2.04V1.21C4.58012 1.01 4.73012 0.9 4.85012 0.9C4.86012 0.9 4.88012 0.9 4.90012 0.9L4.95012 0.92L6.17012 1.46C6.24012 1.49 6.30012 1.55 6.33012 1.64L6.80012 3C6.92012 3.37 7.22012 3.67 7.61012 3.77L12.6801 5.03C12.6801 5.03 12.7001 5.04 12.7101 5.05C12.7401 5.07 12.7701 5.11 12.8001 5.16C12.8701 5.27 12.9001 5.39 12.9001 5.47V7.31C13.2101 7.49 13.5001 7.7 13.7601 7.95C13.7601 7.95 13.7701 7.97 13.7801 7.97V5.47C13.7801 5.21 13.6901 4.93 13.5601 4.71C13.4301 4.49 13.2101 4.25 12.9001 4.17C12.8801 4.17 12.8601 4.17 12.8401 4.16L7.83012 2.91C7.75012 2.89 7.67012 2.82 7.64012 2.71L7.17012 1.34C7.07012 1.03 6.84012 0.77 6.54012 0.63L5.31012 0.1L5.20012 0.06C5.09012 0.02 4.98012 0 4.86012 0C4.23012 0 3.72012 0.53 3.72012 1.19V1.62L3.16012 1.39L3.07012 1.36C2.98012 1.33 2.89012 1.32 2.79012 1.32C2.65012 1.32 2.52012 1.35 2.40012 1.4C2.40012 1.4 2.40012 1.4 2.39012 1.4C2.38012 1.4 2.37012 1.4 2.36012 1.41C2.03012 1.57 1.83012 1.91 1.83012 2.27V4.92L1.55012 4.84C1.45012 4.81 1.35012 4.8 1.24012 4.8C0.460117 4.8 -0.119884 5.59 0.140116 6.37L1.65012 10.54C1.77012 10.89 2.05012 11.16 2.40012 11.27L6.97012 12.71C6.82012 12.4 6.70012 12.07 6.63012 11.73L6.64012 11.76Z" fill="black"/>
</g>
<defs>
<clipPath id="clip0_8539_20541">
<rect width="14" height="14" fill="white"/>
</clipPath>
</defs>
</svg>
