<svg xmlns="http://www.w3.org/2000/svg" width="32" height="32" fill="none" viewBox="0 0 32 32"><path fill="#000" fill-rule="evenodd" d="M11.28 0q.46 0 .88.14l.28.1 2.8 1.23c.77.34 1.35 1 1.62 1.79l1.07 3.06v.03q.1.2.22.22L29.6 9.4q.08 0 .13.03c.84.21 1.4.84 1.72 1.36.33.55.55 1.23.55 1.9v6a10 10 0 0 0-2.67-2.36v-3.65a1.2 1.2 0 0 0-.3-.7L17.48 9.12c-1-.26-1.77-1.01-2.08-1.95L14.34 4.1V4.1a.4.4 0 0 0-.19-.22l-2.78-1.22-.09-.02c-.07 0-.28.1-.28.38v1.66q.5.38.76.92l.1.25 1.17 3.31c.08.25.3.44.58.51l12.1 2.9A2.5 2.5 0 0 1 27.67 15v.54a10 10 0 0 0-3.04-.54l-11.64-2.78a3.5 3.5 0 0 1-2.47-2.2L9.36 6.74l-2.7-1.1v5.89l-.01.2 14.49 3.87a10 10 0 0 0-3.08 1.9l-14.97-4-.1-.01q-.12 0-.25.14-.12.14-.05.35l3.45 9.4v.02q.07.17.22.22l8.83 2.75q.35 1.72 1.26 3.16l-10.9-3.4a3 3 0 0 1-1.92-1.86L.18 14.87l-.01-.02a3 3 0 0 1 3.61-3.88l.22.06V5.48c0-.96.55-1.82 1.4-2.25l.08-.03.04-.02a3 3 0 0 1 1.03-.22l.25.02q.25.01.48.09l.22.08.84.34V3A3 3 0 0 1 11.28 0" clip-rule="evenodd"/><path fill="#000" d="M24.5 17a7.6 7.6 0 0 0-6.93 4.64 7.5 7.5 0 0 0 1.63 8.17 7.4 7.4 0 0 0 3.84 2.05A7.54 7.54 0 0 0 32 24.5a7.5 7.5 0 0 0-7.5-7.5m3.15 10.88A1.1 1.1 0 0 1 26.53 29a1.1 1.1 0 0 1-1.12-1.12V21.1a1.1 1.1 0 0 1 1.12-1.12 1.1 1.1 0 0 1 1.12 1.12zm-4.03-6.78v6.78A1.1 1.1 0 0 1 22.5 29a1.1 1.1 0 0 1-1.11-1.12V21.1a1.1 1.1 0 0 1 1.11-1.12 1.1 1.1 0 0 1 1.12 1.12"/></svg>