<svg width="16" height="16" viewBox="0 0 16 16" fill="none" xmlns="http://www.w3.org/2000/svg">
<path fill-rule="evenodd" clip-rule="evenodd" d="M14.1038 1.37283L11.1589 1.37284C10.8522 1.37284 10.6035 1.12149 10.6035 0.811424C10.6035 0.501362 10.8522 0.250008 11.1589 0.250007L15.4446 0.25C15.5919 0.25 15.7332 0.309149 15.8373 0.414435C15.9415 0.51972 16 0.662519 16 0.811416V5.14358C16 5.45364 15.7513 5.70499 15.4446 5.70499C15.1379 5.70499 14.8892 5.45364 14.8892 5.14358V2.16679L9.83738 7.27341C9.62049 7.49266 9.26883 7.49266 9.05194 7.27341C8.83504 7.05416 8.83504 6.6987 9.05194 6.47945L14.1038 1.37283ZM1.76757 3.49682C1.59338 3.49682 1.42632 3.56677 1.30315 3.69127C1.17998 3.81578 1.11079 3.98465 1.11079 4.16072V13.9632C1.11079 14.1393 1.17998 14.3082 1.30315 14.4327C1.42632 14.5572 1.59338 14.6271 1.76757 14.6271H12.6771C12.8513 14.6271 13.0184 14.5572 13.1415 14.4327C13.2647 14.3082 13.3339 14.1393 13.3339 13.9632V7.35991C13.3339 7.04985 13.5826 6.7985 13.8893 6.7985C14.196 6.7985 14.4447 7.04985 14.4447 7.35991V13.9632C14.4447 14.4371 14.2585 14.8916 13.927 15.2266C13.5955 15.5617 13.1459 15.75 12.6771 15.75H1.76757C1.29878 15.75 0.849191 15.5617 0.517708 15.2266C0.186225 14.8916 0 14.4371 0 13.9632V4.16072C0 3.68685 0.186225 3.23239 0.517708 2.89731C0.849191 2.56223 1.29878 2.37399 1.76757 2.37399H8.70413C9.01087 2.37399 9.25953 2.62534 9.25953 2.93541C9.25953 3.24547 9.01087 3.49682 8.70413 3.49682H1.76757Z" fill="black"/>
</svg>
