<svg width="16" height="16" viewBox="0 0 16 16" fill="none" xmlns="http://www.w3.org/2000/svg">
<path d="M2.25788 11.363L2.40689 11.3674C2.70504 11.3874 2.99496 11.4739 3.25542 11.6204C3.47242 11.7425 3.6644 11.9039 3.82185 12.0957L3.85913 12.1445L3.90835 12.1823C4.02333 12.2769 4.1273 12.3838 4.21841 12.5011L4.30516 12.6217L4.38293 12.7489C4.52926 13.0093 4.61552 13.2992 4.63542 13.5973C4.6553 13.8954 4.60831 14.1942 4.4979 14.4717C4.38747 14.7493 4.21639 14.9987 4.01123 15.1881C3.62034 15.5791 3.10388 15.8147 2.50108 15.9263C1.95069 16.0283 1.37667 16.0211 0.832832 15.9489L0.788246 15.9429L0.745945 15.9368L0.600702 15.9133L0.496489 15.893C0.303914 15.8508 0.153426 15.7005 0.111054 15.508L0.106336 15.4859L0.101313 15.4611L0.0789047 15.3356L0.0545929 15.1708C-0.0181156 14.626 -0.0254716 14.0511 0.0771626 13.4998C0.189127 12.8983 0.424899 12.3827 0.802045 12.006C1.00497 11.7866 1.2544 11.6154 1.53225 11.5049C1.71738 11.4312 1.91191 11.3858 2.10935 11.3696L2.25788 11.363ZM1.90568 12.4438C1.76791 12.4987 1.64423 12.5835 1.53006 12.7064C1.29963 12.9369 1.14783 13.2689 1.07041 13.6848C1.00167 14.054 0.99631 14.4549 1.0338 14.8438L1.04646 14.956L1.15877 14.9693C1.41784 14.9941 1.68227 15 1.93911 14.9809L2.13011 14.9618L2.31705 14.9327C2.73413 14.8554 3.06669 14.7038 3.31089 14.4601C3.41956 14.3594 3.50439 14.2358 3.55916 14.0981C3.6139 13.9605 3.6372 13.8124 3.62734 13.6646C3.61748 13.5168 3.57471 13.373 3.50214 13.2439C3.44775 13.1471 3.37763 13.0603 3.29486 12.9869L3.20798 12.9182L3.16258 12.8821L3.12167 12.8412L3.08565 12.7957L3.01695 12.7088C2.94364 12.6259 2.85684 12.5556 2.76004 12.5012C2.63087 12.4285 2.48711 12.3856 2.3393 12.3757C2.19153 12.3658 2.04332 12.3891 1.90568 12.4438ZM15.8488 0.147988C16.0282 0.327367 16.0445 0.608066 15.8977 0.805867L15.8488 0.862536L14.985 1.72533L15.1133 5.0976C15.1 5.70781 14.9364 6.30533 14.6371 6.83724C14.371 7.31004 14.0051 7.71806 13.5583 8.03792L13.387 8.15368L9.99732 10.2L10.1734 10.6469C10.3106 10.9986 10.3448 11.3821 10.272 11.7525C10.2084 12.0766 10.065 12.3791 9.85045 12.6386L9.75414 12.7471L8.24687 14.2599C8.12758 14.3741 7.97833 14.452 7.81656 14.4848C7.65482 14.5176 7.48706 14.5038 7.34406 14.4493C7.19612 14.397 7.06342 14.3089 6.95751 14.1926C6.87298 14.0997 6.80789 13.9911 6.76546 13.8723L6.73793 13.7813L6.26407 11.85L4.1505 9.734L2.21952 9.26029C2.06667 9.22213 1.92572 9.14652 1.80934 9.04026C1.69307 8.93408 1.60501 8.8007 1.55726 8.66359C1.49927 8.50971 1.48583 8.34257 1.51852 8.1815C1.54466 8.05253 1.59948 7.93158 1.68309 7.82259L1.75119 7.74316L3.25869 6.23942C3.53145 5.97802 3.87305 5.79984 4.24347 5.72574C4.56757 5.66091 4.90196 5.67811 5.20746 5.77141L5.8035 5.982L7.85224 2.59248C8.18132 2.07956 8.63154 1.65541 9.16316 1.35741C9.69479 1.05945 10.2914 0.89682 10.9007 0.883831L14.2711 1.01067L15.1344 0.147988C15.3317 -0.0493293 15.6515 -0.0493293 15.8488 0.147988ZM9.12016 10.73L7.2992 11.8293L7.68285 13.3935L9.03026 12.0422C9.13247 11.9347 9.2085 11.8057 9.25313 11.6651L9.28063 11.5577C9.30925 11.412 9.30421 11.2623 9.26678 11.1203L9.23265 11.0155L9.12016 10.73ZM10.9091 1.89439L10.7564 1.90276C10.3707 1.93473 9.99578 2.04911 9.65707 2.23895C9.31836 2.42881 9.02503 2.689 8.80131 2.99352L8.70976 3.12666L6.47536 6.82333L6.47116 6.83436C6.46012 6.8551 6.44777 6.87482 6.43424 6.89346L5.04188 9.19644L6.79579 10.9527L12.8543 7.2951C13.1352 7.11598 13.3798 6.88698 13.5764 6.62034L13.6707 6.48394L13.7566 6.3416C13.9472 6.00287 14.0622 5.62759 14.0946 5.26183L14.1035 5.10579L13.9852 2.01162L10.9091 1.89439ZM4.44161 6.71664C4.29598 6.74578 4.15942 6.80764 4.0457 6.89336L3.96492 6.96198L2.60768 8.31459L4.16383 8.69667L5.27027 6.86467L4.98541 6.76347C4.81228 6.69647 4.62365 6.68023 4.44161 6.71664ZM10.9281 3.43387C11.8314 3.43387 12.5636 4.16625 12.5636 5.06972C12.5636 5.97318 11.8314 6.70556 10.9281 6.70556C10.0248 6.70556 9.29256 5.97316 9.29256 5.06972C9.29256 4.16627 10.0248 3.43387 10.9281 3.43387ZM10.9281 4.4444C10.5828 4.4444 10.3029 4.72437 10.3029 5.06972C10.3029 5.41506 10.5828 5.69503 10.9281 5.69503C11.2734 5.69503 11.5533 5.41509 11.5533 5.06972C11.5533 4.72435 11.2734 4.4444 10.9281 4.4444Z" fill="#333333"/>
</svg>
