<?xml version="1.0" encoding="UTF-8"?>
<!--
  - Infomaniak kDrive - Desktop
  - Copyright (C) 2023-2025 Infomaniak Network SA
  -
  - This program is free software: you can redistribute it and/or modify
  - it under the terms of the GNU General Public License as published by
  - the Free Software Foundation, either version 3 of the License, or
  - (at your option) any later version.
  -
  - This program is distributed in the hope that it will be useful,
  - but WITHOUT ANY WARRANTY; without even the implied warranty of
  - MERCHANTABILITY or FITNESS FOR A PARTICULAR PURPOSE.  See the
  - GNU General Public License for more details.
  -
  - You should have received a copy of the GNU General Public License
  - along with this program.  If not, see <http://www.gnu.org/licenses/>.
  -->

<svg width="16px" height="16px" viewBox="0 0 16 16" version="1.1" xmlns="http://www.w3.org/2000/svg" xmlns:xlink="http://www.w3.org/1999/xlink">
    <title>icons/theme/colored/state-warning</title>
    <g id="icons/theme/colored/state-warning" stroke="none" stroke-width="1" fill="none" fill-rule="evenodd">
        <g id="Group" transform="translate(1.500000, 2.500000)">
            <path d="M12.1875,1.65000696 L6.08616667,1.65000696 C5.98367163,1.65000347 5.88995944,1.59125076 5.84404167,1.49820707 L5.33108333,0.453207851 C5.19322243,0.174210015 4.91157966,-0.00138150897 4.60416667,0 L0.8125,0 C0.363768641,0 0,0.369372995 0,0.825007574 L0,10.1750006 C0,10.6306352 0.363768641,11 0.8125,11 L12.1875,11 C12.6362314,11 13,10.6306352 13,10.1750006 L13,2.47500635 C13,2.01937177 12.6362314,1.65000696 12.1875,1.65000696 Z" id="icon" fill="#FF8500"></path>
            <path d="M6.48089772,7.80168956 C7.14693542,7.80297056 7.69304873,8.33026069 7.71790946,8.99606456 C7.72996223,9.31794577 7.61198086,9.63113019 7.3905679,9.86500074 C7.16915494,10.0988713 6.86295202,10.2337375 6.54100203,10.2391896 L6.51907208,10.2391896 C5.8533733,10.2370722 5.30774463,9.71024999 5.28206034,9.04481456 C5.27023256,8.72299423 5.38828916,8.40993805 5.60965456,8.17611774 C5.83101996,7.94229743 6.13709078,7.80736306 6.45896777,7.80168956 L6.48089772,7.80168956 Z M6.5,2.52043956 C7.17309704,2.52043956 7.71875,3.06609252 7.71875,3.73918956 L7.71875,5.98214046 C7.71875,6.6552375 7.17309704,7.20089046 6.5,7.20089046 C5.82690296,7.20089046 5.28125,6.6552375 5.28125,5.98214046 L5.28125,3.73918956 C5.28125,3.06609252 5.82690296,2.52043956 6.5,2.52043956 Z" id="Combined-Shape" fill="#FFFFFF" fill-rule="nonzero"></path>
        </g>
    </g>
</svg>