<svg width="17" height="16" viewBox="0 0 17 16" fill="none" xmlns="http://www.w3.org/2000/svg">
<path fill-rule="evenodd" clip-rule="evenodd" d="M3.85182 0.790991C3.36464 0.882671 2.99088 1.14058 2.74913 1.55189C2.62513 1.76286 2.5516 1.97312 2.50851 2.23989C2.48677 2.37443 2.48395 3.03664 2.48389 8.0083C2.48384 11.8031 2.48923 13.6687 2.50048 13.7603C2.55771 14.2261 2.77011 14.6111 3.10918 14.8636C3.34227 15.0371 3.62254 15.1563 3.91918 15.208C4.12229 15.2434 5.60546 15.2428 5.79806 15.2072C6.13664 15.1446 6.38083 15.0236 6.61576 14.802C6.88769 14.5454 7.0569 14.22 7.13635 13.8008C7.16198 13.6656 7.16382 13.2771 7.16382 7.98389C7.16382 3.32598 7.16 2.28765 7.14242 2.17627C7.03466 1.49349 6.58978 1.01704 5.87582 0.819807L5.72382 0.777807L4.84382 0.773855C4.16926 0.770831 3.93768 0.774831 3.85182 0.790991ZM11.1638 0.800063C10.838 0.866751 10.6134 0.981311 10.3839 1.19782C10.1125 1.45381 9.94237 1.77963 9.8644 2.19251C9.8373 2.33606 9.83582 2.63722 9.83582 8.01589C9.83582 12.6738 9.83965 13.7121 9.85723 13.8235C9.96552 14.5096 10.4154 14.9887 11.1318 15.181L11.2918 15.2239L12.2118 15.2238L13.1318 15.2236L13.2897 15.1793C13.5687 15.101 13.848 14.9401 14.0223 14.7572C14.1864 14.5851 14.3508 14.2962 14.4262 14.0476C14.5211 13.7346 14.5156 14.1031 14.5157 7.98389C14.5157 3.99378 14.5106 2.33435 14.4981 2.23189C14.4542 1.87344 14.3094 1.5527 14.0763 1.29723C13.9239 1.13018 13.606 0.937503 13.3506 0.857407C13.0807 0.772767 13.0113 0.767775 12.1257 0.769231C11.3973 0.770431 11.2921 0.773807 11.1638 0.800063ZM4.05208 1.77819C3.76898 1.81984 3.60397 1.9825 3.52278 2.29998C3.49246 2.41853 3.49182 2.53621 3.49206 8.03045C3.49232 14.1505 3.48629 13.7508 3.58088 13.9122C3.66958 14.0636 3.84021 14.1675 4.07998 14.2161C4.1911 14.2386 4.30786 14.2414 4.91056 14.2363C5.57805 14.2306 5.61683 14.2286 5.7159 14.1956C5.89781 14.1351 6.01042 14.0261 6.08408 13.8392C6.1685 13.6251 6.16384 13.9675 6.16369 7.98685C6.16361 4.2927 6.15813 2.40629 6.14726 2.3393C6.09915 2.04282 5.95834 1.89157 5.64382 1.7985C5.55926 1.77347 5.46494 1.76966 4.85182 1.76651C4.46902 1.76454 4.10914 1.76979 4.05208 1.77819ZM11.411 1.77686C11.1247 1.81902 10.9672 1.96674 10.872 2.28264C10.8454 2.3707 10.8436 2.68589 10.8395 7.95989C10.8365 11.7251 10.8405 13.5789 10.8516 13.6515C10.8978 13.9544 11.0382 14.1074 11.3558 14.2012C11.4392 14.2259 11.539 14.2304 12.1157 14.2357C12.8339 14.2424 12.9953 14.2317 13.1337 14.1688C13.3045 14.0912 13.4154 13.9401 13.4762 13.7024C13.5074 13.5804 13.5078 13.5032 13.5078 7.96824C13.5078 2.58917 13.5066 2.35315 13.4786 2.2468C13.428 2.05453 13.3286 1.93667 13.1476 1.85461C12.9563 1.76787 12.8686 1.7597 12.1525 1.76184C11.7935 1.76291 11.4599 1.76968 11.411 1.77686Z" fill="#666666"/>
</svg>
