<svg width="16" height="16" viewBox="0 0 16 16" fill="none" xmlns="http://www.w3.org/2000/svg">
<path fill-rule="evenodd" clip-rule="evenodd" d="M1.91138 0.0104603C1.42936 0.0614348 0.959372 0.348138 0.703145 0.747494C0.548831 0.98799 0.472443 1.19894 0.436846 1.48273C0.411025 1.68874 0.411025 14.3209 0.436846 14.5269C0.484315 14.9054 0.628093 15.2154 0.882186 15.487C1.19636 15.8229 1.62232 16.0036 2.09687 16.0024C2.37616 16.0017 2.59905 15.9486 2.84923 15.823C3.2492 15.6222 14.7394 9.45802 14.8527 9.38349C15.2475 9.12367 15.5233 8.66228 15.5736 8.17743C15.6366 7.5692 15.3507 6.95388 14.8527 6.62616C14.7384 6.55098 3.23044 0.377465 2.85741 0.191245C2.76559 0.145409 2.64873 0.0947313 2.59771 0.0786673C2.39343 0.0142443 2.1264 -0.0122816 1.91138 0.0104603ZM1.92371 1.19539C1.79377 1.24027 1.67236 1.35921 1.62367 1.48935C1.58707 1.58718 1.58676 1.64374 1.58676 8.00482C1.58676 14.4096 1.58683 14.4218 1.62445 14.5223C1.70657 14.7418 1.94095 14.8766 2.16736 14.8345C2.25716 14.8178 3.3073 14.2618 8.21947 11.6303C11.4884 9.87914 14.1943 8.42358 14.2327 8.39574C14.2711 8.36792 14.3276 8.29986 14.3582 8.24454C14.4061 8.15788 14.4138 8.12467 14.4138 8.00482C14.4138 7.8837 14.4064 7.85251 14.3565 7.76368C14.3167 7.69287 14.2685 7.64084 14.1988 7.59367C14.0169 7.47037 2.30409 1.20903 2.20877 1.1841C2.08801 1.15253 2.04263 1.15432 1.92371 1.19539Z" fill="black"/>
</svg>
