<svg width="16" height="16" viewBox="0 0 16 16" fill="none" xmlns="http://www.w3.org/2000/svg">
<path fill-rule="evenodd" clip-rule="evenodd" d="M7.85228 3.12993C8.59514 3.13278 9.2859 3.27093 9.67962 3.43968L9.68071 3.44015C11.0424 4.0276 11.7148 5.0788 12.01 6.06519C13.4611 5.77753 14.6024 6.64299 15.059 7.10306C16.1251 8.14432 16.2632 9.68961 15.5854 10.974C15.0322 12.0221 13.9136 12.7794 12.5763 12.8689L12.5596 12.87H3.08918L3.06876 12.8683C1.83368 12.7671 1.07955 12.0561 0.650808 11.402C0.437944 11.0773 0.300647 10.7613 0.216318 10.5271C0.17392 10.4094 0.144266 10.3106 0.124809 10.2394C0.115067 10.2037 0.10784 10.1748 0.10282 10.1537L0.0986206 10.1354C0.096876 10.129 0.0948215 10.1213 0.0925147 10.1123C0.0866577 10.0894 0.0791552 10.0582 0.0709631 10.0196C0.0546043 9.94234 0.0353399 9.83453 0.0210154 9.70276C-0.00750049 9.44044 -0.0172652 9.07559 0.0592497 8.66477C0.216092 7.82267 0.730153 6.83001 2.0609 6.15218L2.0757 6.14464L2.09096 6.1381C2.4932 5.96575 3.1855 5.81615 3.89221 5.89876C4.12087 5.19732 4.52113 4.36715 5.48122 3.71865L5.49051 3.71238L5.50006 3.70653C6.2294 3.26004 7.10602 3.12706 7.85228 3.12993ZM6.03241 4.55502C5.17721 5.13694 4.92138 5.89545 4.72675 6.60912C4.69148 6.73848 4.6058 6.84828 4.48891 6.91396C4.37202 6.97964 4.23367 6.99569 4.10485 6.95854C3.52214 6.7905 2.83825 6.91245 2.49992 7.05262C1.4835 7.57579 1.14856 8.28616 1.04389 8.84816C0.989381 9.14083 0.996049 9.40434 1.01672 9.59452C1.02699 9.689 1.04051 9.76347 1.05079 9.81198C1.05591 9.83617 1.06019 9.85371 1.06279 9.86384L1.06527 9.87322L1.07058 9.89116L1.07445 9.9099C1.0744 9.90966 1.07444 9.90983 1.07445 9.9099C1.07449 9.91009 1.07461 9.91064 1.0747 9.91103L1.07722 9.92194C1.07983 9.93293 1.08435 9.95114 1.09102 9.97557C1.10438 10.0245 1.12625 10.0978 1.15863 10.1877C1.22385 10.3688 1.32915 10.6099 1.48846 10.8529C1.8016 11.3307 2.30465 11.7942 3.1311 11.8684H12.5255C13.516 11.7968 14.3141 11.2369 14.6996 10.5065C15.197 9.56411 15.0695 8.51143 14.3569 7.81734L14.3503 7.81089C13.9264 7.38254 12.9629 6.71524 11.8267 7.1591C11.6868 7.21373 11.5298 7.20272 11.3989 7.1291C11.268 7.05548 11.1771 6.92703 11.1512 6.77913C10.9948 5.88756 10.5036 4.88622 9.28465 4.36009C9.04721 4.25845 8.49786 4.13399 7.84843 4.13149C7.20601 4.12903 6.54192 4.24663 6.03241 4.55502Z" fill="black"/>
</svg>
