<svg width="14" height="16" viewBox="0 0 14 16" fill="none" xmlns="http://www.w3.org/2000/svg">
<path fill-rule="evenodd" clip-rule="evenodd" d="M2.85828 0.0090397C2.40669 0.0513564 2.03047 0.170645 1.70611 0.374329C1.02597 0.801437 0.59669 1.48676 0.517449 2.27195C0.505469 2.39077 0.499802 4.33777 0.500005 8.26865C0.500277 13.2133 0.503959 14.115 0.52449 14.2596C0.653941 15.1709 1.39737 15.8864 2.3153 15.983C2.41897 15.9939 4.3535 16 7.73664 16C12.0152 16 13.0144 15.9959 13.0913 15.9778C13.4084 15.903 13.581 15.5455 13.4467 15.2413C13.4053 15.1475 13.2779 15.0217 13.1783 14.9761C13.1085 14.9442 13.061 14.9389 12.7974 14.9333L12.4962 14.927V13.9708V13.0146L12.5913 13.0027C13.0208 12.949 13.3854 12.6182 13.4719 12.2038C13.5092 12.0253 13.5094 0.983784 13.4722 0.807756C13.3903 0.420808 13.0705 0.104987 12.6793 0.0248384C12.5619 0.000749645 12.0592 -0.0016966 7.73311 0.000749644C5.08461 0.00224457 2.89095 0.00598189 2.85828 0.0090397ZM2.73891 1.09451C2.48059 1.14135 2.24989 1.26126 2.04023 1.45764C1.82804 1.6564 1.69134 1.87478 1.60873 2.14699C1.57915 2.24447 1.57759 2.46584 1.57306 7.21361C1.57044 9.94418 1.57252 12.1783 1.57766 12.1783C1.58281 12.1783 1.61631 12.1634 1.6521 12.1451C1.84295 12.0476 2.08178 11.9828 2.34075 11.9582C2.46531 11.9464 4.17405 11.9405 7.47788 11.9405L12.4284 11.9405V6.50437V1.06826L7.64756 1.06979C3.68674 1.07105 2.84484 1.0753 2.73891 1.09451ZM2.32494 13.0305C2.08219 13.0769 1.80114 13.2899 1.68132 13.5182C1.42903 13.9988 1.61558 14.5863 2.09785 14.83C2.30902 14.9367 1.97576 14.9298 6.92641 14.9301L11.4442 14.9303V13.9705V13.0107L6.92641 13.0126C4.17987 13.0138 2.37582 13.0208 2.32494 13.0305Z" fill="#333333"/>
</svg>
