<svg xmlns="http://www.w3.org/2000/svg" width="16" height="16" fill="none"><path fill="#000" fill-rule="evenodd" d="M.52 1.42C.83 1.15 1.25 1 1.67 1h3.46c.42 0 .84.15 1.16.42.31.28.51.67.51 1.1V3h7.58c.42 0 .84.15 1.16.42.36.32.46.74.46 1.1v8.87c0 .42-.19.8-.49 1.1a1.9 1.9 0 0 1-1.16.51H1.65a1.9 1.9 0 0 1-1.16-.51c-.3-.3-.48-.68-.49-1.1V2.5c0-.42.2-.81.52-1.09Zm1.15.6c-.2 0-.37.07-.49.18a.43.43 0 0 0-.16.31v10.87c0 .12.06.26.18.37.11.12.28.2.48.23h12.64c.2-.03.37-.11.48-.23a.54.54 0 0 0 .18-.37V4.5c0-.17-.05-.26-.11-.31a.74.74 0 0 0-.49-.17H6.3a.51.51 0 0 1-.51-.52v-1c0-.1-.05-.22-.16-.31a.75.75 0 0 0-.49-.17H1.67Z" clip-rule="evenodd"/></svg>