<svg width="16" height="16" viewBox="0 0 16 16" fill="none" xmlns="http://www.w3.org/2000/svg">
<path fill-rule="evenodd" clip-rule="evenodd" d="M7.69415 0.52192C7.27413 0.615115 6.91993 0.863408 6.70089 1.21815C6.63062 1.33198 0.259261 13.0865 0.149411 13.305C-0.0446848 13.691 -0.0501254 14.2074 0.135741 14.6C0.358961 15.0714 0.746403 15.3711 1.26738 15.4755C1.43075 15.5082 14.5696 15.5082 14.733 15.4755C15.252 15.3715 15.642 15.0702 15.8638 14.6018C16.05 14.2086 16.0449 13.691 15.851 13.305C15.7441 13.092 9.37016 1.33328 9.29928 1.21815C9.07897 0.860366 8.72267 0.612056 8.30087 0.522328C8.16176 0.492736 7.82666 0.492516 7.69415 0.52192ZM7.84928 1.58417C7.79018 1.60457 7.73198 1.64191 7.68458 1.68984C7.62609 1.74897 6.95386 2.97742 4.3607 7.76393C2.57288 11.0639 1.09959 13.7935 1.08673 13.8298C1.02908 13.9922 1.08223 14.184 1.21897 14.3069C1.37609 14.4481 0.697148 14.4353 8.00019 14.4353C15.3032 14.4353 14.6243 14.4481 14.7814 14.3069C14.9181 14.184 14.9713 13.9922 14.9136 13.8298C14.9008 13.7935 13.4277 11.0639 11.6401 7.76393C8.07143 1.17598 8.33253 1.63686 8.13595 1.57849C8.01972 1.54399 7.96237 1.54513 7.84928 1.58417ZM7.87665 4.98542C7.76887 5.01248 7.68539 5.06423 7.60453 5.15413C7.46272 5.31183 7.47307 5.10613 7.4735 7.7542C7.47387 10.0838 7.47425 10.1104 7.50835 10.1855C7.55633 10.2913 7.61494 10.3637 7.69891 10.421C7.79737 10.4883 7.88202 10.5129 8.01263 10.5121C8.21674 10.5109 8.39764 10.3895 8.48745 10.1934L8.52761 10.1057L8.52317 7.72803L8.51875 5.35034L8.47907 5.27386C8.42345 5.16664 8.31557 5.0611 8.21929 5.0197C8.12316 4.97835 7.96702 4.96273 7.87665 4.98542ZM7.79795 11.4696C7.43472 11.5716 7.19444 11.9124 7.22299 12.2851C7.24582 12.5834 7.44237 12.8476 7.72407 12.9587C7.86409 13.0139 8.13629 13.0139 8.2763 12.9587C8.47577 12.88 8.65473 12.7012 8.73332 12.5021C8.78872 12.3617 8.78879 12.0898 8.73347 11.9496C8.65438 11.7492 8.47349 11.5689 8.27671 11.4942C8.14858 11.4456 7.9246 11.4341 7.79795 11.4696Z" fill="black"/>
</svg>
