<svg width="200" height="80" viewBox="0 0 200 80" fill="none" xmlns="http://www.w3.org/2000/svg">
<g clip-path="url(#clip0_1_9)">
<path d="M153.114 45.5234L134.038 9.7517C133.138 8.06544 132.06 6.72418 130.867 5.80808C129.675 4.89199 128.392 4.41986 127.096 4.41992H72.6248C71.3288 4.41986 70.0461 4.89199 68.8533 5.80808C67.6605 6.72418 66.5822 8.06544 65.6827 9.7517L46.6066 45.5234" stroke="#9F9F9F" stroke-width="0.84" stroke-linecap="round" stroke-linejoin="round" stroke-dasharray="2.46 2.46"/>
<path d="M155.3 64.335C155.3 67.2965 154.284 70.1367 152.476 72.2309C150.668 74.325 148.215 75.5015 145.658 75.5015H54.0618C51.5046 75.5015 49.0522 74.325 47.244 72.2309C45.4359 70.1367 44.42 67.2965 44.42 64.335V53.1685C44.42 50.2069 45.4359 47.3667 47.244 45.2725C49.0522 43.1784 51.5046 42.002 54.0618 42.002H145.658C148.215 42.002 150.668 43.1784 152.476 45.2725C154.284 47.3667 155.3 50.2069 155.3 53.1685V64.335Z" stroke="#9F9F9F" stroke-width="0.84" stroke-linecap="round" stroke-linejoin="round" stroke-dasharray="2.46 2.46"/>
<path d="M120.716 58.8179H135.836" stroke="#9F9F9F" stroke-width="0.84" stroke-linecap="round" stroke-linejoin="round" stroke-dasharray="2.46 2.46"/>
<path d="M64.9092 57.5466C64.671 57.5466 64.4382 57.6172 64.2401 57.7494C64.042 57.8816 63.8875 58.0696 63.7962 58.2895C63.7048 58.5095 63.6807 58.7516 63.7268 58.9852C63.7729 59.2189 63.8872 59.4336 64.0553 59.6024C64.2234 59.7711 64.4376 59.8863 64.6711 59.9333C64.9046 59.9804 65.1468 59.9572 65.3671 59.8667C65.5874 59.7762 65.7759 59.6225 65.909 59.4249C66.042 59.2274 66.1135 58.9948 66.1144 58.7567C66.1144 58.437 65.9874 58.1305 65.7614 57.9045C65.5354 57.6784 65.2288 57.5515 64.9092 57.5515" stroke="#9F9F9F" stroke-width="0.84" stroke-linecap="round" stroke-linejoin="round" stroke-dasharray="2.46 2.46"/>
<path d="M81.7813 57.5466C81.5431 57.5466 81.3103 57.6172 81.1122 57.7494C80.9141 57.8816 80.7596 58.0696 80.6682 58.2895C80.5769 58.5095 80.5527 58.7516 80.5989 58.9852C80.645 59.2189 80.7593 59.4336 80.9274 59.6024C81.0954 59.7711 81.3097 59.8863 81.5432 59.9333C81.7767 59.9804 82.0188 59.9572 82.2391 59.8667C82.4595 59.7762 82.648 59.6225 82.781 59.4249C82.914 59.2274 82.9855 58.9948 82.9865 58.7567C82.9865 58.437 82.8595 58.1305 82.6335 57.9045C82.4075 57.6784 82.1009 57.5515 81.7813 57.5515" stroke="#9F9F9F" stroke-width="0.84" stroke-linecap="round" stroke-linejoin="round" stroke-dasharray="2.46 2.46"/>
</g>
<defs>
<clipPath id="clip0_1_9">
<rect width="112" height="72" fill="white" transform="translate(44 4)"/>
</clipPath>
</defs>
</svg>
