<svg width="112" height="72" viewBox="0 0 112 72" fill="none" xmlns="http://www.w3.org/2000/svg">
<path d="M109.114 41.5234L90.0379 5.7517C89.1384 4.06544 88.0601 2.72418 86.8673 1.80808C85.6745 0.891989 84.3918 0.419863 83.0958 0.419922H28.6248C27.3288 0.419863 26.0461 0.891989 24.8533 1.80808C23.6605 2.72418 22.5822 4.06544 21.6827 5.7517L2.60657 41.5234" stroke="#9F9F9F" stroke-width="0.84" stroke-linecap="round" stroke-linejoin="round" stroke-dasharray="2.46 2.46"/>
<path d="M111.3 60.335C111.3 63.2965 110.284 66.1367 108.476 68.2309C106.668 70.325 104.215 71.5015 101.658 71.5015H10.0618C7.50463 71.5015 5.05222 70.325 3.24404 68.2309C1.43587 66.1367 0.420044 63.2965 0.420044 60.335V49.1685C0.420044 46.2069 1.43587 43.3667 3.24404 41.2725C5.05222 39.1784 7.50463 38.002 10.0618 38.002H101.658C104.215 38.002 106.668 39.1784 108.476 41.2725C110.284 43.3667 111.3 46.2069 111.3 49.1685V60.335Z" stroke="#9F9F9F" stroke-width="0.84" stroke-linecap="round" stroke-linejoin="round" stroke-dasharray="2.46 2.46"/>
<path d="M76.7164 54.8179H91.8364" stroke="#9F9F9F" stroke-width="0.84" stroke-linecap="round" stroke-linejoin="round" stroke-dasharray="2.46 2.46"/>
<path d="M20.9092 53.5466C20.671 53.5466 20.4382 53.6172 20.2401 53.7494C20.042 53.8816 19.8875 54.0696 19.7962 54.2895C19.7048 54.5095 19.6807 54.7516 19.7268 54.9852C19.7729 55.2189 19.8872 55.4336 20.0553 55.6024C20.2234 55.7711 20.4376 55.8863 20.6711 55.9333C20.9046 55.9804 21.1468 55.9572 21.3671 55.8667C21.5874 55.7762 21.7759 55.6225 21.909 55.4249C22.042 55.2274 22.1135 54.9948 22.1144 54.7567C22.1144 54.437 21.9874 54.1305 21.7614 53.9045C21.5354 53.6784 21.2288 53.5515 20.9092 53.5515" stroke="#9F9F9F" stroke-width="0.84" stroke-linecap="round" stroke-linejoin="round" stroke-dasharray="2.46 2.46"/>
<path d="M37.7813 53.5466C37.5431 53.5466 37.3103 53.6172 37.1122 53.7494C36.9141 53.8816 36.7596 54.0696 36.6682 54.2895C36.5769 54.5095 36.5527 54.7516 36.5989 54.9852C36.645 55.2189 36.7593 55.4336 36.9274 55.6024C37.0954 55.7711 37.3097 55.8863 37.5432 55.9333C37.7767 55.9804 38.0188 55.9572 38.2391 55.8667C38.4595 55.7762 38.648 55.6225 38.781 55.4249C38.914 55.2274 38.9855 54.9948 38.9865 54.7567C38.9865 54.437 38.8595 54.1305 38.6335 53.9045C38.4075 53.6784 38.1009 53.5515 37.7813 53.5515" stroke="#9F9F9F" stroke-width="0.84" stroke-linecap="round" stroke-linejoin="round" stroke-dasharray="2.46 2.46"/>
</svg>
