<svg width="16" height="16" viewBox="0 0 16 16" fill="none" xmlns="http://www.w3.org/2000/svg">
<path d="M7.99998 6.78471C8.28187 6.78471 8.5104 7.01346 8.51057 7.2953V13.1372L9.68136 11.9664C9.88075 11.767 10.204 11.767 10.4034 11.9664C10.6026 12.1659 10.6027 12.4891 10.4034 12.6884L8.36099 14.7308C8.16162 14.9301 7.83836 14.9301 7.63898 14.7308L5.5966 12.6884C5.39722 12.4891 5.39728 12.1659 5.5966 11.9664C5.796 11.767 6.11921 11.767 6.31861 11.9664L7.48938 13.1372V7.2953C7.48957 7.01346 7.7181 6.78471 7.99998 6.78471ZM7.03763 1.08938C8.142 0.876017 9.28671 1.037 10.2897 1.54613C11.1955 2.00609 11.9389 2.72755 12.4278 3.61244C12.821 3.6322 13.2104 3.71301 13.5797 3.85378C14.0521 4.03407 14.4839 4.30773 14.8481 4.65856C15.2125 5.00954 15.503 5.43056 15.7008 5.89616C15.8986 6.3618 16.0003 6.8632 16 7.3691L15.99 7.67027C15.8928 9.13832 15.0887 10.0149 14.2946 10.5085C13.8795 10.7664 13.4679 10.9203 13.1627 11.0101C13.0096 11.0551 12.8805 11.0852 12.7878 11.1038C12.7419 11.113 12.7042 11.1193 12.6771 11.1238C12.6639 11.1259 12.6523 11.1285 12.6442 11.1298C12.6403 11.1303 12.6359 11.1304 12.6332 11.1307H12.6303L12.6293 11.1317H12.6272C12.6057 11.1345 12.5832 11.1357 12.5614 11.1357H11.5681C11.2862 11.1357 11.0575 10.9071 11.0575 10.6251C11.0576 10.3432 11.2862 10.1145 11.5681 10.1145H12.5236C12.5391 10.1119 12.5611 10.1078 12.5874 10.1026C12.6547 10.0891 12.7542 10.0662 12.8745 10.0308C13.1183 9.95905 13.4399 9.83738 13.7561 9.64085C14.3725 9.25758 14.9787 8.59177 14.9788 7.3691C14.979 7.0006 14.9044 6.63525 14.7604 6.29606C14.6164 5.95705 14.4052 5.65014 14.1401 5.39453C13.8747 5.13893 13.5599 4.93849 13.2156 4.80715C12.8715 4.67593 12.5036 4.61572 12.1356 4.62964C11.9312 4.63744 11.7413 4.52241 11.6539 4.33745C11.2713 3.52523 10.6284 2.86319 9.82795 2.45662C9.02738 2.05019 8.11364 1.92237 7.23209 2.09263C6.35046 2.26304 5.54991 2.72248 4.95836 3.39803C4.36697 4.07363 4.01753 4.92701 3.96509 5.82336C3.95643 5.97154 3.88345 6.10906 3.76564 6.19932C3.64767 6.28948 3.49509 6.32348 3.34978 6.29307C3.06912 6.23412 2.7779 6.23876 2.49913 6.30602C2.2204 6.37342 1.96001 6.50246 1.73722 6.68299C1.51431 6.86373 1.33431 7.09219 1.21067 7.35115C1.08705 7.61025 1.02247 7.89379 1.02219 8.18087L1.02817 8.37035C1.05671 8.79423 1.18039 9.09565 1.33533 9.31474C1.51551 9.56933 1.76167 9.74655 2.02742 9.86922C2.29481 9.99254 2.57016 10.0541 2.78234 10.0846C2.88686 10.0996 2.97353 10.1075 3.03166 10.1106C3.06022 10.1121 3.08224 10.1123 3.09548 10.1125H4.41386C4.69559 10.1128 4.92441 10.3413 4.92445 10.6231C4.92444 10.905 4.69561 11.1335 4.41386 11.1337H3.07853C3.05381 11.1333 3.01877 11.132 2.97681 11.1298C2.89277 11.1253 2.77555 11.1158 2.63674 11.0958C2.36076 11.0561 1.98311 10.9726 1.5996 10.7957C1.21468 10.618 0.809574 10.3394 0.50162 9.90412C0.190414 9.46403 6.37746e-05 8.89558 0 8.18087L0.00598354 8.01532C0.0277005 7.63304 0.123862 7.25788 0.289204 6.91136C0.478229 6.51539 0.753172 6.16652 1.09399 5.89017C1.43487 5.61385 1.83324 5.4168 2.25978 5.31375C2.50452 5.25469 2.75552 5.2275 3.00573 5.23198C3.15919 4.30585 3.56744 3.43647 4.19047 2.72489C4.93146 1.87872 5.93334 1.30292 7.03763 1.08938Z" fill="black"/>
</svg>
