<svg width="16" height="16" viewBox="0 0 16 16" fill="none" xmlns="http://www.w3.org/2000/svg">
<path fill-rule="evenodd" clip-rule="evenodd" d="M3.35182 0.790991C2.86464 0.882671 2.49088 1.14058 2.24913 1.55189C2.12513 1.76286 2.0516 1.97312 2.00851 2.23989C1.98677 2.37443 1.98395 3.03664 1.98389 8.0083C1.98384 11.8031 1.98923 13.6687 2.00048 13.7603C2.05771 14.2261 2.27011 14.6111 2.60918 14.8636C2.84227 15.0371 3.12254 15.1563 3.41918 15.208C3.62229 15.2434 5.10546 15.2428 5.29806 15.2072C5.63664 15.1446 5.88083 15.0236 6.11576 14.802C6.38769 14.5454 6.5569 14.22 6.63635 13.8008C6.66198 13.6656 6.66382 13.2771 6.66382 7.98389C6.66382 3.32598 6.66 2.28765 6.64242 2.17627C6.53466 1.49349 6.08978 1.01704 5.37582 0.819807L5.22382 0.777807L4.34382 0.773855C3.66926 0.770831 3.43768 0.774831 3.35182 0.790991ZM10.6638 0.800063C10.338 0.866751 10.1134 0.981311 9.88389 1.19782C9.61253 1.45381 9.44237 1.77963 9.3644 2.19251C9.3373 2.33606 9.33582 2.63722 9.33582 8.01589C9.33582 12.6738 9.33965 13.7121 9.35723 13.8235C9.46552 14.5096 9.91536 14.9887 10.6318 15.181L10.7918 15.2239L11.7118 15.2238L12.6318 15.2236L12.7897 15.1793C13.0687 15.101 13.348 14.9401 13.5223 14.7572C13.6864 14.5851 13.8508 14.2962 13.9262 14.0476C14.0211 13.7346 14.0156 14.1031 14.0157 7.98389C14.0157 3.99378 14.0106 2.33435 13.9981 2.23189C13.9542 1.87344 13.8094 1.5527 13.5763 1.29723C13.4239 1.13018 13.106 0.937503 12.8506 0.857407C12.5807 0.772767 12.5113 0.767775 11.6257 0.769231C10.8973 0.770431 10.7921 0.773807 10.6638 0.800063ZM3.55208 1.77819C3.26898 1.81984 3.10397 1.9825 3.02278 2.29998C2.99246 2.41853 2.99182 2.53621 2.99206 8.03045C2.99232 14.1505 2.98629 13.7508 3.08088 13.9122C3.16958 14.0636 3.34021 14.1675 3.57998 14.2161C3.6911 14.2386 3.80786 14.2414 4.41056 14.2363C5.07805 14.2306 5.11683 14.2286 5.2159 14.1956C5.39781 14.1351 5.51042 14.0261 5.58408 13.8392C5.6685 13.6251 5.66384 13.9675 5.66369 7.98685C5.66361 4.2927 5.65813 2.40629 5.64726 2.3393C5.59915 2.04282 5.45834 1.89157 5.14382 1.7985C5.05926 1.77347 4.96494 1.76966 4.35182 1.76651C3.96902 1.76454 3.60914 1.76979 3.55208 1.77819ZM10.911 1.77686C10.6247 1.81902 10.4672 1.96674 10.372 2.28264C10.3454 2.3707 10.3436 2.68589 10.3395 7.95989C10.3365 11.7251 10.3405 13.5789 10.3516 13.6515C10.3978 13.9544 10.5382 14.1074 10.8558 14.2012C10.9392 14.2259 11.039 14.2304 11.6157 14.2357C12.3339 14.2424 12.4953 14.2317 12.6337 14.1688C12.8045 14.0912 12.9154 13.9401 12.9762 13.7024C13.0074 13.5804 13.0078 13.5032 13.0078 7.96824C13.0078 2.58917 13.0066 2.35315 12.9786 2.2468C12.928 2.05453 12.8286 1.93667 12.6476 1.85461C12.4563 1.76787 12.3686 1.7597 11.6525 1.76184C11.2935 1.76291 10.9599 1.76968 10.911 1.77686Z" fill="black"/>
</svg>
