<svg width="16" height="16" viewBox="0 0 16 16" fill="none" xmlns="http://www.w3.org/2000/svg">
<path fill-rule="evenodd" clip-rule="evenodd" d="M1.23426 1.0165C0.594925 1.12379 0.143245 1.59579 0.0258235 2.27927C0.00307646 2.41168 -8.33078e-05 2.93053 1.63275e-06 6.51781C0.000103561 10.8996 -0.00208791 10.7802 0.0831415 11.026C0.22715 11.4413 0.556311 11.7648 0.988693 11.9159C1.255 12.009 1.20206 12.007 3.36504 12.007C5.36796 12.007 5.36814 12.007 5.36814 12.0415C5.36814 12.0606 5.29934 12.4884 5.21525 12.9923C5.13116 13.4962 5.06236 13.9119 5.06236 13.9161C5.06236 13.9202 4.80052 13.9262 4.48052 13.9294L3.89867 13.9351L3.80524 13.9795C3.68639 14.036 3.5918 14.1306 3.53535 14.2494C3.49932 14.3253 3.49114 14.3668 3.49191 14.4703C3.49354 14.6905 3.59644 14.8518 3.79674 14.9479L3.89867 14.9969L7.98431 14.9968C10.7127 14.9967 12.0907 14.991 12.1324 14.9794C12.3055 14.9313 12.4691 14.7502 12.5005 14.5719C12.5346 14.3783 12.4808 14.2096 12.3451 14.0845C12.1877 13.9393 12.1172 13.927 11.447 13.9268L10.9429 13.9267L10.9333 13.8799C10.928 13.8542 10.8586 13.4395 10.779 12.9583C10.6995 12.4771 10.6305 12.0664 10.6257 12.0456L10.617 12.0078L12.711 12.0029L14.805 11.9981L14.9294 11.9597C15.5293 11.7744 15.91 11.293 15.9869 10.6225C15.9986 10.52 16.0025 9.11577 15.9985 6.36694C15.9931 2.62541 15.9901 2.25449 15.9645 2.15268C15.888 1.84735 15.7878 1.66716 15.578 1.45737C15.3451 1.22455 15.1114 1.09959 14.7854 1.03362C14.6129 0.998711 14.6094 0.998694 7.96466 1.0007C4.30815 1.00179 1.27948 1.0089 1.23426 1.0165ZM1.32577 2.09106C1.22958 2.12181 1.14492 2.22121 1.10511 2.35005C1.07024 2.46298 1.07015 2.47297 1.07015 6.52703C1.07015 11.0285 1.06208 10.7115 1.17937 10.8145C1.2112 10.8424 1.28182 10.8831 1.33632 10.9048L1.4354 10.9442L8.02724 10.9447L14.6191 10.9452L14.7034 10.9018C14.8013 10.8515 14.8698 10.7543 14.9076 10.6123C14.9426 10.4807 14.9449 2.49823 14.91 2.36355C14.8806 2.25023 14.826 2.1848 14.7116 2.1257L14.6182 2.07744L8.0013 2.07487C3.21476 2.07301 1.36821 2.07749 1.32577 2.09106ZM6.45538 12.0331C6.45538 12.038 6.38658 12.4544 6.30249 12.9583C6.2184 13.4622 6.1496 13.8863 6.1496 13.9006C6.1496 13.9238 6.34868 13.9267 8.00343 13.9267H9.85725L9.8483 13.8799C9.84337 13.8542 9.77179 13.4261 9.68922 12.9286L9.53912 12.024H7.99726C7.14923 12.024 6.45538 12.0281 6.45538 12.0331Z" fill="black"/>
</svg>
