<svg width="16" height="16" viewBox="0 0 16 16" fill="none" xmlns="http://www.w3.org/2000/svg">
<path fill-rule="evenodd" clip-rule="evenodd" d="M1.91138 0.00801889C1.42936 0.0589933 0.959372 0.345697 0.703145 0.745052C0.548831 0.985549 0.472443 1.1965 0.436846 1.48029C0.411025 1.6863 0.411025 14.3185 0.436846 14.5245C0.484315 14.9029 0.628093 15.2129 0.882186 15.4846C1.19636 15.8204 1.62232 16.0012 2.09687 16C2.37616 15.9993 2.59905 15.9461 2.84923 15.8205C3.2492 15.6197 14.7394 9.45558 14.8527 9.38105C15.2475 9.12122 15.5233 8.65984 15.5736 8.17499C15.6366 7.56676 15.3507 6.95143 14.8527 6.62372C14.7384 6.54854 3.23044 0.375024 2.85741 0.188804C2.76559 0.142968 2.64873 0.0922899 2.59771 0.0762259C2.39343 0.0118029 2.1264 -0.014723 1.91138 0.00801889ZM1.92371 1.19295C1.79377 1.23782 1.67236 1.35676 1.62367 1.48691C1.58707 1.58474 1.58676 1.6413 1.58676 8.00238C1.58676 14.4072 1.58683 14.4194 1.62445 14.5199C1.70657 14.7394 1.94095 14.8741 2.16736 14.832C2.25716 14.8153 3.3073 14.2594 8.21947 11.6279C11.4884 9.8767 14.1943 8.42114 14.2327 8.3933C14.2711 8.36547 14.3276 8.29742 14.3582 8.2421C14.4061 8.15544 14.4138 8.12223 14.4138 8.00238C14.4138 7.88125 14.4064 7.85007 14.3565 7.76124C14.3167 7.69043 14.2685 7.6384 14.1988 7.59123C14.0169 7.46793 2.30409 1.20659 2.20877 1.18166C2.08801 1.15008 2.04263 1.15188 1.92371 1.19295Z" fill="black"/>
</svg>
