<svg width="16" height="16" viewBox="0 0 16 16" fill="none" xmlns="http://www.w3.org/2000/svg">
<g clip-path="url(#clip0_58783_3163)">
<path d="M2.99951 2.49984H1.69287C1.55262 2.4938 1.41934 2.54121 1.32178 2.62581C1.22657 2.70844 1.17384 2.81809 1.1665 2.92952L1.1665 11.0692C1.17392 11.1804 1.22672 11.2895 1.32178 11.3719C1.41922 11.4564 1.55185 11.5039 1.69189 11.4979L14.3071 11.4979C14.4474 11.5039 14.5807 11.4565 14.6782 11.3719C14.7748 11.2881 14.8274 11.1764 14.8335 11.0633V2.93538C14.8276 2.82206 14.775 2.70981 14.6782 2.62581C14.5807 2.54114 14.4474 2.49381 14.3071 2.49984H13.3335C13.0574 2.49984 12.8335 2.27598 12.8335 1.99984C12.8335 1.72369 13.0574 1.49984 13.3335 1.49984H14.2642L14.4097 1.50081C14.7484 1.51807 15.0753 1.64604 15.3335 1.86995C15.6293 2.12665 15.812 2.49022 15.8325 2.88265C15.833 2.89133 15.8335 2.90032 15.8335 2.90902V11.0897C15.8335 11.0984 15.833 11.1073 15.8325 11.116C15.8117 11.5083 15.6292 11.8713 15.3335 12.1278C15.0439 12.3789 14.6679 12.5081 14.2856 12.4969L1.71436 12.4979C1.33199 12.5093 0.956199 12.3789 0.666504 12.1278C0.370553 11.8711 0.187984 11.5076 0.167481 11.1151L0.166504 11.0897L0.166504 2.90902L0.16748 2.88265C0.188052 2.49024 0.369754 2.12664 0.665527 1.86995C0.955232 1.61854 1.3318 1.48862 1.71436 1.49984L2.99951 1.49984C3.27565 1.49984 3.49951 1.72369 3.49951 1.99984C3.49951 2.27598 3.27565 2.49984 2.99951 2.49984Z" fill="black"/>
<path d="M9.99788 11.6667C10.2423 11.6667 10.4509 11.8435 10.491 12.0846L10.991 15.0846C11.0151 15.2295 10.9746 15.3778 10.8797 15.4899C10.7847 15.6021 10.6449 15.6667 10.4979 15.6667H5.49788C5.35091 15.6667 5.21105 15.6021 5.11605 15.4899C5.02116 15.3778 4.98062 15.2295 5.00472 15.0846L5.50472 12.0846L5.52718 11.9977C5.59724 11.8021 5.78385 11.6667 5.99788 11.6667H9.99788ZM6.08773 14.6667H9.90804L9.57406 12.6667H6.42171L6.08773 14.6667Z" fill="black"/>
<path d="M11.9979 14.6667C12.274 14.6667 12.4979 14.8905 12.4979 15.1667C12.4979 15.4428 12.274 15.6667 11.9979 15.6667H3.99788C3.72174 15.6667 3.49788 15.4428 3.49788 15.1667C3.49788 14.8905 3.72174 14.6667 3.99788 14.6667H11.9979Z" fill="black"/>
<path d="M7.50277 0.817505C7.50291 0.541485 7.72672 0.317509 8.00277 0.317505C8.27882 0.317505 8.50263 0.541483 8.50277 0.817505L8.50277 7.70325C8.50277 7.97939 8.27891 8.20325 8.00277 8.20325C7.72662 8.20325 7.50277 7.97939 7.50277 7.70325V0.817505Z" fill="black"/>
<path d="M4.94157 4.07532C4.7361 3.89085 4.71904 3.57474 4.90348 3.36926L7.63102 0.331177C7.72584 0.225736 7.86127 0.165161 8.00309 0.165161C8.14493 0.165236 8.28039 0.225638 8.37516 0.331177L11.1017 3.36926C11.2861 3.57465 11.2698 3.8908 11.0646 4.07532C10.8591 4.2598 10.5421 4.24271 10.3576 4.03723L8.00212 1.41418L5.64762 4.03723C5.46315 4.2427 5.14705 4.25977 4.94157 4.07532Z" fill="black"/>
</g>
<defs>
<clipPath id="clip0_58783_3163">
<rect width="16" height="16" fill="white"/>
</clipPath>
</defs>
</svg>
