<svg width="24" height="24" viewBox="0 0 24 24" fill="none" xmlns="http://www.w3.org/2000/svg">
<rect width="24" height="24" rx="4" fill="#1F63FF"/>
<path opacity="0.24" d="M10.8992 4.06289C10.383 3.84201 9.81348 4.23014 9.81348 4.80281V10.2004C9.83007 10.2058 9.84689 10.2106 9.86394 10.2148L15.4846 11.6219C15.8353 11.7096 16.082 12.0313 16.082 12.4009V15.9981L18.9857 16.9125C19.4896 17.0712 19.9997 16.6856 19.9997 16.146V9.43359C19.9997 9.06406 19.753 8.74237 19.4023 8.65458L13.7816 7.24758C13.5222 7.18262 13.3129 6.98684 13.2264 6.72815L12.6893 5.12124C12.6168 4.90422 12.4569 4.72938 12.2502 4.64091L10.8992 4.06289Z" fill="#95B5FB"/>
<path fill-rule="evenodd" clip-rule="evenodd" d="M5.89648 7.76961C5.89648 7.19693 6.46603 6.80881 6.98226 7.02969L8.33316 7.60771C8.53992 7.69617 8.69978 7.87102 8.77231 8.08803L9.30943 9.69495C9.3959 9.95364 9.60517 10.1494 9.86464 10.2144L15.4853 11.6214C15.836 11.7092 16.0827 12.0309 16.0827 12.4004V19.1128C16.0827 19.6524 15.5726 20.038 15.0687 19.8793L6.44961 17.165C6.12083 17.0614 5.89648 16.7505 5.89648 16.3984V7.76961Z" fill="white"/>
<path opacity="0.8" d="M8.94026 5.66641C8.42403 5.44553 7.85449 5.83365 7.85449 6.40633V7.40324L8.33237 7.60771C8.53912 7.69618 8.69898 7.87102 8.77152 8.08804L9.30863 9.69496C9.3951 9.95364 9.60437 10.1494 9.86385 10.2144L15.4845 11.6214C15.8352 11.7092 16.0819 12.0309 16.0819 12.4004V18.2185L17.0267 18.516C17.5306 18.6747 18.0407 18.2891 18.0407 17.7495V11.0371C18.0407 10.6676 17.794 10.3459 17.4433 10.2581L11.8227 8.85109C11.5632 8.78614 11.3539 8.59036 11.2674 8.33167L10.7303 6.72475C10.6578 6.50774 10.4979 6.33289 10.2912 6.24443L8.94026 5.66641Z" fill="#95B5FB"/>
<path fill-rule="evenodd" clip-rule="evenodd" d="M4.04598 11.6266C3.83506 11.0149 4.38396 10.4134 4.99458 10.587L13.7003 13.0621C13.9631 13.1368 14.1691 13.346 14.244 13.6145L15.8838 19.4888C15.9693 19.7948 15.6891 20.0758 15.3919 19.9822L6.2732 17.1105C6.03597 17.0358 5.84735 16.8505 5.76475 16.6109L4.04598 11.6266Z" fill="#C0D1FD"/>
<path d="M16.1719 3.98438H17.772V6.88513L18.9414 5.53451H20.8685L19.403 6.96186L20.9531 9.60938H19.1876L18.3606 7.97483L17.772 8.55037V9.60938H16.1719V3.98438Z" fill="white"/>
</svg>
