<?xml version="1.0" encoding="UTF-8"?>
<!--
  - Infomaniak kDrive - Desktop
  - Copyright (C) 2023-2024 Infomaniak Network SA
  -
  - This program is free software: you can redistribute it and/or modify
  - it under the terms of the GNU General Public License as published by
  - the Free Software Foundation, either version 3 of the License, or
  - (at your option) any later version.
  -
  - This program is distributed in the hope that it will be useful,
  - but WITHOUT ANY WARRANTY; without even the implied warranty of
  - MERCHANTABILITY or FITNESS FOR A PARTICULAR PURPOSE.  See the
  - GNU General Public License for more details.
  -
  - You should have received a copy of the GNU General Public License
  - along with this program.  If not, see <http://www.gnu.org/licenses/>.
  -->

<svg width="24px" height="24px" viewBox="0 0 24 24" version="1.1" xmlns="http://www.w3.org/2000/svg" xmlns:xlink="http://www.w3.org/1999/xlink">
    <!-- Generator: Sketch 63.1 (92452) - https://sketch.com -->
    <title>icons/actions/folder-add</title>
    <desc>Created with Sketch.</desc>
    <g id="icons/actions/folder-add" stroke="none" stroke-width="1" fill="none" fill-rule="evenodd">
        <path d="M17.5,11.0000005 C21.0880235,11.0044084 23.9955921,13.9119767 24,17.5000005 C24,21.0898502 21.0898509,24.0000005 17.5,24.0000005 C13.9101491,24.0000005 11,21.0898502 11,17.5000005 C11,13.9101493 13.9101491,11.0000005 17.5,11.0000005 Z M17.5,14.2500002 C17.0857864,14.2500002 16.75,14.5857866 16.75,15.0000001 L16.75,15.0000001 L16.75,16.4999999 C16.75,16.6380711 16.6380712,16.7500002 16.5,16.7500002 L16.5,16.7500002 L15,16.7500002 C14.5857864,16.7500002 14.25,17.0857863 14.25,17.4999998 C14.25,17.9142133 14.5857864,18.2500002 15,18.2500002 L15,18.2500002 L16.5,18.2500002 C16.6380712,18.2500002 16.75,18.3619285 16.75,18.4999996 L16.75,18.4999996 L16.75,19.9999995 C16.75,20.414213 17.0857864,20.7500002 17.5,20.7500002 C17.9142136,20.7500002 18.25,20.414213 18.25,19.9999995 L18.25,19.9999995 L18.25,18.4999996 C18.25,18.3619285 18.3619288,18.2500002 18.5,18.2500002 L18.5,18.2500002 L20,18.2500002 C20.4142136,18.2500002 20.75,17.9142133 20.75,17.4999998 C20.75,17.0857863 20.4142136,16.7500002 20,16.7500002 L20,16.7500002 L18.5,16.7500002 C18.3619288,16.7500002 18.25,16.6380711 18.25,16.4999999 L18.25,16.4999999 L18.25,15.0000001 C18.25,14.5857866 17.9142136,14.2500002 17.5,14.2500002 Z M7.38,9.35616983e-07 C8.13841209,-0.000730608653 8.83198999,0.427575961 9.171,1.10600174 L9.171,1.10600174 L9.98,2.72400155 C10.0647713,2.89317198 10.2377784,3.00000094 10.427,3.00000094 L10.427,3.00000094 L19.5,3.00000094 C20.6045695,3.00000094 21.5,3.89543191 21.5,5.00000094 L21.5,5.00000094 L21.5,10.1700006 C21.5003119,10.2563068 21.4550067,10.3363569 21.3808547,10.3805194 C21.3067027,10.424682 21.2147371,10.426386 21.139,10.3850006 C20.6724071,10.1463501 20.1833617,9.9544166 19.679,9.81200069 C19.5736169,9.78358695 19.5002959,9.6881467 19.5,9.57900072 L19.5,9.57900072 L19.5,5.50000094 C19.5,5.22385887 19.2761424,5.00000094 19,5.00000094 L19,5.00000094 L10.118,5.00000094 C9.36200212,5.0007355 8.67019885,4.57512951 8.33,3.9000014 L8.33,3.9000014 L7.52,2.2760016 C7.43522872,2.10683116 7.2622216,2.00000094 7.073,2.00000094 L7.073,2.00000094 L2.5,2.00000094 C2.22385763,2.00000094 2,2.22385923 2,2.50000094 L2,2.50000094 L2,16.0000009 C2,16.2761423 2.22385763,16.5000009 2.5,16.5000009 L2.5,16.5000009 L9.3,16.5000009 C9.36761175,16.4985628 9.43281053,16.5251364 9.48015428,16.5734271 C9.52749802,16.6217177 9.55277556,16.6874298 9.55,16.7549999 C9.532,17.1589998 9.532,17.8449997 9.55,18.2449997 C9.55277556,18.3125697 9.52749802,18.3782819 9.48015428,18.4265725 C9.43281053,18.4748631 9.36761175,18.5014368 9.3,18.5000551 L9.3,18.5000551 L2,18.5000551 C0.8954305,18.5000551 0,17.6045693 0,16.5000009 L0,16.5000009 L0,2.00000094 C0,0.895432266 0.8954305,9.35616983e-07 2,9.35616983e-07 L2,9.35616983e-07 Z" id="Combined-Shape" fill="#000000" fill-rule="nonzero"></path>
    </g>
</svg>