<?xml version="1.0" encoding="UTF-8"?>
<!--
  - Infomaniak kDrive - Desktop
  - Copyright (C) 2023-2024 Infomaniak Network SA
  -
  - This program is free software: you can redistribute it and/or modify
  - it under the terms of the GNU General Public License as published by
  - the Free Software Foundation, either version 3 of the License, or
  - (at your option) any later version.
  -
  - This program is distributed in the hope that it will be useful,
  - but WITHOUT ANY WARRANTY; without even the implied warranty of
  - MERCHANTABILITY or FITNESS FOR A PARTICULAR PURPOSE.  See the
  - GNU General Public License for more details.
  -
  - You should have received a copy of the GNU General Public License
  - along with this program.  If not, see <http://www.gnu.org/licenses/>.
  -->

<svg width="24px" height="24px" viewBox="0 0 24 24" version="1.1" xmlns="http://www.w3.org/2000/svg" xmlns:xlink="http://www.w3.org/1999/xlink">
    <title>icons/folder-computer</title>
    <g id="icons/folder-computer" stroke="none" stroke-width="1" fill="none" fill-rule="evenodd">
        <path d="M8.5,2.00001471 C9.06753168,1.99750288 9.58748755,2.31675996 9.842,2.82402838 L9.842,2.82402838 L10.789,4.72402557 C10.8737713,4.89319578 11.0467784,5.00001471 11.236,5.00002516 L11.236,5.00002516 L22.5,5.00002516 C23.3284271,5.00002516 24,5.67159704 24,6.50001471 L24,6.50001471 L24,20.5000022 C24,21.3284281 23.3284271,22 22.5,22 L22.5,22 L1.5,22 C0.671572875,22 0,21.3284281 0,20.5000022 L0,20.5000022 L0,3.50002738 C0,2.67160148 0.671572875,2.00001471 1.5,2.00001471 L1.5,2.00001471 Z M15.9375,9.60001835 L8.0625,9.60001835 C7.75183983,9.60001835 7.5,9.85185781 7.5,10.1625175 L7.5,15.7875092 C7.5,16.0981689 7.75183983,16.3500084 8.0625,16.3500084 L11.15625,16.3500084 C11.2080267,16.3500084 11.25,16.3919816 11.25,16.4437582 L11.25,17.4502567 C11.2501324,17.4977186 11.2146392,17.5377291 11.1675,17.5432566 C10.697333,17.5939943 10.2358781,17.706332 9.795,17.8773811 C9.62828913,17.9448253 9.53292853,18.1211234 9.56772187,18.297562 C9.60251521,18.4740007 9.75766549,18.6008987 9.9375,18.6000184 L14.0625,18.6000184 C14.2417594,18.5999112 14.3958846,18.4729625 14.4303198,18.2970419 C14.464755,18.1211213 14.3698692,17.9454306 14.203875,17.8777561 C13.7628767,17.706605 13.3013009,17.5941426 12.831,17.5432566 C12.7839446,17.5375689 12.7485367,17.4976546 12.7485,17.4502567 L12.7485,16.4437582 C12.7485,16.3919816 12.7904733,16.3500084 12.84225,16.3500084 L15.9375,16.3500084 C16.2481602,16.3500084 16.5,16.0981689 16.5,15.7875092 L16.5,10.1625175 C16.5,9.85185781 16.2481602,9.60001835 15.9375,9.60001835 Z M15.5625,10.3500172 C15.6660534,10.3500172 15.75,10.4339637 15.75,10.537517 L15.75,14.6625109 C15.75,14.7660641 15.6660534,14.8500172 15.5625,14.8500172 L8.4375,14.8500172 C8.33394661,14.8500172 8.25,14.7660641 8.25,14.6625109 L8.25,10.537517 C8.25,10.4339637 8.33394661,10.3500172 8.4375,10.3500172 L15.5625,10.3500172 Z" id="Mask" fill="#9F9F9F"></path>
    </g>
</svg>