<?xml version="1.0" encoding="UTF-8"?>
<!--
  - Infomaniak kDrive - Desktop
  - Copyright (C) 2023-2024 Infomaniak Network SA
  -
  - This program is free software: you can redistribute it and/or modify
  - it under the terms of the GNU General Public License as published by
  - the Free Software Foundation, either version 3 of the License, or
  - (at your option) any later version.
  -
  - This program is distributed in the hope that it will be useful,
  - but WITHOUT ANY WARRANTY; without even the implied warranty of
  - MERCHANTABILITY or FITNESS FOR A PARTICULAR PURPOSE.  See the
  - GNU General Public License for more details.
  -
  - You should have received a copy of the GNU General Public License
  - along with this program.  If not, see <http://www.gnu.org/licenses/>.
  -->

<svg width="24px" height="24px" viewBox="0 0 24 24" version="1.1" xmlns="http://www.w3.org/2000/svg" xmlns:xlink="http://www.w3.org/1999/xlink">
    <!-- Generator: Sketch 63.1 (92452) - https://sketch.com -->
    <title>icons/actions/folder-select</title>
    <desc>Created with Sketch.</desc>
    <defs>
        <path d="M8.5,-1.48884273e-05 C9.06753168,-0.00252672478 9.58748755,0.316730829 9.842,0.824 L9.842,0.824 L10.789,2.724 C10.8737713,2.89317046 11.0467784,2.99998511 11.236,3 L11.236,3 L22.5,3 C23.3284271,3 24,3.67157288 24,4.5 L24,4.5 L24,18.5 C24,19.3284271 23.3284271,20 22.5,20 L22.5,20 L1.5,20 C0.671572875,20 0,19.3284271 0,18.5 L0,18.5 L0,1.5 C0,0.671572875 0.671572875,-1.48884273e-05 1.5,-1.48884273e-05 L1.5,-1.48884273e-05 Z M14.9196727,8.14816101 C14.7328638,8.22553297 14.6110432,8.40780205 14.611,8.61 L14.611,10.124 C14.611,10.1930356 14.5550356,10.249 14.486,10.249 L6.75,10.249 C6.33578645,10.249 6.00000002,10.5847864 6.00000002,10.999 C6.00000002,11.4132136 6.33578645,11.749 6.75,11.749 L14.486,11.749 C14.5550356,11.749 14.611,11.8049644 14.611,11.874 L14.611,13.388 C14.6110432,13.5901979 14.7328638,13.772467 14.9196727,13.849839 C15.1064817,13.927211 15.3215029,13.884454 15.4645,13.7415 L17.8535,11.3525 C18.048691,11.1572501 18.048691,10.8407499 17.8535,10.6455 L15.4645,8.2565 C15.3215029,8.11354604 15.1064817,8.07078905 14.9196727,8.14816101 Z" id="path-1"></path>
    </defs>
    <g id="icons/actions/folder-select" stroke="none" stroke-width="1" fill="none" fill-rule="evenodd">
        <g id="Icons/icon-20px" transform="translate(0.000000, 2.000000)">
            <g id="icon">
                <mask id="mask-2" fill="white">
                    <use xlink:href="#path-1"></use>
                </mask>
                <use id="Combined-Shape" fill="#000000" xlink:href="#path-1"></use>
            </g>
        </g>
    </g>
</svg>