<?xml version="1.0" encoding="UTF-8"?>
<!--
  - Infomaniak kDrive - Desktop
  - Copyright (C) 2023-2024 Infomaniak Network SA
  -
  - This program is free software: you can redistribute it and/or modify
  - it under the terms of the GNU General Public License as published by
  - the Free Software Foundation, either version 3 of the License, or
  - (at your option) any later version.
  -
  - This program is distributed in the hope that it will be useful,
  - but WITHOUT ANY WARRANTY; without even the implied warranty of
  - MERCHANTABILITY or FITNESS FOR A PARTICULAR PURPOSE.  See the
  - GNU General Public License for more details.
  -
  - You should have received a copy of the GNU General Public License
  - along with this program.  If not, see <http://www.gnu.org/licenses/>.
  -->

<svg width="24px" height="24px" viewBox="0 0 24 24" version="1.1" xmlns="http://www.w3.org/2000/svg" xmlns:xlink="http://www.w3.org/1999/xlink">
    <title>icons/folder-folder-drive</title>
    <g id="icons/folder-folder-drive" stroke="none" stroke-width="1" fill="none" fill-rule="evenodd">
        <path d="M8.5,2.00001471 C9.06753168,1.99750288 9.58748755,2.31675996 9.842,2.82402838 L9.842,2.82402838 L10.789,4.72402557 C10.8737713,4.89319578 11.0467784,5.00001471 11.236,5.00002516 L11.236,5.00002516 L22.5,5.00002516 C23.3284271,5.00002516 24,5.67159704 24,6.50001471 L24,6.50001471 L24,20.5000022 C24,21.3284281 23.3284271,22 22.5,22 L22.5,22 L1.5,22 C0.671572875,22 0,21.3284281 0,20.5000022 L0,20.5000022 L0,3.50002738 C0,2.67160148 0.671572875,2.00001471 1.5,2.00001471 L1.5,2.00001471 Z M15.5625,14.569136 L8.4375,14.569136 L8.33586077,14.5762519 C7.97027359,14.6267615 7.68863259,14.9399098 7.6875,15.3191349 L7.6875,15.3191349 L7.6875,16.8191327 L7.69466056,16.92075 C7.74531049,17.2862556 8.05835238,17.5678118 8.4375,17.569136 L8.4375,17.569136 L15.5625,17.569136 L15.6641392,17.562019 C16.0297264,17.511506 16.3113674,17.1983577 16.3125,16.8191327 L16.3125,16.8191327 L16.3125,15.3191349 L16.3054287,15.217474 C16.2550596,14.8518063 15.9418038,14.5700807 15.5625,14.569136 L15.5625,14.569136 Z M15.1875,16.1625086 C15.3428301,16.1625086 15.46875,16.2884284 15.46875,16.4437582 C15.46875,16.5990881 15.3428301,16.7250078 15.1875,16.7250078 L15.1875,16.7250078 L8.8125,16.7250078 L8.74801196,16.7175798 C8.62376259,16.6884305 8.53125,16.5768981 8.53125,16.4437582 C8.53125,16.2884284 8.65716991,16.1625086 8.8125,16.1625086 L8.8125,16.1625086 Z M15,14.9441354 C15.2071068,14.9441354 15.375,15.1120284 15.375,15.3191349 C15.375,15.5262414 15.2071068,15.6941343 15,15.6941343 C14.7928932,15.6941343 14.625,15.5262414 14.625,15.3191349 C14.625,15.1120284 14.7928932,14.9441354 15,14.9441354 Z M14.4375,10.6316418 L9.5625,10.6316418 L9.43357261,10.6423867 C8.96714895,10.7065638 8.57566688,11.0390361 8.441625,11.4986405 L8.441625,11.4986405 L7.8075,14.0010118 L7.80518405,14.0356782 C7.80794929,14.0584867 7.81909218,14.0799243 7.83716803,14.0953951 C7.86428182,14.1186012 7.90225183,14.1243227 7.935,14.1101367 C8.09375677,14.0419448 8.26471734,14.0067321 8.4375,14.0066368 L8.4375,14.0066368 L15.5625,14.0066368 L15.6915831,14.0132594 C15.8200002,14.0263996 15.9459324,14.0589928 16.065,14.1101367 C16.0977482,14.1243227 16.1357182,14.1186012 16.162832,14.0953951 C16.1899457,14.0721889 16.2014603,14.0355574 16.1925,14.0010118 L16.1925,14.0010118 L15.55875,11.4986405 L15.5159337,11.3765219 C15.3365321,10.9410968 14.9161695,10.6457247 14.4375,10.6316418 L14.4375,10.6316418 Z" id="Combined-Shape" fill="#5287FF" fill-rule="nonzero"></path>
    </g>
</svg>