<!--
  - Infomaniak kDrive - Desktop
  - Copyright (C) 2023-2025 Infomaniak Network SA
  -
  - This program is free software: you can redistribute it and/or modify
  - it under the terms of the GNU General Public License as published by
  - the Free Software Foundation, either version 3 of the License, or
  - (at your option) any later version.
  -
  - This program is distributed in the hope that it will be useful,
  - but WITHOUT ANY WARRANTY; without even the implied warranty of
  - MERCHANTABILITY or FITNESS FOR A PARTICULAR PURPOSE.  See the
  - GNU General Public License for more details.
  -
  - You should have received a copy of the GNU General Public License
  - along with this program.  If not, see <http://www.gnu.org/licenses/>.
  -->

<svg width="16" height="16" viewBox="0 0 16 16" fill="none" xmlns="http://www.w3.org/2000/svg">
<path d="M4.1111 5.66853C4.27555 5.55865 4.46889 5.5 4.66667 5.5C4.93188 5.5 5.18624 5.60536 5.37377 5.79289C5.56131 5.98043 5.66667 6.23478 5.66667 6.5C5.66667 6.69778 5.60802 6.89112 5.49814 7.05557C5.38826 7.22002 5.23208 7.34819 5.04935 7.42388C4.86662 7.49957 4.66556 7.51937 4.47158 7.48078C4.2776 7.4422 4.09941 7.34696 3.95956 7.20711C3.81971 7.06726 3.72447 6.88907 3.68588 6.69509C3.6473 6.50111 3.6671 6.30004 3.74279 6.11732C3.81848 5.93459 3.94665 5.77841 4.1111 5.66853Z" fill="#666666"/>
<path d="M8 5.5C7.80222 5.5 7.60888 5.55865 7.44443 5.66853C7.27998 5.77841 7.15181 5.93459 7.07612 6.11732C7.00043 6.30004 6.98063 6.50111 7.01922 6.69509C7.0578 6.88907 7.15304 7.06726 7.29289 7.20711C7.43274 7.34696 7.61093 7.4422 7.80491 7.48078C7.99889 7.51937 8.19996 7.49957 8.38268 7.42388C8.56541 7.34819 8.72159 7.22002 8.83147 7.05557C8.94135 6.89112 9 6.69778 9 6.5C9 6.23478 8.89464 5.98043 8.70711 5.79289C8.51957 5.60536 8.26522 5.5 8 5.5Z" fill="#666666"/>
<path d="M10.7778 5.66853C10.9422 5.55865 11.1356 5.5 11.3333 5.5C11.5986 5.5 11.8529 5.60536 12.0404 5.79289C12.228 5.98043 12.3333 6.23478 12.3333 6.5C12.3333 6.69778 12.2747 6.89112 12.1648 7.05557C12.0549 7.22002 11.8987 7.34819 11.716 7.42388C11.5333 7.49957 11.3322 7.51937 11.1382 7.48078C10.9443 7.4422 10.7661 7.34696 10.6262 7.20711C10.4864 7.06726 10.3911 6.88907 10.3525 6.69509C10.314 6.50111 10.3338 6.30004 10.4095 6.11732C10.4851 5.93459 10.6133 5.77841 10.7778 5.66853Z" fill="#666666"/>
<path fill-rule="evenodd" clip-rule="evenodd" d="M1.5 0C1.10218 0 0.720644 0.158035 0.43934 0.43934C0.158035 0.720644 0 1.10218 0 1.5V11.5C0 11.8978 0.158036 12.2794 0.43934 12.5607C0.720644 12.842 1.10217 13 1.5 13H3V15.5C3 15.6894 3.107 15.8625 3.27639 15.9472C3.44579 16.0319 3.64849 16.0136 3.8 15.9L7.66667 13H14.5C14.8978 13 15.2794 12.842 15.5607 12.5607C15.842 12.2794 16 11.8978 16 11.5V1.5C16 1.10217 15.842 0.720644 15.5607 0.43934C15.2794 0.158036 14.8978 0 14.5 0H1.5ZM1.14645 1.14645C1.24021 1.05268 1.36739 1 1.5 1H14.5C14.6326 1 14.7598 1.05268 14.8536 1.14645C14.9473 1.24022 15 1.36739 15 1.5V11.5C15 11.6326 14.9473 11.7598 14.8536 11.8536C14.7598 11.9473 14.6326 12 14.5 12H7.5C7.39182 12 7.28655 12.0351 7.2 12.1L4 14.5V12.5C4 12.2239 3.77614 12 3.5 12H1.5C1.36739 12 1.24022 11.9473 1.14645 11.8536C1.05268 11.7598 1 11.6326 1 11.5V1.5C1 1.36739 1.05268 1.24021 1.14645 1.14645Z" fill="#666666"/>
</svg>
