<?xml version="1.0" encoding="utf-8"?>
<!--
  - Infomaniak kDrive - Desktop
  - Copyright (C) 2023-2024 Infomaniak Network SA
  -
  - This program is free software: you can redistribute it and/or modify
  - it under the terms of the GNU General Public License as published by
  - the Free Software Foundation, either version 3 of the License, or
  - (at your option) any later version.
  -
  - This program is distributed in the hope that it will be useful,
  - but WITHOUT ANY WARRANTY; without even the implied warranty of
  - MERCHANTABILITY or FITNESS FOR A PARTICULAR PURPOSE.  See the
  - GNU General Public License for more details.
  -
  - You should have received a copy of the GNU General Public License
  - along with this program.  If not, see <http://www.gnu.org/licenses/>.
  -->

<!-- Generator: Adobe Illustrator 23.1.1, SVG Export Plug-In . SVG Version: 6.00 Build 0)  -->
<svg version="1.1"
	 id="Calque_1" xmlns:cc="http://creativecommons.org/ns#" xmlns:dc="http://purl.org/dc/elements/1.1/" xmlns:rdf="http://www.w3.org/1999/02/22-rdf-syntax-ns#"
	 xmlns="http://www.w3.org/2000/svg" xmlns:xlink="http://www.w3.org/1999/xlink" x="0px" y="0px" viewBox="0 0 16 16"
	 style="enable-background:new 0 0 16 16;" xml:space="preserve">
<style type="text/css">
	.st0{fill-opacity:0;}
	.st1{fill-rule:evenodd;clip-rule:evenodd;fill:#666666;}
</style>
<rect x="-62.9" y="-33" class="st0" width="163.3" height="98"/>
<path class="st1" d="M3,6C1.9,6,1,6.9,1,8s0.9,2,2,2s2-0.9,2-2S4.1,6,3,6z M8,6C6.9,6,6,6.9,6,8s0.9,2,2,2s2-0.9,2-2S9.1,6,8,6z
	 M13,6c-1.1,0-2,0.9-2,2s0.9,2,2,2s2-0.9,2-2S14.1,6,13,6z"/>
</svg>
