<?xml version="1.0" encoding="UTF-8"?>
<!--
  - Infomaniak kDrive - Desktop
  - Copyright (C) 2023-2024 Infomaniak Network SA
  -
  - This program is free software: you can redistribute it and/or modify
  - it under the terms of the GNU General Public License as published by
  - the Free Software Foundation, either version 3 of the License, or
  - (at your option) any later version.
  -
  - This program is distributed in the hope that it will be useful,
  - but WITHOUT ANY WARRANTY; without even the implied warranty of
  - MERCHANTABILITY or FITNESS FOR A PARTICULAR PURPOSE.  See the
  - GNU General Public License for more details.
  -
  - You should have received a copy of the GNU General Public License
  - along with this program.  If not, see <http://www.gnu.org/licenses/>.
  -->

<svg width="28px" height="28px" viewBox="0 0 28 28" version="1.1" xmlns="http://www.w3.org/2000/svg" xmlns:xlink="http://www.w3.org/1999/xlink">
    <title>step-2</title>
    <g id="Assistant" stroke="none" stroke-width="1" fill="none" fill-rule="evenodd">
        <g id="Drive---App-Desktop---Autorisations" transform="translate(-347.000000, -597.000000)">
            <g id="app" transform="translate(307.000000, 260.000000)">
                <g id="Group-4" transform="translate(40.000000, 205.000000)">
                    <g id="Group-3-Copy" transform="translate(0.000000, 128.000000)">
                        <g id="step-2" transform="translate(0.000000, 4.000000)">
                            <circle id="Oval" fill="#0098FF" cx="14" cy="14" r="14"></circle>
                            <path d="M17.308,19.332 L17.308,18.142 L11.736,18.142 C14.578,16.098 17.028,14.012 17.028,11.66 C17.028,9.952 15.684,9 13.808,9 C11.652,9 10.252,10.33 10.28,12.346 L11.596,12.346 C11.624,10.666 12.688,10.064 13.78,10.064 C14.984,10.064 15.684,10.778 15.684,11.828 C15.684,13.62 13.584,15.538 10,18.184 L10,19.332 L17.308,19.332 Z" id="2" fill="#FFFFFF" fill-rule="nonzero"></path>
                        </g>
                    </g>
                </g>
            </g>
        </g>
    </g>
</svg>