<?xml version="1.0" encoding="UTF-8"?>
<!--
  - Infomaniak kDrive - Desktop
  - Copyright (C) 2023-2024 Infomaniak Network SA
  -
  - This program is free software: you can redistribute it and/or modify
  - it under the terms of the GNU General Public License as published by
  - the Free Software Foundation, either version 3 of the License, or
  - (at your option) any later version.
  -
  - This program is distributed in the hope that it will be useful,
  - but WITHOUT ANY WARRANTY; without even the implied warranty of
  - MERCHANTABILITY or FITNESS FOR A PARTICULAR PURPOSE.  See the
  - GNU General Public License for more details.
  -
  - You should have received a copy of the GNU General Public License
  - along with this program.  If not, see <http://www.gnu.org/licenses/>.
  -->

<svg width="28px" height="28px" viewBox="0 0 28 28" version="1.1" xmlns="http://www.w3.org/2000/svg" xmlns:xlink="http://www.w3.org/1999/xlink">
    <title>3</title>
    <g id="Assistant" stroke="none" stroke-width="1" fill="none" fill-rule="evenodd">
        <g id="Drive---App-Desktop---Autorisations" transform="translate(-347.000000, -830.000000)">
            <g id="app" transform="translate(307.000000, 260.000000)">
                <g id="Group-4-Copy" transform="translate(40.000000, 411.000000)">
                    <g id="Group-3-Copy" transform="translate(0.000000, 67.000000)">
                        <g id="3" transform="translate(0.000000, 92.000000)">
                            <circle id="Oval" fill="#0098FF" cx="14" cy="14" r="14"></circle>
                            <path d="M16.135,16.158 C16.135,17.418 15.183,18.118 13.839,18.118 C12.411,18.118 11.669,17.25 11.529,16.004 L10.213,16.004 C10.353,17.698 11.445,19.182 13.825,19.182 C15.757,19.182 17.493,18.188 17.493,16.144 C17.493,15.08 17.073,14.072 15.561,13.596 C16.625,13.162 17.213,12.28 17.213,11.244 C17.213,9.368 15.687,8.668 13.923,8.668 C11.795,8.668 10.521,9.914 10.367,11.706 L11.683,11.706 C11.795,10.558 12.537,9.732 13.895,9.732 C14.973,9.732 15.869,10.292 15.869,11.384 C15.869,12.574 14.931,13.064 13.167,13.064 L12.999,13.064 L12.999,14.226 L13.209,14.226 C14.833,14.226 16.135,14.702 16.135,16.158 Z" id="Path" fill="#FFFFFF" fill-rule="nonzero"></path>
                        </g>
                    </g>
                </g>
            </g>
        </g>
    </g>
</svg>