<?xml version="1.0" encoding="UTF-8"?>
<!--
  - Infomaniak kDrive - Desktop
  - Copyright (C) 2023-2024 Infomaniak Network SA
  -
  - This program is free software: you can redistribute it and/or modify
  - it under the terms of the GNU General Public License as published by
  - the Free Software Foundation, either version 3 of the License, or
  - (at your option) any later version.
  -
  - This program is distributed in the hope that it will be useful,
  - but WITHOUT ANY WARRANTY; without even the implied warranty of
  - MERCHANTABILITY or FITNESS FOR A PARTICULAR PURPOSE.  See the
  - GNU General Public License for more details.
  -
  - You should have received a copy of the GNU General Public License
  - along with this program.  If not, see <http://www.gnu.org/licenses/>.
  -->

<svg width="24px" height="24px" viewBox="0 0 24 24" version="1.1" xmlns="http://www.w3.org/2000/svg" xmlns:xlink="http://www.w3.org/1999/xlink">
    <!-- Generator: Sketch 63.1 (92452) - https://sketch.com -->
    <title>icons/actions/sync-circle</title>
    <desc>Created with Sketch.</desc>
    <defs>
        <path d="M12,-3.19744231e-14 C18.627417,-3.19744231e-14 24,5.372583 24,12 C24,18.627417 18.627417,24 12,24 C5.37568201,23.9925243 0.00747569045,18.624318 2.23820962e-13,12 C2.23820962e-13,5.372583 5.372583,-3.19744231e-14 12,-3.19744231e-14 Z M18.8579399,9.028136 C18.6208891,8.99643657 18.3775608,9.08514151 18.2112068,9.26611452 L18.2112068,9.26611452 L15.5281145,12.1178207 C15.3303678,12.3277744 15.2663994,12.6318347 15.3619956,12.9045386 C15.4581971,13.1789697 15.7000425,13.3759626 15.9877706,13.4120177 L15.9877706,13.4120177 L17.2011799,13.5595084 C16.5396744,15.2584877 15.1140132,16.5361097 13.3646988,16.9851092 C11.4849044,17.4381024 9.50652429,16.8000257 8.22276851,15.3226069 C7.91309708,14.9497979 7.41916726,14.7732172 6.93805967,14.8687896 C6.45798046,14.9641578 6.06753225,15.3152153 5.91679563,15.7848977 C5.76654858,16.2530546 5.8774891,16.7671266 6.20759089,17.1293308 C8.14287138,19.3570243 11.1389031,20.3232787 13.9942761,19.6348466 C16.839392,18.9105985 19.0949962,16.7306419 19.9514102,13.8953614 L19.9514102,13.8953614 L20.6204073,13.9769844 C20.6722924,13.9811959 20.7059856,13.9811959 20.7395489,13.9787646 C20.9682567,13.9809997 21.2086057,13.8512581 21.3505804,13.6355303 L21.3505804,13.6355303 C21.5093768,13.3906181 21.5181115,13.0793015 21.3746814,12.8279833 L21.3746814,12.8279833 L19.431997,9.4088946 C19.3106323,9.19720522 19.0982322,9.05616272 18.8579399,9.028136 Z M18.1218843,6.41398355 C16.1816563,4.17953532 13.1856691,3.21287512 10.3303383,3.90135971 C7.48943029,4.62628249 5.23651505,6.80151395 4.37699655,9.6314272 L4.37699655,9.6314272 L3.72813991,9.54843106 C3.43931739,9.51070223 3.15447891,9.64446178 2.99643837,9.89105424 C2.83978858,10.1285869 2.82872362,10.4399322 2.97033906,10.6923823 L2.97033906,10.6923823 L4.89473571,14.1223823 C5.01393168,14.3341746 5.22515988,14.4769177 5.46518404,14.5069099 C5.51853877,14.511318 5.55300945,14.511318 5.58734341,14.5087957 C5.76782503,14.5097947 5.96647757,14.424307 6.11026469,14.273535 L6.11026469,14.273535 L8.81285379,11.435009 C9.01268984,11.224937 9.07780946,10.9196756 8.98203058,10.6458013 C8.88564503,10.3701923 8.64243022,10.1726357 8.35341497,10.1374539 L8.35341497,10.1374539 L7.12231893,9.9828747 C7.78569734,8.28229286 9.20945504,7.00540334 10.9567297,6.55408898 C12.8408691,6.10022787 14.8181638,6.73819658 16.1010323,8.21512698 C16.5944383,8.78169038 17.4487234,8.83458968 18.0063491,8.33291773 C18.5604559,7.83441164 18.6118729,6.97662241 18.1218843,6.41398355 Z" id="path-1"></path>
    </defs>
    <g id="icons/actions/sync-circle" stroke="none" stroke-width="1" fill="none" fill-rule="evenodd">
        <mask id="mask-2" fill="white">
            <use xlink:href="#path-1"></use>
        </mask>
        <use id="path" fill="#000000" xlink:href="#path-1"></use>
    </g>
</svg>