<?xml version="1.0" encoding="UTF-8"?>
<!--
  - Infomaniak kDrive - Desktop
  - Copyright (C) 2023-2024 Infomaniak Network SA
  -
  - This program is free software: you can redistribute it and/or modify
  - it under the terms of the GNU General Public License as published by
  - the Free Software Foundation, either version 3 of the License, or
  - (at your option) any later version.
  -
  - This program is distributed in the hope that it will be useful,
  - but WITHOUT ANY WARRANTY; without even the implied warranty of
  - MERCHANTABILITY or FITNESS FOR A PARTICULAR PURPOSE.  See the
  - GNU General Public License for more details.
  -
  - You should have received a copy of the GNU General Public License
  - along with this program.  If not, see <http://www.gnu.org/licenses/>.
  -->

<svg width="24px" height="24px" viewBox="0 0 24 24" version="1.1" xmlns="http://www.w3.org/2000/svg" xmlns:xlink="http://www.w3.org/1999/xlink">
    <!-- Generator: Sketch 63.1 (92452) - https://sketch.com -->
    <title>icons/actions/webview</title>
    <desc>Created with Sketch.</desc>
    <g id="icons/actions/webview" stroke="none" stroke-width="1" fill="none" fill-rule="evenodd">
        <path d="M18.791006,11.0486982 C18.9626421,10.9662566 19.1659679,10.9875162 19.3169147,11.1036867 L19.3169147,11.1036867 L23.8075959,14.6019579 C23.9290034,14.6966743 24,14.8422134 24,14.9963758 C24,15.1505382 23.9290034,15.2960773 23.8075959,15.3907936 L23.8075959,15.3907936 L19.3169147,18.8900646 C19.166583,19.0072259 18.9627905,19.0284267 18.7916389,18.9447098 C18.6204873,18.8609928 18.5118345,18.6869627 18.5115858,18.4961466 L18.5115858,18.4961466 L18.5115858,16.252614 C18.511405,16.1841828 18.4832275,16.1188185 18.4336272,16.0717709 C18.3840269,16.0247232 18.317342,16.0001072 18.2491305,16.0036659 C15.6004819,16.1464626 13.524996,18.3381962 13.5219401,20.9956259 L13.5219401,20.9956259 L13.5219401,23.0002083 C13.5219401,23.552378 13.075152,24 12.5240109,24 C11.9728698,24 11.5260817,23.552378 11.5260817,23.0002083 L11.5260817,23.0002083 L11.5260817,21.0006249 C11.5285005,17.2298758 14.5087759,14.1371168 18.270087,14.0020829 C18.4047448,13.9977636 18.5116548,13.8871132 18.5115858,13.752135 L18.5115858,13.752135 L18.5115858,11.4986045 C18.511204,11.3074467 18.619666,11.1328074 18.791006,11.0486982 Z M20.9565123,1.77635684e-15 C22.6099354,1.77635684e-15 23.9503115,1.34286599 23.9503115,2.99937513 L23.9503115,2.99937513 L23.9503115,10.0459071 C23.9521405,10.4229354 23.7385282,10.7677847 23.4004948,10.933496 C23.0624613,11.0992072 22.6596001,11.0565664 22.3635924,10.8237451 L22.3635924,10.8237451 L22.3416379,10.8057488 C22.1012144,10.6193986 21.9586767,10.3334231 21.9544414,10.0289106 L21.9544414,10.0289106 L21.9544414,5.24890648 C21.9544414,5.11086405 21.8427444,4.99895855 21.7049591,4.99895855 L21.7049591,4.99895855 L2.2453406,4.99895855 C2.17831149,4.99788337 2.11367079,5.02387944 2.06598722,5.07108777 C2.01830364,5.1182961 1.99158985,5.18274402 1.99186659,5.24990627 L1.99186659,5.24990627 L1.99186659,17.4973547 C1.99186659,18.0495244 2.4386547,18.4971464 2.98979575,18.4971464 L2.98979575,18.4971464 L8.27882027,18.4971464 C8.72272907,18.4909658 9.11393092,18.7881088 9.2278509,19.2179963 L9.2278509,19.2179963 L9.23084469,19.2399917 C9.30943902,19.5371522 9.24721172,19.8540163 9.06210974,20.0991973 C8.87700777,20.3443784 8.58961266,20.4906146 8.28281199,20.4957301 L8.28281199,20.4957301 L2.99378747,20.4957301 C1.3403643,20.4957301 3.19744231e-14,19.1528641 3.19744231e-14,17.4963549 L3.19744231e-14,17.4963549 L3.19744231e-14,2.99937513 C3.19744231e-14,1.34286599 1.3403643,1.77635684e-15 2.99378747,1.77635684e-15 L2.99378747,1.77635684e-15 Z M10.4787551,1.50015592 C10.1274221,1.50015592 9.80384995,1.69145675 9.63400807,1.99958342 C9.53800088,2.14894648 9.48483592,2.32188215 9.48032698,2.49947928 C9.48483592,2.6770764 9.53800088,2.85001207 9.63400807,2.99937513 C9.80384995,3.3075018 10.1274221,3.49880263 10.4787551,3.49880263 C10.8300881,3.49880263 11.1536602,3.3075018 11.3235021,2.99937513 C11.4187851,2.84973613 11.47157,2.67691438 11.4761853,2.49947928 C11.47157,2.32204417 11.4187851,2.14922242 11.3235021,1.99958342 C11.1536602,1.69145675 10.8300881,1.50015592 10.4787551,1.50015592 Z M6.98600305,1.50015592 C6.63467003,1.50015592 6.31109791,1.69145675 6.14125602,1.99958342 C6.04524883,2.14894648 5.99208388,2.32188215 5.98757493,2.49947928 C5.99208388,2.6770764 6.04524883,2.85001207 6.14125602,2.99937513 C6.31109791,3.3075018 6.63467003,3.49880263 6.98600305,3.49880263 C7.33733608,3.49880263 7.6609082,3.3075018 7.83075008,2.99937513 C7.92603304,2.84973613 7.97881798,2.67691438 7.98343324,2.49947928 C7.97881798,2.32204417 7.92603304,2.14922242 7.83075008,1.99958342 C7.6609082,1.69145675 7.33733608,1.50015592 6.98600305,1.50015592 Z M3.43385221,1.50159791 C3.06253064,1.52109954 2.73429062,1.74967134 2.58663237,2.09156426 L2.58663237,2.09156426 C2.52719757,2.22001652 2.49588323,2.35880697 2.49482289,2.49947928 C2.49933183,2.6770764 2.55249679,2.85001207 2.64850398,2.99937513 C2.81834587,3.3075018 3.14191798,3.49880263 3.49325101,3.49880263 C3.84458404,3.49880263 4.16815615,3.3075018 4.33799804,2.99937513 C4.433281,2.84973613 4.48606594,2.67691438 4.4906812,2.49947928 C4.48606594,2.32204417 4.433281,2.14922242 4.33799804,1.99958342 C4.15546875,1.67503178 3.80517379,1.48209629 3.43385221,1.50159791 Z" id="path" fill="#000000" fill-rule="nonzero"></path>
    </g>
</svg>