<svg width="24" height="24" fill="none" xmlns="http://www.w3.org/2000/svg"><path d="M3.5 24c-.827 0-1.5-.673-1.5-1.5v-21C2 .673 2.673 0 3.5 0h13.293c.401 0 .777.156 1.061.439l3.707 3.707c.283.284.439.661.439 1.061V22.5c0 .827-.673 1.5-1.5 1.5h-17Zm0-23c-.276 0-.5.224-.5.5v21c0 .276.224.5.5.5h17c.276 0 .5-.224.5-.5V5.207a.501.501 0 0 0-.146-.354l-3.707-3.707A.5054.5054 0 0 0 16.793 1H3.5Z" fill="#000"/><path d="M9.5 20c-.276 0-.5-.224-.5-.5s.224-.5.5-.5H11v-9H8v1.5c0 .276-.224.5-.5.5s-.5-.224-.5-.5V10c0-.551.449-1 1-1h7c.552 0 1 .449 1 1v1.5c0 .276-.224.5-.5.5s-.5-.224-.5-.5V10h-3v9h1.5c.276 0 .5.224.5.5s-.224.5-.5.5h-4Z" fill="#000"/></svg>