<svg width="24" height="24" fill="none" xmlns="http://www.w3.org/2000/svg"><g clip-path="url(#a)"><path fill-rule="evenodd" clip-rule="evenodd" d="M6.0027.5a.5.5 0 0 0-1 0V2h-3.5c-.8284 0-1.5.6716-1.5 1.5v19c0 .8284.6716 1.5 1.5 1.5h21c.8284 0 1.5-.6716 1.5-1.5v-19c0-.8284-.6716-1.5-1.5-1.5h-3.5V.5a.5.5 0 0 0-1 0V2h-12V.5Zm17 6.5V3.5a.5.5 0 0 0-.5-.5h-3.5v2.5a.5.5 0 0 1-1 0V3h-12v2.5a.5.5 0 0 1-1 0V3h-3.5a.5.5 0 0 0-.5.5V7h22Zm-22 1h22v14.5a.5.5 0 0 1-.5.5h-21a.5.5 0 0 1-.5-.5V8Z" fill="#000"/></g><defs><clipPath id="a"><path fill="#fff" d="M0 0h24v24H0z"/></clipPath></defs></svg>