<!--
  - Infomaniak kDrive - Desktop
  - Copyright (C) 2023-2025 Infomaniak Network SA
  -
  - This program is free software: you can redistribute it and/or modify
  - it under the terms of the GNU General Public License as published by
  - the Free Software Foundation, either version 3 of the License, or
  - (at your option) any later version.
  -
  - This program is distributed in the hope that it will be useful,
  - but WITHOUT ANY WARRANTY; without even the implied warranty of
  - MERCHANTABILITY or FITNESS FOR A PARTICULAR PURPOSE.  See the
  - GNU General Public License for more details.
  -
  - You should have received a copy of the GNU General Public License
  - along with this program.  If not, see <http://www.gnu.org/licenses/>.
  -->

<svg width="122" height="97" viewBox="0 0 122 97" fill="none" xmlns="http://www.w3.org/2000/svg">
<path fill-rule="evenodd" clip-rule="evenodd" d="M52.4444 63.342C52.3885 63.2994 52.3328 63.2566 52.2773 63.2135C52.2508 63.2565 52.2242 63.2993 52.1973 63.342H52.4444ZM83.4791 85.5569C84.2103 85.6295 84.9519 85.6667 85.7022 85.6667C97.9852 85.6667 107.942 75.6961 107.942 63.3966C107.942 52.7465 100.477 43.8425 90.4997 41.646C89.2552 29.5528 79.1183 20.1235 66.7976 20.1235C56.0767 20.1235 47.0093 27.2631 44.0154 37.0849C41.8295 36.145 39.4213 35.6245 36.8916 35.6245C26.9117 35.6245 18.8214 43.7257 18.8214 53.719C18.8214 53.7677 18.8216 53.8163 18.822 53.8649C17.9611 53.7213 17.0769 53.6465 16.1753 53.6465C7.34695 53.6465 0.19014 60.8129 0.19014 69.6532C0.19014 78.4934 7.34695 85.6598 16.1753 85.6598C16.7918 85.6598 17.4001 85.6249 17.9983 85.5569H83.4791Z" fill="#F5F5F5"/>
<path d="M25.7118 55.0372C25.6354 53.2332 27.0773 51.729 28.8829 51.729H46.9171C47.977 51.729 48.9669 52.258 49.5558 53.1391L52.9266 58.1816C53.5755 59.1524 54.6662 59.7353 55.834 59.7353H82.3359C84.1531 59.7353 85.5993 61.2581 85.5057 63.0728L83.9611 93.0019C83.874 94.689 82.4807 96.0122 80.7913 96.0122H30.4893C28.7886 96.0122 27.3902 94.6717 27.3182 92.9726L25.7118 55.0372Z" fill="#FAFAFA" stroke="#9F9F9F" stroke-width="0.323235"/>
<path d="M30.5513 44.5152C30.5513 43.9542 31.006 43.4995 31.5669 43.4995H66.9533C67.5142 43.4995 67.9689 43.9542 67.9689 44.5152V94.1242H30.5513V44.5152Z" fill="white" stroke="#9F9F9F" stroke-width="0.323235"/>
<path d="M45.1553 53.8374C45.1553 53.2765 45.61 52.8218 46.1709 52.8218H72.677C73.238 52.8218 73.6927 53.2765 73.6927 53.8374V96.0096H45.1553V53.8374Z" fill="white" stroke="#9F9F9F" stroke-width="0.323235"/>
<path d="M27.4061 58.6232C27.4061 56.8702 28.8272 55.4492 30.5801 55.4492H46.9343C47.9488 55.4492 48.9021 55.9342 49.4996 56.7541L52.8479 61.3496C53.5061 62.253 54.5566 62.7874 55.6744 62.7874H80.5202C82.2732 62.7874 83.6942 64.2084 83.6942 65.9613V92.8362C83.6942 94.5891 82.2732 96.0101 80.5202 96.0101H30.5801C28.8272 96.0101 27.4061 94.5891 27.4061 92.8362V58.6232Z" fill="#F1F1F1" stroke="#9F9F9F" stroke-width="0.323235"/>
<rect x="31.8679" y="46.8916" width="22.6265" height="0.323235" fill="#E0E0E0"/>
<rect x="31.8679" y="48.6641" width="22.6265" height="0.323235" fill="#E0E0E0"/>
<rect x="31.8679" y="50.4399" width="22.6265" height="0.323235" fill="#E0E0E0"/>
<rect x="31.8679" y="52.2148" width="10.99" height="0.323235" fill="#E0E0E0"/>
<rect x="44.6399" y="68.918" width="20.6576" height="20.6576" rx="3.09864" fill="white"/>
<path opacity="0.504232" fill-rule="evenodd" clip-rule="evenodd" d="M53.6124 73.7495C53.6124 73.3458 54.0139 73.0722 54.3778 73.2279L55.3301 73.6354C55.4758 73.6978 55.5885 73.821 55.6397 73.974L56.0183 75.1068C56.0792 75.2891 56.2268 75.4271 56.4097 75.4729L60.3719 76.4648C60.6191 76.5267 60.793 76.7535 60.793 77.0139V81.7458C60.793 82.1262 60.4334 82.398 60.0782 82.2862L54.0023 80.3727C53.7705 80.2997 53.6124 80.0805 53.6124 79.8323V73.7495Z" fill="#A2BFFF"/>
<path opacity="0.8" fill-rule="evenodd" clip-rule="evenodd" d="M52.2315 74.8804C52.2315 74.4767 52.633 74.2031 52.9969 74.3588L53.9492 74.7663C54.0949 74.8286 54.2076 74.9519 54.2588 75.1049L54.6374 76.2376C54.6983 76.42 54.8459 76.558 55.0288 76.6038L58.991 77.5957C59.2382 77.6575 59.4121 77.8843 59.4121 78.1448V82.8767C59.4121 83.257 59.0525 83.5289 58.6973 83.417L52.6214 81.5035C52.3896 81.4306 52.2315 81.2114 52.2315 80.9632V74.8804Z" fill="#A0BDFF"/>
<path fill-rule="evenodd" clip-rule="evenodd" d="M50.8505 75.8413C50.8505 75.4376 51.252 75.164 51.6159 75.3197L52.5683 75.7272C52.714 75.7896 52.8267 75.9128 52.8778 76.0658L53.2565 77.1986C53.3174 77.3809 53.4649 77.5189 53.6479 77.5647L57.6101 78.5566C57.8573 78.6185 58.0312 78.8453 58.0312 79.1057V83.8376C58.0312 84.218 57.6716 84.4898 57.3164 84.378L51.2405 82.4645C51.0087 82.3915 50.8505 82.1723 50.8505 81.9241V75.8413Z" fill="#1A47FF"/>
<path fill-rule="evenodd" clip-rule="evenodd" d="M49.5463 78.5594C49.3977 78.1283 49.7846 77.7042 50.215 77.8266L56.3521 79.5714C56.5373 79.624 56.6825 79.7715 56.7353 79.9608L57.8913 84.1018C57.9515 84.3175 57.754 84.5156 57.5445 84.4496L51.1164 82.4253C50.9492 82.3726 50.8162 82.2419 50.758 82.0731L49.5463 78.5594Z" fill="#5287FF"/>
<path d="M117.477 34.586L116.935 31.5306L115.369 31.8081L115.91 34.8635L112.813 34.2734L112.555 35.8022L115.638 36.3152L114.286 39.1498L115.802 39.7816L117.088 36.8792L119.448 39.1357L120.47 38.0279L118.257 35.8512L121.027 34.3011L120.182 32.968L117.477 34.586Z" fill="#5C89F7"/>
<path d="M10.2356 36.1312L8.82982 33.365L7.41185 34.0856L8.81763 36.8518L5.68294 37.1871L5.87958 38.7251L8.97883 38.3201L8.50936 41.425L10.143 41.5893L10.5306 38.4382L13.4438 39.9118L14.0997 38.5548L11.3498 37.1151L13.5505 34.8268L12.3543 33.7967L10.2356 36.1312Z" fill="#5C89F7"/>
<path d="M41.5007 22.5316L41.9424 20.4439L40.8807 20.2193L40.439 22.307L38.6319 21.1365L38.0759 22.0452L39.8942 23.1631L38.312 24.6246L39.1083 25.4163L40.6667 23.8948L41.5797 25.9392L42.5102 25.4946L41.6694 23.5388L43.8194 23.2605L43.627 22.1934L41.5007 22.5316Z" fill="#B3CAFF"/>
<path d="M75.6953 6.18885V3.08594H74.1048V6.18885L71.1583 5.06763L70.6368 6.52783L73.5833 7.57082L71.758 10.1262L73.14 11.0127L74.9131 8.37915L76.8426 11.0127L78.0421 10.1001L76.2429 7.57082L79.2415 6.52783L78.6418 5.06763L75.6953 6.18885Z" fill="#1A47FF"/>
<path d="M117.421 58.7025V56.7612H116.426V58.7025L114.583 58.0011L114.257 58.9146L116.1 59.5672L114.958 61.1659L115.823 61.7205L116.932 60.0729L118.139 61.7205L118.89 61.1496L117.764 59.5672L119.64 58.9146L119.265 58.0011L117.421 58.7025Z" fill="#B3CAFF"/>
<path d="M87.9532 25.0921L85.6805 24.309C84.9847 24.0466 84.224 23.9897 83.4875 24.145C82.751 24.3003 82.0693 24.6614 81.5223 25.186L77.4859 29.2122C77.3571 29.3473 77.2682 29.5152 77.2294 29.6965C77.1907 29.8778 77.2036 30.0652 77.2668 30.2372C77.3294 30.4216 77.4372 30.5864 77.5805 30.717C77.7239 30.8475 77.8982 30.9396 78.0879 30.9849L83.5697 32.2707" fill="#F1F1F1"/>
<path d="M87.9532 25.0921L85.6805 24.309C84.9847 24.0466 84.224 23.9897 83.4875 24.145C82.751 24.3003 82.0693 24.6614 81.5223 25.186L77.4859 29.2122C77.3571 29.3473 77.2682 29.5152 77.2294 29.6965C77.1907 29.8778 77.2036 30.0652 77.2668 30.2372C77.3294 30.4216 77.4372 30.5864 77.5805 30.717C77.7239 30.8475 77.8982 30.9396 78.0879 30.9849L83.5697 32.2707L87.9532 25.0921Z" stroke="#9F9F9F" stroke-width="0.323235" stroke-linecap="round" stroke-linejoin="round"/>
<path d="M96.9161 33.9944L97.6991 36.267C97.9616 36.9628 98.0185 37.7235 97.8632 38.46C97.7078 39.1965 97.3467 39.8782 96.8222 40.4252L92.796 44.4617C92.6609 44.5905 92.493 44.6793 92.3117 44.7181C92.1303 44.7568 91.9429 44.7439 91.7709 44.6807C91.5866 44.6182 91.4217 44.5104 91.2912 44.367C91.1607 44.2237 91.0686 44.0493 91.0232 43.8596L89.7374 38.3778" fill="#F1F1F1"/>
<path d="M96.9161 33.9944L97.6991 36.267C97.9616 36.9628 98.0185 37.7235 97.8632 38.46C97.7078 39.1965 97.3467 39.8782 96.8222 40.4252L92.796 44.4617C92.6609 44.5905 92.493 44.6793 92.3117 44.7181C92.1303 44.7568 91.9429 44.7439 91.7709 44.6807C91.5866 44.6182 91.4217 44.5104 91.2912 44.367C91.1607 44.2237 91.0686 44.0493 91.0232 43.8596L89.7374 38.3778L96.9161 33.9944Z" stroke="#9F9F9F" stroke-width="0.323235" stroke-linecap="round" stroke-linejoin="round"/>
<path d="M111.796 20.383L111.796 20.383L111.796 20.3733L111.414 10.5281C111.411 10.4438 111.343 10.3761 111.259 10.3729L101.414 9.99159L101.414 9.99131L101.405 9.99151C99.9229 10.0221 98.4718 10.4167 97.1793 11.1404C95.8868 11.8641 94.7925 12.8948 93.9929 14.1417L93.9928 14.1417L93.9906 14.1454L83.2994 31.8512C83.261 31.9148 83.2709 31.9964 83.3234 32.0489L89.7212 38.4553C89.7737 38.5079 89.8553 38.5179 89.919 38.4795L107.625 27.797L107.625 27.797L107.628 27.7949C108.879 26.9979 109.914 25.9047 110.641 24.6119C111.368 23.3191 111.764 21.8666 111.796 20.383Z" fill="white" stroke="#9F9F9F" stroke-width="0.323235" stroke-linecap="round" stroke-linejoin="round"/>
<path d="M111.253 10.5343L111.634 20.3795C111.634 20.3795 109.347 16.483 107.326 14.4616C105.304 12.4402 101.408 10.153 101.408 10.153L111.253 10.5343Z" fill="#F1F1F1"/>
<path d="M100.124 25.2133C102.087 25.2133 103.679 23.6215 103.679 21.6578C103.679 19.6941 102.087 18.1022 100.124 18.1022C98.16 18.1022 96.5681 19.6941 96.5681 21.6578C96.5681 23.6215 98.16 25.2133 100.124 25.2133Z" fill="#F5F5F5" stroke="#9F9F9F" stroke-width="0.323235" stroke-linecap="round" stroke-linejoin="round"/>
<path d="M84.4672 43.4834C84.0554 43.8951 83.3676 44.2068 82.5424 44.4375C81.722 44.6669 80.7874 44.8105 79.9027 44.8995C79.0188 44.9885 78.1891 45.0226 77.5801 45.0345C77.2757 45.0405 77.0267 45.0408 76.8541 45.0397C76.8116 45.0394 76.7737 45.0391 76.7407 45.0387C76.7403 45.0057 76.7399 44.9678 76.7397 44.9253C76.7386 44.7526 76.7389 44.5037 76.7449 44.1993C76.7567 43.5903 76.7909 42.7606 76.8799 41.8766C76.9689 40.9919 77.1125 40.0573 77.3418 39.2369C77.5725 38.4117 77.8843 37.7239 78.296 37.3122C80.0001 35.6081 82.7631 35.6081 84.4672 37.3122C86.1713 39.0163 86.1713 41.7792 84.4672 43.4834Z" fill="white" stroke="#9F9F9F" stroke-width="0.323235"/>
<path d="M83.2101 41.6754C82.3517 42.5337 79.3245 42.4525 79.3245 42.4525C79.3245 42.4525 79.2433 39.4253 80.1016 38.5669C80.96 37.7085 82.3517 37.7085 83.2101 38.5669C84.0684 39.4253 84.0684 40.817 83.2101 41.6754Z" fill="#F1F1F1"/>
</svg>
