<svg width="32" height="32" viewBox="0 0 32 32" fill="none" xmlns="http://www.w3.org/2000/svg">
<path d="M9.90625 0.310547C10.1661 0.31057 10.4266 0.350616 10.6787 0.431641L10.9287 0.526367L10.9336 0.529297L13.3682 1.61035L13.3711 1.61133C14.0416 1.9111 14.5449 2.47765 14.7861 3.16211L15.7432 5.61328C15.7519 5.63576 15.7602 5.65966 15.7676 5.68262C15.8076 5.8064 15.8866 5.85608 15.9336 5.86816L25.9453 8.3623C25.9858 8.36872 26.0272 8.37499 26.0674 8.38574C27.7942 8.84869 28.8797 10.2674 28.8799 11.9727V14.4824C28.1414 14.041 27.3444 13.6882 26.5029 13.4375V11.9727C26.5028 11.3891 26.1869 10.9064 25.5215 10.7021C25.5069 10.6991 25.4911 10.6988 25.4766 10.6953L15.3496 8.17285L15.3408 8.16992C14.4754 7.94713 13.8146 7.2937 13.5283 6.47754L12.5713 4.02637C12.5629 4.00497 12.5549 3.98278 12.5479 3.96094C12.5157 3.8619 12.4552 3.8063 12.4033 3.78223L9.97461 2.70312C9.94289 2.68922 9.91984 2.68655 9.90625 2.68652C9.85283 2.68692 9.68555 2.76018 9.68555 3L9.70703 5.44238C9.70727 5.4727 9.70511 5.50344 9.70312 5.5332C10.0254 5.78769 10.2776 6.12595 10.4238 6.51855H10.4268L11.4561 9.14648L11.4717 9.19043C11.545 9.40094 11.724 9.56933 11.9707 9.62988L22.5469 12.1904L22.5518 12.1914C23.0624 12.3172 23.4975 12.6112 23.8018 13.0068C23.7018 13.004 23.6016 13 23.501 13C22.0225 13 20.6158 13.307 19.3398 13.8584L11.4092 11.9404L11.4053 11.9395C10.4125 11.6962 9.59706 10.9844 9.24316 10.0127L8.21582 7.39355L5.89844 6.43652L5.91602 12.376C5.91611 12.4191 5.91259 12.462 5.9082 12.5039L16.7686 15.4434C16.0806 16.0188 15.4689 16.6814 14.9473 17.4131L2.71875 14.1035L2.71484 14.1025C2.66273 14.0883 2.63661 14.0861 2.63379 14.0859C2.57811 14.0861 2.49979 14.1158 2.4375 14.2031C2.38095 14.2828 2.35947 14.3831 2.39844 14.4971L5.40723 22.8096L5.41406 22.8301C5.44566 22.9219 5.51487 22.9829 5.5918 23.0078L13.1758 25.4033C13.356 26.3873 13.6725 27.3229 14.1064 28.1904L4.87402 25.2744L4.87012 25.2734C4.06827 25.0177 3.43765 24.3953 3.16504 23.5977L0.15625 15.2861C0.153901 15.2796 0.150707 15.2722 0.148438 15.2656C-0.453653 13.5045 0.857201 11.7093 2.63379 11.709C2.8873 11.709 3.12522 11.7504 3.33887 11.8086L3.53711 11.8623L3.52148 6.24902V6.24512C3.52154 5.39061 4.00478 4.61978 4.75879 4.23828L4.84082 4.2002L4.86328 4.19043C5.14158 4.06816 5.45075 3.99712 5.77246 3.99707C6.07835 3.99716 6.35974 4.06101 6.6123 4.16016C6.61862 4.16264 6.62558 4.16539 6.63184 4.16797L7.32031 4.45215L7.30859 3.00977V3L7.32129 2.72461C7.45445 1.37197 8.55983 0.31078 9.90625 0.310547Z" fill="white"/>
<rect x="15.0008" y="15" width="17" height="17" rx="8.5" fill="white"/>
<path d="M29.5211 17.4814C27.9384 15.8975 25.7753 15 23.5067 15C21.8184 15 20.1829 15.5016 18.7848 16.4255C17.3867 17.3494 16.3051 18.6957 15.6456 20.2531C15.0125 21.8106 14.8279 23.5264 15.1708 25.163C15.4873 26.7997 16.3051 28.3307 17.4922 29.5186C18.6792 30.7065 20.1829 31.5248 21.8448 31.8416C22.3987 31.9472 22.9527 32 23.5067 32C24.6146 32 25.7225 31.7888 26.7513 31.3401C28.3077 30.7065 29.6267 29.5978 30.5763 28.1988C31.4996 26.7997 32.0008 25.163 32.0008 23.4736C32.0008 21.2298 31.1039 19.0652 29.5211 17.455V17.4814ZM28.2813 25.427C27.9911 26.2453 27.5163 26.9845 26.8568 27.5652C26.1973 28.146 25.406 28.5155 24.5618 28.7003C23.7177 28.8587 22.8208 28.8059 22.003 28.5155C21.1853 28.2252 20.4467 27.7236 19.8927 27.0637L18.9694 27.9876C18.9694 27.9876 18.8375 28.0932 18.7584 28.0932C18.6792 28.0932 18.6001 28.0932 18.521 28.0668C18.4418 28.0404 18.3891 27.9876 18.3363 27.9084C18.2836 27.8292 18.2572 27.7764 18.2572 27.6708V24.0543C18.2572 24.0543 18.3099 23.8432 18.3891 23.764C18.4682 23.6848 18.5737 23.632 18.6792 23.632H22.2932C22.2932 23.632 22.4515 23.632 22.5306 23.7112C22.6098 23.764 22.6361 23.8168 22.6889 23.896C22.7153 23.9752 22.7153 24.0543 22.6889 24.1335C22.6889 24.2127 22.6361 24.2919 22.5834 24.3447L21.0534 25.8758C21.4227 26.3509 21.9239 26.6941 22.4779 26.9053C23.0318 27.1165 23.6386 27.1693 24.2189 27.0637C24.7992 26.9581 25.3532 26.6941 25.8017 26.3245C26.2501 25.955 26.593 25.427 26.7777 24.8727C26.8568 24.6615 26.9887 24.5031 27.1998 24.3975C27.3844 24.2919 27.6218 24.2919 27.8065 24.3711C27.912 24.3975 27.9911 24.4503 28.0703 24.5295C28.1494 24.6087 28.2022 24.6879 28.2549 24.7935C28.3077 24.8991 28.3341 25.0047 28.3341 25.1102C28.3341 25.2158 28.3341 25.3214 28.2813 25.427ZM28.7825 22.8137C28.7825 22.8137 28.7298 23.0248 28.6506 23.104C28.5715 23.1832 28.466 23.2096 28.3604 23.2096H24.7465C24.7465 23.2096 24.5882 23.2096 24.5354 23.1304C24.4827 23.0776 24.4299 23.0248 24.3772 22.9457C24.3508 22.8665 24.3508 22.7873 24.3772 22.7081C24.4036 22.6289 24.4299 22.5497 24.4827 22.4969L25.9599 21.0186C25.5906 20.5699 25.0894 20.2003 24.5354 19.9891C23.9815 19.7779 23.3748 19.7252 22.7944 19.8307C22.2141 19.9363 21.6601 20.2003 21.2117 20.5963C20.7632 20.9922 20.4203 21.4938 20.2356 22.0481C20.2092 22.1537 20.1565 22.2593 20.0773 22.3385C19.9982 22.4177 19.9191 22.4969 19.8136 22.5497C19.708 22.6025 19.6025 22.6289 19.497 22.6289C19.3915 22.6289 19.286 22.6289 19.1804 22.5761C19.0749 22.5233 18.9694 22.4969 18.8903 22.4177C18.8111 22.3385 18.732 22.2593 18.7056 22.1537C18.6529 22.0481 18.6265 21.9425 18.6265 21.837C18.6265 21.7314 18.6265 21.6258 18.6792 21.5202C18.9694 20.7019 19.4706 19.9627 20.1037 19.4084C20.7632 18.8276 21.5546 18.4581 22.3987 18.2997C23.2429 18.1413 24.1398 18.1941 24.9575 18.4845C25.7753 18.7748 26.5139 19.25 27.0679 19.9099L28.0439 18.9068H28.0967C28.0967 18.9068 28.2286 18.8276 28.2813 18.8276C28.3604 18.8276 28.4132 18.8276 28.4923 18.8276C28.5715 18.854 28.6242 18.9068 28.677 18.986C28.7298 19.0652 28.7561 19.118 28.7561 19.2236V22.8137H28.7825Z" fill="#446FDD"/>
</svg>
