<svg width="16" height="16" viewBox="0 0 16 16" fill="none" xmlns="http://www.w3.org/2000/svg">
<path fill-rule="evenodd" clip-rule="evenodd" d="M5.80385 0.0121115C5.52418 0.0537288 5.26708 0.165201 5.05049 0.338743C4.81092 0.530713 4.63466 0.794867 4.53747 1.10752L4.48992 1.26053L4.48478 2.62482L4.47965 3.98912L3.65154 3.98941C2.77364 3.98973 2.71056 3.99437 2.49414 4.07473C1.99116 4.26152 1.63021 4.68794 1.52048 5.225C1.48951 5.37668 1.48862 5.53396 1.4933 10.0534L1.49813 14.725L1.53381 14.844C1.58884 15.0275 1.63361 15.1341 1.70742 15.2577C1.92433 15.6206 2.26948 15.87 2.69228 15.9692C2.81672 15.9984 3.01199 16 6.51254 16H10.2017L10.3547 15.9612C10.6632 15.883 10.9851 15.68 11.1747 15.444C11.2915 15.2986 11.4037 15.0848 11.4627 14.895L11.5103 14.742L11.5154 13.3777L11.5205 12.0134L12.3486 12.0131C13.2265 12.0128 13.2896 12.0081 13.506 11.9278C13.98 11.7517 14.3185 11.3748 14.466 10.8587L14.5028 10.7298L14.5073 7.02388C14.5113 3.7262 14.5089 3.30235 14.4853 3.17646C14.4367 2.91691 14.343 2.70192 14.1951 2.51007C14.1554 2.45864 13.65 1.94485 13.0718 1.36833C11.9741 0.273563 11.9206 0.225944 11.6735 0.12202C11.6135 0.0967742 11.5064 0.059594 11.4355 0.0393974L11.3067 0.00269321L8.60361 0.000211131C7.11691 -0.00114891 5.85702 0.00420627 5.80385 0.0121115ZM5.84756 1.09241C5.74831 1.12776 5.64726 1.22056 5.59601 1.32341L5.55201 1.41172V2.69986V3.98799L6.9673 3.99281L8.3826 3.99762L8.5271 4.04586C8.70221 4.10433 8.88726 4.20111 9.01713 4.30213C9.0702 4.34342 9.58811 4.85409 10.168 5.43695C11.1068 6.38043 11.2314 6.51195 11.3044 6.63576C11.3967 6.79228 11.4748 7.00358 11.5012 7.16822C11.5127 7.23994 11.519 7.9249 11.5191 9.11997L11.5192 10.9612L12.3055 10.956C13.1808 10.9502 13.1495 10.9543 13.2866 10.8304C13.3257 10.7951 13.3744 10.735 13.3947 10.697L13.4318 10.6278L13.4362 6.98308L13.4406 3.33832L13.3972 3.24296C13.3595 3.16024 13.2214 3.01539 12.3557 2.15047C11.6803 1.47567 11.333 1.14044 11.2812 1.11344L11.2047 1.07352L8.5611 1.0705C6.27654 1.0679 5.90802 1.07087 5.84756 1.09241ZM2.92197 5.06088C2.88267 5.0687 2.83417 5.08385 2.81421 5.09453C2.74694 5.13053 2.64271 5.23585 2.60544 5.3055L2.56841 5.37466L2.5636 9.95631C2.56017 13.2334 2.5641 14.5573 2.57739 14.606C2.60903 14.7216 2.69801 14.8254 2.81638 14.8845L2.92235 14.9375H6.49523C10.4552 14.9375 10.151 14.9464 10.2917 14.826C10.3293 14.7938 10.38 14.7276 10.4042 14.6791L10.4482 14.5908L10.448 10.9518L10.4478 7.31272L10.4072 7.22772C10.375 7.16031 10.156 6.93257 9.34911 6.12753C8.63642 5.41646 8.31123 5.10325 8.2636 5.082C8.19937 5.05333 8.05121 5.05151 5.59451 5.04915C4.16392 5.04777 2.96126 5.05304 2.92197 5.06088Z" fill="black"/>
</svg>
