<svg width="151" height="130" viewBox="0 0 151 130" fill="none" xmlns="http://www.w3.org/2000/svg">
<path opacity="0.5" d="M72.0249 7.27288C68.2218 5.61822 64.0259 8.52575 64.0259 12.8158V26.8018V77.4044C64.0259 80.0221 65.7229 82.3376 68.2191 83.1259L132.219 103.336C136.086 104.557 140.026 101.67 140.026 97.6147V46.1991C140.026 43.5814 138.329 41.2659 135.833 40.4776L88.6205 25.5685L85.2126 15.2012C84.6782 13.5754 83.5005 12.2657 81.9773 11.6029L72.0249 7.27288Z" fill="#C6D6FD"/>
<path d="M57.0249 19.2729C53.2218 17.6182 49.0259 20.5257 49.0259 24.8158V38.8018V89.4044C49.0259 92.0221 50.7229 94.3376 53.2191 95.1259L117.219 115.336C121.086 116.557 125.026 113.67 125.026 109.615V58.1991C125.026 55.5814 123.329 53.2659 120.833 52.4776L73.6205 37.5685L70.2126 27.2012C69.6782 25.5754 68.5005 24.2657 66.9773 23.6029L57.0249 19.2729Z" fill="#A0BDFF"/>
<path d="M42.0249 29.2729C38.2218 27.6182 34.0259 30.5257 34.0259 34.8158V48.8018V99.4044C34.0259 102.022 35.7229 104.338 38.2191 105.126L102.219 125.336C106.086 126.557 110.026 123.67 110.026 119.615V68.1991C110.026 65.5814 108.329 63.2659 105.833 62.4776L58.6205 47.5685L55.2126 37.2012C54.6782 35.5754 53.5005 34.2657 51.9773 33.6029L42.0249 29.2729Z" fill="#0B47E1"/>
<path d="M15.3634 62.0067C13.2657 57.3107 17.662 52.3247 22.5837 53.818L87.3859 73.4796C89.0466 73.9835 90.4078 75.1818 91.1182 76.7653L109.467 117.666C111.596 122.412 107.089 127.434 102.141 125.829L36.5386 104.551C34.9225 104.027 33.6044 102.842 32.9115 101.291L15.3634 62.0067Z" fill="#5C89F7"/>
<path d="M141.724 76.013C145.548 80.0875 147.24 84.1429 146.436 87.9228C143.404 102.188 109.738 105.531 70.8425 97.2635C31.9469 88.996 2.55097 72.2489 5.58317 57.9835C7.04498 51.1063 16.069 45.4582 30.8095 43.7713" stroke="#0B47E1" stroke-linecap="round" stroke-dasharray="3.54 3.54"/>
</svg>
