<?xml version="1.0" encoding="UTF-8"?>
<!--
  - Infomaniak kDrive - Desktop
  - Copyright (C) 2023-2024 Infomaniak Network SA
  -
  - This program is free software: you can redistribute it and/or modify
  - it under the terms of the GNU General Public License as published by
  - the Free Software Foundation, either version 3 of the License, or
  - (at your option) any later version.
  -
  - This program is distributed in the hope that it will be useful,
  - but WITHOUT ANY WARRANTY; without even the implied warranty of
  - MERCHANTABILITY or FITNESS FOR A PARTICULAR PURPOSE.  See the
  - GNU General Public License for more details.
  -
  - You should have received a copy of the GNU General Public License
  - along with this program.  If not, see <http://www.gnu.org/licenses/>.
  -->

<svg width="60px" height="42px" viewBox="0 0 60 42" version="1.1" xmlns="http://www.w3.org/2000/svg" xmlns:xlink="http://www.w3.org/1999/xlink">
    <title>logos/kdrive-text-only</title>
    <g id="logos/kdrive-text-only" stroke="none" stroke-width="1" fill="none" fill-rule="evenodd">
        <path d="M4.07118275,27.7357724 L4.07118275,24.9966336 L5.56851679,23.5079713 L7.67261365,27.7357724 L12.1646158,27.7357724 L8.22065748,20.8879256 L11.9493128,17.1960429 L7.04627784,17.1960429 L4.07118275,20.6894372 L4.07118275,13.186579 L0,13.186579 L0,27.7357724 L4.07118275,27.7357724 Z M17.5961999,27.7357724 C22.2060314,27.7357724 25.713512,26.1097561 25.713512,20.3577236 C25.713512,14.6056911 22.2060314,13 17.5961999,13 L13.6277362,13 L13.6277362,27.7357724 L17.5961999,27.7357724 Z M17.4759434,25.6626016 L16.1731649,25.6626016 L16.1731649,15.0731707 L17.4759434,15.0731707 C20.2618851,15.0731707 23.0678695,15.703252 23.0678695,20.3577236 C23.0678695,25.0325203 20.2618851,25.6626016 17.4759434,25.6626016 Z M30.3033008,27.7357724 L30.3033008,22.004065 C30.3033008,19.8089431 31.1651388,19.199187 32.6683448,19.199187 C33.0291142,19.199187 33.4099264,19.2195122 33.8107813,19.2601626 L33.8107813,16.8211382 C33.6303966,16.800813 33.3698409,16.7804878 33.1894562,16.7804878 C31.8866777,16.800813 30.8444549,17.5325203 30.2632153,18.7520325 L30.2632153,16.800813 L27.918214,16.800813 L27.918214,27.7357724 L30.3033008,27.7357724 Z M37.699074,15.4390244 L37.699074,13 L35.3139872,13 L35.3139872,15.4390244 L37.699074,15.4390244 Z M37.699074,27.7357724 L37.699074,16.800813 L35.3139872,16.800813 L35.3139872,27.7357724 L37.699074,27.7357724 Z M45.2151037,27.7357724 L49.1033964,16.800813 L46.6180959,16.800813 L44.1528382,24.6056911 L41.6675377,16.800813 L39.041938,16.800813 L42.9703162,27.7357724 L45.2151037,27.7357724 Z M54.9759209,28 C57.7618626,28 59.3652823,26.2113821 59.8663509,24.4634146 L57.5213496,24.4634146 C57.100452,25.4796748 56.1183574,25.9878049 54.8757072,25.9878049 C53.5128005,25.9878049 52.1098083,24.9918699 51.9494663,22.9593496 L59.9866074,22.9593496 C60.1870348,19.2804878 58.122632,16.5569106 54.815579,16.5569106 C51.7490388,16.5569106 49.524294,18.8943089 49.524294,22.1869919 C49.524294,25.3170732 51.5085259,28 54.9759209,28 Z M57.5614351,21.1910569 L51.9494663,21.1910569 C52.1498938,19.1178862 53.6931852,18.4471545 54.815579,18.4471545 C56.2185712,18.4471545 57.5013069,19.4837398 57.5614351,21.1910569 Z" id="kDrive" fill="#333333" fill-rule="nonzero"></path>
    </g>
</svg>