<?xml version="1.0" encoding="UTF-8"?>
<!--
  - Infomaniak kDrive - Desktop
  - Copyright (C) 2023-2025 Infomaniak Network SA
  -
  - This program is free software: you can redistribute it and/or modify
  - it under the terms of the GNU General Public License as published by
  - the Free Software Foundation, either version 3 of the License, or
  - (at your option) any later version.
  -
  - This program is distributed in the hope that it will be useful,
  - but WITHOUT ANY WARRANTY; without even the implied warranty of
  - MERCHANTABILITY or FITNESS FOR A PARTICULAR PURPOSE.  See the
  - GNU General Public License for more details.
  -
  - You should have received a copy of the GNU General Public License
  - along with this program.  If not, see <http://www.gnu.org/licenses/>.
  -->

<svg width="24px" height="24px" viewBox="0 0 24 24" version="1.1" xmlns="http://www.w3.org/2000/svg" xmlns:xlink="http://www.w3.org/1999/xlink">
    <!-- Generator: Sketch 63.1 (92452) - https://sketch.com -->
    <title>icons/actions/delete</title>
    <desc>Created with Sketch.</desc>
    <g id="icons/actions/delete" stroke="none" stroke-width="1" fill="none" fill-rule="evenodd">
        <path d="M19.5,7.5 C19.7761424,7.5 20,7.72385763 20,8 L20,8 L20,22 C20,23.1045695 19.1045695,24 18,24 L18,24 L6,24 C4.8954305,24 4,23.1045695 4,22 L4,22 L4,8 C4,7.72385763 4.22385763,7.5 4.5,7.5 L4.5,7.5 Z M9.5,10.75 C9.08578644,10.75 8.75,11.0857864 8.75,11.5 L8.75,11.5 L8.75,20.5 C8.75,20.9142136 9.08578644,21.25 9.5,21.25 C9.91421356,21.25 10.25,20.9142136 10.25,20.5 L10.25,20.5 L10.25,11.5 C10.25,11.0857864 9.91421356,10.75 9.5,10.75 Z M14.5,10.75 C14.0857864,10.75 13.75,11.0857864 13.75,11.5 L13.75,11.5 L13.75,20.5 C13.75,20.9142136 14.0857864,21.25 14.5,21.25 C14.9142136,21.25 15.25,20.9142136 15.25,20.5 L15.25,20.5 L15.25,11.5 C15.25,11.0857864 14.9142136,10.75 14.5,10.75 Z M14.5,-1.77635684e-15 C15.8807119,-1.77635684e-15 17,1.11928813 17,2.5 L17,2.5 L17,3.75 C17,3.88807119 17.1119288,4 17.25,4 L17.25,4 L22,4 C22.5522847,4 23,4.44771525 23,5 C23,5.55228475 22.5522847,6 22,6 L22,6 L2,6 C1.44771525,6 1,5.55228475 1,5 C1,4.44771525 1.44771525,4 2,4 L2,4 L6.75,4 C6.81630412,4 6.8798926,3.97366079 6.9267767,3.9267767 C6.97366079,3.8798926 7,3.81630412 7,3.75 L7,3.75 L7,2.5 C7,1.11928813 8.11928813,-1.77635684e-15 9.5,-1.77635684e-15 L9.5,-1.77635684e-15 Z M14.5,2 L9.5,2 C9.22385763,2 9,2.22385763 9,2.5 L9,2.5 L9,3.75 C9,3.88807119 9.11192881,4 9.25,4 L9.25,4 L14.75,4 C14.8880712,4 15,3.88807119 15,3.75 L15,3.75 L15,2.5 C15,2.22385763 14.7761424,2 14.5,2 L14.5,2 Z" id="path" fill="#000000" fill-rule="nonzero"></path>
    </g>
</svg>