<?xml version="1.0" encoding="UTF-8"?>
<!--
  - Infomaniak kDrive - Desktop
  - Copyright (C) 2023-2025 Infomaniak Network SA
  -
  - This program is free software: you can redistribute it and/or modify
  - it under the terms of the GNU General Public License as published by
  - the Free Software Foundation, either version 3 of the License, or
  - (at your option) any later version.
  -
  - This program is distributed in the hope that it will be useful,
  - but WITHOUT ANY WARRANTY; without even the implied warranty of
  - MERCHANTABILITY or FITNESS FOR A PARTICULAR PURPOSE.  See the
  - GNU General Public License for more details.
  -
  - You should have received a copy of the GNU General Public License
  - along with this program.  If not, see <http://www.gnu.org/licenses/>.
  -->

<svg width="24px" height="24px" viewBox="0 0 24 24" version="1.1" xmlns="http://www.w3.org/2000/svg" xmlns:xlink="http://www.w3.org/1999/xlink">
    <!-- Generator: Sketch 63.1 (92452) - https://sketch.com -->
    <title>icons/actions/icon-folder-empty</title>
    <g id="icons/actions/icon-folder-empty" stroke="none" stroke-width="1" fill="none" fill-rule="evenodd">
        <path d="M22 22H2C0.89543 22 0 21.1046 0 20V4C0 2.89543 0.89543 2 2 2H8.5C9.25564 1.99964 9.94696 2.42519 10.287 3.1L11.097 4.72C11.1808 4.89105 11.3545 4.99962 11.545 5H22C23.1046 5 24 5.89543 24 7V20C24 21.1046 23.1046 22 22 22ZM8.191 4H2.5C2.22386 4 2 4.22386 2 4.5V19.5C2 19.7761 2.22386 20 2.5 20H21.5C21.7761 20 22 19.7761 22 19.5V7.5C22 7.22386 21.7761 7 21.5 7H11.236C10.48 7.00073 9.7882 6.57513 9.448 5.9L8.638 4.281C8.55463 4.10989 8.38134 4.00095 8.191 4Z" id="Combined-Shape" fill="#000000" fill-rule="nonzero"></path>
    </g>
</svg>