<?xml version="1.0" encoding="UTF-8"?>
<!--
  - Infomaniak kDrive - Desktop
  - Copyright (C) 2023-2025 Infomaniak Network SA
  -
  - This program is free software: you can redistribute it and/or modify
  - it under the terms of the GNU General Public License as published by
  - the Free Software Foundation, either version 3 of the License, or
  - (at your option) any later version.
  -
  - This program is distributed in the hope that it will be useful,
  - but WITHOUT ANY WARRANTY; without even the implied warranty of
  - MERCHANTABILITY or FITNESS FOR A PARTICULAR PURPOSE.  See the
  - GNU General Public License for more details.
  -
  - You should have received a copy of the GNU General Public License
  - along with this program.  If not, see <http://www.gnu.org/licenses/>.
  -->

<svg width="24px" height="24px" viewBox="0 0 24 24" version="1.1" xmlns="http://www.w3.org/2000/svg" xmlns:xlink="http://www.w3.org/1999/xlink">
    <!-- Generator: Sketch 63.1 (92452) - https://sketch.com -->
    <title>icons/actions/link</title>
    <desc>Created with Sketch.</desc>
    <g id="icons/actions/link" stroke="none" stroke-width="1" fill="none" fill-rule="evenodd">
        <path d="M8,6.4999999 C9.21328733,6.49969468 10.307311,7.23022779 10.772,8.351 C10.9126889,8.68164931 10.865157,9.06236136 10.6474909,9.34827008 C10.4298248,9.6341788 10.0754943,9.78132094 9.71932683,9.73370692 C9.3631594,9.68609291 9.05992179,9.4510442 8.925,9.118 C8.87529593,8.99645023 8.80147728,8.88623253 8.708,8.794 C8.52099621,8.60498979 8.26588415,8.49905343 8,8.4999999 L8,8.4999999 L4,8.4999999 C2.8954305,8.4999999 2,9.3954305 2,10.4999999 L2,10.4999999 L2,13.4999999 C2,14.6045695 2.8954305,15.4999999 4,15.4999999 L4,15.4999999 L8,15.4999999 C8.26517971,15.5013504 8.51970218,15.39572 8.706,15.207 C8.8005523,15.1144754 8.87509252,15.003516 8.925,14.881 C9.13681714,14.370981 9.72196501,14.1292214 10.232,14.341 C10.4774176,14.4427038 10.6722808,14.6378806 10.7735899,14.8834614 C10.874899,15.1290422 10.874327,15.4048416 10.772,15.65 C10.3054787,16.7691291 9.21247272,17.4985884 8,17.4999999 L8,17.4999999 L4,17.4999999 C1.790861,17.4999999 0,15.709139 0,13.4999999 L0,13.4999999 L0,10.4999999 C0,8.290861 1.790861,6.4999999 4,6.4999999 L4,6.4999999 Z M20,6.5 C22.209139,6.5 24,8.290861 24,10.5 L24,10.5 L24,13.5 C24,15.709139 22.209139,17.5 20,17.5 L20,17.5 L16,17.5 C14.7869558,17.500473 13.6930002,16.77038 13.228,15.65 C13.09081,15.3200652 13.1400593,14.9420029 13.3571962,14.6582255 C13.5743331,14.3744481 13.9263694,14.2280682 14.2806962,14.2742255 C14.6350231,14.3203829 14.93781,14.5520652 15.075,14.882 C15.1244559,15.0036817 15.1983063,15.1139467 15.292,15.206 C15.4787461,15.3953929 15.7340267,15.5013992 16,15.5 L16,15.5 L20,15.5 C21.1045695,15.5 22,14.6045695 22,13.5 L22,13.5 L22,10.5 C22,9.3954305 21.1045695,8.5 20,8.5 L20,8.5 L16,8.5 C15.735199,8.49857263 15.4808857,8.60339581 15.294,8.791 C15.1996652,8.88370529 15.125157,8.99461699 15.075,9.117 C14.9400782,9.4500442 14.6368406,9.68509291 14.2806732,9.73270692 C13.9245057,9.78032094 13.5701752,9.6331788 13.3525091,9.34727008 C13.134843,9.06136136 13.0873111,8.68064931 13.228,8.35 C13.6943046,7.23069259 14.7874458,6.50114313 16,6.5 L16,6.5 Z M18,11 C18.5522847,11 19,11.4477153 19,12 C19,12.5522847 18.5522847,13 18,13 L18,13 L7,13 C6.44771525,13 6,12.5522847 6,12 C6,11.4477153 6.44771525,11 7,11 L7,11 Z" id="Combined-Shape" fill="#000000"></path>
    </g>
</svg>