<?xml version="1.0" encoding="UTF-8"?>
<!--
  - Infomaniak kDrive - Desktop
  - Copyright (C) 2023-2025 Infomaniak Network SA
  -
  - This program is free software: you can redistribute it and/or modify
  - it under the terms of the GNU General Public License as published by
  - the Free Software Foundation, either version 3 of the License, or
  - (at your option) any later version.
  -
  - This program is distributed in the hope that it will be useful,
  - but WITHOUT ANY WARRANTY; without even the implied warranty of
  - MERCHANTABILITY or FITNESS FOR A PARTICULAR PURPOSE.  See the
  - GNU General Public License for more details.
  -
  - You should have received a copy of the GNU General Public License
  - along with this program.  If not, see <http://www.gnu.org/licenses/>.
  -->

<svg width="18px" height="18px" viewBox="0 0 18 18" version="1.1" xmlns="http://www.w3.org/2000/svg" xmlns:xlink="http://www.w3.org/1999/xlink">
    <title>icons/lite-sync/litesync-off</title>
    <g id="icons/lite-sync/litesync-off" stroke="none" stroke-width="1" fill="none" fill-rule="evenodd">
        <path d="M0.360726533,0.361224797 C0.835794918,-0.115592964 1.60394889,-0.122292595 2.09373992,0.352616537 L2.09373992,0.352616537 L5.06716504,3.33690538 C5.97106175,2.41335527 7.21502154,1.82206354 8.59667808,1.76332729 L8.59667808,1.76332729 L8.82413059,1.7585018 C11.2610089,1.7585018 13.3294187,3.42023675 13.9088803,5.69174122 L13.9088803,5.69174122 L13.9250706,5.7626789 L14.1856362,5.81416408 C16.2987179,6.29721378 17.8940994,8.13700711 17.9949345,10.3665661 L17.9949345,10.3665661 L18,10.5910362 C18,12.1521419 17.2680847,13.5415929 16.1282965,14.4387661 L17.5898907,15.9059429 C18.0566315,16.3909748 18.0499564,17.1619574 17.5748881,17.6387752 C17.0998197,18.115593 16.3316657,18.1222926 15.8418747,17.6473835 L15.8418747,17.6473835 L13.6600155,15.4583708 C13.4703131,15.480516 13.2773238,15.4919021 13.0816815,15.4919021 L13.0816815,15.4919021 L4.6690447,15.4919021 C2.31753525,15.4919021 0.407552883,13.5923848 0.407552883,11.2443543 C0.407552883,9.32318271 1.68662002,7.7023467 3.44072011,7.17646159 L3.44072011,7.17646159 L3.5814963,7.13715858 L3.57739868,6.98602678 C3.57739868,6.48515027 3.64805488,6.00082859 3.7799573,5.54237549 L0.345723934,2.09405712 C-0.121016902,1.60902516 -0.114341851,0.838042558 0.360726533,0.361224797 Z M5.54906999,7.31984381 C5.56384605,7.46455783 5.58822147,7.60760225 5.62196628,7.74851554 L5.62196628,7.74851554 L5.91177684,8.95872086 L4.67167201,8.95872086 C3.39364671,8.95872086 2.36226923,9.98402244 2.36226923,11.2443543 C2.36226923,12.5048019 3.39310323,13.5299878 4.6690447,13.5299878 L4.6690447,13.5299878 L11.738,13.529 Z M8.82413059,3.72041613 C7.89030522,3.72041613 7.04817362,4.10573919 6.44943989,4.7243006 L14.7290822,13.0346109 C15.5232159,12.5070156 16.0452837,11.6088746 16.0452837,10.5910362 C16.0452837,8.97010291 14.7203396,7.65208461 13.0816815,7.65208461 L13.0816815,7.65208461 L12.1735143,7.65208461 L12.1069519,6.7430248 C11.9828008,5.04745906 10.5533991,3.72041613 8.82413059,3.72041613 Z" id="path" fill="#000000" fill-rule="nonzero"></path>
    </g>
</svg>