<?xml version="1.0" encoding="UTF-8"?>
<!--
  - Infomaniak kDrive - Desktop
  - Copyright (C) 2023-2025 Infomaniak Network SA
  -
  - This program is free software: you can redistribute it and/or modify
  - it under the terms of the GNU General Public License as published by
  - the Free Software Foundation, either version 3 of the License, or
  - (at your option) any later version.
  -
  - This program is distributed in the hope that it will be useful,
  - but WITHOUT ANY WARRANTY; without even the implied warranty of
  - MERCHANTABILITY or FITNESS FOR A PARTICULAR PURPOSE.  See the
  - GNU General Public License for more details.
  -
  - You should have received a copy of the GNU General Public License
  - along with this program.  If not, see <http://www.gnu.org/licenses/>.
  -->

<svg width="24px" height="24px" viewBox="0 0 24 24" version="1.1" xmlns="http://www.w3.org/2000/svg" xmlns:xlink="http://www.w3.org/1999/xlink">
    <!-- Generator: Sketch 63.1 (92452) - https://sketch.com -->
    <title>icons/actions/notification-off</title>
    <desc>Created with Sketch.</desc>
    <g id="icons/actions/notification-off" stroke="none" stroke-width="1" fill="none" fill-rule="evenodd">
        <path d="M14.2436174,21 C14.3694166,21.0017847 14.4741474,21.0970104 14.487777,21.222 C14.4978462,21.3143241 14.5028569,21.4071292 14.5027875,21.5 C14.5027875,22.8807119 13.3827667,24 12.0011518,24 C10.619537,24 9.49951682,22.8807119 9.49951682,21.5 C9.50110547,21.4070378 9.50778649,21.3142322 9.5195299,21.222 C9.53377127,21.0957258 9.64053551,21.0002171 9.76769209,21 L9.76769209,21 Z M23.0078455,0.000713343584 C23.2734283,0.000713343584 23.5281172,0.106222957 23.7158082,0.294 C24.0947306,0.689275376 24.0947306,1.31272462 23.7158082,1.708 L23.7158082,1.708 L1.70142022,23.708 C1.51368524,23.8944213 1.25858066,23.9971898 0.993957841,23.9931233 C0.591239892,23.9927079 0.228439149,23.7497654 0.0750271719,23.377656 C-0.0783848054,23.0055466 0.00786992791,22.577711 0.293500042,22.294 L0.293500042,22.294 L4.08597869,18.5 L2.99526584,18.5 C2.8219665,18.499648 2.66119051,18.4097002 2.57029637,18.2622466 C2.47940223,18.1147929 2.47133553,17.9308343 2.54897415,17.776 L2.54897415,17.776 L2.71408206,17.45 C3.76777072,15.368 4.29611603,14.324 4.29611603,11.944 L4.29611603,11.944 L4.29611603,9.676 C4.29611603,6.551 5.77908526,5.392 7.64830692,3.926 C8.48600557,3.28346078 9.4627518,2.84609597 10.5001708,2.649 L10.5001708,2.649 L10.5001708,1.5 C10.5001708,0.671572875 11.1721829,-3.73034936e-14 12.0011518,-3.73034936e-14 C12.8301207,-3.73034936e-14 13.5021328,0.671572875 13.5021328,1.5 L13.5021328,1.5 L13.5021328,2.636 C14.3355106,2.7838475 15.1311292,3.09590415 15.8426625,3.554 C16.4879881,3.96234671 17.1035932,4.41581232 17.6848665,4.911 L17.6848665,4.911 L22.2998828,0.294 C22.4875737,0.106222957 22.7422626,0.000713343584 23.0078455,0.000713343584 Z M19.5570901,8.071 C19.660304,8.59968092 19.7102526,9.13736637 19.7061876,9.676 L19.7061876,9.676 L19.7061876,10.444 C19.7102986,12.9902964 20.3088815,15.5005101 21.4543301,17.775 C21.532525,17.9300768 21.5246052,18.1145934 21.4334096,18.2624091 C21.3422139,18.4102249 21.180804,18.5001687 21.0070378,18.5000002 L21.0070378,18.5000002 L9.12527222,18.5000002 Z" id="Combined-Shape" fill="#000000" fill-rule="nonzero"></path>
    </g>
</svg>