<?xml version="1.0" encoding="UTF-8"?>
<!--
  - Infomaniak kDrive - Desktop
  - Copyright (C) 2023-2025 Infomaniak Network SA
  -
  - This program is free software: you can redistribute it and/or modify
  - it under the terms of the GNU General Public License as published by
  - the Free Software Foundation, either version 3 of the License, or
  - (at your option) any later version.
  -
  - This program is distributed in the hope that it will be useful,
  - but WITHOUT ANY WARRANTY; without even the implied warranty of
  - MERCHANTABILITY or FITNESS FOR A PARTICULAR PURPOSE.  See the
  - GNU General Public License for more details.
  -
  - You should have received a copy of the GNU General Public License
  - along with this program.  If not, see <http://www.gnu.org/licenses/>.
  -->

<svg width="24px" height="24px" viewBox="0 0 24 24" version="1.1" xmlns="http://www.w3.org/2000/svg" xmlns:xlink="http://www.w3.org/1999/xlink">
    <!-- Generator: Sketch 63.1 (92452) - https://sketch.com -->
    <title>icons/actions/parameters</title>
    <desc>Created with Sketch.</desc>
    <g id="icons/actions/parameters" stroke="none" stroke-width="1" fill="none" fill-rule="evenodd">
        <path d="M11.9996215,0.00195488594 C13.0042112,0.00195488594 13.9002405,0.63375765 14.2376215,1.58 L14.2376215,1.58 L14.6876215,2.845 C14.8178241,3.21149791 15.0971516,3.50570952 15.4564028,3.65474638 C15.8156541,3.80378323 16.2212187,3.79370192 16.5726215,3.627 L16.5726215,3.627 L17.7856215,3.05 C18.6932771,2.61948132 19.7736071,2.80632078 20.4839539,3.51666756 C21.1943007,4.22701433 21.3811402,5.30734436 20.9506215,6.215 L20.9506215,6.215 L20.3746215,7.428 L20.3191764,7.56206001 C20.2069734,7.87991321 20.2150373,8.22987897 20.3451491,8.54448274 C20.4938484,8.90402992 20.7880138,9.18367553 21.1546215,9.314 L21.1546215,9.314 L22.4206215,9.763 C23.3671076,10.0998765 23.999243,10.9958499 23.999243,12.0005 C23.999243,13.0051501 23.3671076,13.9011235 22.4206215,14.238 L22.4206215,14.238 L21.1546215,14.689 C20.7882812,14.8193593 20.4943296,15.0988372 20.3456549,15.4581345 C20.1969801,15.8174318 20.2075056,16.2229003 20.3746215,16.574 L20.3746215,16.574 L20.9506215,17.787 C21.3811402,18.6946556 21.1943007,19.7749857 20.4839539,20.4853324 C19.7736071,21.1956792 18.6932771,21.3825187 17.7856215,20.952 L17.7856215,20.952 L16.5726215,20.376 C16.2215218,20.2088842 15.8160533,20.1983587 15.456756,20.3470334 C15.0974587,20.4957081 14.8179807,20.7896598 14.6876215,21.156 L14.6876215,21.156 L14.2376215,22.422 C13.9002405,23.3682424 13.0042112,24.0000451 11.9996215,24.0000451 C10.9950317,24.0000451 10.0990025,23.3682424 9.76162148,22.422 L9.76162148,22.422 L9.31162148,21.157 C9.18173259,20.7902777 8.90236393,20.4958752 8.54294674,20.3469602 C8.18352955,20.1980451 7.7778101,20.2085994 7.42662148,20.376 L7.42662148,20.376 L6.21362148,20.952 C5.30596584,21.3825187 4.22563581,21.1956792 3.51528903,20.4853324 C2.80494226,19.7749857 2.6181028,18.6946556 3.04862148,17.787 L3.04862148,17.787 L3.62462148,16.574 C3.79173731,16.2229003 3.80226281,15.8174318 3.65358808,15.4581345 C3.50491334,15.0988372 3.21096172,14.8193593 2.84462148,14.689 L2.84462148,14.689 L1.57862148,14.239 C0.632135378,13.9021235 -2.62900812e-13,13.0061501 -2.62900812e-13,12.0015 C-2.62900812e-13,10.9968499 0.632135378,10.1008765 1.57862148,9.764 L1.57862148,9.764 L2.84462148,9.314 C3.2110269,9.18341458 3.50497867,8.90374642 3.65363856,8.54429444 C3.80229844,8.18484247 3.79175525,7.7792432 3.62462148,7.428 L3.62462148,7.428 L3.04862148,6.215 C2.6181028,5.30734436 2.80494226,4.22701433 3.51528903,3.51666756 C4.22563581,2.80632078 5.30596584,2.61948132 6.21362148,3.05 L6.21362148,3.05 L7.42662148,3.627 C7.77789352,3.79374532 8.18334267,3.80396528 8.54256942,3.65512916 C8.90179617,3.50629303 9.18121019,3.2123181 9.31162148,2.846 L9.31162148,2.846 L9.76162148,1.58 C10.0990025,0.63375765 10.9950317,0.00195488594 11.9996215,0.00195488594 Z M16.4396215,10.16 C15.3979443,7.73294592 12.6109385,6.57927376 10.1586215,7.56 C7.70881036,8.57908654 6.54582951,11.3885799 7.55862148,13.841 C8.33550329,15.6066618 10.0708074,16.7570187 11.9996215,16.785 C12.6300754,16.797971 13.2564375,16.6808685 13.8396215,16.441 C16.2894326,15.4219135 17.4524135,12.6124201 16.4396215,10.16 Z" id="path" fill="#000000"></path>
    </g>
</svg>