<?xml version="1.0" encoding="UTF-8"?>
<!--
  - Infomaniak kDrive - Desktop
  - Copyright (C) 2023-2025 Infomaniak Network SA
  -
  - This program is free software: you can redistribute it and/or modify
  - it under the terms of the GNU General Public License as published by
  - the Free Software Foundation, either version 3 of the License, or
  - (at your option) any later version.
  -
  - This program is distributed in the hope that it will be useful,
  - but WITHOUT ANY WARRANTY; without even the implied warranty of
  - MERCHANTABILITY or FITNESS FOR A PARTICULAR PURPOSE.  See the
  - GNU General Public License for more details.
  -
  - You should have received a copy of the GNU General Public License
  - along with this program.  If not, see <http://www.gnu.org/licenses/>.
  -->

<svg width="24px" height="24px" viewBox="0 0 24 24" version="1.1" xmlns="http://www.w3.org/2000/svg" xmlns:xlink="http://www.w3.org/1999/xlink">
    <!-- Generator: Sketch 63.1 (92452) - https://sketch.com -->
    <title>icons/actions/share</title>
    <desc>Created with Sketch.</desc>
    <g id="icons/actions/share" stroke="none" stroke-width="1" fill="none" fill-rule="evenodd">
        <path d="M21.2159209,10.9865316 C22.7385818,10.9865316 23.9729424,12.2166884 23.9729424,13.7341636 C23.9729424,15.2516389 22.7385818,16.4817957 21.2159209,16.4817957 C20.6629091,16.480301 20.123543,16.3105366 19.6699838,15.995215 C19.588975,15.9395312 19.4828293,15.936018 19.3982919,15.9862228 L19.3982919,15.9862228 L16.5309896,17.7007451 C16.4563145,17.7468264 16.4167683,17.8331378 16.4307343,17.9195566 C16.4417624,17.9974894 16.4497828,18.0564386 16.4497828,18.0974033 C16.454696,18.1947764 16.5162278,18.2803151 16.6071836,18.3162147 L16.6071836,18.3162147 L19.0574238,19.2933726 C19.1487232,19.3292294 19.2525853,19.3093838 19.3241029,19.2424165 C20.207072,18.4054899 21.5353681,18.2424543 22.5957163,18.8408573 C23.6560644,19.4392603 24.1990321,20.6583357 23.9330538,21.8434584 C23.6670756,23.0285811 22.6547192,23.900967 21.4396047,23.9921581 C20.2244903,24.0833493 19.092457,23.3718941 18.6513897,22.2398333 C18.5377604,21.9646418 18.4755821,21.6710624 18.4679225,21.3735798 C18.4646937,21.2744506 18.4029206,21.186616 18.3105216,21.1497727 L18.3105216,21.1497727 L15.8552687,20.1706166 C15.7643012,20.1346765 15.6606767,20.1545514 15.5895921,20.2215726 C14.7931994,20.9812669 13.618444,21.193339 12.6052627,20.7603174 C11.5920814,20.3272957 10.9364669,19.3329451 10.9397379,18.2342853 C10.9436152,16.7190558 12.1763601,15.4922961 13.6967716,15.4906498 C14.2501157,15.4920048 14.7898427,15.6617727 15.2437112,15.9772305 C15.32472,16.0329144 15.4308657,16.0364275 15.5154032,15.9862228 L15.5154032,15.9862228 L18.3606493,14.2756969 C18.4467568,14.2248986 18.4941076,14.1277669 18.4809557,14.0289096 C18.4670184,13.9312609 18.4596499,13.8327925 18.4588995,13.7341636 C18.4588995,12.2166884 19.69326,10.9865316 21.2159209,10.9865316 Z M7.2242878,10.4909587 C9.49317513,10.5038337 11.6351496,11.5361157 13.0541349,13.3005373 C13.1620176,13.434931 13.1928885,13.6152039 13.1358383,13.7776495 C13.078788,13.9400951 12.9418513,14.0618353 12.77342,14.0998485 C11.5698819,14.3681818 10.5419918,15.1429424 9.95524284,16.2240178 C9.86760062,16.3853919 9.69824177,16.485894 9.51411941,16.4857923 L9.51411941,16.4857923 L0.501165712,16.4857923 C0.342853623,16.4857923 0.1938624,16.4111916 0.0992863286,16.2846669 C0.00471025762,16.1581423 -0.0243345572,15.9945286 0.0209427055,15.8433459 C0.98297179,12.6769273 3.90463113,10.5060119 7.2242878,10.4909587 Z M7.01776183,0 C9.64781246,0 11.7798898,2.12481623 11.7798898,4.74590988 C11.7798898,7.36700353 9.64781246,9.49181976 7.01776183,9.49181976 C4.38771119,9.49181976 2.2556339,7.36700353 2.2556339,4.74590988 C2.2556339,2.12481623 4.38771119,0 7.01776183,0 Z" id="Combined-Shape" fill="#000000"></path>
    </g>
</svg>