<?xml version="1.0" encoding="UTF-8"?>
<!--
  - Infomaniak kDrive - Desktop
  - Copyright (C) 2023-2025 Infomaniak Network SA
  -
  - This program is free software: you can redistribute it and/or modify
  - it under the terms of the GNU General Public License as published by
  - the Free Software Foundation, either version 3 of the License, or
  - (at your option) any later version.
  -
  - This program is distributed in the hope that it will be useful,
  - but WITHOUT ANY WARRANTY; without even the implied warranty of
  - MERCHANTABILITY or FITNESS FOR A PARTICULAR PURPOSE.  See the
  - GNU General Public License for more details.
  -
  - You should have received a copy of the GNU General Public License
  - along with this program.  If not, see <http://www.gnu.org/licenses/>.
  -->

<svg width="24px" height="24px" viewBox="0 0 24 24" version="1.1" xmlns="http://www.w3.org/2000/svg" xmlns:xlink="http://www.w3.org/1999/xlink">
    <!-- Generator: Sketch 63.1 (92452) - https://sketch.com -->
    <title>icons/actions/sync</title>
    <desc>Created with Sketch.</desc>
    <g id="icons/actions/sync" stroke="none" stroke-width="1" fill="none" fill-rule="evenodd">
        <path d="M20.8282695,8.92602433 L20.9259783,8.92936388 C21.0896161,8.94778025 21.2348111,9.04081272 21.3177402,9.18038207 L21.3177402,9.18038207 L23.9294861,13.6157197 C24.0288671,13.7837452 24.0227988,13.9924423 23.9138156,14.1546404 C23.8163771,14.2975013 23.6523824,14.3829203 23.4771317,14.3820936 C23.4562642,14.3835522 23.4353173,14.3835522 23.4144498,14.3820936 L23.4144498,14.3820936 L22.3091589,14.251974 C22.1821117,14.2374559 22.0629212,14.3149519 22.0270903,14.4353709 C20.9712045,18.0395003 18.0377754,20.8191829 14.3287081,21.7302668 C10.6740682,22.5804855 6.83905838,21.3870487 4.35288346,18.6258378 C4.03099252,18.2850358 3.92251357,17.8000075 4.06940632,17.3583621 C4.21629907,16.9167167 4.59552897,16.5877096 5.06040966,16.498601 C5.52529035,16.4094923 6.00292292,16.5742554 6.30855879,16.9291598 C8.15722003,18.9820531 11.0085609,19.8694137 13.7259172,19.2375025 C16.3351054,18.5912961 18.4409057,16.7064841 19.3349027,14.2171388 C19.3612343,14.1435799 19.3524099,14.0623046 19.3108746,13.995833 C19.2692135,13.9292853 19.1987697,13.8851155 19.1196948,13.875959 L19.1196948,13.875959 L17.1890922,13.6495303 C16.9929693,13.6258165 16.8272807,13.4955919 16.760958,13.3130339 C16.6946354,13.1304758 16.739034,12.9268408 16.8756827,12.7868474 L16.8756827,12.7868474 L20.4861603,9.08407305 C20.5987199,8.96591832 20.7625058,8.90830541 20.9259783,8.92936388 Z M9.64010187,2.26969774 C13.2946342,1.41942659 17.1295315,2.61334719 19.6148818,5.37515129 C20.0929023,5.9047879 20.0426216,6.71418688 19.5025767,7.18299451 C18.9625319,7.65180213 18.1372269,7.60249049 17.6592065,7.07285387 C15.8108379,5.01954493 12.9590445,4.13243736 10.2418481,4.7655357 C7.63303873,5.4143479 5.52792411,7.29969982 4.63286262,9.7889731 C4.60594135,9.86156231 4.61385857,9.94218984 4.65440988,10.0084065 C4.69496119,10.0746232 4.76381574,10.1193571 4.84180229,10.1301529 L4.84180229,10.1301529 L6.80374582,10.3678518 C7.00074004,10.3909905 7.16736187,10.5215838 7.23381099,10.7049244 C7.30026012,10.888265 7.25506376,11.0926982 7.11715533,11.2325838 L7.11715533,11.2325838 L3.48473912,14.9138423 C3.38635848,15.0133825 3.2510439,15.0695703 3.10969241,15.0695761 C3.0881301,15.0711046 3.06648342,15.0711046 3.04492111,15.0695761 C2.88144789,15.0498661 2.73702868,14.9556953 2.65524862,14.8154842 L2.65524862,14.8154842 L0.0685754808,10.3668272 C-0.0295557277,10.1980321 -0.0218684767,9.98931814 0.0884247497,9.82790653 C0.195894963,9.66610327 0.388318986,9.57891195 0.583611773,9.60352701 L0.583611773,9.60352701 L1.66278518,9.73672033 C1.79011303,9.75276998 1.91034082,9.67532313 1.94589844,9.55434794 C3.00574396,5.95612139 5.93611079,3.18173448 9.64010187,2.26969774 Z" id="path" fill="#000000"></path>
    </g>
</svg>