<?xml version="1.0" encoding="UTF-8"?>
<!--
  - Infomaniak kDrive - Desktop
  - Copyright (C) 2023-2025 Infomaniak Network SA
  -
  - This program is free software: you can redistribute it and/or modify
  - it under the terms of the GNU General Public License as published by
  - the Free Software Foundation, either version 3 of the License, or
  - (at your option) any later version.
  -
  - This program is distributed in the hope that it will be useful,
  - but WITHOUT ANY WARRANTY; without even the implied warranty of
  - MERCHANTABILITY or FITNESS FOR A PARTICULAR PURPOSE.  See the
  - GNU General Public License for more details.
  -
  - You should have received a copy of the GNU General Public License
  - along with this program.  If not, see <http://www.gnu.org/licenses/>.
  -->

<svg width="24px" height="24px" viewBox="0 0 24 24" version="1.1" xmlns="http://www.w3.org/2000/svg" xmlns:xlink="http://www.w3.org/1999/xlink">
    <!-- Generator: Sketch 63.1 (92452) - https://sketch.com -->
    <title>icons/actions/view</title>
    <desc>Created with Sketch.</desc>
    <defs>
        <path d="M11.9993022,4 C12.1993022,4 12.3883022,4 12.5833022,4.012 C16.5933022,4.2 20.4623022,6.77 23.0913022,9.665 C24.3014687,10.9854025 24.3023368,13.011561 23.0933022,14.333 C21.8863022,15.662 17.5273022,20 12.1273022,20 L12.1273022,20 L11.8713022,20 C6.47030222,20 2.11230222,15.662 0.907302224,14.333 C-0.302434075,13.0117484 -0.302434075,10.9852516 0.907302224,9.664 C0.957302224,9.609 1.00730222,9.554 1.05730222,9.5 C3.87530222,6.47 7.74630222,4.034 11.9993022,4 Z M11.9993022,6 C8.33130222,5.915 4.75130222,8.4 2.38430222,11.011 C1.87717259,11.572818 1.87717259,12.427182 2.38430222,12.989 C2.49230222,13.1083333 2.60196889,13.226 2.71330222,13.342 C5.15930222,15.89 8.36930222,17.915 11.9993022,18 C12.3239028,18.0039822 12.6484581,17.9889565 12.9713022,17.955 C16.2933022,17.642 19.4433022,15.375 21.6133022,12.987 C22.1218866,12.4258009 22.1231828,11.5707384 21.6163022,11.008 C20.8644571,10.1809818 20.0375883,9.42541785 19.1463022,8.751 C18.103061,7.94799611 16.9602246,7.2834703 15.7463022,6.774 C14.5635123,6.26203955 13.2881364,5.9985912 11.9993022,6 Z M11.9993022,8 C14.2084412,8 15.9993022,9.790861 15.9993022,12 C15.9993022,14.209139 14.2084412,16 11.9993022,16 C9.79016322,16 7.99930222,14.209139 7.99930222,12 C8.00137915,11.7257341 8.0349321,11.4526131 8.09930222,11.186 C8.11912081,11.1025199 8.18036466,11.035035 8.26153606,11.0072338 C8.34270746,10.9794326 8.43246503,10.9951995 8.49930222,11.049 C9.26253541,11.6728627 10.3670951,11.6453948 11.0983759,10.9843669 C11.8296568,10.323339 11.9681696,9.22715438 11.4243022,8.405 C11.3762399,8.33223565 11.369746,8.23963037 11.4071825,8.16087038 C11.4446191,8.08211039 11.5205302,8.02867426 11.6073022,8.02 C11.7375504,8.00675801 11.8683827,8.00008289 11.9993022,8 Z" id="path-1"></path>
    </defs>
    <g id="icons/actions/view" stroke="none" stroke-width="1" fill="none" fill-rule="evenodd">
        <mask id="mask-2" fill="white">
            <use xlink:href="#path-1"></use>
        </mask>
        <use id="icon" fill="#000000" xlink:href="#path-1"></use>
    </g>
</svg>