<svg width="16" height="16" viewBox="0 0 16 16" fill="none" xmlns="http://www.w3.org/2000/svg">
<path d="M12 0C12.3905 3.91404e-05 12.766 0.152586 13.0459 0.424805L13.0469 0.425781L15.0469 2.34766C15.1901 2.48731 15.304 2.65455 15.3818 2.83887C15.4596 3.0233 15.5 3.22171 15.5 3.42188V14.5C15.5 14.8978 15.3419 15.2792 15.0605 15.5605C14.7792 15.8419 14.3978 16 14 16H2C1.60217 16 1.22076 15.8419 0.939453 15.5605C0.658149 15.2792 0.5 14.8978 0.5 14.5V1.5C0.5 1.10218 0.658149 0.720758 0.939453 0.439453C1.22076 0.158149 1.60218 0 2 0H12ZM2 1C1.86739 1 1.74025 1.05272 1.64648 1.14648C1.55272 1.24025 1.5 1.36739 1.5 1.5V14.5C1.5 14.6326 1.55272 14.7597 1.64648 14.8535C1.74025 14.9473 1.86739 15 2 15H14C14.1326 15 14.2597 14.9473 14.3535 14.8535C14.4473 14.7597 14.5 14.6326 14.5 14.5V3.42188C14.5 3.35522 14.4868 3.28895 14.4609 3.22754C14.4352 3.16654 14.3969 3.11177 14.3496 3.06543L14.3486 3.06445L12.3486 1.1416C12.2553 1.0508 12.1302 1.00003 12 1H2ZM8.65234 3.99805C8.67657 3.99978 8.70881 4.00274 8.74512 4.00879C8.81534 4.02052 8.91631 4.04508 9.02344 4.09863C9.1327 4.15326 9.25746 4.24272 9.35352 4.38672C9.45166 4.53394 9.49998 4.70805 9.5 4.89551V6.11719C9.4997 6.12593 9.4989 6.13643 9.49805 6.14844C9.49632 6.17264 9.49334 6.20399 9.4873 6.24023C9.4756 6.31048 9.45114 6.41217 9.39746 6.51953C9.3428 6.62881 9.25244 6.75358 9.1084 6.84961C8.96123 6.94761 8.78694 6.99512 8.59961 6.99512H8.5V7.7627H10.1338C10.4076 7.76281 10.6706 7.87084 10.8643 8.06445C11.058 8.25824 11.167 8.52184 11.167 8.7959V8.99902C11.1888 9.00092 11.2155 9.00386 11.2451 9.00879C11.3153 9.02052 11.4163 9.04508 11.5234 9.09863C11.6327 9.15326 11.7575 9.24272 11.8535 9.38672C11.9517 9.53394 12 9.70805 12 9.89551V11.1172C11.9997 11.1259 11.9989 11.1364 11.998 11.1484C11.9963 11.1726 11.9933 11.204 11.9873 11.2402C11.9756 11.3105 11.9511 11.4122 11.8975 11.5195C11.8428 11.6288 11.7524 11.7536 11.6084 11.8496C11.4612 11.9476 11.2869 11.9951 11.0996 11.9951H9.87891C9.87018 11.9948 9.85968 11.994 9.84766 11.9932C9.82343 11.9914 9.79119 11.9885 9.75488 11.9824C9.68466 11.9707 9.58368 11.9461 9.47656 11.8926C9.3673 11.8379 9.24255 11.7485 9.14648 11.6045C9.04834 11.4573 9.00002 11.2832 9 11.0957V9.87402C9.0003 9.86528 9.00109 9.85478 9.00195 9.84277C9.00368 9.81857 9.00666 9.78722 9.0127 9.75098C9.0244 9.68073 9.04886 9.57904 9.10254 9.47168C9.1572 9.3624 9.24755 9.23764 9.3916 9.1416C9.53878 9.04359 9.71305 8.99609 9.90039 8.99609H10.167V8.7959C10.167 8.78724 10.1632 8.77867 10.1572 8.77246C10.1511 8.76632 10.1425 8.76281 10.1338 8.7627H5.86621C5.85754 8.76282 5.84891 8.76632 5.84277 8.77246C5.83677 8.77867 5.83301 8.78724 5.83301 8.7959V8.99609H6.12109C6.12981 8.99638 6.14034 8.9972 6.15234 8.99805C6.17657 8.99978 6.20881 9.00274 6.24512 9.00879C6.31534 9.02052 6.41631 9.04508 6.52344 9.09863C6.6327 9.15326 6.75746 9.24273 6.85352 9.38672C6.95166 9.53394 6.99998 9.70805 7 9.89551V11.1172C6.9997 11.1259 6.9989 11.1364 6.99805 11.1484C6.99632 11.1726 6.99334 11.204 6.9873 11.2402C6.9756 11.3105 6.95114 11.4122 6.89746 11.5195C6.8428 11.6288 6.75244 11.7536 6.6084 11.8496C6.46123 11.9476 6.28694 11.9951 6.09961 11.9951H4.87891C4.87018 11.9948 4.85968 11.994 4.84766 11.9932C4.82343 11.9914 4.79119 11.9885 4.75488 11.9824C4.68466 11.9707 4.58368 11.9461 4.47656 11.8926C4.3673 11.8379 4.24255 11.7485 4.14648 11.6045C4.04834 11.4573 4.00002 11.2832 4 11.0957V9.87402C4.0003 9.86528 4.0011 9.85478 4.00195 9.84277C4.00368 9.81857 4.00666 9.78722 4.0127 9.75098C4.0244 9.68073 4.04886 9.57904 4.10254 9.47168C4.1572 9.3624 4.24755 9.23764 4.3916 9.1416C4.52106 9.05539 4.67126 9.00828 4.83301 8.99805V8.7959C4.83301 8.52184 4.94195 8.25824 5.13574 8.06445C5.32941 7.87084 5.59237 7.76282 5.86621 7.7627H7.5V6.99512H7.37891C7.37018 6.99483 7.35968 6.99402 7.34766 6.99316C7.32343 6.99143 7.29119 6.98847 7.25488 6.98242C7.18466 6.97069 7.08368 6.94613 6.97656 6.89258C6.8673 6.83795 6.74255 6.7485 6.64648 6.60449C6.54834 6.45727 6.50002 6.28316 6.5 6.0957V4.87402C6.5003 4.86528 6.5011 4.85478 6.50195 4.84277C6.50368 4.81857 6.50666 4.78722 6.5127 4.75098C6.5244 4.68073 6.54886 4.57904 6.60254 4.47168C6.6572 4.3624 6.74755 4.23764 6.8916 4.1416C7.03878 4.04359 7.21305 3.99609 7.40039 3.99609H8.62109C8.62981 3.99638 8.64034 3.9972 8.65234 3.99805Z" fill="#FF9802"/>
</svg>
