<svg width="16" height="16" viewBox="0 0 16 16" fill="none" xmlns="http://www.w3.org/2000/svg">
<path d="M12.0244 0C12.4157 0.000108028 12.7917 0.152874 13.0723 0.425781L15.0469 2.34766C15.1902 2.4873 15.304 2.65452 15.3818 2.83887C15.4596 3.02327 15.5001 3.22174 15.5 3.42188V14.5C15.5 14.8982 15.3414 15.2803 15.0596 15.5615C14.7779 15.8425 14.3959 15.9999 13.998 16H2.00195C1.60411 15.9999 1.22215 15.8425 0.94043 15.5615C0.658593 15.2803 0.5 14.8982 0.5 14.5V1.5C0.5 1.10182 0.658593 0.719696 0.94043 0.438477C1.22215 0.157518 1.60411 6.39724e-05 2.00195 0H12.0244ZM2.00195 1C1.86853 1.00006 1.74052 1.05269 1.64648 1.14648C1.55243 1.24034 1.5 1.36775 1.5 1.5V14.5C1.5 14.6323 1.55243 14.7597 1.64648 14.8535C1.74052 14.9473 1.86853 14.9999 2.00195 15H13.998C14.1315 14.9999 14.2595 14.9473 14.3535 14.8535C14.4476 14.7597 14.5 14.6323 14.5 14.5V3.42188C14.5 3.35536 14.4868 3.2889 14.4609 3.22754C14.4351 3.16642 14.3972 3.11096 14.3496 3.06445L12.375 1.14258C12.2814 1.05156 12.1556 1.0001 12.0244 1H2.00195ZM9.05078 7.57031C9.22201 7.57235 9.38907 7.61804 9.53711 7.70215C9.68478 7.78607 9.80818 7.90509 9.89844 8.04688L11.9277 11.2295C12.0771 11.4638 12.0087 11.7754 11.7744 11.9248C11.54 12.0742 11.2286 12.0049 11.0791 11.7705L9.0498 8.58789C9.04592 8.58178 9.04187 8.57823 9.04004 8.57715C9.03812 8.57815 9.03293 8.58078 9.0293 8.58594L7.6377 10.665C7.55818 10.7838 7.43155 10.8636 7.29004 10.8838C7.14856 10.9039 7.005 10.8623 6.89551 10.7705L6.0332 10.0479C6.02969 10.0491 6.02212 10.0521 6.01953 10.0557L4.92773 11.7705C4.77844 12.0046 4.46775 12.0737 4.2334 11.9248C3.99891 11.7755 3.9298 11.464 4.0791 11.2295L5.16992 9.51562C5.24688 9.39471 5.34856 9.29033 5.46875 9.20996C5.58906 9.12952 5.72536 9.07511 5.86914 9.05176C6.01293 9.02842 6.15964 9.03707 6.2998 9.07617C6.43987 9.11525 6.56906 9.18371 6.67969 9.27637L7.11328 9.63965L8.19141 8.02734C8.28489 7.88741 8.41174 7.77097 8.56152 7.69043C8.71153 7.60977 8.87958 7.56829 9.05078 7.57031ZM6.05762 4.5C6.36704 4.5 6.66402 4.623 6.88281 4.8418C7.10155 5.06058 7.22461 5.35761 7.22461 5.66699C7.22452 5.97618 7.10138 6.27252 6.88281 6.49121C6.66402 6.71 6.36704 6.83301 6.05762 6.83301C5.74826 6.83296 5.45118 6.70996 5.23242 6.49121C5.01396 6.27253 4.89169 5.9761 4.8916 5.66699C4.8916 5.35769 5.01378 5.06057 5.23242 4.8418C5.45118 4.62304 5.74826 4.50004 6.05762 4.5Z" fill="#00BCD4"/>
</svg>
