<svg width="12" height="12" viewBox="0 0 12 12" fill="none" xmlns="http://www.w3.org/2000/svg">
<path fill-rule="evenodd" clip-rule="evenodd" d="M1.50165 0.770841C1.39881 0.770841 1.30199 0.811634 1.23202 0.881346C1.16238 0.950744 1.125 1.04283 1.125 1.1368V10.873C1.125 10.967 1.16238 11.059 1.23202 11.1284C1.30199 11.1981 1.39881 11.2389 1.50165 11.2389H10.4984C10.6012 11.2389 10.698 11.1981 10.768 11.1284C10.8377 11.059 10.875 10.967 10.875 10.873V2.57626C10.875 2.52878 10.8656 2.48133 10.8468 2.43702C10.8281 2.39268 10.8004 2.35188 10.7648 2.3173L9.28432 0.878046C9.21457 0.810314 9.11917 0.770856 9.01807 0.770841H1.50165ZM0.708277 0.333094C0.920235 0.121901 1.20578 0.00488281 1.50165 0.00488281H9.01807C9.30908 0.00491187 9.59025 0.118108 9.80123 0.323073L11.282 1.76261C11.39 1.86764 11.4764 1.99378 11.5354 2.13363C11.5946 2.27351 11.6251 2.4241 11.625 2.57647V10.873C11.625 11.1763 11.504 11.4652 11.2917 11.6767C11.0798 11.8879 10.7942 12.0049 10.4984 12.0049H1.50165C1.20578 12.0049 0.920235 11.8879 0.708277 11.6767C0.496005 11.4652 0.375 11.1763 0.375 10.873V1.1368C0.375 0.833504 0.496005 0.5446 0.708277 0.333094ZM2.50001 3.02764C2.12501 3.02764 2.12501 3.02744 2.12501 3.02725V3.02605L2.12501 3.02434L2.12506 3.02058L2.12528 3.01168C2.1255 3.00517 2.12587 2.99742 2.12651 2.98861C2.12776 2.97112 2.13007 2.9487 2.13439 2.92283C2.14272 2.87287 2.16009 2.8006 2.19853 2.72383C2.23781 2.64537 2.30219 2.55654 2.4046 2.48836C2.50894 2.41889 2.63053 2.38576 2.75926 2.38576H9.24075V2.76874C9.24075 2.38576 9.24053 2.38576 9.24075 2.38576L9.24225 2.38577L9.24382 2.38578L9.24743 2.38582L9.2559 2.38603C9.26213 2.38624 9.26955 2.3866 9.27802 2.3872C9.29482 2.3884 9.3165 2.39063 9.34155 2.39479C9.38985 2.40283 9.46012 2.41963 9.53505 2.45704C9.61133 2.4951 9.70012 2.55862 9.76935 2.66221C9.84037 2.76865 9.87502 2.89411 9.87502 3.02764V8.98216H9.50002C9.87502 8.98216 9.87502 8.98194 9.87502 8.98216V8.98374V8.98546L9.87495 8.98921L9.87473 8.99806C9.8745 9.00459 9.87412 9.01231 9.87352 9.02116C9.87225 9.03864 9.86992 9.06106 9.86565 9.08694C9.85725 9.13689 9.83992 9.20919 9.80145 9.28591C9.76223 9.36436 9.6978 9.45324 9.59542 9.52141C9.49102 9.59086 9.36945 9.62401 9.24075 9.62401H2.75926V9.24099C2.75926 9.62401 2.75944 9.62401 2.75926 9.62401H2.75777H2.75616L2.7526 9.62394L2.74413 9.62371C2.73791 9.62356 2.73048 9.62319 2.722 9.62259C2.70515 9.62139 2.68349 9.61914 2.65843 9.61494C2.61015 9.60691 2.53987 9.59011 2.46493 9.55269C2.38871 9.51466 2.29984 9.45114 2.23067 9.34756C2.15963 9.24114 2.12501 9.11566 2.12501 8.98216V3.02725L2.50001 3.02764ZM2.87501 5.22286V6.65747H4.45834V5.22286H2.87501ZM2.87501 4.4569V3.15172H9.12502V4.4569H2.87501ZM5.20834 5.22286V6.65747H9.12502V5.22286H5.20834ZM9.12502 7.42343H5.20834V8.85804H9.12502V7.42343ZM4.45834 8.85804V7.42343H2.87501V8.85804H4.45834Z" fill="#5FC96B"/>
</svg>
