<svg width="16" height="16" viewBox="0 0 16 16" fill="none" xmlns="http://www.w3.org/2000/svg">
<path d="M12 0C12.3905 3.91404e-05 12.766 0.152586 13.0459 0.424805L13.0469 0.425781L15.0469 2.34766C15.1901 2.48731 15.304 2.65455 15.3818 2.83887C15.4596 3.0233 15.5 3.22171 15.5 3.42188V14.5C15.5 14.8978 15.3419 15.2792 15.0605 15.5605C14.7792 15.8419 14.3978 16 14 16H2C1.60217 16 1.22076 15.8419 0.939453 15.5605C0.658149 15.2792 0.5 14.8978 0.5 14.5V1.5C0.5 1.10218 0.658149 0.720758 0.939453 0.439453C1.22076 0.158149 1.60218 1.18389e-08 2 0H12ZM2 1C1.86739 1 1.74025 1.05272 1.64648 1.14648C1.55272 1.24025 1.5 1.36739 1.5 1.5V14.5C1.5 14.6326 1.55272 14.7597 1.64648 14.8535C1.74025 14.9473 1.86739 15 2 15H14C14.1326 15 14.2597 14.9473 14.3535 14.8535C14.4473 14.7597 14.5 14.6326 14.5 14.5V3.42188C14.5 3.35522 14.4868 3.28895 14.4609 3.22754C14.4352 3.16654 14.3969 3.11177 14.3496 3.06543L14.3486 3.06445L12.3486 1.1416C12.2553 1.0508 12.1302 1.00003 12 1H2ZM7.16699 5.66211C7.29949 5.66219 7.42681 5.7149 7.52051 5.80859C7.61419 5.90232 7.66695 6.02959 7.66699 6.16211V8.3291H9.83301C10.1091 8.3291 10.333 8.55296 10.333 8.8291C10.333 9.45523 10.1476 10.0672 9.7998 10.5879C9.45189 11.1086 8.95745 11.5152 8.37891 11.7549C7.80027 11.9946 7.1631 12.0568 6.54883 11.9346C5.9347 11.8124 5.37054 11.5111 4.92773 11.0684C4.48487 10.6255 4.18273 10.0606 4.06055 9.44629C3.93849 8.83217 4.0016 8.19566 4.24121 7.61719C4.48085 7.03865 4.8866 6.54424 5.40723 6.19629C5.92798 5.84833 6.54068 5.66211 7.16699 5.66211ZM8.83301 3.99609C9.67274 3.99609 10.4784 4.32915 11.0723 4.92285C11.6661 5.51668 12 6.32232 12 7.16211C12 7.29468 11.9472 7.42186 11.8535 7.51562C11.7597 7.60939 11.6326 7.66211 11.5 7.66211H8.83301C8.55702 7.66192 8.33301 7.43814 8.33301 7.16211V4.49609C8.33301 4.36349 8.38572 4.23537 8.47949 4.1416C8.57317 4.04796 8.70056 3.99619 8.83301 3.99609Z" fill="#FEAC35"/>
</svg>
