<svg width="16" height="16" viewBox="0 0 16 16" fill="none" xmlns="http://www.w3.org/2000/svg">
<path d="M12 0C12.3905 3.91404e-05 12.766 0.152586 13.0459 0.424805L13.0469 0.425781L15.0469 2.34766C15.1901 2.48731 15.304 2.65455 15.3818 2.83887C15.4596 3.0233 15.5 3.22171 15.5 3.42188V14.5C15.5 14.8978 15.3419 15.2792 15.0605 15.5605C14.7792 15.8419 14.3978 16 14 16H2C1.60217 16 1.22076 15.8419 0.939453 15.5605C0.658149 15.2792 0.5 14.8978 0.5 14.5V1.5C0.5 1.10218 0.658149 0.720758 0.939453 0.439453C1.22076 0.158149 1.60218 0 2 0H12ZM2 1C1.86739 1 1.74025 1.05272 1.64648 1.14648C1.55272 1.24025 1.5 1.36739 1.5 1.5V14.5C1.5 14.6326 1.55272 14.7597 1.64648 14.8535C1.74025 14.9473 1.86739 15 2 15H14C14.1326 15 14.2597 14.9473 14.3535 14.8535C14.4473 14.7597 14.5 14.6326 14.5 14.5V3.42188C14.5 3.35522 14.4868 3.28895 14.4609 3.22754C14.4352 3.16654 14.3969 3.11177 14.3496 3.06543L14.3486 3.06445L12.3486 1.1416C12.2553 1.0508 12.1302 1.00003 12 1H2ZM5.03711 3.99609C5.21952 3.99205 5.40018 4.03317 5.56152 4.11523L11.4375 7.10254C11.6063 7.18843 11.7484 7.31648 11.8477 7.47363C11.9468 7.63084 11.9999 7.81117 12 7.99512C12 8.17923 11.9469 8.36023 11.8477 8.51758C11.7485 8.67461 11.6071 8.80278 11.4385 8.88867L5.56152 11.876C5.40018 11.958 5.21952 11.9992 5.03711 11.9951C4.85456 11.991 4.67586 11.9419 4.51855 11.8525C4.36138 11.7632 4.23071 11.6367 4.13965 11.4844C4.04859 11.3319 4.00004 11.1593 4 10.9834V5.00781C4.00004 4.83194 4.04859 4.65927 4.13965 4.50684C4.23071 4.35451 4.36138 4.22797 4.51855 4.13867C4.67586 4.04934 4.85456 4.00016 5.03711 3.99609Z" fill="#00BCD4"/>
</svg>
