<svg width="12" height="12" viewBox="0 0 12 12" fill="none" xmlns="http://www.w3.org/2000/svg">
<path d="M9.01855 0C9.31196 0.000144404 9.59436 0.114712 9.80469 0.319336L11.2852 1.76074C11.3927 1.86556 11.4787 1.99149 11.5371 2.12988C11.5953 2.26803 11.625 2.4165 11.625 2.56641V10.875C11.625 11.1736 11.5063 11.46 11.2949 11.6709C11.0836 11.8818 10.7966 12 10.498 12H1.50195C1.20341 12 0.916428 11.8818 0.705078 11.6709C0.493728 11.46 0.375 11.1736 0.375 10.875V1.125C0.375 0.826386 0.493728 0.540012 0.705078 0.329102C0.916428 0.118214 1.20341 0 1.50195 0H9.01855ZM1.50195 0.75C1.40182 0.75 1.30592 0.789965 1.23535 0.860352C1.16481 0.930741 1.125 1.02581 1.125 1.125V10.875C1.125 10.9742 1.16481 11.0693 1.23535 11.1396C1.30592 11.21 1.40182 11.25 1.50195 11.25H10.498C10.5982 11.25 10.6941 11.21 10.7646 11.1396C10.8352 11.0693 10.875 10.9742 10.875 10.875V2.56641C10.875 2.51654 10.8651 2.46691 10.8457 2.4209C10.8263 2.3749 10.7976 2.33282 10.7617 2.29785L9.28125 0.856445C9.21112 0.78835 9.11674 0.750135 9.01855 0.75H1.50195ZM6 7.625C6.20711 7.625 6.375 7.79289 6.375 8C6.375 8.20711 6.20711 8.375 6 8.375H3.375C3.16789 8.375 3 8.20711 3 8C3 7.79289 3.16789 7.625 3.375 7.625H6ZM8.625 5.625C8.83211 5.625 9 5.79289 9 6C9 6.20711 8.83211 6.375 8.625 6.375H3.375C3.16789 6.375 3 6.20711 3 6C3 5.79289 3.16789 5.625 3.375 5.625H8.625ZM8.625 3.625C8.83211 3.625 9 3.79289 9 4C9 4.20711 8.83211 4.375 8.625 4.375H3.375C3.16789 4.375 3 4.20711 3 4C3 3.79289 3.16789 3.625 3.375 3.625H8.625Z" fill="#48E0FF"/>
</svg>
