<svg width="12" height="12" viewBox="0 0 12 12" fill="none" xmlns="http://www.w3.org/2000/svg">
<path d="M9 0C9.29287 2.93524e-05 9.57423 0.114233 9.78418 0.318359L9.78516 0.319336L11.2852 1.76074C11.3925 1.8654 11.4778 1.99078 11.5361 2.12891C11.5945 2.26723 11.625 2.41628 11.625 2.56641V10.875C11.625 11.1734 11.5069 11.4599 11.2959 11.6709C11.0849 11.8819 10.7984 12 10.5 12H1.5C1.20163 12 0.91508 11.8819 0.704102 11.6709C0.493123 11.4599 0.375 11.1734 0.375 10.875V1.125C0.375 0.826631 0.493123 0.54008 0.704102 0.329102C0.91508 0.118123 1.20163 0 1.5 0H9ZM1.5 0.75C1.40054 0.75 1.3047 0.789049 1.23438 0.859375C1.16405 0.929701 1.125 1.02554 1.125 1.125V10.875C1.125 10.9745 1.16405 11.0703 1.23438 11.1406C1.3047 11.211 1.40054 11.25 1.5 11.25H10.5C10.5995 11.25 10.6953 11.211 10.7656 11.1406C10.836 11.0703 10.875 10.9745 10.875 10.875V2.56641C10.875 2.51646 10.8651 2.46693 10.8457 2.4209C10.8264 2.37512 10.7972 2.33263 10.7617 2.29785L9.26172 0.856445C9.19171 0.788195 9.09777 0.750019 9 0.75H1.5ZM4.23145 3C4.41925 3.01761 4.58034 3.09975 4.71094 3.20508C4.96183 3.40752 5.14559 3.73213 5.27734 4.06836C5.45877 4.53147 5.57695 5.10863 5.6084 5.67188C5.63939 5.69193 5.67066 5.71177 5.70215 5.73145L5.7041 5.73242C5.70956 5.73588 5.71575 5.7394 5.72168 5.74316C5.78412 5.78278 5.87281 5.83903 5.97949 5.9043C6.792 5.67893 7.45835 5.59029 7.92676 5.66895C8.19032 5.71322 8.45899 5.82242 8.62012 6.0625C8.78723 6.31159 8.773 6.60313 8.68848 6.86035C8.62387 7.056 8.50251 7.21285 8.33105 7.31348C8.16793 7.40917 7.98702 7.43865 7.82227 7.43848C7.50055 7.43806 7.14052 7.32365 6.82129 7.19141C6.48787 7.05327 6.15205 6.87494 5.87598 6.71582C5.75918 6.75199 5.64919 6.79014 5.5459 6.8291C5.50719 7.11036 5.44225 7.4927 5.33105 7.8457C5.24283 8.12574 5.11328 8.42975 4.91406 8.6543C4.69933 8.89615 4.38408 9.06033 3.99023 8.97266C3.68524 8.90547 3.45659 8.69272 3.36426 8.40332C3.27519 8.12406 3.32199 7.81021 3.46777 7.51758C3.6846 7.08265 4.13553 6.65297 4.85254 6.30957C4.85937 6.23204 4.86425 6.15222 4.86621 6.07129C4.33804 5.6886 3.87721 5.25132 3.58691 4.82715C3.40514 4.56148 3.26372 4.26279 3.25098 3.96191C3.23684 3.62795 3.3847 3.33133 3.69141 3.1377L3.69434 3.13574C3.85802 3.03442 4.04049 2.98216 4.23145 3ZM4.71191 7.25195C4.40274 7.46497 4.22492 7.67857 4.13867 7.85156C4.05646 8.01648 4.06374 8.12617 4.0791 8.1748C4.09113 8.21252 4.11083 8.23127 4.15137 8.24023L4.15332 8.24121C4.22054 8.25615 4.27327 8.24553 4.35254 8.15625C4.44716 8.04963 4.53798 7.86532 4.61523 7.62012C4.65315 7.49974 4.68521 7.37494 4.71191 7.25195ZM7.80273 6.40918C7.61625 6.37786 7.34384 6.38575 6.9834 6.44531C7.02507 6.46389 7.06682 6.4818 7.1084 6.49902C7.40455 6.62171 7.65308 6.68826 7.82324 6.68848C7.9039 6.68854 7.9398 6.67267 7.95117 6.66602H7.95215C7.95584 6.664 7.96562 6.65819 7.97656 6.625C7.99794 6.5598 8.00112 6.51896 8 6.49805C7.99946 6.48818 7.99755 6.48295 7.99707 6.48145V6.48047L7.99121 6.47461C7.98659 6.47067 7.97805 6.4645 7.96387 6.45703C7.9336 6.44117 7.88226 6.42256 7.80273 6.40918ZM4.16113 3.74707C4.15576 3.74659 4.13416 3.7453 4.08984 3.77246C4.01173 3.82224 3.99735 3.8652 4 3.92969C4.00416 4.02787 4.05873 4.18797 4.20605 4.40332C4.34311 4.60359 4.53868 4.82007 4.77539 5.03516C4.72685 4.78566 4.65984 4.5479 4.5791 4.3418C4.46522 4.05123 4.34099 3.87041 4.24023 3.78906C4.19498 3.75255 4.16877 3.74779 4.16113 3.74707Z" fill="#FC776D"/>
</svg>
