<svg width="16" height="16" viewBox="0 0 16 16" fill="none" xmlns="http://www.w3.org/2000/svg">
<path fill-rule="evenodd" clip-rule="evenodd" d="M5.75 6.88913C5.75 6.4661 6.08578 6.12317 6.5 6.12317C6.91422 6.12317 7.25 6.4661 7.25 6.88913C7.25 7.31214 6.91422 7.65509 6.5 7.65509C6.08578 7.65509 5.75 7.31214 5.75 6.88913ZM5.75 9.95296C5.75 9.52995 6.08578 9.187 6.5 9.187C6.91422 9.187 7.25 9.52995 7.25 9.95296C7.25 10.376 6.91422 10.7189 6.5 10.7189C6.08578 10.7189 5.75 10.376 5.75 9.95296ZM5.75 13.0168C5.75 12.5938 6.08578 12.2508 6.5 12.2508C6.91422 12.2508 7.25 12.5938 7.25 13.0168C7.25 13.4398 6.91422 13.7827 6.5 13.7827C6.08578 13.7827 5.75 13.4398 5.75 13.0168Z" fill="#7D97B3"/>
<path fill-rule="evenodd" clip-rule="evenodd" d="M2.07692 1.02128C1.90916 1.02128 1.75683 1.08353 1.65153 1.18117C1.54782 1.27733 1.5 1.3966 1.5 1.50922V14.4908C1.5 14.6034 1.54784 14.7227 1.65153 14.8188C1.75681 14.9165 1.90914 14.9787 2.07692 14.9787H13.9231C14.0909 14.9787 14.2432 14.9165 14.3485 14.8188C14.4522 14.7227 14.5 14.6034 14.5 14.4908V3.42065C14.4999 3.30817 14.4522 3.18896 14.3487 3.0929L12.2869 1.18106C12.1816 1.08352 12.0294 1.02134 11.8618 1.02128H2.07692ZM0.979318 0.42506C1.27793 0.148166 1.67345 0 2.07692 0H11.8618C12.265 7.994e-05 12.6604 0.148117 12.9589 0.42472L15.0209 2.33678C15.3208 2.61506 15.4999 3.00361 15.5 3.42037V14.4908C15.5 14.9078 15.321 15.2965 15.0207 15.575C14.7221 15.8519 14.3265 16 13.9231 16H2.07692C1.67348 16 1.27795 15.8519 0.979321 15.575C0.679093 15.2966 0.5 14.9078 0.5 14.4908V1.50922C0.5 1.09217 0.679104 0.703434 0.979318 0.42506Z" fill="#7D97B3"/>
<path d="M7.81733 3.09815C7.84013 3.28507 7.82373 3.47478 7.76927 3.65474C7.7148 3.83469 7.62347 4.00075 7.50133 4.1419C7.37407 4.28311 7.21947 4.39581 7.04733 4.47291C6.8752 4.55001 6.68927 4.58981 6.50135 4.58981C6.3134 4.58981 6.12749 4.55001 5.95537 4.47291C5.78325 4.39581 5.62866 4.28311 5.50135 4.1419C5.37923 4.00075 5.2879 3.83469 5.23342 3.65474C5.17894 3.47478 5.16255 3.28507 5.18535 3.09815L5.50001 0.50615H7.5L7.81733 3.09815Z" fill="#7D97B3"/>
</svg>
