<svg width="16" height="16" viewBox="0 0 16 16" fill="none" xmlns="http://www.w3.org/2000/svg">
<path d="M12.0244 0C12.4157 0.000108028 12.7917 0.152874 13.0723 0.425781L15.0469 2.34766C15.1902 2.4873 15.304 2.65452 15.3818 2.83887C15.4596 3.02327 15.5001 3.22174 15.5 3.42188V14.5C15.5 14.8982 15.3414 15.2803 15.0596 15.5615C14.7779 15.8425 14.3959 15.9999 13.998 16H2.00195C1.60411 15.9999 1.22215 15.8425 0.94043 15.5615C0.658593 15.2803 0.5 14.8982 0.5 14.5V1.5C0.5 1.10182 0.658593 0.719696 0.94043 0.438477C1.22215 0.157518 1.60411 6.39724e-05 2.00195 0H12.0244ZM2.00195 1C1.86853 1.00006 1.74052 1.05269 1.64648 1.14648C1.55243 1.24034 1.5 1.36775 1.5 1.5V14.5C1.5 14.6323 1.55243 14.7597 1.64648 14.8535C1.74052 14.9473 1.86853 14.9999 2.00195 15H13.998C14.1315 14.9999 14.2595 14.9473 14.3535 14.8535C14.4476 14.7597 14.5 14.6323 14.5 14.5V3.42188C14.5 3.35536 14.4868 3.2889 14.4609 3.22754C14.4351 3.16642 14.3972 3.11096 14.3496 3.06445L12.375 1.14258C12.2814 1.05156 12.1556 1.0001 12.0244 1H2.00195ZM7.7627 4.05957C7.91056 3.98005 8.08944 3.98005 8.2373 4.05957L11.4873 5.80762C11.6431 5.89162 11.7367 6.04654 11.749 6.21094V9.75195C11.749 9.93581 11.6481 10.1051 11.4863 10.1924L8.2373 11.9404C8.08945 12.0199 7.91149 12.02 7.76367 11.9404L4.51562 10.1924C4.3536 10.1052 4.25195 9.93595 4.25195 9.75195V6.29785C4.23247 6.10297 4.32958 5.90631 4.5127 5.80762L7.7627 4.05957ZM5.25195 9.45312L7.50098 10.6631V8.29688L5.25195 7.08691V9.45312ZM8.50098 8.29688V10.6631L10.749 9.45312V7.08691L8.50098 8.29688ZM5.80469 6.24805L8.00098 7.42969L10.1963 6.24902L8 5.06738L5.80469 6.24805Z" fill="#1CDEF4"/>
</svg>
