<svg width="15" height="16" viewBox="0 0 15 16" fill="none" xmlns="http://www.w3.org/2000/svg">
<path d="M11.5244 0C11.9157 0.000108028 12.2917 0.152874 12.5723 0.425781L14.5469 2.34766C14.6902 2.4873 14.804 2.65452 14.8818 2.83887C14.9596 3.02327 15.0001 3.22174 15 3.42188V14.5C15 14.8982 14.8414 15.2803 14.5596 15.5615C14.2779 15.8425 13.8959 15.9999 13.498 16H1.50195C1.10411 15.9999 0.722146 15.8425 0.44043 15.5615C0.158593 15.2803 0 14.8982 0 14.5V1.5C0 1.10182 0.158593 0.719696 0.44043 0.438477C0.722147 0.157518 1.10411 6.39724e-05 1.50195 0H11.5244ZM1.50195 1C1.36853 1.00006 1.24052 1.05269 1.14648 1.14648C1.05243 1.24034 1 1.36775 1 1.5V14.5C1 14.6323 1.05243 14.7597 1.14648 14.8535C1.24052 14.9473 1.36853 14.9999 1.50195 15H13.498C13.6315 14.9999 13.7595 14.9473 13.8535 14.8535C13.9476 14.7597 14 14.6323 14 14.5V3.42188C14 3.35536 13.9868 3.2889 13.9609 3.22754C13.9351 3.16642 13.8972 3.11096 13.8496 3.06445L11.875 1.14258C11.7814 1.05156 11.6556 1.0001 11.5244 1H1.50195ZM8.55078 7.57031C8.72201 7.57235 8.88907 7.61804 9.03711 7.70215C9.18478 7.78607 9.30818 7.90509 9.39844 8.04688L11.4277 11.2295C11.5771 11.4638 11.5087 11.7754 11.2744 11.9248C11.04 12.0742 10.7286 12.0049 10.5791 11.7705L8.5498 8.58789C8.54592 8.58178 8.54187 8.57823 8.54004 8.57715C8.53812 8.57815 8.53293 8.58078 8.5293 8.58594L7.1377 10.665C7.05818 10.7838 6.93155 10.8636 6.79004 10.8838C6.64856 10.9039 6.505 10.8623 6.39551 10.7705L5.5332 10.0479C5.52969 10.0491 5.52212 10.0521 5.51953 10.0557L4.42773 11.7705C4.27844 12.0046 3.96775 12.0737 3.7334 11.9248C3.49891 11.7755 3.4298 11.464 3.5791 11.2295L4.66992 9.51562C4.74688 9.39471 4.84856 9.29033 4.96875 9.20996C5.08906 9.12952 5.22536 9.07511 5.36914 9.05176C5.51293 9.02842 5.65964 9.03707 5.7998 9.07617C5.93987 9.11525 6.06906 9.18371 6.17969 9.27637L6.61328 9.63965L7.69141 8.02734C7.78489 7.88741 7.91174 7.77097 8.06152 7.69043C8.21153 7.60977 8.37958 7.56829 8.55078 7.57031ZM5.55762 4.5C5.86704 4.5 6.16402 4.623 6.38281 4.8418C6.60155 5.06058 6.72461 5.35761 6.72461 5.66699C6.72452 5.97618 6.60138 6.27252 6.38281 6.49121C6.16402 6.71 5.86704 6.83301 5.55762 6.83301C5.24826 6.83296 4.95118 6.70996 4.73242 6.49121C4.51396 6.27253 4.39169 5.9761 4.3916 5.66699C4.3916 5.35769 4.51378 5.06057 4.73242 4.8418C4.95118 4.62304 5.24826 4.50004 5.55762 4.5Z" fill="black"/>
</svg>
