<svg width="16" height="16" viewBox="0 0 16 16" fill="none" xmlns="http://www.w3.org/2000/svg">
<path d="M12.0244 0C12.4157 0.000108028 12.7917 0.152874 13.0723 0.425781L15.0469 2.34766C15.1902 2.4873 15.304 2.65452 15.3818 2.83887C15.4596 3.02327 15.5001 3.22174 15.5 3.42188V14.5C15.5 14.8982 15.3414 15.2803 15.0596 15.5615C14.7779 15.8425 14.3959 15.9999 13.998 16H2.00195C1.60411 15.9999 1.22215 15.8425 0.94043 15.5615C0.658593 15.2803 0.5 14.8982 0.5 14.5V1.5C0.5 1.10182 0.658593 0.719696 0.94043 0.438477C1.22215 0.157518 1.60411 6.39724e-05 2.00195 0H12.0244ZM2.00195 1C1.86853 1.00006 1.74052 1.05269 1.64648 1.14648C1.55243 1.24034 1.5 1.36775 1.5 1.5V14.5C1.5 14.6323 1.55243 14.7597 1.64648 14.8535C1.74052 14.9473 1.86853 14.9999 2.00195 15H13.998C14.1315 14.9999 14.2595 14.9473 14.3535 14.8535C14.4476 14.7597 14.5 14.6323 14.5 14.5V3.42188C14.5 3.35536 14.4868 3.2889 14.4609 3.22754C14.4351 3.16642 14.3972 3.11096 14.3496 3.06445L12.375 1.14258C12.2814 1.05156 12.1556 1.0001 12.0244 1H2.00195ZM8.58984 5.00977C8.86057 5.06499 9.03671 5.33319 8.98242 5.6084L7.99805 10.5918C7.94364 10.8668 7.68068 11.0452 7.41016 10.9902C7.13943 10.935 6.96329 10.6668 7.01758 10.3916L8.00195 5.4082C8.05637 5.13323 8.3193 4.95477 8.58984 5.00977ZM5.47949 6.28516C5.6747 6.08672 5.99125 6.08684 6.18652 6.28516C6.38179 6.48365 6.38179 6.80541 6.18652 7.00391L5.20703 8L6.18652 8.99609C6.38179 9.19459 6.38179 9.51635 6.18652 9.71484C5.99125 9.91316 5.6747 9.91328 5.47949 9.71484L4.14648 8.35938C3.95122 8.16088 3.95122 7.83912 4.14648 7.64062L5.47949 6.28516ZM9.81348 6.28516C10.0088 6.08684 10.3253 6.08672 10.5205 6.28516L11.8535 7.64062C12.0488 7.83912 12.0488 8.16088 11.8535 8.35938L10.5205 9.71484C10.3253 9.91328 10.0088 9.91316 9.81348 9.71484C9.61821 9.51635 9.61821 9.19459 9.81348 8.99609L10.793 8L9.81348 7.00391C9.61821 6.80541 9.61821 6.48365 9.81348 6.28516Z" fill="#673AB7"/>
</svg>
