<svg width="16" height="16" viewBox="0 0 16 16" fill="none" xmlns="http://www.w3.org/2000/svg">
<path d="M12.0244 0C12.4157 0.000108028 12.7917 0.152874 13.0723 0.425781L15.0469 2.34766C15.1902 2.4873 15.304 2.65452 15.3818 2.83887C15.4596 3.02327 15.5001 3.22174 15.5 3.42188V14.5C15.5 14.8982 15.3414 15.2803 15.0596 15.5615C14.7779 15.8425 14.3959 15.9999 13.998 16H2.00195C1.60411 15.9999 1.22215 15.8425 0.94043 15.5615C0.658593 15.2803 0.5 14.8982 0.5 14.5V1.5C0.5 1.10182 0.658593 0.719696 0.94043 0.438477C1.22215 0.157518 1.60411 6.39724e-05 2.00195 0H12.0244ZM2.00195 1C1.86853 1.00006 1.74052 1.05269 1.64648 1.14648C1.55243 1.24034 1.5 1.36775 1.5 1.5V14.5C1.5 14.6323 1.55243 14.7597 1.64648 14.8535C1.74052 14.9473 1.86853 14.9999 2.00195 15H13.998C14.1315 14.9999 14.2595 14.9473 14.3535 14.8535C14.4476 14.7597 14.5 14.6323 14.5 14.5V3.42188C14.5 3.35536 14.4868 3.2889 14.4609 3.22754C14.4351 3.16642 14.3972 3.11096 14.3496 3.06445L12.375 1.14258C12.2814 1.05156 12.1556 1.0001 12.0244 1H2.00195ZM10.833 4C11.1091 4 11.333 4.22386 11.333 4.5V5.90039C11.3328 6.17635 11.109 6.40039 10.833 6.40039C10.5571 6.40021 10.3332 6.17625 10.333 5.90039V5H8.5V11H9.41699C9.69298 11.0002 9.91699 11.224 9.91699 11.5C9.91699 11.776 9.69298 11.9998 9.41699 12H6.58301C6.30701 11.9998 6.08301 11.776 6.08301 11.5C6.08301 11.224 6.30701 11.0002 6.58301 11H7.5V5H5.66699V5.90039C5.66678 6.17625 5.44285 6.40022 5.16699 6.40039C4.89098 6.40039 4.6672 6.17635 4.66699 5.90039V4.5C4.66699 4.22386 4.89085 4 5.16699 4H10.833Z" fill="black"/>
</svg>
