<svg width="16" height="16" viewBox="0 0 16 16" fill="none" xmlns="http://www.w3.org/2000/svg">
<path d="M11.8613 0C12.2645 7.994e-05 12.6605 0.148202 12.959 0.424805L15.0205 2.33691C15.3203 2.61509 15.4998 3.00333 15.5 3.41992V14.4912C15.4999 14.9081 15.3207 15.2968 15.0205 15.5752C14.7219 15.852 14.3262 16 13.9229 16H2.07715C1.67379 16 1.2781 15.852 0.979492 15.5752C0.679361 15.2969 0.500115 14.9081 0.5 14.4912V1.50879C0.500123 1.0919 0.679381 0.703083 0.979492 0.424805C1.27808 0.148043 1.67378 0 2.07715 0H11.8613ZM2.07715 1.02148C1.90939 1.02148 1.75667 1.084 1.65137 1.18164C1.54801 1.27763 1.50012 1.39641 1.5 1.50879V14.4912C1.50011 14.6036 1.54802 14.7224 1.65137 14.8184C1.75665 14.9161 1.90937 14.9785 2.07715 14.9785H13.9229C14.0907 14.9785 14.2433 14.9161 14.3486 14.8184C14.452 14.7224 14.4999 14.6036 14.5 14.4912V3.4209C14.4999 3.30842 14.4521 3.18883 14.3486 3.09277L12.2871 1.18066C12.1818 1.08317 12.0289 1.02154 11.8613 1.02148H7.56348L7.81738 3.09863C7.84008 3.28523 7.82383 3.47463 7.76953 3.6543C7.71506 3.83425 7.62312 4.00045 7.50098 4.1416C7.37372 4.28281 7.21901 4.39556 7.04688 4.47266C6.87483 4.54967 6.68879 4.58984 6.50098 4.58984C6.31315 4.58979 6.12708 4.54971 5.95508 4.47266C5.78309 4.39556 5.6282 4.28272 5.50098 4.1416C5.37901 4.00053 5.28783 3.8341 5.2334 3.6543C5.17906 3.4746 5.16285 3.28526 5.18555 3.09863L5.4375 1.02148H2.07715ZM6.5 12.251C6.91415 12.251 7.24989 12.5937 7.25 13.0166C7.25 13.4396 6.91422 13.7822 6.5 13.7822C6.08578 13.7822 5.75 13.4396 5.75 13.0166C5.75011 12.5937 6.08585 12.251 6.5 12.251ZM6.5 9.18652C6.91422 9.18652 7.25 9.53012 7.25 9.95312C7.24991 10.3761 6.91417 10.7188 6.5 10.7188C6.08583 10.7188 5.75009 10.3761 5.75 9.95312C5.75 9.53012 6.08578 9.18652 6.5 9.18652ZM6.5 6.12305C6.91407 6.12305 7.24976 6.46585 7.25 6.88867C7.25 7.31168 6.91422 7.65527 6.5 7.65527C6.08578 7.65527 5.75 7.31168 5.75 6.88867C5.75024 6.46585 6.08593 6.12305 6.5 6.12305Z" fill="black"/>
</svg>
