<svg width="16" height="16" viewBox="0 0 16 16" fill="none" xmlns="http://www.w3.org/2000/svg">
<path fill-rule="evenodd" clip-rule="evenodd" d="M1.81047 0.0125248C1.5004 0.0575258 1.20543 0.202814 0.970341 0.426324C0.764324 0.622172 0.612939 0.885497 0.53848 1.17742L0.5 1.32833V8.00114V14.6739L0.53848 14.8249C0.683807 15.3947 1.09635 15.8097 1.66938 15.9624L1.81047 16H7.99693H14.1834L14.3245 15.9624C14.893 15.8109 15.3021 15.402 15.4553 14.8324L15.4933 14.6909L15.4986 9.09769C15.5024 5.15665 15.4985 3.4468 15.4854 3.30933C15.4533 2.97142 15.3361 2.69259 15.1227 2.44659C15.0335 2.34379 14.5543 1.87328 13.2048 0.56369C12.8779 0.246489 12.6852 0.126073 12.3677 0.0407631L12.2262 0.00273231L7.06938 0.000216225C4.2116 -0.00117784 1.86706 0.00431339 1.81047 0.0125248ZM1.90398 1.08067C1.8207 1.10605 1.75674 1.14819 1.68734 1.2234C1.55161 1.3705 1.5637 0.708179 1.5637 8.00114C1.5637 15.2946 1.55159 14.6318 1.68746 14.779C1.72619 14.821 1.78886 14.8719 1.82673 14.8921L1.89557 14.929H7.99693H14.0983L14.1671 14.8921C14.205 14.8719 14.2678 14.8208 14.3067 14.7787C14.4422 14.6318 14.4309 15.1856 14.426 8.91864L14.4216 3.31742L14.374 3.23157C14.3098 3.11602 12.3239 1.17839 12.2054 1.11582L12.125 1.07332L7.03581 1.07048C4.23675 1.06894 1.92743 1.07351 1.90398 1.08067Z" fill="black"/>
</svg>
