<svg width="16" height="16" viewBox="0 0 16 16" fill="none" xmlns="http://www.w3.org/2000/svg">
<g clip-path="url(#clip0_5773_87369)">
<path d="M12.0244 0C12.4157 0.000107793 12.7917 0.152874 13.0723 0.425781L15.0469 2.34766C15.1902 2.4873 15.304 2.65452 15.3818 2.83887C15.4596 3.02328 15.5001 3.22174 15.5 3.42188V6.96094C15.5 7.23708 15.2761 7.46094 15 7.46094C14.7239 7.46094 14.5 7.23708 14.5 6.96094V3.42188C14.5 3.35536 14.4868 3.2889 14.4609 3.22754C14.4351 3.16642 14.3972 3.11096 14.3496 3.06445L12.375 1.14258C12.2814 1.05156 12.1556 1.00009 12.0244 1L1.90332 1.00977C1.80673 1.02908 1.71699 1.07616 1.64648 1.14648C1.55243 1.24034 1.5 1.36775 1.5 1.5V14.5C1.5 14.6323 1.55243 14.7597 1.64648 14.8535C1.74052 14.9473 1.86853 14.9999 2.00195 15H7.33301C7.60915 15 7.83301 15.2239 7.83301 15.5C7.83301 15.7761 7.60915 16 7.33301 16H2.00195C1.60411 15.9999 1.22215 15.8425 0.94043 15.5615C0.658593 15.2803 0.5 14.8982 0.5 14.5V1.5C0.5 1.10182 0.658593 0.719696 0.94043 0.438477C1.22215 0.157518 1.60411 6.39842e-05 2.00195 0H12.0244ZM12 8C13.0609 8 14.078 8.42173 14.8281 9.17188C15.5783 9.92202 16 10.9391 16 12C16 13.0609 15.5783 14.078 14.8281 14.8281C14.078 15.5783 13.0609 16 12 16C10.9391 16 9.92202 15.5783 9.17188 14.8281C8.42173 14.078 8 13.0609 8 12C8 10.9391 8.42173 9.92202 9.17188 9.17188C9.92202 8.42173 10.9391 8 12 8ZM13.8857 10.1143C13.6905 9.91905 13.374 9.91916 13.1787 10.1143L12 11.293L10.8213 10.1143C10.626 9.91916 10.3095 9.91905 10.1143 10.1143C9.91905 10.3095 9.91916 10.626 10.1143 10.8213L11.293 12L10.1143 13.1787C9.91916 13.374 9.91905 13.6905 10.1143 13.8857C10.3095 14.081 10.626 14.0808 10.8213 13.8857L12 12.707L13.1787 13.8857C13.374 14.0808 13.6905 14.081 13.8857 13.8857C14.081 13.6905 14.0808 13.374 13.8857 13.1787L12.707 12L13.8857 10.8213C14.0808 10.626 14.081 10.3095 13.8857 10.1143Z" fill="#333333"/>
</g>
<defs>
<clipPath id="clip0_5773_87369">
<rect width="16" height="16" fill="white"/>
</clipPath>
</defs>
</svg>
