<svg width="16" height="16" viewBox="0 0 16 16" fill="none" xmlns="http://www.w3.org/2000/svg">
<path d="M12.0244 0C12.4157 0.000108028 12.7917 0.152874 13.0723 0.425781L15.0469 2.34766C15.1902 2.4873 15.304 2.65452 15.3818 2.83887C15.4596 3.02327 15.5001 3.22174 15.5 3.42188V14.5C15.5 14.8982 15.3414 15.2803 15.0596 15.5615C14.7779 15.8425 14.3959 15.9999 13.998 16H2.00195C1.60411 15.9999 1.22215 15.8425 0.94043 15.5615C0.658593 15.2803 0.5 14.8982 0.5 14.5V1.5C0.5 1.10182 0.658593 0.719696 0.94043 0.438477C1.22215 0.157518 1.60411 6.39724e-05 2.00195 0H12.0244ZM2.00195 1C1.86853 1.00006 1.74052 1.05269 1.64648 1.14648C1.55243 1.24034 1.5 1.36775 1.5 1.5V14.5C1.5 14.6323 1.55243 14.7597 1.64648 14.8535C1.74052 14.9473 1.86853 14.9999 2.00195 15H13.998C14.1315 14.9999 14.2595 14.9473 14.3535 14.8535C14.4476 14.7597 14.5 14.6323 14.5 14.5V3.42188C14.5 3.35536 14.4868 3.2889 14.4609 3.22754C14.4351 3.16642 14.3972 3.11096 14.3496 3.06445L12.375 1.14258C12.2814 1.05156 12.1556 1.0001 12.0244 1H2.00195ZM10.7783 4.01562C10.9989 4.04785 11.2107 4.1293 11.3945 4.25586C11.5784 4.38253 11.7302 4.55176 11.8359 4.74902C11.9416 4.94638 11.998 5.16642 11.998 5.39062V8.83203C11.998 8.85862 11.9943 8.88469 11.9902 8.91016C11.9918 8.93899 11.9951 8.96805 11.9951 8.99707C11.9951 9.43897 11.8191 9.86328 11.5068 10.1758C11.1945 10.4883 10.7708 10.664 10.3291 10.6641C9.88745 10.6641 9.46372 10.4882 9.15137 10.1758C8.83905 9.86327 8.66315 9.43901 8.66309 8.99707C8.66318 8.55524 8.83916 8.1318 9.15137 7.81934C9.46375 7.50681 9.88735 7.33105 10.3291 7.33105C10.562 7.3311 10.7898 7.38064 10.999 7.47266V5.39062C10.999 5.33306 10.9837 5.2752 10.9551 5.22168C10.9263 5.168 10.8836 5.11838 10.8281 5.08008C10.7724 5.04171 10.7051 5.01533 10.6338 5.00488C10.5626 4.99457 10.4895 5.001 10.4219 5.02246C10.4144 5.02485 10.4061 5.02727 10.3984 5.0293L7.61426 5.76758C7.52859 5.79686 7.45785 5.8496 7.40918 5.91406C7.35926 5.98033 7.33407 6.05675 7.33398 6.13281V10.168C7.33397 10.1979 7.33026 10.2273 7.3252 10.2559C7.3264 10.2815 7.3291 10.3073 7.3291 10.333C7.32904 10.7749 7.154 11.1992 6.8418 11.5117C6.52956 11.8241 6.10561 11.9998 5.66406 12C5.22248 12 4.79867 11.824 4.48633 11.5117C4.174 11.1992 3.99811 10.775 3.99805 10.333C3.99813 9.89111 4.17404 9.46776 4.48633 9.15527C4.79871 8.84274 5.22231 8.66699 5.66406 8.66699C5.89743 8.66708 6.12546 8.71719 6.33496 8.80957V6.13281C6.33506 5.83525 6.43254 5.54737 6.61133 5.31055C6.7899 5.07403 7.03969 4.90109 7.32129 4.81152C7.32885 4.80913 7.33707 4.80672 7.34473 4.80469L10.1318 4.06543C10.3406 4.00116 10.5621 3.98411 10.7783 4.01562Z" fill="#1CDEF4"/>
</svg>
