<svg width="16" height="16" viewBox="0 0 16 16" fill="none" xmlns="http://www.w3.org/2000/svg">
<path d="M12 0C12.3905 3.91404e-05 12.766 0.152586 13.0459 0.424805L13.0469 0.425781L15.0469 2.34766C15.1901 2.48731 15.304 2.65455 15.3818 2.83887C15.4596 3.0233 15.5 3.22171 15.5 3.42188V14.5C15.5 14.8978 15.3419 15.2792 15.0605 15.5605C14.7792 15.8419 14.3978 16 14 16H2C1.60217 16 1.22076 15.8419 0.939453 15.5605C0.658149 15.2792 0.5 14.8978 0.5 14.5V1.5C0.5 1.10218 0.658149 0.720758 0.939453 0.439453C1.22076 0.158149 1.60218 1.18389e-08 2 0H12ZM2 1C1.86739 1 1.74025 1.05272 1.64648 1.14648C1.55272 1.24025 1.5 1.36739 1.5 1.5V14.5C1.5 14.6326 1.55272 14.7597 1.64648 14.8535C1.74025 14.9473 1.86739 15 2 15H14C14.1326 15 14.2597 14.9473 14.3535 14.8535C14.4473 14.7597 14.5 14.6326 14.5 14.5V3.42188C14.5 3.35522 14.4868 3.28895 14.4609 3.22754C14.4352 3.16654 14.3969 3.11177 14.3496 3.06543L14.3486 3.06445L12.3486 1.1416C12.2553 1.0508 12.1302 1.00003 12 1H2ZM5.64258 4C5.893 4.02355 6.10811 4.13294 6.28223 4.27344C6.6167 4.54347 6.86148 4.97647 7.03711 5.4248C7.27899 6.04227 7.43561 6.81153 7.47754 7.5625C7.51891 7.58927 7.56147 7.61533 7.60352 7.6416L7.60547 7.64355C7.61283 7.64822 7.62089 7.65312 7.62891 7.6582C7.71217 7.71103 7.83041 7.78505 7.97266 7.87207C9.05603 7.57158 9.9448 7.45467 10.5693 7.55957C10.9206 7.61862 11.2784 7.76316 11.4932 8.08301C11.7161 8.41516 11.6977 8.80346 11.585 9.14648L11.5488 9.24219C11.457 9.45872 11.3084 9.63354 11.1084 9.75098C10.8909 9.87865 10.6494 9.91722 10.4297 9.91699C10.0009 9.91644 9.52125 9.76513 9.0957 9.58887C8.65105 9.40466 8.20314 9.16631 7.83496 8.9541C7.67908 9.00237 7.53237 9.05347 7.39453 9.10547C7.34291 9.48053 7.25571 9.99022 7.10742 10.4609C6.98976 10.8344 6.81746 11.2397 6.55176 11.5391C6.26545 11.8615 5.84544 12.0808 5.32031 11.9639C4.91358 11.8743 4.60942 11.59 4.48633 11.2041C4.36752 10.8316 4.42943 10.4128 4.62402 10.0225C4.91316 9.44276 5.51416 8.87082 6.46973 8.41309C6.47884 8.30975 6.48469 8.20357 6.4873 8.0957C5.78319 7.58552 5.17024 7.002 4.7832 6.43652C4.54072 6.0822 4.35195 5.68355 4.33496 5.28223C4.3162 4.83704 4.51302 4.44172 4.92188 4.18359L4.92578 4.18066C5.1441 4.04557 5.3879 3.97612 5.64258 4ZM6.2832 9.66895C5.87082 9.953 5.6336 10.238 5.51855 10.4688C5.40863 10.6893 5.41886 10.8358 5.43945 10.9004C5.45556 10.9507 5.48173 10.9754 5.53613 10.9873L5.53809 10.9883C5.62749 11.0081 5.69828 10.9946 5.80371 10.876C5.92988 10.7339 6.05128 10.488 6.1543 10.1611C6.20495 10.0003 6.24754 9.83322 6.2832 9.66895ZM10.4033 8.54492C10.1548 8.5032 9.79179 8.51344 9.31152 8.59277C9.36699 8.6175 9.4222 8.64211 9.47754 8.66504C9.87242 8.82863 10.2038 8.9167 10.4307 8.91699C10.5378 8.91711 10.5861 8.89764 10.6016 8.88867L10.6025 8.8877C10.6074 8.88505 10.6211 8.87815 10.6357 8.83398C10.6644 8.74676 10.6675 8.692 10.666 8.66406C10.6653 8.65146 10.6638 8.64486 10.6631 8.64258V8.64062L10.6553 8.63281C10.6491 8.62754 10.6374 8.61949 10.6182 8.60938C10.5778 8.5882 10.5095 8.56276 10.4033 8.54492ZM5.52148 4.99902C5.50611 5.00299 5.48422 5.01184 5.4541 5.03027C5.34937 5.09691 5.33032 5.15378 5.33398 5.24023C5.33954 5.37122 5.41175 5.58473 5.6084 5.87207C5.79105 6.13887 6.05092 6.42636 6.36621 6.71289C6.30149 6.38037 6.21308 6.06376 6.10547 5.78906C5.95358 5.40152 5.78768 5.16017 5.65332 5.05176C5.59312 5.00324 5.559 4.99705 5.54883 4.99609L5.52148 4.99902Z" fill="#FF540B"/>
</svg>
