<svg width="16" height="16" viewBox="0 0 16 16" fill="none" xmlns="http://www.w3.org/2000/svg">
<path d="M12.0244 0C12.4157 0.000108028 12.7917 0.152874 13.0723 0.425781L15.0469 2.34766C15.1902 2.4873 15.304 2.65452 15.3818 2.83887C15.4596 3.02327 15.5001 3.22174 15.5 3.42188V14.5C15.5 14.8982 15.3414 15.2803 15.0596 15.5615C14.7779 15.8425 14.3959 15.9999 13.998 16H2.00195C1.60411 15.9999 1.22215 15.8425 0.94043 15.5615C0.658593 15.2803 0.5 14.8982 0.5 14.5V1.5C0.5 1.10182 0.658593 0.719696 0.94043 0.438477C1.22215 0.157518 1.60411 6.39724e-05 2.00195 0H12.0244ZM2.00195 1C1.86853 1.00006 1.74052 1.05269 1.64648 1.14648C1.55243 1.24034 1.5 1.36775 1.5 1.5V14.5C1.5 14.6323 1.55243 14.7597 1.64648 14.8535C1.74052 14.9473 1.86853 14.9999 2.00195 15H13.998C14.1315 14.9999 14.2595 14.9473 14.3535 14.8535C14.4476 14.7597 14.5 14.6323 14.5 14.5V3.42188C14.5 3.35536 14.4868 3.2889 14.4609 3.22754C14.4351 3.16642 14.3972 3.11096 14.3496 3.06445L12.375 1.14258C12.2814 1.05156 12.1556 1.0001 12.0244 1H2.00195ZM10.7783 4.01562C10.999 4.04785 11.2107 4.12929 11.3945 4.25586C11.5785 4.38253 11.7302 4.55173 11.8359 4.74902C11.9417 4.94642 11.998 5.16636 11.998 5.39062V8.83203C11.998 8.85868 11.9943 8.88464 11.9902 8.91016C11.9918 8.93906 11.9951 8.96798 11.9951 8.99707C11.9951 9.439 11.8191 9.86324 11.5068 10.1758C11.1945 10.4883 10.7707 10.664 10.3291 10.6641C9.88741 10.6641 9.46373 10.4882 9.15137 10.1758C8.83898 9.86322 8.66309 9.4391 8.66309 8.99707C8.66317 8.55523 8.83915 8.13181 9.15137 7.81934C9.46373 7.50688 9.8874 7.33105 10.3291 7.33105C10.562 7.33111 10.7898 7.38063 10.999 7.47266V5.39062C10.999 5.33301 10.9837 5.27524 10.9551 5.22168C10.9263 5.16797 10.8836 5.11839 10.8281 5.08008C10.7724 5.04171 10.7051 5.01533 10.6338 5.00488C10.5626 4.99457 10.4895 5.00101 10.4219 5.02246C10.4144 5.02485 10.4061 5.02727 10.3984 5.0293L7.61426 5.76758C7.52865 5.79684 7.45785 5.84966 7.40918 5.91406C7.35924 5.98034 7.33407 6.05674 7.33398 6.13281V10.168C7.33398 10.198 7.33026 10.2273 7.3252 10.2559C7.32639 10.2815 7.3291 10.3072 7.3291 10.333C7.3291 10.7749 7.15395 11.1992 6.8418 11.5117C6.52958 11.8241 6.10558 11.9998 5.66406 12C5.22245 12 4.79868 11.8241 4.48633 11.5117C4.17395 11.1992 3.99805 10.775 3.99805 10.333C3.99813 9.8911 4.17402 9.46776 4.48633 9.15527C4.79869 8.84283 5.22237 8.66699 5.66406 8.66699C5.89742 8.66709 6.12547 8.71718 6.33496 8.80957V6.13281C6.33506 5.83524 6.43253 5.54737 6.61133 5.31055C6.78989 5.0741 7.03975 4.90108 7.32129 4.81152C7.32881 4.80914 7.33711 4.80671 7.34473 4.80469L10.1318 4.06543C10.3406 4.00118 10.5621 3.9841 10.7783 4.01562Z" fill="#00BCD4"/>
</svg>
