<svg width="16" height="16" viewBox="0 0 16 16" fill="none" xmlns="http://www.w3.org/2000/svg">
<path fill-rule="evenodd" clip-rule="evenodd" d="M2.0022 1.02811C1.86508 1.02811 1.73599 1.0825 1.6427 1.17545C1.54984 1.26798 1.5 1.39076 1.5 1.51605V14.4976C1.5 14.6229 1.54984 14.7456 1.6427 14.8382C1.73599 14.9311 1.86508 14.9855 2.0022 14.9855H13.9978C14.1349 14.9855 14.264 14.9311 14.3573 14.8382C14.4502 14.7456 14.5 14.6229 14.5 14.4976V3.43533C14.5 3.37203 14.4874 3.30876 14.4624 3.24968C14.4375 3.19056 14.4005 3.13616 14.3531 3.09005L12.3791 1.17105C12.2861 1.08074 12.1589 1.02813 12.0241 1.02811H2.0022ZM0.94437 0.444451C1.22698 0.16286 1.60771 0.00683594 2.0022 0.00683594H12.0241C12.4121 0.00687469 12.787 0.157803 13.0683 0.431089L15.0427 2.35047C15.1867 2.49051 15.3019 2.65869 15.3806 2.84516C15.4594 3.03167 15.5001 3.23246 15.5 3.43561V14.4976C15.5 14.902 15.3387 15.2872 15.0556 15.5692C14.773 15.8508 14.3923 16.0068 13.9978 16.0068H2.0022C1.60771 16.0068 1.22698 15.8508 0.94437 15.5692C0.66134 15.2872 0.5 14.902 0.5 14.4976V1.51605C0.5 1.11166 0.66134 0.726459 0.94437 0.444451ZM3.33334 4.03717C2.83334 4.03717 2.83334 4.03691 2.83334 4.03665V4.03505L2.83335 4.03277L2.83341 4.02776L2.83371 4.01589C2.834 4.00721 2.8345 3.99688 2.83534 3.98513C2.83701 3.96181 2.84009 3.93192 2.84585 3.89743C2.85696 3.83082 2.88012 3.73445 2.93137 3.63209C2.98375 3.52748 3.06958 3.40904 3.20613 3.31814C3.34526 3.22551 3.50737 3.18134 3.67901 3.18134H12.321V3.69198C12.321 3.18134 12.3207 3.18134 12.321 3.18134L12.323 3.18135L12.3251 3.18136L12.3299 3.18142L12.3412 3.1817C12.3495 3.18197 12.3594 3.18245 12.3707 3.18326C12.3931 3.18486 12.422 3.18783 12.4554 3.19338C12.5198 3.2041 12.6135 3.22649 12.7134 3.27638C12.8151 3.32712 12.9335 3.41181 13.0258 3.54994C13.1205 3.69185 13.1667 3.85913 13.1667 4.03717V11.9765H12.6667C13.1667 11.9765 13.1667 11.9762 13.1667 11.9765V11.9786V11.9809L13.1666 11.9859L13.1663 11.9977C13.166 12.0064 13.1655 12.0167 13.1647 12.0285C13.163 12.0518 13.1599 12.0817 13.1542 12.1162C13.143 12.1828 13.1199 12.2792 13.0686 12.3815C13.0163 12.4861 12.9304 12.6046 12.7939 12.6955C12.6547 12.7881 12.4926 12.8323 12.321 12.8323H3.67901V12.3216C3.67901 12.8323 3.67926 12.8323 3.67901 12.8323H3.67703H3.67488L3.67014 12.8322L3.65884 12.8319C3.65055 12.8317 3.64064 12.8312 3.62933 12.8304C3.60687 12.8288 3.57798 12.8258 3.54458 12.8202C3.4802 12.8095 3.38649 12.7871 3.28657 12.7372C3.18494 12.6865 3.06646 12.6018 2.97423 12.4637C2.8795 12.3218 2.83334 12.1545 2.83334 11.9765V4.03665L3.33334 4.03717ZM3.83334 6.96413V8.87695H5.94445V6.96413H3.83334ZM3.83334 5.94285V4.20262H12.1667V5.94285H3.83334ZM6.94445 6.96413V8.87695H12.1667V6.96413H6.94445ZM12.1667 9.89823H6.94445V11.811H12.1667V9.89823ZM5.94445 11.811V9.89823H3.83334V11.811H5.94445Z" fill="#4BAF50"/>
</svg>
