<svg width="16" height="16" viewBox="0 0 16 16" fill="none" xmlns="http://www.w3.org/2000/svg">
<path fill-rule="evenodd" clip-rule="evenodd" d="M1.25337 1.01688C1.20416 1.02509 1.11759 1.0474 1.06096 1.06647C0.541085 1.24161 0.172798 1.63742 0.0381257 2.16574L0 2.31533V7.95004V13.5847L0.0458425 13.7508C0.126394 14.0425 0.250749 14.2578 0.471633 14.4879C0.743629 14.7713 1.04685 14.9202 1.48729 14.9866C1.58076 15.0007 3.1722 15.0045 7.45345 15.0007L13.2921 14.9956L13.4144 14.9575C13.9231 14.7993 14.2831 14.4593 14.4542 13.9757C14.5108 13.8155 15.9686 7.8265 15.9885 7.67186C16.0686 7.0519 15.7228 6.42226 15.1432 6.13283C14.9063 6.01449 14.7876 5.99127 14.3757 5.98257L14.0145 5.97494L14.0142 5.24999C14.0141 4.85126 14.0064 4.45292 13.9971 4.3648C13.9263 3.69314 13.4404 3.15461 12.7825 3.01883C12.6361 2.98861 12.4807 2.98718 9.33805 2.98696L6.04687 2.98674L6.03825 2.63404C6.02808 2.21787 6.00436 2.10385 5.87285 1.8394C5.65752 1.40635 5.23526 1.09205 4.76673 1.01602C4.63178 0.994125 1.38519 0.994924 1.25337 1.01688ZM1.3207 2.11286C1.27214 2.13706 1.20588 2.18785 1.17345 2.22574C1.0521 2.3675 1.06167 1.85392 1.0665 7.96748L1.07085 13.4828L1.10789 13.5629C1.15645 13.6681 1.2884 13.8076 1.38597 13.857C1.55239 13.9414 1.76209 13.9414 1.92845 13.8571C2.05505 13.793 2.17729 13.647 2.21809 13.5113C2.23685 13.4488 2.59951 11.9713 3.02401 10.2277C3.44853 8.48419 3.81724 7.00037 3.84338 6.93032C3.9059 6.76291 4.05961 6.53564 4.19763 6.40652C4.43854 6.18117 4.69455 6.04961 4.99618 5.99618C5.06473 5.98405 6.35344 5.97832 9.02099 5.97832H12.945L12.9401 5.19218C12.9354 4.43315 12.9339 4.40335 12.8992 4.32836C12.8574 4.23792 12.7637 4.14145 12.6748 4.09719C12.6149 4.06743 12.4571 4.06573 9.00024 4.05759C5.57178 4.04951 5.38479 4.04754 5.32025 4.01856C5.14468 3.93971 5.02624 3.80215 4.99094 3.63606C4.97901 3.57989 4.9718 3.33952 4.9718 2.99743C4.9718 2.38307 4.96689 2.34979 4.85708 2.22152C4.82306 2.18176 4.75654 2.13121 4.70929 2.10922L4.62335 2.06921L3.01616 2.06904L1.40898 2.06887L1.3207 2.11286ZM5.19141 7.04924C5.0403 7.07502 4.89106 7.18678 4.83956 7.31275C4.82812 7.34073 4.46694 8.80927 4.03693 10.5762C3.60693 12.3431 3.24408 13.8212 3.2306 13.861L3.20611 13.9332L8.16414 13.933L13.1222 13.9329L13.2071 13.8932C13.3292 13.8363 13.411 13.7379 13.4525 13.5982C13.5325 13.3292 14.9324 7.55678 14.9324 7.49595C14.9324 7.38001 14.8827 7.2692 14.7892 7.17634C14.6391 7.02738 15.1313 7.04131 9.91811 7.03848C7.36124 7.0371 5.23423 7.04193 5.19141 7.04924Z" fill="#333333"/>
</svg>
