<svg width="16" height="16" viewBox="0 0 16 16" fill="none" xmlns="http://www.w3.org/2000/svg">
<g clip-path="url(#clip0_19554_106910)">
<path d="M12 7.5C13.0608 7.50001 14.078 7.92176 14.8281 8.67188C15.5782 9.42201 16 10.4392 16 11.5C16 12.5609 15.5783 13.578 14.8281 14.3281C14.078 15.0783 13.0609 15.5 12 15.5C10.9392 15.5 9.92201 15.0782 9.17188 14.3281C8.42176 13.578 8.00001 12.5608 8 11.5C8.00001 10.4392 8.42174 9.42201 9.17188 8.67188C9.92201 7.92174 10.9392 7.50001 12 7.5ZM5.13086 0.5C5.54902 0.5 5.96275 0.642837 6.27734 0.915039C6.59422 1.18926 6.78906 1.57836 6.78906 2.00195V2.50391H14.3936C14.8118 2.50391 15.2254 2.64669 15.54 2.91895C15.9042 3.23409 16 3.65289 16 4.00586V7.11719C16 7.39332 15.7761 7.61718 15.5 7.61719C15.2239 7.61719 15 7.39332 15 7.11719V4.00586C15 3.82768 14.9556 3.73644 14.8857 3.67578C14.7661 3.57223 14.5895 3.50391 14.3936 3.50391H6.28906C6.01297 3.50386 5.78907 3.28001 5.78906 3.00391V2.00195C5.78906 1.89417 5.74023 1.77341 5.62305 1.67188C5.50339 1.56833 5.3268 1.5 5.13086 1.5H1.6582C1.46226 1.5 1.28567 1.56833 1.16602 1.67188C1.04889 1.77339 1 1.89419 1 2.00195V12.8848C1.00296 13.0143 1.05941 13.1526 1.18066 13.2705C1.29966 13.3862 1.47225 13.4721 1.67285 13.5H6.81738C7.09352 13.5 7.31738 13.7239 7.31738 14C7.31735 14.2761 7.0935 14.5 6.81738 14.5H1.6416C1.62279 14.5 1.60366 14.4992 1.58496 14.4971C1.17133 14.4501 0.778541 14.2743 0.483398 13.9873C0.186538 13.6985 0.00662935 13.3126 0 12.8975V2.00195C0 1.57836 0.194839 1.18926 0.511719 0.915039C0.826327 0.64279 1.24 0.5 1.6582 0.5H5.13086ZM12 8.83301C11.724 8.83303 11.5002 9.05704 11.5 9.33301V11H9.83301C9.55704 11.0002 9.33303 11.224 9.33301 11.5C9.33302 11.776 9.55704 11.9998 9.83301 12H11.5V13.667C11.5002 13.943 11.724 14.167 12 14.167C12.276 14.167 12.4998 13.943 12.5 13.667V12H14.167C14.443 11.9998 14.667 11.776 14.667 11.5C14.667 11.224 14.443 11.0002 14.167 11H12.5V9.33301C12.4998 9.05704 12.276 8.83302 12 8.83301Z" fill="black"/>
</g>
<defs>
<clipPath id="clip0_19554_106910">
<rect width="16" height="16" fill="white"/>
</clipPath>
</defs>
</svg>
