<svg width="16" height="16" viewBox="0 0 16 16" fill="none" xmlns="http://www.w3.org/2000/svg">
<path fill-rule="evenodd" clip-rule="evenodd" d="M7.84691 0.267874C8.05894 0.0896792 8.33162 0 8.6023 0H10.3243C10.595 0 10.8677 0.0896791 11.0797 0.267874C11.2846 0.440083 11.4209 0.687352 11.4327 0.964813H14.9164C15.1871 0.964813 15.4598 1.05449 15.6718 1.23269C15.9372 1.45573 16 1.74931 16 1.96881V6.25448C15.9954 6.53491 15.8704 6.7899 15.6729 6.97646C15.4773 7.16127 15.222 7.26992 14.9592 7.29892C14.9392 7.30112 14.9191 7.30223 14.899 7.30223L8.59409 7.30226C8.57397 7.30226 8.55387 7.30115 8.53388 7.29894C8.27111 7.26995 8.01585 7.1613 7.82022 6.97649C7.62274 6.78993 7.49778 6.53493 7.49317 6.2545L7.49303 6.24615L7.4931 5.74207H5.35184C5.05627 5.74207 4.81666 5.50855 4.81666 5.22048C4.81666 4.93241 5.05627 4.69889 5.35184 4.69889H7.4931V1.004C7.4931 0.710681 7.6324 0.44815 7.84691 0.267874ZM8.6023 1.04318C8.58588 1.04318 8.57288 1.046 8.56347 1.04922V6.22575C8.56398 6.22628 8.56456 6.22685 8.56521 6.22746C8.57548 6.23717 8.59824 6.25166 8.63348 6.25908L14.8596 6.25905C14.8949 6.25163 14.9176 6.23714 14.9279 6.22743C14.9285 6.22682 14.9291 6.22625 14.9296 6.22572V2.00862C14.9255 2.00822 14.9211 2.00799 14.9164 2.00799H10.8983C10.6028 2.00799 10.3632 1.77447 10.3632 1.4864V1.04922C10.3538 1.046 10.3408 1.04318 10.3243 1.04318H8.6023ZM0.535184 2.43867C0.830758 2.43867 1.07037 2.67219 1.07037 2.96026V4.69889H2.67592C2.9715 4.69889 3.21111 4.93241 3.21111 5.22048C3.21111 5.50855 2.9715 5.74207 2.67592 5.74207H1.03992C0.966446 5.94465 0.768207 6.0898 0.535184 6.0898C0.23961 6.0898 0 5.85627 0 5.56821V2.96026C0 2.67219 0.23961 2.43867 0.535184 2.43867ZM0.535184 7.65457C0.830758 7.65457 1.07037 7.88809 1.07037 8.17616V10.2625C1.07037 10.5506 0.830758 10.7841 0.535184 10.7841C0.23961 10.7841 0 10.5506 0 10.2625V8.17616C0 7.88809 0.23961 7.65457 0.535184 7.65457ZM7.84639 8.96562C8.05842 8.78742 8.3311 8.69775 8.60178 8.69775H10.3238C10.5945 8.69775 10.8672 8.78742 11.0792 8.96562C11.2841 9.13783 11.4204 9.3851 11.4322 9.66256H14.9159C15.1866 9.66256 15.4593 9.75224 15.6713 9.93043C15.9367 10.1535 15.9995 10.4471 15.9995 10.6666V14.9522C15.9949 15.2327 15.8698 15.4876 15.6724 15.6742C15.4767 15.859 15.2215 15.9677 14.9587 15.9967C14.9387 15.9989 14.9186 16 14.8985 16L8.59356 16C8.57345 16 8.55334 15.9989 8.53335 15.9967C8.27059 15.9677 8.01532 15.859 7.8197 15.6742C7.62221 15.4877 7.49726 15.2327 7.49265 14.9522L7.49251 14.9439L7.49258 14.4352H5.35184C5.05627 14.4352 4.81666 14.2017 4.81666 13.9136C4.81666 13.6256 5.05627 13.3921 5.35184 13.3921H7.49258V9.70174C7.49258 9.40843 7.63188 9.1459 7.84639 8.96562ZM8.56295 14.9235C8.56346 14.924 8.56404 14.9246 8.56469 14.9252C8.57496 14.9349 8.59772 14.9494 8.63296 14.9568L14.8591 14.9568C14.8943 14.9494 14.9171 14.9349 14.9274 14.9252C14.928 14.9246 14.9286 14.924 14.9291 14.9235V10.7064C14.925 10.706 14.9206 10.7057 14.9159 10.7057H10.8978C10.6023 10.7057 10.3626 10.4722 10.3626 10.1841V9.74697C10.3532 9.74375 10.3402 9.74092 10.3238 9.74092H8.60178C8.58536 9.74092 8.57235 9.74375 8.56295 9.74697V14.9235ZM0.535184 12.3489C0.830758 12.3489 1.07037 12.5824 1.07037 12.8705C1.07037 13.0088 1.12675 13.1415 1.22712 13.2393C1.32749 13.3371 1.46361 13.3921 1.60555 13.3921H2.67592C2.9715 13.3921 3.21111 13.6256 3.21111 13.9136C3.21111 14.2017 2.9715 14.4352 2.67592 14.4352H1.60555C1.17973 14.4352 0.771355 14.2704 0.470256 13.9769C0.169156 13.6835 0 13.2855 0 12.8705C0 12.5824 0.23961 12.3489 0.535184 12.3489Z" fill="#333333"/>
</svg>
