<svg width="13" height="13" viewBox="0 0 13 13" fill="none" xmlns="http://www.w3.org/2000/svg">
<path d="M11.6455 6.09375C12.0047 6.09375 12.3496 6.23628 12.6035 6.49023C12.8574 6.74418 13 7.08913 13 7.44824C12.9999 7.80716 12.8572 8.15142 12.6035 8.40527C12.3496 8.65923 12.0047 8.80176 11.6455 8.80176C11.2865 8.80171 10.9424 8.65914 10.6885 8.40527C10.6721 8.38894 10.658 8.37058 10.6426 8.35352L9.18164 9.08398C9.19828 9.16902 9.20801 9.25584 9.20801 9.34375C9.208 9.43136 9.19817 9.51778 9.18164 9.60254L10.6426 10.333C10.6578 10.3161 10.6723 10.2984 10.6885 10.2822C10.9424 10.0284 11.2865 9.88579 11.6455 9.88574C12.0047 9.88574 12.3496 10.0283 12.6035 10.2822C12.8573 10.5361 12.9999 10.8803 13 11.2393C13 11.5984 12.8574 11.9433 12.6035 12.1973C12.3496 12.4512 12.0047 12.5938 11.6455 12.5938C11.2865 12.5937 10.9424 12.451 10.6885 12.1973C10.4345 11.9433 10.292 11.5984 10.292 11.2393C10.292 11.1828 10.2958 11.1267 10.3027 11.0713L8.79297 10.3164C8.54085 10.5597 8.2055 10.6982 7.85449 10.6982C7.49535 10.6982 7.15044 10.5547 6.89648 10.3008C6.64273 10.0469 6.50002 9.70273 6.5 9.34375C6.5 8.9846 6.64253 8.6397 6.89648 8.38574C7.15043 8.13187 7.49541 7.98926 7.85449 7.98926C8.20532 7.98934 8.54187 8.12604 8.79395 8.36914L10.3027 7.61523C10.2959 7.56009 10.292 7.5044 10.292 7.44824C10.292 7.0891 10.4345 6.74419 10.6885 6.49023C10.9424 6.23647 11.2865 6.0938 11.6455 6.09375ZM4.16895 0.40625C4.50874 0.40625 4.84497 0.522934 5.10059 0.744141C5.35782 0.966925 5.5166 1.28296 5.5166 1.62695V2.03418H11.6953C12.035 2.03425 12.3704 2.15093 12.626 2.37207C12.9218 2.62812 13 2.96811 13 3.25488V4.69922C13 4.92358 12.8181 5.10546 12.5938 5.10547C12.3694 5.10547 12.1875 4.92358 12.1875 4.69922V3.25488C12.1875 3.11004 12.1516 3.03562 12.0947 2.98633C11.9976 2.90225 11.8544 2.84675 11.6953 2.84668H5.11035C4.88599 2.84668 4.7041 2.66479 4.7041 2.44043V1.62695C4.7041 1.53931 4.66372 1.44093 4.56836 1.3584C4.47114 1.27427 4.32815 1.21875 4.16895 1.21875H1.34668C1.18762 1.21883 1.04442 1.27433 0.947266 1.3584C0.852152 1.44087 0.8125 1.53942 0.8125 1.62695V10.4688C0.814908 10.574 0.860477 10.6864 0.958984 10.7822C1.05558 10.8762 1.19551 10.946 1.3584 10.9688H5.53906C5.76343 10.9688 5.94531 11.1506 5.94531 11.375C5.94528 11.5993 5.76341 11.7812 5.53906 11.7812H1.33398C1.31878 11.7812 1.3032 11.78 1.28809 11.7783C0.951932 11.7401 0.632401 11.5976 0.392578 11.3643C0.151478 11.1297 0.00540838 10.8167 0 10.4795V1.62695C0 1.28287 0.15866 0.966935 0.416016 0.744141C0.671548 0.523009 1.00701 0.406329 1.34668 0.40625H4.16895Z" fill="#446FDD"/>
</svg>
