<svg width="16" height="16" viewBox="0 0 16 16" fill="none" xmlns="http://www.w3.org/2000/svg">
<path d="M5.13184 1C5.54983 1.00011 5.96287 1.14295 6.27734 1.41504C6.59422 1.68926 6.78906 2.07836 6.78906 2.50195V3.00391H14.3936C14.8117 3.00391 15.2254 3.14672 15.54 3.41895C15.9042 3.73409 16 4.15289 16 4.50586V13.3975C15.9934 13.8126 15.8135 14.1985 15.5166 14.4873C15.2215 14.7743 14.8286 14.9501 14.415 14.9971C14.3964 14.9992 14.3772 15 14.3584 15H1.6416C1.62278 15 1.60366 14.9992 1.58496 14.9971C1.17132 14.9501 0.778546 14.7743 0.483398 14.4873C0.186537 14.1985 0.00662935 13.8126 0 13.3975V2.50195C0 2.07836 0.194837 1.68926 0.511719 1.41504C0.826328 1.14279 1.24 1 1.6582 1H5.13184ZM1.6582 2C1.46226 2 1.28567 2.06833 1.16602 2.17188C1.04889 2.27339 1 2.39419 1 2.50195V13.3848C1.00296 13.5143 1.05941 13.6526 1.18066 13.7705C1.29967 13.8862 1.47223 13.9721 1.67285 14H14.3281C14.5285 13.972 14.7004 13.8861 14.8193 13.7705C14.9406 13.6526 14.997 13.5143 15 13.3848V4.50586C15 4.32764 14.9557 4.23644 14.8857 4.17578C14.7661 4.07223 14.5895 4.00391 14.3936 4.00391H6.28906C6.01298 4.00384 5.78907 3.78001 5.78906 3.50391V2.50195C5.78906 2.39416 5.74025 2.27341 5.62305 2.17188C5.50349 2.06841 5.32759 2.00011 5.13184 2H1.6582ZM8 5C9.06085 5 10.078 5.42175 10.8281 6.17188C11.5783 6.92202 12 7.93913 12 9C12 10.0609 11.5783 11.078 10.8281 11.8281C10.078 12.5783 9.06085 13 8 13C6.93916 13 5.92201 12.5783 5.17188 11.8281C4.42175 11.078 4 10.0609 4 9C4 7.93915 4.42175 6.92202 5.17188 6.17188C5.92201 5.42174 6.93916 5.00002 8 5ZM6.31152 11.4268C6.8037 11.7692 7.39216 11.956 8 11.9561C8.7841 11.9561 9.53637 11.6453 10.0908 11.0908C10.6453 10.5364 10.957 9.78412 10.957 9C10.957 8.39214 10.7692 7.80371 10.4268 7.31152L6.31152 11.4268ZM8 6.04395C7.2159 6.04396 6.46362 6.35474 5.90918 6.90918C5.35474 7.46363 5.04395 8.2159 5.04395 9C5.04395 9.60783 5.23081 10.1963 5.57324 10.6885L9.68848 6.57324C9.1963 6.23082 8.60783 6.04395 8 6.04395Z" fill="black"/>
</svg>
