<svg width="12" height="12" viewBox="0 0 12 12" fill="none" xmlns="http://www.w3.org/2000/svg">
<path fill-rule="evenodd" clip-rule="evenodd" d="M0.386897 1.06291C0.624212 0.857639 0.935418 0.75 1.25015 0.75H3.85155C4.16628 0.75 4.47749 0.857639 4.7148 1.06291C4.95389 1.26972 5.10165 1.56348 5.10165 1.8842V2.25011H10.7886C11.1034 2.25011 11.4146 2.35774 11.6519 2.56302C11.9274 2.80132 12 3.11794 12 3.3843V10.0409C11.995 10.3549 11.8591 10.6461 11.6352 10.8638C11.4126 11.0802 11.1167 11.2122 10.8054 11.2475C10.7911 11.2491 10.7767 11.25 10.7623 11.25L1.23774 11.25C1.22334 11.25 1.20896 11.2492 1.19466 11.2476C0.883398 11.2122 0.587453 11.0803 0.36486 10.8639C0.140939 10.6461 0.0051153 10.355 9.83361e-05 10.0409L0 10.0348L4.91833e-05 1.8842C4.91833e-05 1.56348 0.147812 1.26971 0.386897 1.06291Z" fill="#9F9F9F"/>
</svg>
