<svg width="16" height="16" viewBox="0 0 16 16" fill="none" xmlns="http://www.w3.org/2000/svg">
<g clip-path="url(#clip0_51905_99265)">
<path fill-rule="evenodd" clip-rule="evenodd" d="M3.416 0.024018C3.21579 0.068914 3.10117 0.12541 2.92592 0.265554C2.74477 0.410418 2.59914 0.632994 2.53294 0.866162C2.50606 0.960818 2.504 1.06306 2.504 2.29611V3.62411L2.54848 3.71469C2.59736 3.81423 2.68149 3.89899 2.78728 3.95531C2.88674 4.00824 3.11326 4.00824 3.21272 3.95531C3.31851 3.89899 3.40264 3.81423 3.45152 3.71469L3.496 3.62411L3.504 2.36811C3.5084 1.67731 3.518 1.09994 3.52534 1.08507C3.53269 1.07019 3.55582 1.0468 3.57678 1.03307C3.61106 1.01061 4.05411 1.00811 8 1.00811C11.9459 1.00811 12.3889 1.01061 12.4232 1.03307C12.4442 1.0468 12.4673 1.07019 12.4747 1.08507C12.482 1.09994 12.4916 2.12731 12.496 3.36811L12.504 5.62411L12.5485 5.71469C12.5974 5.81423 12.6815 5.89899 12.7873 5.95531C12.8867 6.00824 13.1133 6.00824 13.2127 5.95531C13.3185 5.89899 13.4026 5.81423 13.4515 5.71469L13.496 5.62411V3.29611C13.496 1.11007 13.4943 0.961986 13.4675 0.867682C13.3581 0.483122 13.0605 0.172402 12.68 0.045474L12.568 0.00811398L8.04 0.00529798C4.29654 0.00297798 3.49536 0.00622598 3.416 0.024018ZM5.38774 2.67352C5.08494 2.74487 4.91987 3.08851 5.05411 3.36811C5.10923 3.4829 5.19512 3.56925 5.304 3.61933L5.384 3.65611L7.992 3.66055C10.3373 3.66453 10.6067 3.66242 10.6668 3.63968C10.8952 3.55319 11.0311 3.32048 10.9923 3.08218C10.968 2.93245 10.8808 2.8097 10.739 2.72536C10.6646 2.68114 10.6612 2.68071 10.296 2.66992C9.75034 2.65381 5.45808 2.65696 5.38774 2.67352ZM1.00416 5.00863C0.687648 5.04624 0.364528 5.2472 0.186624 5.51706C0.042864 5.73512 0 5.88306 0 6.16111C0 6.35631 0.00521604 6.38363 0.87208 10.7365C1.35173 13.145 1.75821 15.1564 1.77536 15.2063C1.90099 15.5714 2.21363 15.8615 2.592 15.964C2.69034 15.9906 2.996 15.9921 8.2 15.9921C13.404 15.9921 13.7097 15.9906 13.808 15.964C14.1861 15.8616 14.499 15.5714 14.6244 15.207C14.6414 15.1575 14.7889 14.4319 14.9522 13.5945C15.1155 12.7572 15.4159 11.2369 15.6197 10.2161C15.9819 8.40271 15.9904 8.35552 15.9912 8.16011C15.9919 7.99349 15.9857 7.94018 15.9545 7.84067C15.8308 7.4468 15.5582 7.17131 15.16 7.0377L15.048 7.00011L10.9564 6.99211L6.86472 6.98411L6.82299 6.94237C6.78483 6.90421 6.77318 6.85619 6.68725 6.38237C6.59301 5.86275 6.5596 5.73407 6.48421 5.60011C6.33374 5.3328 6.05805 5.11763 5.752 5.02869C5.6629 5.0028 5.49288 5.00061 3.384 4.99829C2.1344 4.99693 1.06347 5.00157 1.00416 5.00863ZM1.09421 6.01579C1.04755 6.03464 0.992 6.10899 0.992 6.15258C0.992 6.23415 2.72333 14.8728 2.74806 14.9147C2.76253 14.9392 2.7956 14.9666 2.82157 14.9757C2.88744 14.9986 13.5126 14.9986 13.5784 14.9757C13.6044 14.9666 13.6375 14.9392 13.6519 14.9148C13.6672 14.8889 13.8094 14.1977 13.9918 13.2632C14.1643 12.3793 14.4599 10.8782 14.6487 9.92735C14.8375 8.97653 14.9918 8.17733 14.9916 8.15135C14.9912 8.09919 14.9548 8.04544 14.9011 8.01799C14.8756 8.00496 13.7828 8.00011 10.8742 8.00011C8.09618 8.00011 6.84426 7.99485 6.75715 7.98279C6.34461 7.92565 5.97227 7.61651 5.83378 7.21611C5.81094 7.15011 5.75248 6.874 5.70384 6.60251C5.6552 6.33104 5.60776 6.09463 5.59842 6.07715C5.55589 5.99768 5.62736 6.00003 3.30051 6.00112C2.10563 6.00168 1.1128 6.00829 1.09421 6.01579Z" fill="black"/>
</g>
<defs>
<clipPath id="clip0_51905_99265">
<rect width="16" height="16" fill="white"/>
</clipPath>
</defs>
</svg>
