<?xml version="1.0" encoding="UTF-8"?>
<!--
  - Infomaniak kDrive - Desktop
  - Copyright (C) 2023-2025 Infomaniak Network SA
  -
  - This program is free software: you can redistribute it and/or modify
  - it under the terms of the GNU General Public License as published by
  - the Free Software Foundation, either version 3 of the License, or
  - (at your option) any later version.
  -
  - This program is distributed in the hope that it will be useful,
  - but WITHOUT ANY WARRANTY; without even the implied warranty of
  - MERCHANTABILITY or FITNESS FOR A PARTICULAR PURPOSE.  See the
  - GNU General Public License for more details.
  -
  - You should have received a copy of the GNU General Public License
  - along with this program.  If not, see <http://www.gnu.org/licenses/>.
  -->

<svg width="16px" height="16px" viewBox="0 0 16 16" version="1.1" xmlns="http://www.w3.org/2000/svg" xmlns:xlink="http://www.w3.org/1999/xlink">
    <title>icons/theme/white/state-warning</title>
    <defs>
        <path d="M15,3.10000886 L7.49066667,3.10000886 C7.36451894,3.10000441 7.24918085,3.02522823 7.19266667,2.906809 L6.56133333,1.57680999 C6.39165837,1.22172184 6.04502112,0.998241716 5.66666667,1 L1,1 C0.44771525,1 0,1.47011108 0,2.05000964 L0,13.9500008 C0,14.5298993 0.44771525,15 1,15 L15,15 C15.5522847,15 16,14.5298993 16,13.9500008 L16,4.15000808 C16,3.57010952 15.5522847,3.10000886 15,3.10000886 Z M11.6695589,7.51762384 L11.7312235,7.51894434 C11.7812295,7.52502242 11.828544,7.54327651 11.8717957,7.5742526 L11.9334549,7.63032648 L11.9701895,7.68330185 L13.0583276,9.67904017 C13.1170602,9.7862845 13.1134938,9.9187471 13.0486406,10.0229845 C13.0016035,10.0974657 12.9280239,10.148461 12.8473945,10.1655626 L12.7653125,10.1723634 L12.743408,10.1711435 L12.2832343,10.1126353 C11.8253058,11.7779009 10.5764345,13.0559898 8.99466289,13.4756057 C7.4342822,13.8676547 5.79716687,13.3174352 4.73842685,12.0474581 C4.58134398,11.8678417 4.52867135,11.6134925 4.60001542,11.3818304 C4.67179176,11.1487648 4.85825294,10.9740559 5.08823233,10.9264467 C5.28621635,10.885461 5.48857111,10.944457 5.6363196,11.0800251 L5.70537028,11.1540818 C6.45127995,12.0486615 7.60015103,12.4348027 8.69329263,12.1602722 C9.74748351,11.8782983 10.5992835,11.0548957 10.9612876,9.96625058 L10.9623297,9.95688628 L10.9593533,9.94609752 L10.1491731,9.84144677 C10.0289433,9.82574645 9.92857941,9.74055386 9.88895132,9.62274825 C9.86721267,9.55812404 9.86550373,9.48883773 9.88578409,9.41931256 L9.9134668,9.34987159 L9.95731018,9.28706824 L11.4609061,7.62168224 C11.4835226,7.59604236 11.5098295,7.57446587 11.5422772,7.55655356 L11.5958606,7.53238332 L11.6446704,7.52046917 L11.6695589,7.51762384 Z M6.99233918,4.5243789 C8.55268534,4.13230282 10.1897641,4.68274924 11.249693,5.9548038 C11.4826785,6.23359814 11.4582684,6.65797826 11.1944692,6.90529989 C10.9274015,7.15568583 10.5171894,7.12921502 10.2811872,6.84681067 C9.5354088,5.95206564 8.38637742,5.56604203 7.29337695,5.841068 C6.23928511,6.12419342 5.38772126,6.94787177 5.02493827,8.03751622 L5.02388246,8.04629244 L5.0267576,8.05674758 L5.84747878,8.16632833 C5.96825156,8.18164901 6.06918774,8.26708873 6.10889191,8.38540088 C6.13067014,8.45029652 6.13225475,8.51986575 6.11168529,8.58958959 L6.08365852,8.65919762 L6.03930797,8.7221137 L4.52574612,10.3787403 C4.49943021,10.4074964 4.46846446,10.4309564 4.43032261,10.4490303 L4.36741197,10.4720905 L4.29570517,10.4813092 L4.25580456,10.4804721 C4.20586069,10.4739686 4.158704,10.4553186 4.11570853,10.4239908 L4.05450799,10.3674241 L4.01830348,10.3143723 L2.94052003,8.31247112 C2.88253537,8.20475277 2.88705325,8.07227639 2.9516633,7.97017179 C2.98786946,7.91130026 3.04090536,7.86664377 3.10875454,7.84124912 L3.18146679,7.822462 L3.25638424,7.82246387 L3.70631612,7.88243809 C3.7086271,7.88275269 3.71241747,7.88011573 3.71431466,7.87314473 C4.16515351,6.22007557 5.41270232,4.94444083 6.99233918,4.5243789 Z" id="path-1"></path>
    </defs>
    <g id="icons/theme/white/state-warning" stroke="none" stroke-width="1" fill="none" fill-rule="evenodd">
        <mask id="mask-2" fill="white">
            <use xlink:href="#path-1"></use>
        </mask>
        <use id="Combined-Shape" fill="#FFFFFF" xlink:href="#path-1"></use>
    </g>
</svg>