<svg width="24" height="24" fill="none" xmlns="http://www.w3.org/2000/svg"><path d="M3.5 24c-.827 0-1.5-.673-1.5-1.5v-21C2 .673 2.673 0 3.5 0h13.293c.421.012.785.163 1.06.437l3.708 3.71c.283.283.439.66.439 1.06V22.5c0 .827-.673 1.5-1.5 1.5h-17Zm0-23c-.276 0-.5.224-.5.5v21c0 .276.224.5.5.5h17c.276 0 .5-.224.5-.5V5.207a.501.501 0 0 0-.146-.354l-3.707-3.709c-.095-.093-.217-.143-.355-.144H3.5Z" fill="#000"/><path d="M12 18.499c-3.308 0-6-2.692-6-6s2.692-6 6-6c1.202 0 2.363.356 3.357 1.03a.23.23 0 0 1 .035.02c.01.007.021.017.032.027C17.032 8.691 18 10.534 18 12.499c0 1.765-.774 3.431-2.126 4.577a.2464.2464 0 0 1-.028.028.2458.2458 0 0 1-.034.025c-1.066.882-2.422 1.37-3.812 1.37Zm-4.968-5.5c.252 2.544 2.386 4.5 4.968 4.5 1.005 0 1.968-.299 2.8-.866l-3.034-3.634H7.032Zm8.535 2.992c.914-.933 1.433-2.192 1.433-3.492 0-1.484-.646-2.86-1.782-3.816l-2.592 3.786 2.941 3.522Zm-3.831-3.992 2.657-3.882c-.736-.405-1.558-.618-2.393-.618-2.582 0-4.716 1.956-4.968 4.5h4.704Z" fill="#000"/></svg>