<svg width="16" height="16" viewBox="0 0 16 16" fill="none" xmlns="http://www.w3.org/2000/svg">
<path fill-rule="evenodd" clip-rule="evenodd" d="M7.80517 0.0408528C7.71037 0.0798756 7.61675 0.169682 6.38416 1.40385C4.91546 2.87444 4.98929 2.7887 4.98929 3.02356C4.98929 3.19267 5.03649 3.30123 5.15863 3.41301C5.26517 3.5105 5.36827 3.55044 5.51344 3.55044C5.73745 3.55044 5.69678 3.58309 6.61708 2.66444C7.07473 2.2076 7.4547 1.83384 7.46149 1.83384C7.46828 1.83384 7.47383 3.13375 7.47383 4.72252C7.47383 7.57184 7.47429 7.61245 7.50786 7.70227C7.54806 7.80984 7.65893 7.92818 7.77534 7.98775C7.89107 8.04697 8.10893 8.04697 8.22466 7.98775C8.34107 7.92818 8.45194 7.80984 8.49214 7.70227C8.52571 7.61245 8.52617 7.57184 8.52617 4.72252C8.52617 3.13375 8.53172 1.83384 8.53851 1.83384C8.5453 1.83384 8.92527 2.2076 9.38292 2.66444C10.3032 3.58309 10.2626 3.55044 10.4866 3.55044C10.6317 3.55044 10.7348 3.5105 10.8414 3.41301C10.9635 3.30123 11.0107 3.19267 11.0107 3.02356C11.0107 2.78824 11.0857 2.87514 9.60763 1.39735C8.34411 0.134076 8.27532 0.0683013 8.18182 0.0341564C8.05141 -0.0134663 7.93199 -0.0113419 7.80517 0.0408528ZM3.30759 4.99654C2.99398 5.04376 2.69994 5.18856 2.4699 5.40912C2.26293 5.60755 2.11263 5.86958 2.03838 6.16141L2 6.31229V10.4933V14.6743L2.03838 14.8252C2.18331 15.3949 2.59474 15.8097 3.16622 15.9624L3.30693 16H8H12.6931L12.8338 15.9624C13.4053 15.8097 13.8167 15.3949 13.9616 14.8252L14 14.6743V10.4933V6.31229L13.9616 6.16141C13.8147 5.58404 13.3944 5.16644 12.8096 5.01665C12.7082 4.9907 12.6061 4.98682 12.0226 4.98672C11.3586 4.9866 11.3514 4.98697 11.2656 5.02583C11.1642 5.07182 11.0572 5.17639 11.0014 5.28403C10.9441 5.39466 10.9441 5.6323 11.0014 5.74292C11.0572 5.85059 11.1642 5.95515 11.2656 6.00107C11.3497 6.03911 11.3702 6.04049 11.9802 6.0488C12.6932 6.0585 12.6758 6.05519 12.8158 6.20727C12.9499 6.35296 12.9392 5.98189 12.9392 10.4933C12.9392 15.0047 12.9499 14.6336 12.8158 14.7793C12.7771 14.8213 12.7146 14.8722 12.6769 14.8924L12.6082 14.9293H8H3.3918L3.32314 14.8924C3.28537 14.8722 3.22288 14.8213 3.18425 14.7793C3.05013 14.6336 3.06082 15.0047 3.06082 10.4933C3.06082 5.98189 3.05013 6.35296 3.18425 6.20727C3.32424 6.05519 3.30676 6.0585 4.0198 6.0488C4.62983 6.04049 4.65029 6.03911 4.73435 6.00107C4.83578 5.95515 4.9428 5.85059 4.99857 5.74292C5.05588 5.6323 5.05588 5.39466 4.99857 5.28403C4.94282 5.17639 4.83582 5.07182 4.73435 5.02583C4.64942 4.98733 4.63623 4.98655 4.02829 4.98395C3.68755 4.98249 3.36325 4.98816 3.30759 4.99654Z" fill="black"/>
</svg>
