<svg width="16" height="16" viewBox="0 0 16 16" fill="none" xmlns="http://www.w3.org/2000/svg">
<path fill-rule="evenodd" clip-rule="evenodd" d="M4.64159 0.00874185C4.70293 0.0115893 4.84964 0.0262726 4.96761 0.0413504C5.94406 0.166296 6.80833 0.585078 7.50547 1.27109C8.1007 1.85683 8.50814 2.58262 8.69956 3.39813C8.78784 3.77423 8.80244 3.91843 8.80158 4.40539C8.80074 4.88008 8.78099 5.06561 8.69389 5.41744L8.66203 5.54609L12.0799 8.96819C14.2215 11.1124 15.5301 12.4351 15.5844 12.5104C15.7775 12.7782 15.9191 13.1158 15.9765 13.4452C16.0182 13.6851 16.0028 14.0958 15.9433 14.3286C15.8887 14.5423 15.8481 14.6483 15.7483 14.8381C15.4589 15.3884 14.9483 15.7858 14.328 15.9435C14.0948 16.0028 13.6837 16.0181 13.4443 15.9765C13.1148 15.9192 12.777 15.7776 12.5091 15.5846C12.4338 15.5303 11.111 14.2224 8.96573 12.0812L5.54245 8.66432L5.41375 8.6958C5.04661 8.78558 4.87813 8.80312 4.3842 8.803C3.95008 8.8029 3.89241 8.7993 3.66351 8.75794C2.74104 8.59126 1.96642 8.1949 1.3145 7.55597C0.134163 6.39915 -0.294203 4.67916 0.205151 3.10174C0.318625 2.74326 0.510209 2.33098 0.619514 2.21003C0.766534 2.04737 1.02859 1.99835 1.23546 2.09483C1.32673 2.13741 1.45919 2.26345 2.40261 3.20551L3.46681 4.26817H3.86544H4.26408V3.8698V3.47141L3.20117 2.40747C2.01467 1.21984 2.04694 1.25833 2.04494 1.02818C2.04286 0.790576 2.13796 0.640278 2.36848 0.516859C2.77541 0.298977 3.24964 0.139639 3.73214 0.0586582C3.90116 0.0302865 4.34142 -0.00479216 4.46141 0.000542545C4.49916 0.00220642 4.58024 0.00591154 4.64159 0.00874185ZM4.75312 1.09663C5.27861 1.15186 5.80202 1.33502 6.22024 1.61003C7.11572 2.19885 7.64594 3.09903 7.73265 4.1776C7.76475 4.5771 7.71713 4.95953 7.58085 5.39651C7.50407 5.64272 7.49842 5.77284 7.55838 5.91489C7.59443 6.00031 7.93573 6.34707 11.1716 9.58571L14.745 13.1622L14.8136 13.308C14.9036 13.4993 14.9274 13.6063 14.9262 13.814C14.9242 14.1388 14.8305 14.3598 14.5948 14.5953C14.3529 14.8372 14.1353 14.927 13.7961 14.925C13.652 14.9241 13.5789 14.9149 13.4872 14.8861C13.2028 14.7969 13.4663 15.0475 9.60062 11.1891C7.64232 9.23441 6.01673 7.61934 5.98821 7.6C5.90662 7.54468 5.74702 7.50477 5.65592 7.5169C5.61239 7.52269 5.4915 7.55362 5.38728 7.58565C4.73457 7.78612 4.13386 7.7949 3.48721 7.61338C2.29723 7.27936 1.3737 6.28384 1.14243 5.08585C1.05237 4.61935 1.05488 4.11265 1.1492 3.71926C1.16164 3.66737 1.17697 3.60234 1.18327 3.57476C1.19438 3.52608 1.22019 3.54999 2.06448 4.39121C2.81872 5.1427 2.94678 5.26329 3.02861 5.29903L3.12299 5.34025L3.92301 5.34574C4.38677 5.34891 4.77418 5.34413 4.84475 5.33435C5.05015 5.30589 5.19072 5.21069 5.27931 5.04007L5.31938 4.96288L5.3241 4.04078C5.32878 3.12712 5.32847 3.11786 5.29144 3.02873C5.25911 2.95096 5.13689 2.82126 4.3891 2.07126L3.52416 1.20377L3.58955 1.18467C3.90478 1.09268 4.37622 1.05702 4.75312 1.09663Z" fill="black"/>
</svg>
