<svg width="16" height="16" viewBox="0 0 16 16" fill="none" xmlns="http://www.w3.org/2000/svg">
<path fill-rule="evenodd" clip-rule="evenodd" d="M7.84779 0.0101774C7.61357 0.0409246 7.38043 0.166769 7.20719 0.355927C7.0925 0.481193 7.14677 0.37702 5.55937 3.51864L4.94983 4.72498L2.93571 4.92404C1.82794 5.03352 0.868042 5.13596 0.802605 5.15168C0.37386 5.25475 0.0498156 5.63551 0.00417914 6.08987C-0.0183416 6.31404 0.0514133 6.58071 0.183122 6.77398C0.218169 6.82539 0.670183 7.28811 1.1876 7.80225C1.70502 8.3164 2.46262 9.06979 2.87115 9.47644L3.61395 10.2158L3.02776 12.3404C2.35227 14.7887 2.35786 14.7672 2.35783 14.9206C2.35775 15.4321 2.72894 15.8811 3.23315 15.9794C3.40429 16.0128 3.59449 16 3.75905 15.9442C3.82503 15.9219 4.80643 15.4441 5.93989 14.8826L8.00078 13.8617L10.0616 14.8826C11.1951 15.4441 12.1799 15.923 12.25 15.9469C12.6523 16.0838 13.1232 15.9494 13.3949 15.6199C13.5641 15.4148 13.6437 15.1958 13.6437 14.9353C13.6437 14.7432 13.6695 14.8436 12.9574 12.264L12.3921 10.2158L13.6765 8.94264C15.5996 7.03639 15.7855 6.84766 15.8531 6.7325C16.143 6.23875 15.9954 5.60545 15.5178 5.29366C15.375 5.20048 15.235 5.14976 15.0544 5.12588C14.9843 5.11662 14.0627 5.02424 13.0063 4.92063C11.95 4.817 11.077 4.72946 11.0664 4.7261C11.0558 4.72272 10.7433 4.11705 10.3718 3.38015C10.0004 2.64327 9.51597 1.6847 9.2953 1.25001L8.89411 0.459658L8.75667 0.321508C8.64718 0.211471 8.59004 0.169285 8.47572 0.11413C8.26808 0.0139677 8.06948 -0.0189212 7.84779 0.0101774ZM6.87897 3.27527C6.26666 4.49144 5.74438 5.51558 5.71836 5.55112C5.66295 5.62683 5.53814 5.71385 5.45224 5.73669C5.41898 5.74555 4.42077 5.84896 3.234 5.96651C2.04725 6.08404 1.0751 6.18188 1.07369 6.1839C1.07228 6.18592 1.87629 6.98509 2.86039 7.95983C4.23312 9.31949 4.65889 9.7508 4.68927 9.81248C4.72185 9.87863 4.72887 9.92002 4.72887 10.0459C4.72887 10.1948 4.71169 10.261 4.07725 12.5585C3.71885 13.8563 3.42821 14.9207 3.43137 14.9239C3.43453 14.927 4.36259 14.4707 5.49373 13.91C6.62487 13.3492 7.62496 12.8565 7.71616 12.8151C7.8613 12.7492 7.89672 12.7399 8.00006 12.7399C8.06501 12.7399 8.13954 12.7486 8.16568 12.7594C8.19182 12.7701 9.19487 13.264 10.3947 13.8569C11.5945 14.4498 12.5779 14.9324 12.5801 14.9294C12.5823 14.9264 12.2875 13.8493 11.9251 12.5359C11.4796 10.9216 11.2657 10.1203 11.2652 10.0629C11.2641 9.95075 11.2903 9.85892 11.3502 9.76542C11.3771 9.72335 12.1954 8.90113 13.1685 7.93826C14.1417 6.97539 14.9278 6.18563 14.9154 6.18324C14.9031 6.18084 13.9274 6.08329 12.7472 5.96648C11.5256 5.84554 10.5717 5.74382 10.5324 5.73029C10.4371 5.69743 10.3371 5.62499 10.2821 5.54891C10.2567 5.5137 9.73486 4.49022 9.12255 3.27448C8.51024 2.05875 8.00543 1.06405 8.00076 1.06405C7.99608 1.06403 7.49128 2.05908 6.87897 3.27527Z" fill="black"/>
</svg>
