<?xml version="1.0" encoding="UTF-8"?>
<!--
  - Infomaniak kDrive - Desktop
  - Copyright (C) 2023-2024 Infomaniak Network SA
  -
  - This program is free software: you can redistribute it and/or modify
  - it under the terms of the GNU General Public License as published by
  - the Free Software Foundation, either version 3 of the License, or
  - (at your option) any later version.
  -
  - This program is distributed in the hope that it will be useful,
  - but WITHOUT ANY WARRANTY; without even the implied warranty of
  - MERCHANTABILITY or FITNESS FOR A PARTICULAR PURPOSE.  See the
  - GNU General Public License for more details.
  -
  - You should have received a copy of the GNU General Public License
  - along with this program.  If not, see <http://www.gnu.org/licenses/>.
  -->

<svg width="16px" height="16px" viewBox="0 0 16 16" version="1.1" xmlns="http://www.w3.org/2000/svg" xmlns:xlink="http://www.w3.org/1999/xlink">
    <title>icons/theme/white/state-pause</title>
    <defs>
        <path d="M5.66666667,1 C6.04502112,0.998241716 6.39165837,1.22172184 6.56133333,1.57680999 L6.56133333,1.57680999 L7.19266667,2.906809 C7.24918085,3.02522823 7.36451894,3.10000441 7.49066667,3.10000886 L7.49066667,3.10000886 L15,3.10000886 C15.5522847,3.10000886 16,3.57010952 16,4.15000808 L16,4.15000808 L16,13.9500008 C16,14.5298993 15.5522847,15 15,15 L15,15 L1,15 C0.44771525,15 0,14.5298993 0,13.9500008 L0,13.9500008 L0,2.05000964 C0,1.47011108 0.44771525,1 1,1 L1,1 Z M6.28000003,5 L4.71999997,5 C4.32235497,5 4,5.32235497 4,5.71999997 L4,5.71999997 L4,12.28 C4,12.677645 4.32235497,13 4.71999997,13 L4.71999997,13 L6.28000003,13 C6.67764503,13 7,12.677645 7,12.28 L7,12.28 L7,5.71999997 C7,5.32235497 6.67764503,5 6.28000003,5 L6.28000003,5 Z M11.28,5 L9.71999997,5 C9.32235497,5 9,5.32235497 9,5.71999997 L9,5.71999997 L9,12.28 C9,12.677645 9.32235497,13 9.71999997,13 L9.71999997,13 L11.28,13 C11.677645,13 12,12.677645 12,12.28 L12,12.28 L12,5.71999997 C12,5.32235497 11.677645,5 11.28,5 L11.28,5 Z" id="path-1"></path>
    </defs>
    <g id="icons/theme/white/state-pause" stroke="none" stroke-width="1" fill="none" fill-rule="evenodd">
        <mask id="mask-2" fill="white">
            <use xlink:href="#path-1"></use>
        </mask>
        <use id="Combined-Shape" fill="#FFFFFF" xlink:href="#path-1"></use>
    </g>
</svg>