<svg width="140" height="140" viewBox="0 0 140 140" fill="none" xmlns="http://www.w3.org/2000/svg">
<path d="M123.5 76.5L104.178 39.7717C103.278 38.0855 102.2 36.7442 101.007 35.8281C99.8145 34.912 98.5318 34.4399 97.2358 34.4399H42.7648C41.4688 34.4399 40.186 34.912 38.9933 35.8281C37.8005 36.7442 36.7222 38.0855 35.8227 39.7717L16.5 76.5" stroke="#446FDD" stroke-width="1.25" stroke-linecap="round"/>
<path d="M125.44 94.355C125.44 97.3165 124.424 100.157 122.616 102.251C120.808 104.345 118.355 105.521 115.798 105.521H24.2018C21.6446 105.521 19.1922 104.345 17.3841 102.251C15.5759 100.157 14.5601 97.3165 14.5601 94.355V83.1885C14.5601 80.2269 15.5759 77.3867 17.3841 75.2926C19.1922 73.1984 21.6446 72.022 24.2018 72.022H115.798C118.355 72.022 120.808 73.1984 122.616 75.2926C124.424 77.3867 125.44 80.2269 125.44 83.1885V94.355Z" stroke="#446FDD" stroke-width="1.25" stroke-linecap="round"/>
<path d="M90.8564 88.8379H105.976" stroke="#446FDD" stroke-width="1.25" stroke-linecap="round"/>
<path d="M35.0492 87.5667C34.811 87.5667 34.5782 87.6372 34.3801 87.7694C34.182 87.9017 34.0276 88.0896 33.9362 88.3095C33.8448 88.5295 33.8207 88.7716 33.8668 89.0052C33.9129 89.2389 34.0272 89.4536 34.1953 89.6224C34.3634 89.7911 34.5777 89.9063 34.8111 89.9533C35.0446 90.0004 35.2868 89.9772 35.5071 89.8867C35.7274 89.7962 35.916 89.6425 36.049 89.445C36.182 89.2474 36.2535 89.0149 36.2544 88.7767C36.2544 88.457 36.1274 88.1505 35.9014 87.9245C35.6754 87.6984 35.3688 87.5715 35.0492 87.5715" fill="#446FDD"/>
<path d="M35.0492 87.5667C34.811 87.5667 34.5782 87.6372 34.3801 87.7694C34.182 87.9017 34.0276 88.0896 33.9362 88.3095C33.8448 88.5295 33.8207 88.7716 33.8668 89.0052C33.9129 89.2389 34.0272 89.4536 34.1953 89.6224C34.3634 89.7911 34.5777 89.9063 34.8111 89.9533C35.0446 90.0004 35.2868 89.9772 35.5071 89.8867C35.7274 89.7962 35.916 89.6425 36.049 89.445C36.182 89.2474 36.2535 89.0149 36.2544 88.7767C36.2544 88.457 36.1274 88.1505 35.9014 87.9245C35.6754 87.6984 35.3688 87.5715 35.0492 87.5715" stroke="#446FDD" stroke-width="1.25" stroke-linecap="round"/>
<path d="M51.9213 87.5667C51.6831 87.5667 51.4503 87.6372 51.2522 87.7694C51.0541 87.9017 50.8996 88.0896 50.8083 88.3095C50.7169 88.5295 50.6928 88.7716 50.7389 89.0052C50.785 89.2389 50.8993 89.4536 51.0674 89.6224C51.2354 89.7911 51.4497 89.9063 51.6832 89.9533C51.9167 90.0004 52.1589 89.9772 52.3792 89.8867C52.5995 89.7962 52.788 89.6425 52.921 89.445C53.054 89.2474 53.1255 89.0149 53.1265 88.7767C53.1265 88.457 52.9995 88.1505 52.7735 87.9245C52.5475 87.6984 52.2409 87.5715 51.9213 87.5715" fill="#446FDD"/>
<path d="M51.9213 87.5667C51.6831 87.5667 51.4503 87.6372 51.2522 87.7694C51.0541 87.9017 50.8996 88.0896 50.8083 88.3095C50.7169 88.5295 50.6928 88.7716 50.7389 89.0052C50.785 89.2389 50.8993 89.4536 51.0674 89.6224C51.2354 89.7911 51.4497 89.9063 51.6832 89.9533C51.9167 90.0004 52.1589 89.9772 52.3792 89.8867C52.5995 89.7962 52.788 89.6425 52.921 89.445C53.054 89.2474 53.1255 89.0149 53.1265 88.7767C53.1265 88.457 52.9995 88.1505 52.7735 87.9245C52.5475 87.6984 52.2409 87.5715 51.9213 87.5715" stroke="#446FDD" stroke-width="1.25" stroke-linecap="round"/>
</svg>
