<svg width="120" height="120" viewBox="0 0 120 120" fill="none" xmlns="http://www.w3.org/2000/svg">
<path d="M112.831 65.5746L93.9066 30.0868C93.0143 28.4139 91.9445 27.0833 90.7612 26.1745C89.5779 25.2657 88.3054 24.7973 87.0196 24.7974H32.9809C31.6952 24.7973 30.4226 25.2657 29.2393 26.1745C28.056 27.0833 26.9863 28.4139 26.094 30.0868L7.16919 65.5746" stroke="#9F9F9F" stroke-linecap="round" stroke-linejoin="round" stroke-dasharray="3 3"/>
<path d="M115 84.2371C115 87.1751 113.992 89.9928 112.198 92.0703C110.405 94.1478 107.972 95.3149 105.435 95.3149H14.5652C12.0284 95.3149 9.59541 94.1478 7.80159 92.0703C6.00776 89.9928 5 87.1751 5 84.2371V73.1592C5 70.2211 6.00776 67.4034 7.80159 65.3259C9.59541 63.2484 12.0284 62.0813 14.5652 62.0813H105.435C107.972 62.0813 110.405 63.2484 112.198 65.3259C113.992 67.4034 115 70.2211 115 73.1592V84.2371Z" stroke="#9F9F9F" stroke-linecap="round" stroke-linejoin="round" stroke-dasharray="3 3"/>
<path d="M80.6909 78.7634H95.6909" stroke="#9F9F9F" stroke-linecap="round" stroke-linejoin="round" stroke-dasharray="3 3"/>
<path d="M25.3265 77.5024C25.0902 77.5024 24.8593 77.5724 24.6627 77.7036C24.4662 77.8348 24.313 78.0212 24.2223 78.2394C24.1317 78.4576 24.1077 78.6978 24.1535 78.9296C24.1992 79.1614 24.3126 79.3745 24.4794 79.5419C24.6461 79.7093 24.8587 79.8235 25.0903 79.8702C25.3219 79.9169 25.5622 79.8939 25.7808 79.8041C25.9993 79.7143 26.1864 79.5618 26.3183 79.3658C26.4503 79.1698 26.5212 78.9391 26.5222 78.7029C26.5222 78.3858 26.3962 78.0816 26.172 77.8574C25.9477 77.6332 25.6436 77.5072 25.3265 77.5072" stroke="#9F9F9F" stroke-linecap="round" stroke-linejoin="round" stroke-dasharray="3 3"/>
<path d="M42.0648 77.5024C41.8285 77.5024 41.5975 77.5724 41.401 77.7036C41.2045 77.8348 41.0512 78.0212 40.9606 78.2394C40.87 78.4576 40.846 78.6978 40.8918 78.9296C40.9375 79.1614 41.0509 79.3745 41.2177 79.5419C41.3844 79.7093 41.597 79.8235 41.8286 79.8702C42.0602 79.9169 42.3005 79.8939 42.519 79.8041C42.7376 79.7143 42.9247 79.5618 43.0566 79.3658C43.1886 79.1698 43.2595 78.9391 43.2604 78.7029C43.2604 78.3858 43.1345 78.0816 42.9102 77.8574C42.686 77.6332 42.3819 77.5072 42.0648 77.5072" stroke="#9F9F9F" stroke-linecap="round" stroke-linejoin="round" stroke-dasharray="3 3"/>
</svg>
