<svg width="24" height="24" viewBox="0 0 24 24" fill="none" xmlns="http://www.w3.org/2000/svg">
<path d="M0 4C0 1.79086 1.79086 0 4 0H20C22.2091 0 24 1.79086 24 4V20C24 22.2091 22.2091 24 20 24H4C1.79086 24 0 22.2091 0 20V4Z" fill="#5C89F7"/>
<path opacity="0.24" d="M10.8983 4.06289C10.382 3.84201 9.8125 4.23014 9.8125 4.80281V10.2004C9.82909 10.2058 9.84592 10.2106 9.86296 10.2148L15.4836 11.6219C15.8343 11.7096 16.081 12.0313 16.081 12.4009V15.9981L18.9847 16.9125C19.4886 17.0712 19.9987 16.6856 19.9987 16.146V9.43359C19.9987 9.06406 19.752 8.74237 19.4013 8.65458L13.7807 7.24758C13.5212 7.18262 13.3119 6.98684 13.2254 6.72815L12.6883 5.12124C12.6158 4.90422 12.4559 4.72938 12.2492 4.64091L10.8983 4.06289Z" fill="#95B5FB"/>
<path fill-rule="evenodd" clip-rule="evenodd" d="M5.89453 7.76961C5.89453 7.19693 6.46407 6.80881 6.9803 7.02969L8.33121 7.60771C8.53797 7.69617 8.69782 7.87102 8.77036 8.08803L9.30748 9.69495C9.39394 9.95364 9.60321 10.1494 9.86269 10.2144L15.4833 11.6214C15.834 11.7092 16.0807 12.0309 16.0807 12.4004V19.1128C16.0807 19.6524 15.5706 20.038 15.0667 19.8793L6.44765 17.165C6.11888 17.0614 5.89453 16.7505 5.89453 16.3984V7.76961Z" fill="white"/>
<path opacity="0.8" d="M8.94124 5.66641C8.42501 5.44553 7.85547 5.83365 7.85547 6.40633V7.40324L8.33334 7.60771C8.5401 7.69618 8.69996 7.87102 8.77249 8.08804L9.30961 9.69496C9.39608 9.95364 9.60535 10.1494 9.86482 10.2144L15.4855 11.6214C15.8362 11.7092 16.0829 12.0309 16.0829 12.4004V18.2185L17.0277 18.516C17.5315 18.6747 18.0417 18.2891 18.0417 17.7495V11.0371C18.0417 10.6676 17.795 10.3459 17.4443 10.2581L11.8236 8.85109C11.5642 8.78614 11.3549 8.59036 11.2684 8.33167L10.7313 6.72475C10.6588 6.50774 10.4989 6.33289 10.2921 6.24443L8.94124 5.66641Z" fill="#95B5FB"/>
<path fill-rule="evenodd" clip-rule="evenodd" d="M4.04598 11.6266C3.83506 11.0149 4.38396 10.4134 4.99458 10.587L13.7003 13.0621C13.9631 13.1368 14.1691 13.346 14.244 13.6145L15.8838 19.4888C15.9693 19.7948 15.6891 20.0758 15.3919 19.9822L6.2732 17.1105C6.03597 17.0358 5.84735 16.8505 5.76475 16.6109L4.04598 11.6266Z" fill="#C0D1FD"/>
<path d="M16.1719 3.98438H17.772V6.88513L18.9414 5.53451H20.8685L19.403 6.96186L20.9531 9.60938H19.1876L18.3606 7.97483L17.772 8.55037V9.60938H16.1719V3.98438Z" fill="white"/>
</svg>
