<svg width="183" height="120" viewBox="0 0 183 120" fill="none" xmlns="http://www.w3.org/2000/svg">
<ellipse cx="42.6392" cy="32.5187" rx="31.9307" ry="32.5187" fill="#333333"/>
<path d="M77.5059 19.2686L78.9023 20.1123L104.722 54.2295C104.724 54.2484 104.728 54.272 104.731 54.2998C104.743 54.3832 104.759 54.5054 104.78 54.6611C104.822 54.973 104.884 55.4193 104.958 55.9561C105.107 57.0297 105.31 58.4673 105.529 59.9199C105.748 61.372 105.982 62.8419 106.192 63.9805C106.297 64.5493 106.397 65.0391 106.486 65.4033C106.531 65.5847 106.574 65.7391 106.614 65.8584C106.635 65.918 106.656 65.9732 106.678 66.0195C106.698 66.0614 106.727 66.114 106.769 66.1562C106.843 66.2316 107.04 66.3899 107.307 66.5957C107.58 66.8069 107.945 67.0805 108.366 67.3945C109.21 68.0227 110.288 68.8139 111.352 69.5889C112.415 70.364 113.464 71.1246 114.246 71.6904C114.637 71.9732 114.962 72.2074 115.188 72.3711C115.302 72.4528 115.391 72.5168 115.451 72.5605C115.481 72.5824 115.505 72.6 115.521 72.6113C115.528 72.6169 115.534 72.6212 115.538 72.624C115.54 72.6255 115.542 72.6262 115.543 72.627L115.544 72.6279C115.544 72.628 115.545 72.6281 115.674 72.4492L115.545 72.6279L115.557 72.6367L115.569 72.6436L129.857 80.248C129.861 80.2504 129.866 80.253 129.871 80.2568C129.885 80.2665 129.905 80.2812 129.933 80.2998C129.987 80.3372 130.068 80.3925 130.172 80.4629C130.38 80.6036 130.684 80.8061 131.066 81.0537C131.831 81.5492 132.912 82.2264 134.173 82.9521C136.691 84.4014 139.947 86.0543 142.858 86.8408C145.717 87.6132 151.214 90.1328 156.016 92.4707C158.412 93.6374 160.628 94.7555 162.245 95.582C163.054 95.9953 163.713 96.3353 164.17 96.5723C164.398 96.6907 164.576 96.7837 164.696 96.8467C164.757 96.8782 164.803 96.9018 164.834 96.918C164.838 96.9203 164.843 96.9218 164.847 96.9238C164.848 96.9256 164.85 96.9278 164.852 96.9297C164.87 96.9493 164.898 96.9787 164.935 97.0166C165.007 97.0925 165.113 97.2039 165.248 97.3457C165.518 97.6297 165.905 98.0363 166.37 98.5254C167.3 99.5036 168.544 100.813 169.797 102.138C171.05 103.463 172.313 104.802 173.281 105.842C173.766 106.361 174.176 106.805 174.475 107.135C174.624 107.299 174.745 107.435 174.833 107.536C174.877 107.587 174.912 107.628 174.938 107.66C174.95 107.676 174.96 107.688 174.968 107.698C174.975 107.707 174.978 107.712 174.979 107.713C174.99 107.731 175.023 107.794 175.08 107.912C175.135 108.025 175.206 108.176 175.292 108.362C175.464 108.734 175.692 109.239 175.958 109.832C176.489 111.018 177.169 112.553 177.839 114.072C178.509 115.592 179.169 117.096 179.661 118.22C179.907 118.782 180.112 119.25 180.255 119.576C180.288 119.651 180.317 119.719 180.343 119.778L0.545898 119.683C0.822351 119.441 1.28471 119.068 2.03711 118.523C3.62855 117.372 6.51249 115.464 11.6729 112.447C22.0607 106.374 26.5296 97.0228 28.4697 93.4004C30.4423 89.7172 30.1409 88.1132 34.0439 84.8467C36.01 83.2013 38.2869 81.4029 40.1592 79.6309C41.0966 78.7437 41.9396 77.8576 42.5957 76.9932C43.2503 76.1307 43.7291 75.2772 43.9248 74.4561C44.0115 74.0923 44.2767 73.4479 44.6875 72.5762C45.0953 71.7109 45.6381 70.6393 46.2676 69.4307C47.5269 67.0124 49.128 64.0558 50.6904 61.1113C52.2513 58.1698 53.7721 55.2416 54.8643 52.8887C55.41 51.7129 55.8512 50.6754 56.1367 49.8496C56.2794 49.4369 56.3854 49.0716 56.4453 48.7656C56.5039 48.4663 56.5241 48.1973 56.4736 47.9902C56.3148 47.3387 56.1 46.7829 55.8994 46.2969C55.6962 45.8045 55.5155 45.4007 55.4072 45.0254C55.3008 44.6564 55.2738 44.3415 55.3623 44.0361C55.451 43.73 55.6647 43.4037 56.0967 43.0303C56.5236 42.6613 56.8892 42.496 57.2188 42.4111C57.5651 42.3219 57.8552 42.3209 58.2061 42.2754C58.5465 42.2312 58.898 42.1464 59.2637 41.8818C59.6241 41.621 59.9813 41.1978 60.3652 40.5088C61.0875 39.2126 62.1031 38.5515 62.9209 37.9961C63.3213 37.7241 63.699 37.4615 63.9414 37.1533C64.1991 36.8256 64.3052 36.4458 64.1758 35.9668C64.0747 35.593 64.0386 34.8489 64.0479 33.9121C64.057 32.9861 64.1095 31.901 64.1768 30.8643C64.2439 29.828 64.3255 28.8421 64.3896 28.1152C64.4217 27.7518 64.4499 27.4527 64.4697 27.2451C64.4796 27.1418 64.4868 27.0609 64.4922 27.0059C64.4931 26.9961 64.4933 26.9866 64.4941 26.9785L70.75 18.0166L77.5059 19.2686Z" fill="#666666" stroke="#E0E0E0" stroke-width="0.440974"/>
<path d="M95.1484 89.5908L95.0137 81.0293L95.1484 71.7793L95.1494 71.7051L95.1055 71.6455C89.809 64.444 87.923 58.8575 87.3555 55.085C87.0717 53.1985 87.1167 51.7629 87.2314 50.8037C87.2888 50.324 87.3642 49.9627 87.4238 49.7236C87.4536 49.6043 87.4798 49.5153 87.498 49.457C87.5071 49.428 87.5138 49.4063 87.5186 49.3926C87.5209 49.3858 87.5233 49.3809 87.5244 49.3779L87.5254 49.375L87.5713 49.2529L87.4863 49.1533L85.7852 47.1719L87.8369 41.9121L87.874 41.8184L87.8262 41.7285L85.7266 37.7998L85.6973 37.7451L85.6426 37.7129L81.1582 35.1094C80.8984 32.0101 79.3901 29.6918 77.9453 28.1484C77.2136 27.3668 76.4968 26.7809 75.9619 26.3906C75.6943 26.1954 75.4716 26.0485 75.3154 25.9502C75.2375 25.9011 75.1762 25.8638 75.1338 25.8389C75.1308 25.8371 75.1278 25.8356 75.125 25.834L71.0752 18.043L77.5254 19.2383L78.9229 20.082L104.742 54.1992C104.745 54.2182 104.748 54.2417 104.752 54.2695C104.763 54.353 104.78 54.4759 104.801 54.6318C104.843 54.9437 104.905 55.3901 104.979 55.9268C105.129 57.0004 105.333 58.4372 105.552 59.8896C105.771 61.3418 106.006 62.8116 106.216 63.9502C106.321 64.5188 106.42 65.008 106.509 65.3721C106.553 65.5537 106.595 65.7089 106.636 65.8281C106.656 65.8876 106.677 65.942 106.699 65.9883C106.719 66.03 106.747 66.0828 106.788 66.125C106.862 66.2009 107.059 66.3598 107.325 66.5654C107.599 66.7766 107.962 67.0503 108.384 67.3643C109.227 67.9925 110.307 68.7836 111.37 69.5586C112.434 70.3338 113.483 71.0943 114.266 71.6602C114.657 71.943 114.982 72.1771 115.209 72.3408C115.323 72.4227 115.412 72.4865 115.473 72.5303C115.503 72.5521 115.526 72.5698 115.542 72.5811C115.55 72.5865 115.556 72.5909 115.56 72.5938C115.561 72.595 115.563 72.596 115.563 72.5967L115.564 72.5977H115.565L115.577 72.6064L115.591 72.6133L129.882 80.2197C129.885 80.2217 129.888 80.224 129.892 80.2266C129.906 80.2362 129.926 80.2509 129.953 80.2695C130.008 80.3069 130.088 80.3623 130.192 80.4326C130.401 80.5733 130.705 80.7758 131.087 81.0234C131.852 81.5189 132.933 82.1961 134.194 82.9219C136.713 84.371 139.967 86.0241 142.879 86.8105C145.738 87.5829 151.235 90.1025 156.036 92.4404C158.432 93.6072 160.649 94.7252 162.267 95.5518C163.075 95.9649 163.734 96.3051 164.19 96.542C164.419 96.6604 164.596 96.7534 164.717 96.8164C164.777 96.8479 164.824 96.8715 164.854 96.8877C164.859 96.8901 164.863 96.8925 164.867 96.8945C164.869 96.8961 164.87 96.8977 164.872 96.8994C164.891 96.919 164.919 96.9483 164.955 96.9863C165.027 97.0623 165.134 97.1736 165.269 97.3154C165.539 97.5995 165.926 98.0059 166.391 98.4951C167.321 99.4738 168.564 100.784 169.817 102.109C171.071 103.435 172.333 104.775 173.302 105.814C173.786 106.334 174.196 106.778 174.495 107.106C174.644 107.271 174.766 107.406 174.854 107.507C174.898 107.557 174.933 107.599 174.959 107.631C174.967 107.64 174.974 107.649 174.979 107.656L175 107.689C175.011 107.707 175.043 107.769 175.101 107.887C175.155 107.999 175.227 108.15 175.312 108.336C175.484 108.707 175.713 109.213 175.979 109.806C176.51 110.991 177.19 112.525 177.859 114.045C178.529 115.565 179.189 117.07 179.682 118.194C179.928 118.757 180.133 119.224 180.275 119.551C180.308 119.626 180.337 119.694 180.363 119.754L96.9277 119.71C96.5213 116.81 96.5104 114.015 96.5049 111.749V111.748C96.4909 108.374 96.2799 106.818 96.001 105.781C95.862 105.265 95.7063 104.879 95.5596 104.48C95.4128 104.081 95.269 103.654 95.1436 103.035C94.8991 101.828 95.2213 100.418 95.6211 99.2881C95.8195 98.7275 96.0335 98.2443 96.1982 97.9014C96.2806 97.73 96.3504 97.5937 96.3994 97.501C96.4238 97.4547 96.443 97.4192 96.4561 97.3955C96.4624 97.3839 96.4674 97.375 96.4707 97.3691C96.4723 97.3662 96.4738 97.3637 96.4746 97.3623L96.4756 97.3613V97.3604L96.5215 97.2803L96.4961 97.1904C95.8213 94.8515 95.4837 92.9484 95.3154 91.6318C95.2313 90.9737 95.1899 90.4622 95.1689 90.1162C95.1585 89.9433 95.153 89.8114 95.1504 89.7236C95.1491 89.6797 95.1488 89.6467 95.1484 89.625V89.5908Z" fill="#333333" stroke="#E0E0E0" stroke-width="0.440974"/>
<path d="M159.997 80.0361L156.459 80.335L156.063 80.3682L156.301 80.6865L164.926 92.2559L161.169 92.5576L160.806 92.5869L161 92.8945L167.455 103.155L163.664 103.454L163.324 103.48L163.487 103.779L172.17 119.632L165.262 119.539L164.935 119.535L164.949 119.573L131.27 119.752L139.954 103.897L140.117 103.599L139.778 103.571L135.985 103.267L142.441 93.0059L142.636 92.6973L142.272 92.6689L138.515 92.373L147.141 80.8037L147.378 80.4863L146.983 80.4521L143.449 80.1484L151.691 65.5635L151.806 65.5498L159.997 80.0361Z" fill="#333333" stroke="#E0E0E0" stroke-width="0.440974"/>
<path d="M172.739 89.0957L169.985 89.3203L169.58 89.3535L169.828 89.6748L176.67 98.5312L173.753 98.7568L173.382 98.7861L173.585 99.0977L178.701 106.944L175.749 107.17L175.402 107.195L175.574 107.498L182.475 119.658L177.031 119.588L176.7 119.584L176.712 119.614L149.917 119.752L156.821 107.589L156.992 107.287L156.646 107.261L153.692 107.031L158.81 99.1826L159.014 98.8711L158.642 98.8428L155.725 98.6211L162.566 89.7656L162.814 89.4443L162.41 89.4111L159.659 89.1816L166.223 77.9727L172.739 89.0957Z" fill="#666666" stroke="#E0E0E0" stroke-width="0.440974"/>
<path fill-rule="evenodd" clip-rule="evenodd" d="M147.185 45.6649H145.162C144.185 43.1814 141.822 41.4287 139.06 41.4287C136.166 41.4287 133.709 43.3542 132.828 46.0285C132.311 45.796 131.742 45.6649 131.142 45.6649C129.095 45.6649 127.39 47.1676 127.007 49.1598H125.023C123.461 49.1598 122.195 50.4637 122.195 52.0721C122.195 53.6804 123.461 54.9844 125.023 54.9844H147.185C149.684 54.9844 151.71 52.8983 151.71 50.3248C151.71 47.751 149.684 45.6649 147.185 45.6649Z" fill="#1A1A1A"/>
</svg>
