<svg width="184" height="122" viewBox="0 0 184 122" fill="none" xmlns="http://www.w3.org/2000/svg">
<path d="M71.6489 18.125C66.3138 7.72421 55.6216 0.625 43.3013 0.625C25.6492 0.625 11.3394 15.1983 11.3394 33.1755C11.3394 51.1526 25.6492 65.7259 43.3013 65.7259C45.2885 65.7259 47.2334 65.5412 49.1202 65.1878" stroke="#446FDD" stroke-width="1.25" stroke-linecap="round"/>
<path d="M143.27 87.1756C137.498 85.6164 130.723 80.7651 130.723 80.7651L116.407 73.1451C116.407 73.1451 108.137 67.1869 107.65 66.6918C107.208 66.2411 105.918 56.7735 105.69 55.0792C105.667 54.9078 105.601 54.7483 105.496 54.6104L79.866 20.744C79.7894 20.6428 79.6943 20.5572 79.5857 20.4915L78.4363 19.7972C78.3333 19.735 78.2198 19.6919 78.1015 19.6699L71.9738 18.5344C71.588 18.4629 71.1961 18.6236 70.9716 18.9452L65.1133 27.3376C65.0158 27.4773 64.956 27.6353 64.9396 27.8049C64.812 29.1289 64.2531 35.2307 64.646 36.6844C65.0875 38.3176 62.355 38.3688 60.8519 41.0663C59.3487 43.7637 58.4379 41.9654 56.6274 43.5304C54.817 45.0953 56.3145 46.1709 56.9348 48.7146C57.555 51.2584 45.1164 71.9842 44.3732 75.1027C43.63 78.2213 38.5059 82.0796 34.5553 85.386C30.6047 88.6923 30.8673 90.3825 28.9227 94.0132C26.9781 97.6439 22.5302 106.948 12.1926 112.992C2.26174 118.798 0.731375 120.512 0.626331 120.638C0.623403 120.642 0.626722 120.646 0.631293 120.646L181.477 120.743" stroke="#446FDD" stroke-width="1.25" stroke-linecap="round"/>
<path d="M130.743 80.7348L116.427 73.1149C116.427 73.1149 108.151 67.1566 107.671 66.6615C107.233 66.2108 105.939 56.7421 105.711 55.0486C105.688 54.8774 105.621 54.7182 105.517 54.5804L79.8865 20.7138C79.8099 20.6126 79.7148 20.5269 79.6062 20.4613L78.4568 19.767C78.3538 19.7047 78.2403 19.6616 78.122 19.6397L73.3751 18.76C72.5562 18.6082 71.9215 19.4654 72.3055 20.2044L75.5132 26.3763C75.6039 26.5509 75.7427 26.6938 75.909 26.799C76.9686 27.4695 80.9769 30.3174 81.5967 35.3767C81.6369 35.7047 81.8191 36.0022 82.1049 36.1681L85.9898 38.4234C86.1506 38.5167 86.2822 38.653 86.3698 38.817L88.12 42.0927C88.2576 42.3503 88.2758 42.6551 88.1697 42.9272L86.4538 47.3285C86.3196 47.6726 86.3861 48.0628 86.6267 48.3431L87.6382 49.5212C87.876 49.7983 87.947 50.1837 87.8689 50.5404C87.4192 52.5924 86.6569 60.1267 95.438 72.1954C95.5663 72.3718 95.6385 72.5898 95.6353 72.8079L95.5061 81.7307L95.6402 90.3067C95.6402 90.3067 95.6402 93.0964 96.8831 97.5664C96.9553 97.8259 96.9237 98.1025 96.8033 98.3435C96.338 99.275 95.2302 101.781 95.6402 103.805C96.1543 106.343 96.9701 105.74 96.998 112.484C97.0036 114.8 97.0148 117.685 97.4506 120.673" stroke="#446FDD" stroke-width="1.25" stroke-linecap="round"/>
<path d="M161.62 87.1245L158.325 82.701C157.857 82.072 158.262 81.173 159.043 81.1072L159.582 81.0619C160.308 81.0007 160.727 80.2077 160.368 79.5731L152.614 65.8623C152.593 65.8253 152.537 65.8402 152.537 65.8827V65.9175C152.537 65.9612 152.475 65.9689 152.464 65.9266C152.456 65.8942 152.412 65.8883 152.396 65.9174L144.615 79.6873C144.256 80.3212 144.674 81.1132 145.399 81.1756L145.938 81.222C146.719 81.2891 147.123 82.1877 146.654 82.816L139.938 91.8247C139.468 92.4556 139.877 93.3576 140.661 93.4193L141.366 93.4747C142.115 93.5337 142.534 94.3677 142.134 95.0042L137.237 102.787C136.837 103.423 137.255 104.256 138.004 104.316L138.979 104.394C139.701 104.452 140.124 105.236 139.776 105.871L132.46 119.228C132.094 119.897 132.581 120.713 133.343 120.709L166.036 120.535C166.045 120.535 166.05 120.526 166.047 120.518C166.044 120.51 166.05 120.502 166.058 120.502L173.334 120.6" stroke="#446FDD" stroke-width="1.25" stroke-linecap="round"/>
<path d="M151.964 120.709C151.196 120.713 150.71 119.884 151.09 119.215L156.558 109.58C156.92 108.942 156.496 108.146 155.766 108.089L155.689 108.083C154.932 108.025 154.514 107.176 154.929 106.54L158.464 101.117C158.855 100.518 158.46 99.7186 157.747 99.6644C157 99.6077 156.615 98.7432 157.073 98.1502L162.082 91.6662C162.522 91.0963 162.156 90.265 161.438 90.2055C160.772 90.1501 160.391 89.4181 160.729 88.841L166.838 78.4084C166.852 78.3856 166.886 78.3904 166.893 78.4159C166.901 78.4496 166.951 78.4432 166.951 78.4084V78.3823C166.951 78.3487 166.995 78.3366 167.012 78.3657L173.1 88.7534C173.438 89.3307 173.057 90.0631 172.39 90.1173C171.672 90.1756 171.304 91.007 171.745 91.5771L176.752 98.0591C177.211 98.6527 176.827 99.5182 176.079 99.5761C175.364 99.6314 174.97 100.431 175.361 101.032L178.895 106.452C179.31 107.089 178.891 107.937 178.133 107.995L178.062 108C177.331 108.056 176.907 108.853 177.268 109.491L182.728 119.111C183.109 119.782 182.618 120.614 181.845 120.604L177.768 120.551C177.761 120.551 177.757 120.558 177.759 120.564C177.761 120.57 177.757 120.576 177.751 120.576L151.964 120.709Z" stroke="#446FDD" stroke-width="1.25" stroke-linecap="round"/>
<path fill-rule="evenodd" clip-rule="evenodd" d="M147.948 46.3341H146.605C146.194 46.3341 145.831 46.079 145.643 45.7133C144.539 43.561 142.344 42.0938 139.816 42.0938C137.303 42.0938 135.119 43.544 134.009 45.6758C133.735 46.2023 133.103 46.4732 132.516 46.3823C132.312 46.3506 132.103 46.3341 131.89 46.3341C130.123 46.3341 128.61 47.453 127.981 49.0401C127.805 49.486 127.404 49.8324 126.925 49.8324H125.765C124.202 49.8324 122.934 51.1376 122.934 52.7475C122.934 54.3575 124.202 55.6627 125.765 55.6627H147.948C150.45 55.6627 152.478 53.5745 152.478 50.9985C152.478 48.4223 150.45 46.3341 147.948 46.3341Z" stroke="#446FDD" stroke-width="1.25" stroke-linecap="round"/>
</svg>
