<svg width="24" height="24" fill="none" xmlns="http://www.w3.org/2000/svg"><path d="M3.5 24c-.827 0-1.5-.673-1.5-1.5v-21C2 .673 2.673 0 3.5 0h13.293c.401 0 .777.156 1.061.439l3.707 3.707c.283.284.439.661.439 1.061V22.5c0 .827-.673 1.5-1.5 1.5h-17Zm0-23a.5.5 0 0 0-.5.5v21a.5.5 0 0 0 .5.5h17a.5.5 0 0 0 .5-.5V5.207a.501.501 0 0 0-.146-.354l-3.707-3.707A.505.505 0 0 0 16.793 1H3.5Z" fill="#000"/><path d="M9.5 18c-.827 0-1.5-.673-1.5-1.5V9a1.497 1.497 0 0 1 2.227-1.311l6.496 3.498a1.494 1.494 0 0 1 .719 1.726c-.11.386-.363.705-.713.899L10.248 17.8c-.24.134-.489.2-.748.2Zm.001-9.5A.492.492 0 0 0 9 9v7.5a.5.5 0 0 0 .743.437l6.481-3.989a.51.51 0 0 0 .213-.691.502.502 0 0 0-.194-.194L9.749 8.566a.504.504 0 0 0-.248-.066Z" fill="#000"/></svg>