<svg width="16" height="16" viewBox="0 0 16 16" fill="none" xmlns="http://www.w3.org/2000/svg">
<g clip-path="url(#clip0_36985_1303)">
<path fill-rule="evenodd" clip-rule="evenodd" d="M7.87736 0.0104369C7.72654 0.0483044 7.59786 0.152793 7.52196 0.298992C7.48272 0.374625 7.48221 0.382906 7.47741 1.01033L7.47256 1.64513L7.51314 1.73376C7.57048 1.85901 7.64675 1.93869 7.76662 1.99858C7.85517 2.04282 7.88939 2.05039 8.00093 2.05039C8.11246 2.05039 8.14668 2.04282 8.23523 1.99858C8.34685 1.9428 8.42035 1.8705 8.48123 1.75659C8.51913 1.68565 8.51959 1.67703 8.51959 1.03016C8.51959 0.377481 8.51947 0.375271 8.4799 0.298992C8.42428 0.191732 8.31638 0.0861549 8.22007 0.0447336C8.12393 0.00336328 7.96775 -0.0122633 7.87736 0.0104369ZM2.57616 2.20231C2.2743 2.29446 2.11133 2.61743 2.21952 2.90908C2.25447 3.00328 2.29076 3.04448 2.69311 3.44679C3.09087 3.84451 3.13741 3.88563 3.22727 3.91865C3.43103 3.99353 3.64134 3.94769 3.79391 3.79513C3.94649 3.64257 3.99233 3.43229 3.91744 3.22855C3.88441 3.1387 3.8433 3.09216 3.44554 2.69444C3.04778 2.29672 3.00123 2.2556 2.91138 2.22258C2.81143 2.18586 2.66007 2.17671 2.57616 2.20231ZM13.0856 2.22241C13.0034 2.25428 12.939 2.31175 12.5563 2.69442C12.1586 3.09214 12.1174 3.13872 12.0844 3.22855C11.9249 3.6624 12.3407 4.07809 12.7746 3.91865C12.8644 3.88563 12.911 3.84451 13.3087 3.44679C13.7111 3.04448 13.7474 3.00328 13.7823 2.90908C13.8775 2.65244 13.7657 2.3687 13.5192 2.24168C13.3997 2.18006 13.2158 2.1719 13.0856 2.22241ZM7.6183 2.99634C5.3933 3.18014 3.56233 4.77999 3.0964 6.94749C3.01242 7.33808 2.99443 7.52162 2.99389 7.99322C2.99334 8.45445 3.0047 8.58438 3.07959 8.97378C3.45434 10.9224 4.99178 12.4856 6.94658 12.9058C7.34171 12.9907 7.51972 13.0079 8.00093 13.0079C8.48213 13.0079 8.66014 12.9907 9.05527 12.9058C10.2378 12.6516 11.2755 11.9879 12.0072 11.0177C12.5301 10.3244 12.8442 9.56011 12.9776 8.65637C13.0199 8.36996 13.0198 7.63692 12.9774 7.34708C12.8106 6.20733 12.3331 5.24263 11.5467 4.45629C10.7706 3.68029 9.82019 3.20447 8.70665 3.03447C8.49102 3.00155 7.83391 2.97852 7.6183 2.99634ZM7.55028 4.07665C6.83873 4.15696 6.07495 4.47731 5.52206 4.92735C4.70888 5.58927 4.18575 6.54737 4.07358 7.58022C4.05056 7.79207 4.05056 8.21138 4.07358 8.42323C4.15356 9.15965 4.46735 9.91668 4.92624 10.4803C5.58781 11.2929 6.54707 11.8166 7.57937 11.9287C7.79125 11.9517 8.2106 11.9517 8.42247 11.9287C9.18453 11.8459 9.93481 11.5272 10.5305 11.0332C10.9547 10.6815 11.2796 10.2676 11.5371 9.75072C12.0867 8.64758 12.0867 7.35578 11.5371 6.25273C11.2722 5.72107 10.9339 5.29699 10.4801 4.92764C9.91697 4.46923 9.15793 4.15463 8.42247 4.07478C8.22841 4.05369 7.74436 4.05473 7.55028 4.07665ZM0.356942 7.49719C0.209113 7.55515 0.0998014 7.65576 0.0397719 7.78918C-0.0133874 7.90727 -0.0132344 8.09504 0.040095 8.21595C0.0847175 8.31713 0.189046 8.42446 0.297423 8.48065C0.373046 8.51987 0.381481 8.52039 1.00883 8.52519L1.6437 8.53003L1.73233 8.48946C1.85759 8.43213 1.93728 8.35586 1.99718 8.236C2.04134 8.14762 2.04897 8.11329 2.04882 8.00325C2.04855 7.78623 1.94788 7.62222 1.75612 7.52642L1.65244 7.47461L1.03019 7.4759C0.596295 7.4768 0.392517 7.48324 0.356942 7.49719ZM14.2469 7.52584C14.054 7.62223 13.9533 7.78576 13.953 8.00325C13.9529 8.11329 13.9605 8.14762 14.0047 8.236C14.0646 8.35586 14.1443 8.43213 14.2695 8.48946L14.3582 8.53003L14.993 8.52519C15.6204 8.52039 15.6288 8.51987 15.7044 8.48065C15.8974 8.3806 16 8.21429 16 8.00172C16 7.78916 15.8974 7.62285 15.7044 7.52279C15.6288 7.48357 15.6206 7.48306 14.9898 7.47828L14.3517 7.47345L14.2469 7.52584ZM3.22237 12.0857C3.13944 12.1169 3.07949 12.1703 2.69311 12.5566C2.29078 12.959 2.25447 13.0002 2.21952 13.0944C2.06061 13.5228 2.47932 13.9414 2.90777 13.7825C3.00198 13.7476 3.04319 13.7113 3.44554 13.309C3.8433 12.9113 3.88441 12.8647 3.91744 12.7749C4.07739 12.3397 3.65625 11.9221 3.22237 12.0857ZM12.3798 12.0911C12.114 12.1997 11.9838 12.5011 12.0844 12.7749C12.1174 12.8647 12.1586 12.9113 12.5563 13.309C12.9587 13.7113 12.9999 13.7476 13.0941 13.7825C13.5225 13.9414 13.9412 13.5228 13.7823 13.0944C13.7474 13.0002 13.7111 12.959 13.3087 12.5567C12.911 12.1589 12.8644 12.1178 12.7746 12.0848C12.6416 12.0359 12.5098 12.038 12.3798 12.0911ZM7.76662 14.0049C7.64675 14.0648 7.57048 14.1444 7.51314 14.2697L7.47256 14.3583L7.47741 14.9931C7.48221 15.6204 7.48273 15.6288 7.52195 15.7045C7.62201 15.8974 7.78834 16 8.00093 16C8.21351 16 8.37984 15.8974 8.4799 15.7045C8.51912 15.6288 8.51964 15.6204 8.52444 14.9931L8.52929 14.3583L8.48871 14.2697C8.43137 14.1444 8.3551 14.0648 8.23523 14.0049C8.14668 13.9606 8.11246 13.9531 8.00093 13.9531C7.88939 13.9531 7.85517 13.9606 7.76662 14.0049Z" fill="black"/>
</g>
<defs>
<clipPath id="clip0_36985_1303">
<rect width="16" height="16" fill="white"/>
</clipPath>
</defs>
</svg>
