<svg xmlns="http://www.w3.org/2000/svg" width="16" height="16" fill="none"><path fill="#000" fill-rule="evenodd" d="M5.972 13.649a6 6 0 0 0 6.655-1.827.5.5 0 0 0-.771-.637A5 5 0 0 1 3 8.005v-.293L4.146 8.86a.5.5 0 1 0 .708-.707L2.879 6.177a.499.499 0 0 0-.758 0L.146 8.152a.5.5 0 1 0 .708.707L2 7.712v.293a6.001 6.001 0 0 0 3.972 5.644Zm7.174-4.29a.5.5 0 0 0 .708 0l2-2a.5.5 0 0 0-.708-.707l-1.15 1.15a6 6 0 0 0-10.36-3.914.5.5 0 1 0 .728.686 5 5 0 0 1 8.631 3.22l-1.141-1.142a.5.5 0 0 0-.708.707l2 2Z" clip-rule="evenodd"/></svg>