<svg width="16" height="16" viewBox="0 0 16 16" fill="none" xmlns="http://www.w3.org/2000/svg">
<path fill-rule="evenodd" clip-rule="evenodd" d="M2.11114 0.474211C1.4818 0.540995 0.907797 0.944131 0.620597 1.52106C0.342933 2.07879 0.358629 2.7509 0.661941 3.2933C0.939413 3.78944 1.41893 4.13538 1.97733 4.24221C2.17961 4.2809 2.5065 4.27832 2.70464 4.23645C3.47524 4.07365 4.05585 3.48476 4.20226 2.71746C4.23788 2.5308 4.23762 2.206 4.20172 2.01775C4.04293 1.18535 3.37104 0.566675 2.52527 0.474067C2.35317 0.455219 2.28981 0.455251 2.11114 0.474211ZM2.11706 1.48924C1.80413 1.55724 1.51484 1.85019 1.44765 2.16711C1.37978 2.48733 1.46463 2.77354 1.695 3.00138C1.83544 3.14031 1.93264 3.19707 2.106 3.24141C2.42367 3.32266 2.72629 3.23816 2.96202 3.00243C3.19775 2.76671 3.28224 2.46408 3.201 2.14642C3.15666 1.97306 3.09989 1.87586 2.96096 1.73541C2.73223 1.50415 2.44033 1.419 2.11706 1.48924ZM5.46783 1.88788C5.3025 1.93232 5.15279 2.09651 5.11802 2.27149C5.06639 2.53135 5.24296 2.8001 5.50143 2.85504C5.62248 2.88077 14.9708 2.88077 15.0919 2.85504C15.2753 2.81605 15.4335 2.6548 15.4722 2.46735C15.5256 2.20931 15.3536 1.93594 15.1041 1.88244C14.9761 1.85498 5.57042 1.86029 5.46783 1.88788ZM1.9942 6.11477C1.01552 6.29151 0.330917 7.19693 0.432309 8.18042C0.533493 9.16179 1.34519 9.89728 2.32674 9.89701C3.31615 9.89672 4.13154 9.15229 4.22376 8.16506C4.31573 7.18061 3.62697 6.28379 2.64864 6.11413C2.4722 6.08354 2.16549 6.08383 1.9942 6.11477ZM2.21664 7.09933C1.86109 7.13244 1.54751 7.40576 1.4564 7.76197C1.4161 7.91962 1.4161 8.0665 1.4564 8.22415C1.49839 8.38829 1.56752 8.50647 1.6956 8.63306C1.87639 8.81175 2.06671 8.88999 2.32064 8.89002C2.58863 8.89004 2.77687 8.81431 2.96159 8.63212C3.31628 8.28232 3.31968 7.71151 2.96916 7.36098C2.76076 7.15258 2.52503 7.07061 2.21664 7.09933ZM5.42837 7.5237C5.33076 7.55831 5.19663 7.6868 5.1517 7.78874C5.12364 7.85245 5.11455 7.90239 5.11455 7.99306C5.11455 8.15245 5.15903 8.25444 5.27456 8.36003C5.43071 8.50274 4.90615 8.48973 10.321 8.48514L15.1286 8.48106L15.2006 8.44372C15.3822 8.34957 15.4787 8.19308 15.4787 7.99306C15.4787 7.79304 15.3822 7.63655 15.2006 7.5424L15.1286 7.50506L10.3126 7.50227C6.05007 7.49983 5.4888 7.50229 5.42837 7.5237ZM2.13664 11.7213C1.30287 11.8065 0.634165 12.4143 0.455701 13.2491C0.418229 13.4243 0.418229 13.8098 0.455701 13.9851C0.534325 14.3528 0.697605 14.6677 0.944437 14.9276C1.54432 15.5593 2.49728 15.7063 3.25288 15.2838C3.74908 15.0063 4.09528 14.5263 4.20172 13.9684C4.23762 13.7801 4.23788 13.4553 4.20226 13.2687C4.01655 12.2955 3.11641 11.6212 2.13664 11.7213ZM2.0997 12.7455C1.9318 12.7894 1.83356 12.8477 1.69237 12.9871C1.59637 13.0818 1.55576 13.1365 1.51384 13.2274C1.42448 13.4211 1.40186 13.6304 1.44874 13.8292C1.52402 14.1485 1.80946 14.4308 2.12453 14.4976C2.44706 14.5659 2.73252 14.4817 2.96096 14.2507C3.09989 14.1103 3.15666 14.0131 3.201 13.8397C3.28224 13.522 3.19775 13.2194 2.96202 12.9837C2.72608 12.7477 2.41695 12.6624 2.0997 12.7455ZM5.48879 13.1325C5.31581 13.171 5.15549 13.34 5.11884 13.5226C5.06749 13.7783 5.24092 14.0504 5.48917 14.1037C5.5994 14.1273 15.0005 14.1276 15.1046 14.1039C15.2811 14.0639 15.4376 13.8973 15.4732 13.7114C15.5232 13.4502 15.3495 13.1858 15.0919 13.1311C14.9795 13.1072 5.59623 13.1086 5.48879 13.1325Z" fill="#333333"/>
</svg>
