<svg width="12" height="12" viewBox="0 0 12 12" fill="none" xmlns="http://www.w3.org/2000/svg">
<path fill-rule="evenodd" clip-rule="evenodd" d="M9.65976 0.00213751C9.18741 0.0404229 8.77373 0.200388 8.42269 0.480476C8.2852 0.59018 0.951617 7.92406 0.922335 7.98113C0.910385 8.00443 0.698056 8.81246 0.450488 9.77677C0.0888431 11.1854 0.000296839 11.5464 3.51302e-06 11.613C-0.000646905 11.7642 0.0890598 11.8998 0.235072 11.9683C0.369607 12.0314 0.293674 12.0473 2.22459 11.5508C3.18906 11.3028 3.99825 11.0894 4.0228 11.0767C4.0786 11.0477 11.4412 3.68189 11.538 3.55824C11.9311 3.05586 12.0847 2.38947 11.9546 1.75093C11.8192 1.08627 11.3603 0.503585 10.7447 0.21462C10.5317 0.114634 10.318 0.0494268 10.1125 0.0217011C9.99645 0.00605277 9.74536 -0.00480029 9.65976 0.00213751ZM9.56048 0.81789C9.4312 0.841509 9.34412 0.868227 9.22239 0.921625C9.11214 0.969986 8.93058 1.0829 8.88874 1.12913L8.86398 1.15649L9.85169 2.14426C10.3949 2.68752 10.8435 3.13201 10.8485 3.13201C10.8536 3.13201 10.8862 3.09443 10.9209 3.04851C11.2459 2.61926 11.292 2.01383 11.0359 1.53888C10.8631 1.21842 10.5734 0.976133 10.2358 0.869694C10.0136 0.799627 9.76489 0.780548 9.56048 0.81789ZM5.06536 4.93982L1.84196 8.16323L2.83995 9.16115L3.83792 10.1591L7.06447 6.9325L10.291 3.70594L9.29631 2.71117C8.74922 2.16404 8.29871 1.7164 8.29519 1.7164C8.29165 1.7164 6.83824 3.16693 5.06536 4.93982ZM1.48477 8.95553C1.48469 8.96165 1.36459 9.43432 1.21788 10.0059C1.07117 10.5775 0.95214 11.0462 0.953377 11.0474C0.956973 11.0509 3.04655 10.5141 3.05293 10.5081C3.06036 10.5009 2.89233 10.3321 2.11937 9.56997C1.7704 9.22591 1.48483 8.94941 1.48477 8.95553Z" fill="#484E5B"/>
</svg>
