<svg width="16" height="16" viewBox="0 0 16 16" fill="none" xmlns="http://www.w3.org/2000/svg">
<path fill-rule="evenodd" clip-rule="evenodd" d="M11.1312 0.0315698C11.0246 0.0732018 10.9519 0.132514 10.8886 0.22941C10.7208 0.486498 10.8204 0.823442 11.1041 0.95821L11.1921 1.00002L12.7113 1.00456L14.2305 1.00911L12.5641 2.67656C10.7094 4.53237 10.8128 4.41667 10.8109 4.63815C10.8104 4.69639 10.8188 4.77472 10.8297 4.81226C10.8593 4.91461 10.9695 5.03949 11.0799 5.09597L11.1738 5.14402L13.3619 5.14819C15.5411 5.15234 15.5504 5.15223 15.6386 5.11922C15.75 5.07751 15.8613 4.97139 15.9138 4.85683C15.9911 4.68805 15.9592 4.46711 15.8377 4.32904C15.7516 4.23125 15.6621 4.18141 15.5361 4.16106C15.469 4.15023 14.9157 4.14421 13.9761 4.14415L12.5202 4.14402L14.1935 2.46802C15.1139 1.54621 15.8778 0.774018 15.8911 0.752018C15.9666 0.627138 15.9764 0.431986 15.914 0.295762C15.8629 0.184066 15.7462 0.0730738 15.6368 0.0321458C15.5523 0.000545839 15.5156 3.38416e-05 13.3795 0.000769842C11.2939 0.00148984 11.2051 0.00270584 11.1312 0.0315698ZM5.6241 1.39354C5.5713 1.40138 5.4093 1.44435 5.2641 1.48904C4.43578 1.744 3.61767 2.16949 2.92329 2.70647C1.50028 3.80688 0.526216 5.38695 0.177784 7.16002C0.024408 7.94058 0.00303203 8.87424 0.12036 9.66839C0.297128 10.8648 0.7706 12.0034 1.5091 13.008C1.95271 13.6115 2.60982 14.2459 3.24369 14.6828C4.22414 15.3585 5.35724 15.7921 6.5361 15.9425C7.1511 16.021 7.89994 16.0151 8.5121 15.9268C9.7391 15.7499 10.9205 15.26 11.92 14.5136C12.2767 14.2472 12.7426 13.8177 13.0194 13.5001C13.4677 12.9858 13.5493 12.8286 13.5324 12.5128C13.5135 12.1618 13.2917 11.8754 12.9471 11.7573C12.8471 11.723 12.8187 11.7208 12.5121 11.7249C11.5599 11.7374 10.7339 11.5852 9.8881 11.2413C9.65799 11.1478 9.58065 11.1319 9.46046 11.1537C9.10838 11.2176 8.93876 11.597 9.12479 11.9046C9.19482 12.0203 9.26154 12.0693 9.46567 12.1545C10.271 12.491 11.1153 12.6787 12.006 12.7192C12.1896 12.7276 12.3435 12.7381 12.3479 12.7425C12.3657 12.7603 11.676 13.4283 11.4721 13.5906C9.67082 15.025 7.2547 15.3889 5.1121 14.5485C4.53817 14.3234 3.93194 13.9736 3.46198 13.5965C2.17282 12.562 1.33234 11.0846 1.10596 9.45495C0.94772 8.31592 1.10575 7.12707 1.55564 6.07202C1.88959 5.28883 2.3141 4.66232 2.92782 4.0469C3.53044 3.44256 4.1818 3.0001 4.9521 2.67178C5.08967 2.61314 5.44498 2.48002 5.46393 2.48002C5.46742 2.48002 5.4487 2.53221 5.42231 2.59602C5.26828 2.96843 5.09217 3.60002 5.01745 4.04802C4.89294 4.79456 4.87839 5.60235 4.97671 6.30947C5.03431 6.72371 5.15503 7.26527 5.22142 7.40735C5.26604 7.50283 5.35209 7.58591 5.46207 7.63973C5.69721 7.75477 6.00089 7.64512 6.11969 7.40229C6.18516 7.2685 6.18726 7.18799 6.13102 6.96735C5.97422 6.35223 5.91924 5.92439 5.91929 5.32002C5.91935 4.40282 6.08716 3.58384 6.44385 2.76002C6.57098 2.46639 6.59167 2.39363 6.59191 2.23938C6.59226 2.01779 6.51972 1.82357 6.37894 1.66922C6.18364 1.45509 5.90217 1.35229 5.6241 1.39354ZM7.56359 6.01722C7.42886 6.04954 7.30292 6.14987 7.23502 6.27901C7.19802 6.34933 7.19239 6.37901 7.19239 6.50402C7.19239 6.62909 7.19798 6.65853 7.23487 6.72802C7.28942 6.83075 7.3791 6.91679 7.4801 6.96323C7.55938 6.99968 7.56671 7.00007 8.30119 7.00477C8.70879 7.00738 9.03999 7.01499 9.03719 7.02168C9.03439 7.02837 8.6397 7.51795 8.1601 8.10963C7.6805 8.70131 7.2673 9.22165 7.24188 9.26592C7.18129 9.37144 7.16767 9.52525 7.20767 9.6524C7.2445 9.76951 7.35025 9.88896 7.46847 9.94703L7.5601 9.99202H8.8961H10.2321L10.3227 9.94754C10.6654 9.77925 10.7038 9.31275 10.3933 9.08963C10.2656 8.99789 10.2136 8.99255 9.4441 8.99227C9.0635 8.99213 8.7521 8.98803 8.7521 8.98315C8.7521 8.97829 9.13212 8.5049 9.59657 7.93115C10.061 7.35743 10.468 6.85258 10.5009 6.80925C10.6965 6.552 10.6073 6.19264 10.3117 6.04719L10.2321 6.00802L8.9281 6.00536C8.19198 6.00386 7.59775 6.00901 7.56359 6.01722Z" fill="black"/>
</svg>
