<svg width="184" height="121" viewBox="0 0 184 121" fill="none" xmlns="http://www.w3.org/2000/svg">
<ellipse cx="42.6812" cy="32.5505" rx="31.9619" ry="32.5505" fill="#F5F5F5"/>
<path d="M77.5801 19.2871L78.9795 20.1318L104.824 54.2832C104.827 54.302 104.83 54.3251 104.834 54.3525C104.845 54.436 104.862 54.5589 104.883 54.7148C104.925 55.0271 104.986 55.4743 105.061 56.0117C105.21 57.0864 105.413 58.5246 105.632 59.9785C105.851 61.4321 106.086 62.9032 106.297 64.043C106.402 64.6123 106.502 65.1022 106.591 65.4668C106.635 65.6485 106.678 65.8034 106.719 65.9229C106.739 65.9825 106.76 66.0376 106.782 66.084C106.802 66.126 106.831 66.1793 106.873 66.2217C106.947 66.2972 107.144 66.4553 107.411 66.6611C107.685 66.8726 108.05 67.1466 108.472 67.4609C109.316 68.0898 110.397 68.8814 111.461 69.6572C112.525 70.4331 113.574 71.1934 114.357 71.7598C114.749 72.043 115.074 72.2785 115.301 72.4424C115.414 72.5243 115.504 72.5881 115.564 72.6318C115.595 72.6537 115.618 72.6703 115.634 72.6816C115.642 72.6873 115.647 72.6924 115.651 72.6953C115.653 72.6967 115.655 72.6975 115.656 72.6982L115.657 72.6992L115.67 72.708L115.683 72.7148L129.984 80.3271C129.988 80.3295 129.993 80.3322 129.998 80.3359C130.012 80.3456 130.032 80.3603 130.06 80.3789C130.114 80.4163 130.195 80.4707 130.299 80.541C130.507 80.6818 130.812 80.8849 131.194 81.1328C131.96 81.6288 133.042 82.3067 134.305 83.0332C136.825 84.4838 140.084 86.1385 142.998 86.9258C145.86 87.6989 151.362 90.2204 156.168 92.5605C158.567 93.7285 160.785 94.8484 162.404 95.6758C163.214 96.0894 163.873 96.4298 164.33 96.667C164.559 96.7856 164.737 96.8783 164.857 96.9414C164.918 96.9729 164.964 96.9974 164.995 97.0137C165 97.0162 165.005 97.0183 165.009 97.0205C165.01 97.0218 165.011 97.023 165.013 97.0244C165.031 97.044 165.059 97.0733 165.096 97.1113C165.168 97.1873 165.274 97.2994 165.409 97.4414C165.68 97.7257 166.068 98.1316 166.533 98.6211C167.464 99.6003 168.709 100.911 169.963 102.237C171.217 103.563 172.481 104.905 173.45 105.945C173.935 106.466 174.346 106.911 174.646 107.24C174.795 107.405 174.916 107.54 175.004 107.642C175.048 107.692 175.083 107.734 175.108 107.766C175.121 107.781 175.132 107.794 175.14 107.804C175.147 107.814 175.15 107.818 175.15 107.818C175.162 107.837 175.194 107.9 175.251 108.018C175.305 108.13 175.377 108.283 175.463 108.469C175.635 108.841 175.864 109.346 176.13 109.939C176.662 111.126 177.342 112.662 178.013 114.184C178.683 115.705 179.344 117.211 179.837 118.336C180.083 118.898 180.288 119.366 180.431 119.693C180.464 119.769 180.493 119.837 180.52 119.896L0.546875 119.8C0.823643 119.558 1.28608 119.183 2.03906 118.639C3.63208 117.486 6.51863 115.577 11.6836 112.558C22.0818 106.479 26.555 97.1181 28.4971 93.4922C30.4718 89.8052 30.1702 88.2005 34.0771 84.9307C36.0452 83.2836 38.324 81.4828 40.1982 79.709C41.1365 78.8209 41.9799 77.9337 42.6367 77.0684C43.2919 76.2051 43.7718 75.3512 43.9678 74.5293C44.0546 74.1651 44.3202 73.5193 44.7314 72.6465C45.1395 71.7805 45.6826 70.7086 46.3125 69.499C47.573 67.0785 49.1763 64.1192 50.7402 61.1719C52.3027 58.2273 53.8247 55.2958 54.918 52.9404C55.4643 51.7633 55.9065 50.7251 56.1924 49.8984C56.3352 49.4853 56.441 49.1198 56.501 48.8135C56.5596 48.5138 56.5798 48.2443 56.5293 48.0371C56.3703 47.3851 56.1548 46.8291 55.9541 46.3428C55.7506 45.8498 55.5703 45.4451 55.4619 45.0693C55.3554 44.7 55.3274 44.3848 55.416 44.0791C55.5049 43.7727 55.719 43.4461 56.1514 43.0723C56.5785 42.703 56.9446 42.5381 57.2744 42.4531C57.6211 42.3638 57.9116 42.3619 58.2627 42.3164C58.6035 42.2722 58.9553 42.1876 59.3213 41.9229C59.6821 41.6618 60.0404 41.2386 60.4248 40.5488C61.1478 39.2514 62.1639 38.5902 62.9824 38.0342C63.3833 37.7619 63.7612 37.4989 64.0039 37.1904C64.2619 36.8624 64.3688 36.4814 64.2393 36.002C64.1381 35.6278 64.1011 34.883 64.1104 33.9453C64.1195 33.0184 64.1729 31.9324 64.2402 30.8945C64.3075 29.8572 64.3879 28.8702 64.4521 28.1426C64.4843 27.779 64.5124 27.4803 64.5322 27.2725C64.5421 27.1687 64.5502 27.0874 64.5557 27.0322C64.5567 27.022 64.5568 27.0123 64.5576 27.0039L70.8193 18.0342L77.5801 19.2871Z" fill="white" stroke="#9F9F9F" stroke-width="0.441405"/>
<path d="M95.2407 89.6777L95.1069 81.1084L95.2407 71.8496L95.2417 71.7754L95.1978 71.7158C89.896 64.5071 88.008 58.9149 87.4399 55.1387C87.1559 53.2503 87.202 51.8137 87.3169 50.8535C87.3743 50.3733 87.4496 50.0118 87.5093 49.7725C87.5391 49.6528 87.5652 49.5632 87.5835 49.5049C87.5925 49.4763 87.5993 49.455 87.604 49.4414C87.6064 49.4346 87.6078 49.4287 87.6089 49.4258C87.6094 49.4245 87.6097 49.4233 87.6099 49.4229V49.4219L87.6567 49.3008L87.5708 49.2021L85.8687 47.2188L87.9224 41.9541L87.9595 41.8594L87.9116 41.7695L85.8101 37.8369L85.7808 37.7822L85.7261 37.75L81.2378 35.1445C80.9779 32.042 79.4682 29.7208 78.022 28.1758C77.2895 27.3934 76.5711 26.8076 76.0356 26.417C75.768 26.2218 75.5454 26.0749 75.3892 25.9766C75.3111 25.9274 75.249 25.8903 75.2065 25.8652C75.2036 25.8635 75.2005 25.862 75.1978 25.8604L71.145 18.0605L77.6011 19.2568L78.9985 20.1006L104.844 54.251L104.903 54.6846C104.945 54.9968 105.007 55.4441 105.082 55.9814C105.231 57.0561 105.435 58.4943 105.655 59.9482C105.874 61.4017 106.109 62.873 106.319 64.0127C106.424 64.5821 106.524 65.072 106.613 65.4365C106.657 65.6183 106.699 65.7732 106.74 65.8926C106.76 65.9521 106.781 66.0064 106.803 66.0527C106.823 66.0946 106.851 66.1481 106.892 66.1904C106.966 66.2664 107.164 66.425 107.43 66.6309C107.704 66.8423 108.068 67.1164 108.49 67.4307C109.334 68.0595 110.414 68.8511 111.479 69.627C112.544 70.4029 113.594 71.1641 114.377 71.7305C114.769 72.0135 115.095 72.2482 115.322 72.4121C115.435 72.4937 115.524 72.5578 115.584 72.6016C115.615 72.6232 115.638 72.6401 115.654 72.6514C115.662 72.657 115.668 72.6622 115.672 72.665C115.674 72.6663 115.675 72.6673 115.676 72.668L115.677 72.6689H115.678L115.69 72.6777L115.704 72.6846L130.008 80.2988C130.011 80.3008 130.014 80.3031 130.018 80.3057C130.032 80.3154 130.053 80.3299 130.081 80.3486C130.135 80.3861 130.216 80.4405 130.32 80.5107C130.528 80.6516 130.832 80.8546 131.215 81.1025C131.981 81.5985 133.062 82.2764 134.325 83.0029C136.845 84.4535 140.104 86.1082 143.018 86.8955C145.88 87.6685 151.382 90.1901 156.188 92.5303C158.587 93.6982 160.805 94.8181 162.424 95.6455C163.234 96.0592 163.894 96.3995 164.351 96.6367C164.579 96.7551 164.757 96.8481 164.877 96.9111C164.938 96.9427 164.984 96.9672 165.015 96.9834C165.021 96.9864 165.026 96.9888 165.031 96.9912C165.032 96.9921 165.033 96.9932 165.034 96.9941C165.052 97.0138 165.08 97.0432 165.116 97.0811C165.188 97.1571 165.295 97.2689 165.43 97.4111C165.701 97.6955 166.088 98.1022 166.553 98.5918C167.484 99.5713 168.729 100.883 169.983 102.209C171.237 103.536 172.502 104.878 173.471 105.918C173.956 106.438 174.366 106.883 174.666 107.212C174.815 107.377 174.937 107.511 175.025 107.612C175.069 107.663 175.103 107.705 175.129 107.736C175.137 107.745 175.143 107.753 175.149 107.76L175.171 107.795C175.183 107.813 175.215 107.875 175.272 107.992C175.326 108.105 175.398 108.256 175.484 108.442C175.656 108.814 175.884 109.32 176.15 109.913C176.682 111.099 177.362 112.636 178.033 114.157C178.703 115.679 179.364 117.185 179.857 118.311C180.103 118.873 180.309 119.341 180.452 119.668C180.485 119.743 180.513 119.811 180.54 119.871L97.0229 119.827C96.6162 116.924 96.6036 114.126 96.5981 111.858V111.857C96.5841 108.48 96.3734 106.922 96.0942 105.885C95.9551 105.368 95.7988 104.981 95.6519 104.582C95.505 104.183 95.3623 103.756 95.2368 103.137C94.992 101.928 95.3142 100.517 95.7144 99.3857C95.913 98.8244 96.1276 98.3403 96.2925 97.9971C96.3749 97.8256 96.4446 97.6895 96.4937 97.5967C96.5181 97.5505 96.5373 97.515 96.5503 97.4912C96.5568 97.4793 96.5617 97.4697 96.5649 97.4639C96.5665 97.4611 96.5681 97.4593 96.5688 97.458L96.5698 97.4561L96.6157 97.375L96.5903 97.2861C95.9148 94.9449 95.5771 93.0396 95.4087 91.7217C95.3245 91.0627 95.2822 90.5504 95.2612 90.2041C95.2508 90.031 95.2462 89.8994 95.2437 89.8115C95.2424 89.7676 95.241 89.7346 95.2407 89.7129V89.6777Z" fill="#F1F1F1" stroke="#9F9F9F" stroke-width="0.441405"/>
<path d="M160.154 80.1143L156.612 80.4131L156.216 80.4463L156.453 80.7646L165.087 92.3457L161.326 92.6484L160.963 92.6777L161.157 92.9854L167.618 103.256L163.823 103.555L163.483 103.582L163.647 103.881L172.338 119.748L165.424 119.656L165.096 119.651L165.11 119.689L131.397 119.869L140.091 103.999L140.255 103.7L139.915 103.673L136.118 103.367L142.581 93.0967L142.775 92.7881L142.411 92.7598L138.65 92.4639L147.285 80.8828L147.521 80.5654L147.127 80.5312L143.589 80.2266L151.839 65.6279L151.953 65.6133L160.154 80.1143Z" fill="#F5F5F5" stroke="#9F9F9F" stroke-width="0.441405"/>
<path d="M172.91 89.1836L170.151 89.4082L169.746 89.4404L169.995 89.7627L176.842 98.6279L173.922 98.8535L173.551 98.8828L173.755 99.1943L178.875 107.05L175.92 107.274L175.574 107.301L175.746 107.604L182.653 119.775L177.204 119.705L176.873 119.701L176.884 119.731L150.064 119.869L156.974 107.694L157.146 107.393L156.799 107.365L153.843 107.136L158.965 99.2803L159.168 98.9678L158.796 98.9395L155.876 98.7178L162.725 89.8535L162.974 89.5322L162.569 89.499L159.815 89.2695L166.384 78.0498L172.91 89.1836Z" fill="white" stroke="#9F9F9F" stroke-width="0.441405"/>
<path fill-rule="evenodd" clip-rule="evenodd" d="M147.328 45.7091H145.303C144.326 43.2231 141.961 41.4688 139.196 41.4688C136.298 41.4688 133.84 43.3961 132.957 46.0731C132.44 45.8403 131.87 45.7091 131.27 45.7091C129.221 45.7091 127.514 47.2132 127.131 49.2074H125.145C123.581 49.2074 122.314 50.5126 122.314 52.1225C122.314 53.7325 123.581 55.0377 125.145 55.0377H147.328C149.83 55.0377 151.858 52.9495 151.858 50.3735C151.858 47.7973 149.83 45.7091 147.328 45.7091Z" fill="#F5F5F5"/>
</svg>
